<?xml version="1.0" encoding="utf-8"?>
<!-- Generator: Adobe Illustrator 21.0.0, SVG Export Plug-In . SVG Version: 6.00 Build 0)  -->
<svg version="1.1" id="Layer_1" xmlns="http://www.w3.org/2000/svg" xmlns:xlink="http://www.w3.org/1999/xlink" x="0px" y="0px"
	 viewBox="0 0 330 168" style="enable-background:new 0 0 330 168;" xml:space="preserve">
<style type="text/css">
	.st0{font-family:'Overpass-Regular';}
	.st1{font-size:7.2124px;}
	.st2{font-family:'Overpass-SemiBold';}
	.st3{font-size:8px;}
	.st4{fill:#0000FF;}
	.st5{fill:#FFFFFF;}
	.st6{fill:none;stroke:#000000;stroke-width:0.745;}
</style>
<g>
	<text transform="matrix(1 0 0 1 193.7756 144.4534)" class="st0 st1">n=</text>
	<text transform="matrix(1 0 0 1 202.5208 144.4534)" class="st0 st1"> </text>
	<text transform="matrix(1 0 0 1 204.2336 144.4534)" class="st0 st1">51</text>
	<text transform="matrix(1 0 0 1 211.4456 144.4534)" class="st0 st1"> </text>
	<text transform="matrix(1 0 0 1 213.1584 144.4534)" class="st0 st1">(</text>
	<text transform="matrix(1 0 0 1 215.6828 144.4534)" class="st0 st1">me</text>
	<text transform="matrix(1 0 0 1 225.6906 144.4534)" class="st0 st1">hr</text>
	<text transform="matrix(1 0 0 1 232.723 144.4534)" class="st0 st1">e</text>
	<text transform="matrix(1 0 0 1 236.5988 144.4534)" class="st0 st1">r</text>
	<text transform="matrix(1 0 0 1 239.4836 144.4534)" class="st0 st1">e</text>
	<text transform="matrix(1 0 0 1 243.4504 144.4534)" class="st0 st1"> </text>
	<text transform="matrix(1 0 0 1 244.8029 144.4534)" class="st0 st1">Ant</text>
	<text transform="matrix(1 0 0 1 256.6135 144.4534)" class="st0 st1">w</text>
	<text transform="matrix(1 0 0 1 261.7523 144.4534)" class="st0 st1">o</text>
	<text transform="matrix(1 0 0 1 265.8088 144.4534)" class="st0 st1">r</text>
	<text transform="matrix(1 0 0 1 268.7844 144.4534)" class="st0 st1">t</text>
	<text transform="matrix(1 0 0 1 271.4885 144.4534)" class="st0 st1">m</text>
	<text transform="matrix(1 0 0 1 277.6194 144.4534)" class="st0 st1">ög</text>
	<text transform="matrix(1 0 0 1 285.8235 144.4534)" class="st0 st1">l</text>
	<text transform="matrix(1 0 0 1 287.717 144.4534)" class="st0 st1">i</text>
	<text transform="matrix(1 0 0 1 289.6096 144.4534)" class="st0 st1">c</text>
	<text transform="matrix(1 0 0 1 293.2161 144.4534)" class="st0 st1">h</text>
	<text transform="matrix(1 0 0 1 297.2727 144.4534)" class="st0 st1">k</text>
	<text transform="matrix(1 0 0 1 301.0598 144.4534)" class="st0 st1">ei</text>
	<text transform="matrix(1 0 0 1 306.8293 144.4534)" class="st0 st1">t</text>
	<text transform="matrix(1 0 0 1 309.5344 144.4534)" class="st0 st1">e</text>
	<text transform="matrix(1 0 0 1 313.4104 144.4534)" class="st0 st1">n</text>
	<text transform="matrix(1 0 0 1 317.5579 144.4534)" class="st0 st1">)</text>
</g>
<g>
	<text transform="matrix(1 0 0 1 27.4413 12.5807)" class="st2 st3">Lo</text>
	<text transform="matrix(1 0 0 1 36.6414 12.5807)" class="st2 st3">k</text>
	<text transform="matrix(1 0 0 1 40.8413 12.5807)" class="st2 st3">ale Ebene</text>
</g>
<rect x="90" y="6.8" class="st4" width="69.5" height="12.6"/>
<rect x="85.5" y="3.4" class="st5" width="69.7" height="12.6"/>
<rect x="85.5" y="3.4" class="st6" width="69.7" height="12.6"/>
<text transform="matrix(1 0 0 1 163.9358 13.6872)" class="st2 st3">2</text>
<text transform="matrix(1 0 0 1 168.7358 13.6872)" class="st2 st3">7</text>
<g>
	<text transform="matrix(1 0 0 1 27.225 39.0328)" class="st2 st3">Bezirks</text>
	<text transform="matrix(1 0 0 1 54.125 39.0328)" class="st2 st3">e</text>
	<text transform="matrix(1 0 0 1 58.425 39.0328)" class="st2 st3">b</text>
	<text transform="matrix(1 0 0 1 62.825 39.0328)" class="st2 st3">e</text>
	<text transform="matrix(1 0 0 1 67.125 39.0328)" class="st2 st3">n</text>
	<text transform="matrix(1 0 0 1 71.625 39.0328)" class="st2 st3">e</text>
</g>
<rect x="88.9" y="33.6" class="st4" width="24.9" height="12.6"/>
<rect x="85.5" y="30.1" class="st5" width="24.9" height="12.6"/>
<rect x="85.5" y="30.1" class="st6" width="24.9" height="12.6"/>
<text transform="matrix(1 0 0 1 118.7239 39.4177)" class="st2 st3">13</text>
<g>
	<text transform="matrix(1 0 0 1 28.225 67.0914)" class="st2 st3">L</text>
	<text transform="matrix(1 0 0 1 32.825 67.0914)" class="st2 st3">a</text>
	<text transform="matrix(1 0 0 1 37.025 67.0914)" class="st2 st3">n</text>
	<text transform="matrix(1 0 0 1 41.525 67.0914)" class="st2 st3">d</text>
	<text transform="matrix(1 0 0 1 45.925 67.0914)" class="st2 st3">eseb</text>
	<text transform="matrix(1 0 0 1 62.825 67.0914)" class="st2 st3">e</text>
	<text transform="matrix(1 0 0 1 67.225 67.0914)" class="st2 st3">n</text>
	<text transform="matrix(1 0 0 1 71.625 67.0914)" class="st2 st3">e</text>
</g>
<rect x="88.9" y="60.3" class="st4" width="67" height="12.6"/>
<rect x="85.5" y="56.8" class="st5" width="67" height="12.6"/>
<rect x="85.5" y="56.8" class="st6" width="67" height="12.6"/>
<text transform="matrix(1 0 0 1 160.9593 67.1482)" class="st2 st3">2</text>
<text transform="matrix(1 0 0 1 165.8592 67.1482)" class="st2 st3">6</text>
<g>
	<text transform="matrix(1 0 0 1 27.225 93.5499)" class="st2 st3">Bund</text>
	<text transform="matrix(1 0 0 1 45.925 93.5499)" class="st2 st3">e</text>
	<text transform="matrix(1 0 0 1 50.225 93.5499)" class="st2 st3">s</text>
	<text transform="matrix(1 0 0 1 54.025 93.5499)" class="st2 st3">e</text>
	<text transform="matrix(1 0 0 1 58.325 93.5499)" class="st2 st3">ben</text>
	<text transform="matrix(1 0 0 1 71.625 93.5499)" class="st2 st3">e</text>
</g>
<rect x="88.9" y="87" class="st4" width="36.4" height="12.6"/>
<rect x="85.5" y="83.5" class="st5" width="36.4" height="12.6"/>
<rect x="85.5" y="83.5" class="st6" width="36.4" height="12.6"/>
<text transform="matrix(1 0 0 1 129.7884 93.8786)" class="st2 st3">16</text>
<g>
	<text transform="matrix(1 0 0 1 1.5248 120.1925)" class="st2 st3">i</text>
	<text transform="matrix(1 0 0 1 3.5249 120.1925)" class="st2 st3">n</text>
	<text transform="matrix(1 0 0 1 8.0249 120.1925)" class="st2 st3">t</text>
	<text transform="matrix(1 0 0 1 10.9249 120.1925)" class="st2 st3">erna</text>
	<text transform="matrix(1 0 0 1 27.2249 120.1925)" class="st2 st3">t</text>
	<text transform="matrix(1 0 0 1 30.2249 120.1925)" class="st2 st3">ion</text>
	<text transform="matrix(1 0 0 1 41.3249 120.1925)" class="st2 st3">a</text>
	<text transform="matrix(1 0 0 1 45.5249 120.1925)" class="st2 st3">le</text>
	<text transform="matrix(1 0 0 1 51.9249 120.1925)" class="st2 st3"> </text>
	<text transform="matrix(1 0 0 1 53.5249 120.1925)" class="st2 st3">E</text>
	<text transform="matrix(1 0 0 1 58.3249 120.1925)" class="st2 st3">ben</text>
	<text transform="matrix(1 0 0 1 71.6249 120.1925)" class="st2 st3">e</text>
</g>
<rect x="88.9" y="113.7" class="st4" width="17.1" height="12.6"/>
<rect x="85.5" y="110.3" class="st5" width="17.3" height="12.6"/>
<rect x="85.5" y="110.3" class="st6" width="17.3" height="12.6"/>
<text transform="matrix(1 0 0 1 110.8675 120.2546)" class="st2 st3">7</text>
</svg>
