<?xml version="1.0" encoding="utf-8"?>
<!-- Generator: Adobe Illustrator 21.0.0, SVG Export Plug-In . SVG Version: 6.00 Build 0)  -->
<svg version="1.1" id="Layer_1" xmlns="http://www.w3.org/2000/svg" xmlns:xlink="http://www.w3.org/1999/xlink" x="0px" y="0px"
	 viewBox="0 0 330 159" style="enable-background:new 0 0 330 159;" xml:space="preserve">
<style type="text/css">
	.st0{font-family:'Overpass-Regular';}
	.st1{font-size:8px;}
	.st2{fill:#0000FF;}
	.st3{fill:#FFFFFF;}
	.st4{fill:none;stroke:#000000;stroke-width:0.745;}
	.st5{font-family:'Overpass-SemiBold';}
	.st6{font-size:7.2124px;}
</style>
<text transform="matrix(1 0 0 1 4.8599 10.8242)" class="st0 st1">Lei</text>
<text transform="matrix(1 0 0 1 15.7599 10.8242)" class="st0 st1">t</text>
<text transform="matrix(1 0 0 1 18.5599 10.8242)" class="st0 st1">ung </text>
<text transform="matrix(1 0 0 1 33.9599 10.8242)" class="st0 st1">(</text>
<text transform="matrix(1 0 0 1 36.5599 10.8242)" class="st0 st1">V</text>
<text transform="matrix(1 0 0 1 41.1599 10.8242)" class="st0 st1">ors</text>
<text transform="matrix(1 0 0 1 52.5599 10.8242)" class="st0 st1">t</text>
<text transform="matrix(1 0 0 1 55.4599 10.8242)" class="st0 st1">and, Geschä</text>
<text transform="matrix(1 0 0 1 98.5599 10.8242)" class="st0 st1">f</text>
<text transform="matrix(1 0 0 1 101.2599 10.8242)" class="st0 st1">tsfüh</text>
<text transform="matrix(1 0 0 1 119.6599 10.8242)" class="st0 st1">r</text>
<text transform="matrix(1 0 0 1 122.7599 10.8242)" class="st0 st1">ung)</text>
<rect x="153.9" y="5" class="st2" width="37.6" height="12.6"/>
<rect x="151.6" y="1.5" class="st3" width="37.3" height="12.6"/>
<rect x="151.6" y="1.5" class="st4" width="37.3" height="12.6"/>
<text transform="matrix(1 0 0 1 196.3398 10.8242)" class="st5 st1">15</text>
<text transform="matrix(1 0 0 1 3.906250e-03 37.2002)" class="st0 st1">Mi</text>
<text transform="matrix(1 0 0 1 8.5039 37.2002)" class="st0 st1">t</text>
<text transform="matrix(1 0 0 1 11.3039 37.2002)" class="st0 st1">tleres Management / Proje</text>
<text transform="matrix(1 0 0 1 107.1039 37.2002)" class="st0 st1">k</text>
<text transform="matrix(1 0 0 1 111.3039 37.2002)" class="st0 st1">tlei</text>
<text transform="matrix(1 0 0 1 122.7039 37.2002)" class="st0 st1">t</text>
<text transform="matrix(1 0 0 1 125.5039 37.2002)" class="st0 st1">ung</text>
<rect x="155.1" y="31.4" class="st2" width="75.5" height="12.6"/>
<rect x="151.6" y="27.9" class="st3" width="76.5" height="12.6"/>
<rect x="151.6" y="27.9" class="st4" width="76.5" height="12.6"/>
<text transform="matrix(1 0 0 1 235.458 37.2002)" class="st5 st1">2</text>
<text transform="matrix(1 0 0 1 240.258 37.2002)" class="st5 st1">9</text>
<text transform="matrix(1 0 0 1 112.3159 63.5762)" class="st0 st1">Re</text>
<text transform="matrix(1 0 0 1 121.9159 63.5762)" class="st0 st1">f</text>
<text transform="matrix(1 0 0 1 124.5159 63.5762)" class="st0 st1">e</text>
<text transform="matrix(1 0 0 1 128.8159 63.5762)" class="st0 st1">r</text>
<text transform="matrix(1 0 0 1 131.8159 63.5762)" class="st0 st1">at</text>
<rect x="155.1" y="57.8" class="st2" width="14.4" height="12.6"/>
<rect x="151.6" y="54.3" class="st3" width="13.6" height="12.6"/>
<rect x="151.6" y="54.3" class="st4" width="13.6" height="12.6"/>
<text transform="matrix(1 0 0 1 174.2295 63.5771)" class="st5 st1">5</text>
<text transform="matrix(1 0 0 1 1.0439 89.9531)" class="st0 st1">K</text>
<text transform="matrix(1 0 0 1 6.244 89.9531)" class="st0 st1">ommuni</text>
<text transform="matrix(1 0 0 1 35.244 89.9531)" class="st0 st1">k</text>
<text transform="matrix(1 0 0 1 39.3439 89.9531)" class="st0 st1">ation / Ö</text>
<text transform="matrix(1 0 0 1 70.9439 89.9531)" class="st0 st1">f</text>
<text transform="matrix(1 0 0 1 73.644 89.9531)" class="st0 st1">f</text>
<text transform="matrix(1 0 0 1 76.244 89.9531)" class="st0 st1">entlich</text>
<text transform="matrix(1 0 0 1 100.644 89.9531)" class="st0 st1">k</text>
<text transform="matrix(1 0 0 1 104.744 89.9531)" class="st0 st1">eitsarbeit</text>
<rect x="155.1" y="84.1" class="st2" width="28.8" height="12.6"/>
<rect x="151.6" y="80.7" class="st3" width="28" height="12.6"/>
<rect x="151.6" y="80.7" class="st4" width="28" height="12.6"/>
<text transform="matrix(1 0 0 1 188.7207 89.9531)" class="st5 st1">10</text>
<g>
	<text transform="matrix(1 0 0 1 107.6719 116.3291)" class="st0 st1">Sonstige</text>
</g>
<rect x="155.1" y="110.5" class="st2" width="14.4" height="12.6"/>
<rect x="151.6" y="107.1" class="st3" width="13.6" height="12.6"/>
<rect x="151.6" y="107.1" class="st4" width="13.6" height="12.6"/>
<text transform="matrix(1 0 0 1 177.2432 117.2002)" class="st5 st1">6</text>
<g>
	<text transform="matrix(1 0 0 1 198.6332 153.7867)" class="st0 st6">n=</text>
	<text transform="matrix(1 0 0 1 207.3783 153.7867)" class="st0 st6"> </text>
	<text transform="matrix(1 0 0 1 209.0912 153.7867)" class="st0 st6">51</text>
	<text transform="matrix(1 0 0 1 216.3031 153.7867)" class="st0 st6"> </text>
	<text transform="matrix(1 0 0 1 218.016 153.7867)" class="st0 st6">(</text>
	<text transform="matrix(1 0 0 1 220.5403 153.7867)" class="st0 st6">me</text>
	<text transform="matrix(1 0 0 1 230.5482 153.7867)" class="st0 st6">hr</text>
	<text transform="matrix(1 0 0 1 237.5805 153.7867)" class="st0 st6">e</text>
	<text transform="matrix(1 0 0 1 241.4564 153.7867)" class="st0 st6">r</text>
	<text transform="matrix(1 0 0 1 244.3412 153.7867)" class="st0 st6">e</text>
	<text transform="matrix(1 0 0 1 248.308 153.7867)" class="st0 st6"> </text>
	<text transform="matrix(1 0 0 1 249.6605 153.7867)" class="st0 st6">Ant</text>
	<text transform="matrix(1 0 0 1 261.4711 153.7867)" class="st0 st6">w</text>
	<text transform="matrix(1 0 0 1 266.6098 153.7867)" class="st0 st6">o</text>
	<text transform="matrix(1 0 0 1 270.6664 153.7867)" class="st0 st6">r</text>
	<text transform="matrix(1 0 0 1 273.642 153.7867)" class="st0 st6">t</text>
	<text transform="matrix(1 0 0 1 276.3461 153.7867)" class="st0 st6">m</text>
	<text transform="matrix(1 0 0 1 282.477 153.7867)" class="st0 st6">ög</text>
	<text transform="matrix(1 0 0 1 290.6811 153.7867)" class="st0 st6">l</text>
	<text transform="matrix(1 0 0 1 292.5746 153.7867)" class="st0 st6">i</text>
	<text transform="matrix(1 0 0 1 294.4672 153.7867)" class="st0 st6">c</text>
	<text transform="matrix(1 0 0 1 298.0736 153.7867)" class="st0 st6">h</text>
	<text transform="matrix(1 0 0 1 302.1302 153.7867)" class="st0 st6">k</text>
	<text transform="matrix(1 0 0 1 305.9174 153.7867)" class="st0 st6">ei</text>
	<text transform="matrix(1 0 0 1 311.6869 153.7867)" class="st0 st6">t</text>
	<text transform="matrix(1 0 0 1 314.392 153.7867)" class="st0 st6">e</text>
	<text transform="matrix(1 0 0 1 318.2679 153.7867)" class="st0 st6">n</text>
	<text transform="matrix(1 0 0 1 322.4154 153.7867)" class="st0 st6">)</text>
</g>
</svg>
