<?xml version="1.0" encoding="utf-8"?>
<!-- Generator: Adobe Illustrator 21.0.0, SVG Export Plug-In . SVG Version: 6.00 Build 0)  -->
<svg version="1.1" id="Layer_1" xmlns="http://www.w3.org/2000/svg" xmlns:xlink="http://www.w3.org/1999/xlink" x="0px" y="0px"
	 viewBox="0 0 330 159" style="enable-background:new 0 0 330 159;" xml:space="preserve">
<style type="text/css">
	.st0{enable-background:new    ;}
	.st1{fill:#0000FF;}
	.st2{fill:#FFFFFF;}
	.st3{fill:none;stroke:#000000;stroke-width:0.745;}
</style>
<g class="st0">
	<path d="M5.6,5.2h0.7v4.9h2.8v0.7H5.6V5.2z"/>
	<path d="M9.9,8.8c0-1.4,0.7-2.1,1.8-2.1c0.9,0,1.7,0.6,1.7,1.9c0,0.1,0,0.3,0,0.5h-2.8c0.1,0.8,0.5,1.2,1.1,1.2
		c0.3,0,0.6-0.1,0.9-0.4l0.4,0.5c-0.3,0.3-0.8,0.5-1.3,0.5C10.6,10.9,9.9,10,9.9,8.8z M12.7,8.5c0-0.9-0.6-1.2-1-1.2
		c-0.6,0-1.1,0.4-1.1,1.2H12.7z"/>
	<path d="M14.3,5.6c0-0.2,0.2-0.4,0.4-0.4c0.2,0,0.4,0.2,0.4,0.4C15.2,5.8,15,6,14.8,6C14.5,6,14.3,5.8,14.3,5.6z M14.4,6.7h0.7v4.1
		h-0.7V6.7z"/>
</g>
<g class="st0">
	<path d="M16.7,9.9V7.3H16V6.7h0.7V5.4l0.7-0.3v1.7h1v0.6h-1v2.4c0,0.3,0.1,0.6,0.4,0.6c0.2,0,0.4-0.1,0.6-0.2l-0.1,0.7
		c-0.2,0.1-0.5,0.2-0.8,0.2C16.9,10.9,16.7,10.5,16.7,9.9z"/>
</g>
<g class="st0">
	<path d="M21.7,10.4c-0.3,0.4-0.6,0.5-1,0.5c-1,0-1.5-0.5-1.5-1.8V6.7h0.7v2.5c0,0.8,0.4,1.1,0.9,1.1c0.5,0,0.9-0.3,0.9-1.1V6.7h0.7
		v4.1h-0.7V10.4z"/>
	<path d="M26.2,8.4c0-0.8-0.4-1.1-0.9-1.1c-0.5,0-0.9,0.3-0.9,1.1v2.5h-0.7V6.7h0.7v0.4c0.3-0.4,0.6-0.5,1.1-0.5
		c0.9,0,1.5,0.5,1.5,1.8v2.4h-0.7V8.4z"/>
	<path d="M29.2,11.9c1.3-0.1,1.6-0.5,1.6-1v-0.5c-0.2,0.3-0.6,0.5-1.1,0.5c-0.9,0-1.7-0.7-1.7-2.1c0-1.3,0.7-2.1,1.7-2.1
		c0.6,0,0.9,0.3,1,0.4V6.7h0.7v3.9c0,1.3-0.8,1.8-1.9,1.8L29.2,11.9z M30.7,9.7V7.8c-0.2-0.3-0.6-0.5-0.9-0.5
		c-0.7,0-1.1,0.5-1.1,1.5c0,0.9,0.5,1.5,1.1,1.5C30.1,10.3,30.5,10.1,30.7,9.7z"/>
</g>
<g class="st0">
	<path d="M34.6,8.6c0-1.7,0.5-2.8,1.1-3.4h0.7c-0.3,0.4-1,1.7-1,3.4c0,1.8,0.7,3,1,3.3h-0.7C35.1,11.2,34.6,10.2,34.6,8.6z"/>
</g>
<g class="st0">
	<path d="M36.9,5.2h0.7l1.3,4c0,0.2,0.1,0.4,0.2,0.6c0-0.2,0.1-0.4,0.2-0.6l1.3-4h0.7l-1.9,5.6h-0.6L36.9,5.2z"/>
</g>
<g class="st0">
	<path d="M41.6,8.8c0-1.3,0.7-2.1,1.8-2.1s1.8,0.8,1.8,2.1c0,1.3-0.7,2.1-1.8,2.1S41.6,10.1,41.6,8.8z M44.5,8.8
		c0-0.9-0.4-1.5-1.1-1.5s-1.1,0.6-1.1,1.5c0,0.9,0.4,1.5,1.1,1.5C44.1,10.3,44.5,9.7,44.5,8.8z"/>
	<path d="M46.3,6.7H47v0.5c0.2-0.4,0.6-0.6,1-0.6c0.2,0,0.4,0.1,0.6,0.2l-0.1,0.7c-0.1-0.1-0.3-0.2-0.6-0.2c-0.4,0-0.9,0.3-0.9,1.2
		v2.3h-0.7V6.7z"/>
	<path d="M49.2,10.2l0.5-0.4c0.2,0.2,0.6,0.5,1,0.5c0.4,0,0.8-0.2,0.8-0.5c0-0.4-0.5-0.6-0.9-0.8c-0.8-0.3-1.3-0.6-1.3-1.3
		c0-0.7,0.6-1.1,1.4-1.1c0.6,0,1.1,0.3,1.4,0.6l-0.5,0.4c-0.2-0.2-0.5-0.4-0.9-0.4c-0.4,0-0.7,0.2-0.7,0.5c0,0.3,0.4,0.5,0.9,0.7
		c0.7,0.3,1.3,0.6,1.3,1.4c0,0.7-0.6,1.2-1.5,1.2C50.1,10.9,49.5,10.6,49.2,10.2z"/>
</g>
<g class="st0">
	<path d="M53.5,9.9V7.3h-0.7V6.7h0.7V5.4l0.7-0.3v1.7h1v0.6h-1v2.4c0,0.3,0.1,0.6,0.4,0.6c0.2,0,0.4-0.1,0.6-0.2l-0.1,0.7
		c-0.2,0.1-0.5,0.2-0.8,0.2C53.7,10.9,53.5,10.5,53.5,9.9z"/>
</g>
<g class="st0">
	<path d="M58.5,10.4c-0.3,0.3-0.7,0.5-1.2,0.5c-0.8,0-1.4-0.5-1.4-1.4c0-0.9,0.7-1.4,1.5-1.4c0.4,0,0.7,0.1,1.1,0.3V8.2
		c0-0.7-0.4-0.9-0.9-0.9c-0.5,0-0.9,0.2-1.2,0.4l-0.2-0.6c0.3-0.2,0.9-0.4,1.5-0.4c0.6,0,1.5,0.2,1.5,1.5v2.7h-0.7V10.4z M58.5,9.8
		V9.1c-0.2-0.2-0.6-0.3-1-0.3c-0.5,0-1,0.2-1,0.8c0,0.5,0.3,0.8,0.9,0.8C57.9,10.3,58.2,10,58.5,9.8z"/>
	<path d="M62.9,8.4c0-0.8-0.4-1.1-0.9-1.1c-0.5,0-0.9,0.3-0.9,1.1v2.5h-0.7V6.7H61v0.4c0.3-0.4,0.6-0.5,1.1-0.5
		c0.9,0,1.5,0.5,1.5,1.8v2.4h-0.7V8.4z"/>
	<path d="M64.6,8.8c0-1.3,0.7-2.1,1.7-2.1c0.5,0,0.8,0.2,1,0.4V5.4L68,5.1v5.8h-0.7v-0.3c-0.2,0.2-0.5,0.4-1,0.4
		C65.2,10.9,64.6,10.1,64.6,8.8z M67.3,9.7V7.8c-0.2-0.2-0.5-0.5-0.9-0.5c-0.7,0-1.1,0.5-1.1,1.5c0,0.8,0.4,1.5,1.1,1.5
		C66.8,10.3,67.1,10.1,67.3,9.7z"/>
	<path d="M69.6,11c-0.3,0-0.6-0.2-0.6-0.5c0-0.3,0.2-0.6,0.5-0.6c0.3,0,0.6,0.2,0.6,0.7c0,0.6-0.4,1.1-0.8,1.4l-0.2-0.1
		C69.3,11.7,69.5,11.4,69.6,11z"/>
	<path d="M72.9,8c0-1.4,0.7-2.9,2.4-2.9c1,0,1.5,0.5,1.8,1l-0.6,0.4c-0.3-0.4-0.6-0.7-1.2-0.7C74,5.8,73.6,7,73.6,8
		c0,1.2,0.5,2.2,1.7,2.2c0.8,0,1.3-0.5,1.3-1.3V8.7h-1V8.1h1.7v0.7c0,1.4-0.9,2.1-2,2.1C73.5,10.9,72.9,9.5,72.9,8z"/>
	<path d="M78.2,8.8c0-1.4,0.7-2.1,1.8-2.1c0.9,0,1.7,0.6,1.7,1.9c0,0.1,0,0.3,0,0.5h-2.8c0.1,0.8,0.5,1.2,1.1,1.2
		c0.3,0,0.6-0.1,0.9-0.4l0.4,0.5c-0.3,0.3-0.8,0.5-1.3,0.5C78.9,10.9,78.2,10,78.2,8.8z M81,8.5c0-0.9-0.6-1.2-1-1.2
		c-0.6,0-1.1,0.4-1.1,1.2H81z"/>
	<path d="M82.5,10.2L83,9.8c0.2,0.2,0.6,0.5,1,0.5c0.4,0,0.8-0.2,0.8-0.5c0-0.4-0.5-0.6-0.9-0.8c-0.8-0.3-1.3-0.6-1.3-1.3
		c0-0.7,0.6-1.1,1.4-1.1c0.6,0,1.1,0.3,1.4,0.6l-0.5,0.4c-0.2-0.2-0.5-0.4-0.9-0.4c-0.4,0-0.7,0.2-0.7,0.5c0,0.3,0.4,0.5,0.9,0.7
		c0.7,0.3,1.3,0.6,1.3,1.4c0,0.7-0.6,1.2-1.5,1.2C83.4,10.9,82.8,10.6,82.5,10.2z"/>
	<path d="M86.3,8.8c0-1.3,0.7-2.1,1.7-2.1c0.7,0,1.2,0.3,1.4,1l-0.7,0.2c-0.1-0.3-0.4-0.5-0.8-0.5c-0.7,0-1,0.6-1,1.5
		c0,0.9,0.3,1.5,1,1.5c0.4,0,0.7-0.2,0.8-0.6l0.6,0.2c-0.2,0.7-0.7,1-1.5,1C86.9,10.9,86.3,10.1,86.3,8.8z"/>
	<path d="M90.5,5.4l0.7-0.3v2.1c0.3-0.4,0.6-0.5,1.1-0.5c0.9,0,1.5,0.5,1.5,1.8v2.4H93V8.4c0-0.8-0.4-1.1-0.9-1.1
		c-0.5,0-0.9,0.3-0.9,1.1v2.5h-0.7V5.4z"/>
	<path d="M97.4,10.4c-0.3,0.3-0.7,0.5-1.2,0.5c-0.8,0-1.4-0.5-1.4-1.4c0-0.9,0.7-1.4,1.5-1.4c0.4,0,0.7,0.1,1.1,0.3V8.2
		c0-0.7-0.4-0.9-0.9-0.9c-0.5,0-0.9,0.2-1.2,0.4l-0.2-0.6c0.3-0.2,0.9-0.4,1.5-0.4c0.6,0,1.5,0.2,1.5,1.5v2.7h-0.7V10.4z M95.4,5.6
		c0-0.2,0.2-0.4,0.4-0.4c0.2,0,0.4,0.2,0.4,0.4c0,0.2-0.2,0.4-0.4,0.4C95.6,6,95.4,5.8,95.4,5.6z M97.4,9.8V9.1
		c-0.2-0.2-0.6-0.3-1-0.3c-0.5,0-1,0.2-1,0.8c0,0.5,0.3,0.8,0.9,0.8C96.8,10.3,97.1,10,97.4,9.8z M96.8,5.6c0-0.2,0.2-0.4,0.4-0.4
		c0.2,0,0.4,0.2,0.4,0.4c0,0.2-0.2,0.4-0.4,0.4C97,6,96.8,5.8,96.8,5.6z"/>
</g>
<g class="st0">
	<path d="M100.2,10.8h-0.7V7.3h-0.6V6.7h0.6V6.1c0-0.7,0.4-0.9,0.9-0.9c0.3,0,0.6,0.1,0.8,0.2v0.6c-0.2-0.1-0.4-0.2-0.6-0.2
		c-0.3,0-0.4,0.2-0.4,0.4v0.6h1v0.6h-1V10.8z"/>
</g>
<g class="st0">
	<path d="M102.2,9.9V7.3h-0.7V6.7h0.7V5.4l0.7-0.3v1.7h1v0.6h-1v2.4c0,0.3,0.1,0.6,0.4,0.6c0.2,0,0.4-0.1,0.6-0.2l-0.1,0.7
		c-0.2,0.1-0.5,0.2-0.8,0.2C102.4,10.9,102.2,10.5,102.2,9.9z"/>
	<path d="M104.6,10.2l0.5-0.4c0.2,0.2,0.6,0.5,1,0.5c0.4,0,0.8-0.2,0.8-0.5c0-0.4-0.5-0.6-0.9-0.8c-0.8-0.3-1.3-0.6-1.3-1.3
		c0-0.7,0.6-1.1,1.4-1.1c0.6,0,1.1,0.3,1.4,0.6L107,7.7c-0.2-0.2-0.5-0.4-0.9-0.4c-0.4,0-0.7,0.2-0.7,0.5c0,0.3,0.4,0.5,0.9,0.7
		c0.7,0.3,1.3,0.6,1.3,1.4c0,0.7-0.6,1.2-1.5,1.2C105.5,10.9,105,10.6,104.6,10.2z"/>
	<path d="M109.6,10.8h-0.7V7.3h-0.6V6.7h0.6V6.1c0-0.7,0.4-0.9,0.9-0.9c0.3,0,0.6,0.1,0.8,0.2v0.6c-0.2-0.1-0.4-0.2-0.6-0.2
		c-0.3,0-0.4,0.2-0.4,0.4v0.6h1v0.6h-1V10.8z"/>
	<path d="M113.8,10.4c-0.3,0.4-0.6,0.5-1,0.5c-1,0-1.5-0.5-1.5-1.8V6.7h0.7v2.5c0,0.8,0.4,1.1,0.9,1.1c0.5,0,0.9-0.3,0.9-1.1V6.7
		h0.7v4.1h-0.7V10.4z M111.7,5.6c0-0.2,0.2-0.4,0.4-0.4c0.2,0,0.4,0.2,0.4,0.4c0,0.2-0.2,0.4-0.4,0.4C111.9,6,111.7,5.8,111.7,5.6z
		 M113.1,5.6c0-0.2,0.2-0.4,0.4-0.4c0.2,0,0.4,0.2,0.4,0.4c0,0.2-0.2,0.4-0.4,0.4C113.3,6,113.1,5.8,113.1,5.6z"/>
	<path d="M115.8,5.4l0.7-0.3v2.1c0.3-0.4,0.6-0.5,1.1-0.5c0.9,0,1.5,0.5,1.5,1.8v2.4h-0.7V8.4c0-0.8-0.4-1.1-0.9-1.1
		c-0.5,0-0.9,0.3-0.9,1.1v2.5h-0.7V5.4z"/>
</g>
<g class="st0">
	<path d="M120.3,6.7h0.7v0.5c0.2-0.4,0.6-0.6,1-0.6c0.2,0,0.4,0.1,0.6,0.2l-0.1,0.7c-0.1-0.1-0.3-0.2-0.6-0.2
		c-0.4,0-0.9,0.3-0.9,1.2v2.3h-0.7V6.7z"/>
</g>
<g class="st0">
	<path d="M125.9,10.4c-0.3,0.4-0.6,0.5-1,0.5c-1,0-1.5-0.5-1.5-1.8V6.7h0.7v2.5c0,0.8,0.4,1.1,0.9,1.1c0.5,0,0.9-0.3,0.9-1.1V6.7
		h0.7v4.1h-0.7V10.4z"/>
	<path d="M130.4,8.4c0-0.8-0.4-1.1-0.9-1.1c-0.5,0-0.9,0.3-0.9,1.1v2.5h-0.7V6.7h0.7v0.4c0.3-0.4,0.6-0.5,1.1-0.5
		c0.9,0,1.5,0.5,1.5,1.8v2.4h-0.7V8.4z"/>
	<path d="M133.4,11.9c1.3-0.1,1.6-0.5,1.6-1v-0.5c-0.2,0.3-0.6,0.5-1.1,0.5c-0.9,0-1.7-0.7-1.7-2.1c0-1.3,0.7-2.1,1.7-2.1
		c0.6,0,0.9,0.3,1,0.4V6.7h0.7v3.9c0,1.3-0.8,1.8-1.9,1.8L133.4,11.9z M134.9,9.7V7.8c-0.2-0.3-0.6-0.5-0.9-0.5
		c-0.7,0-1.1,0.5-1.1,1.5c0,0.9,0.5,1.5,1.1,1.5C134.3,10.3,134.7,10.1,134.9,9.7z"/>
	<path d="M137.7,8.6c0-1.8-0.8-3.1-1-3.4h0.7c0.5,0.6,1.1,1.8,1.1,3.4s-0.5,2.7-1,3.3h-0.7C137,11.5,137.7,10.3,137.7,8.6z"/>
</g>
<rect x="153.9" y="5" class="st1" width="37.6" height="12.6"/>
<rect x="151.6" y="1.5" class="st2" width="37.3" height="12.6"/>
<rect x="151.6" y="1.5" class="st3" width="37.3" height="12.6"/>
<g class="st0">
	<path d="M197.5,6.5h-0.9V5.9c0.5,0,1-0.2,1.1-0.6h0.6v5.6h-0.8V6.5z"/>
	<path d="M200,10.4l0.5-0.7c0.3,0.2,0.6,0.4,1.2,0.4c0.8,0,1.3-0.5,1.3-1.2c0-0.7-0.4-1-1-1c-0.4,0-0.7,0.1-0.9,0.4L200.2,8l0.2-2.8
		h3.1V6h-2.4L201,7.5c0.2-0.2,0.6-0.3,1.1-0.3c1.2,0,1.8,0.9,1.8,1.8c0,1.2-0.9,2-2.1,2C200.8,10.9,200.3,10.6,200,10.4z"/>
</g>
<g class="st0">
	<path d="M5,37.2v-3.4c0-0.2,0-0.5,0-0.6c-0.1,0.2-0.2,0.4-0.2,0.6l-1.5,3.5l-1.5-3.5c-0.1-0.2-0.2-0.4-0.2-0.6c0,0.1,0,0.4,0,0.6
		v3.4H0.8v-5.6h0.7l1.6,3.8l0.1,0.4c0-0.1,0.1-0.3,0.1-0.4L5,31.6h0.7v5.6H5z"/>
	<path d="M7,31.9c0-0.2,0.2-0.4,0.4-0.4c0.2,0,0.4,0.2,0.4,0.4c0,0.2-0.2,0.4-0.4,0.4C7.2,32.4,7,32.2,7,31.9z M7.1,33.1h0.7v4.1
		H7.1V33.1z"/>
</g>
<g class="st0">
	<path d="M9.4,36.3v-2.6H8.7v-0.6h0.7v-1.4l0.7-0.3v1.7h1v0.6h-1v2.4c0,0.3,0.1,0.6,0.4,0.6c0.2,0,0.4-0.1,0.6-0.2l-0.1,0.7
		c-0.2,0.1-0.5,0.2-0.8,0.2C9.7,37.3,9.4,36.9,9.4,36.3z"/>
</g>
<g class="st0">
	<path d="M12.2,36.3v-2.6h-0.7v-0.6h0.7v-1.4l0.7-0.3v1.7h1v0.6h-1v2.4c0,0.3,0.1,0.6,0.4,0.6c0.2,0,0.4-0.1,0.6-0.2l-0.1,0.7
		c-0.2,0.1-0.5,0.2-0.8,0.2C12.5,37.3,12.2,36.9,12.2,36.3z"/>
	<path d="M15,31.8l0.7-0.3v5.8H15V31.8z"/>
	<path d="M16.8,35.2c0-1.4,0.7-2.1,1.8-2.1c0.9,0,1.7,0.6,1.7,1.9c0,0.1,0,0.3,0,0.5h-2.8c0.1,0.8,0.5,1.2,1.1,1.2
		c0.3,0,0.6-0.1,0.9-0.4l0.4,0.5c-0.3,0.3-0.8,0.5-1.3,0.5C17.5,37.3,16.8,36.4,16.8,35.2z M19.6,34.8c0-0.9-0.6-1.2-1-1.2
		c-0.6,0-1.1,0.4-1.1,1.2H19.6z"/>
	<path d="M21.4,33.1h0.7v0.5c0.2-0.4,0.6-0.6,1-0.6c0.2,0,0.4,0.1,0.6,0.2l-0.1,0.7c-0.1-0.1-0.3-0.2-0.6-0.2
		c-0.4,0-0.9,0.3-0.9,1.2v2.3h-0.7V33.1z"/>
	<path d="M24.3,35.2c0-1.4,0.7-2.1,1.8-2.1c0.9,0,1.7,0.6,1.7,1.9c0,0.1,0,0.3,0,0.5H25c0.1,0.8,0.5,1.2,1.1,1.2
		c0.3,0,0.6-0.1,0.9-0.4l0.4,0.5c-0.3,0.3-0.8,0.5-1.3,0.5C25,37.3,24.3,36.4,24.3,35.2z M27.1,34.8c0-0.9-0.6-1.2-1-1.2
		c-0.6,0-1.1,0.4-1.1,1.2H27.1z"/>
	<path d="M28.6,36.6l0.5-0.4c0.2,0.2,0.6,0.5,1,0.5c0.4,0,0.8-0.2,0.8-0.5c0-0.4-0.5-0.6-0.9-0.8c-0.8-0.3-1.3-0.6-1.3-1.3
		c0-0.7,0.6-1.1,1.4-1.1c0.6,0,1.1,0.3,1.4,0.6L30.9,34c-0.2-0.2-0.5-0.4-0.9-0.4c-0.4,0-0.7,0.2-0.7,0.5c0,0.3,0.4,0.5,0.9,0.7
		c0.7,0.3,1.3,0.6,1.3,1.4c0,0.7-0.6,1.2-1.5,1.2C29.4,37.3,28.9,37,28.6,36.6z"/>
	<path d="M38.7,37.2v-3.4c0-0.2,0-0.5,0-0.6c-0.1,0.2-0.2,0.4-0.2,0.6l-1.5,3.5l-1.5-3.5c-0.1-0.2-0.2-0.4-0.2-0.6
		c0,0.1,0,0.4,0,0.6v3.4h-0.7v-5.6h0.7l1.6,3.8l0.1,0.4c0-0.1,0.1-0.3,0.1-0.4l1.6-3.8h0.7v5.6H38.7z"/>
	<path d="M43.2,36.8c-0.3,0.3-0.7,0.5-1.2,0.5c-0.8,0-1.4-0.5-1.4-1.4c0-0.9,0.7-1.4,1.5-1.4c0.4,0,0.7,0.1,1.1,0.3v-0.3
		c0-0.7-0.4-0.9-0.9-0.9c-0.5,0-0.9,0.2-1.2,0.4l-0.2-0.6c0.3-0.2,0.9-0.4,1.5-0.4c0.6,0,1.5,0.2,1.5,1.5v2.7h-0.7V36.8z M43.2,36.1
		v-0.7c-0.2-0.2-0.6-0.3-1-0.3c-0.5,0-1,0.2-1,0.8c0,0.5,0.3,0.8,0.9,0.8C42.6,36.7,42.9,36.4,43.2,36.1z"/>
	<path d="M47.6,34.7c0-0.8-0.4-1.1-0.9-1.1c-0.5,0-0.9,0.3-0.9,1.1v2.5H45v-4.1h0.7v0.4c0.3-0.4,0.6-0.5,1.1-0.5
		c0.9,0,1.5,0.5,1.5,1.8v2.4h-0.7V34.7z"/>
	<path d="M51.9,36.8c-0.3,0.3-0.7,0.5-1.2,0.5c-0.8,0-1.4-0.5-1.4-1.4c0-0.9,0.7-1.4,1.5-1.4c0.4,0,0.7,0.1,1.1,0.3v-0.3
		c0-0.7-0.4-0.9-0.9-0.9c-0.5,0-0.9,0.2-1.2,0.4l-0.2-0.6c0.3-0.2,0.9-0.4,1.5-0.4c0.6,0,1.5,0.2,1.5,1.5v2.7h-0.7V36.8z M51.9,36.1
		v-0.7c-0.2-0.2-0.6-0.3-1-0.3c-0.5,0-1,0.2-1,0.8c0,0.5,0.3,0.8,0.9,0.8C51.3,36.7,51.7,36.4,51.9,36.1z"/>
	<path d="M54.7,38.3c1.3-0.1,1.6-0.5,1.6-1v-0.5c-0.2,0.3-0.6,0.5-1.1,0.5c-0.9,0-1.7-0.7-1.7-2.1c0-1.3,0.7-2.1,1.7-2.1
		c0.6,0,0.9,0.3,1,0.4v-0.3h0.7V37c0,1.3-0.8,1.8-1.9,1.8L54.7,38.3z M56.2,36.1v-1.9c-0.2-0.3-0.6-0.5-0.9-0.5
		c-0.7,0-1.1,0.5-1.1,1.5c0,0.9,0.5,1.5,1.1,1.5C55.7,36.6,56,36.4,56.2,36.1z"/>
	<path d="M58,35.2c0-1.4,0.7-2.1,1.8-2.1c0.9,0,1.7,0.6,1.7,1.9c0,0.1,0,0.3,0,0.5h-2.8c0.1,0.8,0.5,1.2,1.1,1.2
		c0.3,0,0.6-0.1,0.9-0.4l0.4,0.5c-0.3,0.3-0.8,0.5-1.3,0.5C58.7,37.3,58,36.4,58,35.2z M60.8,34.8c0-0.9-0.6-1.2-1-1.2
		c-0.6,0-1.1,0.4-1.1,1.2H60.8z"/>
	<path d="M67.4,34.7c0-0.6-0.2-1.1-0.8-1.1c-0.5,0-0.9,0.4-0.9,1.1v2.5H65v-2.5c0-0.6-0.2-1.1-0.8-1.1c-0.5,0-0.9,0.4-0.9,1.1v2.5
		h-0.7v-4.1h0.7v0.4c0.2-0.3,0.6-0.5,1.1-0.5c0.4,0,0.9,0.2,1.1,0.6c0.2-0.4,0.7-0.6,1.2-0.6c0.8,0,1.4,0.5,1.4,1.5v2.7h-0.7V34.7z"
		/>
	<path d="M69.1,35.2c0-1.4,0.7-2.1,1.8-2.1c0.9,0,1.7,0.6,1.7,1.9c0,0.1,0,0.3,0,0.5h-2.8c0.1,0.8,0.5,1.2,1.1,1.2
		c0.3,0,0.6-0.1,0.9-0.4l0.4,0.5c-0.3,0.3-0.8,0.5-1.3,0.5C69.8,37.3,69.1,36.4,69.1,35.2z M71.9,34.8c0-0.9-0.6-1.2-1-1.2
		c-0.6,0-1.1,0.4-1.1,1.2H71.9z"/>
	<path d="M76.2,34.7c0-0.8-0.4-1.1-0.9-1.1c-0.5,0-0.9,0.3-0.9,1.1v2.5h-0.7v-4.1h0.7v0.4c0.3-0.4,0.6-0.5,1.1-0.5
		c0.9,0,1.5,0.5,1.5,1.8v2.4h-0.7V34.7z"/>
	<path d="M78.4,36.3v-2.6h-0.7v-0.6h0.7v-1.4l0.7-0.3v1.7h1v0.6h-1v2.4c0,0.3,0.1,0.6,0.4,0.6c0.2,0,0.4-0.1,0.6-0.2L80,37.1
		c-0.2,0.1-0.5,0.2-0.8,0.2C78.6,37.3,78.4,36.9,78.4,36.3z"/>
	<path d="M85.4,31.5h0.7l-3.1,6.7h-0.7L85.4,31.5z"/>
	<path d="M88.9,31.6H91c1.4,0,1.8,0.8,1.8,1.7c0,0.8-0.5,1.7-1.8,1.7h-1.4v2.2h-0.7V31.6z M92.1,33.3c0-0.4-0.2-1-1.1-1h-1.5v2.1H91
		C91.8,34.3,92.1,33.8,92.1,33.3z"/>
	<path d="M93.8,33.1h0.7v0.5c0.2-0.4,0.6-0.6,1-0.6c0.2,0,0.4,0.1,0.6,0.2L96,33.9c-0.1-0.1-0.3-0.2-0.6-0.2c-0.4,0-0.9,0.3-0.9,1.2
		v2.3h-0.7V33.1z"/>
	<path d="M96.7,35.2c0-1.3,0.7-2.1,1.8-2.1c1.1,0,1.8,0.8,1.8,2.1c0,1.3-0.7,2.1-1.8,2.1C97.4,37.3,96.7,36.5,96.7,35.2z M99.6,35.2
		c0-0.9-0.4-1.5-1.1-1.5c-0.7,0-1.1,0.6-1.1,1.5c0,0.9,0.4,1.5,1.1,1.5C99.2,36.6,99.6,36.1,99.6,35.2z"/>
	<path d="M100.4,38.4c0.8-0.1,1-0.4,1-0.9v-4.4h0.7v4.1c0,0.4-0.1,0.8-0.3,1.1c-0.3,0.4-0.7,0.5-1.1,0.6L100.4,38.4z M101.3,31.9
		c0-0.2,0.2-0.4,0.4-0.4s0.4,0.2,0.4,0.4c0,0.2-0.2,0.4-0.4,0.4S101.3,32.2,101.3,31.9z"/>
	<path d="M103.2,35.2c0-1.4,0.7-2.1,1.8-2.1c0.9,0,1.7,0.6,1.7,1.9c0,0.1,0,0.3,0,0.5h-2.8c0.1,0.8,0.5,1.2,1.1,1.2
		c0.3,0,0.6-0.1,0.9-0.4l0.4,0.5c-0.3,0.3-0.8,0.5-1.3,0.5C103.9,37.3,103.2,36.4,103.2,35.2z M106,34.8c0-0.9-0.6-1.2-1-1.2
		c-0.6,0-1.1,0.4-1.1,1.2H106z"/>
</g>
<g class="st0">
	<path d="M110.3,37.2l-1.3-2.5l-0.6,0.6v1.8h-0.7v-5.4l0.7-0.3v3.1l1.3-1.4h0.8l-1.1,1.1l1.5,3H110.3z"/>
</g>
<g class="st0">
	<path d="M112.2,36.3v-2.6h-0.7v-0.6h0.7v-1.4l0.7-0.3v1.7h1v0.6h-1v2.4c0,0.3,0.1,0.6,0.4,0.6c0.2,0,0.4-0.1,0.6-0.2l-0.1,0.7
		c-0.2,0.1-0.5,0.2-0.8,0.2C112.5,37.3,112.2,36.9,112.2,36.3z"/>
	<path d="M115,31.8l0.7-0.3v5.8H115V31.8z"/>
	<path d="M116.8,35.2c0-1.4,0.7-2.1,1.8-2.1c0.9,0,1.7,0.6,1.7,1.9c0,0.1,0,0.3,0,0.5h-2.8c0.1,0.8,0.5,1.2,1.1,1.2
		c0.3,0,0.6-0.1,0.9-0.4l0.4,0.5c-0.3,0.3-0.8,0.5-1.3,0.5C117.5,37.3,116.8,36.4,116.8,35.2z M119.6,34.8c0-0.9-0.6-1.2-1-1.2
		c-0.6,0-1.1,0.4-1.1,1.2H119.6z"/>
	<path d="M121.3,31.9c0-0.2,0.2-0.4,0.4-0.4c0.2,0,0.4,0.2,0.4,0.4c0,0.2-0.2,0.4-0.4,0.4C121.5,32.4,121.3,32.2,121.3,31.9z
		 M121.4,33.1h0.7v4.1h-0.7V33.1z"/>
</g>
<g class="st0">
	<path d="M123.6,36.3v-2.6h-0.7v-0.6h0.7v-1.4l0.7-0.3v1.7h1v0.6h-1v2.4c0,0.3,0.1,0.6,0.4,0.6c0.2,0,0.4-0.1,0.6-0.2l-0.1,0.7
		c-0.2,0.1-0.5,0.2-0.8,0.2C123.9,37.3,123.6,36.9,123.6,36.3z"/>
</g>
<g class="st0">
	<path d="M128.6,36.8c-0.3,0.4-0.6,0.5-1,0.5c-1,0-1.5-0.5-1.5-1.8v-2.4h0.7v2.5c0,0.8,0.4,1.1,0.9,1.1c0.5,0,0.9-0.3,0.9-1.1v-2.5
		h0.7v4.1h-0.7V36.8z"/>
	<path d="M133.2,34.7c0-0.8-0.4-1.1-0.9-1.1c-0.5,0-0.9,0.3-0.9,1.1v2.5h-0.7v-4.1h0.7v0.4c0.3-0.4,0.6-0.5,1.1-0.5
		c0.9,0,1.5,0.5,1.5,1.8v2.4h-0.7V34.7z"/>
	<path d="M136.1,38.3c1.3-0.1,1.6-0.5,1.6-1v-0.5c-0.2,0.3-0.6,0.5-1.1,0.5c-0.9,0-1.7-0.7-1.7-2.1c0-1.3,0.7-2.1,1.7-2.1
		c0.6,0,0.9,0.3,1,0.4v-0.3h0.7V37c0,1.3-0.8,1.8-1.9,1.8L136.1,38.3z M137.7,36.1v-1.9c-0.2-0.3-0.6-0.5-0.9-0.5
		c-0.7,0-1.1,0.5-1.1,1.5c0,0.9,0.5,1.5,1.1,1.5C137.1,36.6,137.5,36.4,137.7,36.1z"/>
</g>
<rect x="155.1" y="31.4" class="st1" width="75.5" height="12.6"/>
<rect x="151.6" y="27.9" class="st2" width="76.5" height="12.6"/>
<rect x="151.6" y="27.9" class="st3" width="76.5" height="12.6"/>
<g class="st0">
	<path d="M238,34.2c0.5-0.2,0.9-0.6,0.9-1.1c0-0.5-0.4-0.8-1-0.8c-0.6,0-1,0.3-1.1,0.7l-0.8-0.3c0.3-0.7,1-1.2,1.9-1.2
		c1.1,0,1.8,0.7,1.8,1.7c0,1-0.6,1.4-1.4,1.8c-0.7,0.4-1.2,0.8-1.4,1.4h2.8v0.8H236C236,35.7,236.9,34.8,238,34.2z"/>
</g>
<g class="st0">
	<path d="M241.6,36.4c0.9,0,1.7-0.4,1.9-1.7c-0.2,0.2-0.6,0.4-1.1,0.4c-1,0-1.8-0.7-1.8-1.8c0-1.1,0.8-1.8,1.9-1.8
		c1.3,0,1.9,0.9,1.9,2.2c0,2.1-0.9,3.5-2.9,3.6V36.4z M243.6,33.3c0-0.6-0.4-0.9-1.1-0.9c-0.6,0-1.1,0.4-1.1,1c0,0.6,0.4,1,1.1,1
		S243.6,33.9,243.6,33.3z"/>
</g>
<g class="st0">
	<path d="M113.1,58h2.2c1.3,0,1.8,0.8,1.8,1.6c0,0.7-0.4,1.4-1.3,1.6l1.2,2.4h-0.8l-1.2-2.4h-1.2v2.4h-0.7V58z M115.3,60.5
		c0.8,0,1-0.5,1-0.9c0-0.4-0.2-1-1-1h-1.5v1.9H115.3z"/>
	<path d="M118.1,61.5c0-1.4,0.7-2.1,1.8-2.1c0.9,0,1.7,0.6,1.7,1.9c0,0.1,0,0.3,0,0.5h-2.8c0.1,0.8,0.5,1.2,1.1,1.2
		c0.3,0,0.6-0.1,0.9-0.4l0.4,0.5c-0.3,0.3-0.8,0.5-1.3,0.5C118.8,63.7,118.1,62.8,118.1,61.5z M120.9,61.2c0-0.9-0.6-1.2-1-1.2
		c-0.6,0-1.1,0.4-1.1,1.2H120.9z"/>
</g>
<g class="st0">
	<path d="M123.5,63.6h-0.7v-3.5h-0.6v-0.6h0.6v-0.7c0-0.7,0.4-0.9,0.9-0.9c0.3,0,0.6,0.1,0.8,0.2v0.6c-0.2-0.1-0.4-0.2-0.6-0.2
		c-0.3,0-0.4,0.2-0.4,0.4v0.6h1v0.6h-1V63.6z"/>
</g>
<g class="st0">
	<path d="M124.9,61.5c0-1.4,0.7-2.1,1.8-2.1c0.9,0,1.7,0.6,1.7,1.9c0,0.1,0,0.3,0,0.5h-2.8c0.1,0.8,0.5,1.2,1.1,1.2
		c0.3,0,0.6-0.1,0.9-0.4l0.4,0.5c-0.3,0.3-0.8,0.5-1.3,0.5C125.6,63.7,124.9,62.8,124.9,61.5z M127.7,61.2c0-0.9-0.6-1.2-1-1.2
		c-0.6,0-1.1,0.4-1.1,1.2H127.7z"/>
</g>
<g class="st0">
	<path d="M129.5,59.5h0.7V60c0.2-0.4,0.6-0.6,1-0.6c0.2,0,0.4,0.1,0.6,0.2l-0.1,0.7c-0.1-0.1-0.3-0.2-0.6-0.2
		c-0.4,0-0.9,0.3-0.9,1.2v2.3h-0.7V59.5z"/>
</g>
<g class="st0">
	<path d="M134.8,63.2c-0.3,0.3-0.7,0.5-1.2,0.5c-0.8,0-1.4-0.5-1.4-1.4c0-0.9,0.7-1.4,1.5-1.4c0.4,0,0.7,0.1,1.1,0.3v-0.3
		c0-0.7-0.4-0.9-0.9-0.9c-0.5,0-0.9,0.2-1.2,0.4l-0.2-0.6c0.3-0.2,0.9-0.4,1.5-0.4c0.6,0,1.5,0.2,1.5,1.5v2.7h-0.7V63.2z
		 M134.8,62.5v-0.7c-0.2-0.2-0.6-0.3-1-0.3c-0.5,0-1,0.2-1,0.8c0,0.5,0.3,0.8,0.9,0.8C134.2,63.1,134.6,62.8,134.8,62.5z"/>
	<path d="M136.9,62.7v-2.6h-0.7v-0.6h0.7v-1.4l0.7-0.3v1.7h1v0.6h-1v2.4c0,0.3,0.1,0.6,0.4,0.6c0.2,0,0.4-0.1,0.6-0.2l-0.1,0.7
		c-0.2,0.1-0.5,0.2-0.8,0.2C137.2,63.7,136.9,63.3,136.9,62.7z"/>
</g>
<rect x="155.1" y="57.8" class="st1" width="14.4" height="12.6"/>
<rect x="151.6" y="54.3" class="st2" width="13.6" height="12.6"/>
<rect x="151.6" y="54.3" class="st3" width="13.6" height="12.6"/>
<g class="st0">
	<path d="M174.7,63.2l0.5-0.7c0.3,0.2,0.6,0.4,1.2,0.4c0.8,0,1.3-0.5,1.3-1.2c0-0.7-0.4-1-1-1c-0.4,0-0.7,0.1-0.9,0.4l-0.9-0.3
		l0.2-2.8h3.1v0.8h-2.4l-0.1,1.4c0.2-0.2,0.6-0.3,1.1-0.3c1.2,0,1.8,0.9,1.8,1.8c0,1.2-0.9,2-2.1,2C175.5,63.7,175,63.4,174.7,63.2z
		"/>
</g>
<g class="st0">
	<path d="M3.5,86.9l-1,1.2V90H1.8v-5.6h0.7v2.7l2.2-2.7h0.8l-1.5,1.9l2,3.7H5.1L3.5,86.9z"/>
</g>
<g class="st0">
	<path d="M6.7,87.9c0-1.3,0.7-2.1,1.8-2.1c1.1,0,1.8,0.8,1.8,2.1c0,1.3-0.7,2.1-1.8,2.1C7.4,90,6.7,89.3,6.7,87.9z M9.6,87.9
		c0-0.9-0.4-1.5-1.1-1.5c-0.7,0-1.1,0.6-1.1,1.5c0,0.9,0.4,1.5,1.1,1.5C9.2,89.4,9.6,88.8,9.6,87.9z"/>
	<path d="M16.2,87.5c0-0.6-0.2-1.1-0.8-1.1c-0.5,0-0.9,0.4-0.9,1.1V90h-0.7v-2.5c0-0.6-0.2-1.1-0.8-1.1c-0.5,0-0.9,0.4-0.9,1.1V90
		h-0.7v-4.1h0.7v0.4c0.2-0.3,0.6-0.5,1.1-0.5c0.4,0,0.9,0.2,1.1,0.6c0.2-0.4,0.7-0.6,1.2-0.6c0.8,0,1.4,0.5,1.4,1.5V90h-0.7V87.5z"
		/>
	<path d="M22.9,87.5c0-0.6-0.2-1.1-0.8-1.1c-0.5,0-0.9,0.4-0.9,1.1V90h-0.7v-2.5c0-0.6-0.2-1.1-0.8-1.1c-0.5,0-0.9,0.4-0.9,1.1V90
		h-0.7v-4.1h0.7v0.4c0.2-0.3,0.6-0.5,1.1-0.5c0.4,0,0.9,0.2,1.1,0.6c0.2-0.4,0.7-0.6,1.2-0.6c0.8,0,1.4,0.5,1.4,1.5V90h-0.7V87.5z"
		/>
	<path d="M27.4,89.6c-0.3,0.4-0.6,0.5-1,0.5c-1,0-1.5-0.5-1.5-1.8v-2.4h0.7v2.5c0,0.8,0.4,1.1,0.9,1.1c0.5,0,0.9-0.3,0.9-1.1v-2.5
		h0.7V90h-0.7V89.6z"/>
	<path d="M31.9,87.5c0-0.8-0.4-1.1-0.9-1.1c-0.5,0-0.9,0.3-0.9,1.1V90h-0.7v-4.1h0.7v0.4c0.3-0.4,0.6-0.5,1.1-0.5
		c0.9,0,1.5,0.5,1.5,1.8V90h-0.7V87.5z"/>
	<path d="M33.8,84.7c0-0.2,0.2-0.4,0.4-0.4c0.2,0,0.4,0.2,0.4,0.4c0,0.2-0.2,0.4-0.4,0.4C34,85.1,33.8,84.9,33.8,84.7z M33.9,85.9
		h0.7V90h-0.7V85.9z"/>
</g>
<g class="st0">
	<path d="M38.5,90l-1.3-2.5l-0.6,0.6V90h-0.7v-5.4l0.7-0.3v3.1l1.3-1.4h0.8L37.7,87l1.5,3H38.5z"/>
</g>
<g class="st0">
	<path d="M42.4,89.6c-0.3,0.3-0.7,0.5-1.2,0.5c-0.8,0-1.4-0.5-1.4-1.4c0-0.9,0.7-1.4,1.5-1.4c0.4,0,0.7,0.1,1.1,0.3v-0.3
		c0-0.7-0.4-0.9-0.9-0.9c-0.5,0-0.9,0.2-1.2,0.4l-0.2-0.6c0.3-0.2,0.9-0.4,1.5-0.4c0.6,0,1.5,0.2,1.5,1.5V90h-0.7V89.6z M42.4,88.9
		v-0.7c-0.2-0.2-0.6-0.3-1-0.3c-0.5,0-1,0.2-1,0.8c0,0.5,0.3,0.8,0.9,0.8C41.8,89.4,42.1,89.2,42.4,88.9z"/>
	<path d="M44.5,89.1v-2.6h-0.7v-0.6h0.7v-1.4l0.7-0.3v1.7h1v0.6h-1v2.4c0,0.3,0.1,0.6,0.4,0.6c0.2,0,0.4-0.1,0.6-0.2l-0.1,0.7
		C45.9,90,45.6,90,45.3,90C44.7,90,44.5,89.6,44.5,89.1z"/>
	<path d="M47.1,84.7c0-0.2,0.2-0.4,0.4-0.4c0.2,0,0.4,0.2,0.4,0.4c0,0.2-0.2,0.4-0.4,0.4C47.3,85.1,47.1,84.9,47.1,84.7z M47.2,85.9
		h0.7V90h-0.7V85.9z"/>
	<path d="M49,87.9c0-1.3,0.7-2.1,1.8-2.1c1.1,0,1.8,0.8,1.8,2.1c0,1.3-0.7,2.1-1.8,2.1C49.7,90,49,89.3,49,87.9z M51.9,87.9
		c0-0.9-0.4-1.5-1.1-1.5c-0.7,0-1.1,0.6-1.1,1.5c0,0.9,0.4,1.5,1.1,1.5C51.5,89.4,51.9,88.8,51.9,87.9z"/>
	<path d="M56.2,87.5c0-0.8-0.4-1.1-0.9-1.1c-0.5,0-0.9,0.3-0.9,1.1V90h-0.7v-4.1h0.7v0.4c0.3-0.4,0.6-0.5,1.1-0.5
		c0.9,0,1.5,0.5,1.5,1.8V90h-0.7V87.5z"/>
	<path d="M62.5,84.3h0.7L60,91h-0.7L62.5,84.3z"/>
	<path d="M65.7,87.2c0-1.4,0.6-2.9,2.4-2.9c1.8,0,2.4,1.5,2.4,2.9c0,1.4-0.6,2.9-2.4,2.9C66.3,90,65.7,88.5,65.7,87.2z M69.7,87.2
		c0-1.1-0.4-2.2-1.7-2.2c-1.2,0-1.7,1.2-1.7,2.2c0,1.1,0.4,2.2,1.7,2.2C69.3,89.4,69.7,88.2,69.7,87.2z M66.9,83.2
		c0-0.2,0.2-0.4,0.4-0.4c0.2,0,0.4,0.2,0.4,0.4s-0.2,0.4-0.4,0.4C67.1,83.7,66.9,83.5,66.9,83.2z M68.3,83.2c0-0.2,0.2-0.4,0.4-0.4
		c0.2,0,0.4,0.2,0.4,0.4s-0.2,0.4-0.4,0.4C68.5,83.7,68.3,83.5,68.3,83.2z"/>
</g>
<g class="st0">
	<path d="M72.5,90h-0.7v-3.5h-0.6v-0.6h0.6v-0.7c0-0.7,0.4-0.9,0.9-0.9c0.3,0,0.6,0.1,0.8,0.2V85c-0.2-0.1-0.4-0.2-0.6-0.2
		c-0.3,0-0.4,0.2-0.4,0.4v0.6h1v0.6h-1V90z"/>
</g>
<g class="st0">
	<path d="M75.2,90h-0.7v-3.5h-0.6v-0.6h0.6v-0.7c0-0.7,0.4-0.9,0.9-0.9c0.3,0,0.6,0.1,0.8,0.2V85c-0.2-0.1-0.4-0.2-0.6-0.2
		c-0.3,0-0.4,0.2-0.4,0.4v0.6h1v0.6h-1V90z"/>
</g>
<g class="st0">
	<path d="M76.7,87.9c0-1.4,0.7-2.1,1.8-2.1c0.9,0,1.7,0.6,1.7,1.9c0,0.1,0,0.3,0,0.5h-2.8c0.1,0.8,0.5,1.2,1.1,1.2
		c0.3,0,0.6-0.1,0.9-0.4l0.4,0.5C79.5,89.8,79,90,78.5,90C77.4,90,76.7,89.2,76.7,87.9z M79.5,87.6c0-0.9-0.6-1.2-1-1.2
		c-0.6,0-1.1,0.4-1.1,1.2H79.5z"/>
	<path d="M83.7,87.5c0-0.8-0.4-1.1-0.9-1.1c-0.5,0-0.9,0.3-0.9,1.1V90h-0.7v-4.1h0.7v0.4c0.3-0.4,0.6-0.5,1.1-0.5
		c0.9,0,1.5,0.5,1.5,1.8V90h-0.7V87.5z"/>
	<path d="M86,89.1v-2.6h-0.7v-0.6H86v-1.4l0.7-0.3v1.7h1v0.6h-1v2.4c0,0.3,0.1,0.6,0.4,0.6c0.2,0,0.4-0.1,0.6-0.2l-0.1,0.7
		C87.4,90,87.1,90,86.8,90C86.2,90,86,89.6,86,89.1z"/>
	<path d="M88.7,84.5l0.7-0.3V90h-0.7V84.5z"/>
	<path d="M90.7,84.7c0-0.2,0.2-0.4,0.4-0.4c0.2,0,0.4,0.2,0.4,0.4c0,0.2-0.2,0.4-0.4,0.4C90.9,85.1,90.7,84.9,90.7,84.7z M90.8,85.9
		h0.7V90h-0.7V85.9z"/>
	<path d="M92.6,87.9c0-1.3,0.7-2.1,1.7-2.1c0.7,0,1.2,0.3,1.4,1L95.1,87c-0.1-0.3-0.4-0.5-0.8-0.5c-0.7,0-1,0.6-1,1.5
		c0,0.9,0.3,1.5,1,1.5c0.4,0,0.7-0.2,0.8-0.6l0.6,0.2c-0.2,0.7-0.7,1-1.5,1C93.3,90,92.6,89.3,92.6,87.9z"/>
	<path d="M96.8,84.5l0.7-0.3v2.1c0.3-0.4,0.6-0.5,1.1-0.5c0.9,0,1.5,0.5,1.5,1.8V90h-0.7v-2.5c0-0.8-0.4-1.1-0.9-1.1
		c-0.5,0-0.9,0.3-0.9,1.1V90h-0.7V84.5z"/>
</g>
<g class="st0">
	<path d="M103.9,90l-1.3-2.5l-0.6,0.6V90h-0.7v-5.4l0.7-0.3v3.1l1.3-1.4h0.8l-1.1,1.1l1.5,3H103.9z"/>
</g>
<g class="st0">
	<path d="M105.2,87.9c0-1.4,0.7-2.1,1.8-2.1c0.9,0,1.7,0.6,1.7,1.9c0,0.1,0,0.3,0,0.5h-2.8c0.1,0.8,0.5,1.2,1.1,1.2
		c0.3,0,0.6-0.1,0.9-0.4l0.4,0.5c-0.3,0.3-0.8,0.5-1.3,0.5C105.9,90,105.2,89.2,105.2,87.9z M108,87.6c0-0.9-0.6-1.2-1-1.2
		c-0.6,0-1.1,0.4-1.1,1.2H108z"/>
	<path d="M109.6,84.7c0-0.2,0.2-0.4,0.4-0.4c0.2,0,0.4,0.2,0.4,0.4c0,0.2-0.2,0.4-0.4,0.4C109.8,85.1,109.6,84.9,109.6,84.7z
		 M109.7,85.9h0.7V90h-0.7V85.9z"/>
	<path d="M112,89.1v-2.6h-0.7v-0.6h0.7v-1.4l0.7-0.3v1.7h1v0.6h-1v2.4c0,0.3,0.1,0.6,0.4,0.6c0.2,0,0.4-0.1,0.6-0.2l-0.1,0.7
		c-0.2,0.1-0.5,0.2-0.8,0.2C112.2,90,112,89.6,112,89.1z"/>
	<path d="M114.5,89.4l0.5-0.4c0.2,0.2,0.6,0.5,1,0.5c0.4,0,0.8-0.2,0.8-0.5c0-0.4-0.5-0.6-0.9-0.8c-0.8-0.3-1.3-0.6-1.3-1.3
		c0-0.7,0.6-1.1,1.4-1.1c0.6,0,1.1,0.3,1.4,0.6l-0.5,0.4c-0.2-0.2-0.5-0.4-0.9-0.4c-0.4,0-0.7,0.2-0.7,0.5c0,0.3,0.4,0.5,0.9,0.7
		c0.7,0.3,1.3,0.6,1.3,1.4c0,0.7-0.6,1.2-1.5,1.2C115.3,90,114.8,89.8,114.5,89.4z"/>
	<path d="M120.8,89.6c-0.3,0.3-0.7,0.5-1.2,0.5c-0.8,0-1.4-0.5-1.4-1.4c0-0.9,0.7-1.4,1.5-1.4c0.4,0,0.7,0.1,1.1,0.3v-0.3
		c0-0.7-0.4-0.9-0.9-0.9c-0.5,0-0.9,0.2-1.2,0.4l-0.2-0.6c0.3-0.2,0.9-0.4,1.5-0.4c0.6,0,1.5,0.2,1.5,1.5V90h-0.7V89.6z M120.8,88.9
		v-0.7c-0.2-0.2-0.6-0.3-1-0.3c-0.5,0-1,0.2-1,0.8c0,0.5,0.3,0.8,0.9,0.8C120.2,89.4,120.6,89.2,120.8,88.9z"/>
	<path d="M122.7,85.9h0.7v0.5c0.2-0.4,0.6-0.6,1-0.6c0.2,0,0.4,0.1,0.6,0.2l-0.1,0.7c-0.1-0.1-0.3-0.2-0.6-0.2
		c-0.4,0-0.9,0.3-0.9,1.2V90h-0.7V85.9z"/>
	<path d="M126.6,89.6V90h-0.7v-5.4l0.7-0.3v2c0.2-0.3,0.6-0.4,1-0.4c1,0,1.7,0.8,1.7,2.1c0,1.4-0.6,2.1-1.7,2.1
		C127.1,90,126.8,89.8,126.6,89.6z M128.6,87.9c0-1-0.4-1.5-1.1-1.5c-0.5,0-0.8,0.3-1,0.5v1.9c0.2,0.3,0.6,0.6,1,0.6
		C128.2,89.4,128.6,88.8,128.6,87.9z"/>
	<path d="M130.1,87.9c0-1.4,0.7-2.1,1.8-2.1c0.9,0,1.7,0.6,1.7,1.9c0,0.1,0,0.3,0,0.5h-2.8c0.1,0.8,0.5,1.2,1.1,1.2
		c0.3,0,0.6-0.1,0.9-0.4l0.4,0.5c-0.3,0.3-0.8,0.5-1.3,0.5C130.8,90,130.1,89.2,130.1,87.9z M132.9,87.6c0-0.9-0.6-1.2-1-1.2
		c-0.6,0-1.1,0.4-1.1,1.2H132.9z"/>
	<path d="M134.6,84.7c0-0.2,0.2-0.4,0.4-0.4c0.2,0,0.4,0.2,0.4,0.4c0,0.2-0.2,0.4-0.4,0.4C134.8,85.1,134.6,84.9,134.6,84.7z
		 M134.7,85.9h0.7V90h-0.7V85.9z"/>
	<path d="M136.9,89.1v-2.6h-0.7v-0.6h0.7v-1.4l0.7-0.3v1.7h1v0.6h-1v2.4c0,0.3,0.1,0.6,0.4,0.6c0.2,0,0.4-0.1,0.6-0.2l-0.1,0.7
		c-0.2,0.1-0.5,0.2-0.8,0.2C137.2,90,136.9,89.6,136.9,89.1z"/>
</g>
<rect x="155.1" y="84.1" class="st1" width="28.8" height="12.6"/>
<rect x="151.6" y="80.7" class="st2" width="28" height="12.6"/>
<rect x="151.6" y="80.7" class="st3" width="28" height="12.6"/>
<g class="st0">
	<path d="M189.9,85.6H189V85c0.5,0,1-0.2,1.1-0.6h0.6V90h-0.8V85.6z"/>
	<path d="M192.5,87.2c0-1.3,0.4-2.9,2-2.9c1.5,0,2,1.5,2,2.9c0,1.3-0.4,2.9-2,2.9C193,90,192.5,88.5,192.5,87.2z M195.7,87.2
		c0-1-0.2-2.1-1.1-2.1c-0.9,0-1.1,1.1-1.1,2.1c0,1,0.2,2.1,1.1,2.1C195.4,89.2,195.7,88.1,195.7,87.2z"/>
</g>
<g>
	<g class="st0">
		<path d="M108.1,115.2l0.7-0.2c0.2,0.5,0.7,0.8,1.3,0.8c0.7,0,1.1-0.3,1.1-0.9c0-0.6-0.6-0.9-1.3-1.2c-0.8-0.3-1.6-0.6-1.6-1.6
			c0-0.8,0.6-1.4,1.7-1.4c0.9,0,1.5,0.4,1.6,1l-0.6,0.2c-0.1-0.3-0.5-0.6-1-0.6c-0.6,0-1,0.3-1,0.7c0,0.5,0.6,0.8,1.2,1
			c0.8,0.3,1.7,0.7,1.7,1.8c0,1-0.8,1.6-1.8,1.6C109.1,116.4,108.4,115.9,108.1,115.2z"/>
		<path d="M112.9,114.3c0-1.3,0.7-2.1,1.8-2.1c1.1,0,1.8,0.8,1.8,2.1c0,1.3-0.7,2.1-1.8,2.1C113.6,116.4,112.9,115.6,112.9,114.3z
			 M115.8,114.3c0-0.9-0.4-1.5-1.1-1.5c-0.7,0-1.1,0.6-1.1,1.5c0,0.9,0.4,1.5,1.1,1.5C115.4,115.8,115.8,115.2,115.8,114.3z"/>
		<path d="M120.1,113.9c0-0.8-0.4-1.1-0.9-1.1c-0.5,0-0.9,0.3-0.9,1.1v2.5h-0.7v-4.1h0.7v0.4c0.3-0.4,0.6-0.5,1.1-0.5
			c0.9,0,1.5,0.5,1.5,1.8v2.4h-0.7V113.9z"/>
		<path d="M121.8,115.7l0.5-0.4c0.2,0.2,0.6,0.5,1,0.5c0.4,0,0.8-0.2,0.8-0.5c0-0.4-0.5-0.6-0.9-0.8c-0.8-0.3-1.3-0.6-1.3-1.3
			c0-0.7,0.6-1.1,1.4-1.1c0.6,0,1.1,0.3,1.4,0.6l-0.5,0.4c-0.2-0.2-0.5-0.4-0.9-0.4c-0.4,0-0.7,0.2-0.7,0.5c0,0.3,0.4,0.5,0.9,0.7
			c0.7,0.3,1.3,0.6,1.3,1.4c0,0.7-0.6,1.2-1.5,1.2C122.7,116.4,122.1,116.1,121.8,115.7z"/>
		<path d="M126.1,115.4v-2.6h-0.7v-0.6h0.7v-1.4l0.7-0.3v1.7h1v0.6h-1v2.4c0,0.3,0.1,0.6,0.4,0.6c0.2,0,0.4-0.1,0.6-0.2l-0.1,0.7
			c-0.2,0.1-0.5,0.2-0.8,0.2C126.3,116.4,126.1,116,126.1,115.4z"/>
		<path d="M128.8,111.1c0-0.2,0.2-0.4,0.4-0.4c0.2,0,0.4,0.2,0.4,0.4c0,0.2-0.2,0.4-0.4,0.4C129,111.5,128.8,111.3,128.8,111.1z
			 M128.8,112.2h0.7v4.1h-0.7V112.2z"/>
		<path d="M131.8,117.4c1.3-0.1,1.6-0.5,1.6-1v-0.5c-0.2,0.3-0.6,0.5-1.1,0.5c-0.9,0-1.7-0.7-1.7-2.1c0-1.3,0.7-2.1,1.7-2.1
			c0.6,0,0.9,0.3,1,0.4v-0.3h0.7v3.9c0,1.3-0.8,1.8-1.9,1.8L131.8,117.4z M133.4,115.2v-1.9c-0.2-0.3-0.6-0.5-0.9-0.5
			c-0.7,0-1.1,0.5-1.1,1.5c0,0.9,0.5,1.5,1.1,1.5C132.8,115.8,133.1,115.6,133.4,115.2z"/>
		<path d="M135.1,114.3c0-1.4,0.7-2.1,1.8-2.1c0.9,0,1.7,0.6,1.7,1.9c0,0.1,0,0.3,0,0.5h-2.8c0.1,0.8,0.5,1.2,1.1,1.2
			c0.3,0,0.6-0.1,0.9-0.4l0.4,0.5c-0.3,0.3-0.8,0.5-1.3,0.5C135.8,116.4,135.1,115.5,135.1,114.3z M137.9,114c0-0.9-0.6-1.2-1-1.2
			c-0.6,0-1.1,0.4-1.1,1.2H137.9z"/>
	</g>
</g>
<rect x="155.1" y="110.5" class="st1" width="14.4" height="12.6"/>
<rect x="151.6" y="107.1" class="st2" width="13.6" height="12.6"/>
<rect x="151.6" y="107.1" class="st3" width="13.6" height="12.6"/>
<g class="st0">
	<path d="M177.8,115.1c0-1.9,1-3.3,3.1-3.6v0.8c-0.9,0.1-1.8,0.7-2.1,1.8c0.2-0.2,0.6-0.4,1.2-0.4c1,0,1.7,0.7,1.7,1.8
		c0,1.1-0.8,1.8-1.9,1.8C178.4,117.3,177.8,116.4,177.8,115.1z M180.8,115.5c0-0.6-0.4-1-1.1-1c-0.6,0-1.1,0.4-1.1,1
		c0,0.6,0.5,1,1.1,1C180.3,116.5,180.8,116.1,180.8,115.5z"/>
</g>
<g>
	<g class="st0">
		<path d="M201.5,151.6c0-0.7-0.3-1-0.8-1c-0.5,0-0.9,0.2-0.9,1v2.2h-0.6v-3.7h0.6v0.4c0.2-0.3,0.6-0.5,1-0.5c0.8,0,1.3,0.5,1.3,1.7
			v2.1h-0.6V151.6z"/>
		<path d="M203.3,150.4h3.4v0.6h-3.4V150.4z M203.3,151.7h3.4v0.6h-3.4V151.7z"/>
	</g>
	<g class="st0">
		<path d="M209.6,153.3l0.4-0.5c0.3,0.2,0.6,0.5,1.2,0.5c0.7,0,1.2-0.5,1.2-1.1s-0.4-1.1-1-1.1c-0.5,0-0.8,0.2-1,0.4l-0.6-0.2
			l0.3-2.6h2.7v0.6h-2.2l-0.2,1.5c0.3-0.2,0.6-0.3,1.1-0.3c1,0,1.6,0.7,1.6,1.6c0,1-0.7,1.8-1.9,1.8
			C210.4,153.9,209.8,153.6,209.6,153.3z"/>
		<path d="M214.7,149.8h-0.8v-0.4c0.5,0,0.9-0.1,1-0.6h0.5v5.1h-0.6V149.8z"/>
	</g>
	<g class="st0">
		<path d="M218.6,151.7c0-1.5,0.5-2.5,1-3.1h0.6c-0.3,0.3-0.9,1.5-0.9,3.1c0,1.6,0.6,2.7,0.9,3h-0.6
			C219,154.1,218.6,153.2,218.6,151.7z"/>
	</g>
	<g class="st0">
		<path d="M225.5,151.5c0-0.5-0.2-1-0.7-1c-0.5,0-0.8,0.4-0.8,1v2.2h-0.6v-2.2c0-0.5-0.2-1-0.7-1c-0.5,0-0.8,0.4-0.8,1v2.2h-0.6
			v-3.7h0.6v0.3c0.2-0.3,0.6-0.4,1-0.4c0.4,0,0.8,0.2,1,0.5c0.2-0.3,0.6-0.5,1.1-0.5c0.7,0,1.3,0.5,1.3,1.4v2.4h-0.6V151.5z"/>
		<path d="M227,151.9c0-1.2,0.7-1.9,1.6-1.9c0.8,0,1.5,0.5,1.5,1.8c0,0.1,0,0.3,0,0.4h-2.5c0,0.7,0.5,1.1,1,1.1
			c0.3,0,0.6-0.1,0.8-0.3l0.4,0.4c-0.3,0.3-0.7,0.5-1.2,0.5C227.7,153.9,227,153.1,227,151.9z M229.6,151.7c0-0.8-0.5-1.1-0.9-1.1
			c-0.5,0-1,0.3-1,1.1H229.6z"/>
	</g>
	<g class="st0">
		<path d="M231.1,148.9l0.6-0.3v1.9c0.2-0.3,0.6-0.5,1-0.5c0.8,0,1.3,0.5,1.3,1.7v2.1h-0.6v-2.2c0-0.7-0.3-1-0.8-1
			c-0.5,0-0.9,0.2-0.9,1v2.2h-0.6V148.9z"/>
		<path d="M235.2,150.1h0.6v0.5c0.2-0.4,0.5-0.6,0.9-0.6c0.2,0,0.4,0.1,0.5,0.2l-0.1,0.6c-0.1-0.1-0.3-0.2-0.5-0.2
			c-0.3,0-0.8,0.2-0.8,1.1v2.1h-0.6V150.1z"/>
	</g>
	<g class="st0">
		<path d="M238,151.9c0-1.2,0.7-1.9,1.6-1.9c0.8,0,1.5,0.5,1.5,1.8c0,0.1,0,0.3,0,0.4h-2.5c0,0.7,0.5,1.1,1,1.1
			c0.3,0,0.6-0.1,0.8-0.3l0.4,0.4c-0.3,0.3-0.7,0.5-1.2,0.5C238.6,153.9,238,153.1,238,151.9z M240.5,151.7c0-0.8-0.5-1.1-0.9-1.1
			c-0.5,0-1,0.3-1,1.1H240.5z"/>
	</g>
	<g class="st0">
		<path d="M242.1,150.1h0.6v0.5c0.2-0.4,0.5-0.6,0.9-0.6c0.2,0,0.4,0.1,0.5,0.2l-0.1,0.6c-0.1-0.1-0.3-0.2-0.5-0.2
			c-0.3,0-0.8,0.2-0.8,1.1v2.1h-0.6V150.1z"/>
	</g>
	<g class="st0">
		<path d="M244.7,151.9c0-1.2,0.7-1.9,1.6-1.9c0.8,0,1.5,0.5,1.5,1.8c0,0.1,0,0.3,0,0.4h-2.5c0,0.7,0.5,1.1,1,1.1
			c0.3,0,0.6-0.1,0.8-0.3l0.4,0.4c-0.3,0.3-0.7,0.5-1.2,0.5C245.4,153.9,244.7,153.1,244.7,151.9z M247.2,151.7
			c0-0.8-0.5-1.1-0.9-1.1c-0.5,0-1,0.3-1,1.1H247.2z"/>
	</g>
	<g class="st0">
		<path d="M253.1,152.6h-2l-0.4,1.2H250l1.8-5.1h0.6l1.8,5.1h-0.6L253.1,152.6z M252.3,150.1c-0.1-0.1-0.1-0.4-0.2-0.5
			c0,0.1-0.1,0.4-0.2,0.5l-0.7,1.9h1.6L252.3,150.1z"/>
		<path d="M257.4,151.6c0-0.7-0.3-1-0.8-1c-0.5,0-0.9,0.2-0.9,1v2.2h-0.6v-3.7h0.6v0.4c0.2-0.3,0.6-0.5,1-0.5c0.8,0,1.3,0.5,1.3,1.7
			v2.1h-0.6V151.6z"/>
		<path d="M259.4,153v-2.3h-0.6v-0.5h0.6v-1.2l0.6-0.3v1.5h0.9v0.5h-0.9v2.1c0,0.3,0.1,0.5,0.4,0.5c0.2,0,0.4-0.1,0.5-0.2l-0.1,0.6
			c-0.2,0.1-0.4,0.2-0.7,0.2C259.7,153.9,259.4,153.5,259.4,153z"/>
	</g>
	<g class="st0">
		<path d="M261.7,150.1h0.6l0.6,2.5c0,0.1,0.1,0.3,0.1,0.4c0-0.1,0.1-0.3,0.1-0.4l0.7-2.5h0.5l0.7,2.5l0.1,0.4
			c0-0.1,0.1-0.3,0.1-0.4l0.6-2.5h0.6l-0.9,3.7h-0.6l-0.7-2.2c0-0.1-0.1-0.3-0.1-0.5c0,0.1-0.1,0.3-0.1,0.5l-0.7,2.2h-0.6
			L261.7,150.1z"/>
	</g>
	<g class="st0">
		<path d="M267,151.9c0-1.2,0.6-1.9,1.6-1.9c1,0,1.6,0.7,1.6,1.9c0,1.2-0.6,1.9-1.6,1.9C267.6,153.9,267,153.2,267,151.9z
			 M269.6,151.9c0-0.8-0.4-1.3-1-1.3s-1,0.5-1,1.4c0,0.8,0.4,1.3,1,1.3C269.2,153.3,269.6,152.8,269.6,151.9z"/>
	</g>
	<g class="st0">
		<path d="M271.3,150.1h0.6v0.5c0.2-0.4,0.5-0.6,0.9-0.6c0.2,0,0.4,0.1,0.5,0.2l-0.1,0.6c-0.1-0.1-0.3-0.2-0.5-0.2
			c-0.3,0-0.8,0.2-0.8,1.1v2.1h-0.6V150.1z"/>
	</g>
	<g class="st0">
		<path d="M274.5,153v-2.3h-0.6v-0.5h0.6v-1.2l0.6-0.3v1.5h0.9v0.5h-0.9v2.1c0,0.3,0.1,0.5,0.4,0.5c0.2,0,0.4-0.1,0.5-0.2l-0.1,0.6
			c-0.2,0.1-0.4,0.2-0.7,0.2C274.7,153.9,274.5,153.5,274.5,153z"/>
	</g>
	<g class="st0">
		<path d="M281.3,151.5c0-0.5-0.2-1-0.7-1c-0.5,0-0.8,0.4-0.8,1v2.2h-0.6v-2.2c0-0.5-0.2-1-0.7-1c-0.5,0-0.8,0.4-0.8,1v2.2h-0.6
			v-3.7h0.6v0.3c0.2-0.3,0.6-0.4,1-0.4c0.4,0,0.8,0.2,1,0.5c0.2-0.3,0.6-0.5,1.1-0.5c0.7,0,1.3,0.5,1.3,1.4v2.4h-0.6V151.5z"/>
	</g>
	<g class="st0">
		<path d="M282.9,151.9c0-1.2,0.6-1.9,1.6-1.9c1,0,1.6,0.7,1.6,1.9c0,1.2-0.6,1.9-1.6,1.9C283.5,153.9,282.9,153.2,282.9,151.9z
			 M283.5,149.1c0-0.2,0.2-0.4,0.4-0.4c0.2,0,0.4,0.2,0.4,0.4c0,0.2-0.2,0.4-0.4,0.4C283.6,149.5,283.5,149.3,283.5,149.1z
			 M285.5,151.9c0-0.8-0.4-1.3-1-1.3s-1,0.5-1,1.4c0,0.8,0.4,1.3,1,1.3C285.1,153.3,285.5,152.8,285.5,151.9z M284.7,149.1
			c0-0.2,0.2-0.4,0.4-0.4c0.2,0,0.4,0.2,0.4,0.4c0,0.2-0.2,0.4-0.4,0.4C284.9,149.5,284.7,149.3,284.7,149.1z"/>
		<path d="M287.9,154.8c1.1-0.1,1.4-0.4,1.4-0.9v-0.4c-0.2,0.3-0.5,0.4-1,0.4c-0.8,0-1.5-0.6-1.5-1.9c0-1.2,0.6-1.9,1.5-1.9
			c0.5,0,0.8,0.2,0.9,0.4v-0.3h0.6v3.5c0,1.2-0.7,1.6-1.7,1.6L287.9,154.8z M289.3,152.8v-1.7c-0.2-0.3-0.5-0.5-0.8-0.5
			c-0.7,0-1,0.5-1,1.3c0,0.8,0.4,1.3,1,1.3C288.8,153.3,289.2,153.1,289.3,152.8z"/>
	</g>
	<g class="st0">
		<path d="M291.3,148.9l0.6-0.3v5.2h-0.6V148.9z"/>
	</g>
	<g class="st0">
		<path d="M293.1,149c0-0.2,0.2-0.4,0.4-0.4c0.2,0,0.4,0.2,0.4,0.4c0,0.2-0.2,0.4-0.4,0.4C293.3,149.4,293.1,149.3,293.1,149z
			 M293.2,150.1h0.6v3.7h-0.6V150.1z"/>
	</g>
	<g class="st0">
		<path d="M294.8,151.9c0-1.2,0.6-1.9,1.6-1.9c0.6,0,1.1,0.3,1.3,0.9l-0.6,0.2c-0.1-0.3-0.3-0.5-0.7-0.5c-0.6,0-0.9,0.5-0.9,1.3
			c0,0.8,0.3,1.3,0.9,1.3c0.4,0,0.6-0.2,0.8-0.5l0.6,0.2c-0.2,0.6-0.7,0.9-1.3,0.9C295.4,153.9,294.8,153.2,294.8,151.9z"/>
	</g>
	<g class="st0">
		<path d="M298.7,148.9l0.6-0.3v1.9c0.2-0.3,0.6-0.5,1-0.5c0.8,0,1.3,0.5,1.3,1.7v2.1h-0.6v-2.2c0-0.7-0.3-1-0.8-1
			c-0.5,0-0.9,0.2-0.9,1v2.2h-0.6V148.9z"/>
	</g>
	<g class="st0">
		<path d="M305,153.8l-1.1-2.2l-0.5,0.6v1.7h-0.6v-4.9l0.6-0.3v2.8l1.2-1.3h0.8l-1,1l1.4,2.7H305z"/>
	</g>
	<g class="st0">
		<path d="M306.3,151.9c0-1.2,0.7-1.9,1.6-1.9c0.8,0,1.5,0.5,1.5,1.8c0,0.1,0,0.3,0,0.4h-2.5c0,0.7,0.5,1.1,1,1.1
			c0.3,0,0.6-0.1,0.8-0.3l0.4,0.4c-0.3,0.3-0.7,0.5-1.2,0.5C306.9,153.9,306.3,153.1,306.3,151.9z M308.8,151.7
			c0-0.8-0.5-1.1-0.9-1.1c-0.5,0-1,0.3-1,1.1H308.8z"/>
		<path d="M310.3,149c0-0.2,0.2-0.4,0.4-0.4c0.2,0,0.4,0.2,0.4,0.4c0,0.2-0.2,0.4-0.4,0.4C310.5,149.4,310.3,149.3,310.3,149z
			 M310.4,150.1h0.6v3.7h-0.6V150.1z"/>
	</g>
	<g class="st0">
		<path d="M312.5,153v-2.3h-0.6v-0.5h0.6v-1.2l0.6-0.3v1.5h0.9v0.5h-0.9v2.1c0,0.3,0.1,0.5,0.4,0.5c0.2,0,0.4-0.1,0.5-0.2l-0.1,0.6
			c-0.2,0.1-0.4,0.2-0.7,0.2C312.7,153.9,312.5,153.5,312.5,153z"/>
	</g>
	<g class="st0">
		<path d="M314.8,151.9c0-1.2,0.7-1.9,1.6-1.9c0.8,0,1.5,0.5,1.5,1.8c0,0.1,0,0.3,0,0.4h-2.5c0,0.7,0.5,1.1,1,1.1
			c0.3,0,0.6-0.1,0.8-0.3l0.4,0.4c-0.3,0.3-0.7,0.5-1.2,0.5C315.4,153.9,314.8,153.1,314.8,151.9z M317.3,151.7
			c0-0.8-0.5-1.1-0.9-1.1c-0.5,0-1,0.3-1,1.1H317.3z"/>
	</g>
	<g class="st0">
		<path d="M321.1,151.6c0-0.7-0.3-1-0.8-1c-0.5,0-0.9,0.2-0.9,1v2.2h-0.6v-3.7h0.6v0.4c0.2-0.3,0.6-0.5,1-0.5c0.8,0,1.3,0.5,1.3,1.7
			v2.1h-0.6V151.6z"/>
	</g>
	<g class="st0">
		<path d="M323.7,151.7c0-1.6-0.7-2.8-0.9-3.1h0.6c0.5,0.6,1,1.6,1,3.1s-0.4,2.4-0.9,3h-0.6C323.1,154.4,323.7,153.3,323.7,151.7z"
			/>
	</g>
</g>
</svg>
