<?xml version="1.0" encoding="utf-8"?>
<!-- Generator: Adobe Illustrator 21.0.0, SVG Export Plug-In . SVG Version: 6.00 Build 0)  -->
<svg version="1.1" id="Layer_1" xmlns="http://www.w3.org/2000/svg" xmlns:xlink="http://www.w3.org/1999/xlink" x="0px" y="0px"
	 viewBox="0 0 330 165" style="enable-background:new 0 0 330 165;" xml:space="preserve">
<style type="text/css">
	.st0{fill:#FFFFFF;}
	.st1{clip-path:url(#SVGID_2_);fill:none;stroke:#0000FF;stroke-width:0.994;}
	.st2{clip-path:url(#SVGID_4_);fill:none;stroke:#0000FF;stroke-width:0.994;}
	.st3{clip-path:url(#SVGID_6_);fill:none;stroke:#0000FF;stroke-width:0.994;}
	.st4{clip-path:url(#SVGID_8_);fill:none;stroke:#0000FF;stroke-width:0.994;}
	.st5{clip-path:url(#SVGID_10_);fill:none;stroke:#0000FF;stroke-width:0.994;}
	.st6{clip-path:url(#SVGID_12_);fill:none;stroke:#0000FF;stroke-width:0.994;}
	.st7{clip-path:url(#SVGID_14_);fill:none;stroke:#0000FF;stroke-width:0.994;}
	.st8{clip-path:url(#SVGID_16_);fill:none;stroke:#0000FF;stroke-width:0.994;}
	.st9{clip-path:url(#SVGID_18_);fill:none;stroke:#0000FF;stroke-width:0.994;}
	.st10{clip-path:url(#SVGID_20_);fill:none;stroke:#0000FF;stroke-width:0.994;}
	.st11{clip-path:url(#SVGID_22_);fill:none;stroke:#0000FF;stroke-width:0.994;}
	.st12{clip-path:url(#SVGID_24_);fill:none;stroke:#0000FF;stroke-width:0.994;}
	.st13{clip-path:url(#SVGID_26_);fill:none;stroke:#0000FF;stroke-width:0.994;}
	.st14{clip-path:url(#SVGID_28_);fill:none;stroke:#0000FF;stroke-width:0.994;}
	.st15{clip-path:url(#SVGID_30_);fill:none;stroke:#0000FF;stroke-width:0.994;}
	.st16{clip-path:url(#SVGID_32_);fill:none;stroke:#0000FF;stroke-width:0.994;}
	.st17{clip-path:url(#SVGID_34_);fill:none;stroke:#0000FF;stroke-width:0.994;}
	.st18{clip-path:url(#SVGID_36_);fill:none;stroke:#0000FF;stroke-width:0.994;}
	.st19{clip-path:url(#SVGID_38_);fill:none;stroke:#0000FF;stroke-width:0.994;}
	.st20{clip-path:url(#SVGID_40_);fill:none;stroke:#0000FF;stroke-width:0.994;}
	.st21{clip-path:url(#SVGID_42_);fill:none;stroke:#0000FF;stroke-width:0.994;}
	.st22{clip-path:url(#SVGID_44_);fill:none;stroke:#0000FF;stroke-width:0.994;}
	.st23{clip-path:url(#SVGID_46_);fill:none;stroke:#0000FF;stroke-width:0.994;}
	.st24{clip-path:url(#SVGID_48_);fill:none;stroke:#0000FF;stroke-width:0.994;}
	.st25{clip-path:url(#SVGID_50_);fill:none;stroke:#0000FF;stroke-width:0.994;}
	.st26{clip-path:url(#SVGID_52_);fill:none;stroke:#0000FF;stroke-width:0.994;}
	.st27{clip-path:url(#SVGID_54_);fill:none;stroke:#0000FF;stroke-width:0.994;}
	.st28{clip-path:url(#SVGID_56_);fill:none;stroke:#0000FF;stroke-width:0.994;}
	.st29{clip-path:url(#SVGID_58_);fill:none;stroke:#0000FF;stroke-width:0.994;}
	.st30{clip-path:url(#SVGID_60_);fill:none;stroke:#0000FF;stroke-width:0.994;}
	.st31{clip-path:url(#SVGID_62_);fill:none;stroke:#0000FF;stroke-width:0.994;}
	.st32{clip-path:url(#SVGID_64_);fill:none;stroke:#0000FF;stroke-width:0.994;}
	.st33{clip-path:url(#SVGID_66_);fill:none;stroke:#0000FF;stroke-width:0.994;}
	.st34{clip-path:url(#SVGID_68_);fill:none;stroke:#0000FF;stroke-width:0.994;}
	.st35{clip-path:url(#SVGID_70_);fill:none;stroke:#0000FF;stroke-width:0.994;}
	.st36{clip-path:url(#SVGID_72_);fill:none;stroke:#0000FF;stroke-width:0.994;}
	.st37{clip-path:url(#SVGID_74_);fill:none;stroke:#0000FF;stroke-width:0.994;}
	.st38{fill:none;stroke:#0000FF;}
	.st39{fill:#0000FF;}
	.st40{fill:none;stroke:#0000FF;stroke-width:0.5;}
	.st41{fill:none;stroke:#000000;stroke-width:0.5;}
	.st42{font-family:'Overpass-SemiBold';}
	.st43{font-size:8px;}
	.st44{fill:none;stroke:#000000;stroke-width:0.745;}
	.st45{enable-background:new    ;}
	.st46{font-family:'Overpass-Regular';}
	.st47{font-size:7.2124px;}
</style>
<g>
	<path class="st0" d="M83.9,158c39.4,0,71.4-32,71.4-71.4s-32-71.4-71.4-71.4s-71.4,32-71.4,71.4S44.6,158,83.9,158"/>
</g>
<g>
	<g>
		<defs>
			<path id="SVGID_1_" d="M13.1,86.6c0,39.1,31.7,70.9,70.9,70.9c39.1,0,70.9-31.7,70.9-70.9c0-39.1-31.7-70.9-70.9-70.9
				C44.8,15.8,13.1,47.5,13.1,86.6"/>
		</defs>
		<clipPath id="SVGID_2_">
			<use xlink:href="#SVGID_1_"  style="overflow:visible;"/>
		</clipPath>
		<line class="st1" x1="-27.4" y1="116.4" x2="201.7" y2="247.5"/>
	</g>
	<g>
		<defs>
			<path id="SVGID_3_" d="M13.1,86.6c0,39.1,31.7,70.9,70.9,70.9c39.1,0,70.9-31.7,70.9-70.9c0-39.1-31.7-70.9-70.9-70.9
				C44.8,15.8,13.1,47.5,13.1,86.6"/>
		</defs>
		<clipPath id="SVGID_4_">
			<use xlink:href="#SVGID_3_"  style="overflow:visible;"/>
		</clipPath>
		<line class="st2" x1="-36.9" y1="105.4" x2="192.1" y2="236.5"/>
	</g>
	<g>
		<defs>
			<path id="SVGID_5_" d="M13.1,86.6c0,39.1,31.7,70.9,70.9,70.9c39.1,0,70.9-31.7,70.9-70.9c0-39.1-31.7-70.9-70.9-70.9
				C44.8,15.8,13.1,47.5,13.1,86.6"/>
		</defs>
		<clipPath id="SVGID_6_">
			<use xlink:href="#SVGID_5_"  style="overflow:visible;"/>
		</clipPath>
		<line class="st3" x1="-27.4" y1="105.4" x2="201.7" y2="236.5"/>
	</g>
	<g>
		<defs>
			<path id="SVGID_7_" d="M13.1,86.6c0,39.1,31.7,70.9,70.9,70.9c39.1,0,70.9-31.7,70.9-70.9c0-39.1-31.7-70.9-70.9-70.9
				C44.8,15.8,13.1,47.5,13.1,86.6"/>
		</defs>
		<clipPath id="SVGID_8_">
			<use xlink:href="#SVGID_7_"  style="overflow:visible;"/>
		</clipPath>
		<line class="st4" x1="-36.9" y1="94.4" x2="192.1" y2="225.5"/>
	</g>
	<g>
		<defs>
			<path id="SVGID_9_" d="M13.1,86.6c0,39.1,31.7,70.9,70.9,70.9c39.1,0,70.9-31.7,70.9-70.9c0-39.1-31.7-70.9-70.9-70.9
				C44.8,15.8,13.1,47.5,13.1,86.6"/>
		</defs>
		<clipPath id="SVGID_10_">
			<use xlink:href="#SVGID_9_"  style="overflow:visible;"/>
		</clipPath>
		<line class="st5" x1="-27.4" y1="94.4" x2="201.7" y2="225.5"/>
	</g>
	<g>
		<defs>
			<path id="SVGID_11_" d="M13.1,86.6c0,39.1,31.7,70.9,70.9,70.9c39.1,0,70.9-31.7,70.9-70.9c0-39.1-31.7-70.9-70.9-70.9
				C44.8,15.8,13.1,47.5,13.1,86.6"/>
		</defs>
		<clipPath id="SVGID_12_">
			<use xlink:href="#SVGID_11_"  style="overflow:visible;"/>
		</clipPath>
		<line class="st6" x1="-36.9" y1="83.4" x2="192.1" y2="214.5"/>
	</g>
	<g>
		<defs>
			<path id="SVGID_13_" d="M13.1,86.6c0,39.1,31.7,70.9,70.9,70.9c39.1,0,70.9-31.7,70.9-70.9c0-39.1-31.7-70.9-70.9-70.9
				C44.8,15.8,13.1,47.5,13.1,86.6"/>
		</defs>
		<clipPath id="SVGID_14_">
			<use xlink:href="#SVGID_13_"  style="overflow:visible;"/>
		</clipPath>
		<line class="st7" x1="-27.4" y1="83.4" x2="201.7" y2="214.5"/>
	</g>
	<g>
		<defs>
			<path id="SVGID_15_" d="M13.1,86.6c0,39.1,31.7,70.9,70.9,70.9c39.1,0,70.9-31.7,70.9-70.9c0-39.1-31.7-70.9-70.9-70.9
				C44.8,15.8,13.1,47.5,13.1,86.6"/>
		</defs>
		<clipPath id="SVGID_16_">
			<use xlink:href="#SVGID_15_"  style="overflow:visible;"/>
		</clipPath>
		<line class="st8" x1="-36.9" y1="72.4" x2="192.1" y2="203.5"/>
	</g>
	<g>
		<defs>
			<path id="SVGID_17_" d="M13.1,86.6c0,39.1,31.7,70.9,70.9,70.9c39.1,0,70.9-31.7,70.9-70.9c0-39.1-31.7-70.9-70.9-70.9
				C44.8,15.8,13.1,47.5,13.1,86.6"/>
		</defs>
		<clipPath id="SVGID_18_">
			<use xlink:href="#SVGID_17_"  style="overflow:visible;"/>
		</clipPath>
		<line class="st9" x1="-27.4" y1="72.4" x2="201.7" y2="203.5"/>
	</g>
	<g>
		<defs>
			<path id="SVGID_19_" d="M13.1,86.6c0,39.1,31.7,70.9,70.9,70.9c39.1,0,70.9-31.7,70.9-70.9c0-39.1-31.7-70.9-70.9-70.9
				C44.8,15.8,13.1,47.5,13.1,86.6"/>
		</defs>
		<clipPath id="SVGID_20_">
			<use xlink:href="#SVGID_19_"  style="overflow:visible;"/>
		</clipPath>
		<line class="st10" x1="-36.9" y1="61.4" x2="192.1" y2="192.5"/>
	</g>
	<g>
		<defs>
			<path id="SVGID_21_" d="M13.1,86.6c0,39.1,31.7,70.9,70.9,70.9c39.1,0,70.9-31.7,70.9-70.9c0-39.1-31.7-70.9-70.9-70.9
				C44.8,15.8,13.1,47.5,13.1,86.6"/>
		</defs>
		<clipPath id="SVGID_22_">
			<use xlink:href="#SVGID_21_"  style="overflow:visible;"/>
		</clipPath>
		<line class="st11" x1="-27.4" y1="61.4" x2="201.7" y2="192.5"/>
	</g>
	<g>
		<defs>
			<path id="SVGID_23_" d="M13.1,86.6c0,39.1,31.7,70.9,70.9,70.9c39.1,0,70.9-31.7,70.9-70.9c0-39.1-31.7-70.9-70.9-70.9
				C44.8,15.8,13.1,47.5,13.1,86.6"/>
		</defs>
		<clipPath id="SVGID_24_">
			<use xlink:href="#SVGID_23_"  style="overflow:visible;"/>
		</clipPath>
		<line class="st12" x1="-36.9" y1="50.4" x2="192.1" y2="181.5"/>
	</g>
	<g>
		<defs>
			<path id="SVGID_25_" d="M13.1,86.6c0,39.1,31.7,70.9,70.9,70.9c39.1,0,70.9-31.7,70.9-70.9c0-39.1-31.7-70.9-70.9-70.9
				C44.8,15.8,13.1,47.5,13.1,86.6"/>
		</defs>
		<clipPath id="SVGID_26_">
			<use xlink:href="#SVGID_25_"  style="overflow:visible;"/>
		</clipPath>
		<line class="st13" x1="-27.4" y1="50.4" x2="201.7" y2="181.5"/>
	</g>
	<g>
		<defs>
			<path id="SVGID_27_" d="M13.1,86.6c0,39.1,31.7,70.9,70.9,70.9c39.1,0,70.9-31.7,70.9-70.9c0-39.1-31.7-70.9-70.9-70.9
				C44.8,15.8,13.1,47.5,13.1,86.6"/>
		</defs>
		<clipPath id="SVGID_28_">
			<use xlink:href="#SVGID_27_"  style="overflow:visible;"/>
		</clipPath>
		<line class="st14" x1="-36.9" y1="39.4" x2="192.1" y2="170.5"/>
	</g>
	<g>
		<defs>
			<path id="SVGID_29_" d="M13.1,86.6c0,39.1,31.7,70.9,70.9,70.9c39.1,0,70.9-31.7,70.9-70.9c0-39.1-31.7-70.9-70.9-70.9
				C44.8,15.8,13.1,47.5,13.1,86.6"/>
		</defs>
		<clipPath id="SVGID_30_">
			<use xlink:href="#SVGID_29_"  style="overflow:visible;"/>
		</clipPath>
		<line class="st15" x1="-27.4" y1="39.4" x2="201.7" y2="170.5"/>
	</g>
	<g>
		<defs>
			<path id="SVGID_31_" d="M13.1,86.6c0,39.1,31.7,70.9,70.9,70.9c39.1,0,70.9-31.7,70.9-70.9c0-39.1-31.7-70.9-70.9-70.9
				C44.8,15.8,13.1,47.5,13.1,86.6"/>
		</defs>
		<clipPath id="SVGID_32_">
			<use xlink:href="#SVGID_31_"  style="overflow:visible;"/>
		</clipPath>
		<line class="st16" x1="-36.9" y1="28.4" x2="192.1" y2="159.6"/>
	</g>
	<g>
		<defs>
			<path id="SVGID_33_" d="M13.1,86.6c0,39.1,31.7,70.9,70.9,70.9c39.1,0,70.9-31.7,70.9-70.9c0-39.1-31.7-70.9-70.9-70.9
				C44.8,15.8,13.1,47.5,13.1,86.6"/>
		</defs>
		<clipPath id="SVGID_34_">
			<use xlink:href="#SVGID_33_"  style="overflow:visible;"/>
		</clipPath>
		<line class="st17" x1="-27.4" y1="28.4" x2="201.7" y2="159.6"/>
	</g>
	<g>
		<defs>
			<path id="SVGID_35_" d="M13.1,86.6c0,39.1,31.7,70.9,70.9,70.9c39.1,0,70.9-31.7,70.9-70.9c0-39.1-31.7-70.9-70.9-70.9
				C44.8,15.8,13.1,47.5,13.1,86.6"/>
		</defs>
		<clipPath id="SVGID_36_">
			<use xlink:href="#SVGID_35_"  style="overflow:visible;"/>
		</clipPath>
		<line class="st18" x1="-36.9" y1="17.4" x2="192.1" y2="148.6"/>
	</g>
	<g>
		<defs>
			<path id="SVGID_37_" d="M13.1,86.6c0,39.1,31.7,70.9,70.9,70.9c39.1,0,70.9-31.7,70.9-70.9c0-39.1-31.7-70.9-70.9-70.9
				C44.8,15.8,13.1,47.5,13.1,86.6"/>
		</defs>
		<clipPath id="SVGID_38_">
			<use xlink:href="#SVGID_37_"  style="overflow:visible;"/>
		</clipPath>
		<line class="st19" x1="-27.4" y1="17.4" x2="201.7" y2="148.6"/>
	</g>
	<g>
		<defs>
			<path id="SVGID_39_" d="M13.1,86.6c0,39.1,31.7,70.9,70.9,70.9c39.1,0,70.9-31.7,70.9-70.9c0-39.1-31.7-70.9-70.9-70.9
				C44.8,15.8,13.1,47.5,13.1,86.6"/>
		</defs>
		<clipPath id="SVGID_40_">
			<use xlink:href="#SVGID_39_"  style="overflow:visible;"/>
		</clipPath>
		<line class="st20" x1="-36.9" y1="6.4" x2="192.1" y2="137.6"/>
	</g>
	<g>
		<defs>
			<path id="SVGID_41_" d="M13.1,86.6c0,39.1,31.7,70.9,70.9,70.9c39.1,0,70.9-31.7,70.9-70.9c0-39.1-31.7-70.9-70.9-70.9
				C44.8,15.8,13.1,47.5,13.1,86.6"/>
		</defs>
		<clipPath id="SVGID_42_">
			<use xlink:href="#SVGID_41_"  style="overflow:visible;"/>
		</clipPath>
		<line class="st21" x1="-27.4" y1="6.4" x2="201.7" y2="137.6"/>
	</g>
	<g>
		<defs>
			<path id="SVGID_43_" d="M13.1,86.6c0,39.1,31.7,70.9,70.9,70.9c39.1,0,70.9-31.7,70.9-70.9c0-39.1-31.7-70.9-70.9-70.9
				C44.8,15.8,13.1,47.5,13.1,86.6"/>
		</defs>
		<clipPath id="SVGID_44_">
			<use xlink:href="#SVGID_43_"  style="overflow:visible;"/>
		</clipPath>
		<line class="st22" x1="-36.9" y1="-4.5" x2="192.1" y2="126.6"/>
	</g>
	<g>
		<defs>
			<path id="SVGID_45_" d="M13.1,86.6c0,39.1,31.7,70.9,70.9,70.9c39.1,0,70.9-31.7,70.9-70.9c0-39.1-31.7-70.9-70.9-70.9
				C44.8,15.8,13.1,47.5,13.1,86.6"/>
		</defs>
		<clipPath id="SVGID_46_">
			<use xlink:href="#SVGID_45_"  style="overflow:visible;"/>
		</clipPath>
		<line class="st23" x1="-27.4" y1="-4.5" x2="201.7" y2="126.6"/>
	</g>
	<g>
		<defs>
			<path id="SVGID_47_" d="M13.1,86.6c0,39.1,31.7,70.9,70.9,70.9c39.1,0,70.9-31.7,70.9-70.9c0-39.1-31.7-70.9-70.9-70.9
				C44.8,15.8,13.1,47.5,13.1,86.6"/>
		</defs>
		<clipPath id="SVGID_48_">
			<use xlink:href="#SVGID_47_"  style="overflow:visible;"/>
		</clipPath>
		<line class="st24" x1="-36.9" y1="-15.5" x2="192.1" y2="115.6"/>
	</g>
	<g>
		<defs>
			<path id="SVGID_49_" d="M13.1,86.6c0,39.1,31.7,70.9,70.9,70.9c39.1,0,70.9-31.7,70.9-70.9c0-39.1-31.7-70.9-70.9-70.9
				C44.8,15.8,13.1,47.5,13.1,86.6"/>
		</defs>
		<clipPath id="SVGID_50_">
			<use xlink:href="#SVGID_49_"  style="overflow:visible;"/>
		</clipPath>
		<line class="st25" x1="-27.4" y1="-15.5" x2="201.7" y2="115.6"/>
	</g>
	<g>
		<defs>
			<path id="SVGID_51_" d="M13.1,86.6c0,39.1,31.7,70.9,70.9,70.9c39.1,0,70.9-31.7,70.9-70.9c0-39.1-31.7-70.9-70.9-70.9
				C44.8,15.8,13.1,47.5,13.1,86.6"/>
		</defs>
		<clipPath id="SVGID_52_">
			<use xlink:href="#SVGID_51_"  style="overflow:visible;"/>
		</clipPath>
		<line class="st26" x1="-36.9" y1="-26.5" x2="192.1" y2="104.6"/>
	</g>
	<g>
		<defs>
			<path id="SVGID_53_" d="M13.1,86.6c0,39.1,31.7,70.9,70.9,70.9c39.1,0,70.9-31.7,70.9-70.9c0-39.1-31.7-70.9-70.9-70.9
				C44.8,15.8,13.1,47.5,13.1,86.6"/>
		</defs>
		<clipPath id="SVGID_54_">
			<use xlink:href="#SVGID_53_"  style="overflow:visible;"/>
		</clipPath>
		<line class="st27" x1="-27.4" y1="-26.5" x2="201.7" y2="104.6"/>
	</g>
	<g>
		<defs>
			<path id="SVGID_55_" d="M13.1,86.6c0,39.1,31.7,70.9,70.9,70.9c39.1,0,70.9-31.7,70.9-70.9c0-39.1-31.7-70.9-70.9-70.9
				C44.8,15.8,13.1,47.5,13.1,86.6"/>
		</defs>
		<clipPath id="SVGID_56_">
			<use xlink:href="#SVGID_55_"  style="overflow:visible;"/>
		</clipPath>
		<line class="st28" x1="-36.9" y1="-37.5" x2="192.1" y2="93.6"/>
	</g>
	<g>
		<defs>
			<path id="SVGID_57_" d="M13.1,86.6c0,39.1,31.7,70.9,70.9,70.9c39.1,0,70.9-31.7,70.9-70.9c0-39.1-31.7-70.9-70.9-70.9
				C44.8,15.8,13.1,47.5,13.1,86.6"/>
		</defs>
		<clipPath id="SVGID_58_">
			<use xlink:href="#SVGID_57_"  style="overflow:visible;"/>
		</clipPath>
		<line class="st29" x1="-27.4" y1="-37.5" x2="201.7" y2="93.6"/>
	</g>
	<g>
		<defs>
			<path id="SVGID_59_" d="M13.1,86.6c0,39.1,31.7,70.9,70.9,70.9c39.1,0,70.9-31.7,70.9-70.9c0-39.1-31.7-70.9-70.9-70.9
				C44.8,15.8,13.1,47.5,13.1,86.6"/>
		</defs>
		<clipPath id="SVGID_60_">
			<use xlink:href="#SVGID_59_"  style="overflow:visible;"/>
		</clipPath>
		<line class="st30" x1="-36.9" y1="-48.5" x2="192.1" y2="82.6"/>
	</g>
	<g>
		<defs>
			<path id="SVGID_61_" d="M13.1,86.6c0,39.1,31.7,70.9,70.9,70.9c39.1,0,70.9-31.7,70.9-70.9c0-39.1-31.7-70.9-70.9-70.9
				C44.8,15.8,13.1,47.5,13.1,86.6"/>
		</defs>
		<clipPath id="SVGID_62_">
			<use xlink:href="#SVGID_61_"  style="overflow:visible;"/>
		</clipPath>
		<line class="st31" x1="-27.4" y1="-48.5" x2="201.7" y2="82.6"/>
	</g>
	<g>
		<defs>
			<path id="SVGID_63_" d="M13.1,86.6c0,39.1,31.7,70.9,70.9,70.9c39.1,0,70.9-31.7,70.9-70.9c0-39.1-31.7-70.9-70.9-70.9
				C44.8,15.8,13.1,47.5,13.1,86.6"/>
		</defs>
		<clipPath id="SVGID_64_">
			<use xlink:href="#SVGID_63_"  style="overflow:visible;"/>
		</clipPath>
		<line class="st32" x1="-36.9" y1="-59.5" x2="192.1" y2="71.6"/>
	</g>
	<g>
		<defs>
			<path id="SVGID_65_" d="M13.1,86.6c0,39.1,31.7,70.9,70.9,70.9c39.1,0,70.9-31.7,70.9-70.9c0-39.1-31.7-70.9-70.9-70.9
				C44.8,15.8,13.1,47.5,13.1,86.6"/>
		</defs>
		<clipPath id="SVGID_66_">
			<use xlink:href="#SVGID_65_"  style="overflow:visible;"/>
		</clipPath>
		<line class="st33" x1="-27.4" y1="-59.5" x2="201.7" y2="71.6"/>
	</g>
	<g>
		<defs>
			<path id="SVGID_67_" d="M13.1,86.6c0,39.1,31.7,70.9,70.9,70.9c39.1,0,70.9-31.7,70.9-70.9c0-39.1-31.7-70.9-70.9-70.9
				C44.8,15.8,13.1,47.5,13.1,86.6"/>
		</defs>
		<clipPath id="SVGID_68_">
			<use xlink:href="#SVGID_67_"  style="overflow:visible;"/>
		</clipPath>
		<line class="st34" x1="-36.9" y1="-70.5" x2="192.1" y2="60.6"/>
	</g>
	<g>
		<defs>
			<path id="SVGID_69_" d="M13.1,86.6c0,39.1,31.7,70.9,70.9,70.9c39.1,0,70.9-31.7,70.9-70.9c0-39.1-31.7-70.9-70.9-70.9
				C44.8,15.8,13.1,47.5,13.1,86.6"/>
		</defs>
		<clipPath id="SVGID_70_">
			<use xlink:href="#SVGID_69_"  style="overflow:visible;"/>
		</clipPath>
		<line class="st35" x1="-27.4" y1="-70.5" x2="201.7" y2="60.6"/>
	</g>
	<g>
		<defs>
			<path id="SVGID_71_" d="M13.1,86.6c0,39.1,31.7,70.9,70.9,70.9c39.1,0,70.9-31.7,70.9-70.9c0-39.1-31.7-70.9-70.9-70.9
				C44.8,15.8,13.1,47.5,13.1,86.6"/>
		</defs>
		<clipPath id="SVGID_72_">
			<use xlink:href="#SVGID_71_"  style="overflow:visible;"/>
		</clipPath>
		<line class="st36" x1="-36.9" y1="-81.5" x2="192.1" y2="49.6"/>
	</g>
	<g>
		<defs>
			<path id="SVGID_73_" d="M13.1,86.6c0,39.1,31.7,70.9,70.9,70.9c39.1,0,70.9-31.7,70.9-70.9c0-39.1-31.7-70.9-70.9-70.9
				C44.8,15.8,13.1,47.5,13.1,86.6"/>
		</defs>
		<clipPath id="SVGID_74_">
			<use xlink:href="#SVGID_73_"  style="overflow:visible;"/>
		</clipPath>
		<line class="st37" x1="-27.4" y1="-81.5" x2="201.7" y2="49.6"/>
	</g>
</g>
<g>
	<path class="st38" d="M83.9,158c39.4,0,71.4-32,71.4-71.4s-32-71.4-71.4-71.4s-71.4,32-71.4,71.4S44.6,158,83.9,158z"/>
	<path class="st39" d="M84.7,15.6c0.4,1.2-0.2,71.7-0.2,71.7L14.6,71.9l1.2-4.9l1.7-5.1l2-4.6l2.5-4.9l3-4.7l2.1-3.2l2.7-3.2
		l2.7-3.2l3.9-3.9l6.1-4.9l4.6-3.1l3.3-1.8l6.7-3.3l3.9-1.6l5-1.4l4.6-0.9l10.2-1.5L84.7,15.6L84.7,15.6z"/>
	<path class="st40" d="M84.7,15.6c0.4,1.2-0.2,71.7-0.2,71.7L14.6,71.9l1.2-4.9l1.7-5.1l2-4.6l2.5-4.9l3-4.7l2.1-3.2l2.7-3.2
		l2.7-3.2l3.9-3.9l6.1-4.9l4.6-3.1l3.3-1.8l6.7-3.3l3.9-1.6l5-1.4l4.6-0.9l10.2-1.5L84.7,15.6L84.7,15.6z"/>
	<path class="st0" d="M75.9,2.8v73.6l-71-16.1C4.9,60.2,16.1,5.9,75.9,2.8"/>
	<path class="st41" d="M75.9,2.8v73.6l-71-16.1C4.9,60.2,16.1,5.9,75.9,2.8z"/>
</g>
<text transform="matrix(1 0 0 1 36.5416 41.3841)" class="st42 st43">22 %</text>
<rect x="92.4" y="97.2" class="st0" width="29.1" height="29.1"/>
<rect x="92.4" y="97.2" class="st44" width="29.1" height="29.1"/>
<text transform="matrix(1 0 0 1 97.2623 113.7293)" class="st42 st43">78 %</text>
<text transform="matrix(1 0 0 1 373.5986 377.8975)" class="st42 st43">-</text>
<text transform="matrix(1 0 0 1 373.5327 389.8975)" class="st42 st43">-</text>
<text transform="matrix(1 0 0 1 373.478 425.8975)" class="st42 st43">-</text>
<text transform="matrix(1 0 0 1 373.5327 437.8975)" class="st42 st43">-</text>
<text transform="matrix(1 0 0 1 472.0918 275.8975)" class="st46 st43" style="fill:#0000DD;"> </text>
<text transform="matrix(1 0 0 1 472.7998 317.8975)" class="st46 st43" style="fill:#0000DD;"> </text>
<text transform="matrix(1 0 0 1 472.7998 365.8975)" class="st46 st43" style="fill:#0000DD;"> </text>
<text transform="matrix(1 0 0 1 467.6318 377.8975)" class="st46 st43"> </text>
<text transform="matrix(1 0 0 1 73.4078 -27.1735)" class="st46 st43" style="letter-spacing:1;"> </text>
<text transform="matrix(1 0 0 1 76.8078 -27.1735)" class="st46 st43"> </text>
<text transform="matrix(1 0 0 1 74.776 -15.1735)" class="st46 st43"> </text>
<text transform="matrix(1 0 0 1 76.776 -15.1735)" class="st46 st43"> </text>
<g>
	<text transform="matrix(1 0 0 1 187.3853 70.4246)" class="st46 st43">Haup</text>
	<text transform="matrix(1 0 0 1 206.1853 70.4246)" class="st46 st43">t</text>
	<text transform="matrix(1 0 0 1 209.0853 70.4246)" class="st46 st43">amtlich </text>
	<text transform="matrix(1 0 0 1 237.5853 70.4246)" class="st46 st43">t</text>
	<text transform="matrix(1 0 0 1 240.4853 70.4246)" class="st46 st43">ätig:</text>
	<text transform="matrix(1 0 0 1 295.3853 70.4246)" class="st46 st43">40</text>
	<text transform="matrix(1 0 0 1 187.3853 82.4247)" class="st46 st43">Ehrenamtlich </text>
	<text transform="matrix(1 0 0 1 237.0853 82.4247)" class="st46 st43">t</text>
	<text transform="matrix(1 0 0 1 239.9853 82.4247)" class="st46 st43">ätig: </text>
	<text transform="matrix(1 0 0 1 295.3853 82.4247)" class="st46 st43">11</text>
</g>
<g>
	<text transform="matrix(1 0 0 1 187.3857 100.0242)" class="st46 st47">n=</text>
	<text transform="matrix(1 0 0 1 196.1308 100.0242)" class="st46 st47"> </text>
	<text transform="matrix(1 0 0 1 197.8437 100.0242)" class="st46 st47">51</text>
	<text transform="matrix(1 0 0 1 205.0556 100.0242)" class="st46 st47"> </text>
</g>
</svg>
