<?xml version="1.0" encoding="utf-8"?>
<!-- Generator: Adobe Illustrator 21.0.0, SVG Export Plug-In . SVG Version: 6.00 Build 0)  -->
<svg version="1.1" id="Layer_1" xmlns="http://www.w3.org/2000/svg" xmlns:xlink="http://www.w3.org/1999/xlink" x="0px" y="0px"
	 viewBox="0 0 330 165" style="enable-background:new 0 0 330 165;" xml:space="preserve">
<style type="text/css">
	.st0{fill:#FFFFFF;}
	.st1{clip-path:url(#SVGID_2_);fill:none;stroke:#0000FF;stroke-width:0.994;}
	.st2{clip-path:url(#SVGID_4_);fill:none;stroke:#0000FF;stroke-width:0.994;}
	.st3{clip-path:url(#SVGID_6_);fill:none;stroke:#0000FF;stroke-width:0.994;}
	.st4{clip-path:url(#SVGID_8_);fill:none;stroke:#0000FF;stroke-width:0.994;}
	.st5{clip-path:url(#SVGID_10_);fill:none;stroke:#0000FF;stroke-width:0.994;}
	.st6{clip-path:url(#SVGID_12_);fill:none;stroke:#0000FF;stroke-width:0.994;}
	.st7{clip-path:url(#SVGID_14_);fill:none;stroke:#0000FF;stroke-width:0.994;}
	.st8{clip-path:url(#SVGID_16_);fill:none;stroke:#0000FF;stroke-width:0.994;}
	.st9{clip-path:url(#SVGID_18_);fill:none;stroke:#0000FF;stroke-width:0.994;}
	.st10{clip-path:url(#SVGID_20_);fill:none;stroke:#0000FF;stroke-width:0.994;}
	.st11{clip-path:url(#SVGID_22_);fill:none;stroke:#0000FF;stroke-width:0.994;}
	.st12{clip-path:url(#SVGID_24_);fill:none;stroke:#0000FF;stroke-width:0.994;}
	.st13{clip-path:url(#SVGID_26_);fill:none;stroke:#0000FF;stroke-width:0.994;}
	.st14{clip-path:url(#SVGID_28_);fill:none;stroke:#0000FF;stroke-width:0.994;}
	.st15{clip-path:url(#SVGID_30_);fill:none;stroke:#0000FF;stroke-width:0.994;}
	.st16{clip-path:url(#SVGID_32_);fill:none;stroke:#0000FF;stroke-width:0.994;}
	.st17{clip-path:url(#SVGID_34_);fill:none;stroke:#0000FF;stroke-width:0.994;}
	.st18{clip-path:url(#SVGID_36_);fill:none;stroke:#0000FF;stroke-width:0.994;}
	.st19{clip-path:url(#SVGID_38_);fill:none;stroke:#0000FF;stroke-width:0.994;}
	.st20{clip-path:url(#SVGID_40_);fill:none;stroke:#0000FF;stroke-width:0.994;}
	.st21{clip-path:url(#SVGID_42_);fill:none;stroke:#0000FF;stroke-width:0.994;}
	.st22{clip-path:url(#SVGID_44_);fill:none;stroke:#0000FF;stroke-width:0.994;}
	.st23{clip-path:url(#SVGID_46_);fill:none;stroke:#0000FF;stroke-width:0.994;}
	.st24{clip-path:url(#SVGID_48_);fill:none;stroke:#0000FF;stroke-width:0.994;}
	.st25{clip-path:url(#SVGID_50_);fill:none;stroke:#0000FF;stroke-width:0.994;}
	.st26{clip-path:url(#SVGID_52_);fill:none;stroke:#0000FF;stroke-width:0.994;}
	.st27{clip-path:url(#SVGID_54_);fill:none;stroke:#0000FF;stroke-width:0.994;}
	.st28{clip-path:url(#SVGID_56_);fill:none;stroke:#0000FF;stroke-width:0.994;}
	.st29{clip-path:url(#SVGID_58_);fill:none;stroke:#0000FF;stroke-width:0.994;}
	.st30{clip-path:url(#SVGID_60_);fill:none;stroke:#0000FF;stroke-width:0.994;}
	.st31{clip-path:url(#SVGID_62_);fill:none;stroke:#0000FF;stroke-width:0.994;}
	.st32{clip-path:url(#SVGID_64_);fill:none;stroke:#0000FF;stroke-width:0.994;}
	.st33{clip-path:url(#SVGID_66_);fill:none;stroke:#0000FF;stroke-width:0.994;}
	.st34{clip-path:url(#SVGID_68_);fill:none;stroke:#0000FF;stroke-width:0.994;}
	.st35{clip-path:url(#SVGID_70_);fill:none;stroke:#0000FF;stroke-width:0.994;}
	.st36{clip-path:url(#SVGID_72_);fill:none;stroke:#0000FF;stroke-width:0.994;}
	.st37{clip-path:url(#SVGID_74_);fill:none;stroke:#0000FF;stroke-width:0.994;}
	.st38{fill:none;stroke:#0000FF;}
	.st39{fill:#0000FF;}
	.st40{fill:none;stroke:#0000FF;stroke-width:0.5;}
	.st41{fill:none;stroke:#000000;stroke-width:0.5;}
	.st42{enable-background:new    ;}
	.st43{fill:none;stroke:#000000;stroke-width:0.745;}
</style>
<g>
	<path class="st0" d="M83.9,158c39.4,0,71.4-32,71.4-71.4s-32-71.4-71.4-71.4s-71.4,32-71.4,71.4S44.6,158,83.9,158"/>
</g>
<g>
	<g>
		<g>
			<defs>
				<path id="SVGID_1_" d="M13.1,86.6c0,39.1,31.7,70.9,70.9,70.9c39.1,0,70.9-31.7,70.9-70.9c0-39.1-31.7-70.9-70.9-70.9
					C44.8,15.8,13.1,47.5,13.1,86.6"/>
			</defs>
			<clipPath id="SVGID_2_">
				<use xlink:href="#SVGID_1_"  style="overflow:visible;"/>
			</clipPath>
			<line class="st1" x1="-27.4" y1="116.4" x2="201.7" y2="247.5"/>
		</g>
	</g>
	<g>
		<g>
			<defs>
				<path id="SVGID_3_" d="M13.1,86.6c0,39.1,31.7,70.9,70.9,70.9c39.1,0,70.9-31.7,70.9-70.9c0-39.1-31.7-70.9-70.9-70.9
					C44.8,15.8,13.1,47.5,13.1,86.6"/>
			</defs>
			<clipPath id="SVGID_4_">
				<use xlink:href="#SVGID_3_"  style="overflow:visible;"/>
			</clipPath>
			<line class="st2" x1="-36.9" y1="105.4" x2="192.1" y2="236.5"/>
		</g>
	</g>
	<g>
		<g>
			<defs>
				<path id="SVGID_5_" d="M13.1,86.6c0,39.1,31.7,70.9,70.9,70.9c39.1,0,70.9-31.7,70.9-70.9c0-39.1-31.7-70.9-70.9-70.9
					C44.8,15.8,13.1,47.5,13.1,86.6"/>
			</defs>
			<clipPath id="SVGID_6_">
				<use xlink:href="#SVGID_5_"  style="overflow:visible;"/>
			</clipPath>
			<line class="st3" x1="-27.4" y1="105.4" x2="201.7" y2="236.5"/>
		</g>
	</g>
	<g>
		<g>
			<defs>
				<path id="SVGID_7_" d="M13.1,86.6c0,39.1,31.7,70.9,70.9,70.9c39.1,0,70.9-31.7,70.9-70.9c0-39.1-31.7-70.9-70.9-70.9
					C44.8,15.8,13.1,47.5,13.1,86.6"/>
			</defs>
			<clipPath id="SVGID_8_">
				<use xlink:href="#SVGID_7_"  style="overflow:visible;"/>
			</clipPath>
			<line class="st4" x1="-36.9" y1="94.4" x2="192.1" y2="225.5"/>
		</g>
	</g>
	<g>
		<g>
			<defs>
				<path id="SVGID_9_" d="M13.1,86.6c0,39.1,31.7,70.9,70.9,70.9c39.1,0,70.9-31.7,70.9-70.9c0-39.1-31.7-70.9-70.9-70.9
					C44.8,15.8,13.1,47.5,13.1,86.6"/>
			</defs>
			<clipPath id="SVGID_10_">
				<use xlink:href="#SVGID_9_"  style="overflow:visible;"/>
			</clipPath>
			<line class="st5" x1="-27.4" y1="94.4" x2="201.7" y2="225.5"/>
		</g>
	</g>
	<g>
		<g>
			<defs>
				<path id="SVGID_11_" d="M13.1,86.6c0,39.1,31.7,70.9,70.9,70.9c39.1,0,70.9-31.7,70.9-70.9c0-39.1-31.7-70.9-70.9-70.9
					C44.8,15.8,13.1,47.5,13.1,86.6"/>
			</defs>
			<clipPath id="SVGID_12_">
				<use xlink:href="#SVGID_11_"  style="overflow:visible;"/>
			</clipPath>
			<line class="st6" x1="-36.9" y1="83.4" x2="192.1" y2="214.5"/>
		</g>
	</g>
	<g>
		<g>
			<defs>
				<path id="SVGID_13_" d="M13.1,86.6c0,39.1,31.7,70.9,70.9,70.9c39.1,0,70.9-31.7,70.9-70.9c0-39.1-31.7-70.9-70.9-70.9
					C44.8,15.8,13.1,47.5,13.1,86.6"/>
			</defs>
			<clipPath id="SVGID_14_">
				<use xlink:href="#SVGID_13_"  style="overflow:visible;"/>
			</clipPath>
			<line class="st7" x1="-27.4" y1="83.4" x2="201.7" y2="214.5"/>
		</g>
	</g>
	<g>
		<g>
			<defs>
				<path id="SVGID_15_" d="M13.1,86.6c0,39.1,31.7,70.9,70.9,70.9c39.1,0,70.9-31.7,70.9-70.9c0-39.1-31.7-70.9-70.9-70.9
					C44.8,15.8,13.1,47.5,13.1,86.6"/>
			</defs>
			<clipPath id="SVGID_16_">
				<use xlink:href="#SVGID_15_"  style="overflow:visible;"/>
			</clipPath>
			<line class="st8" x1="-36.9" y1="72.4" x2="192.1" y2="203.5"/>
		</g>
	</g>
	<g>
		<g>
			<defs>
				<path id="SVGID_17_" d="M13.1,86.6c0,39.1,31.7,70.9,70.9,70.9c39.1,0,70.9-31.7,70.9-70.9c0-39.1-31.7-70.9-70.9-70.9
					C44.8,15.8,13.1,47.5,13.1,86.6"/>
			</defs>
			<clipPath id="SVGID_18_">
				<use xlink:href="#SVGID_17_"  style="overflow:visible;"/>
			</clipPath>
			<line class="st9" x1="-27.4" y1="72.4" x2="201.7" y2="203.5"/>
		</g>
	</g>
	<g>
		<g>
			<defs>
				<path id="SVGID_19_" d="M13.1,86.6c0,39.1,31.7,70.9,70.9,70.9c39.1,0,70.9-31.7,70.9-70.9c0-39.1-31.7-70.9-70.9-70.9
					C44.8,15.8,13.1,47.5,13.1,86.6"/>
			</defs>
			<clipPath id="SVGID_20_">
				<use xlink:href="#SVGID_19_"  style="overflow:visible;"/>
			</clipPath>
			<line class="st10" x1="-36.9" y1="61.4" x2="192.1" y2="192.5"/>
		</g>
	</g>
	<g>
		<g>
			<defs>
				<path id="SVGID_21_" d="M13.1,86.6c0,39.1,31.7,70.9,70.9,70.9c39.1,0,70.9-31.7,70.9-70.9c0-39.1-31.7-70.9-70.9-70.9
					C44.8,15.8,13.1,47.5,13.1,86.6"/>
			</defs>
			<clipPath id="SVGID_22_">
				<use xlink:href="#SVGID_21_"  style="overflow:visible;"/>
			</clipPath>
			<line class="st11" x1="-27.4" y1="61.4" x2="201.7" y2="192.5"/>
		</g>
	</g>
	<g>
		<g>
			<defs>
				<path id="SVGID_23_" d="M13.1,86.6c0,39.1,31.7,70.9,70.9,70.9c39.1,0,70.9-31.7,70.9-70.9c0-39.1-31.7-70.9-70.9-70.9
					C44.8,15.8,13.1,47.5,13.1,86.6"/>
			</defs>
			<clipPath id="SVGID_24_">
				<use xlink:href="#SVGID_23_"  style="overflow:visible;"/>
			</clipPath>
			<line class="st12" x1="-36.9" y1="50.4" x2="192.1" y2="181.5"/>
		</g>
	</g>
	<g>
		<g>
			<defs>
				<path id="SVGID_25_" d="M13.1,86.6c0,39.1,31.7,70.9,70.9,70.9c39.1,0,70.9-31.7,70.9-70.9c0-39.1-31.7-70.9-70.9-70.9
					C44.8,15.8,13.1,47.5,13.1,86.6"/>
			</defs>
			<clipPath id="SVGID_26_">
				<use xlink:href="#SVGID_25_"  style="overflow:visible;"/>
			</clipPath>
			<line class="st13" x1="-27.4" y1="50.4" x2="201.7" y2="181.5"/>
		</g>
	</g>
	<g>
		<g>
			<defs>
				<path id="SVGID_27_" d="M13.1,86.6c0,39.1,31.7,70.9,70.9,70.9c39.1,0,70.9-31.7,70.9-70.9c0-39.1-31.7-70.9-70.9-70.9
					C44.8,15.8,13.1,47.5,13.1,86.6"/>
			</defs>
			<clipPath id="SVGID_28_">
				<use xlink:href="#SVGID_27_"  style="overflow:visible;"/>
			</clipPath>
			<line class="st14" x1="-36.9" y1="39.4" x2="192.1" y2="170.5"/>
		</g>
	</g>
	<g>
		<g>
			<defs>
				<path id="SVGID_29_" d="M13.1,86.6c0,39.1,31.7,70.9,70.9,70.9c39.1,0,70.9-31.7,70.9-70.9c0-39.1-31.7-70.9-70.9-70.9
					C44.8,15.8,13.1,47.5,13.1,86.6"/>
			</defs>
			<clipPath id="SVGID_30_">
				<use xlink:href="#SVGID_29_"  style="overflow:visible;"/>
			</clipPath>
			<line class="st15" x1="-27.4" y1="39.4" x2="201.7" y2="170.5"/>
		</g>
	</g>
	<g>
		<g>
			<defs>
				<path id="SVGID_31_" d="M13.1,86.6c0,39.1,31.7,70.9,70.9,70.9c39.1,0,70.9-31.7,70.9-70.9c0-39.1-31.7-70.9-70.9-70.9
					C44.8,15.8,13.1,47.5,13.1,86.6"/>
			</defs>
			<clipPath id="SVGID_32_">
				<use xlink:href="#SVGID_31_"  style="overflow:visible;"/>
			</clipPath>
			<line class="st16" x1="-36.9" y1="28.4" x2="192.1" y2="159.6"/>
		</g>
	</g>
	<g>
		<g>
			<defs>
				<path id="SVGID_33_" d="M13.1,86.6c0,39.1,31.7,70.9,70.9,70.9c39.1,0,70.9-31.7,70.9-70.9c0-39.1-31.7-70.9-70.9-70.9
					C44.8,15.8,13.1,47.5,13.1,86.6"/>
			</defs>
			<clipPath id="SVGID_34_">
				<use xlink:href="#SVGID_33_"  style="overflow:visible;"/>
			</clipPath>
			<line class="st17" x1="-27.4" y1="28.4" x2="201.7" y2="159.6"/>
		</g>
	</g>
	<g>
		<g>
			<defs>
				<path id="SVGID_35_" d="M13.1,86.6c0,39.1,31.7,70.9,70.9,70.9c39.1,0,70.9-31.7,70.9-70.9c0-39.1-31.7-70.9-70.9-70.9
					C44.8,15.8,13.1,47.5,13.1,86.6"/>
			</defs>
			<clipPath id="SVGID_36_">
				<use xlink:href="#SVGID_35_"  style="overflow:visible;"/>
			</clipPath>
			<line class="st18" x1="-36.9" y1="17.4" x2="192.1" y2="148.6"/>
		</g>
	</g>
	<g>
		<g>
			<defs>
				<path id="SVGID_37_" d="M13.1,86.6c0,39.1,31.7,70.9,70.9,70.9c39.1,0,70.9-31.7,70.9-70.9c0-39.1-31.7-70.9-70.9-70.9
					C44.8,15.8,13.1,47.5,13.1,86.6"/>
			</defs>
			<clipPath id="SVGID_38_">
				<use xlink:href="#SVGID_37_"  style="overflow:visible;"/>
			</clipPath>
			<line class="st19" x1="-27.4" y1="17.4" x2="201.7" y2="148.6"/>
		</g>
	</g>
	<g>
		<g>
			<defs>
				<path id="SVGID_39_" d="M13.1,86.6c0,39.1,31.7,70.9,70.9,70.9c39.1,0,70.9-31.7,70.9-70.9c0-39.1-31.7-70.9-70.9-70.9
					C44.8,15.8,13.1,47.5,13.1,86.6"/>
			</defs>
			<clipPath id="SVGID_40_">
				<use xlink:href="#SVGID_39_"  style="overflow:visible;"/>
			</clipPath>
			<line class="st20" x1="-36.9" y1="6.4" x2="192.1" y2="137.6"/>
		</g>
	</g>
	<g>
		<g>
			<defs>
				<path id="SVGID_41_" d="M13.1,86.6c0,39.1,31.7,70.9,70.9,70.9c39.1,0,70.9-31.7,70.9-70.9c0-39.1-31.7-70.9-70.9-70.9
					C44.8,15.8,13.1,47.5,13.1,86.6"/>
			</defs>
			<clipPath id="SVGID_42_">
				<use xlink:href="#SVGID_41_"  style="overflow:visible;"/>
			</clipPath>
			<line class="st21" x1="-27.4" y1="6.4" x2="201.7" y2="137.6"/>
		</g>
	</g>
	<g>
		<g>
			<defs>
				<path id="SVGID_43_" d="M13.1,86.6c0,39.1,31.7,70.9,70.9,70.9c39.1,0,70.9-31.7,70.9-70.9c0-39.1-31.7-70.9-70.9-70.9
					C44.8,15.8,13.1,47.5,13.1,86.6"/>
			</defs>
			<clipPath id="SVGID_44_">
				<use xlink:href="#SVGID_43_"  style="overflow:visible;"/>
			</clipPath>
			<line class="st22" x1="-36.9" y1="-4.5" x2="192.1" y2="126.6"/>
		</g>
	</g>
	<g>
		<g>
			<defs>
				<path id="SVGID_45_" d="M13.1,86.6c0,39.1,31.7,70.9,70.9,70.9c39.1,0,70.9-31.7,70.9-70.9c0-39.1-31.7-70.9-70.9-70.9
					C44.8,15.8,13.1,47.5,13.1,86.6"/>
			</defs>
			<clipPath id="SVGID_46_">
				<use xlink:href="#SVGID_45_"  style="overflow:visible;"/>
			</clipPath>
			<line class="st23" x1="-27.4" y1="-4.5" x2="201.7" y2="126.6"/>
		</g>
	</g>
	<g>
		<g>
			<defs>
				<path id="SVGID_47_" d="M13.1,86.6c0,39.1,31.7,70.9,70.9,70.9c39.1,0,70.9-31.7,70.9-70.9c0-39.1-31.7-70.9-70.9-70.9
					C44.8,15.8,13.1,47.5,13.1,86.6"/>
			</defs>
			<clipPath id="SVGID_48_">
				<use xlink:href="#SVGID_47_"  style="overflow:visible;"/>
			</clipPath>
			<line class="st24" x1="-36.9" y1="-15.5" x2="192.1" y2="115.6"/>
		</g>
	</g>
	<g>
		<g>
			<defs>
				<path id="SVGID_49_" d="M13.1,86.6c0,39.1,31.7,70.9,70.9,70.9c39.1,0,70.9-31.7,70.9-70.9c0-39.1-31.7-70.9-70.9-70.9
					C44.8,15.8,13.1,47.5,13.1,86.6"/>
			</defs>
			<clipPath id="SVGID_50_">
				<use xlink:href="#SVGID_49_"  style="overflow:visible;"/>
			</clipPath>
			<line class="st25" x1="-27.4" y1="-15.5" x2="201.7" y2="115.6"/>
		</g>
	</g>
	<g>
		<g>
			<defs>
				<path id="SVGID_51_" d="M13.1,86.6c0,39.1,31.7,70.9,70.9,70.9c39.1,0,70.9-31.7,70.9-70.9c0-39.1-31.7-70.9-70.9-70.9
					C44.8,15.8,13.1,47.5,13.1,86.6"/>
			</defs>
			<clipPath id="SVGID_52_">
				<use xlink:href="#SVGID_51_"  style="overflow:visible;"/>
			</clipPath>
			<line class="st26" x1="-36.9" y1="-26.5" x2="192.1" y2="104.6"/>
		</g>
	</g>
	<g>
		<g>
			<defs>
				<path id="SVGID_53_" d="M13.1,86.6c0,39.1,31.7,70.9,70.9,70.9c39.1,0,70.9-31.7,70.9-70.9c0-39.1-31.7-70.9-70.9-70.9
					C44.8,15.8,13.1,47.5,13.1,86.6"/>
			</defs>
			<clipPath id="SVGID_54_">
				<use xlink:href="#SVGID_53_"  style="overflow:visible;"/>
			</clipPath>
			<line class="st27" x1="-27.4" y1="-26.5" x2="201.7" y2="104.6"/>
		</g>
	</g>
	<g>
		<g>
			<defs>
				<path id="SVGID_55_" d="M13.1,86.6c0,39.1,31.7,70.9,70.9,70.9c39.1,0,70.9-31.7,70.9-70.9c0-39.1-31.7-70.9-70.9-70.9
					C44.8,15.8,13.1,47.5,13.1,86.6"/>
			</defs>
			<clipPath id="SVGID_56_">
				<use xlink:href="#SVGID_55_"  style="overflow:visible;"/>
			</clipPath>
			<line class="st28" x1="-36.9" y1="-37.5" x2="192.1" y2="93.6"/>
		</g>
	</g>
	<g>
		<g>
			<defs>
				<path id="SVGID_57_" d="M13.1,86.6c0,39.1,31.7,70.9,70.9,70.9c39.1,0,70.9-31.7,70.9-70.9c0-39.1-31.7-70.9-70.9-70.9
					C44.8,15.8,13.1,47.5,13.1,86.6"/>
			</defs>
			<clipPath id="SVGID_58_">
				<use xlink:href="#SVGID_57_"  style="overflow:visible;"/>
			</clipPath>
			<line class="st29" x1="-27.4" y1="-37.5" x2="201.7" y2="93.6"/>
		</g>
	</g>
	<g>
		<g>
			<defs>
				<path id="SVGID_59_" d="M13.1,86.6c0,39.1,31.7,70.9,70.9,70.9c39.1,0,70.9-31.7,70.9-70.9c0-39.1-31.7-70.9-70.9-70.9
					C44.8,15.8,13.1,47.5,13.1,86.6"/>
			</defs>
			<clipPath id="SVGID_60_">
				<use xlink:href="#SVGID_59_"  style="overflow:visible;"/>
			</clipPath>
			<line class="st30" x1="-36.9" y1="-48.5" x2="192.1" y2="82.6"/>
		</g>
	</g>
	<g>
		<g>
			<defs>
				<path id="SVGID_61_" d="M13.1,86.6c0,39.1,31.7,70.9,70.9,70.9c39.1,0,70.9-31.7,70.9-70.9c0-39.1-31.7-70.9-70.9-70.9
					C44.8,15.8,13.1,47.5,13.1,86.6"/>
			</defs>
			<clipPath id="SVGID_62_">
				<use xlink:href="#SVGID_61_"  style="overflow:visible;"/>
			</clipPath>
			<line class="st31" x1="-27.4" y1="-48.5" x2="201.7" y2="82.6"/>
		</g>
	</g>
	<g>
		<g>
			<defs>
				<path id="SVGID_63_" d="M13.1,86.6c0,39.1,31.7,70.9,70.9,70.9c39.1,0,70.9-31.7,70.9-70.9c0-39.1-31.7-70.9-70.9-70.9
					C44.8,15.8,13.1,47.5,13.1,86.6"/>
			</defs>
			<clipPath id="SVGID_64_">
				<use xlink:href="#SVGID_63_"  style="overflow:visible;"/>
			</clipPath>
			<line class="st32" x1="-36.9" y1="-59.5" x2="192.1" y2="71.6"/>
		</g>
	</g>
	<g>
		<g>
			<defs>
				<path id="SVGID_65_" d="M13.1,86.6c0,39.1,31.7,70.9,70.9,70.9c39.1,0,70.9-31.7,70.9-70.9c0-39.1-31.7-70.9-70.9-70.9
					C44.8,15.8,13.1,47.5,13.1,86.6"/>
			</defs>
			<clipPath id="SVGID_66_">
				<use xlink:href="#SVGID_65_"  style="overflow:visible;"/>
			</clipPath>
			<line class="st33" x1="-27.4" y1="-59.5" x2="201.7" y2="71.6"/>
		</g>
	</g>
	<g>
		<g>
			<defs>
				<path id="SVGID_67_" d="M13.1,86.6c0,39.1,31.7,70.9,70.9,70.9c39.1,0,70.9-31.7,70.9-70.9c0-39.1-31.7-70.9-70.9-70.9
					C44.8,15.8,13.1,47.5,13.1,86.6"/>
			</defs>
			<clipPath id="SVGID_68_">
				<use xlink:href="#SVGID_67_"  style="overflow:visible;"/>
			</clipPath>
			<line class="st34" x1="-36.9" y1="-70.5" x2="192.1" y2="60.6"/>
		</g>
	</g>
	<g>
		<g>
			<defs>
				<path id="SVGID_69_" d="M13.1,86.6c0,39.1,31.7,70.9,70.9,70.9c39.1,0,70.9-31.7,70.9-70.9c0-39.1-31.7-70.9-70.9-70.9
					C44.8,15.8,13.1,47.5,13.1,86.6"/>
			</defs>
			<clipPath id="SVGID_70_">
				<use xlink:href="#SVGID_69_"  style="overflow:visible;"/>
			</clipPath>
			<line class="st35" x1="-27.4" y1="-70.5" x2="201.7" y2="60.6"/>
		</g>
	</g>
	<g>
		<g>
			<defs>
				<path id="SVGID_71_" d="M13.1,86.6c0,39.1,31.7,70.9,70.9,70.9c39.1,0,70.9-31.7,70.9-70.9c0-39.1-31.7-70.9-70.9-70.9
					C44.8,15.8,13.1,47.5,13.1,86.6"/>
			</defs>
			<clipPath id="SVGID_72_">
				<use xlink:href="#SVGID_71_"  style="overflow:visible;"/>
			</clipPath>
			<line class="st36" x1="-36.9" y1="-81.5" x2="192.1" y2="49.6"/>
		</g>
	</g>
	<g>
		<g>
			<defs>
				<path id="SVGID_73_" d="M13.1,86.6c0,39.1,31.7,70.9,70.9,70.9c39.1,0,70.9-31.7,70.9-70.9c0-39.1-31.7-70.9-70.9-70.9
					C44.8,15.8,13.1,47.5,13.1,86.6"/>
			</defs>
			<clipPath id="SVGID_74_">
				<use xlink:href="#SVGID_73_"  style="overflow:visible;"/>
			</clipPath>
			<line class="st37" x1="-27.4" y1="-81.5" x2="201.7" y2="49.6"/>
		</g>
	</g>
</g>
<g>
	<path class="st38" d="M83.9,158c39.4,0,71.4-32,71.4-71.4s-32-71.4-71.4-71.4s-71.4,32-71.4,71.4S44.6,158,83.9,158z"/>
	<path class="st39" d="M84.7,15.6c0.4,1.2-0.2,71.7-0.2,71.7L14.6,71.9l1.2-4.9l1.7-5.1l2-4.6l2.5-4.9l3-4.7l2.1-3.2l2.7-3.2
		l2.7-3.2l3.9-3.9l6.1-4.9l4.6-3.1l3.3-1.8l6.7-3.3l3.9-1.6l5-1.4l4.6-0.9l10.2-1.5L84.7,15.6L84.7,15.6z"/>
	<path class="st40" d="M84.7,15.6c0.4,1.2-0.2,71.7-0.2,71.7L14.6,71.9l1.2-4.9l1.7-5.1l2-4.6l2.5-4.9l3-4.7l2.1-3.2l2.7-3.2
		l2.7-3.2l3.9-3.9l6.1-4.9l4.6-3.1l3.3-1.8l6.7-3.3l3.9-1.6l5-1.4l4.6-0.9l10.2-1.5L84.7,15.6L84.7,15.6z"/>
	<path class="st0" d="M75.9,2.8v73.6l-71-16.1C4.9,60.2,16.1,5.9,75.9,2.8"/>
	<path class="st41" d="M75.9,2.8v73.6l-71-16.1C4.9,60.2,16.1,5.9,75.9,2.8z"/>
</g>
<g class="st42">
	<path d="M39.1,38.4c0.5-0.2,0.9-0.6,0.9-1.1c0-0.5-0.4-0.8-1-0.8c-0.6,0-1,0.3-1.1,0.7l-0.8-0.3c0.3-0.7,1-1.2,1.9-1.2
		c1.1,0,1.8,0.7,1.8,1.7c0,1-0.6,1.4-1.4,1.8c-0.7,0.4-1.2,0.8-1.4,1.4h2.8v0.8h-3.9C37.1,39.8,38,39,39.1,38.4z"/>
	<path d="M44,38.4c0.5-0.2,0.9-0.6,0.9-1.1c0-0.5-0.4-0.8-1-0.8c-0.6,0-1,0.3-1.1,0.7l-0.8-0.3c0.3-0.7,1-1.2,1.9-1.2
		c1.1,0,1.8,0.7,1.8,1.7c0,1-0.6,1.4-1.4,1.8c-0.7,0.4-1.2,0.8-1.4,1.4h2.8v0.8H42C42,39.8,42.9,39,44,38.4z"/>
	<path d="M48.6,37.1c0-0.6,0.3-1.4,1.3-1.4c1,0,1.3,0.8,1.3,1.4c0,0.6-0.3,1.4-1.3,1.4C48.9,38.5,48.6,37.8,48.6,37.1z M50.5,37.1
		c0-0.5-0.2-0.8-0.6-0.8c-0.4,0-0.6,0.4-0.6,0.8c0,0.5,0.2,0.8,0.6,0.8C50.3,37.9,50.5,37.5,50.5,37.1z M49.3,41.5l3.8-5.8h0.8
		l-3.8,5.8H49.3z M52,40.1c0-0.6,0.3-1.4,1.3-1.4c1,0,1.3,0.8,1.3,1.4c0,0.6-0.3,1.4-1.3,1.4C52.4,41.5,52,40.7,52,40.1z M54,40.1
		c0-0.5-0.2-0.8-0.6-0.8c-0.4,0-0.6,0.4-0.6,0.8c0,0.5,0.2,0.8,0.6,0.8C53.8,40.8,54,40.5,54,40.1z"/>
</g>
<rect x="92.4" y="97.2" class="st0" width="29.1" height="29.1"/>
<rect x="92.4" y="97.2" class="st43" width="29.1" height="29.1"/>
<g class="st42">
	<path d="M100.3,108.9h-2.9v-0.8h3.8v0.9c-1.3,1.5-1.7,3.5-1.7,4.7h-0.9C98.7,111.8,99.3,110.4,100.3,108.9z"/>
	<path d="M102.1,112.1c0-0.7,0.4-1.2,0.9-1.4c-0.4-0.2-0.7-0.6-0.7-1.2c0-0.8,0.7-1.5,1.7-1.5s1.7,0.6,1.7,1.5
		c0,0.5-0.3,0.9-0.7,1.2c0.6,0.3,0.9,0.7,0.9,1.4c0,1-0.8,1.7-1.9,1.7C102.8,113.8,102.1,113.1,102.1,112.1z M105.1,112.1
		c0-0.5-0.5-1-1.1-1c-0.6,0-1.1,0.4-1.1,1c0,0.6,0.4,1,1.1,1C104.6,113,105.1,112.6,105.1,112.1z M104.8,109.5
		c0-0.4-0.4-0.7-0.9-0.7c-0.5,0-0.8,0.3-0.8,0.7c0,0.4,0.3,0.7,0.8,0.7C104.5,110.3,104.8,109.9,104.8,109.5z"/>
	<path d="M108.6,109.5c0-0.6,0.3-1.4,1.3-1.4c1,0,1.3,0.8,1.3,1.4c0,0.6-0.3,1.4-1.3,1.4C109,110.9,108.6,110.1,108.6,109.5z
		 M110.6,109.5c0-0.5-0.2-0.8-0.6-0.8c-0.4,0-0.6,0.4-0.6,0.8c0,0.5,0.2,0.8,0.6,0.8C110.4,110.2,110.6,109.9,110.6,109.5z
		 M109.4,113.8l3.8-5.8h0.8l-3.8,5.8H109.4z M112.1,112.4c0-0.6,0.3-1.4,1.3-1.4c1,0,1.3,0.8,1.3,1.4c0,0.6-0.3,1.4-1.3,1.4
		C112.5,113.8,112.1,113.1,112.1,112.4z M114.1,112.4c0-0.5-0.2-0.8-0.6-0.8c-0.4,0-0.6,0.4-0.6,0.8c0,0.5,0.2,0.8,0.6,0.8
		C113.9,113.2,114.1,112.8,114.1,112.4z"/>
</g>
<text transform="matrix(1 0 0 1 373.5986 377.8975)" style="font-family:'Overpass-SemiBold'; font-size:8px;">-</text>
<text transform="matrix(1 0 0 1 373.5327 389.8975)" style="font-family:'Overpass-SemiBold'; font-size:8px;">-</text>
<text transform="matrix(1 0 0 1 373.478 425.8975)" style="font-family:'Overpass-SemiBold'; font-size:8px;">-</text>
<text transform="matrix(1 0 0 1 373.5327 437.8975)" style="font-family:'Overpass-SemiBold'; font-size:8px;">-</text>
<text transform="matrix(1 0 0 1 472.0918 275.8975)" style="fill:#0000DD; font-family:'Overpass-Regular'; font-size:8px;"> </text>
<text transform="matrix(1 0 0 1 472.7998 317.8975)" style="fill:#0000DD; font-family:'Overpass-Regular'; font-size:8px;"> </text>
<text transform="matrix(1 0 0 1 472.7998 365.8975)" style="fill:#0000DD; font-family:'Overpass-Regular'; font-size:8px;"> </text>
<text transform="matrix(1 0 0 1 467.6318 377.8975)" style="font-family:'Overpass-Regular'; font-size:8px;"> </text>
<g>
	<g class="st42">
		<path d="M191.5,67.9h-2.6v2.6h-0.7v-5.6h0.7v2.4h2.6v-2.4h0.7v5.6h-0.7V67.9z"/>
		<path d="M196,70c-0.3,0.3-0.7,0.5-1.2,0.5c-0.8,0-1.4-0.5-1.4-1.4c0-0.9,0.7-1.4,1.5-1.4c0.4,0,0.7,0.1,1.1,0.3v-0.3
			c0-0.7-0.4-0.9-0.9-0.9c-0.5,0-0.9,0.2-1.2,0.4l-0.2-0.6c0.3-0.2,0.9-0.4,1.5-0.4c0.6,0,1.5,0.2,1.5,1.5v2.7H196V70z M196,69.4
			v-0.7c-0.2-0.2-0.6-0.3-1-0.3c-0.5,0-1,0.2-1,0.8c0,0.5,0.3,0.8,0.9,0.8C195.4,69.9,195.8,69.6,196,69.4z"/>
		<path d="M200.3,70c-0.3,0.4-0.6,0.5-1,0.5c-1,0-1.5-0.5-1.5-1.8v-2.4h0.7v2.5c0,0.8,0.4,1.1,0.9,1.1c0.5,0,0.9-0.3,0.9-1.1v-2.5
			h0.7v4.1h-0.7V70z"/>
		<path d="M203.1,70v1.7l-0.7,0.3v-5.7h0.7v0.3c0.2-0.2,0.5-0.4,1-0.4c1,0,1.7,0.8,1.7,2.1c0,1.4-0.7,2.1-1.7,2.1
			C203.6,70.5,203.3,70.3,203.1,70z M205.1,68.4c0-0.9-0.4-1.5-1.1-1.5c-0.4,0-0.8,0.2-1,0.6v1.9c0.2,0.3,0.5,0.6,1,0.6
			C204.7,69.9,205.1,69.3,205.1,68.4z"/>
	</g>
	<g class="st42">
		<path d="M207.1,69.5v-2.6h-0.7v-0.6h0.7V65l0.7-0.3v1.7h1v0.6h-1v2.4c0,0.3,0.1,0.6,0.4,0.6c0.2,0,0.4-0.1,0.6-0.2l-0.1,0.7
			c-0.2,0.1-0.5,0.2-0.8,0.2C207.3,70.5,207.1,70.1,207.1,69.5z"/>
	</g>
	<g class="st42">
		<path d="M212.1,70c-0.3,0.3-0.7,0.5-1.2,0.5c-0.8,0-1.4-0.5-1.4-1.4c0-0.9,0.7-1.4,1.5-1.4c0.4,0,0.7,0.1,1.1,0.3v-0.3
			c0-0.7-0.4-0.9-0.9-0.9c-0.5,0-0.9,0.2-1.2,0.4l-0.2-0.6c0.3-0.2,0.9-0.4,1.5-0.4c0.6,0,1.5,0.2,1.5,1.5v2.7h-0.7V70z M212.1,69.4
			v-0.7c-0.2-0.2-0.6-0.3-1-0.3c-0.5,0-1,0.2-1,0.8c0,0.5,0.3,0.8,0.9,0.8C211.5,69.9,211.9,69.6,212.1,69.4z"/>
		<path d="M218.7,67.9c0-0.6-0.2-1.1-0.8-1.1c-0.5,0-0.9,0.4-0.9,1.1v2.5h-0.7v-2.5c0-0.6-0.2-1.1-0.8-1.1c-0.5,0-0.9,0.4-0.9,1.1
			v2.5H214v-4.1h0.7v0.4c0.2-0.3,0.6-0.5,1.1-0.5c0.4,0,0.9,0.2,1.1,0.6c0.2-0.4,0.7-0.6,1.2-0.6c0.8,0,1.4,0.5,1.4,1.5v2.7h-0.7
			V67.9z"/>
		<path d="M221,69.5v-2.6h-0.7v-0.6h0.7V65l0.7-0.3v1.7h1v0.6h-1v2.4c0,0.3,0.1,0.6,0.4,0.6c0.2,0,0.4-0.1,0.6-0.2l-0.1,0.7
			c-0.2,0.1-0.5,0.2-0.8,0.2C221.2,70.5,221,70.1,221,69.5z"/>
		<path d="M223.8,65l0.7-0.3v5.8h-0.7V65z"/>
		<path d="M225.7,65.2c0-0.2,0.2-0.4,0.4-0.4c0.2,0,0.4,0.2,0.4,0.4c0,0.2-0.2,0.4-0.4,0.4C225.9,65.6,225.7,65.4,225.7,65.2z
			 M225.8,66.3h0.7v4.1h-0.7V66.3z"/>
		<path d="M227.6,68.4c0-1.3,0.7-2.1,1.7-2.1c0.7,0,1.2,0.3,1.4,1l-0.7,0.2c-0.1-0.3-0.4-0.5-0.8-0.5c-0.7,0-1,0.6-1,1.5
			c0,0.9,0.3,1.5,1,1.5c0.4,0,0.7-0.2,0.8-0.6l0.6,0.2c-0.2,0.7-0.7,1-1.5,1C228.3,70.5,227.6,69.7,227.6,68.4z"/>
		<path d="M231.8,65l0.7-0.3v2.1c0.3-0.4,0.6-0.5,1.1-0.5c0.9,0,1.5,0.5,1.5,1.8v2.4h-0.7V68c0-0.8-0.4-1.1-0.9-1.1
			c-0.5,0-0.9,0.3-0.9,1.1v2.5h-0.7V65z"/>
	</g>
	<g class="st42">
		<path d="M238.5,69.5v-2.6h-0.7v-0.6h0.7V65l0.7-0.3v1.7h1v0.6h-1v2.4c0,0.3,0.1,0.6,0.4,0.6c0.2,0,0.4-0.1,0.6-0.2l-0.1,0.7
			c-0.2,0.1-0.5,0.2-0.8,0.2C238.7,70.5,238.5,70.1,238.5,69.5z"/>
	</g>
	<g class="st42">
		<path d="M243.5,70c-0.3,0.3-0.7,0.5-1.2,0.5c-0.8,0-1.4-0.5-1.4-1.4c0-0.9,0.7-1.4,1.5-1.4c0.4,0,0.7,0.1,1.1,0.3v-0.3
			c0-0.7-0.4-0.9-0.9-0.9c-0.5,0-0.9,0.2-1.2,0.4l-0.2-0.6c0.3-0.2,0.9-0.4,1.5-0.4c0.6,0,1.5,0.2,1.5,1.5v2.7h-0.7V70z M241.6,65.2
			c0-0.2,0.2-0.4,0.4-0.4c0.2,0,0.4,0.2,0.4,0.4c0,0.2-0.2,0.4-0.4,0.4C241.8,65.6,241.6,65.4,241.6,65.2z M243.5,69.4v-0.7
			c-0.2-0.2-0.6-0.3-1-0.3c-0.5,0-1,0.2-1,0.8c0,0.5,0.3,0.8,0.9,0.8C242.9,69.9,243.3,69.6,243.5,69.4z M242.9,65.2
			c0-0.2,0.2-0.4,0.4-0.4c0.2,0,0.4,0.2,0.4,0.4c0,0.2-0.2,0.4-0.4,0.4C243.1,65.6,242.9,65.4,242.9,65.2z"/>
		<path d="M245.6,69.5v-2.6h-0.7v-0.6h0.7V65l0.7-0.3v1.7h1v0.6h-1v2.4c0,0.3,0.1,0.6,0.4,0.6c0.2,0,0.4-0.1,0.6-0.2l-0.1,0.7
			c-0.2,0.1-0.5,0.2-0.8,0.2C245.8,70.5,245.6,70.1,245.6,69.5z"/>
		<path d="M248.3,65.2c0-0.2,0.2-0.4,0.4-0.4c0.2,0,0.4,0.2,0.4,0.4c0,0.2-0.2,0.4-0.4,0.4C248.5,65.6,248.3,65.4,248.3,65.2z
			 M248.4,66.3h0.7v4.1h-0.7V66.3z"/>
		<path d="M251.3,71.5c1.3-0.1,1.6-0.5,1.6-1V70c-0.2,0.3-0.6,0.5-1.1,0.5c-0.9,0-1.7-0.7-1.7-2.1c0-1.3,0.7-2.1,1.7-2.1
			c0.6,0,0.9,0.3,1,0.4v-0.3h0.7v3.9c0,1.3-0.8,1.8-1.9,1.8L251.3,71.5z M252.9,69.3v-1.9c-0.2-0.3-0.6-0.5-0.9-0.5
			c-0.7,0-1.1,0.5-1.1,1.5c0,0.9,0.5,1.5,1.1,1.5C252.3,69.9,252.7,69.7,252.9,69.3z"/>
		<path d="M254.6,67.1c0-0.3,0.2-0.6,0.6-0.6c0.3,0,0.6,0.3,0.6,0.6s-0.2,0.5-0.6,0.5C254.8,67.7,254.6,67.4,254.6,67.1z M254.6,70
			c0-0.3,0.2-0.6,0.6-0.6c0.3,0,0.6,0.3,0.6,0.6c0,0.3-0.2,0.5-0.6,0.5C254.8,70.5,254.6,70.3,254.6,70z"/>
	</g>
	<g class="st42">
		<path d="M298.4,69h-2.9v-0.4l2.9-3.8h0.7v3.6h0.8V69h-0.8v1.4h-0.7V69z M298.4,65.8l-2,2.6h2V65.8z"/>
		<path d="M301,67.6c0-1.2,0.4-2.9,2-2.9c1.5,0,2,1.5,2,2.9c0,1.2-0.4,2.9-2,2.9C301.4,70.5,301,69,301,67.6z M304.1,67.6
			c0-1.1-0.2-2.2-1.2-2.2c-1,0-1.2,1.2-1.2,2.2c0,1.1,0.3,2.2,1.2,2.2C303.9,69.9,304.1,68.6,304.1,67.6z"/>
	</g>
	<g class="st42">
		<path d="M188.2,76.8h3.3v0.7h-2.6v1.7h1.7v0.7h-1.7v1.9h2.8v0.7h-3.5V76.8z"/>
		<path d="M192.8,77l0.7-0.3v2.1c0.3-0.4,0.6-0.5,1.1-0.5c0.9,0,1.5,0.5,1.5,1.8v2.4h-0.7V80c0-0.8-0.4-1.1-0.9-1.1
			c-0.5,0-0.9,0.3-0.9,1.1v2.5h-0.7V77z"/>
		<path d="M197.3,78.3h0.7v0.5c0.2-0.4,0.6-0.6,1-0.6c0.2,0,0.4,0.1,0.6,0.2l-0.1,0.7c-0.1-0.1-0.3-0.2-0.6-0.2
			c-0.4,0-0.9,0.3-0.9,1.2v2.3h-0.7V78.3z"/>
		<path d="M200.3,80.4c0-1.4,0.7-2.1,1.8-2.1c0.9,0,1.7,0.6,1.7,1.9c0,0.1,0,0.3,0,0.5H201c0.1,0.8,0.5,1.2,1.1,1.2
			c0.3,0,0.6-0.1,0.9-0.4l0.4,0.5c-0.3,0.3-0.8,0.5-1.3,0.5C201,82.5,200.3,81.6,200.3,80.4z M203.1,80.1c0-0.9-0.6-1.2-1-1.2
			c-0.6,0-1.1,0.4-1.1,1.2H203.1z"/>
		<path d="M207.3,80c0-0.8-0.4-1.1-0.9-1.1c-0.5,0-0.9,0.3-0.9,1.1v2.5h-0.7v-4.1h0.7v0.4c0.3-0.4,0.6-0.5,1.1-0.5
			c0.9,0,1.5,0.5,1.5,1.8v2.4h-0.7V80z"/>
		<path d="M211.7,82c-0.3,0.3-0.7,0.5-1.2,0.5c-0.8,0-1.4-0.5-1.4-1.4c0-0.9,0.7-1.4,1.5-1.4c0.4,0,0.7,0.1,1.1,0.3v-0.3
			c0-0.7-0.4-0.9-0.9-0.9c-0.5,0-0.9,0.2-1.2,0.4l-0.2-0.6c0.3-0.2,0.9-0.4,1.5-0.4c0.6,0,1.5,0.2,1.5,1.5v2.7h-0.7V82z M211.7,81.4
			v-0.7c-0.2-0.2-0.6-0.3-1-0.3c-0.5,0-1,0.2-1,0.8c0,0.5,0.3,0.8,0.9,0.8C211.1,81.9,211.4,81.6,211.7,81.4z"/>
		<path d="M218.3,79.9c0-0.6-0.2-1.1-0.8-1.1c-0.5,0-0.9,0.4-0.9,1.1v2.5h-0.7v-2.5c0-0.6-0.2-1.1-0.8-1.1c-0.5,0-0.9,0.4-0.9,1.1
			v2.5h-0.7v-4.1h0.7v0.4c0.2-0.3,0.6-0.5,1.1-0.5c0.4,0,0.9,0.2,1.1,0.6c0.2-0.4,0.7-0.6,1.2-0.6c0.8,0,1.4,0.5,1.4,1.5v2.7h-0.7
			V79.9z"/>
		<path d="M220.5,81.5v-2.6h-0.7v-0.6h0.7V77l0.7-0.3v1.7h1v0.6h-1v2.4c0,0.3,0.1,0.6,0.4,0.6c0.2,0,0.4-0.1,0.6-0.2l-0.1,0.7
			c-0.2,0.1-0.5,0.2-0.8,0.2C220.8,82.5,220.5,82.1,220.5,81.5z"/>
		<path d="M223.3,77l0.7-0.3v5.8h-0.7V77z"/>
		<path d="M225.3,77.2c0-0.2,0.2-0.4,0.4-0.4c0.2,0,0.4,0.2,0.4,0.4c0,0.2-0.2,0.4-0.4,0.4C225.5,77.6,225.3,77.4,225.3,77.2z
			 M225.4,78.3h0.7v4.1h-0.7V78.3z"/>
		<path d="M227.2,80.4c0-1.3,0.7-2.1,1.7-2.1c0.7,0,1.2,0.3,1.4,1l-0.7,0.2c-0.1-0.3-0.4-0.5-0.8-0.5c-0.7,0-1,0.6-1,1.5
			c0,0.9,0.3,1.5,1,1.5c0.4,0,0.7-0.2,0.8-0.6l0.6,0.2c-0.2,0.7-0.7,1-1.5,1C227.8,82.5,227.2,81.7,227.2,80.4z"/>
		<path d="M231.4,77l0.7-0.3v2.1c0.3-0.4,0.6-0.5,1.1-0.5c0.9,0,1.5,0.5,1.5,1.8v2.4h-0.7V80c0-0.8-0.4-1.1-0.9-1.1
			c-0.5,0-0.9,0.3-0.9,1.1v2.5h-0.7V77z"/>
	</g>
	<g class="st42">
		<path d="M238,81.5v-2.6h-0.7v-0.6h0.7V77l0.7-0.3v1.7h1v0.6h-1v2.4c0,0.3,0.1,0.6,0.4,0.6c0.2,0,0.4-0.1,0.6-0.2l-0.1,0.7
			c-0.2,0.1-0.5,0.2-0.8,0.2C238.2,82.5,238,82.1,238,81.5z"/>
	</g>
	<g class="st42">
		<path d="M243,82c-0.3,0.3-0.7,0.5-1.2,0.5c-0.8,0-1.4-0.5-1.4-1.4c0-0.9,0.7-1.4,1.5-1.4c0.4,0,0.7,0.1,1.1,0.3v-0.3
			c0-0.7-0.4-0.9-0.9-0.9c-0.5,0-0.9,0.2-1.2,0.4l-0.2-0.6c0.3-0.2,0.9-0.4,1.5-0.4c0.6,0,1.5,0.2,1.5,1.5v2.7H243V82z M241.1,77.2
			c0-0.2,0.2-0.4,0.4-0.4c0.2,0,0.4,0.2,0.4,0.4c0,0.2-0.2,0.4-0.4,0.4C241.3,77.6,241.1,77.4,241.1,77.2z M243,81.4v-0.7
			c-0.2-0.2-0.6-0.3-1-0.3c-0.5,0-1,0.2-1,0.8c0,0.5,0.3,0.8,0.9,0.8C242.4,81.9,242.8,81.6,243,81.4z M242.4,77.2
			c0-0.2,0.2-0.4,0.4-0.4c0.2,0,0.4,0.2,0.4,0.4c0,0.2-0.2,0.4-0.4,0.4C242.6,77.6,242.4,77.4,242.4,77.2z"/>
		<path d="M245.1,81.5v-2.6h-0.7v-0.6h0.7V77l0.7-0.3v1.7h1v0.6h-1v2.4c0,0.3,0.1,0.6,0.4,0.6c0.2,0,0.4-0.1,0.6-0.2l-0.1,0.7
			c-0.2,0.1-0.5,0.2-0.8,0.2C245.3,82.5,245.1,82.1,245.1,81.5z"/>
		<path d="M247.8,77.2c0-0.2,0.2-0.4,0.4-0.4c0.2,0,0.4,0.2,0.4,0.4c0,0.2-0.2,0.4-0.4,0.4C248,77.6,247.8,77.4,247.8,77.2z
			 M247.9,78.3h0.7v4.1h-0.7V78.3z"/>
		<path d="M250.8,83.5c1.3-0.1,1.6-0.5,1.6-1V82c-0.2,0.3-0.6,0.5-1.1,0.5c-0.9,0-1.7-0.7-1.7-2.1c0-1.3,0.7-2.1,1.7-2.1
			c0.6,0,0.9,0.3,1,0.4v-0.3h0.7v3.9c0,1.3-0.8,1.8-1.9,1.8L250.8,83.5z M252.4,81.3v-1.9c-0.2-0.3-0.6-0.5-0.9-0.5
			c-0.7,0-1.1,0.5-1.1,1.5c0,0.9,0.5,1.5,1.1,1.5C251.8,81.9,252.2,81.7,252.4,81.3z"/>
		<path d="M254.1,79.1c0-0.3,0.2-0.6,0.6-0.6c0.3,0,0.6,0.3,0.6,0.6s-0.2,0.5-0.6,0.5C254.3,79.7,254.1,79.4,254.1,79.1z M254.1,82
			c0-0.3,0.2-0.6,0.6-0.6c0.3,0,0.6,0.3,0.6,0.6c0,0.3-0.2,0.5-0.6,0.5C254.3,82.5,254.1,82.3,254.1,82z"/>
	</g>
	<g class="st42">
		<path d="M296.6,78h-0.9v-0.5c0.6,0,1-0.2,1.1-0.7h0.5v5.6h-0.7V78z"/>
		<path d="M299.6,78h-0.9v-0.5c0.6,0,1-0.2,1.1-0.7h0.5v5.6h-0.7V78z"/>
	</g>
</g>
<g>
	<g class="st42">
		<path d="M190.3,97.8c0-0.7-0.3-1-0.8-1c-0.5,0-0.9,0.2-0.9,1v2.2H188v-3.7h0.6v0.4c0.2-0.3,0.6-0.5,1-0.5c0.8,0,1.3,0.5,1.3,1.7
			v2.1h-0.6V97.8z"/>
		<path d="M192.1,96.6h3.4v0.6h-3.4V96.6z M192.1,97.9h3.4v0.6h-3.4V97.9z"/>
	</g>
	<g class="st42">
		<path d="M198.3,99.6l0.4-0.5c0.3,0.2,0.6,0.5,1.2,0.5c0.7,0,1.2-0.5,1.2-1.1s-0.4-1.1-1-1.1c-0.5,0-0.8,0.2-1,0.4l-0.6-0.2
			l0.3-2.6h2.7v0.6h-2.2l-0.2,1.5c0.3-0.2,0.7-0.3,1.1-0.3c1,0,1.6,0.7,1.6,1.6c0,1-0.7,1.8-1.9,1.8
			C199.1,100.1,198.6,99.8,198.3,99.6z"/>
		<path d="M203.5,96h-0.8v-0.4c0.5,0,0.9-0.1,1-0.6h0.5v5.1h-0.6V96z"/>
	</g>
</g>
</svg>
