<?xml version="1.0" encoding="utf-8"?>
<!-- Generator: Adobe Illustrator 21.0.0, SVG Export Plug-In . SVG Version: 6.00 Build 0)  -->
<svg version="1.1" id="Layer_1" xmlns="http://www.w3.org/2000/svg" xmlns:xlink="http://www.w3.org/1999/xlink" x="0px" y="0px"
	 viewBox="0 0 330 236" style="enable-background:new 0 0 330 236;" xml:space="preserve">
<style type="text/css">
	.st0{font-family:'Overpass-SemiBold';}
	.st1{font-size:8px;}
	.st2{fill:#0000FF;}
	.st3{fill:none;stroke:#000000;stroke-width:0.5;}
	.st4{fill:#FFFFFF;}
	.st5{font-family:'Overpass-Regular';}
	.st6{fill:none;stroke:#0000FF;stroke-width:0.5;}
</style>
<text transform="matrix(1 0 0 1 155.9453 9.4453)" class="st0 st1">30</text>
<text transform="matrix(1 0 0 1 25.2573 189.8301)" class="st0 st1">&lt; 1</text>
<text transform="matrix(1 0 0 1 59.5532 189.8301)" class="st0 st1">1-2</text>
<text transform="matrix(1 0 0 1 92.2974 189.8301)" class="st0 st1">3-4</text>
<text transform="matrix(1 0 0 1 126.5933 189.8301)" class="st0 st1">5-6</text>
<text transform="matrix(1 0 0 1 161.7612 189.8301)" class="st0 st1">&gt; 7</text>
<text transform="matrix(1 0 0 1 56.7212 126.8301)" class="st0 st1">6</text>
<text transform="matrix(1 0 0 1 89.0332 107.4941)" class="st0 st1">10</text>
<text transform="matrix(1 0 0 1 124.2095 138.1094)" class="st0 st1">4</text>
<text transform="matrix(1 0 0 1 23.3535 157.6221)" class="st0 st1">1</text>
<rect x="155.6" y="21" class="st2" width="23.4" height="159.2"/>
<rect x="155.6" y="21" class="st3" width="23.4" height="159.2"/>
<rect x="149.2" y="14.6" class="st4" width="23.4" height="159.2"/>
<rect x="149.2" y="14.6" class="st3" width="23.4" height="159.2"/>
<rect x="121.5" y="149.6" class="st2" width="23.4" height="30.6"/>
<rect x="121.5" y="149.6" class="st3" width="23.4" height="30.6"/>
<rect x="115.1" y="143.5" class="st4" width="23.4" height="30.3"/>
<rect x="115.1" y="143.5" class="st3" width="23.4" height="30.3"/>
<rect x="87.9" y="119" class="st2" width="23.4" height="61.2"/>
<rect x="87.9" y="119" class="st3" width="23.4" height="61.2"/>
<rect x="81.5" y="112.6" class="st4" width="23.4" height="61.2"/>
<rect x="81.5" y="112.6" class="st3" width="23.4" height="61.2"/>
<rect x="53.8" y="137.7" class="st2" width="23.4" height="42.5"/>
<rect x="53.8" y="137.7" class="st3" width="23.4" height="42.5"/>
<rect x="47.4" y="132" class="st4" width="23.4" height="41.8"/>
<rect x="47.4" y="132" class="st3" width="23.4" height="41.8"/>
<rect x="19.7" y="168.3" class="st2" width="23.4" height="11.8"/>
<rect x="19.7" y="168.3" class="st3" width="23.4" height="11.8"/>
<rect x="13.3" y="162.9" class="st4" width="23.4" height="10.9"/>
<rect x="13.3" y="162.9" class="st3" width="23.4" height="10.9"/>
<text transform="matrix(1 0 0 1 306.917 217.042)" class="st5 st1">n=5</text>
<text transform="matrix(1 0 0 1 321.717 217.042)" class="st5 st1">1</text>
<text transform="matrix(-6.123234e-17 1 -1 -6.123234e-17 11.0195 3.8579)" class="st5 st1">T</text>
<text transform="matrix(-6.123234e-17 1 -1 -6.123234e-17 11.0195 7.8579)" class="st5 st1">e</text>
<text transform="matrix(-6.123234e-17 1 -1 -6.123234e-17 11.0195 12.2579)" class="st5 st1">i</text>
<text transform="matrix(-6.123234e-17 1 -1 -6.123234e-17 11.0195 14.2579)" class="st5 st1">l</text>
<text transform="matrix(-6.123234e-17 1 -1 -6.123234e-17 11.0195 16.4579)" class="st5 st1">n</text>
<text transform="matrix(-6.123234e-17 1 -1 -6.123234e-17 11.0195 20.9579)" class="st5 st1">e</text>
<text transform="matrix(-6.123234e-17 1 -1 -6.123234e-17 11.0195 25.2579)" class="st5 st1">hmen</text>
<text transform="matrix(-6.123234e-17 1 -1 -6.123234e-17 11.0195 45.5579)" class="st5 st1">d</text>
<text transform="matrix(-6.123234e-17 1 -1 -6.123234e-17 11.0195 50.0579)" class="st5 st1">e</text>
<text transform="matrix(1 0 0 1 137.8452 206.0459)" class="st5 st1">Be</text>
<text transform="matrix(1 0 0 1 147.4452 206.0459)" class="st5 st1">r</text>
<text transform="matrix(1 0 0 1 150.6452 206.0459)" class="st5 st1">u</text>
<text transform="matrix(1 0 0 1 155.1452 206.0459)" class="st5 st1">f</text>
<text transform="matrix(1 0 0 1 157.6452 206.0459)" class="st5 st1">s</text>
<text transform="matrix(1 0 0 1 161.4452 206.0459)" class="st5 st1">jahr</text>
<text transform="matrix(1 0 0 1 175.5452 206.0459)" class="st5 st1">e</text>
<polyline class="st6" points="179,193.9 7.8,193.9 7.8,3.9 "/>
</svg>
