<?xml version="1.0" encoding="utf-8"?>
<!-- Generator: Adobe Illustrator 21.0.0, SVG Export Plug-In . SVG Version: 6.00 Build 0)  -->
<svg version="1.1" id="Layer_1" xmlns="http://www.w3.org/2000/svg" xmlns:xlink="http://www.w3.org/1999/xlink" x="0px" y="0px"
	 viewBox="0 0 356.4 418.5" style="enable-background:new 0 0 356.4 418.5;" xml:space="preserve">
<style type="text/css">
	.st0{clip-path:url(#SVGID_2_);fill:#0000FF;}
	.st1{font-family:'Overpass-SemiBold';}
	.st2{font-size:8px;}
	.st3{fill:#FFFFFF;}
	.st4{fill:none;stroke:#000000;stroke-width:0.75;}
	.st5{fill:#0000FF;}
	.st6{font-family:'Overpass-Regular';}
	.st7{clip-path:url(#SVGID_4_);fill:#0000FF;}
</style>
<g>
	<g>
		<defs>
			<line id="SVGID_1_" x1="-507.8" y1="-84.4" x2="-507.8" y2="525"/>
		</defs>
		<clipPath id="SVGID_2_">
			<use xlink:href="#SVGID_1_"  style="overflow:visible;"/>
		</clipPath>
		<path class="st0" d="M4.5-20.1c2.3,0,4.2-1.9,4.2-4.2s-1.9-4.2-4.2-4.2s-4.2,1.9-4.2,4.2C0.3-22,2.2-20.1,4.5-20.1"/>
	</g>
</g>
<text transform="matrix(1 0 0 1 -0.3737 79.5825)" class="st1 st2">Citizen Science (Bürger*innen b</text>
<text transform="matrix(1 0 0 1 115.5263 79.5825)" class="st1 st2">e</text>
<text transform="matrix(1 0 0 1 119.8263 79.5825)" class="st1 st2">t</text>
<text transform="matrix(1 0 0 1 122.8263 79.5825)" class="st1 st2">eiligen sich an der Forschung) </text>
<rect y="56.9" class="st3" width="125.5" height="12"/>
<rect y="56.9" class="st4" width="125.5" height="12"/>
<rect x="41.4" y="56.9" class="st5" width="315" height="12"/>
<rect x="41.4" y="56.9" class="st4" width="315" height="12"/>
<text transform="matrix(1 0 0 1 2.8841 65.5322)" class="st6 st2">6</text>
<text transform="matrix(1 0 0 1 342.6205 65.5322)" class="st3 st6 st2">4</text>
<text transform="matrix(1 0 0 1 347.4205 65.5322)" class="st3 st6 st2">5</text>
<text transform="matrix(1 0 0 1 -0.3737 112.1333)" class="st6 st2">Cro</text>
<text transform="matrix(1 0 0 1 12.4263 112.1333)" class="st6 st2">w</text>
<text transform="matrix(1 0 0 1 18.0263 112.1333)" class="st6 st2">dsourcing </text>
<text transform="matrix(1 0 0 1 55.3263 112.1333)" class="st6 st2">(</text>
<text transform="matrix(1 0 0 1 57.9263 112.1333)" class="st6 st2">A</text>
<text transform="matrix(1 0 0 1 63.3263 112.1333)" class="st6 st2">u</text>
<text transform="matrix(1 0 0 1 67.8263 112.1333)" class="st6 st2">f</text>
<text transform="matrix(1 0 0 1 70.3263 112.1333)" class="st6 st2">gaben an </text>
<text transform="matrix(1 0 0 1 104.8263 112.1333)" class="st6 st2">F</text>
<text transform="matrix(1 0 0 1 109.0263 112.1333)" class="st6 st2">reiwillige auslagern)</text>
<rect y="88.7" class="st3" width="216.2" height="12"/>
<rect y="88.7" class="st4" width="216.2" height="12"/>
<rect x="111.1" y="88.7" class="st5" width="245.3" height="12"/>
<rect x="111.1" y="88.7" class="st4" width="245.3" height="12"/>
<text transform="matrix(1 0 0 1 2.8841 97.8188)" class="st6 st2">16</text>
<text transform="matrix(1 0 0 1 342.596 97.8188)" class="st3 st6 st2">35</text>
<text transform="matrix(1 0 0 1 -0.3737 143.6255)" class="st6 st2">Cro</text>
<text transform="matrix(1 0 0 1 12.4263 143.6255)" class="st6 st2">w</text>
<text transform="matrix(1 0 0 1 18.0263 143.6255)" class="st6 st2">d</text>
<text transform="matrix(1 0 0 1 22.5263 143.6255)" class="st6 st2">f</text>
<text transform="matrix(1 0 0 1 25.0263 143.6255)" class="st6 st2">unding (Proje</text>
<text transform="matrix(1 0 0 1 73.1263 143.6255)" class="st6 st2">k</text>
<text transform="matrix(1 0 0 1 77.3263 143.6255)" class="st6 st2">t</text>
<text transform="matrix(1 0 0 1 80.2263 143.6255)" class="st6 st2">e gemeinsam ﬁnanzieren) </text>
<rect y="120.8" class="st3" width="335" height="12"/>
<rect y="120.8" class="st4" width="335" height="12"/>
<rect x="48.2" y="120.8" class="st5" width="308.2" height="12"/>
<rect x="48.2" y="120.8" class="st4" width="308.2" height="12"/>
<text transform="matrix(1 0 0 1 2.8841 129.5669)" class="st6 st2">7</text>
<text transform="matrix(1 0 0 1 342.4447 129.5669)" class="st3 st6 st2">44</text>
<text transform="matrix(1 0 0 1 -0.3737 176.3369)" class="st6 st2">Ers</text>
<text transform="matrix(1 0 0 1 11.3263 176.3369)" class="st6 st2">t</text>
<text transform="matrix(1 0 0 1 14.2263 176.3369)" class="st6 st2">ellung von OE</text>
<text transform="matrix(1 0 0 1 63.6263 176.3369)" class="st6 st2">R</text>
<text transform="matrix(1 0 0 1 68.9263 176.3369)" class="st6 st2">-Ma</text>
<text transform="matrix(1 0 0 1 82.7263 176.3369)" class="st6 st2">t</text>
<text transform="matrix(1 0 0 1 85.6263 176.3369)" class="st6 st2">erialien (Ers</text>
<text transform="matrix(1 0 0 1 128.5263 176.3369)" class="st6 st2">t</text>
<text transform="matrix(1 0 0 1 131.4263 176.3369)" class="st6 st2">ellen von freien Un</text>
<text transform="matrix(1 0 0 1 198.3263 176.3369)" class="st6 st2">t</text>
<text transform="matrix(1 0 0 1 201.2263 176.3369)" class="st6 st2">errichtsma</text>
<text transform="matrix(1 0 0 1 240.1263 176.3369)" class="st6 st2">t</text>
<text transform="matrix(1 0 0 1 243.0263 176.3369)" class="st6 st2">erialien) </text>
<rect y="152.8" class="st3" width="187.4" height="12"/>
<rect y="152.8" class="st4" width="187.4" height="12"/>
<rect x="132.5" y="152.8" class="st5" width="223.9" height="12"/>
<rect x="132.5" y="152.8" class="st4" width="223.9" height="12"/>
<text transform="matrix(1 0 0 1 2.8841 161.5986)" class="st6 st2">19</text>
<text transform="matrix(1 0 0 1 342.6683 161.5986)" class="st3 st6 st2">32</text>
<text transform="matrix(1 0 0 1 -0.3737 209.126)" class="st6 st2">K</text>
<text transform="matrix(1 0 0 1 4.8263 209.126)" class="st6 st2">ollabo</text>
<text transform="matrix(1 0 0 1 26.6263 209.126)" class="st6 st2">r</text>
<text transform="matrix(1 0 0 1 29.6263 209.126)" class="st6 st2">atives Schreiben / Book Sprints (gemeinsam</text>
<text transform="matrix(1 0 0 1 188.2263 209.126)" class="st6 st2"> </text>
<text transform="matrix(1 0 0 1 189.7263 209.126)" class="st6 st2">T</text>
<text transform="matrix(1 0 0 1 193.7263 209.126)" class="st6 st2">e</text>
<text transform="matrix(1 0 0 1 197.8263 209.126)" class="st6 st2">x</text>
<text transform="matrix(1 0 0 1 201.9263 209.126)" class="st6 st2">t</text>
<text transform="matrix(1 0 0 1 204.8263 209.126)" class="st6 st2">e ve</text>
<text transform="matrix(1 0 0 1 219.3263 209.126)" class="st6 st2">r</text>
<text transform="matrix(1 0 0 1 222.5263 209.126)" class="st6 st2">f</text>
<text transform="matrix(1 0 0 1 225.2263 209.126)" class="st6 st2">assen) </text>
<rect y="184.9" class="st3" width="278.6" height="12"/>
<rect y="184.9" class="st4" width="278.6" height="12"/>
<rect x="188.2" y="184.9" class="st5" width="168.2" height="12"/>
<rect x="188.2" y="184.9" class="st4" width="168.2" height="12"/>
<text transform="matrix(1 0 0 1 2.8841 193.7715)" class="st6 st2">27</text>
<text transform="matrix(1 0 0 1 342.596 193.7715)" class="st3 st6 st2">2</text>
<text transform="matrix(1 0 0 1 347.396 193.7715)" class="st3 st6 st2">4</text>
<text transform="matrix(1 0 0 1 -0.3737 241.0703)" class="st6 st2">K</text>
<text transform="matrix(1 0 0 1 4.8263 241.0703)" class="st6 st2">ollabo</text>
<text transform="matrix(1 0 0 1 26.6263 241.0703)" class="st6 st2">r</text>
<text transform="matrix(1 0 0 1 29.6263 241.0703)" class="st6 st2">atives Revi</text>
<text transform="matrix(1 0 0 1 68.6263 241.0703)" class="st6 st2">e</text>
<text transform="matrix(1 0 0 1 72.8263 241.0703)" class="st6 st2">wing (gemeinsam Inhal</text>
<text transform="matrix(1 0 0 1 154.7263 241.0703)" class="st6 st2">t</text>
<text transform="matrix(1 0 0 1 157.6263 241.0703)" class="st6 st2">e b</text>
<text transform="matrix(1 0 0 1 168.3263 241.0703)" class="st6 st2">ew</text>
<text transform="matrix(1 0 0 1 178.1263 241.0703)" class="st6 st2">e</text>
<text transform="matrix(1 0 0 1 182.4263 241.0703)" class="st6 st2">r</text>
<text transform="matrix(1 0 0 1 185.7263 241.0703)" class="st6 st2">t</text>
<text transform="matrix(1 0 0 1 188.6263 241.0703)" class="st6 st2">en) </text>
<rect y="216.9" class="st3" width="152.6" height="12"/>
<rect y="216.9" class="st4" width="152.6" height="12"/>
<rect x="111.7" y="216.9" class="st5" width="244.7" height="12"/>
<rect x="111.7" y="216.9" class="st4" width="244.7" height="12"/>
<text transform="matrix(1 0 0 1 2.8841 225.7559)" class="st6 st2">16</text>
<text transform="matrix(1 0 0 1 342.596 225.7559)" class="st3 st6 st2">35</text>
<text transform="matrix(1 0 0 1 -0.3737 272.2881)" class="st6 st2">Online-</text>
<text transform="matrix(1 0 0 1 26.1263 272.2881)" class="st6 st2">P</text>
<text transform="matrix(1 0 0 1 30.9263 272.2881)" class="st6 st2">e</text>
<text transform="matrix(1 0 0 1 35.1263 272.2881)" class="st6 st2">tition</text>
<rect y="249" class="st3" width="349.3" height="12"/>
<rect y="249" class="st4" width="349.3" height="12"/>
<rect x="97.8" y="249" class="st5" width="258.6" height="12"/>
<rect x="97.8" y="249" class="st4" width="258.6" height="12"/>
<text transform="matrix(1 0 0 1 2.8841 258.1182)" class="st6 st2">1</text>
<text transform="matrix(1 0 0 1 5.6841 258.1182)" class="st6 st2">4</text>
<text transform="matrix(1 0 0 1 344.7728 257.7422)" class="st3 st6 st2">3</text>
<text transform="matrix(1 0 0 1 349.4728 257.7422)" class="st3 st6 st2">7</text>
<text transform="matrix(1 0 0 1 -0.3737 302.999)" class="st6 st2">Online</text>
<text transform="matrix(1 0 0 1 22.9263 302.999)" class="st6 st2"> </text>
<text transform="matrix(1 0 0 1 24.4263 302.999)" class="st6 st2">V</text>
<text transform="matrix(1 0 0 1 29.0263 302.999)" class="st6 st2">oting durch Jugendliche zur Proje</text>
<text transform="matrix(1 0 0 1 149.9263 302.999)" class="st6 st2">k</text>
<text transform="matrix(1 0 0 1 154.0263 302.999)" class="st6 st2">t</text>
<text transform="matrix(1 0 0 1 156.9263 302.999)" class="st6 st2">entscheidung</text>
<rect y="278.9" class="st3" width="292.7" height="12"/>
<rect y="278.9" class="st4" width="292.7" height="12"/>
<rect x="182" y="278.9" class="st5" width="174.4" height="12"/>
<rect x="182" y="278.9" class="st4" width="174.4" height="12"/>
<text transform="matrix(1 0 0 1 2.8841 287.7969)" class="st6 st2">26</text>
<text transform="matrix(1 0 0 1 342.6126 287.7412)" class="st3 st6 st2">2</text>
<text transform="matrix(1 0 0 1 347.4126 287.7412)" class="st3 st6 st2">5</text>
<text transform="matrix(1 0 0 1 -0.3737 332.9062)" class="st6 st2">Prog</text>
<text transform="matrix(1 0 0 1 16.8263 332.9062)" class="st6 st2">r</text>
<text transform="matrix(1 0 0 1 19.8263 332.9062)" class="st6 st2">ammieren (gemeinsames Prog</text>
<text transform="matrix(1 0 0 1 128.6263 332.9062)" class="st6 st2">r</text>
<text transform="matrix(1 0 0 1 131.6263 332.9062)" class="st6 st2">ammieren, Bas</text>
<text transform="matrix(1 0 0 1 184.5263 332.9062)" class="st6 st2">t</text>
<text transform="matrix(1 0 0 1 187.4263 332.9062)" class="st6 st2">eln mit</text>
<text transform="matrix(1 0 0 1 211.9263 332.9062)" class="st6 st2"> </text>
<text transform="matrix(1 0 0 1 213.4263 332.9062)" class="st6 st2">T</text>
<text transform="matrix(1 0 0 1 217.4263 332.9062)" class="st6 st2">echnik) </text>
<rect y="309.5" class="st3" width="223.3" height="12"/>
<rect y="309.5" class="st4" width="223.3" height="12"/>
<rect x="83.1" y="309.5" class="st5" width="273.4" height="12"/>
<rect x="83.1" y="309.5" class="st4" width="273.4" height="12"/>
<text transform="matrix(1 0 0 1 2.8841 318.4961)" class="st6 st2">12</text>
<text transform="matrix(1 0 0 1 343.0199 318.4961)" class="st3 st6 st2">3</text>
<text transform="matrix(1 0 0 1 347.6199 318.4961)" class="st3 st6 st2">9</text>
<text transform="matrix(1 0 0 1 -0.3737 365.0352)" class="st6 st2">Social Media</text>
<rect y="341.6" class="st3" width="341.7" height="12"/>
<rect y="341.6" class="st4" width="341.7" height="12"/>
<rect x="328" y="341.6" class="st5" width="28.4" height="12"/>
<rect x="328" y="341.6" class="st4" width="28.4" height="12"/>
<text transform="matrix(1 0 0 1 2.8841 350.6406)" class="st6 st2">4</text>
<text transform="matrix(1 0 0 1 7.7841 350.6406)" class="st6 st2">7</text>
<text transform="matrix(1 0 0 1 347.4124 350.4805)" class="st3 st6 st2">4</text>
<rect x="0.3" y="16.4" class="st4" width="24.8" height="20.7"/>
<text transform="matrix(1 0 0 1 8.1448 29.7587)" class="st6 st2">Ja</text>
<rect x="29" y="16.4" class="st5" width="24.8" height="20.7"/>
<rect x="29" y="16.4" class="st4" width="24.8" height="20.7"/>
<text transform="matrix(1 0 0 1 33.0579 29.7587)" class="st3 st6 st2">Nein</text>
<text transform="matrix(1 0 0 1 339.054 379.9111)" class="st6 st2">n=5</text>
<text transform="matrix(1 0 0 1 353.854 379.9111)" class="st6 st2">1</text>
<g>
	<g>
		<defs>
			<line id="SVGID_3_" x1="-507.8" y1="-84.4" x2="-507.8" y2="525"/>
		</defs>
		<clipPath id="SVGID_4_">
			<use xlink:href="#SVGID_3_"  style="overflow:visible;"/>
		</clipPath>
		<path class="st7" d="M209.8-56.1c1.5,0,2.8-1.3,2.8-2.8s-1.3-2.8-2.8-2.8s-2.8,1.3-2.8,2.8S208.2-56.1,209.8-56.1"/>
	</g>
</g>
</svg>
