<?xml version="1.0" encoding="utf-8"?>
<!-- Generator: Adobe Illustrator 21.0.0, SVG Export Plug-In . SVG Version: 6.00 Build 0)  -->
<svg version="1.1" id="Layer_1" xmlns="http://www.w3.org/2000/svg" xmlns:xlink="http://www.w3.org/1999/xlink" x="0px" y="0px"
	 viewBox="0 0 356.9 364.5" style="enable-background:new 0 0 356.9 364.5;" xml:space="preserve">
<style type="text/css">
	.st0{fill:none;stroke:#000000;stroke-width:0.5;}
	.st1{enable-background:new    ;}
	.st2{fill:#FFFFFF;}
	.st3{fill:none;stroke:#0000FF;stroke-width:0.5;}
	.st4{fill:#0000FF;}
	.st5{fill:#B2B2B2;}
	.st6{fill:none;stroke:#B2B2B2;}
</style>
<rect y="9.1" width="5.7" height="5.5"/>
<rect y="9.1" class="st0" width="5.7" height="5.5"/>
<g class="st1">
	<path d="M10.2,12.5c0-0.6-0.3-0.8-0.7-0.8c-0.4,0-0.7,0.2-0.7,0.8v1.9H8.3v-3.1h0.5v0.3c0.2-0.3,0.5-0.4,0.8-0.4
		c0.7,0,1.1,0.4,1.1,1.4v1.8h-0.5V12.5z"/>
</g>
<g class="st1">
	<path d="M11.7,10.5c0-0.2,0.1-0.3,0.3-0.3c0.2,0,0.3,0.1,0.3,0.3c0,0.2-0.1,0.3-0.3,0.3C11.8,10.8,11.7,10.6,11.7,10.5z M11.8,11.3
		h0.5v3.1h-0.5V11.3z"/>
</g>
<g class="st1">
	<path d="M13.2,12.9c0-1,0.5-1.6,1.4-1.6c0.7,0,1.3,0.5,1.3,1.5c0,0.1,0,0.2,0,0.3h-2.1c0,0.6,0.4,0.9,0.8,0.9
		c0.2,0,0.5-0.1,0.7-0.3l0.3,0.4c-0.2,0.2-0.6,0.4-1,0.4C13.7,14.5,13.2,13.8,13.2,12.9z M15.3,12.6c0-0.7-0.4-0.9-0.7-0.9
		c-0.4,0-0.8,0.3-0.8,0.9H15.3z"/>
</g>
<rect x="82.3" y="9.1" class="st2" width="5.7" height="5.5"/>
<rect x="82.3" y="9.1" class="st0" width="5.7" height="5.5"/>
<g class="st1">
	<path d="M90.4,14l0.4-0.3c0.2,0.2,0.4,0.4,0.7,0.4c0.3,0,0.6-0.1,0.6-0.4c0-0.3-0.3-0.4-0.7-0.6c-0.6-0.2-0.9-0.5-0.9-1
		c0-0.5,0.4-0.8,1-0.8c0.5,0,0.8,0.2,1,0.5L92.1,12c-0.1-0.1-0.3-0.3-0.7-0.3c-0.3,0-0.5,0.1-0.5,0.3c0,0.3,0.3,0.4,0.6,0.5
		c0.6,0.2,1,0.4,1,1c0,0.6-0.4,0.9-1.1,0.9C91.1,14.5,90.6,14.3,90.4,14z"/>
	<path d="M93.2,12.9c0-1,0.5-1.6,1.4-1.6c0.7,0,1.3,0.5,1.3,1.5c0,0.1,0,0.2,0,0.3h-2.1c0,0.6,0.4,0.9,0.8,0.9
		c0.2,0,0.5-0.1,0.7-0.3l0.3,0.4c-0.2,0.2-0.6,0.4-1,0.4C93.8,14.5,93.2,13.8,93.2,12.9z M95.3,12.6c0-0.7-0.4-0.9-0.7-0.9
		c-0.4,0-0.8,0.3-0.8,0.9H95.3z"/>
	<path d="M96.7,10.3l0.5-0.2v4.3h-0.5V10.3z"/>
</g>
<g class="st1">
	<path d="M98.5,13.7v-1.9H98v-0.5h0.5v-1l0.5-0.3v1.3h0.8v0.5H99v1.8c0,0.2,0,0.4,0.3,0.4c0.2,0,0.3-0.1,0.5-0.2l-0.1,0.5
		c-0.2,0.1-0.3,0.1-0.6,0.1C98.7,14.5,98.5,14.2,98.5,13.7z"/>
</g>
<g class="st1">
	<path d="M100.3,12.9c0-1,0.5-1.6,1.4-1.6c0.7,0,1.3,0.5,1.3,1.5c0,0.1,0,0.2,0,0.3h-2.1c0,0.6,0.4,0.9,0.8,0.9
		c0.2,0,0.5-0.1,0.7-0.3l0.3,0.4c-0.2,0.2-0.6,0.4-1,0.4C100.8,14.5,100.3,13.8,100.3,12.9z M102.4,12.6c0-0.7-0.4-0.9-0.7-0.9
		c-0.4,0-0.8,0.3-0.8,0.9H102.4z"/>
</g>
<g class="st1">
	<path d="M105.7,12.5c0-0.6-0.3-0.8-0.7-0.8c-0.4,0-0.7,0.2-0.7,0.8v1.9h-0.5v-3.1h0.5v0.3c0.2-0.3,0.5-0.4,0.8-0.4
		c0.7,0,1.1,0.4,1.1,1.4v1.8h-0.5V12.5z"/>
</g>
<rect x="164.2" y="9.1" class="st2" width="5.7" height="5.5"/>
<rect x="164.2" y="9.1" class="st3" width="5.7" height="5.5"/>
<g class="st1">
	<path d="M172.5,10.3l0.5-0.2v1.6c0.2-0.3,0.5-0.4,0.8-0.4c0.7,0,1.1,0.4,1.1,1.4v1.8h-0.5v-1.9c0-0.6-0.3-0.8-0.7-0.8
		c-0.4,0-0.7,0.2-0.7,0.8v1.9h-0.5V10.3z"/>
	<path d="M177.6,14.1c-0.2,0.2-0.5,0.4-0.9,0.4c-0.6,0-1.1-0.3-1.1-1c0-0.7,0.6-1,1.1-1c0.3,0,0.5,0.1,0.8,0.2v-0.2
		c0-0.5-0.3-0.7-0.7-0.7c-0.3,0-0.7,0.1-0.9,0.3l-0.1-0.4c0.2-0.2,0.6-0.3,1.1-0.3c0.5,0,1.1,0.2,1.1,1.1v2h-0.5V14.1z M176.2,10.5
		c0-0.2,0.1-0.3,0.3-0.3c0.2,0,0.3,0.1,0.3,0.3s-0.1,0.3-0.3,0.3C176.3,10.8,176.2,10.7,176.2,10.5z M177.6,13.6v-0.5
		c-0.2-0.1-0.5-0.2-0.7-0.2c-0.4,0-0.7,0.2-0.7,0.6c0,0.3,0.2,0.6,0.7,0.6C177.2,14,177.5,13.8,177.6,13.6z M177.2,10.5
		c0-0.2,0.1-0.3,0.3-0.3c0.2,0,0.3,0.1,0.3,0.3s-0.1,0.3-0.3,0.3C177.4,10.8,177.2,10.7,177.2,10.5z"/>
	<path d="M180.9,14.1c-0.2,0.3-0.5,0.4-0.8,0.4c-0.7,0-1.1-0.4-1.1-1.4v-1.8h0.5v1.8c0,0.6,0.3,0.8,0.7,0.8c0.4,0,0.7-0.2,0.7-0.8
		v-1.9h0.5v3.1h-0.5V14.1z"/>
	<path d="M183.1,14.4h-0.5v-2.6h-0.5v-0.5h0.5v-0.5c0-0.5,0.3-0.7,0.7-0.7c0.2,0,0.4,0.1,0.6,0.1v0.4c-0.2-0.1-0.3-0.1-0.4-0.1
		c-0.3,0-0.3,0.2-0.3,0.3v0.4h0.7v0.5h-0.7V14.4z M184.3,10.5c0-0.2,0.1-0.3,0.3-0.3c0.2,0,0.3,0.1,0.3,0.3c0,0.2-0.1,0.3-0.3,0.3
		C184.5,10.8,184.3,10.6,184.3,10.5z M184.4,11.3h0.5v3.1h-0.5V11.3z"/>
</g>
<g class="st1">
	<path d="M186.8,15.2c0.9-0.1,1.2-0.4,1.2-0.8v-0.4c-0.2,0.2-0.4,0.4-0.8,0.4c-0.7,0-1.3-0.5-1.3-1.6c0-1,0.5-1.6,1.3-1.6
		c0.4,0,0.7,0.2,0.8,0.3v-0.3h0.5v2.9c0,1-0.6,1.3-1.4,1.4L186.8,15.2z M188,13.6v-1.4c-0.2-0.3-0.5-0.4-0.7-0.4
		c-0.5,0-0.8,0.4-0.8,1.1c0,0.7,0.3,1.1,0.8,1.1C187.5,14,187.8,13.8,188,13.6z"/>
</g>
<rect x="233.9" y="9.1" class="st4" width="5.7" height="5.5"/>
<rect x="233.9" y="9.1" class="st3" width="5.7" height="5.5"/>
<g class="st1">
	<path d="M242,12.9c0-1,0.5-1.6,1.3-1.6c0.4,0,0.6,0.1,0.8,0.3v-1.2l0.5-0.2v4.3H244v-0.2c-0.2,0.2-0.4,0.3-0.8,0.3
		C242.5,14.5,242,13.9,242,12.9z M244,13.6v-1.4c-0.1-0.2-0.3-0.4-0.7-0.4c-0.5,0-0.8,0.4-0.8,1.1c0,0.6,0.3,1.1,0.8,1.1
		C243.6,14,243.9,13.8,244,13.6z"/>
</g>
<g class="st1">
	<path d="M247.4,14.1c-0.2,0.3-0.5,0.4-0.8,0.4c-0.7,0-1.1-0.4-1.1-1.4v-1.8h0.5v1.8c0,0.6,0.3,0.8,0.7,0.8c0.4,0,0.7-0.2,0.7-0.8
		v-1.9h0.5v3.1h-0.5V14.1z"/>
	<path d="M249,11.3h0.5v0.4c0.2-0.3,0.5-0.5,0.8-0.5c0.2,0,0.3,0.1,0.4,0.2l-0.1,0.5c-0.1-0.1-0.2-0.1-0.4-0.1
		c-0.3,0-0.7,0.2-0.7,0.9v1.7H249V11.3z"/>
</g>
<g class="st1">
	<path d="M251.2,12.9c0-1,0.5-1.6,1.3-1.6c0.5,0,0.9,0.2,1.1,0.7l-0.5,0.2c-0.1-0.2-0.3-0.4-0.6-0.4c-0.5,0-0.8,0.4-0.8,1.1
		c0,0.7,0.3,1.1,0.7,1.1c0.3,0,0.5-0.2,0.6-0.5l0.5,0.2c-0.1,0.5-0.6,0.8-1.1,0.8C251.7,14.5,251.2,13.9,251.2,12.9z"/>
</g>
<g class="st1">
	<path d="M254.4,10.3l0.5-0.2v1.6c0.2-0.3,0.5-0.4,0.8-0.4c0.7,0,1.1,0.4,1.1,1.4v1.8h-0.5v-1.9c0-0.6-0.3-0.8-0.7-0.8
		c-0.4,0-0.7,0.2-0.7,0.8v1.9h-0.5V10.3z"/>
	<path d="M258.5,15.2c0.9-0.1,1.2-0.4,1.2-0.8v-0.4c-0.2,0.2-0.4,0.4-0.8,0.4c-0.7,0-1.3-0.5-1.3-1.6c0-1,0.5-1.6,1.3-1.6
		c0.4,0,0.7,0.2,0.8,0.3v-0.3h0.5v2.9c0,1-0.6,1.3-1.4,1.4L258.5,15.2z M259.6,13.6v-1.4c-0.1-0.3-0.4-0.4-0.7-0.4
		c-0.5,0-0.8,0.4-0.8,1.1c0,0.7,0.3,1.1,0.8,1.1C259.2,14,259.5,13.8,259.6,13.6z"/>
</g>
<g class="st1">
	<path d="M261,12.9c0-1,0.5-1.6,1.4-1.6c0.7,0,1.3,0.5,1.3,1.5c0,0.1,0,0.2,0,0.3h-2.1c0,0.6,0.4,0.9,0.8,0.9c0.2,0,0.5-0.1,0.7-0.3
		l0.3,0.4c-0.2,0.2-0.6,0.4-1,0.4C261.5,14.5,261,13.8,261,12.9z M263.1,12.6c0-0.7-0.4-0.9-0.7-0.9c-0.4,0-0.8,0.3-0.8,0.9H263.1z"
		/>
</g>
<g class="st1">
	<path d="M264.5,10.3l0.5-0.2v1.6c0.2-0.3,0.5-0.4,0.8-0.4c0.7,0,1.1,0.4,1.1,1.4v1.8h-0.5v-1.9c0-0.6-0.3-0.8-0.7-0.8
		c-0.4,0-0.7,0.2-0.7,0.8v1.9h-0.5V10.3z"/>
</g>
<g class="st1">
	<path d="M267.7,12.9c0-1,0.5-1.6,1.4-1.6c0.7,0,1.3,0.5,1.3,1.5c0,0.1,0,0.2,0,0.3h-2.1c0,0.6,0.4,0.9,0.8,0.9
		c0.2,0,0.5-0.1,0.7-0.3l0.3,0.4c-0.2,0.2-0.6,0.4-1,0.4C268.2,14.5,267.7,13.8,267.7,12.9z M269.8,12.6c0-0.7-0.4-0.9-0.7-0.9
		c-0.4,0-0.8,0.3-0.8,0.9H269.8z"/>
</g>
<g class="st1">
	<path d="M273.1,12.5c0-0.6-0.3-0.8-0.7-0.8c-0.4,0-0.7,0.2-0.7,0.8v1.9h-0.5v-3.1h0.5v0.3c0.2-0.3,0.5-0.4,0.8-0.4
		c0.7,0,1.1,0.4,1.1,1.4v1.8h-0.5V12.5z"/>
</g>
<g class="st1">
	<path d="M274.4,12.9c0-1,0.5-1.6,1.3-1.6c0.4,0,0.6,0.1,0.8,0.3v-1.2l0.5-0.2v4.3h-0.5v-0.2c-0.2,0.2-0.4,0.3-0.8,0.3
		C274.9,14.5,274.4,13.9,274.4,12.9z M276.4,13.6v-1.4c-0.1-0.2-0.3-0.4-0.7-0.4c-0.5,0-0.8,0.4-0.8,1.1c0,0.6,0.3,1.1,0.8,1.1
		C276,14,276.3,13.8,276.4,13.6z"/>
</g>
<rect x="310.2" y="9.9" class="st5" width="4.7" height="4.5"/>
<rect x="310.2" y="9.9" class="st6" width="4.7" height="4.5"/>
<g class="st1">
	<path d="M318.5,12.1l-0.7,0.9v1.4h-0.5v-4.2h0.5v2.1l1.6-2.1h0.6l-1.2,1.5l1.5,2.7h-0.6L318.5,12.1z"/>
</g>
<g class="st1">
	<path d="M320.9,12.9c0-1,0.5-1.6,1.4-1.6c0.7,0,1.3,0.5,1.3,1.5c0,0.1,0,0.2,0,0.3h-2.1c0,0.6,0.4,0.9,0.8,0.9
		c0.2,0,0.5-0.1,0.7-0.3l0.3,0.4c-0.2,0.2-0.6,0.4-1,0.4C321.4,14.5,320.9,13.8,320.9,12.9z M323,12.6c0-0.7-0.4-0.9-0.7-0.9
		c-0.4,0-0.8,0.3-0.8,0.9H323z"/>
	<path d="M324.2,10.5c0-0.2,0.1-0.3,0.3-0.3c0.2,0,0.3,0.1,0.3,0.3c0,0.2-0.1,0.3-0.3,0.3C324.4,10.8,324.2,10.6,324.2,10.5z
		 M324.3,11.3h0.5v3.1h-0.5V11.3z"/>
</g>
<g class="st1">
	<path d="M327.8,12.5c0-0.6-0.3-0.8-0.7-0.8c-0.4,0-0.7,0.2-0.7,0.8v1.9h-0.5v-3.1h0.5v0.3c0.2-0.3,0.5-0.4,0.8-0.4
		c0.7,0,1.1,0.4,1.1,1.4v1.8h-0.5V12.5z"/>
</g>
<g class="st1">
	<path d="M329.1,12.9c0-1,0.5-1.6,1.4-1.6c0.7,0,1.3,0.5,1.3,1.5c0,0.1,0,0.2,0,0.3h-2.1c0,0.6,0.4,0.9,0.8,0.9
		c0.2,0,0.5-0.1,0.7-0.3l0.3,0.4c-0.2,0.2-0.6,0.4-1,0.4C329.6,14.5,329.1,13.8,329.1,12.9z M331.2,12.6c0-0.7-0.4-0.9-0.7-0.9
		c-0.4,0-0.8,0.3-0.8,0.9H331.2z"/>
</g>
<g class="st1">
	<path d="M336.1,13.4h-1.7l-0.4,1h-0.5l1.5-4.2h0.5l1.5,4.2h-0.5L336.1,13.4z M335.4,11.4c0-0.1-0.1-0.3-0.1-0.4
		c0,0.1-0.1,0.3-0.1,0.4l-0.5,1.6h1.3L335.4,11.4z"/>
	<path d="M339.6,12.5c0-0.6-0.3-0.8-0.7-0.8c-0.4,0-0.7,0.2-0.7,0.8v1.9h-0.5v-3.1h0.5v0.3c0.2-0.3,0.5-0.4,0.8-0.4
		c0.7,0,1.1,0.4,1.1,1.4v1.8h-0.5V12.5z"/>
	<path d="M341.8,15.2c0.9-0.1,1.2-0.4,1.2-0.8v-0.4c-0.2,0.2-0.4,0.4-0.8,0.4c-0.7,0-1.3-0.5-1.3-1.6c0-1,0.5-1.6,1.3-1.6
		c0.4,0,0.7,0.2,0.8,0.3v-0.3h0.5v2.9c0,1-0.6,1.3-1.4,1.4L341.8,15.2z M343,13.6v-1.4c-0.2-0.3-0.5-0.4-0.7-0.4
		c-0.5,0-0.8,0.4-0.8,1.1c0,0.7,0.3,1.1,0.8,1.1C342.6,14,342.8,13.8,343,13.6z"/>
	<path d="M346.3,14.1c-0.2,0.2-0.5,0.4-0.9,0.4c-0.6,0-1.1-0.3-1.1-1c0-0.7,0.6-1,1.1-1c0.3,0,0.5,0.1,0.8,0.2v-0.2
		c0-0.5-0.3-0.7-0.7-0.7c-0.3,0-0.7,0.1-0.9,0.3l-0.2-0.4c0.2-0.2,0.6-0.3,1.1-0.3c0.5,0,1.1,0.2,1.1,1.1v2h-0.5V14.1z M346.3,13.6
		v-0.5c-0.2-0.1-0.5-0.2-0.7-0.2c-0.4,0-0.7,0.2-0.7,0.6c0,0.3,0.2,0.6,0.7,0.6C345.8,14,346.1,13.8,346.3,13.6z"/>
</g>
<g class="st1">
	<path d="M348.3,14.1v0.3h-0.5v-4.1l0.5-0.2v1.5c0.2-0.2,0.5-0.3,0.8-0.3c0.8,0,1.3,0.6,1.3,1.6c0,1-0.5,1.6-1.3,1.6
		C348.7,14.5,348.5,14.3,348.3,14.1z M349.8,12.9c0-0.7-0.3-1.1-0.8-1.1c-0.3,0-0.6,0.2-0.7,0.4v1.4c0.2,0.3,0.4,0.4,0.7,0.4
		C349.5,14,349.8,13.6,349.8,12.9z"/>
</g>
<g class="st1">
	<path d="M351,12.9c0-1,0.5-1.6,1.4-1.6c0.7,0,1.3,0.5,1.3,1.5c0,0.1,0,0.2,0,0.3h-2.1c0,0.6,0.4,0.9,0.8,0.9c0.2,0,0.5-0.1,0.7-0.3
		l0.3,0.4c-0.2,0.2-0.6,0.4-1,0.4C351.5,14.5,351,13.8,351,12.9z M353.1,12.6c0-0.7-0.4-0.9-0.7-0.9c-0.4,0-0.8,0.3-0.8,0.9H353.1z"
		/>
</g>
<g>
	<path class="st4" d="M2.6,32.4c1.4,0,2.6-1.2,2.6-2.6S4,27.2,2.6,27.2S0,28.4,0,29.8S1.2,32.4,2.6,32.4"/>
</g>
<g class="st1">
	<path d="M12.3,31h-2.2l-0.5,1.4H8.9l2-5.6h0.6l2,5.6h-0.7L12.3,31z M11.4,28.3c-0.1-0.2-0.1-0.4-0.2-0.6c0,0.1-0.1,0.4-0.2,0.6
		l-0.7,2.1h1.8L11.4,28.3z"/>
	<path d="M14.6,27l0.7-0.3v5.8h-0.7V27z"/>
	<path d="M16.7,27l0.7-0.3v5.8h-0.7V27z"/>
</g>
<g class="st1">
	<path d="M19.1,31.5v-2.6h-0.7v-0.6h0.7V27l0.7-0.3v1.7h1v0.6h-1v2.4c0,0.3,0.1,0.6,0.4,0.6c0.2,0,0.4-0.1,0.6-0.2l-0.1,0.7
		c-0.2,0.1-0.5,0.2-0.8,0.2C19.4,32.5,19.1,32.1,19.1,31.5z"/>
</g>
<g class="st1">
	<path d="M24.1,32c-0.3,0.3-0.7,0.5-1.2,0.5c-0.8,0-1.4-0.5-1.4-1.4c0-0.9,0.7-1.4,1.5-1.4c0.4,0,0.7,0.1,1.1,0.3v-0.3
		c0-0.7-0.4-0.9-0.9-0.9c-0.5,0-0.9,0.2-1.2,0.4l-0.2-0.6c0.3-0.2,0.9-0.4,1.5-0.4c0.6,0,1.5,0.2,1.5,1.5v2.7h-0.7V32z M22.2,27.2
		c0-0.2,0.2-0.4,0.4-0.4c0.2,0,0.4,0.2,0.4,0.4c0,0.2-0.2,0.4-0.4,0.4C22.4,27.6,22.2,27.4,22.2,27.2z M24.1,31.3v-0.7
		c-0.2-0.2-0.6-0.3-1-0.3c-0.5,0-1,0.2-1,0.8c0,0.5,0.3,0.8,0.9,0.8C23.5,31.9,23.9,31.6,24.1,31.3z M23.6,27.2
		c0-0.2,0.2-0.4,0.4-0.4c0.2,0,0.4,0.2,0.4,0.4c0,0.2-0.2,0.4-0.4,0.4C23.8,27.6,23.6,27.4,23.6,27.2z"/>
	<path d="M26.9,33.5c1.3-0.1,1.6-0.5,1.6-1V32c-0.2,0.3-0.6,0.5-1.1,0.5c-0.9,0-1.7-0.7-1.7-2.1c0-1.3,0.7-2.1,1.7-2.1
		c0.6,0,0.9,0.3,1,0.4v-0.3h0.7v3.9c0,1.3-0.8,1.8-1.9,1.8L26.9,33.5z M28.5,31.3v-1.9c-0.2-0.3-0.6-0.5-0.9-0.5
		c-0.7,0-1.1,0.5-1.1,1.5c0,0.9,0.5,1.5,1.1,1.5C27.9,31.8,28.3,31.6,28.5,31.3z"/>
	<path d="M30.5,27l0.7-0.3v5.8h-0.7V27z"/>
	<path d="M32.5,27.1c0-0.2,0.2-0.4,0.4-0.4c0.2,0,0.4,0.2,0.4,0.4c0,0.2-0.2,0.4-0.4,0.4C32.7,27.6,32.5,27.4,32.5,27.1z M32.6,28.3
		h0.7v4.1h-0.7V28.3z"/>
	<path d="M34.4,30.4c0-1.3,0.7-2.1,1.7-2.1c0.7,0,1.2,0.3,1.4,1l-0.7,0.2c-0.1-0.3-0.4-0.5-0.8-0.5c-0.7,0-1,0.6-1,1.5
		c0,0.9,0.3,1.5,1,1.5c0.4,0,0.7-0.2,0.8-0.6l0.6,0.2c-0.2,0.7-0.7,1-1.5,1C35,32.5,34.4,31.7,34.4,30.4z"/>
	<path d="M38.6,26.9l0.7-0.3v2.1c0.3-0.4,0.6-0.5,1.1-0.5c0.9,0,1.5,0.5,1.5,1.8v2.4h-0.7v-2.5c0-0.8-0.4-1.1-0.9-1.1
		c-0.5,0-0.9,0.3-0.9,1.1v2.5h-0.7V26.9z"/>
	<path d="M42.9,30.4c0-1.4,0.7-2.1,1.8-2.1c0.9,0,1.7,0.6,1.7,1.9c0,0.1,0,0.3,0,0.5h-2.8c0.1,0.8,0.5,1.2,1.1,1.2
		c0.3,0,0.6-0.1,0.9-0.4L46,32c-0.3,0.3-0.8,0.5-1.3,0.5C43.6,32.5,42.9,31.6,42.9,30.4z M45.7,30c0-0.9-0.6-1.2-1-1.2
		c-0.6,0-1.1,0.4-1.1,1.2H45.7z"/>
</g>
<g class="st1">
	<path d="M52,31h-2.2l-0.5,1.4h-0.7l2-5.6h0.6l2,5.6h-0.7L52,31z M51.1,28.3c-0.1-0.2-0.1-0.4-0.2-0.6c0,0.1-0.1,0.4-0.2,0.6
		L50,30.4h1.8L51.1,28.3z"/>
	<path d="M54.3,28.3H55v0.5c0.2-0.4,0.6-0.6,1-0.6c0.2,0,0.4,0.1,0.6,0.2l-0.1,0.7c-0.1-0.1-0.3-0.2-0.6-0.2c-0.4,0-0.9,0.3-0.9,1.2
		v2.3h-0.7V28.3z"/>
	<path d="M58.2,32v0.4h-0.7V27l0.7-0.3v2c0.2-0.3,0.6-0.4,1-0.4c1,0,1.7,0.8,1.7,2.1c0,1.4-0.6,2.1-1.7,2.1
		C58.7,32.5,58.4,32.3,58.2,32z M60.2,30.4c0-1-0.4-1.5-1.1-1.5c-0.5,0-0.8,0.3-1,0.5v1.9c0.2,0.3,0.6,0.6,1,0.6
		C59.8,31.8,60.2,31.3,60.2,30.4z"/>
	<path d="M61.7,30.4c0-1.4,0.7-2.1,1.8-2.1c0.9,0,1.7,0.6,1.7,1.9c0,0.1,0,0.3,0,0.5h-2.8c0.1,0.8,0.5,1.2,1.1,1.2
		c0.3,0,0.6-0.1,0.9-0.4l0.4,0.5c-0.3,0.3-0.8,0.5-1.3,0.5C62.4,32.5,61.7,31.6,61.7,30.4z M64.5,30c0-0.9-0.6-1.2-1-1.2
		c-0.6,0-1.1,0.4-1.1,1.2H64.5z"/>
	<path d="M66.2,27.1c0-0.2,0.2-0.4,0.4-0.4c0.2,0,0.4,0.2,0.4,0.4c0,0.2-0.2,0.4-0.4,0.4C66.4,27.6,66.2,27.4,66.2,27.1z M66.3,28.3
		H67v4.1h-0.7V28.3z"/>
	<path d="M68.5,31.5v-2.6h-0.7v-0.6h0.7V27l0.7-0.3v1.7h1v0.6h-1v2.4c0,0.3,0.1,0.6,0.4,0.6c0.2,0,0.4-0.1,0.6-0.2l-0.1,0.7
		c-0.2,0.1-0.5,0.2-0.8,0.2C68.8,32.5,68.5,32.1,68.5,31.5z"/>
	<path d="M71,31.8l0.5-0.4c0.2,0.2,0.6,0.5,1,0.5c0.4,0,0.8-0.2,0.8-0.5c0-0.4-0.5-0.6-0.9-0.8c-0.8-0.3-1.3-0.6-1.3-1.3
		c0-0.7,0.6-1.1,1.4-1.1c0.6,0,1.1,0.3,1.4,0.6l-0.5,0.4c-0.2-0.2-0.5-0.4-0.9-0.4c-0.4,0-0.7,0.2-0.7,0.5c0,0.3,0.4,0.5,0.9,0.7
		c0.7,0.3,1.3,0.6,1.3,1.4c0,0.7-0.6,1.2-1.5,1.2C71.9,32.5,71.3,32.2,71,31.8z"/>
	<path d="M74.6,28.3h0.7l1,2.7c0,0.1,0.1,0.3,0.1,0.4c0-0.1,0.1-0.3,0.1-0.4l1-2.7h0.7l-1.5,4.1h-0.6L74.6,28.3z"/>
	<path d="M78.9,30.4c0-1.4,0.7-2.1,1.8-2.1c0.9,0,1.7,0.6,1.7,1.9c0,0.1,0,0.3,0,0.5h-2.8c0.1,0.8,0.5,1.2,1.1,1.2
		c0.3,0,0.6-0.1,0.9-0.4L82,32c-0.3,0.3-0.8,0.5-1.3,0.5C79.6,32.5,78.9,31.6,78.9,30.4z M81.7,30c0-0.9-0.6-1.2-1-1.2
		c-0.6,0-1.1,0.4-1.1,1.2H81.7z"/>
	<path d="M83.4,28.3h0.7v0.5c0.2-0.4,0.6-0.6,1-0.6c0.2,0,0.4,0.1,0.6,0.2l-0.1,0.7c-0.1-0.1-0.3-0.2-0.6-0.2
		c-0.4,0-0.9,0.3-0.9,1.2v2.3h-0.7V28.3z"/>
</g>
<g class="st1">
	<path d="M86.3,28.3H87l0.6,2.7c0,0.2,0.1,0.3,0.1,0.4c0-0.1,0.1-0.3,0.1-0.4l0.8-2.7h0.6l0.8,2.7l0.1,0.4c0-0.1,0.1-0.3,0.1-0.4
		l0.6-2.7h0.7l-1,4.1h-0.6L89,30c0-0.2-0.1-0.4-0.2-0.5c0,0.2-0.1,0.4-0.1,0.5L88,32.4h-0.6L86.3,28.3z"/>
</g>
<g class="st1">
	<path d="M94.6,32c-0.3,0.3-0.7,0.5-1.2,0.5c-0.8,0-1.4-0.5-1.4-1.4c0-0.9,0.7-1.4,1.5-1.4c0.4,0,0.7,0.1,1.1,0.3v-0.3
		c0-0.7-0.4-0.9-0.9-0.9c-0.5,0-0.9,0.2-1.2,0.4l-0.2-0.6c0.3-0.2,0.9-0.4,1.5-0.4c0.6,0,1.5,0.2,1.5,1.5v2.7h-0.7V32z M94.6,31.3
		v-0.7c-0.2-0.2-0.6-0.3-1-0.3c-0.5,0-1,0.2-1,0.8c0,0.5,0.3,0.8,0.9,0.8C94,31.9,94.4,31.6,94.6,31.3z"/>
	<path d="M96.5,27l0.7-0.3v5.8h-0.7V27z"/>
</g>
<g class="st1">
	<path d="M98.8,31.5v-2.6h-0.7v-0.6h0.7V27l0.7-0.3v1.7h1v0.6h-1v2.4c0,0.3,0.1,0.6,0.4,0.6c0.2,0,0.4-0.1,0.6-0.2l-0.1,0.7
		c-0.2,0.1-0.5,0.2-0.8,0.2C99.1,32.5,98.8,32.1,98.8,31.5z"/>
</g>
<g class="st1">
	<path d="M103.9,32c-0.3,0.4-0.6,0.5-1,0.5c-1,0-1.5-0.5-1.5-1.8v-2.4h0.7v2.5c0,0.8,0.4,1.1,0.9,1.1c0.5,0,0.9-0.3,0.9-1.1v-2.5
		h0.7v4.1h-0.7V32z"/>
	<path d="M108.4,29.9c0-0.8-0.4-1.1-0.9-1.1c-0.5,0-0.9,0.3-0.9,1.1v2.5h-0.7v-4.1h0.7v0.4c0.3-0.4,0.6-0.5,1.1-0.5
		c0.9,0,1.5,0.5,1.5,1.8v2.4h-0.7V29.9z"/>
	<path d="M111.3,33.5c1.3-0.1,1.6-0.5,1.6-1V32c-0.2,0.3-0.6,0.5-1.1,0.5c-0.9,0-1.7-0.7-1.7-2.1c0-1.3,0.7-2.1,1.7-2.1
		c0.6,0,0.9,0.3,1,0.4v-0.3h0.7v3.9c0,1.3-0.8,1.8-1.9,1.8L111.3,33.5z M112.9,31.3v-1.9c-0.2-0.3-0.6-0.5-0.9-0.5
		c-0.7,0-1.1,0.5-1.1,1.5c0,0.9,0.5,1.5,1.1,1.5C112.3,31.8,112.7,31.6,112.9,31.3z"/>
</g>
<g>
	<path class="st4" d="M3.3,92.4c1.4,0,2.6-1.2,2.6-2.6s-1.2-2.6-2.6-2.6s-2.6,1.2-2.6,2.6C0.7,91.2,1.9,92.4,3.3,92.4"/>
</g>
<g class="st1">
	<path d="M14.5,92.4V89c0-0.2,0-0.5,0-0.6c-0.1,0.2-0.2,0.4-0.2,0.6l-1.5,3.5L11.3,89c-0.1-0.2-0.2-0.4-0.2-0.6c0,0.1,0,0.4,0,0.6
		v3.4h-0.7v-5.6H11l1.6,3.8l0.1,0.4c0-0.1,0.1-0.3,0.1-0.4l1.6-3.8h0.7v5.6H14.5z"/>
	<path d="M16.4,90.4c0-1.3,0.7-2.1,1.8-2.1S20,89,20,90.4c0,1.3-0.7,2.1-1.8,2.1S16.4,91.7,16.4,90.4z M19.3,90.4
		c0-0.9-0.4-1.5-1.1-1.5s-1.1,0.6-1.1,1.5c0,0.9,0.4,1.5,1.1,1.5C18.9,91.8,19.3,91.3,19.3,90.4z"/>
	<path d="M23.6,89.9c0-0.8-0.4-1.1-0.9-1.1c-0.5,0-0.9,0.3-0.9,1.1v2.5h-0.7v-4.1h0.7v0.4c0.3-0.4,0.6-0.5,1.1-0.5
		c0.9,0,1.5,0.5,1.5,1.8v2.4h-0.7V89.9z"/>
	<path d="M25.5,87.1c0-0.2,0.2-0.4,0.4-0.4c0.2,0,0.4,0.2,0.4,0.4c0,0.2-0.2,0.4-0.4,0.4C25.7,87.6,25.5,87.4,25.5,87.1z M25.6,88.3
		h0.7v4.1h-0.7V88.3z"/>
</g>
<g class="st1">
	<path d="M27.9,91.5v-2.6h-0.7v-0.6h0.7V87l0.7-0.3v1.7h1v0.6h-1v2.4c0,0.3,0.1,0.6,0.4,0.6c0.2,0,0.4-0.1,0.6-0.2l-0.1,0.7
		c-0.2,0.1-0.5,0.2-0.8,0.2C28.2,92.5,27.9,92.1,27.9,91.5z"/>
</g>
<g class="st1">
	<path d="M30.3,90.4c0-1.3,0.7-2.1,1.8-2.1c1.1,0,1.8,0.8,1.8,2.1c0,1.3-0.7,2.1-1.8,2.1C31.1,92.5,30.3,91.7,30.3,90.4z M33.3,90.4
		c0-0.9-0.4-1.5-1.1-1.5c-0.7,0-1.1,0.6-1.1,1.5c0,0.9,0.4,1.5,1.1,1.5C32.8,91.8,33.3,91.3,33.3,90.4z"/>
	<path d="M35,88.3h0.7v0.5c0.2-0.4,0.6-0.6,1-0.6c0.2,0,0.4,0.1,0.6,0.2l-0.1,0.7c-0.1-0.1-0.3-0.2-0.6-0.2c-0.4,0-0.9,0.3-0.9,1.2
		v2.3H35V88.3z"/>
	<path d="M38.1,87.1c0-0.2,0.2-0.4,0.4-0.4c0.2,0,0.4,0.2,0.4,0.4c0,0.2-0.2,0.4-0.4,0.4C38.3,87.6,38.1,87.4,38.1,87.1z M38.2,88.3
		h0.7v4.1h-0.7V88.3z"/>
	<path d="M42.8,89.9c0-0.8-0.4-1.1-0.9-1.1c-0.5,0-0.9,0.3-0.9,1.1v2.5h-0.7v-4.1h0.7v0.4c0.3-0.4,0.6-0.5,1.1-0.5
		c0.9,0,1.5,0.5,1.5,1.8v2.4h-0.7V89.9z"/>
	<path d="M45.7,93.5c1.3-0.1,1.6-0.5,1.6-1V92c-0.2,0.3-0.6,0.5-1.1,0.5c-0.9,0-1.7-0.7-1.7-2.1c0-1.3,0.7-2.1,1.7-2.1
		c0.6,0,0.9,0.3,1,0.4v-0.3h0.7v3.9c0,1.3-0.8,1.8-1.9,1.8L45.7,93.5z M47.2,91.3v-1.9c-0.2-0.3-0.6-0.5-0.9-0.5
		c-0.7,0-1.1,0.5-1.1,1.5c0,0.9,0.5,1.5,1.1,1.5C46.7,91.8,47,91.6,47.2,91.3z"/>
	<path d="M53.6,92c-0.3,0.4-0.6,0.5-1,0.5c-1,0-1.5-0.5-1.5-1.8v-2.4h0.7v2.5c0,0.8,0.4,1.1,0.9,1.1c0.5,0,0.9-0.3,0.9-1.1v-2.5h0.7
		v4.1h-0.7V92z"/>
	<path d="M58.1,89.9c0-0.8-0.4-1.1-0.9-1.1c-0.5,0-0.9,0.3-0.9,1.1v2.5h-0.7v-4.1h0.7v0.4c0.3-0.4,0.6-0.5,1.1-0.5
		c0.9,0,1.5,0.5,1.5,1.8v2.4h-0.7V89.9z"/>
	<path d="M59.9,90.4c0-1.3,0.7-2.1,1.7-2.1c0.5,0,0.8,0.2,1,0.4V87l0.7-0.3v5.8h-0.7v-0.3c-0.2,0.2-0.5,0.4-1,0.4
		C60.5,92.5,59.9,91.7,59.9,90.4z M62.6,91.3v-1.9c-0.2-0.2-0.5-0.5-0.9-0.5c-0.7,0-1.1,0.5-1.1,1.5c0,0.8,0.4,1.5,1.1,1.5
		C62,91.8,62.4,91.6,62.6,91.3z"/>
	<path d="M66.5,86.8h3.3v0.7h-2.6v1.7H69v0.7h-1.7v1.9h2.8v0.7h-3.5V86.8z"/>
</g>
<g class="st1">
	<path d="M70.8,88.3h0.7l1,2.7c0,0.1,0.1,0.3,0.1,0.4c0-0.1,0.1-0.3,0.1-0.4l1-2.7h0.7l-1.5,4.1h-0.6L70.8,88.3z"/>
</g>
<g class="st1">
	<path d="M77.5,92c-0.3,0.3-0.7,0.5-1.2,0.5c-0.8,0-1.4-0.5-1.4-1.4c0-0.9,0.7-1.4,1.5-1.4c0.4,0,0.7,0.1,1.1,0.3v-0.3
		c0-0.7-0.4-0.9-0.9-0.9c-0.5,0-0.9,0.2-1.2,0.4l-0.2-0.6c0.3-0.2,0.9-0.4,1.5-0.4c0.6,0,1.5,0.2,1.5,1.5v2.7h-0.7V92z M77.5,91.3
		v-0.7c-0.2-0.2-0.6-0.3-1-0.3c-0.5,0-1,0.2-1,0.8c0,0.5,0.3,0.8,0.9,0.8C76.9,91.9,77.3,91.6,77.5,91.3z"/>
	<path d="M79.4,87l0.7-0.3v5.8h-0.7V87z"/>
	<path d="M84,92c-0.3,0.4-0.6,0.5-1,0.5c-1,0-1.5-0.5-1.5-1.8v-2.4h0.7v2.5c0,0.8,0.4,1.1,0.9,1.1c0.5,0,0.9-0.3,0.9-1.1v-2.5h0.7
		v4.1H84V92z"/>
	<path d="M88.3,92c-0.3,0.3-0.7,0.5-1.2,0.5c-0.8,0-1.4-0.5-1.4-1.4c0-0.9,0.7-1.4,1.5-1.4c0.4,0,0.7,0.1,1.1,0.3v-0.3
		c0-0.7-0.4-0.9-0.9-0.9c-0.5,0-0.9,0.2-1.2,0.4l-0.2-0.6c0.3-0.2,0.9-0.4,1.5-0.4c0.6,0,1.5,0.2,1.5,1.5v2.7h-0.7V92z M88.3,91.3
		v-0.7c-0.2-0.2-0.6-0.3-1-0.3c-0.5,0-1,0.2-1,0.8c0,0.5,0.3,0.8,0.9,0.8C87.7,91.9,88.1,91.6,88.3,91.3z"/>
	<path d="M90.4,91.5v-2.6h-0.7v-0.6h0.7V87l0.7-0.3v1.7h1v0.6h-1v2.4c0,0.3,0.1,0.6,0.4,0.6c0.2,0,0.4-0.1,0.6-0.2l-0.1,0.7
		c-0.2,0.1-0.5,0.2-0.8,0.2C90.7,92.5,90.4,92.1,90.4,91.5z"/>
	<path d="M93.1,87.1c0-0.2,0.2-0.4,0.4-0.4c0.2,0,0.4,0.2,0.4,0.4c0,0.2-0.2,0.4-0.4,0.4C93.3,87.6,93.1,87.4,93.1,87.1z M93.2,88.3
		h0.7v4.1h-0.7V88.3z"/>
	<path d="M95,90.4c0-1.3,0.7-2.1,1.8-2.1c1.1,0,1.8,0.8,1.8,2.1c0,1.3-0.7,2.1-1.8,2.1C95.7,92.5,95,91.7,95,90.4z M97.9,90.4
		c0-0.9-0.4-1.5-1.1-1.5c-0.7,0-1.1,0.6-1.1,1.5c0,0.9,0.4,1.5,1.1,1.5C97.5,91.8,97.9,91.3,97.9,90.4z"/>
	<path d="M102.2,89.9c0-0.8-0.4-1.1-0.9-1.1c-0.5,0-0.9,0.3-0.9,1.1v2.5h-0.7v-4.1h0.7v0.4c0.3-0.4,0.6-0.5,1.1-0.5
		c0.9,0,1.5,0.5,1.5,1.8v2.4h-0.7V89.9z"/>
</g>
<g>
	<path class="st4" d="M2.6,146.4c1.4,0,2.6-1.2,2.6-2.6c0-1.4-1.2-2.6-2.6-2.6S0,142.4,0,143.8S1.2,146.4,2.6,146.4"/>
</g>
<g class="st1">
	<path d="M10.8,140.8h2.1c1.4,0,1.8,0.8,1.8,1.7c0,0.8-0.5,1.7-1.8,1.7h-1.4v2.2h-0.7V140.8z M14,142.5c0-0.4-0.2-1-1.1-1h-1.5v2.1
		H13C13.8,143.5,14,143,14,142.5z"/>
	<path d="M15.7,142.3h0.7v0.5c0.2-0.4,0.6-0.6,1-0.6c0.2,0,0.4,0.1,0.6,0.2l-0.1,0.7c-0.1-0.1-0.3-0.2-0.6-0.2
		c-0.4,0-0.9,0.3-0.9,1.2v2.3h-0.7V142.3z"/>
	<path d="M18.6,144.4c0-1.3,0.7-2.1,1.8-2.1c1.1,0,1.8,0.8,1.8,2.1c0,1.3-0.7,2.1-1.8,2.1C19.3,146.5,18.6,145.7,18.6,144.4z
		 M21.5,144.4c0-0.9-0.4-1.5-1.1-1.5c-0.7,0-1.1,0.6-1.1,1.5c0,0.9,0.4,1.5,1.1,1.5C21.1,145.8,21.5,145.3,21.5,144.4z"/>
	<path d="M24.2,147.5c1.3-0.1,1.6-0.5,1.6-1V146c-0.2,0.3-0.6,0.5-1.1,0.5c-0.9,0-1.7-0.7-1.7-2.1c0-1.3,0.7-2.1,1.7-2.1
		c0.6,0,0.9,0.3,1,0.4v-0.3h0.7v3.9c0,1.3-0.8,1.8-1.9,1.8L24.2,147.5z M25.8,145.3v-1.9c-0.2-0.3-0.6-0.5-0.9-0.5
		c-0.7,0-1.1,0.5-1.1,1.5c0,0.9,0.5,1.5,1.1,1.5C25.2,145.8,25.6,145.6,25.8,145.3z"/>
</g>
<g class="st1">
	<path d="M27.9,142.3h0.7v0.5c0.2-0.4,0.6-0.6,1-0.6c0.2,0,0.4,0.1,0.6,0.2l-0.1,0.7c-0.1-0.1-0.3-0.2-0.6-0.2
		c-0.4,0-0.9,0.3-0.9,1.2v2.3h-0.7V142.3z"/>
</g>
<g class="st1">
	<path d="M33.2,146c-0.3,0.3-0.7,0.5-1.2,0.5c-0.8,0-1.4-0.5-1.4-1.4c0-0.9,0.7-1.4,1.5-1.4c0.4,0,0.7,0.1,1.1,0.3v-0.3
		c0-0.7-0.4-0.9-0.9-0.9c-0.5,0-0.9,0.2-1.2,0.4l-0.2-0.6c0.3-0.2,0.9-0.4,1.5-0.4c0.6,0,1.5,0.2,1.5,1.5v2.7h-0.7V146z M33.2,145.3
		v-0.7c-0.2-0.2-0.6-0.3-1-0.3c-0.5,0-1,0.2-1,0.8c0,0.5,0.3,0.8,0.9,0.8C32.6,145.9,33,145.6,33.2,145.3z"/>
	<path d="M39.9,143.9c0-0.6-0.2-1.1-0.8-1.1c-0.5,0-0.9,0.4-0.9,1.1v2.5h-0.7v-2.5c0-0.6-0.2-1.1-0.8-1.1c-0.5,0-0.9,0.4-0.9,1.1
		v2.5h-0.7v-4.1h0.7v0.4c0.2-0.3,0.6-0.5,1.1-0.5c0.4,0,0.9,0.2,1.1,0.6c0.2-0.4,0.7-0.6,1.2-0.6c0.8,0,1.4,0.5,1.4,1.5v2.7h-0.7
		V143.9z"/>
	<path d="M46.6,143.9c0-0.6-0.2-1.1-0.8-1.1c-0.5,0-0.9,0.4-0.9,1.1v2.5h-0.7v-2.5c0-0.6-0.2-1.1-0.8-1.1c-0.5,0-0.9,0.4-0.9,1.1
		v2.5h-0.7v-4.1h0.7v0.4c0.2-0.3,0.6-0.5,1.1-0.5c0.4,0,0.9,0.2,1.1,0.6c0.2-0.4,0.7-0.6,1.2-0.6c0.8,0,1.4,0.5,1.4,1.5v2.7h-0.7
		V143.9z"/>
	<path d="M49.3,146v1.7l-0.7,0.3v-5.7h0.7v0.3c0.2-0.2,0.5-0.4,1-0.4c1,0,1.7,0.8,1.7,2.1c0,1.4-0.7,2.1-1.7,2.1
		C49.8,146.5,49.5,146.3,49.3,146z M51.3,144.4c0-0.9-0.4-1.5-1.1-1.5c-0.4,0-0.8,0.2-1,0.6v1.9c0.2,0.3,0.5,0.6,1,0.6
		C50.9,145.8,51.3,145.3,51.3,144.4z"/>
	<path d="M53.2,141l0.7-0.3v5.8h-0.7V141z"/>
	<path d="M57.6,146c-0.3,0.3-0.7,0.5-1.2,0.5c-0.8,0-1.4-0.5-1.4-1.4c0-0.9,0.7-1.4,1.5-1.4c0.4,0,0.7,0.1,1.1,0.3v-0.3
		c0-0.7-0.4-0.9-0.9-0.9c-0.5,0-0.9,0.2-1.2,0.4l-0.2-0.6c0.3-0.2,0.9-0.4,1.5-0.4c0.6,0,1.5,0.2,1.5,1.5v2.7h-0.7V146z M57.6,145.3
		v-0.7c-0.2-0.2-0.6-0.3-1-0.3c-0.5,0-1,0.2-1,0.8c0,0.5,0.3,0.8,0.9,0.8C57,145.9,57.3,145.6,57.6,145.3z"/>
	<path d="M61.9,143.9c0-0.8-0.4-1.1-0.9-1.1c-0.5,0-0.9,0.3-0.9,1.1v2.5h-0.7v-4.1h0.7v0.4c0.3-0.4,0.6-0.5,1.1-0.5
		c0.9,0,1.5,0.5,1.5,1.8v2.4h-0.7V143.9z"/>
	<path d="M66.4,146c-0.3,0.4-0.6,0.5-1,0.5c-1,0-1.5-0.5-1.5-1.8v-2.4h0.7v2.5c0,0.8,0.4,1.1,0.9,1.1c0.5,0,0.9-0.3,0.9-1.1v-2.5
		h0.7v4.1h-0.7V146z"/>
	<path d="M71,143.9c0-0.8-0.4-1.1-0.9-1.1c-0.5,0-0.9,0.3-0.9,1.1v2.5h-0.7v-4.1h0.7v0.4c0.3-0.4,0.6-0.5,1.1-0.5
		c0.9,0,1.5,0.5,1.5,1.8v2.4H71V143.9z"/>
	<path d="M73.9,147.5c1.3-0.1,1.6-0.5,1.6-1V146c-0.2,0.3-0.6,0.5-1.1,0.5c-0.9,0-1.7-0.7-1.7-2.1c0-1.3,0.7-2.1,1.7-2.1
		c0.6,0,0.9,0.3,1,0.4v-0.3h0.7v3.9c0,1.3-0.8,1.8-1.9,1.8L73.9,147.5z M75.4,145.3v-1.9c-0.2-0.3-0.6-0.5-0.9-0.5
		c-0.7,0-1.1,0.5-1.1,1.5c0,0.9,0.5,1.5,1.1,1.5C74.8,145.8,75.2,145.6,75.4,145.3z"/>
	<path d="M81.8,146c-0.3,0.4-0.6,0.5-1,0.5c-1,0-1.5-0.5-1.5-1.8v-2.4h0.7v2.5c0,0.8,0.4,1.1,0.9,1.1c0.5,0,0.9-0.3,0.9-1.1v-2.5
		h0.7v4.1h-0.7V146z"/>
	<path d="M86.3,143.9c0-0.8-0.4-1.1-0.9-1.1c-0.5,0-0.9,0.3-0.9,1.1v2.5h-0.7v-4.1h0.7v0.4c0.3-0.4,0.6-0.5,1.1-0.5
		c0.9,0,1.5,0.5,1.5,1.8v2.4h-0.7V143.9z"/>
	<path d="M88,144.4c0-1.3,0.7-2.1,1.7-2.1c0.5,0,0.8,0.2,1,0.4V141l0.7-0.3v5.8h-0.7v-0.3c-0.2,0.2-0.5,0.4-1,0.4
		C88.7,146.5,88,145.7,88,144.4z M90.8,145.3v-1.9c-0.2-0.2-0.5-0.5-0.9-0.5c-0.7,0-1.1,0.5-1.1,1.5c0,0.8,0.4,1.5,1.1,1.5
		C90.2,145.8,90.6,145.6,90.8,145.3z"/>
</g>
<g class="st1">
	<path d="M10.7,155.7h1.9v0.7h-1.9V155.7z"/>
	<path d="M13.8,153.1c0-0.2,0.2-0.4,0.4-0.4c0.2,0,0.4,0.2,0.4,0.4c0,0.2-0.2,0.4-0.4,0.4C14,153.6,13.8,153.4,13.8,153.1z
		 M13.9,154.3h0.7v4.1h-0.7V154.3z"/>
	<path d="M20.7,155.9c0-0.6-0.2-1.1-0.8-1.1c-0.5,0-0.9,0.4-0.9,1.1v2.5h-0.7v-2.5c0-0.6-0.2-1.1-0.8-1.1c-0.5,0-0.9,0.4-0.9,1.1
		v2.5h-0.7v-4.1h0.7v0.4c0.2-0.3,0.6-0.5,1.1-0.5c0.4,0,0.9,0.2,1.1,0.6c0.2-0.4,0.7-0.6,1.2-0.6c0.8,0,1.4,0.5,1.4,1.5v2.7h-0.7
		V155.9z"/>
	<path d="M23.4,158v1.7l-0.7,0.3v-5.7h0.7v0.3c0.2-0.2,0.5-0.4,1-0.4c1,0,1.7,0.8,1.7,2.1c0,1.4-0.7,2.1-1.7,2.1
		C23.9,158.5,23.6,158.3,23.4,158z M25.4,156.4c0-0.9-0.4-1.5-1.1-1.5c-0.4,0-0.8,0.2-1,0.6v1.9c0.2,0.3,0.5,0.6,1,0.6
		C25,157.8,25.4,157.3,25.4,156.4z"/>
	<path d="M27.2,153l0.7-0.3v5.8h-0.7V153z"/>
	<path d="M29,156.4c0-1.4,0.7-2.1,1.8-2.1c0.9,0,1.7,0.6,1.7,1.9c0,0.1,0,0.3,0,0.5h-2.8c0.1,0.8,0.5,1.2,1.1,1.2
		c0.3,0,0.6-0.1,0.9-0.4l0.4,0.5c-0.3,0.3-0.8,0.5-1.3,0.5C29.7,158.5,29,157.6,29,156.4z M31.8,156c0-0.9-0.6-1.2-1-1.2
		c-0.6,0-1.1,0.4-1.1,1.2H31.8z"/>
	<path d="M38.4,155.9c0-0.6-0.2-1.1-0.8-1.1c-0.5,0-0.9,0.4-0.9,1.1v2.5H36v-2.5c0-0.6-0.2-1.1-0.8-1.1c-0.5,0-0.9,0.4-0.9,1.1v2.5
		h-0.7v-4.1h0.7v0.4c0.2-0.3,0.6-0.5,1.1-0.5c0.4,0,0.9,0.2,1.1,0.6c0.2-0.4,0.7-0.6,1.2-0.6c0.8,0,1.4,0.5,1.4,1.5v2.7h-0.7V155.9z
		"/>
	<path d="M40.1,156.4c0-1.4,0.7-2.1,1.8-2.1c0.9,0,1.7,0.6,1.7,1.9c0,0.1,0,0.3,0,0.5h-2.8c0.1,0.8,0.5,1.2,1.1,1.2
		c0.3,0,0.6-0.1,0.9-0.4l0.4,0.5c-0.3,0.3-0.8,0.5-1.3,0.5C40.8,158.5,40.1,157.6,40.1,156.4z M42.9,156c0-0.9-0.6-1.2-1-1.2
		c-0.6,0-1.1,0.4-1.1,1.2H42.9z"/>
	<path d="M47.2,155.9c0-0.8-0.4-1.1-0.9-1.1c-0.5,0-0.9,0.3-0.9,1.1v2.5h-0.7v-4.1h0.7v0.4c0.3-0.4,0.6-0.5,1.1-0.5
		c0.9,0,1.5,0.5,1.5,1.8v2.4h-0.7V155.9z"/>
	<path d="M49.4,157.5v-2.6h-0.7v-0.6h0.7V153l0.7-0.3v1.7h1v0.6h-1v2.4c0,0.3,0.1,0.6,0.4,0.6c0.2,0,0.4-0.1,0.6-0.2l-0.1,0.7
		c-0.2,0.1-0.5,0.2-0.8,0.2C49.6,158.5,49.4,158.1,49.4,157.5z"/>
	<path d="M52.1,153.1c0-0.2,0.2-0.4,0.4-0.4c0.2,0,0.4,0.2,0.4,0.4c0,0.2-0.2,0.4-0.4,0.4C52.2,153.6,52.1,153.4,52.1,153.1z
		 M52.1,154.3h0.7v4.1h-0.7V154.3z"/>
	<path d="M53.9,156.4c0-1.4,0.7-2.1,1.8-2.1c0.9,0,1.7,0.6,1.7,1.9c0,0.1,0,0.3,0,0.5h-2.8c0.1,0.8,0.5,1.2,1.1,1.2
		c0.3,0,0.6-0.1,0.9-0.4l0.4,0.5c-0.3,0.3-0.8,0.5-1.3,0.5C54.6,158.5,53.9,157.6,53.9,156.4z M56.7,156c0-0.9-0.6-1.2-1-1.2
		c-0.6,0-1.1,0.4-1.1,1.2H56.7z"/>
</g>
<g class="st1">
	<path d="M58.5,154.3h0.7v0.5c0.2-0.4,0.6-0.6,1-0.6c0.2,0,0.4,0.1,0.6,0.2l-0.1,0.7c-0.1-0.1-0.3-0.2-0.6-0.2
		c-0.4,0-0.9,0.3-0.9,1.2v2.3h-0.7V154.3z"/>
</g>
<g class="st1">
	<path d="M64,158c-0.3,0.4-0.6,0.5-1,0.5c-1,0-1.5-0.5-1.5-1.8v-2.4h0.7v2.5c0,0.8,0.4,1.1,0.9,1.1c0.5,0,0.9-0.3,0.9-1.1v-2.5h0.7
		v4.1H64V158z"/>
	<path d="M68.6,155.9c0-0.8-0.4-1.1-0.9-1.1c-0.5,0-0.9,0.3-0.9,1.1v2.5h-0.7v-4.1h0.7v0.4c0.3-0.4,0.6-0.5,1.1-0.5
		c0.9,0,1.5,0.5,1.5,1.8v2.4h-0.7V155.9z"/>
	<path d="M71.5,159.5c1.3-0.1,1.6-0.5,1.6-1V158c-0.2,0.3-0.6,0.5-1.1,0.5c-0.9,0-1.7-0.7-1.7-2.1c0-1.3,0.7-2.1,1.7-2.1
		c0.6,0,0.9,0.3,1,0.4v-0.3h0.7v3.9c0,1.3-0.8,1.8-1.9,1.8L71.5,159.5z M73.1,157.3v-1.9c-0.2-0.3-0.6-0.5-0.9-0.5
		c-0.7,0-1.1,0.5-1.1,1.5c0,0.9,0.5,1.5,1.1,1.5C72.5,157.8,72.9,157.6,73.1,157.3z"/>
</g>
<g>
	<path class="st4" d="M2.6,206.4c1.4,0,2.6-1.2,2.6-2.6s-1.2-2.6-2.6-2.6S0,202.4,0,203.8S1.2,206.4,2.6,206.4"/>
</g>
<g class="st1">
	<path d="M9.6,200.8h2.2c1.3,0,1.8,0.8,1.8,1.6c0,0.7-0.4,1.4-1.3,1.6l1.2,2.4h-0.8l-1.2-2.4h-1.2v2.4H9.6V200.8z M11.9,203.4
		c0.8,0,1-0.5,1-0.9c0-0.4-0.2-1-1-1h-1.5v1.9H11.9z"/>
	<path d="M14.6,204.4c0-1.4,0.7-2.1,1.8-2.1c0.9,0,1.7,0.6,1.7,1.9c0,0.1,0,0.3,0,0.5h-2.8c0.1,0.8,0.5,1.2,1.1,1.2
		c0.3,0,0.6-0.1,0.9-0.4l0.4,0.5c-0.3,0.3-0.8,0.5-1.3,0.5C15.3,206.5,14.6,205.6,14.6,204.4z M17.4,204c0-0.9-0.6-1.2-1-1.2
		c-0.6,0-1.1,0.4-1.1,1.2H17.4z"/>
	<path d="M19.8,206v1.7l-0.7,0.3v-5.7h0.7v0.3c0.2-0.2,0.5-0.4,1-0.4c1,0,1.7,0.8,1.7,2.1c0,1.4-0.7,2.1-1.7,2.1
		C20.4,206.5,20.1,206.3,19.8,206z M21.9,204.4c0-0.9-0.4-1.5-1.1-1.5c-0.4,0-0.8,0.2-1,0.6v1.9c0.2,0.3,0.5,0.6,1,0.6
		C21.5,205.8,21.9,205.3,21.9,204.4z"/>
	<path d="M23.4,204.4c0-1.3,0.7-2.1,1.8-2.1c1.1,0,1.8,0.8,1.8,2.1c0,1.3-0.7,2.1-1.8,2.1C24.1,206.5,23.4,205.7,23.4,204.4z
		 M26.3,204.4c0-0.9-0.4-1.5-1.1-1.5c-0.7,0-1.1,0.6-1.1,1.5c0,0.9,0.4,1.5,1.1,1.5C25.9,205.8,26.3,205.3,26.3,204.4z"/>
</g>
<g class="st1">
	<path d="M28.2,202.3h0.7v0.5c0.2-0.4,0.6-0.6,1-0.6c0.2,0,0.4,0.1,0.6,0.2l-0.1,0.7c-0.1-0.1-0.3-0.2-0.6-0.2
		c-0.4,0-0.9,0.3-0.9,1.2v2.3h-0.7V202.3z"/>
</g>
<g class="st1">
	<path d="M31.6,205.5v-2.6h-0.7v-0.6h0.7V201l0.7-0.3v1.7h1v0.6h-1v2.4c0,0.3,0.1,0.6,0.4,0.6c0.2,0,0.4-0.1,0.6-0.2l-0.1,0.7
		c-0.2,0.1-0.5,0.2-0.8,0.2C31.9,206.5,31.6,206.1,31.6,205.5z"/>
	<path d="M34.3,201.1c0-0.2,0.2-0.4,0.4-0.4c0.2,0,0.4,0.2,0.4,0.4c0,0.2-0.2,0.4-0.4,0.4C34.5,201.6,34.3,201.4,34.3,201.1z
		 M34.4,202.3h0.7v4.1h-0.7V202.3z"/>
	<path d="M38.9,203.9c0-0.8-0.4-1.1-0.9-1.1c-0.5,0-0.9,0.3-0.9,1.1v2.5h-0.7v-4.1h0.7v0.4c0.3-0.4,0.6-0.5,1.1-0.5
		c0.9,0,1.5,0.5,1.5,1.8v2.4h-0.7V203.9z"/>
	<path d="M41.8,207.5c1.3-0.1,1.6-0.5,1.6-1V206c-0.2,0.3-0.6,0.5-1.1,0.5c-0.9,0-1.7-0.7-1.7-2.1c0-1.3,0.7-2.1,1.7-2.1
		c0.6,0,0.9,0.3,1,0.4v-0.3h0.7v3.9c0,1.3-0.8,1.8-1.9,1.8L41.8,207.5z M43.4,205.3v-1.9c-0.2-0.3-0.6-0.5-0.9-0.5
		c-0.7,0-1.1,0.5-1.1,1.5c0,0.9,0.5,1.5,1.1,1.5C42.8,205.8,43.2,205.6,43.4,205.3z"/>
	<path d="M49.7,206c-0.3,0.4-0.6,0.5-1,0.5c-1,0-1.5-0.5-1.5-1.8v-2.4h0.7v2.5c0,0.8,0.4,1.1,0.9,1.1c0.5,0,0.9-0.3,0.9-1.1v-2.5
		h0.7v4.1h-0.7V206z"/>
	<path d="M54.3,203.9c0-0.8-0.4-1.1-0.9-1.1c-0.5,0-0.9,0.3-0.9,1.1v2.5h-0.7v-4.1h0.7v0.4c0.3-0.4,0.6-0.5,1.1-0.5
		c0.9,0,1.5,0.5,1.5,1.8v2.4h-0.7V203.9z"/>
	<path d="M56,204.4c0-1.3,0.7-2.1,1.7-2.1c0.5,0,0.8,0.2,1,0.4V201l0.7-0.3v5.8h-0.7v-0.3c-0.2,0.2-0.5,0.4-1,0.4
		C56.7,206.5,56,205.7,56,204.4z M58.7,205.3v-1.9c-0.2-0.2-0.5-0.5-0.9-0.5c-0.7,0-1.1,0.5-1.1,1.5c0,0.8,0.4,1.5,1.1,1.5
		C58.2,205.8,58.5,205.6,58.7,205.3z"/>
</g>
<g class="st1">
	<path d="M64.4,203.3l-1,1.2v1.9h-0.7v-5.6h0.7v2.7l2.2-2.7h0.8l-1.5,1.9l2,3.7h-0.8L64.4,203.3z"/>
</g>
<g class="st1">
	<path d="M67.5,204.4c0-1.3,0.7-2.1,1.8-2.1c1.1,0,1.8,0.8,1.8,2.1c0,1.3-0.7,2.1-1.8,2.1C68.2,206.5,67.5,205.7,67.5,204.4z
		 M70.4,204.4c0-0.9-0.4-1.5-1.1-1.5c-0.7,0-1.1,0.6-1.1,1.5c0,0.9,0.4,1.5,1.1,1.5C70,205.8,70.4,205.3,70.4,204.4z"/>
	<path d="M77,203.9c0-0.6-0.2-1.1-0.8-1.1c-0.5,0-0.9,0.4-0.9,1.1v2.5h-0.7v-2.5c0-0.6-0.2-1.1-0.8-1.1c-0.5,0-0.9,0.4-0.9,1.1v2.5
		h-0.7v-4.1h0.7v0.4c0.2-0.3,0.6-0.5,1.1-0.5c0.4,0,0.9,0.2,1.1,0.6c0.2-0.4,0.7-0.6,1.2-0.6c0.8,0,1.4,0.5,1.4,1.5v2.7H77V203.9z"
		/>
	<path d="M83.8,203.9c0-0.6-0.2-1.1-0.8-1.1c-0.5,0-0.9,0.4-0.9,1.1v2.5h-0.7v-2.5c0-0.6-0.2-1.1-0.8-1.1c-0.5,0-0.9,0.4-0.9,1.1
		v2.5H79v-4.1h0.7v0.4c0.2-0.3,0.6-0.5,1.1-0.5c0.4,0,0.9,0.2,1.1,0.6c0.2-0.4,0.7-0.6,1.2-0.6c0.8,0,1.4,0.5,1.4,1.5v2.7h-0.7
		V203.9z"/>
	<path d="M88.3,206c-0.3,0.4-0.6,0.5-1,0.5c-1,0-1.5-0.5-1.5-1.8v-2.4h0.7v2.5c0,0.8,0.4,1.1,0.9,1.1c0.5,0,0.9-0.3,0.9-1.1v-2.5
		h0.7v4.1h-0.7V206z"/>
	<path d="M92.8,203.9c0-0.8-0.4-1.1-0.9-1.1c-0.5,0-0.9,0.3-0.9,1.1v2.5h-0.7v-4.1H91v0.4c0.3-0.4,0.6-0.5,1.1-0.5
		c0.9,0,1.5,0.5,1.5,1.8v2.4h-0.7V203.9z"/>
	<path d="M94.7,201.1c0-0.2,0.2-0.4,0.4-0.4c0.2,0,0.4,0.2,0.4,0.4c0,0.2-0.2,0.4-0.4,0.4C94.9,201.6,94.7,201.4,94.7,201.1z
		 M94.8,202.3h0.7v4.1h-0.7V202.3z"/>
</g>
<g class="st1">
	<path d="M99.4,206.4l-1.3-2.5l-0.6,0.6v1.8h-0.7V201l0.7-0.3v3.1l1.3-1.4h0.8l-1.1,1.1l1.5,3H99.4z"/>
</g>
<g class="st1">
	<path d="M103.2,206c-0.3,0.3-0.7,0.5-1.2,0.5c-0.8,0-1.4-0.5-1.4-1.4c0-0.9,0.7-1.4,1.5-1.4c0.4,0,0.7,0.1,1.1,0.3v-0.3
		c0-0.7-0.4-0.9-0.9-0.9c-0.5,0-0.9,0.2-1.2,0.4l-0.2-0.6c0.3-0.2,0.9-0.4,1.5-0.4c0.6,0,1.5,0.2,1.5,1.5v2.7h-0.7V206z
		 M103.2,205.3v-0.7c-0.2-0.2-0.6-0.3-1-0.3c-0.5,0-1,0.2-1,0.8c0,0.5,0.3,0.8,0.9,0.8C102.6,205.9,103,205.6,103.2,205.3z"/>
	<path d="M105.3,205.5v-2.6h-0.7v-0.6h0.7V201l0.7-0.3v1.7h1v0.6h-1v2.4c0,0.3,0.1,0.6,0.4,0.6c0.2,0,0.4-0.1,0.6-0.2l-0.1,0.7
		c-0.2,0.1-0.5,0.2-0.8,0.2C105.6,206.5,105.3,206.1,105.3,205.5z"/>
	<path d="M108,201.1c0-0.2,0.2-0.4,0.4-0.4c0.2,0,0.4,0.2,0.4,0.4c0,0.2-0.2,0.4-0.4,0.4C108.2,201.6,108,201.4,108,201.1z
		 M108.1,202.3h0.7v4.1h-0.7V202.3z"/>
	<path d="M109.9,204.4c0-1.3,0.7-2.1,1.8-2.1c1.1,0,1.8,0.8,1.8,2.1c0,1.3-0.7,2.1-1.8,2.1C110.6,206.5,109.9,205.7,109.9,204.4z
		 M112.8,204.4c0-0.9-0.4-1.5-1.1-1.5c-0.7,0-1.1,0.6-1.1,1.5c0,0.9,0.4,1.5,1.1,1.5C112.4,205.8,112.8,205.3,112.8,204.4z"/>
	<path d="M117.1,203.9c0-0.8-0.4-1.1-0.9-1.1c-0.5,0-0.9,0.3-0.9,1.1v2.5h-0.7v-4.1h0.7v0.4c0.3-0.4,0.6-0.5,1.1-0.5
		c0.9,0,1.5,0.5,1.5,1.8v2.4h-0.7V203.9z"/>
</g>
<g>
	<path class="st4" d="M2.6,260.4c1.4,0,2.6-1.2,2.6-2.6s-1.2-2.6-2.6-2.6S0,256.4,0,257.8C0,259.2,1.2,260.4,2.6,260.4"/>
</g>
<g class="st1">
	<path d="M9.5,259.2l0.7-0.2c0.2,0.5,0.7,0.8,1.3,0.8c0.7,0,1.1-0.3,1.1-0.9c0-0.6-0.6-0.9-1.3-1.2c-0.8-0.3-1.6-0.6-1.6-1.6
		c0-0.8,0.6-1.4,1.7-1.4c0.9,0,1.5,0.4,1.6,1l-0.6,0.2c-0.1-0.3-0.5-0.6-1-0.6c-0.6,0-1,0.3-1,0.7c0,0.5,0.6,0.8,1.2,1
		c0.8,0.3,1.7,0.7,1.7,1.8c0,1-0.8,1.6-1.8,1.6C10.4,260.5,9.7,260,9.5,259.2z"/>
	<path d="M14.7,259.5v-2.6H14v-0.6h0.7V255l0.7-0.3v1.7h1v0.6h-1v2.4c0,0.3,0.1,0.6,0.4,0.6c0.2,0,0.4-0.1,0.6-0.2l-0.1,0.7
		c-0.2,0.1-0.5,0.2-0.8,0.2C14.9,260.5,14.7,260.1,14.7,259.5z"/>
</g>
<g class="st1">
	<path d="M17.5,256.3h0.7v0.5c0.2-0.4,0.6-0.6,1-0.6c0.2,0,0.4,0.1,0.6,0.2l-0.1,0.7c-0.1-0.1-0.3-0.2-0.6-0.2
		c-0.4,0-0.9,0.3-0.9,1.2v2.3h-0.7V256.3z"/>
</g>
<g class="st1">
	<path d="M22.8,260c-0.3,0.3-0.7,0.5-1.2,0.5c-0.8,0-1.4-0.5-1.4-1.4c0-0.9,0.7-1.4,1.5-1.4c0.4,0,0.7,0.1,1.1,0.3v-0.3
		c0-0.7-0.4-0.9-0.9-0.9c-0.5,0-0.9,0.2-1.2,0.4l-0.2-0.6c0.3-0.2,0.9-0.4,1.5-0.4c0.6,0,1.5,0.2,1.5,1.5v2.7h-0.7V260z M22.8,259.3
		v-0.7c-0.2-0.2-0.6-0.3-1-0.3c-0.5,0-1,0.2-1,0.8c0,0.5,0.3,0.8,0.9,0.8C22.2,259.9,22.6,259.6,22.8,259.3z"/>
</g>
<g class="st1">
	<path d="M24.9,259.5v-2.6h-0.7v-0.6h0.7V255l0.7-0.3v1.7h1v0.6h-1v2.4c0,0.3,0.1,0.6,0.4,0.6c0.2,0,0.4-0.1,0.6-0.2l-0.1,0.7
		c-0.2,0.1-0.5,0.2-0.8,0.2C25.2,260.5,24.9,260.1,24.9,259.5z"/>
</g>
<g class="st1">
	<path d="M27.3,258.4c0-1.4,0.7-2.1,1.8-2.1c0.9,0,1.7,0.6,1.7,1.9c0,0.1,0,0.3,0,0.5H28c0.1,0.8,0.5,1.2,1.1,1.2
		c0.3,0,0.6-0.1,0.9-0.4l0.4,0.5c-0.3,0.3-0.8,0.5-1.3,0.5C28,260.5,27.3,259.6,27.3,258.4z M30.1,258c0-0.9-0.6-1.2-1-1.2
		c-0.6,0-1.1,0.4-1.1,1.2H30.1z"/>
	<path d="M32.8,261.5c1.3-0.1,1.6-0.5,1.6-1V260c-0.2,0.3-0.6,0.5-1.1,0.5c-0.9,0-1.7-0.7-1.7-2.1c0-1.3,0.7-2.1,1.7-2.1
		c0.6,0,0.9,0.3,1,0.4v-0.3h0.7v3.9c0,1.3-0.8,1.8-1.9,1.8L32.8,261.5z M34.4,259.3v-1.9c-0.2-0.3-0.6-0.5-0.9-0.5
		c-0.7,0-1.1,0.5-1.1,1.5c0,0.9,0.5,1.5,1.1,1.5C33.8,259.8,34.1,259.6,34.4,259.3z"/>
	<path d="M36.3,255.1c0-0.2,0.2-0.4,0.4-0.4c0.2,0,0.4,0.2,0.4,0.4c0,0.2-0.2,0.4-0.4,0.4C36.5,255.6,36.3,255.4,36.3,255.1z
		 M36.4,256.3h0.7v4.1h-0.7V256.3z"/>
	<path d="M38.1,259.8l0.5-0.4c0.2,0.2,0.6,0.5,1,0.5c0.4,0,0.8-0.2,0.8-0.5c0-0.4-0.5-0.6-0.9-0.8c-0.8-0.3-1.3-0.6-1.3-1.3
		c0-0.7,0.6-1.1,1.4-1.1c0.6,0,1.1,0.3,1.4,0.6l-0.5,0.4c-0.2-0.2-0.5-0.4-0.9-0.4c-0.4,0-0.7,0.2-0.7,0.5c0,0.3,0.4,0.5,0.9,0.7
		c0.7,0.3,1.3,0.6,1.3,1.4c0,0.7-0.6,1.2-1.5,1.2C39,260.5,38.5,260.2,38.1,259.8z"/>
	<path d="M41.9,258.4c0-1.3,0.7-2.1,1.7-2.1c0.7,0,1.2,0.3,1.4,1l-0.7,0.2c-0.1-0.3-0.4-0.5-0.8-0.5c-0.7,0-1,0.6-1,1.5
		c0,0.9,0.3,1.5,1,1.5c0.4,0,0.7-0.2,0.8-0.6l0.6,0.2c-0.2,0.7-0.7,1-1.5,1C42.6,260.5,41.9,259.7,41.9,258.4z"/>
	<path d="M46.2,254.9l0.7-0.3v2.1c0.3-0.4,0.6-0.5,1.1-0.5c0.9,0,1.5,0.5,1.5,1.8v2.4h-0.7v-2.5c0-0.8-0.4-1.1-0.9-1.1
		c-0.5,0-0.9,0.3-0.9,1.1v2.5h-0.7V254.9z"/>
	<path d="M50.4,258.4c0-1.4,0.7-2.1,1.8-2.1c0.9,0,1.7,0.6,1.7,1.9c0,0.1,0,0.3,0,0.5h-2.8c0.1,0.8,0.5,1.2,1.1,1.2
		c0.3,0,0.6-0.1,0.9-0.4l0.4,0.5c-0.3,0.3-0.8,0.5-1.3,0.5C51.1,260.5,50.4,259.6,50.4,258.4z M53.2,258c0-0.9-0.6-1.2-1-1.2
		c-0.6,0-1.1,0.4-1.1,1.2H53.2z"/>
	<path d="M56.9,254.8h2.1c1.4,0,1.8,0.8,1.8,1.7c0,0.8-0.5,1.7-1.8,1.7h-1.4v2.2h-0.7V254.8z M60.2,256.5c0-0.4-0.2-1-1.1-1h-1.5
		v2.1h1.5C59.9,257.5,60.2,257,60.2,256.5z"/>
	<path d="M61.9,255l0.7-0.3v5.8h-0.7V255z"/>
	<path d="M66.3,260c-0.3,0.3-0.7,0.5-1.2,0.5c-0.8,0-1.4-0.5-1.4-1.4c0-0.9,0.7-1.4,1.5-1.4c0.4,0,0.7,0.1,1.1,0.3v-0.3
		c0-0.7-0.4-0.9-0.9-0.9c-0.5,0-0.9,0.2-1.2,0.4l-0.2-0.6c0.3-0.2,0.9-0.4,1.5-0.4c0.6,0,1.5,0.2,1.5,1.5v2.7h-0.7V260z M66.3,259.3
		v-0.7c-0.2-0.2-0.6-0.3-1-0.3c-0.5,0-1,0.2-1,0.8c0,0.5,0.3,0.8,0.9,0.8C65.7,259.9,66.1,259.6,66.3,259.3z"/>
	<path d="M70.7,257.9c0-0.8-0.4-1.1-0.9-1.1c-0.5,0-0.9,0.3-0.9,1.1v2.5h-0.7v-4.1h0.7v0.4c0.3-0.4,0.6-0.5,1.1-0.5
		c0.9,0,1.5,0.5,1.5,1.8v2.4h-0.7V257.9z"/>
	<path d="M75.1,260c-0.3,0.4-0.6,0.5-1,0.5c-1,0-1.5-0.5-1.5-1.8v-2.4h0.7v2.5c0,0.8,0.4,1.1,0.9,1.1c0.5,0,0.9-0.3,0.9-1.1v-2.5
		h0.7v4.1h-0.7V260z"/>
	<path d="M79.7,257.9c0-0.8-0.4-1.1-0.9-1.1c-0.5,0-0.9,0.3-0.9,1.1v2.5h-0.7v-4.1h0.7v0.4c0.3-0.4,0.6-0.5,1.1-0.5
		c0.9,0,1.5,0.5,1.5,1.8v2.4h-0.7V257.9z"/>
	<path d="M82.6,261.5c1.3-0.1,1.6-0.5,1.6-1V260c-0.2,0.3-0.6,0.5-1.1,0.5c-0.9,0-1.7-0.7-1.7-2.1c0-1.3,0.7-2.1,1.7-2.1
		c0.6,0,0.9,0.3,1,0.4v-0.3h0.7v3.9c0,1.3-0.8,1.8-1.9,1.8L82.6,261.5z M84.1,259.3v-1.9c-0.2-0.3-0.6-0.5-0.9-0.5
		c-0.7,0-1.1,0.5-1.1,1.5c0,0.9,0.5,1.5,1.1,1.5C83.6,259.8,83.9,259.6,84.1,259.3z"/>
	<path d="M90.5,260c-0.3,0.4-0.6,0.5-1,0.5c-1,0-1.5-0.5-1.5-1.8v-2.4h0.7v2.5c0,0.8,0.4,1.1,0.9,1.1c0.5,0,0.9-0.3,0.9-1.1v-2.5
		h0.7v4.1h-0.7V260z"/>
	<path d="M95,257.9c0-0.8-0.4-1.1-0.9-1.1c-0.5,0-0.9,0.3-0.9,1.1v2.5h-0.7v-4.1h0.7v0.4c0.3-0.4,0.6-0.5,1.1-0.5
		c0.9,0,1.5,0.5,1.5,1.8v2.4H95V257.9z"/>
	<path d="M96.8,258.4c0-1.3,0.7-2.1,1.7-2.1c0.5,0,0.8,0.2,1,0.4V255l0.7-0.3v5.8h-0.7v-0.3c-0.2,0.2-0.5,0.4-1,0.4
		C97.4,260.5,96.8,259.7,96.8,258.4z M99.5,259.3v-1.9c-0.2-0.2-0.5-0.5-0.9-0.5c-0.7,0-1.1,0.5-1.1,1.5c0,0.8,0.4,1.5,1.1,1.5
		C98.9,259.8,99.3,259.6,99.5,259.3z"/>
</g>
<g class="st1">
	<path d="M9.8,266.8h3.3v0.7h-2.6v1.7h1.7v0.7h-1.7v1.9h2.8v0.7H9.8V266.8z"/>
	<path d="M17,269.9c0-0.8-0.4-1.1-0.9-1.1c-0.5,0-0.9,0.3-0.9,1.1v2.5h-0.7v-4.1h0.7v0.4c0.3-0.4,0.6-0.5,1.1-0.5
		c0.9,0,1.5,0.5,1.5,1.8v2.4H17V269.9z"/>
	<path d="M19.2,271.5v-2.6h-0.7v-0.6h0.7V267l0.7-0.3v1.7h1v0.6h-1v2.4c0,0.3,0.1,0.6,0.4,0.6c0.2,0,0.4-0.1,0.6-0.2l-0.1,0.7
		c-0.2,0.1-0.5,0.2-0.8,0.2C19.4,272.5,19.2,272.1,19.2,271.5z"/>
	<path d="M21.7,271.8l0.5-0.4c0.2,0.2,0.6,0.5,1,0.5c0.4,0,0.8-0.2,0.8-0.5c0-0.4-0.5-0.6-0.9-0.8c-0.8-0.3-1.3-0.6-1.3-1.3
		c0-0.7,0.6-1.1,1.4-1.1c0.6,0,1.1,0.3,1.4,0.6l-0.5,0.4c-0.2-0.2-0.5-0.4-0.9-0.4c-0.4,0-0.7,0.2-0.7,0.5c0,0.3,0.4,0.5,0.9,0.7
		c0.7,0.3,1.3,0.6,1.3,1.4c0,0.7-0.6,1.2-1.5,1.2C22.6,272.5,22,272.2,21.7,271.8z"/>
	<path d="M25.5,270.4c0-1.3,0.7-2.1,1.7-2.1c0.7,0,1.2,0.3,1.4,1l-0.7,0.2c-0.1-0.3-0.4-0.5-0.8-0.5c-0.7,0-1,0.6-1,1.5
		c0,0.9,0.3,1.5,1,1.5c0.4,0,0.7-0.2,0.8-0.6l0.6,0.2c-0.2,0.7-0.7,1-1.5,1C26.1,272.5,25.5,271.7,25.5,270.4z"/>
	<path d="M29.7,266.9l0.7-0.3v2.1c0.3-0.4,0.6-0.5,1.1-0.5c0.9,0,1.5,0.5,1.5,1.8v2.4h-0.7v-2.5c0-0.8-0.4-1.1-0.9-1.1
		c-0.5,0-0.9,0.3-0.9,1.1v2.5h-0.7V266.9z"/>
	<path d="M34,270.4c0-1.4,0.7-2.1,1.8-2.1c0.9,0,1.7,0.6,1.7,1.9c0,0.1,0,0.3,0,0.5h-2.8c0.1,0.8,0.5,1.2,1.1,1.2
		c0.3,0,0.6-0.1,0.9-0.4l0.4,0.5c-0.3,0.3-0.8,0.5-1.3,0.5C34.7,272.5,34,271.6,34,270.4z M36.8,270c0-0.9-0.6-1.2-1-1.2
		c-0.6,0-1.1,0.4-1.1,1.2H36.8z"/>
	<path d="M38.4,267.1c0-0.2,0.2-0.4,0.4-0.4c0.2,0,0.4,0.2,0.4,0.4c0,0.2-0.2,0.4-0.4,0.4C38.6,267.6,38.4,267.4,38.4,267.1z
		 M38.5,268.3h0.7v4.1h-0.7V268.3z"/>
	<path d="M40.3,270.4c0-1.3,0.7-2.1,1.7-2.1c0.5,0,0.8,0.2,1,0.4V267l0.7-0.3v5.8H43v-0.3c-0.2,0.2-0.5,0.4-1,0.4
		C41,272.5,40.3,271.7,40.3,270.4z M43,271.3v-1.9c-0.2-0.2-0.5-0.5-0.9-0.5c-0.7,0-1.1,0.5-1.1,1.5c0,0.8,0.4,1.5,1.1,1.5
		C42.5,271.8,42.8,271.6,43,271.3z"/>
	<path d="M47.5,272c-0.3,0.4-0.6,0.5-1,0.5c-1,0-1.5-0.5-1.5-1.8v-2.4h0.7v2.5c0,0.8,0.4,1.1,0.9,1.1c0.5,0,0.9-0.3,0.9-1.1v-2.5
		h0.7v4.1h-0.7V272z"/>
	<path d="M52.1,269.9c0-0.8-0.4-1.1-0.9-1.1c-0.5,0-0.9,0.3-0.9,1.1v2.5h-0.7v-4.1h0.7v0.4c0.3-0.4,0.6-0.5,1.1-0.5
		c0.9,0,1.5,0.5,1.5,1.8v2.4h-0.7V269.9z"/>
	<path d="M55,273.5c1.3-0.1,1.6-0.5,1.6-1V272c-0.2,0.3-0.6,0.5-1.1,0.5c-0.9,0-1.7-0.7-1.7-2.1c0-1.3,0.7-2.1,1.7-2.1
		c0.6,0,0.9,0.3,1,0.4v-0.3h0.7v3.9c0,1.3-0.8,1.8-1.9,1.8L55,273.5z M56.5,271.3v-1.9c-0.2-0.3-0.6-0.5-0.9-0.5
		c-0.7,0-1.1,0.5-1.1,1.5c0,0.9,0.5,1.5,1.1,1.5C56,271.8,56.3,271.6,56.5,271.3z"/>
	<path d="M58.3,271.8l0.5-0.4c0.2,0.2,0.6,0.5,1,0.5c0.4,0,0.8-0.2,0.8-0.5c0-0.4-0.5-0.6-0.9-0.8c-0.8-0.3-1.3-0.6-1.3-1.3
		c0-0.7,0.6-1.1,1.4-1.1c0.6,0,1.1,0.3,1.4,0.6l-0.5,0.4c-0.2-0.2-0.5-0.4-0.9-0.4c-0.4,0-0.7,0.2-0.7,0.5c0,0.3,0.4,0.5,0.9,0.7
		c0.7,0.3,1.3,0.6,1.3,1.4c0,0.7-0.6,1.2-1.5,1.2C59.2,272.5,58.6,272.2,58.3,271.8z"/>
	<path d="M63.2,272.4h-0.7v-3.5h-0.6v-0.6h0.6v-0.7c0-0.7,0.4-0.9,0.9-0.9c0.3,0,0.6,0.1,0.8,0.2v0.6c-0.2-0.1-0.4-0.2-0.6-0.2
		c-0.3,0-0.4,0.2-0.4,0.4v0.6h1v0.6h-1V272.4z M64.9,267.1c0-0.2,0.2-0.4,0.4-0.4c0.2,0,0.4,0.2,0.4,0.4c0,0.2-0.2,0.4-0.4,0.4
		C65.1,267.6,64.9,267.4,64.9,267.1z M65,268.3h0.7v4.1H65V268.3z"/>
	<path d="M69.5,269.9c0-0.8-0.4-1.1-0.9-1.1c-0.5,0-0.9,0.3-0.9,1.1v2.5H67v-4.1h0.7v0.4c0.3-0.4,0.6-0.5,1.1-0.5
		c0.9,0,1.5,0.5,1.5,1.8v2.4h-0.7V269.9z"/>
	<path d="M71.3,270.4c0-1.3,0.7-2.1,1.7-2.1c0.5,0,0.8,0.2,1,0.4V267l0.7-0.3v5.8H74v-0.3c-0.2,0.2-0.5,0.4-1,0.4
		C71.9,272.5,71.3,271.7,71.3,270.4z M74,271.3v-1.9c-0.2-0.2-0.5-0.5-0.9-0.5c-0.7,0-1.1,0.5-1.1,1.5c0,0.8,0.4,1.5,1.1,1.5
		C73.4,271.8,73.8,271.6,74,271.3z"/>
	<path d="M78.5,272c-0.3,0.4-0.6,0.5-1,0.5c-1,0-1.5-0.5-1.5-1.8v-2.4h0.7v2.5c0,0.8,0.4,1.1,0.9,1.1c0.5,0,0.9-0.3,0.9-1.1v-2.5
		h0.7v4.1h-0.7V272z"/>
	<path d="M83,269.9c0-0.8-0.4-1.1-0.9-1.1c-0.5,0-0.9,0.3-0.9,1.1v2.5h-0.7v-4.1h0.7v0.4c0.3-0.4,0.6-0.5,1.1-0.5
		c0.9,0,1.5,0.5,1.5,1.8v2.4H83V269.9z"/>
	<path d="M85.9,273.5c1.3-0.1,1.6-0.5,1.6-1V272c-0.2,0.3-0.6,0.5-1.1,0.5c-0.9,0-1.7-0.7-1.7-2.1c0-1.3,0.7-2.1,1.7-2.1
		c0.6,0,0.9,0.3,1,0.4v-0.3h0.7v3.9c0,1.3-0.8,1.8-1.9,1.8L85.9,273.5z M87.5,271.3v-1.9c-0.2-0.3-0.6-0.5-0.9-0.5
		c-0.7,0-1.1,0.5-1.1,1.5c0,0.9,0.5,1.5,1.1,1.5C86.9,271.8,87.3,271.6,87.5,271.3z"/>
	<path d="M89.3,270.4c0-1.4,0.7-2.1,1.8-2.1c0.9,0,1.7,0.6,1.7,1.9c0,0.1,0,0.3,0,0.5H90c0.1,0.8,0.5,1.2,1.1,1.2
		c0.3,0,0.6-0.1,0.9-0.4l0.4,0.5c-0.3,0.3-0.8,0.5-1.3,0.5C90,272.5,89.3,271.6,89.3,270.4z M92.1,270c0-0.9-0.6-1.2-1-1.2
		c-0.6,0-1.1,0.4-1.1,1.2H92.1z"/>
	<path d="M96.3,269.9c0-0.8-0.4-1.1-0.9-1.1c-0.5,0-0.9,0.3-0.9,1.1v2.5h-0.7v-4.1h0.7v0.4c0.3-0.4,0.6-0.5,1.1-0.5
		c0.9,0,1.5,0.5,1.5,1.8v2.4h-0.7V269.9z"/>
</g>
<line class="st0" x1="-0.2" y1="20.4" x2="356.9" y2="20.4"/>
<line class="st0" x1="-0.2" y1="76.2" x2="356.9" y2="76.2"/>
<line class="st0" x1="-0.2" y1="133.1" x2="356.9" y2="133.1"/>
<line class="st0" x1="-0.2" y1="192.6" x2="356.9" y2="192.6"/>
<line class="st0" x1="-0.2" y1="248.4" x2="356.9" y2="248.4"/>
<line class="st0" x1="-0.2" y1="304.9" x2="356.9" y2="304.9"/>
<rect x="185.4" y="26.4" width="0.5" height="7.4"/>
<rect x="185.7" y="35.8" class="st0" width="16.2" height="6.9"/>
<rect x="185.7" y="45" class="st3" width="111.8" height="6.9"/>
<rect x="185.4" y="54" class="st4" width="146" height="7.4"/>
<rect x="185.4" y="63.2" class="st5" width="10.8" height="7.4"/>
<rect x="185.4" y="82.2" width="10.8" height="7.5"/>
<rect x="185.7" y="91.8" class="st0" width="122.2" height="7"/>
<rect x="185.7" y="101.1" class="st3" width="88.8" height="7"/>
<rect x="185.4" y="110.1" class="st4" width="49.6" height="7.5"/>
<rect x="185.4" y="119.4" class="st5" width="10.8" height="7.5"/>
<rect x="185.4" y="139.1" width="4.4" height="7.5"/>
<rect x="185.7" y="147.9" class="st0" width="88.2" height="7"/>
<rect x="185.7" y="157.2" class="st3" width="139.8" height="7"/>
<rect x="185.4" y="175.5" class="st5" width="5.4" height="7.5"/>
<rect x="185.4" y="198.6" width="1.1" height="7.5"/>
<rect x="185.7" y="208.1" class="st0" width="26.4" height="7"/>
<rect x="185.7" y="217.4" class="st3" width="162.1" height="7"/>
<rect x="185.4" y="226.5" class="st4" width="88.7" height="7.5"/>
<rect x="185.4" y="235" class="st5" width="5.4" height="7.5"/>
<rect x="185.4" y="254.3" width="16.6" height="7.5"/>
<rect x="185.7" y="263.8" class="st0" width="111.5" height="7"/>
<rect x="185.8" y="273.2" class="st3" width="111.4" height="7"/>
<rect x="185.4" y="282.2" class="st4" width="32.9" height="7.5"/>
<g class="st1">
	<path d="M342.4,324.2c0-0.8-0.4-1.1-0.9-1.1c-0.5,0-0.9,0.3-0.9,1.1v2.5h-0.7v-4.1h0.7v0.4c0.3-0.4,0.6-0.5,1.1-0.5
		c0.9,0,1.5,0.5,1.5,1.8v2.4h-0.7V324.2z"/>
	<path d="M344.4,322.9h3.8v0.7h-3.8V322.9z M344.4,324.3h3.8v0.7h-3.8V324.3z"/>
	<path d="M349.4,326.1l0.4-0.5c0.3,0.3,0.7,0.5,1.4,0.5c0.8,0,1.4-0.6,1.4-1.3c0-0.7-0.5-1.2-1.1-1.2c-0.5,0-0.9,0.2-1.1,0.5
		l-0.7-0.2l0.3-2.8h3v0.6h-2.4l-0.2,1.7c0.3-0.2,0.7-0.4,1.2-0.4c1.1,0,1.8,0.8,1.8,1.8c0,1.1-0.8,1.9-2.1,1.9
		C350.3,326.7,349.7,326.4,349.4,326.1z"/>
</g>
<g class="st1">
	<path d="M355.3,322.2h-0.9v-0.5c0.6,0,1-0.2,1.1-0.7h0.5v5.6h-0.7V322.2z"/>
</g>
<g class="st1">
	<path d="M353.5,30.2c0-0.9,0.3-2.2,1.5-2.2c1.1,0,1.5,1.1,1.5,2.2c0,0.9-0.3,2.2-1.5,2.2C353.9,32.4,353.5,31.3,353.5,30.2z
		 M355.9,30.2c0-0.8-0.2-1.7-0.9-1.7c-0.8,0-0.9,0.9-0.9,1.7c0,0.8,0.2,1.7,0.9,1.7C355.8,31.9,355.9,31,355.9,30.2z"/>
</g>
<g class="st1">
	<path d="M353.6,40.4l0.5-0.2c0.2,0.5,0.5,0.7,0.9,0.7c0.5,0,0.9-0.2,0.9-0.8c0-0.4-0.3-0.8-0.9-0.8h-0.3v-0.5h0.3
		c0.4,0,0.7-0.3,0.7-0.7c0-0.4-0.3-0.7-0.7-0.7c-0.5,0-0.7,0.3-0.8,0.6l-0.5-0.2c0.2-0.5,0.6-0.9,1.3-0.9c0.7,0,1.3,0.5,1.3,1.1
		c0,0.4-0.2,0.7-0.5,0.9c0.4,0.2,0.7,0.5,0.7,1c0,0.8-0.6,1.3-1.4,1.3C354.3,41.4,353.9,41,353.6,40.4z"/>
</g>
<g class="st1">
	<path d="M351.2,48.3c0.4-0.3,0.9-0.5,0.9-1c0-0.4-0.3-0.7-0.8-0.7c-0.5,0-0.8,0.2-0.9,0.6l-0.5-0.2c0.2-0.5,0.7-0.9,1.4-0.9
		c0.8,0,1.3,0.5,1.3,1.2c0,0.7-0.5,1.1-1.2,1.5c-0.5,0.3-0.9,0.6-1,1.1h2.2v0.5h-2.8C349.8,49.2,350.5,48.7,351.2,48.3z"/>
	<path d="M353.5,48.2c0-0.9,0.3-2.2,1.5-2.2c1.1,0,1.5,1.1,1.5,2.2c0,0.9-0.3,2.2-1.5,2.2C353.9,50.4,353.5,49.3,353.5,48.2z
		 M355.9,48.2c0-0.8-0.2-1.7-0.9-1.7c-0.8,0-0.9,0.9-0.9,1.7c0,0.8,0.2,1.7,0.9,1.7C355.8,49.9,355.9,49,355.9,48.2z"/>
</g>
<g class="st1">
	<path d="M351.5,57.3c0.4-0.3,0.9-0.5,0.9-1c0-0.4-0.3-0.7-0.8-0.7c-0.5,0-0.8,0.2-0.9,0.6l-0.5-0.2c0.2-0.5,0.7-0.9,1.4-0.9
		c0.8,0,1.3,0.5,1.3,1.2c0,0.7-0.5,1.1-1.2,1.5c-0.5,0.3-0.9,0.6-1,1.1h2.2v0.5h-2.8C350.1,58.2,350.8,57.7,351.5,57.3z"/>
	<path d="M353.7,57.8c0-1.3,0.8-2.4,2.2-2.7v0.5c-0.7,0.2-1.4,0.8-1.6,1.5c0.2-0.2,0.5-0.3,0.9-0.3c0.7,0,1.3,0.6,1.3,1.3
		c0,0.8-0.6,1.4-1.4,1.4C354.2,59.4,353.7,58.7,353.7,57.8z M356,58c0-0.5-0.4-0.9-0.9-0.9c-0.5,0-0.9,0.3-0.9,0.9
		c0,0.5,0.4,0.9,0.9,0.9C355.7,58.9,356,58.6,356,58z"/>
</g>
<g class="st1">
	<path d="M355.1,66.3c0.4-0.3,0.9-0.5,0.9-1c0-0.4-0.3-0.7-0.8-0.7c-0.5,0-0.8,0.2-0.9,0.6l-0.5-0.2c0.2-0.5,0.7-0.9,1.4-0.9
		c0.8,0,1.3,0.5,1.3,1.2c0,0.7-0.5,1.1-1.2,1.5c-0.5,0.3-0.9,0.6-1,1.1h2.2v0.5h-2.8C353.7,67.2,354.4,66.7,355.1,66.3z"/>
</g>
<g class="st1">
	<path d="M354.7,85.3c0.4-0.3,0.9-0.5,0.9-1c0-0.4-0.3-0.7-0.8-0.7c-0.5,0-0.8,0.2-0.9,0.6l-0.5-0.2c0.2-0.5,0.7-0.9,1.4-0.9
		c0.8,0,1.3,0.5,1.3,1.2c0,0.7-0.5,1.1-1.2,1.5c-0.5,0.3-0.9,0.6-1,1.1h2.2v0.5h-2.8C353.3,86.3,354,85.7,354.7,85.3z"/>
</g>
<g class="st1">
	<path d="M351.1,94.3c0.4-0.3,0.9-0.5,0.9-1c0-0.4-0.3-0.7-0.8-0.7c-0.5,0-0.8,0.2-0.9,0.6l-0.5-0.2c0.2-0.5,0.7-0.9,1.4-0.9
		c0.8,0,1.3,0.5,1.3,1.2c0,0.7-0.5,1.1-1.2,1.5c-0.5,0.3-0.9,0.6-1,1.1h2.2v0.5h-2.8C349.7,95.3,350.4,94.7,351.1,94.3z"/>
	<path d="M354.7,94.3c0.4-0.3,0.9-0.5,0.9-1c0-0.4-0.3-0.7-0.8-0.7c-0.5,0-0.8,0.2-0.9,0.6l-0.5-0.2c0.2-0.5,0.7-0.9,1.4-0.9
		c0.8,0,1.3,0.5,1.3,1.2c0,0.7-0.5,1.1-1.2,1.5c-0.5,0.3-0.9,0.6-1,1.1h2.2v0.5h-2.8C353.3,95.3,354,94.7,354.7,94.3z"/>
</g>
<g class="st1">
	<path d="M351.7,102H351v-0.4c0.4,0,0.7-0.1,0.8-0.5h0.4v4.2h-0.5V102z"/>
	<path d="M353.4,103.8c0-1.3,0.8-2.4,2.2-2.7v0.5c-0.7,0.2-1.4,0.8-1.6,1.5c0.2-0.2,0.5-0.3,0.9-0.3c0.7,0,1.3,0.6,1.3,1.3
		c0,0.8-0.6,1.4-1.4,1.4C353.9,105.4,353.4,104.7,353.4,103.8z M355.7,104.1c0-0.5-0.4-0.9-0.9-0.9c-0.5,0-0.9,0.3-0.9,0.9
		c0,0.5,0.4,0.9,0.9,0.9C355.3,104.9,355.7,104.6,355.7,104.1z"/>
</g>
<g class="st1">
	<path d="M354.1,114c0.7-0.1,1.4-0.7,1.5-1.5c-0.2,0.2-0.5,0.4-0.9,0.4c-0.7,0-1.3-0.6-1.3-1.3c0-0.8,0.6-1.4,1.4-1.4
		c1,0,1.4,0.7,1.4,1.6c0,1.4-0.8,2.5-2.1,2.7V114z M355.6,111.4c0-0.5-0.4-0.8-0.9-0.8c-0.5,0-0.9,0.4-0.9,0.8
		c0,0.5,0.3,0.9,0.9,0.9C355.3,112.3,355.6,111.9,355.6,111.4z"/>
</g>
<g class="st1">
	<path d="M354.7,121.3c0.4-0.3,0.9-0.5,0.9-1c0-0.4-0.3-0.7-0.8-0.7c-0.5,0-0.8,0.2-0.9,0.6l-0.5-0.2c0.2-0.5,0.7-0.9,1.4-0.9
		c0.8,0,1.3,0.5,1.3,1.2c0,0.7-0.5,1.1-1.2,1.5c-0.5,0.3-0.9,0.6-1,1.1h2.2v0.5h-2.8C353.3,122.3,354,121.7,354.7,121.3z"/>
</g>
<g class="st1">
	<path d="M355.3,140.7h-0.7v-0.4c0.4,0,0.7-0.1,0.8-0.5h0.4v4.2h-0.5V140.7z"/>
</g>
<g class="st1">
	<path d="M351.7,149.7H351v-0.4c0.4,0,0.7-0.1,0.8-0.5h0.4v4.2h-0.5V149.7z"/>
	<path d="M353.4,151.5c0-1.3,0.8-2.4,2.2-2.7v0.5c-0.7,0.2-1.4,0.8-1.6,1.5c0.2-0.2,0.5-0.3,0.9-0.3c0.7,0,1.3,0.6,1.3,1.3
		c0,0.8-0.6,1.4-1.4,1.4C353.9,153.1,353.4,152.4,353.4,151.5z M355.7,151.7c0-0.5-0.4-0.9-0.9-0.9c-0.5,0-0.9,0.3-0.9,0.9
		c0,0.5,0.4,0.9,0.9,0.9C355.3,152.6,355.7,152.3,355.7,151.7z"/>
</g>
<g class="st1">
	<path d="M351,160c0.4-0.3,0.9-0.5,0.9-1c0-0.4-0.3-0.7-0.8-0.7c-0.5,0-0.8,0.2-0.9,0.6l-0.5-0.2c0.2-0.5,0.7-0.9,1.4-0.9
		c0.8,0,1.3,0.5,1.3,1.2c0,0.7-0.5,1.1-1.2,1.5c-0.5,0.3-0.9,0.6-1,1.1h2.2v0.5h-2.8C349.6,160.9,350.3,160.4,351,160z"/>
	<path d="M353.3,161.6l0.3-0.4c0.2,0.2,0.5,0.4,1,0.4c0.6,0,1-0.4,1-0.9c0-0.5-0.3-0.9-0.9-0.9c-0.4,0-0.7,0.2-0.8,0.3l-0.5-0.2
		l0.2-2.1h2.2v0.5h-1.8l-0.2,1.3c0.2-0.2,0.5-0.3,0.9-0.3c0.8,0,1.3,0.6,1.3,1.3c0,0.8-0.6,1.5-1.6,1.5
		C353.9,162.1,353.5,161.8,353.3,161.6z"/>
</g>
<g class="st1">
	<path d="M353.3,169.8c0-0.5,0.3-0.9,0.7-1.1c-0.3-0.2-0.5-0.5-0.5-0.9c0-0.6,0.5-1.1,1.2-1.1c0.7,0,1.2,0.5,1.2,1.1
		c0,0.4-0.2,0.7-0.5,0.9c0.4,0.2,0.7,0.6,0.7,1.1c0,0.7-0.6,1.3-1.4,1.3C353.9,171.1,353.3,170.5,353.3,169.8z M355.6,169.8
		c0-0.5-0.4-0.8-0.9-0.8s-0.9,0.4-0.9,0.8c0,0.5,0.4,0.8,0.9,0.8C355.3,170.6,355.6,170.3,355.6,169.8z M355.5,167.9
		c0-0.4-0.3-0.6-0.7-0.6c-0.4,0-0.7,0.3-0.7,0.6c0,0.3,0.3,0.6,0.7,0.6C355.2,168.5,355.5,168.2,355.5,167.9z"/>
</g>
<g class="st1">
	<path d="M355.3,176.7h-0.7v-0.4c0.4,0,0.7-0.1,0.8-0.5h0.4v4.2h-0.5V176.7z"/>
</g>
<g class="st1">
	<path d="M353.2,202.9c0-0.9,0.3-2.2,1.5-2.2c1.1,0,1.5,1.1,1.5,2.2c0,0.9-0.3,2.2-1.5,2.2C353.5,205,353.2,203.9,353.2,202.9z
		 M355.6,202.9c0-0.8-0.2-1.7-0.9-1.7c-0.8,0-0.9,0.9-0.9,1.7c0,0.8,0.2,1.7,0.9,1.7C355.4,204.5,355.6,203.6,355.6,202.9z"/>
</g>
<g class="st1">
	<path d="M353.3,213.6l0.3-0.4c0.2,0.2,0.5,0.4,1,0.4c0.6,0,1-0.4,1-0.9c0-0.5-0.3-0.9-0.9-0.9c-0.4,0-0.7,0.2-0.8,0.3l-0.5-0.2
		l0.2-2.1h2.2v0.5h-1.8l-0.2,1.3c0.2-0.2,0.5-0.3,0.9-0.3c0.8,0,1.3,0.6,1.3,1.3c0,0.8-0.6,1.5-1.6,1.5
		C353.9,214,353.5,213.8,353.3,213.6z"/>
</g>
<g class="st1">
	<path d="M351.1,220.9c0.4-0.3,0.9-0.5,0.9-1c0-0.4-0.3-0.7-0.8-0.7c-0.5,0-0.8,0.2-0.9,0.6l-0.5-0.2c0.2-0.5,0.7-0.9,1.4-0.9
		c0.8,0,1.3,0.5,1.3,1.2c0,0.7-0.5,1.1-1.2,1.5c-0.5,0.3-0.9,0.6-1,1.1h2.2v0.5h-2.8C349.8,221.9,350.5,221.3,351.1,220.9z"/>
	<path d="M354.1,222.5c0.7-0.1,1.4-0.7,1.5-1.5c-0.2,0.2-0.5,0.4-0.9,0.4c-0.7,0-1.3-0.6-1.3-1.3c0-0.8,0.6-1.4,1.4-1.4
		c1,0,1.4,0.7,1.4,1.6c0,1.4-0.8,2.5-2.1,2.7V222.5z M355.6,220c0-0.5-0.4-0.8-0.9-0.8c-0.5,0-0.9,0.4-0.9,0.8
		c0,0.5,0.3,0.9,0.9,0.9C355.3,220.9,355.6,220.5,355.6,220z"/>
</g>
<g class="st1">
	<path d="M351.7,228.6H351v-0.4c0.4,0,0.7-0.1,0.8-0.5h0.4v4.2h-0.5V228.6z"/>
	<path d="M353.4,230.4c0-1.3,0.8-2.4,2.2-2.7v0.5c-0.7,0.2-1.4,0.8-1.6,1.5c0.2-0.2,0.5-0.3,0.9-0.3c0.7,0,1.3,0.6,1.3,1.3
		c0,0.8-0.6,1.4-1.4,1.4C353.9,232,353.4,231.3,353.4,230.4z M355.7,230.7c0-0.5-0.4-0.9-0.9-0.9c-0.5,0-0.9,0.3-0.9,0.9
		c0,0.5,0.4,0.9,0.9,0.9C355.3,231.5,355.7,231.2,355.7,230.7z"/>
</g>
<g class="st1">
	<path d="M355.3,237.6h-0.7v-0.4c0.4,0,0.7-0.1,0.8-0.5h0.4v4.2h-0.5V237.6z"/>
</g>
<g class="st1">
	<path d="M353.3,259.3l0.5-0.2c0.2,0.5,0.5,0.7,0.9,0.7c0.5,0,0.9-0.2,0.9-0.8c0-0.4-0.3-0.8-0.9-0.8h-0.3v-0.5h0.3
		c0.4,0,0.7-0.3,0.7-0.7c0-0.4-0.3-0.7-0.7-0.7c-0.5,0-0.7,0.3-0.8,0.6l-0.5-0.2c0.2-0.5,0.6-0.9,1.3-0.9c0.7,0,1.3,0.5,1.3,1.1
		c0,0.4-0.2,0.7-0.5,0.9c0.4,0.2,0.7,0.5,0.7,1c0,0.8-0.6,1.3-1.4,1.3C353.9,260.3,353.5,259.9,353.3,259.3z"/>
</g>
<g class="st1">
	<path d="M350.9,267.2c0.4-0.3,0.9-0.5,0.9-1c0-0.4-0.3-0.7-0.8-0.7c-0.5,0-0.8,0.2-0.9,0.6l-0.5-0.2c0.2-0.5,0.7-0.9,1.4-0.9
		c0.8,0,1.3,0.5,1.3,1.2c0,0.7-0.5,1.1-1.2,1.5c-0.5,0.3-0.9,0.6-1,1.1h2.2v0.5h-2.8C349.5,268.1,350.2,267.6,350.9,267.2z"/>
	<path d="M353.2,267.1c0-0.9,0.3-2.2,1.5-2.2c1.1,0,1.5,1.1,1.5,2.2c0,0.9-0.3,2.2-1.5,2.2C353.5,269.3,353.2,268.2,353.2,267.1z
		 M355.6,267.1c0-0.8-0.2-1.7-0.9-1.7c-0.8,0-0.9,0.9-0.9,1.7c0,0.8,0.2,1.7,0.9,1.7C355.4,268.8,355.6,267.9,355.6,267.1z"/>
</g>
<g class="st1">
	<path d="M350.9,276.2c0.4-0.3,0.9-0.5,0.9-1c0-0.4-0.3-0.7-0.8-0.7c-0.5,0-0.8,0.2-0.9,0.6l-0.5-0.2c0.2-0.5,0.7-0.9,1.4-0.9
		c0.8,0,1.3,0.5,1.3,1.2c0,0.7-0.5,1.1-1.2,1.5c-0.5,0.3-0.9,0.6-1,1.1h2.2v0.5h-2.8C349.5,277.1,350.2,276.6,350.9,276.2z"/>
	<path d="M353.2,276.1c0-0.9,0.3-2.2,1.5-2.2c1.1,0,1.5,1.1,1.5,2.2c0,0.9-0.3,2.2-1.5,2.2C353.5,278.3,353.2,277.2,353.2,276.1z
		 M355.6,276.1c0-0.8-0.2-1.7-0.9-1.7c-0.8,0-0.9,0.9-0.9,1.7c0,0.8,0.2,1.7,0.9,1.7C355.4,277.8,355.6,276.9,355.6,276.1z"/>
</g>
<g class="st1">
	<path d="M353.4,285.7c0-1.3,0.8-2.4,2.2-2.7v0.5c-0.7,0.2-1.4,0.8-1.6,1.5c0.2-0.2,0.5-0.3,0.9-0.3c0.7,0,1.3,0.6,1.3,1.3
		c0,0.8-0.6,1.4-1.4,1.4C353.9,287.3,353.4,286.6,353.4,285.7z M355.7,286c0-0.5-0.4-0.9-0.9-0.9c-0.5,0-0.9,0.3-0.9,0.9
		c0,0.5,0.4,0.9,0.9,0.9C355.3,286.8,355.7,286.5,355.7,286z"/>
</g>
<g class="st1">
	<path d="M354.7,294.2c0.4-0.3,0.9-0.5,0.9-1c0-0.4-0.3-0.7-0.8-0.7c-0.5,0-0.8,0.2-0.9,0.6l-0.5-0.2c0.2-0.5,0.7-0.9,1.4-0.9
		c0.8,0,1.3,0.5,1.3,1.2c0,0.7-0.5,1.1-1.2,1.5c-0.5,0.3-0.9,0.6-1,1.1h2.2v0.5h-2.8C353.3,295.1,354,294.6,354.7,294.2z"/>
</g>
<rect x="185.4" y="166.1" class="st4" width="44.4" height="7.5"/>
<rect x="185.4" y="291" class="st5" width="10.8" height="7.5"/>
</svg>
