<?xml version="1.0" encoding="utf-8"?>
<!-- Generator: Adobe Illustrator 21.0.0, SVG Export Plug-In . SVG Version: 6.00 Build 0)  -->
<svg version="1.1" id="Layer_1" xmlns="http://www.w3.org/2000/svg" xmlns:xlink="http://www.w3.org/1999/xlink" x="0px" y="0px"
	 viewBox="0 0 286.9 122" style="enable-background:new 0 0 286.9 122;" xml:space="preserve">
<style type="text/css">
	.st0{enable-background:new    ;}
	.st1{fill:#0000FF;}
	.st2{fill:none;stroke:#000000;stroke-width:0.5;}
	.st3{fill:#FFFFFF;}
	.st4{fill:none;stroke:#000000;stroke-width:0.691;}
</style>
<g class="st0">
	<path d="M274.3,13.3l0.8-0.3c0.3,0.6,0.7,0.8,1.2,0.8c0.6,0,1.1-0.3,1.1-0.9c0-0.5-0.3-0.9-1.1-0.9h-0.4v-0.8h0.4
		c0.5,0,0.9-0.3,0.9-0.8c0-0.5-0.3-0.8-0.9-0.8c-0.5,0-0.8,0.3-1,0.6l-0.8-0.3c0.3-0.7,0.9-1.1,1.8-1.1c1,0,1.7,0.7,1.7,1.5
		c0,0.5-0.2,1-0.7,1.2c0.6,0.2,0.9,0.7,0.9,1.3c0,1.1-0.8,1.7-2,1.7C275.3,14.6,274.7,14.1,274.3,13.3z"/>
	<path d="M279.3,14.1l0.5-0.7c0.3,0.2,0.6,0.4,1.2,0.4c0.8,0,1.3-0.5,1.3-1.2c0-0.7-0.4-1-1-1c-0.4,0-0.7,0.1-0.9,0.4l-0.9-0.3
		l0.2-2.8h3.1v0.8h-2.4l-0.1,1.4c0.2-0.2,0.6-0.3,1.1-0.3c1.2,0,1.8,0.9,1.8,1.8c0,1.2-0.9,2-2.1,2
		C280.1,14.6,279.5,14.3,279.3,14.1z"/>
</g>
<g class="st0">
	<path d="M211.3,35.9c0-1.9,1-3.3,3.1-3.6v0.8c-0.9,0.1-1.8,0.7-2.1,1.8c0.2-0.2,0.6-0.4,1.2-0.4c1,0,1.7,0.7,1.7,1.8
		c0,1.1-0.8,1.8-1.9,1.8C211.9,38.1,211.3,37.1,211.3,35.9z M214.3,36.3c0-0.6-0.4-1-1.1-1c-0.6,0-1.1,0.4-1.1,1c0,0.6,0.5,1,1.1,1
		C213.8,37.3,214.3,36.9,214.3,36.3z"/>
</g>
<g class="st0">
	<path d="M208.7,61l0.5-0.7c0.3,0.2,0.6,0.4,1.2,0.4c0.8,0,1.3-0.5,1.3-1.2c0-0.7-0.4-1-1-1c-0.4,0-0.7,0.1-0.9,0.4l-0.9-0.3
		l0.2-2.8h3.1v0.8h-2.4l-0.1,1.4c0.2-0.2,0.6-0.3,1.1-0.3c1.2,0,1.8,0.9,1.8,1.8c0,1.2-0.9,2-2.1,2C209.5,61.5,208.9,61.3,208.7,61z
		"/>
</g>
<g class="st0">
	<path d="M208.7,84.1l0.5-0.7c0.3,0.2,0.6,0.4,1.2,0.4c0.8,0,1.3-0.5,1.3-1.2c0-0.7-0.4-1-1-1c-0.4,0-0.7,0.1-0.9,0.4l-0.9-0.3
		l0.2-2.8h3.1v0.8h-2.4l-0.1,1.4c0.2-0.2,0.6-0.3,1.1-0.3c1.2,0,1.8,0.9,1.8,1.8c0,1.2-0.9,2-2.1,2
		C209.5,84.6,208.9,84.4,208.7,84.1z"/>
</g>
<g class="st0">
	<path d="M238.6,15.1v-0.9h0.6c0,0.6,0.2,1,0.7,1.1V16h-5.8v-0.9H238.6z"/>
</g>
<rect x="185.9" y="77.9" class="st1" width="11" height="16.1"/>
<rect x="185.9" y="77.9" class="st2" width="11" height="16.1"/>
<rect x="192.5" y="73.6" class="st3" width="10.5" height="15.9"/>
<rect x="192.5" y="73.6" class="st4" width="10.5" height="15.9"/>
<rect x="185.9" y="54.8" class="st1" width="8.6" height="16.1"/>
<rect x="185.9" y="54.8" class="st2" width="8.6" height="16.1"/>
<rect x="192.5" y="50.5" class="st3" width="10.2" height="15.9"/>
<rect x="192.5" y="50.5" class="st4" width="10.2" height="15.9"/>
<rect x="186" y="31.3" class="st1" width="10.7" height="16.1"/>
<rect x="186" y="31.3" class="st2" width="10.7" height="16.1"/>
<rect x="192.5" y="27" class="st3" width="12.5" height="15.9"/>
<rect x="192.5" y="27" class="st4" width="12.5" height="15.9"/>
<rect x="186" y="7.8" class="st1" width="75.1" height="16.1"/>
<rect x="186" y="7.8" class="st2" width="75.1" height="16.1"/>
<rect x="192.5" y="3.5" class="st3" width="76" height="15.9"/>
<rect x="192.5" y="3.5" class="st4" width="76" height="15.9"/>
<g class="st0">
	<path d="M1.2,8.9h3.5v0.8H2.1v1.5h1.7V12H2.1v1.7h2.8v0.8H1.2V8.9z"/>
	<path d="M5.8,9.3c0-0.3,0.2-0.5,0.5-0.5S6.8,9,6.8,9.3c0,0.3-0.2,0.5-0.5,0.5S5.8,9.5,5.8,9.3z M5.9,10.4h0.8v4.1H5.9V10.4z"/>
	<path d="M8.9,15.4c1.2-0.1,1.5-0.4,1.5-0.9v-0.4c-0.2,0.3-0.6,0.4-1,0.4c-0.9,0-1.7-0.7-1.7-2.1c0-1.3,0.7-2.1,1.7-2.1
		c0.5,0,0.8,0.2,1,0.4v-0.3h0.8v3.8c0,1.3-0.7,1.8-1.9,1.9L8.9,15.4z M10.4,13.3v-1.8c-0.2-0.3-0.5-0.5-0.8-0.5c-0.6,0-1,0.5-1,1.4
		c0,0.8,0.4,1.4,1,1.4C9.9,13.8,10.2,13.6,10.4,13.3z"/>
	<path d="M12.3,12.4c0-1.3,0.7-2.1,1.9-2.1c1,0,1.8,0.6,1.8,1.9c0,0.2,0,0.4,0,0.5h-2.8c0,0.7,0.5,1.1,1,1.1c0.3,0,0.6-0.1,0.8-0.4
		l0.5,0.6c-0.3,0.4-0.8,0.6-1.4,0.6C13,14.6,12.3,13.8,12.3,12.4z M15,12.1c0-0.8-0.5-1-0.9-1c-0.5,0-1,0.3-1,1H15z"/>
	<path d="M19.4,12c0-0.7-0.4-1-0.8-1c-0.5,0-0.9,0.2-0.9,0.9v2.5h-0.8v-4.1h0.8v0.4c0.3-0.3,0.6-0.5,1.1-0.5c0.9,0,1.5,0.5,1.5,1.7
		v2.4h-0.8V12z"/>
	<path d="M21.3,9.3c0-0.3,0.2-0.5,0.5-0.5s0.5,0.2,0.5,0.5c0,0.3-0.2,0.5-0.5,0.5S21.3,9.5,21.3,9.3z M21.4,10.4h0.8v4.1h-0.8V10.4z
		"/>
	<path d="M25.9,12c0-0.7-0.4-1-0.8-1c-0.5,0-0.9,0.2-0.9,0.9v2.5h-0.8v-4.1h0.8v0.4c0.3-0.3,0.6-0.5,1.1-0.5c0.9,0,1.5,0.5,1.5,1.7
		v2.4h-0.8V12z"/>
	<path d="M27.8,9.3c0-0.3,0.2-0.5,0.5-0.5s0.5,0.2,0.5,0.5c0,0.3-0.2,0.5-0.5,0.5S27.8,9.5,27.8,9.3z M27.9,10.4h0.8v4.1h-0.8V10.4z
		"/>
	<path d="M30.2,13.6v-2.4h-0.6v-0.7h0.6V9.1l0.8-0.4v1.7h1v0.7h-1v2.2c0,0.3,0.1,0.5,0.4,0.5c0.2,0,0.4-0.1,0.6-0.2L32,14.4
		c-0.2,0.1-0.5,0.2-0.8,0.2C30.5,14.6,30.2,14.2,30.2,13.6z"/>
	<path d="M32.9,9.3c0-0.3,0.2-0.5,0.5-0.5s0.5,0.2,0.5,0.5c0,0.3-0.2,0.5-0.5,0.5S32.9,9.5,32.9,9.3z M33,10.4h0.8v4.1H33V10.4z"/>
	<path d="M37.4,14.1c-0.2,0.2-0.6,0.4-1.1,0.4c-0.8,0-1.5-0.5-1.5-1.4c0-0.9,0.8-1.4,1.6-1.4c0.4,0,0.7,0.1,1,0.2v-0.2
		c0-0.6-0.3-0.8-0.9-0.8c-0.5,0-0.9,0.1-1.2,0.4l-0.2-0.7c0.3-0.2,0.9-0.4,1.5-0.4c0.7,0,1.6,0.2,1.6,1.5v2.6h-0.8V14.1z M37.4,13.4
		v-0.6c-0.2-0.1-0.6-0.2-0.9-0.2c-0.5,0-0.9,0.2-0.9,0.6c0,0.4,0.3,0.6,0.8,0.6C36.8,13.8,37.2,13.6,37.4,13.4z"/>
	<path d="M39.6,13.6v-2.4H39v-0.7h0.6V9.1l0.8-0.4v1.7h1v0.7h-1v2.2c0,0.3,0.1,0.5,0.4,0.5c0.2,0,0.4-0.1,0.6-0.2l-0.1,0.8
		c-0.2,0.1-0.5,0.2-0.8,0.2C39.8,14.6,39.6,14.2,39.6,13.6z"/>
	<path d="M42.3,9.3c0-0.3,0.2-0.5,0.5-0.5s0.5,0.2,0.5,0.5c0,0.3-0.2,0.5-0.5,0.5S42.3,9.5,42.3,9.3z M42.3,10.4h0.8v4.1h-0.8V10.4z
		"/>
	<path d="M44,10.4h0.8l0.9,2.7c0,0.1,0.1,0.2,0.1,0.4c0-0.1,0.1-0.2,0.1-0.4l0.9-2.7h0.8l-1.5,4.1h-0.8L44,10.4z"/>
	<path d="M48.4,12.4c0-1.3,0.7-2.1,1.9-2.1c1,0,1.8,0.6,1.8,1.9c0,0.2,0,0.4,0,0.5h-2.8c0,0.7,0.5,1.1,1,1.1c0.3,0,0.6-0.1,0.8-0.4
		l0.5,0.6c-0.3,0.4-0.8,0.6-1.4,0.6C49.1,14.6,48.4,13.8,48.4,12.4z M51.1,12.1c0-0.8-0.5-1-0.9-1c-0.5,0-1,0.3-1,1H51.1z"/>
	<path d="M54.7,12.2c0-1.6,0.5-2.8,1.1-3.4h0.8c-0.3,0.4-1,1.7-1,3.4c0,1.7,0.7,2.9,1,3.3h-0.8C55.2,14.9,54.7,13.8,54.7,12.2z"/>
	<path d="M57.4,13.8l2.2-2.7h-2v-0.7h3v0.7l-2.2,2.7h2.2v0.7h-3.2V13.8z"/>
	<path d="M61.3,14c0-0.3,0.3-0.6,0.6-0.6c0.3,0,0.6,0.3,0.6,0.6c0,0.3-0.3,0.6-0.6,0.6C61.6,14.6,61.3,14.3,61.3,14z"/>
	<path d="M65.6,8.9c1.3,0,1.8,0.7,1.8,1.5c0,0.5-0.3,0.9-0.8,1.2c0.7,0.2,1,0.8,1,1.3c0,0.8-0.5,1.6-1.8,1.6h-2.2V8.9H65.6z
		 M66.6,10.4c0-0.4-0.2-0.8-0.9-0.8h-1.3v1.5h1.2C66.2,11.2,66.6,10.9,66.6,10.4z M66.8,12.9c0-0.5-0.2-0.9-1.2-0.9h-1.2v1.8h1.5
		C66.6,13.7,66.8,13.3,66.8,12.9z"/>
	<path d="M68.4,14c0-0.3,0.3-0.6,0.6-0.6c0.3,0,0.6,0.3,0.6,0.6c0,0.3-0.3,0.6-0.6,0.6C68.7,14.6,68.4,14.3,68.4,14z"/>
	<path d="M72.3,11.7c0-1.4,0.6-2.9,2.4-2.9c1.8,0,2.4,1.5,2.4,2.9c0,1.4-0.6,2.9-2.4,2.9C72.9,14.6,72.3,13.1,72.3,11.7z M76.3,11.7
		c0-1-0.4-2.1-1.6-2.1s-1.6,1.2-1.6,2.1c0,1,0.4,2.1,1.6,2.1S76.3,12.6,76.3,11.7z"/>
	<path d="M80.8,12c0-0.7-0.4-1-0.8-1c-0.5,0-0.9,0.2-0.9,0.9v2.5h-0.8v-4.1h0.8v0.4c0.3-0.3,0.6-0.5,1.1-0.5c0.9,0,1.5,0.5,1.5,1.7
		v2.4h-0.8V12z"/>
	<path d="M82.8,9.1l0.8-0.4v5.8h-0.8V9.1z"/>
	<path d="M84.8,9.3c0-0.3,0.2-0.5,0.5-0.5s0.5,0.2,0.5,0.5c0,0.3-0.2,0.5-0.5,0.5S84.8,9.5,84.8,9.3z M84.9,10.4h0.8v4.1h-0.8V10.4z
		"/>
	<path d="M89.5,12c0-0.7-0.4-1-0.8-1c-0.5,0-0.9,0.2-0.9,0.9v2.5H87v-4.1h0.8v0.4c0.3-0.3,0.6-0.5,1.1-0.5c0.9,0,1.5,0.5,1.5,1.7
		v2.4h-0.8V12z"/>
	<path d="M91.3,12.4c0-1.3,0.7-2.1,1.9-2.1c1,0,1.8,0.6,1.8,1.9c0,0.2,0,0.4,0,0.5h-2.8c0,0.7,0.5,1.1,1,1.1c0.3,0,0.6-0.1,0.8-0.4
		l0.5,0.6c-0.3,0.4-0.8,0.6-1.4,0.6C92,14.6,91.3,13.8,91.3,12.4z M94.1,12.1c0-0.8-0.5-1-0.9-1c-0.5,0-1,0.3-1,1H94.1z"/>
</g>
<g class="st0">
	<path d="M95.8,11.7h2v0.8h-2V11.7z"/>
</g>
<g class="st0">
	<path d="M100.8,14.5H100V9.7h-1.6V8.9h4v0.8h-1.6V14.5z"/>
</g>
<g class="st0">
	<path d="M105.5,14.1c-0.3,0.3-0.6,0.5-1.1,0.5c-0.9,0-1.5-0.5-1.5-1.7v-2.4h0.8v2.4c0,0.7,0.4,1,0.8,1c0.5,0,0.9-0.2,0.9-0.9v-2.5
		h0.8v4.1h-0.8V14.1z"/>
</g>
<g class="st0">
	<path d="M107.8,13.6v-2.4h-0.6v-0.7h0.6V9.1l0.8-0.4v1.7h1v0.7h-1v2.2c0,0.3,0.1,0.5,0.4,0.5c0.2,0,0.4-0.1,0.6-0.2l-0.1,0.8
		c-0.2,0.1-0.5,0.2-0.8,0.2C108,14.6,107.8,14.2,107.8,13.6z"/>
</g>
<g class="st0">
	<path d="M110.3,12.4c0-1.3,0.7-2.1,1.9-2.1s1.9,0.8,1.9,2.1c0,1.3-0.7,2.1-1.9,2.1S110.3,13.8,110.3,12.4z M113.2,12.4
		c0-0.8-0.4-1.4-1-1.4c-0.6,0-1,0.5-1,1.4s0.4,1.4,1,1.4C112.8,13.8,113.2,13.3,113.2,12.4z"/>
	<path d="M115,10.4h0.8v0.5c0.2-0.4,0.5-0.6,0.9-0.6c0.3,0,0.5,0.1,0.7,0.2l-0.1,0.8c-0.2-0.1-0.4-0.2-0.6-0.2
		c-0.4,0-0.8,0.2-0.8,1.1v2.3H115V10.4z"/>
	<path d="M118.2,9.3c0-0.3,0.2-0.5,0.5-0.5s0.5,0.2,0.5,0.5c0,0.3-0.2,0.5-0.5,0.5S118.2,9.5,118.2,9.3z M118.3,10.4h0.8v4.1h-0.8
		V10.4z"/>
	<path d="M122.7,14.1c-0.2,0.2-0.6,0.4-1.1,0.4c-0.8,0-1.5-0.5-1.5-1.4c0-0.9,0.8-1.4,1.6-1.4c0.4,0,0.7,0.1,1,0.2v-0.2
		c0-0.6-0.3-0.8-0.9-0.8c-0.5,0-0.9,0.1-1.2,0.4l-0.2-0.7c0.3-0.2,0.9-0.4,1.5-0.4c0.7,0,1.6,0.2,1.6,1.5v2.6h-0.8V14.1z
		 M122.7,13.4v-0.6c-0.2-0.1-0.6-0.2-0.9-0.2c-0.5,0-0.9,0.2-0.9,0.6c0,0.4,0.3,0.6,0.8,0.6C122.1,13.8,122.4,13.6,122.7,13.4z"/>
	<path d="M124.6,9.1l0.8-0.4v5.8h-0.8V9.1z"/>
	<path d="M126.4,13.9l0.6-0.5c0.2,0.2,0.5,0.4,0.9,0.4c0.4,0,0.7-0.1,0.7-0.4c0-0.3-0.4-0.5-0.8-0.6c-0.9-0.3-1.3-0.7-1.3-1.3
		c0-0.7,0.6-1.1,1.4-1.1c0.7,0,1.2,0.3,1.4,0.6l-0.6,0.5c-0.1-0.2-0.4-0.3-0.8-0.3c-0.4,0-0.6,0.1-0.6,0.4c0,0.3,0.4,0.4,0.8,0.6
		c0.9,0.3,1.3,0.6,1.3,1.4c0,0.8-0.6,1.2-1.5,1.2C127.3,14.6,126.7,14.3,126.4,13.9z"/>
	<path d="M131.3,12.2c0-1.7-0.7-3-1-3.4h0.8c0.5,0.6,1.1,1.8,1.1,3.4s-0.5,2.7-1,3.3h-0.8C130.6,15.1,131.3,14,131.3,12.2z"/>
</g>
<g class="st0">
	<path d="M0.9,36.7l0.8-0.3c0.2,0.5,0.7,0.8,1.3,0.8c0.6,0,1-0.3,1-0.9c0-0.6-0.6-0.8-1.3-1.1c-0.8-0.3-1.6-0.6-1.6-1.6
		c0-0.8,0.6-1.5,1.8-1.5c1,0,1.5,0.5,1.7,1.1l-0.8,0.3c-0.1-0.3-0.5-0.6-1-0.6c-0.5,0-0.9,0.2-0.9,0.7c0,0.5,0.5,0.6,1.1,0.8
		c0.8,0.3,1.8,0.6,1.8,1.8c0,1.1-0.8,1.7-1.9,1.7C2,38.1,1.2,37.5,0.9,36.7z"/>
	<path d="M5.7,35.9c0-1.3,0.7-2.1,1.8-2.1c0.8,0,1.3,0.3,1.5,1.1l-0.8,0.3c-0.1-0.3-0.4-0.5-0.7-0.5c-0.6,0-1,0.5-1,1.3
		c0,0.8,0.3,1.3,0.9,1.3c0.4,0,0.7-0.2,0.8-0.6l0.8,0.2c-0.2,0.8-0.8,1.2-1.6,1.2C6.4,38.1,5.7,37.3,5.7,35.9z"/>
	<path d="M10.1,32.6l0.8-0.4v2.1c0.3-0.3,0.6-0.5,1.1-0.5c0.9,0,1.5,0.5,1.5,1.7V38h-0.8v-2.4c0-0.7-0.4-1-0.8-1
		c-0.5,0-0.9,0.2-0.9,0.9V38h-0.8V32.6z"/>
	<path d="M17.1,37.6c-0.3,0.3-0.6,0.5-1.1,0.5c-0.9,0-1.5-0.5-1.5-1.7v-2.4h0.8v2.4c0,0.7,0.4,1,0.8,1c0.5,0,0.9-0.2,0.9-0.9v-2.5
		h0.8V38h-0.8V37.6z"/>
	<path d="M19.2,32.6l0.8-0.4V38h-0.8V32.6z"/>
	<path d="M23.7,37.6c-0.3,0.3-0.6,0.5-1.1,0.5c-0.9,0-1.5-0.5-1.5-1.7v-2.4H22v2.4c0,0.7,0.4,1,0.8,1c0.5,0,0.9-0.2,0.9-0.9v-2.5
		h0.8V38h-0.8V37.6z"/>
	<path d="M28.3,35.5c0-0.7-0.4-1-0.8-1c-0.5,0-0.9,0.2-0.9,0.9V38h-0.8v-4.1h0.8v0.4c0.3-0.3,0.6-0.5,1.1-0.5c0.9,0,1.5,0.5,1.5,1.7
		V38h-0.8V35.5z"/>
	<path d="M31.2,38.9c1.2-0.1,1.5-0.4,1.5-0.9v-0.4c-0.2,0.3-0.6,0.4-1,0.4c-0.9,0-1.7-0.7-1.7-2.1c0-1.3,0.7-2.1,1.7-2.1
		c0.5,0,0.8,0.2,1,0.4v-0.3h0.8v3.8c0,1.3-0.7,1.8-1.9,1.9L31.2,38.9z M32.7,36.8V35c-0.2-0.3-0.5-0.5-0.8-0.5c-0.6,0-1,0.5-1,1.4
		c0,0.8,0.4,1.4,1,1.4C32.2,37.3,32.6,37.1,32.7,36.8z"/>
	<path d="M36.4,35.9c0-1.3,0.7-2.1,1.7-2.1c0.4,0,0.8,0.2,1,0.4v-1.6l0.8-0.4V38h-0.8v-0.3c-0.2,0.2-0.5,0.4-1,0.4
		C37.1,38.1,36.4,37.3,36.4,35.9z M39.1,36.8V35c-0.1-0.2-0.4-0.4-0.8-0.4c-0.6,0-1,0.5-1,1.4c0,0.8,0.4,1.4,1,1.4
		C38.6,37.3,38.9,37.1,39.1,36.8z"/>
	<path d="M43.6,37.6c-0.3,0.3-0.6,0.5-1.1,0.5c-0.9,0-1.5-0.5-1.5-1.7v-2.4h0.8v2.4c0,0.7,0.4,1,0.8,1c0.5,0,0.9-0.2,0.9-0.9v-2.5
		h0.8V38h-0.8V37.6z"/>
	<path d="M45.6,33.9h0.8v0.5c0.2-0.4,0.5-0.6,0.9-0.6c0.3,0,0.5,0.1,0.7,0.2l-0.1,0.8c-0.2-0.1-0.4-0.2-0.6-0.2
		c-0.4,0-0.8,0.2-0.8,1.1V38h-0.8V33.9z"/>
	<path d="M48.7,35.9c0-1.3,0.7-2.1,1.8-2.1c0.8,0,1.3,0.3,1.5,1.1l-0.8,0.3c-0.1-0.3-0.4-0.5-0.7-0.5c-0.6,0-1,0.5-1,1.3
		c0,0.8,0.3,1.3,0.9,1.3c0.4,0,0.7-0.2,0.8-0.6l0.8,0.2c-0.2,0.8-0.8,1.2-1.6,1.2C49.3,38.1,48.7,37.3,48.7,35.9z"/>
	<path d="M53,32.6l0.8-0.4v2.1c0.3-0.3,0.6-0.5,1.1-0.5c0.9,0,1.5,0.5,1.5,1.7V38h-0.8v-2.4c0-0.7-0.4-1-0.8-1
		c-0.5,0-0.9,0.2-0.9,0.9V38H53V32.6z"/>
</g>
<g class="st0">
	<path d="M59.2,35.9c0-1.3,0.7-2.1,1.9-2.1c1,0,1.8,0.6,1.8,1.9c0,0.2,0,0.4,0,0.5H60c0,0.7,0.5,1.1,1,1.1c0.3,0,0.6-0.1,0.8-0.4
		l0.5,0.6c-0.3,0.4-0.8,0.6-1.4,0.6C59.9,38.1,59.2,37.3,59.2,35.9z M62,35.6c0-0.8-0.5-1-0.9-1c-0.5,0-1,0.3-1,1H62z"/>
</g>
<g class="st0">
	<path d="M64.5,35.9l-1.2-2h1l0.6,0.9c0.1,0.1,0.2,0.3,0.2,0.4c0.1-0.1,0.1-0.2,0.2-0.4l0.6-0.9h1l-1.3,2l1.4,2.1h-1l-0.7-1.1
		c-0.1-0.1-0.2-0.3-0.2-0.4c0,0.1-0.1,0.2-0.2,0.4L64.1,38h-1L64.5,35.9z"/>
</g>
<g class="st0">
	<path d="M68,37.1v-2.4h-0.6v-0.7H68v-1.3l0.8-0.4v1.7h1v0.7h-1v2.2c0,0.3,0.1,0.5,0.4,0.5c0.2,0,0.4-0.1,0.6-0.2l-0.1,0.8
		c-0.2,0.1-0.5,0.2-0.8,0.2C68.2,38.1,68,37.7,68,37.1z"/>
</g>
<g class="st0">
	<path d="M70.4,35.9c0-1.3,0.7-2.1,1.9-2.1c1,0,1.8,0.6,1.8,1.9c0,0.2,0,0.4,0,0.5h-2.8c0,0.7,0.5,1.1,1,1.1c0.3,0,0.6-0.1,0.8-0.4
		l0.5,0.6c-0.3,0.4-0.8,0.6-1.4,0.6C71.1,38.1,70.4,37.3,70.4,35.9z M73.2,35.6c0-0.8-0.5-1-0.9-1c-0.5,0-1,0.3-1,1H73.2z"/>
	<path d="M75,33.9h0.8v0.5c0.2-0.4,0.5-0.6,0.9-0.6c0.3,0,0.5,0.1,0.7,0.2l-0.1,0.8c-0.2-0.1-0.4-0.2-0.6-0.2
		c-0.4,0-0.8,0.2-0.8,1.1V38H75V33.9z"/>
	<path d="M80.7,35.5c0-0.7-0.4-1-0.8-1c-0.5,0-0.9,0.2-0.9,0.9V38h-0.8v-4.1H79v0.4c0.3-0.3,0.6-0.5,1.1-0.5c0.9,0,1.5,0.5,1.5,1.7
		V38h-0.8V35.5z"/>
	<path d="M82.5,35.9c0-1.3,0.7-2.1,1.9-2.1c1,0,1.8,0.6,1.8,1.9c0,0.2,0,0.4,0,0.5h-2.8c0,0.7,0.5,1.1,1,1.1c0.3,0,0.6-0.1,0.8-0.4
		l0.5,0.6c-0.3,0.4-0.8,0.6-1.4,0.6C83.3,38.1,82.5,37.3,82.5,35.9z M85.3,35.6c0-0.8-0.5-1-0.9-1c-0.5,0-1,0.3-1,1H85.3z"/>
	<path d="M90.6,32.4c2,0,2.7,1.4,2.7,2.8c0,1.3-0.6,2.8-2.7,2.8h-1.5v-5.6H90.6z M92.4,35.2c0-1-0.5-2-1.6-2h-0.9v4h0.8
		C92,37.2,92.4,36.1,92.4,35.2z"/>
	<path d="M94.4,32.7c0-0.3,0.2-0.5,0.5-0.5s0.5,0.2,0.5,0.5c0,0.3-0.2,0.5-0.5,0.5S94.4,33,94.4,32.7z M94.4,33.9h0.8V38h-0.8V33.9z
		"/>
	<path d="M96.3,35.9c0-1.3,0.7-2.1,1.9-2.1c1,0,1.8,0.6,1.8,1.9c0,0.2,0,0.4,0,0.5h-2.8c0,0.7,0.5,1.1,1,1.1c0.3,0,0.6-0.1,0.8-0.4
		l0.5,0.6c-0.3,0.4-0.8,0.6-1.4,0.6C97,38.1,96.3,37.3,96.3,35.9z M99.1,35.6c0-0.8-0.5-1-0.9-1c-0.5,0-1,0.3-1,1H99.1z"/>
	<path d="M103.4,35.5c0-0.7-0.4-1-0.8-1c-0.5,0-0.9,0.2-0.9,0.9V38h-0.8v-4.1h0.8v0.4c0.3-0.3,0.6-0.5,1.1-0.5
		c0.9,0,1.5,0.5,1.5,1.7V38h-0.8V35.5z"/>
	<path d="M105.1,37.4l0.6-0.5c0.2,0.2,0.5,0.4,0.9,0.4c0.4,0,0.7-0.1,0.7-0.4c0-0.3-0.4-0.5-0.8-0.6c-0.9-0.3-1.3-0.7-1.3-1.3
		c0-0.7,0.6-1.1,1.4-1.1c0.7,0,1.2,0.3,1.4,0.6l-0.6,0.5c-0.1-0.2-0.4-0.3-0.8-0.3c-0.4,0-0.6,0.1-0.6,0.4c0,0.3,0.4,0.4,0.8,0.6
		c0.9,0.3,1.3,0.6,1.3,1.4c0,0.8-0.6,1.2-1.5,1.2C106,38.1,105.4,37.8,105.1,37.4z"/>
	<path d="M109.4,37.1v-2.4h-0.6v-0.7h0.6v-1.3l0.8-0.4v1.7h1v0.7h-1v2.2c0,0.3,0.1,0.5,0.4,0.5c0.2,0,0.4-0.1,0.6-0.2l-0.1,0.8
		c-0.2,0.1-0.5,0.2-0.8,0.2C109.7,38.1,109.4,37.7,109.4,37.1z"/>
	<path d="M112.2,32.6l0.8-0.4V38h-0.8V32.6z"/>
	<path d="M114.1,35.9c0-1.3,0.7-2.1,1.9-2.1c1,0,1.8,0.6,1.8,1.9c0,0.2,0,0.4,0,0.5H115c0,0.7,0.5,1.1,1,1.1c0.3,0,0.6-0.1,0.8-0.4
		l0.5,0.6c-0.3,0.4-0.8,0.6-1.4,0.6C114.8,38.1,114.1,37.3,114.1,35.9z M116.9,35.6c0-0.8-0.5-1-0.9-1c-0.5,0-1,0.3-1,1H116.9z"/>
	<path d="M118.6,32.7c0-0.3,0.2-0.5,0.5-0.5s0.5,0.2,0.5,0.5c0,0.3-0.2,0.5-0.5,0.5S118.6,33,118.6,32.7z M118.7,33.9h0.8V38h-0.8
		V33.9z"/>
	<path d="M120.5,37.4l0.6-0.5c0.2,0.2,0.5,0.4,0.9,0.4c0.4,0,0.7-0.1,0.7-0.4c0-0.3-0.4-0.5-0.8-0.6c-0.9-0.3-1.3-0.7-1.3-1.3
		c0-0.7,0.6-1.1,1.4-1.1c0.7,0,1.2,0.3,1.4,0.6l-0.6,0.5c-0.1-0.2-0.4-0.3-0.8-0.3c-0.4,0-0.6,0.1-0.6,0.4c0,0.3,0.4,0.4,0.8,0.6
		c0.9,0.3,1.3,0.6,1.3,1.4c0,0.8-0.6,1.2-1.5,1.2C121.4,38.1,120.8,37.8,120.5,37.4z"/>
</g>
<g class="st0">
	<path d="M124.8,37.1v-2.4h-0.6v-0.7h0.6v-1.3l0.8-0.4v1.7h1v0.7h-1v2.2c0,0.3,0.1,0.5,0.4,0.5c0.2,0,0.4-0.1,0.6-0.2l-0.1,0.8
		c-0.2,0.1-0.5,0.2-0.8,0.2C125,38.1,124.8,37.7,124.8,37.1z"/>
</g>
<g class="st0">
	<path d="M129.7,37.6c-0.3,0.3-0.6,0.5-1.1,0.5c-0.9,0-1.5-0.5-1.5-1.7v-2.4h0.8v2.4c0,0.7,0.4,1,0.8,1c0.5,0,0.9-0.2,0.9-0.9v-2.5
		h0.8V38h-0.8V37.6z"/>
	<path d="M134.3,35.5c0-0.7-0.4-1-0.8-1c-0.5,0-0.9,0.2-0.9,0.9V38h-0.8v-4.1h0.8v0.4c0.3-0.3,0.6-0.5,1.1-0.5
		c0.9,0,1.5,0.5,1.5,1.7V38h-0.8V35.5z"/>
	<path d="M137.2,38.9c1.2-0.1,1.5-0.4,1.5-0.9v-0.4c-0.2,0.3-0.6,0.4-1,0.4c-0.9,0-1.7-0.7-1.7-2.1c0-1.3,0.7-2.1,1.7-2.1
		c0.5,0,0.8,0.2,1,0.4v-0.3h0.8v3.8c0,1.3-0.7,1.8-1.9,1.9L137.2,38.9z M138.7,36.8V35c-0.2-0.3-0.5-0.5-0.8-0.5c-0.6,0-1,0.5-1,1.4
		c0,0.8,0.4,1.4,1,1.4C138.2,37.3,138.5,37.1,138.7,36.8z"/>
	<path d="M140.5,35.9c0-1.3,0.7-2.1,1.9-2.1c1,0,1.8,0.6,1.8,1.9c0,0.2,0,0.4,0,0.5h-2.8c0,0.7,0.5,1.1,1,1.1c0.3,0,0.6-0.1,0.8-0.4
		l0.5,0.6c-0.3,0.4-0.8,0.6-1.4,0.6C141.3,38.1,140.5,37.3,140.5,35.9z M143.3,35.6c0-0.8-0.5-1-0.9-1c-0.5,0-1,0.3-1,1H143.3z"/>
	<path d="M147.6,35.5c0-0.7-0.4-1-0.8-1c-0.5,0-0.9,0.2-0.9,0.9V38h-0.8v-4.1h0.8v0.4c0.3-0.3,0.6-0.5,1.1-0.5
		c0.9,0,1.5,0.5,1.5,1.7V38h-0.8V35.5z"/>
</g>
<g class="st0">
	<path d="M0.9,60.2l0.8-0.3c0.2,0.5,0.7,0.8,1.3,0.8c0.6,0,1-0.3,1-0.9c0-0.6-0.6-0.8-1.3-1.1c-0.8-0.3-1.6-0.6-1.6-1.6
		c0-0.8,0.6-1.5,1.8-1.5c1,0,1.5,0.5,1.7,1.1l-0.8,0.3c-0.1-0.3-0.5-0.6-1-0.6c-0.5,0-0.9,0.2-0.9,0.7c0,0.5,0.5,0.6,1.1,0.8
		c0.8,0.3,1.8,0.6,1.8,1.8c0,1.1-0.8,1.7-1.9,1.7C2,61.5,1.2,61,0.9,60.2z"/>
	<path d="M5.7,59.4c0-1.3,0.7-2.1,1.8-2.1c0.8,0,1.3,0.3,1.5,1.1l-0.8,0.3c-0.1-0.3-0.4-0.5-0.7-0.5c-0.6,0-1,0.5-1,1.3
		c0,0.8,0.3,1.3,0.9,1.3c0.4,0,0.7-0.2,0.8-0.6l0.8,0.2c-0.2,0.8-0.8,1.2-1.6,1.2C6.4,61.5,5.7,60.8,5.7,59.4z"/>
	<path d="M10.1,56.1l0.8-0.4v2.1c0.3-0.3,0.6-0.5,1.1-0.5c0.9,0,1.5,0.5,1.5,1.7v2.4h-0.8V59c0-0.7-0.4-1-0.8-1
		c-0.5,0-0.9,0.2-0.9,0.9v2.5h-0.8V56.1z"/>
	<path d="M17.1,61.1c-0.3,0.3-0.6,0.5-1.1,0.5c-0.9,0-1.5-0.5-1.5-1.7v-2.4h0.8v2.4c0,0.7,0.4,1,0.8,1c0.5,0,0.9-0.2,0.9-0.9v-2.5
		h0.8v4.1h-0.8V61.1z"/>
	<path d="M19.2,56.1l0.8-0.4v5.8h-0.8V56.1z"/>
	<path d="M23.7,61.1c-0.3,0.3-0.6,0.5-1.1,0.5c-0.9,0-1.5-0.5-1.5-1.7v-2.4H22v2.4c0,0.7,0.4,1,0.8,1c0.5,0,0.9-0.2,0.9-0.9v-2.5
		h0.8v4.1h-0.8V61.1z"/>
	<path d="M28.3,59c0-0.7-0.4-1-0.8-1c-0.5,0-0.9,0.2-0.9,0.9v2.5h-0.8v-4.1h0.8v0.4c0.3-0.3,0.6-0.5,1.1-0.5c0.9,0,1.5,0.5,1.5,1.7
		v2.4h-0.8V59z"/>
	<path d="M31.2,62.4c1.2-0.1,1.5-0.4,1.5-0.9v-0.4c-0.2,0.3-0.6,0.4-1,0.4c-0.9,0-1.7-0.7-1.7-2.1c0-1.3,0.7-2.1,1.7-2.1
		c0.5,0,0.8,0.2,1,0.4v-0.3h0.8v3.8c0,1.3-0.7,1.8-1.9,1.9L31.2,62.4z M32.7,60.3v-1.8c-0.2-0.3-0.5-0.5-0.8-0.5c-0.6,0-1,0.5-1,1.4
		c0,0.8,0.4,1.4,1,1.4C32.2,60.8,32.6,60.6,32.7,60.3z"/>
	<path d="M36.4,59.4c0-1.3,0.7-2.1,1.7-2.1c0.4,0,0.8,0.2,1,0.4v-1.6l0.8-0.4v5.8h-0.8v-0.3c-0.2,0.2-0.5,0.4-1,0.4
		C37.1,61.5,36.4,60.7,36.4,59.4z M39.1,60.3v-1.8c-0.1-0.2-0.4-0.4-0.8-0.4c-0.6,0-1,0.5-1,1.4c0,0.8,0.4,1.4,1,1.4
		C38.6,60.8,38.9,60.6,39.1,60.3z"/>
	<path d="M43.6,61.1c-0.3,0.3-0.6,0.5-1.1,0.5c-0.9,0-1.5-0.5-1.5-1.7v-2.4h0.8v2.4c0,0.7,0.4,1,0.8,1c0.5,0,0.9-0.2,0.9-0.9v-2.5
		h0.8v4.1h-0.8V61.1z"/>
	<path d="M45.6,57.4h0.8v0.5c0.2-0.4,0.5-0.6,0.9-0.6c0.3,0,0.5,0.1,0.7,0.2l-0.1,0.8c-0.2-0.1-0.4-0.2-0.6-0.2
		c-0.4,0-0.8,0.2-0.8,1.1v2.3h-0.8V57.4z"/>
	<path d="M48.7,59.4c0-1.3,0.7-2.1,1.8-2.1c0.8,0,1.3,0.3,1.5,1.1l-0.8,0.3c-0.1-0.3-0.4-0.5-0.7-0.5c-0.6,0-1,0.5-1,1.3
		c0,0.8,0.3,1.3,0.9,1.3c0.4,0,0.7-0.2,0.8-0.6l0.8,0.2c-0.2,0.8-0.8,1.2-1.6,1.2C49.3,61.5,48.7,60.8,48.7,59.4z"/>
	<path d="M53,56.1l0.8-0.4v2.1c0.3-0.3,0.6-0.5,1.1-0.5c0.9,0,1.5,0.5,1.5,1.7v2.4h-0.8V59c0-0.7-0.4-1-0.8-1
		c-0.5,0-0.9,0.2-0.9,0.9v2.5H53V56.1z"/>
	<path d="M59.2,59.4c0-1.3,0.7-2.1,1.9-2.1s1.9,0.8,1.9,2.1c0,1.3-0.7,2.1-1.9,2.1S59.2,60.8,59.2,59.4z M62.1,59.4
		c0-0.8-0.4-1.4-1-1.4c-0.6,0-1,0.5-1,1.4s0.4,1.4,1,1.4C61.7,60.8,62.1,60.3,62.1,59.4z"/>
	<path d="M63.9,57.4h0.8v0.5c0.2-0.4,0.5-0.6,0.9-0.6c0.3,0,0.5,0.1,0.7,0.2l-0.1,0.8c-0.2-0.1-0.4-0.2-0.6-0.2
		c-0.4,0-0.8,0.2-0.8,1.1v2.3h-0.8V57.4z"/>
	<path d="M68.1,62.4c1.2-0.1,1.5-0.4,1.5-0.9v-0.4c-0.2,0.3-0.6,0.4-1,0.4c-0.9,0-1.7-0.7-1.7-2.1c0-1.3,0.7-2.1,1.7-2.1
		c0.5,0,0.8,0.2,1,0.4v-0.3h0.8v3.8c0,1.3-0.7,1.8-1.9,1.9L68.1,62.4z M69.6,60.3v-1.8c-0.2-0.3-0.5-0.5-0.8-0.5c-0.6,0-1,0.5-1,1.4
		c0,0.8,0.4,1.4,1,1.4C69.1,60.8,69.4,60.6,69.6,60.3z"/>
	<path d="M74,61.1c-0.2,0.2-0.6,0.4-1.1,0.4c-0.8,0-1.5-0.5-1.5-1.4c0-0.9,0.8-1.4,1.6-1.4c0.4,0,0.7,0.1,1,0.2v-0.2
		c0-0.6-0.3-0.8-0.9-0.8c-0.5,0-0.9,0.1-1.2,0.4l-0.2-0.7c0.3-0.2,0.9-0.4,1.5-0.4c0.7,0,1.6,0.2,1.6,1.5v2.6H74V61.1z M74,60.4
		v-0.6c-0.2-0.1-0.6-0.2-0.9-0.2c-0.5,0-0.9,0.2-0.9,0.6c0,0.4,0.3,0.6,0.8,0.6C73.4,60.8,73.7,60.6,74,60.4z"/>
	<path d="M78.4,59c0-0.7-0.4-1-0.8-1c-0.5,0-0.9,0.2-0.9,0.9v2.5h-0.8v-4.1h0.8v0.4c0.3-0.3,0.6-0.5,1.1-0.5c0.9,0,1.5,0.5,1.5,1.7
		v2.4h-0.8V59z"/>
	<path d="M80.3,56.2c0-0.3,0.2-0.5,0.5-0.5s0.5,0.2,0.5,0.5c0,0.3-0.2,0.5-0.5,0.5S80.3,56.5,80.3,56.2z M80.4,57.4h0.8v4.1h-0.8
		V57.4z"/>
	<path d="M82.2,60.9l0.6-0.5c0.2,0.2,0.5,0.4,0.9,0.4c0.4,0,0.7-0.1,0.7-0.4c0-0.3-0.4-0.5-0.8-0.6c-0.9-0.3-1.3-0.7-1.3-1.3
		c0-0.7,0.6-1.1,1.4-1.1c0.7,0,1.2,0.3,1.4,0.6l-0.6,0.5c-0.1-0.2-0.4-0.3-0.8-0.3c-0.4,0-0.6,0.1-0.6,0.4c0,0.3,0.4,0.4,0.8,0.6
		c0.9,0.3,1.3,0.6,1.3,1.4c0,0.8-0.6,1.2-1.5,1.2C83.1,61.5,82.5,61.3,82.2,60.9z"/>
	<path d="M88.6,61.1c-0.2,0.2-0.6,0.4-1.1,0.4c-0.8,0-1.5-0.5-1.5-1.4c0-0.9,0.8-1.4,1.6-1.4c0.4,0,0.7,0.1,1,0.2v-0.2
		c0-0.6-0.3-0.8-0.9-0.8c-0.5,0-0.9,0.1-1.2,0.4l-0.2-0.7c0.3-0.2,0.9-0.4,1.5-0.4c0.7,0,1.6,0.2,1.6,1.5v2.6h-0.8V61.1z M88.6,60.4
		v-0.6c-0.2-0.1-0.6-0.2-0.9-0.2c-0.5,0-0.9,0.2-0.9,0.6c0,0.4,0.3,0.6,0.8,0.6C88,60.8,88.4,60.6,88.6,60.4z"/>
	<path d="M90.8,60.5v-2.4h-0.6v-0.7h0.6v-1.3l0.8-0.4v1.7h1v0.7h-1v2.2c0,0.3,0.1,0.5,0.4,0.5c0.2,0,0.4-0.1,0.6-0.2l-0.1,0.8
		c-0.2,0.1-0.5,0.2-0.8,0.2C91,61.5,90.8,61.1,90.8,60.5z"/>
	<path d="M93.5,56.2c0-0.3,0.2-0.5,0.5-0.5s0.5,0.2,0.5,0.5c0,0.3-0.2,0.5-0.5,0.5S93.5,56.5,93.5,56.2z M93.5,57.4h0.8v4.1h-0.8
		V57.4z"/>
	<path d="M95.4,59.4c0-1.3,0.7-2.1,1.9-2.1s1.9,0.8,1.9,2.1c0,1.3-0.7,2.1-1.9,2.1S95.4,60.8,95.4,59.4z M98.3,59.4
		c0-0.8-0.4-1.4-1-1.4c-0.6,0-1,0.5-1,1.4s0.4,1.4,1,1.4C97.9,60.8,98.3,60.3,98.3,59.4z"/>
	<path d="M102.7,59c0-0.7-0.4-1-0.8-1c-0.5,0-0.9,0.2-0.9,0.9v2.5h-0.8v-4.1h0.8v0.4c0.3-0.3,0.6-0.5,1.1-0.5c0.9,0,1.5,0.5,1.5,1.7
		v2.4h-0.8V59z"/>
	<path d="M104.4,60.9l0.6-0.5c0.2,0.2,0.5,0.4,0.9,0.4c0.4,0,0.7-0.1,0.7-0.4c0-0.3-0.4-0.5-0.8-0.6c-0.9-0.3-1.3-0.7-1.3-1.3
		c0-0.7,0.6-1.1,1.4-1.1c0.7,0,1.2,0.3,1.4,0.6l-0.6,0.5c-0.1-0.2-0.4-0.3-0.8-0.3c-0.4,0-0.6,0.1-0.6,0.4c0,0.3,0.4,0.4,0.8,0.6
		c0.9,0.3,1.3,0.6,1.3,1.4c0,0.8-0.6,1.2-1.5,1.2C105.3,61.5,104.7,61.3,104.4,60.9z"/>
	<path d="M108.4,56.2c0-0.3,0.2-0.5,0.5-0.5s0.5,0.2,0.5,0.5c0,0.3-0.2,0.5-0.5,0.5S108.4,56.5,108.4,56.2z M108.5,57.4h0.8v4.1
		h-0.8V57.4z"/>
	<path d="M113,59c0-0.7-0.4-1-0.8-1c-0.5,0-0.9,0.2-0.9,0.9v2.5h-0.8v-4.1h0.8v0.4c0.3-0.3,0.6-0.5,1.1-0.5c0.9,0,1.5,0.5,1.5,1.7
		v2.4H113V59z"/>
</g>
<g class="st0">
	<path d="M115.3,60.5v-2.4h-0.6v-0.7h0.6v-1.3l0.8-0.4v1.7h1v0.7h-1v2.2c0,0.3,0.1,0.5,0.4,0.5c0.2,0,0.4-0.1,0.6-0.2l-0.1,0.8
		c-0.2,0.1-0.5,0.2-0.8,0.2C115.5,61.5,115.3,61.1,115.3,60.5z"/>
</g>
<g class="st0">
	<path d="M117.8,59.4c0-1.3,0.7-2.1,1.9-2.1c1,0,1.8,0.6,1.8,1.9c0,0.2,0,0.4,0,0.5h-2.8c0,0.7,0.5,1.1,1,1.1c0.3,0,0.6-0.1,0.8-0.4
		l0.5,0.6c-0.3,0.4-0.8,0.6-1.4,0.6C118.5,61.5,117.8,60.7,117.8,59.4z M120.6,59c0-0.8-0.5-1-0.9-1c-0.5,0-1,0.3-1,1H120.6z"/>
	<path d="M122.4,57.4h0.8v0.5c0.2-0.4,0.5-0.6,0.9-0.6c0.3,0,0.5,0.1,0.7,0.2l-0.1,0.8c-0.2-0.1-0.4-0.2-0.6-0.2
		c-0.4,0-0.8,0.2-0.8,1.1v2.3h-0.8V57.4z"/>
	<path d="M128.1,59c0-0.7-0.4-1-0.8-1c-0.5,0-0.9,0.2-0.9,0.9v2.5h-0.8v-4.1h0.8v0.4c0.3-0.3,0.6-0.5,1.1-0.5c0.9,0,1.5,0.5,1.5,1.7
		v2.4h-0.8V59z"/>
	<path d="M129.9,59.4c0-1.3,0.7-2.1,1.9-2.1c1,0,1.8,0.6,1.8,1.9c0,0.2,0,0.4,0,0.5h-2.8c0,0.7,0.5,1.1,1,1.1c0.3,0,0.6-0.1,0.8-0.4
		l0.5,0.6c-0.3,0.4-0.8,0.6-1.4,0.6C130.7,61.5,129.9,60.7,129.9,59.4z M132.7,59c0-0.8-0.5-1-0.9-1c-0.5,0-1,0.3-1,1H132.7z"/>
</g>
<g class="st0">
	<path d="M139.3,60.2h-2.3l-0.5,1.3h-0.9l2-5.6h0.9l2,5.6h-0.9L139.3,60.2z M138.4,57.5c-0.1-0.2-0.2-0.4-0.2-0.6
		c0,0.2-0.1,0.4-0.2,0.6l-0.7,1.9h1.8L138.4,57.5z"/>
	<path d="M144.1,59c0-0.7-0.4-1-0.8-1c-0.5,0-0.9,0.2-0.9,0.9v2.5h-0.8v-4.1h0.8v0.4c0.3-0.3,0.6-0.5,1.1-0.5c0.9,0,1.5,0.5,1.5,1.7
		v2.4h-0.8V59z"/>
	<path d="M147,62.4c1.2-0.1,1.5-0.4,1.5-0.9v-0.4c-0.2,0.3-0.6,0.4-1,0.4c-0.9,0-1.7-0.7-1.7-2.1c0-1.3,0.7-2.1,1.7-2.1
		c0.5,0,0.8,0.2,1,0.4v-0.3h0.8v3.8c0,1.3-0.7,1.8-1.9,1.9L147,62.4z M148.6,60.3v-1.8c-0.2-0.3-0.5-0.5-0.8-0.5c-0.6,0-1,0.5-1,1.4
		c0,0.8,0.4,1.4,1,1.4C148.1,60.8,148.4,60.6,148.6,60.3z"/>
	<path d="M150.4,59.4c0-1.3,0.7-2.1,1.9-2.1c1,0,1.8,0.6,1.8,1.9c0,0.2,0,0.4,0,0.5h-2.8c0,0.7,0.5,1.1,1,1.1c0.3,0,0.6-0.1,0.8-0.4
		l0.5,0.6c-0.3,0.4-0.8,0.6-1.4,0.6C151.1,61.5,150.4,60.7,150.4,59.4z M153.2,59c0-0.8-0.5-1-0.9-1c-0.5,0-1,0.3-1,1H153.2z"/>
	<path d="M155.8,61.1v0.3H155v-5.4l0.8-0.4v2c0.2-0.2,0.5-0.4,1-0.4c1,0,1.7,0.8,1.7,2.1c0,1.4-0.6,2.1-1.7,2.1
		C156.3,61.5,156,61.4,155.8,61.1z M157.6,59.4c0-0.9-0.3-1.4-1-1.4c-0.4,0-0.7,0.3-0.9,0.5v1.8c0.2,0.3,0.5,0.5,0.9,0.5
		C157.3,60.8,157.6,60.2,157.6,59.4z"/>
	<path d="M159.3,59.4c0-1.3,0.7-2.1,1.9-2.1s1.9,0.8,1.9,2.1c0,1.3-0.7,2.1-1.9,2.1S159.3,60.8,159.3,59.4z M162.2,59.4
		c0-0.8-0.4-1.4-1-1.4c-0.6,0-1,0.5-1,1.4s0.4,1.4,1,1.4C161.8,60.8,162.2,60.3,162.2,59.4z"/>
</g>
<g class="st0">
	<path d="M164.3,60.5v-2.4h-0.6v-0.7h0.6v-1.3l0.8-0.4v1.7h1v0.7h-1v2.2c0,0.3,0.1,0.5,0.4,0.5c0.2,0,0.4-0.1,0.6-0.2l-0.1,0.8
		c-0.2,0.1-0.5,0.2-0.8,0.2C164.5,61.5,164.3,61.1,164.3,60.5z"/>
</g>
<g class="st0">
	<path d="M166.7,59.4c0-1.3,0.7-2.1,1.9-2.1c1,0,1.8,0.6,1.8,1.9c0,0.2,0,0.4,0,0.5h-2.8c0,0.7,0.5,1.1,1,1.1c0.3,0,0.6-0.1,0.8-0.4
		L170,61c-0.3,0.4-0.8,0.6-1.4,0.6C167.4,61.5,166.7,60.7,166.7,59.4z M169.5,59c0-0.8-0.5-1-0.9-1c-0.5,0-1,0.3-1,1H169.5z"/>
</g>
<g class="st0">
	<path d="M0.9,83.3L1.7,83c0.2,0.5,0.7,0.8,1.3,0.8c0.6,0,1-0.3,1-0.9c0-0.6-0.6-0.8-1.3-1.1c-0.8-0.3-1.6-0.6-1.6-1.6
		c0-0.8,0.6-1.5,1.8-1.5c1,0,1.5,0.5,1.7,1.1l-0.8,0.3c-0.1-0.3-0.5-0.6-1-0.6c-0.5,0-0.9,0.2-0.9,0.7c0,0.5,0.5,0.6,1.1,0.8
		c0.8,0.3,1.8,0.6,1.8,1.8c0,1.1-0.8,1.7-1.9,1.7C2,84.6,1.2,84.1,0.9,83.3z"/>
	<path d="M5.7,82.5c0-1.3,0.7-2.1,1.9-2.1s1.9,0.8,1.9,2.1c0,1.3-0.7,2.1-1.9,2.1S5.7,83.8,5.7,82.5z M8.6,82.5c0-0.8-0.4-1.4-1-1.4
		c-0.6,0-1,0.5-1,1.4s0.4,1.4,1,1.4C8.2,83.9,8.6,83.3,8.6,82.5z"/>
	<path d="M13,82.1c0-0.7-0.4-1-0.8-1c-0.5,0-0.9,0.2-0.9,0.9v2.5h-0.8v-4.1h0.8v0.4c0.3-0.3,0.6-0.5,1.1-0.5c0.9,0,1.5,0.5,1.5,1.7
		v2.4H13V82.1z"/>
	<path d="M14.7,84l0.6-0.5c0.2,0.2,0.5,0.4,0.9,0.4c0.4,0,0.7-0.1,0.7-0.4c0-0.3-0.4-0.5-0.8-0.6c-0.9-0.3-1.3-0.7-1.3-1.3
		c0-0.7,0.6-1.1,1.4-1.1c0.7,0,1.2,0.3,1.4,0.6l-0.6,0.5c-0.1-0.2-0.4-0.3-0.8-0.3c-0.4,0-0.6,0.1-0.6,0.4c0,0.3,0.4,0.4,0.8,0.6
		c0.9,0.3,1.3,0.6,1.3,1.4c0,0.8-0.6,1.2-1.5,1.2C15.6,84.6,15,84.4,14.7,84z"/>
	<path d="M19.1,83.6v-2.4h-0.6v-0.7h0.6v-1.3l0.8-0.4v1.7h1v0.7h-1v2.2c0,0.3,0.1,0.5,0.4,0.5c0.2,0,0.4-0.1,0.6-0.2l-0.1,0.8
		c-0.2,0.1-0.5,0.2-0.8,0.2C19.3,84.6,19.1,84.2,19.1,83.6z"/>
	<path d="M21.8,79.3c0-0.3,0.2-0.5,0.5-0.5s0.5,0.2,0.5,0.5c0,0.3-0.2,0.5-0.5,0.5S21.8,79.6,21.8,79.3z M21.8,80.5h0.8v4.1h-0.8
		V80.5z"/>
	<path d="M24.8,85.5c1.2-0.1,1.5-0.4,1.5-0.9v-0.4c-0.2,0.3-0.6,0.4-1,0.4c-0.9,0-1.7-0.7-1.7-2.1c0-1.3,0.7-2.1,1.7-2.1
		c0.5,0,0.8,0.2,1,0.4v-0.3h0.8v3.8c0,1.3-0.7,1.8-1.9,1.9L24.8,85.5z M26.3,83.4v-1.8c-0.2-0.3-0.5-0.5-0.8-0.5c-0.6,0-1,0.5-1,1.4
		c0,0.8,0.4,1.4,1,1.4C25.8,83.9,26.2,83.7,26.3,83.4z"/>
	<path d="M28.2,82.5c0-1.3,0.7-2.1,1.9-2.1c1,0,1.8,0.6,1.8,1.9c0,0.2,0,0.4,0,0.5H29c0,0.7,0.5,1.1,1,1.1c0.3,0,0.6-0.1,0.8-0.4
		l0.5,0.6c-0.3,0.4-0.8,0.6-1.4,0.6C28.9,84.6,28.2,83.8,28.2,82.5z M31,82.1c0-0.8-0.5-1-0.9-1c-0.5,0-1,0.3-1,1H31z"/>
	<path d="M32.5,84l0.6-0.5c0.2,0.2,0.5,0.4,0.9,0.4c0.4,0,0.7-0.1,0.7-0.4c0-0.3-0.4-0.5-0.8-0.6c-0.9-0.3-1.3-0.7-1.3-1.3
		c0-0.7,0.6-1.1,1.4-1.1c0.7,0,1.2,0.3,1.4,0.6l-0.6,0.5c-0.1-0.2-0.4-0.3-0.8-0.3c-0.4,0-0.6,0.1-0.6,0.4c0,0.3,0.4,0.4,0.8,0.6
		c0.9,0.3,1.3,0.6,1.3,1.4c0,0.8-0.6,1.2-1.5,1.2C33.4,84.6,32.8,84.4,32.5,84z"/>
</g>
<g class="st0">
	<path d="M268,103.1c0-0.8-0.4-1.1-0.9-1.1c-0.5,0-0.9,0.3-0.9,1.1v2.5h-0.7v-4.1h0.7v0.4c0.3-0.4,0.6-0.5,1.1-0.5
		c0.9,0,1.5,0.5,1.5,1.8v2.4H268V103.1z"/>
	<path d="M270,101.8h3.8v0.7H270V101.8z M270,103.2h3.8v0.7H270V103.2z"/>
	<path d="M275,105.1l0.4-0.5c0.3,0.3,0.7,0.5,1.4,0.5c0.8,0,1.4-0.6,1.4-1.3c0-0.7-0.5-1.2-1.1-1.2c-0.5,0-0.9,0.2-1.1,0.5l-0.7-0.2
		l0.3-2.8h3v0.6h-2.4l-0.2,1.7c0.3-0.2,0.7-0.4,1.2-0.4c1.1,0,1.8,0.8,1.8,1.8c0,1.1-0.8,1.9-2.1,1.9
		C275.9,105.7,275.3,105.4,275,105.1z"/>
</g>
<g class="st0">
	<path d="M280.9,101.1h-0.9v-0.5c0.6,0,1-0.2,1.1-0.7h0.5v5.6h-0.7V101.1z"/>
</g>
</svg>
