<?xml version="1.0" encoding="utf-8"?>
<!-- Generator: Adobe Illustrator 21.0.0, SVG Export Plug-In . SVG Version: 6.00 Build 0)  -->
<svg version="1.1" id="Layer_1" xmlns="http://www.w3.org/2000/svg" xmlns:xlink="http://www.w3.org/1999/xlink" x="0px" y="0px"
	 viewBox="0 0 353.9 247" style="enable-background:new 0 0 353.9 247;" xml:space="preserve">
<style type="text/css">
	.st0{enable-background:new    ;}
	.st1{fill:#0000FF;}
	.st2{fill:none;stroke:#000000;stroke-width:0.5;}
	.st3{fill:#FFFFFF;}
	.st4{fill:none;stroke:#000000;stroke-width:0.691;}
</style>
<g class="st0">
	<path d="M317.2,10.4c0.5-0.2,0.9-0.6,0.9-1.1c0-0.5-0.4-0.8-1-0.8c-0.6,0-1,0.3-1.1,0.7l-0.8-0.3c0.3-0.7,1-1.2,1.9-1.2
		c1.1,0,1.8,0.7,1.8,1.7c0,1-0.6,1.4-1.4,1.8c-0.7,0.4-1.2,0.8-1.4,1.4h2.8v0.8h-3.9C315.2,11.9,316.1,11,317.2,10.4z"/>
	<path d="M319.9,12.2l0.8-0.3c0.3,0.6,0.7,0.8,1.2,0.8c0.6,0,1.1-0.3,1.1-0.9c0-0.5-0.3-0.9-1.1-0.9h-0.4v-0.8h0.4
		c0.5,0,0.9-0.3,0.9-0.8c0-0.5-0.3-0.8-0.9-0.8c-0.5,0-0.8,0.3-1,0.6l-0.8-0.3c0.3-0.7,0.9-1.1,1.8-1.1c1,0,1.7,0.7,1.7,1.5
		c0,0.5-0.2,1-0.7,1.2c0.6,0.2,0.9,0.7,0.9,1.3c0,1.1-0.8,1.7-2,1.7C320.9,13.5,320.3,13,319.9,12.2z"/>
</g>
<g class="st0">
	<path d="M261.9,102.6H261V102c0.5,0,1-0.2,1.1-0.6h0.6v5.6h-0.8V102.6z"/>
	<path d="M264.3,105.8l0.8-0.3c0.3,0.6,0.7,0.8,1.2,0.8c0.6,0,1.1-0.3,1.1-0.9c0-0.5-0.3-0.9-1.1-0.9h-0.4v-0.8h0.4
		c0.5,0,0.9-0.3,0.9-0.8c0-0.5-0.3-0.8-0.9-0.8c-0.5,0-0.8,0.3-1,0.6l-0.8-0.3c0.3-0.7,0.9-1.1,1.8-1.1c1,0,1.7,0.7,1.7,1.5
		c0,0.5-0.2,1-0.7,1.2c0.6,0.2,0.9,0.7,0.9,1.3c0,1.1-0.8,1.7-2,1.7C265.3,107.1,264.7,106.6,264.3,105.8z"/>
</g>
<g class="st0">
	<path d="M240.6,36.2c0.9,0,1.7-0.4,1.9-1.7c-0.2,0.2-0.6,0.4-1.1,0.4c-1,0-1.8-0.7-1.8-1.8c0-1.1,0.8-1.8,1.9-1.8
		c1.3,0,1.9,0.9,1.9,2.2c0,2.1-0.9,3.5-2.9,3.6V36.2z M242.6,33c0-0.6-0.4-0.9-1.1-0.9c-0.6,0-1.1,0.4-1.1,1c0,0.6,0.4,1,1.1,1
		S242.6,33.6,242.6,33z"/>
</g>
<g class="st0">
	<path d="M217.9,130.1l0.5-0.7c0.3,0.2,0.6,0.4,1.2,0.4c0.8,0,1.3-0.5,1.3-1.2c0-0.7-0.4-1-1-1c-0.4,0-0.7,0.1-0.9,0.4l-0.9-0.3
		l0.2-2.8h3.1v0.8H219l-0.1,1.4c0.2-0.2,0.6-0.3,1.1-0.3c1.2,0,1.8,0.9,1.8,1.8c0,1.2-0.9,2-2.1,2
		C218.7,130.6,218.2,130.3,217.9,130.1z"/>
</g>
<g class="st0">
	<path d="M307,57.4c0.5-0.2,0.9-0.6,0.9-1.1c0-0.5-0.4-0.8-1-0.8c-0.6,0-1,0.3-1.1,0.7l-0.8-0.3c0.3-0.7,1-1.2,1.9-1.2
		c1.1,0,1.8,0.7,1.8,1.7c0,1-0.6,1.4-1.4,1.8c-0.7,0.4-1.2,0.8-1.4,1.4h2.8v0.8H305C305,58.9,305.9,58,307,57.4z"/>
	<path d="M310.5,56h-0.9v-0.6c0.5,0,1-0.2,1.1-0.6h0.6v5.6h-0.8V56z"/>
</g>
<g class="st0">
	<path d="M344.8,151c0.5-0.2,0.9-0.6,0.9-1.1c0-0.5-0.4-0.8-1-0.8c-0.6,0-1,0.3-1.1,0.7l-0.8-0.3c0.3-0.7,1-1.2,1.9-1.2
		c1.1,0,1.8,0.7,1.8,1.7c0,1-0.6,1.4-1.4,1.8c-0.7,0.4-1.2,0.8-1.4,1.4h2.8v0.8h-3.9C342.8,152.4,343.8,151.5,344.8,151z"/>
	<path d="M347.7,152.3c0-0.7,0.4-1.2,0.9-1.4c-0.4-0.2-0.7-0.6-0.7-1.2c0-0.8,0.7-1.5,1.7-1.5s1.7,0.6,1.7,1.5
		c0,0.5-0.3,0.9-0.7,1.2c0.6,0.3,0.9,0.7,0.9,1.4c0,1-0.8,1.7-1.9,1.7C348.5,154.1,347.7,153.3,347.7,152.3z M350.7,152.3
		c0-0.5-0.5-1-1.1-1c-0.6,0-1.1,0.4-1.1,1c0,0.6,0.4,1,1.1,1C350.3,153.3,350.7,152.9,350.7,152.3z M350.5,149.8
		c0-0.4-0.4-0.7-0.9-0.7c-0.5,0-0.8,0.3-0.8,0.7c0,0.4,0.3,0.7,0.8,0.7C350.1,150.5,350.5,150.2,350.5,149.8z"/>
</g>
<g class="st0">
	<path d="M307.2,80.5c0.5-0.2,0.9-0.6,0.9-1.1c0-0.5-0.4-0.8-1-0.8c-0.6,0-1,0.3-1.1,0.7l-0.8-0.3c0.3-0.7,1-1.2,1.9-1.2
		c1.1,0,1.8,0.7,1.8,1.7c0,1-0.6,1.4-1.4,1.8c-0.7,0.4-1.2,0.8-1.4,1.4h2.8v0.8h-3.9C305.2,81.9,306.2,81,307.2,80.5z"/>
	<path d="M310.8,79.1h-0.9v-0.6c0.5,0,1-0.2,1.1-0.6h0.6v5.6h-0.8V79.1z"/>
</g>
<g class="st0">
	<path d="M240.4,176.3c0.9,0,1.7-0.4,1.9-1.7c-0.2,0.2-0.6,0.4-1.1,0.4c-1,0-1.8-0.7-1.8-1.8c0-1.1,0.8-1.8,1.9-1.8
		c1.3,0,1.9,0.9,1.9,2.2c0,2.1-0.9,3.5-2.9,3.6V176.3z M242.5,173.1c0-0.6-0.4-0.9-1.1-0.9c-0.6,0-1.1,0.4-1.1,1c0,0.6,0.4,1,1.1,1
		C242,174.1,242.5,173.8,242.5,173.1z"/>
</g>
<g class="st0">
	<path d="M223.9,197.6c0-1.9,1-3.3,3.1-3.6v0.8c-0.9,0.1-1.8,0.7-2.1,1.8c0.2-0.2,0.6-0.4,1.2-0.4c1,0,1.7,0.7,1.7,1.8
		c0,1.1-0.8,1.8-1.9,1.8C224.5,199.8,223.9,198.9,223.9,197.6z M226.9,198c0-0.6-0.4-1-1.1-1c-0.6,0-1.1,0.4-1.1,1
		c0,0.6,0.5,1,1.1,1C226.5,199,226.9,198.6,226.9,198z"/>
</g>
<g class="st0">
	<path d="M238.6,14.1v-0.9h0.6c0,0.6,0.2,1,0.7,1.1v0.7h-5.8v-0.9H238.6z"/>
</g>
<g class="st0">
	<path d="M238.6,107.6v-0.9h0.6c0,0.6,0.2,1,0.7,1.1v0.7h-5.8v-0.9H238.6z"/>
</g>
<rect x="186" y="76.8" class="st1" width="109.1" height="16.1"/>
<rect x="186" y="76.8" class="st2" width="109.1" height="16.1"/>
<rect x="186" y="170.4" class="st1" width="43.9" height="16.1"/>
<rect x="186" y="170.4" class="st2" width="43.9" height="16.1"/>
<rect x="186" y="193.1" class="st1" width="28" height="16.1"/>
<rect x="186" y="193.1" class="st2" width="28" height="16.1"/>
<rect x="192.5" y="72.5" class="st3" width="106.8" height="15.9"/>
<rect x="192.5" y="72.5" class="st4" width="106.8" height="15.9"/>
<rect x="192.5" y="166.1" class="st3" width="41.6" height="15.9"/>
<rect x="192.5" y="166.1" class="st4" width="41.6" height="15.9"/>
<rect x="192.5" y="188.8" class="st3" width="26" height="15.9"/>
<rect x="192.5" y="188.8" class="st4" width="26" height="15.9"/>
<rect x="186" y="53.7" class="st1" width="109.1" height="16.1"/>
<rect x="186" y="53.7" class="st2" width="109.1" height="16.1"/>
<rect x="186" y="147.3" class="st1" width="147.8" height="16.1"/>
<rect x="186" y="147.3" class="st2" width="147.8" height="16.1"/>
<rect x="192.5" y="49.4" class="st3" width="106.8" height="15.9"/>
<rect x="192.5" y="49.4" class="st4" width="106.8" height="15.9"/>
<rect x="192.5" y="143" class="st3" width="144.7" height="15.9"/>
<rect x="192.5" y="143" class="st4" width="144.7" height="15.9"/>
<rect x="186" y="30.3" class="st1" width="43.9" height="16.1"/>
<rect x="186" y="30.3" class="st2" width="43.9" height="16.1"/>
<rect x="186" y="123.8" class="st1" width="22.3" height="16.1"/>
<rect x="186" y="123.8" class="st2" width="22.3" height="16.1"/>
<rect x="192.5" y="26" class="st3" width="41.6" height="15.9"/>
<rect x="192.5" y="26" class="st4" width="41.6" height="15.9"/>
<rect x="192.5" y="119.5" class="st3" width="20" height="15.9"/>
<rect x="192.5" y="119.5" class="st4" width="20" height="15.9"/>
<rect x="186" y="6.8" class="st1" width="118.3" height="16.1"/>
<rect x="186" y="6.8" class="st2" width="118.3" height="16.1"/>
<rect x="186" y="100.3" class="st1" width="65.6" height="16.1"/>
<rect x="186" y="100.3" class="st2" width="65.6" height="16.1"/>
<rect x="192.5" y="2.5" class="st3" width="117.1" height="15.9"/>
<rect x="192.5" y="2.5" class="st4" width="117.1" height="15.9"/>
<rect x="192.5" y="96" class="st3" width="63.2" height="15.9"/>
<rect x="192.5" y="96" class="st4" width="63.2" height="15.9"/>
<g class="st0">
	<path d="M2.8,7.8c2,0,2.7,1.4,2.7,2.8c0,1.3-0.6,2.8-2.7,2.8H1.2V7.8H2.8z M4.6,10.6c0-1-0.5-2-1.6-2H2.1v4h0.8
		C4.2,12.6,4.6,11.6,4.6,10.6z"/>
	<path d="M8.9,13.1c-0.2,0.2-0.6,0.4-1.1,0.4c-0.8,0-1.5-0.5-1.5-1.4c0-0.9,0.8-1.4,1.6-1.4c0.4,0,0.7,0.1,1,0.2v-0.2
		c0-0.6-0.3-0.8-0.9-0.8c-0.5,0-0.9,0.1-1.2,0.4L6.6,9.7C7,9.4,7.5,9.2,8.2,9.2c0.7,0,1.6,0.2,1.6,1.5v2.6H8.9V13.1z M8.9,12.3v-0.6
		c-0.2-0.1-0.6-0.2-0.9-0.2c-0.5,0-0.9,0.2-0.9,0.6c0,0.4,0.3,0.6,0.8,0.6C8.4,12.8,8.7,12.6,8.9,12.3z"/>
</g>
<g class="st0">
	<path d="M11.1,12.5V10h-0.6V9.3h0.6V8l0.8-0.4v1.7h1V10h-1v2.2c0,0.3,0.1,0.5,0.4,0.5c0.2,0,0.4-0.1,0.6-0.2l-0.1,0.8
		c-0.2,0.1-0.5,0.2-0.8,0.2C11.3,13.5,11.1,13.1,11.1,12.5z"/>
</g>
<g class="st0">
	<path d="M13.6,11.4c0-1.3,0.7-2.1,1.9-2.1c1,0,1.8,0.6,1.8,1.9c0,0.2,0,0.4,0,0.5h-2.8c0,0.7,0.5,1.1,1,1.1c0.3,0,0.6-0.1,0.8-0.4
		l0.5,0.6c-0.3,0.4-0.8,0.6-1.4,0.6C14.3,13.5,13.6,12.7,13.6,11.4z M16.4,11c0-0.8-0.5-1-0.9-1c-0.5,0-1,0.3-1,1H16.4z"/>
	<path d="M20.7,11c0-0.7-0.4-1-0.8-1C19.4,10,19,10.3,19,11v2.5h-0.8V9.3H19v0.4c0.3-0.3,0.6-0.5,1.1-0.5c0.9,0,1.5,0.5,1.5,1.7v2.4
		h-0.8V11z"/>
	<path d="M22.4,12.8l0.6-0.5c0.2,0.2,0.5,0.4,0.9,0.4c0.4,0,0.7-0.1,0.7-0.4c0-0.3-0.4-0.5-0.8-0.6c-0.9-0.3-1.3-0.7-1.3-1.3
		c0-0.7,0.6-1.1,1.4-1.1c0.7,0,1.2,0.3,1.4,0.6l-0.6,0.5c-0.1-0.2-0.4-0.3-0.8-0.3c-0.4,0-0.6,0.1-0.6,0.4c0,0.3,0.4,0.4,0.8,0.6
		c0.9,0.3,1.3,0.6,1.3,1.4c0,0.8-0.6,1.2-1.5,1.2C23.3,13.5,22.7,13.3,22.4,12.8z"/>
	<path d="M26.3,11.4c0-1.3,0.7-2.1,1.8-2.1c0.8,0,1.3,0.3,1.5,1.1l-0.8,0.3c-0.1-0.3-0.4-0.5-0.7-0.5c-0.6,0-1,0.5-1,1.3
		c0,0.8,0.3,1.3,0.9,1.3c0.4,0,0.7-0.2,0.8-0.6l0.8,0.2c-0.2,0.8-0.8,1.2-1.6,1.2C27,13.5,26.3,12.7,26.3,11.4z"/>
	<path d="M30.7,8l0.8-0.4v2.1c0.3-0.3,0.6-0.5,1.1-0.5c0.9,0,1.5,0.5,1.5,1.7v2.4h-0.8V11c0-0.7-0.4-1-0.8-1c-0.5,0-0.9,0.2-0.9,0.9
		v2.5h-0.8V8z"/>
	<path d="M37.7,13c-0.3,0.3-0.6,0.5-1.1,0.5c-0.9,0-1.5-0.5-1.5-1.7V9.3H36v2.4c0,0.7,0.4,1,0.8,1c0.5,0,0.9-0.2,0.9-0.9V9.3h0.8
		v4.1h-0.8V13z"/>
	<path d="M40,12.5V10h-0.6V9.3H40V8l0.8-0.4v1.7h1V10h-1v2.2c0,0.3,0.1,0.5,0.4,0.5c0.2,0,0.4-0.1,0.6-0.2l-0.1,0.8
		c-0.2,0.1-0.5,0.2-0.8,0.2C40.2,13.5,40,13.1,40,12.5z"/>
	<path d="M42.6,12.7l2.2-2.7h-2V9.3h3V10l-2.2,2.7h2.2v0.7h-3.2V12.7z"/>
	<path d="M51.1,7.7h0.8l-3.1,6.7h-0.8L51.1,7.7z"/>
	<path d="M54.6,7.8h0.8v5.6h-0.8V7.8z"/>
</g>
<g class="st0">
	<path d="M59,13.4h-0.8V8.6h-1.6V7.8h4v0.8H59V13.4z"/>
</g>
<g class="st0">
	<path d="M61.1,10.6h2v0.8h-2V10.6z"/>
	<path d="M64.1,12.1l0.8-0.3c0.2,0.5,0.7,0.8,1.3,0.8c0.6,0,1-0.3,1-0.9c0-0.6-0.6-0.8-1.3-1.1c-0.8-0.3-1.6-0.6-1.6-1.6
		c0-0.8,0.6-1.5,1.8-1.5c1,0,1.5,0.5,1.7,1.1L67,9.1c-0.1-0.3-0.5-0.6-1-0.6c-0.5,0-0.9,0.2-0.9,0.7c0,0.5,0.5,0.6,1.1,0.8
		c0.8,0.3,1.8,0.6,1.8,1.8c0,1.1-0.8,1.7-1.9,1.7C65.1,13.5,64.4,13,64.1,12.1z"/>
	<path d="M69,8.2c0-0.3,0.2-0.5,0.5-0.5S70,7.9,70,8.2c0,0.3-0.2,0.5-0.5,0.5S69,8.5,69,8.2z M69.1,9.3h0.8v4.1h-0.8V9.3z"/>
	<path d="M71,11.4c0-1.3,0.7-2.1,1.8-2.1c0.8,0,1.3,0.3,1.5,1.1l-0.8,0.3c-0.1-0.3-0.4-0.5-0.7-0.5c-0.6,0-1,0.5-1,1.3
		c0,0.8,0.3,1.3,0.9,1.3c0.4,0,0.7-0.2,0.8-0.6l0.8,0.2c-0.2,0.8-0.8,1.2-1.6,1.2C71.6,13.5,71,12.7,71,11.4z"/>
	<path d="M75.3,8l0.8-0.4v2.1c0.3-0.3,0.6-0.5,1.1-0.5c0.9,0,1.5,0.5,1.5,1.7v2.4h-0.8V11c0-0.7-0.4-1-0.8-1c-0.5,0-0.9,0.2-0.9,0.9
		v2.5h-0.8V8z"/>
	<path d="M79.6,11.4c0-1.3,0.7-2.1,1.9-2.1c1,0,1.8,0.6,1.8,1.9c0,0.2,0,0.4,0,0.5h-2.8c0,0.7,0.5,1.1,1,1.1c0.3,0,0.6-0.1,0.8-0.4
		l0.5,0.6c-0.3,0.4-0.8,0.6-1.4,0.6C80.3,13.5,79.6,12.7,79.6,11.4z M82.4,11c0-0.8-0.5-1-0.9-1c-0.5,0-1,0.3-1,1H82.4z"/>
	<path d="M84.2,9.3H85v0.5c0.2-0.4,0.5-0.6,0.9-0.6c0.3,0,0.5,0.1,0.7,0.2l-0.1,0.8c-0.2-0.1-0.4-0.2-0.6-0.2
		c-0.4,0-0.8,0.2-0.8,1.1v2.3h-0.8V9.3z"/>
	<path d="M87.4,8l0.8-0.4v2.1c0.3-0.3,0.6-0.5,1.1-0.5c0.9,0,1.5,0.5,1.5,1.7v2.4h-0.8V11c0-0.7-0.4-1-0.8-1c-0.5,0-0.9,0.2-0.9,0.9
		v2.5h-0.8V8z"/>
	<path d="M91.7,11.4c0-1.3,0.7-2.1,1.9-2.1c1,0,1.8,0.6,1.8,1.9c0,0.2,0,0.4,0,0.5h-2.8c0,0.7,0.5,1.1,1,1.1c0.3,0,0.6-0.1,0.8-0.4
		l0.5,0.6c-0.3,0.4-0.8,0.6-1.4,0.6C92.5,13.5,91.7,12.7,91.7,11.4z M94.5,11c0-0.8-0.5-1-0.9-1c-0.5,0-1,0.3-1,1H94.5z"/>
	<path d="M96.2,8.2c0-0.3,0.2-0.5,0.5-0.5s0.5,0.2,0.5,0.5c0,0.3-0.2,0.5-0.5,0.5S96.2,8.5,96.2,8.2z M96.3,9.3h0.8v4.1h-0.8V9.3z"
		/>
	<path d="M98.6,12.5V10H98V9.3h0.6V8l0.8-0.4v1.7h1V10h-1v2.2c0,0.3,0.1,0.5,0.4,0.5c0.2,0,0.4-0.1,0.6-0.2l-0.1,0.8
		c-0.2,0.1-0.5,0.2-0.8,0.2C98.9,13.5,98.6,13.1,98.6,12.5z"/>
</g>
<g class="st0">
	<path d="M1.2,101.4h2.2c1.4,0,1.8,0.9,1.8,1.7c0,0.8-0.5,1.7-1.8,1.7H2.1v2.2H1.2V101.4z M4.5,103.1c0-0.4-0.2-0.9-0.9-0.9H2.1v1.8
		h1.5C4.2,104,4.5,103.5,4.5,103.1z"/>
	<path d="M6.2,102.9H7v0.5c0.2-0.4,0.5-0.6,0.9-0.6c0.3,0,0.5,0.1,0.7,0.2l-0.1,0.8c-0.2-0.1-0.4-0.2-0.6-0.2
		c-0.4,0-0.8,0.2-0.8,1.1v2.3H6.2V102.9z"/>
	<path d="M9.2,104.9c0-1.3,0.7-2.1,1.9-2.1s1.9,0.8,1.9,2.1c0,1.3-0.7,2.1-1.9,2.1S9.2,106.3,9.2,104.9z M12.1,104.9
		c0-0.8-0.4-1.4-1-1.4c-0.6,0-1,0.5-1,1.4s0.4,1.4,1,1.4C11.7,106.3,12.1,105.8,12.1,104.9z"/>
	<path d="M14.9,107.9c1.2-0.1,1.5-0.4,1.5-0.9v-0.4c-0.2,0.3-0.6,0.4-1,0.4c-0.9,0-1.7-0.7-1.7-2.1c0-1.3,0.7-2.1,1.7-2.1
		c0.5,0,0.8,0.2,1,0.4v-0.3h0.8v3.8c0,1.3-0.7,1.8-1.9,1.9L14.9,107.9z M16.4,105.8v-1.8c-0.2-0.3-0.5-0.5-0.8-0.5
		c-0.6,0-1,0.5-1,1.4c0,0.8,0.4,1.4,1,1.4C15.9,106.3,16.2,106.1,16.4,105.8z"/>
</g>
<g class="st0">
	<path d="M18.4,102.9h0.8v0.5c0.2-0.4,0.5-0.6,0.9-0.6c0.3,0,0.5,0.1,0.7,0.2l-0.1,0.8c-0.2-0.1-0.4-0.2-0.6-0.2
		c-0.4,0-0.8,0.2-0.8,1.1v2.3h-0.8V102.9z"/>
</g>
<g class="st0">
	<path d="M23.8,106.6c-0.2,0.2-0.6,0.4-1.1,0.4c-0.8,0-1.5-0.5-1.5-1.4c0-0.9,0.8-1.4,1.6-1.4c0.4,0,0.7,0.1,1,0.2v-0.2
		c0-0.6-0.3-0.8-0.9-0.8c-0.5,0-0.9,0.1-1.2,0.4l-0.2-0.7c0.3-0.2,0.9-0.4,1.5-0.4c0.7,0,1.6,0.2,1.6,1.5v2.6h-0.8V106.6z
		 M23.8,105.9v-0.6c-0.2-0.1-0.6-0.2-0.9-0.2c-0.5,0-0.9,0.2-0.9,0.6c0,0.4,0.3,0.6,0.8,0.6C23.3,106.3,23.6,106.1,23.8,105.9z"/>
	<path d="M30.6,104.5c0-0.6-0.3-1-0.8-1c-0.4,0-0.8,0.3-0.8,1v2.4h-0.8v-2.4c0-0.6-0.3-1-0.8-1c-0.4,0-0.8,0.3-0.8,1v2.4h-0.8v-4.1
		h0.8v0.4c0.2-0.3,0.6-0.5,1-0.5c0.4,0,0.9,0.2,1.1,0.6c0.3-0.4,0.7-0.6,1.2-0.6c0.8,0,1.5,0.5,1.5,1.5v2.6h-0.8V104.5z"/>
	<path d="M37.4,104.5c0-0.6-0.3-1-0.8-1c-0.4,0-0.8,0.3-0.8,1v2.4H35v-2.4c0-0.6-0.3-1-0.8-1c-0.4,0-0.8,0.3-0.8,1v2.4h-0.8v-4.1
		h0.8v0.4c0.2-0.3,0.6-0.5,1-0.5c0.4,0,0.9,0.2,1.1,0.6c0.3-0.4,0.7-0.6,1.2-0.6c0.8,0,1.5,0.5,1.5,1.5v2.6h-0.8V104.5z"/>
	<path d="M39.3,101.8c0-0.3,0.2-0.5,0.5-0.5s0.5,0.2,0.5,0.5c0,0.3-0.2,0.5-0.5,0.5S39.3,102,39.3,101.8z M39.4,102.9h0.8v4.1h-0.8
		V102.9z"/>
	<path d="M41.2,104.9c0-1.3,0.7-2.1,1.9-2.1c1,0,1.8,0.6,1.8,1.9c0,0.2,0,0.4,0,0.5H42c0,0.7,0.5,1.1,1,1.1c0.3,0,0.6-0.1,0.8-0.4
		l0.5,0.6c-0.3,0.4-0.8,0.6-1.4,0.6C41.9,107.1,41.2,106.3,41.2,104.9z M44,104.6c0-0.8-0.5-1-0.9-1c-0.5,0-1,0.3-1,1H44z"/>
	<path d="M45.8,102.9h0.8v0.5c0.2-0.4,0.5-0.6,0.9-0.6c0.3,0,0.5,0.1,0.7,0.2l-0.1,0.8c-0.2-0.1-0.4-0.2-0.6-0.2
		c-0.4,0-0.8,0.2-0.8,1.1v2.3h-0.8V102.9z"/>
	<path d="M48.8,104.9c0-1.3,0.7-2.1,1.9-2.1c1,0,1.8,0.6,1.8,1.9c0,0.2,0,0.4,0,0.5h-2.8c0,0.7,0.5,1.1,1,1.1c0.3,0,0.6-0.1,0.8-0.4
		l0.5,0.6c-0.3,0.4-0.8,0.6-1.4,0.6C49.5,107.1,48.8,106.3,48.8,104.9z M51.6,104.6c0-0.8-0.5-1-0.9-1c-0.5,0-1,0.3-1,1H51.6z"/>
	<path d="M55.9,104.5c0-0.7-0.4-1-0.8-1c-0.5,0-0.9,0.2-0.9,0.9v2.5h-0.8v-4.1h0.8v0.4c0.3-0.3,0.6-0.5,1.1-0.5
		c0.9,0,1.5,0.5,1.5,1.7v2.4h-0.8V104.5z"/>
	<path d="M62.2,101.3H63l-3.1,6.7H59L62.2,101.3z"/>
	<path d="M65.4,104.2c0-1.3,0.6-2.9,2.3-2.9c1.1,0,1.7,0.6,1.9,1.1l-0.8,0.4c-0.3-0.4-0.6-0.7-1.1-0.7c-1.1,0-1.5,1.2-1.5,2.1
		c0,1,0.4,2.1,1.5,2.1c0.6,0,0.9-0.3,1.1-0.7l0.8,0.3c-0.3,0.7-0.9,1.2-1.9,1.2C66,107.1,65.4,105.6,65.4,104.2z"/>
	<path d="M70.5,104.9c0-1.3,0.7-2.1,1.9-2.1s1.9,0.8,1.9,2.1c0,1.3-0.7,2.1-1.9,2.1S70.5,106.3,70.5,104.9z M73.4,104.9
		c0-0.8-0.4-1.4-1-1.4c-0.6,0-1,0.5-1,1.4s0.4,1.4,1,1.4C73,106.3,73.4,105.8,73.4,104.9z"/>
	<path d="M75.1,104.9c0-1.3,0.7-2.1,1.7-2.1c0.4,0,0.8,0.2,1,0.4v-1.6l0.8-0.4v5.8h-0.8v-0.3c-0.2,0.2-0.5,0.4-1,0.4
		C75.7,107.1,75.1,106.3,75.1,104.9z M77.7,105.8V104c-0.1-0.2-0.4-0.4-0.8-0.4c-0.6,0-1,0.5-1,1.4c0,0.8,0.4,1.4,1,1.4
		C77.2,106.3,77.5,106.1,77.7,105.8z"/>
	<path d="M79.7,101.8c0-0.3,0.2-0.5,0.5-0.5s0.5,0.2,0.5,0.5c0,0.3-0.2,0.5-0.5,0.5S79.7,102,79.7,101.8z M79.8,102.9h0.8v4.1h-0.8
		V102.9z"/>
	<path d="M84.3,104.5c0-0.7-0.4-1-0.8-1c-0.5,0-0.9,0.2-0.9,0.9v2.5h-0.8v-4.1h0.8v0.4c0.3-0.3,0.6-0.5,1.1-0.5
		c0.9,0,1.5,0.5,1.5,1.7v2.4h-0.8V104.5z"/>
	<path d="M87.3,107.9c1.2-0.1,1.5-0.4,1.5-0.9v-0.4c-0.2,0.3-0.6,0.4-1,0.4c-0.9,0-1.7-0.7-1.7-2.1c0-1.3,0.7-2.1,1.7-2.1
		c0.5,0,0.8,0.2,1,0.4v-0.3h0.8v3.8c0,1.3-0.7,1.8-1.9,1.9L87.3,107.9z M88.8,105.8v-1.8c-0.2-0.3-0.5-0.5-0.8-0.5
		c-0.6,0-1,0.5-1,1.4c0,0.8,0.4,1.4,1,1.4C88.3,106.3,88.6,106.1,88.8,105.8z"/>
</g>
<g class="st0">
	<path d="M2.8,31.3c2,0,2.7,1.4,2.7,2.8c0,1.3-0.6,2.8-2.7,2.8H1.2v-5.6H2.8z M4.6,34.1c0-1-0.5-2-1.6-2H2.1v4h0.8
		C4.2,36.1,4.6,35.1,4.6,34.1z"/>
	<path d="M8.9,36.6C8.7,36.8,8.3,37,7.8,37c-0.8,0-1.5-0.5-1.5-1.4c0-0.9,0.8-1.4,1.6-1.4c0.4,0,0.7,0.1,1,0.2v-0.2
		c0-0.6-0.3-0.8-0.9-0.8c-0.5,0-0.9,0.1-1.2,0.4l-0.2-0.7c0.3-0.2,0.9-0.4,1.5-0.4c0.7,0,1.6,0.2,1.6,1.5v2.6H8.9V36.6z M8.9,35.8
		v-0.6C8.7,35.1,8.4,35,8.1,35c-0.5,0-0.9,0.2-0.9,0.6c0,0.4,0.3,0.6,0.8,0.6C8.4,36.3,8.7,36.1,8.9,35.8z"/>
</g>
<g class="st0">
	<path d="M11.1,36v-2.4h-0.6v-0.7h0.6v-1.3l0.8-0.4v1.7h1v0.7h-1v2.2c0,0.3,0.1,0.5,0.4,0.5c0.2,0,0.4-0.1,0.6-0.2l-0.1,0.8
		C12.6,36.9,12.3,37,12,37C11.3,37,11.1,36.6,11.1,36z"/>
</g>
<g class="st0">
	<path d="M13.6,34.9c0-1.3,0.7-2.1,1.9-2.1c1,0,1.8,0.6,1.8,1.9c0,0.2,0,0.4,0,0.5h-2.8c0,0.7,0.5,1.1,1,1.1c0.3,0,0.6-0.1,0.8-0.4
		l0.5,0.6c-0.3,0.4-0.8,0.6-1.4,0.6C14.3,37,13.6,36.2,13.6,34.9z M16.4,34.5c0-0.8-0.5-1-0.9-1c-0.5,0-1,0.3-1,1H16.4z"/>
	<path d="M20.7,34.5c0-0.7-0.4-1-0.8-1c-0.5,0-0.9,0.2-0.9,0.9v2.5h-0.8v-4.1H19v0.4c0.3-0.3,0.6-0.5,1.1-0.5c0.9,0,1.5,0.5,1.5,1.7
		v2.4h-0.8V34.5z"/>
	<path d="M22.7,32.8h0.8v0.5c0.2-0.4,0.5-0.6,0.9-0.6c0.3,0,0.5,0.1,0.7,0.2L25,33.7c-0.2-0.1-0.4-0.2-0.6-0.2
		c-0.4,0-0.8,0.2-0.8,1.1v2.3h-0.8V32.8z"/>
	<path d="M25.7,34.9c0-1.3,0.7-2.1,1.9-2.1c1,0,1.8,0.6,1.8,1.9c0,0.2,0,0.4,0,0.5h-2.8c0,0.7,0.5,1.1,1,1.1c0.3,0,0.6-0.1,0.8-0.4
		l0.5,0.6c-0.3,0.4-0.8,0.6-1.4,0.6C26.5,37,25.7,36.2,25.7,34.9z M28.5,34.5c0-0.8-0.5-1-0.9-1c-0.5,0-1,0.3-1,1H28.5z"/>
	<path d="M30.1,34.9c0-1.3,0.7-2.1,1.8-2.1c0.8,0,1.3,0.3,1.5,1.1l-0.8,0.3c-0.1-0.3-0.4-0.5-0.7-0.5c-0.6,0-1,0.5-1,1.3
		c0,0.8,0.3,1.3,0.9,1.3c0.4,0,0.7-0.2,0.8-0.6l0.8,0.2c-0.2,0.8-0.8,1.2-1.6,1.2C30.8,37,30.1,36.2,30.1,34.9z"/>
	<path d="M34.5,31.5l0.8-0.4v2.1c0.3-0.3,0.6-0.5,1.1-0.5c0.9,0,1.5,0.5,1.5,1.7v2.4H37v-2.4c0-0.7-0.4-1-0.8-1
		c-0.5,0-0.9,0.2-0.9,0.9v2.5h-0.8V31.5z"/>
	<path d="M38.8,34.9c0-1.3,0.7-2.1,1.9-2.1c1,0,1.8,0.6,1.8,1.9c0,0.2,0,0.4,0,0.5h-2.8c0,0.7,0.5,1.1,1,1.1c0.3,0,0.6-0.1,0.8-0.4
		l0.5,0.6c-0.3,0.4-0.8,0.6-1.4,0.6C39.5,37,38.8,36.2,38.8,34.9z M41.6,34.5c0-0.8-0.5-1-0.9-1c-0.5,0-1,0.3-1,1H41.6z"/>
	<path d="M43.4,32.8h0.8v0.5c0.2-0.4,0.5-0.6,0.9-0.6c0.3,0,0.5,0.1,0.7,0.2l-0.1,0.8c-0.2-0.1-0.4-0.2-0.6-0.2
		c-0.4,0-0.8,0.2-0.8,1.1v2.3h-0.8V32.8z"/>
	<path d="M46.4,34.9c0-1.3,0.7-2.1,1.8-2.1c0.8,0,1.3,0.3,1.5,1.1l-0.8,0.3c-0.1-0.3-0.4-0.5-0.7-0.5c-0.6,0-1,0.5-1,1.3
		c0,0.8,0.3,1.3,0.9,1.3c0.4,0,0.7-0.2,0.8-0.6l0.8,0.2C49.5,36.6,49,37,48.2,37C47.1,37,46.4,36.2,46.4,34.9z"/>
	<path d="M50.7,31.5l0.8-0.4v2.1c0.3-0.3,0.6-0.5,1.1-0.5c0.9,0,1.5,0.5,1.5,1.7v2.4h-0.8v-2.4c0-0.7-0.4-1-0.8-1
		c-0.5,0-0.9,0.2-0.9,0.9v2.5h-0.8V31.5z"/>
	<path d="M55,34.9c0-1.3,0.7-2.1,1.9-2.1c1,0,1.8,0.6,1.8,1.9c0,0.2,0,0.4,0,0.5h-2.8c0,0.7,0.5,1.1,1,1.1c0.3,0,0.6-0.1,0.8-0.4
		l0.5,0.6C58,36.8,57.5,37,56.9,37C55.8,37,55,36.2,55,34.9z M57.8,34.5c0-0.8-0.5-1-0.9-1c-0.5,0-1,0.3-1,1H57.8z"/>
	<path d="M59.8,37c-0.3,0-0.5-0.2-0.5-0.6c0-0.4,0.3-0.6,0.6-0.6c0.3,0,0.6,0.2,0.6,0.7c0,0.6-0.4,1.2-0.9,1.5l-0.3-0.2
		C59.5,37.7,59.8,37.4,59.8,37z"/>
	<path d="M63.2,34.1h2v0.8h-2V34.1z"/>
	<path d="M68.7,36.6c-0.2,0.2-0.6,0.4-1.1,0.4c-0.8,0-1.5-0.5-1.5-1.4c0-0.9,0.8-1.4,1.6-1.4c0.4,0,0.7,0.1,1,0.2v-0.2
		c0-0.6-0.3-0.8-0.9-0.8c-0.5,0-0.9,0.1-1.2,0.4l-0.2-0.7c0.3-0.2,0.9-0.4,1.5-0.4c0.7,0,1.6,0.2,1.6,1.5v2.6h-0.8V36.6z M68.7,35.8
		v-0.6c-0.2-0.1-0.6-0.2-0.9-0.2c-0.5,0-0.9,0.2-0.9,0.6c0,0.4,0.3,0.6,0.8,0.6C68.2,36.3,68.5,36.1,68.7,35.8z"/>
	<path d="M73.2,34.5c0-0.7-0.4-1-0.8-1c-0.5,0-0.9,0.2-0.9,0.9v2.5h-0.8v-4.1h0.8v0.4c0.3-0.3,0.6-0.5,1.1-0.5
		c0.9,0,1.5,0.5,1.5,1.7v2.4h-0.8V34.5z"/>
	<path d="M77.5,36.6c-0.2,0.2-0.6,0.4-1.1,0.4c-0.8,0-1.5-0.5-1.5-1.4c0-0.9,0.8-1.4,1.6-1.4c0.4,0,0.7,0.1,1,0.2v-0.2
		c0-0.6-0.3-0.8-0.9-0.8c-0.5,0-0.9,0.1-1.2,0.4l-0.2-0.7c0.3-0.2,0.9-0.4,1.5-0.4c0.7,0,1.6,0.2,1.6,1.5v2.6h-0.8V36.6z M77.5,35.8
		v-0.6C77.3,35.1,77,35,76.6,35c-0.5,0-0.9,0.2-0.9,0.6c0,0.4,0.3,0.6,0.8,0.6C77,36.3,77.3,36.1,77.5,35.8z"/>
	<path d="M79.5,31.5l0.8-0.4v5.8h-0.8V31.5z"/>
	<path d="M82.7,36.8l-1.5-4H82l1,2.7c0.1,0.2,0.1,0.2,0.1,0.4c0-0.1,0.1-0.2,0.1-0.4l1-2.7h0.8l-2.2,5.6H82L82.7,36.8z"/>
	<path d="M85.6,36.3l0.6-0.5c0.2,0.2,0.5,0.4,0.9,0.4c0.4,0,0.7-0.1,0.7-0.4c0-0.3-0.4-0.5-0.8-0.6c-0.9-0.3-1.3-0.7-1.3-1.3
		c0-0.7,0.6-1.1,1.4-1.1c0.7,0,1.2,0.3,1.4,0.6l-0.6,0.5c-0.1-0.2-0.4-0.3-0.8-0.3c-0.4,0-0.6,0.1-0.6,0.4c0,0.3,0.4,0.4,0.8,0.6
		c0.9,0.3,1.3,0.6,1.3,1.4c0,0.8-0.6,1.2-1.5,1.2C86.5,37,85.9,36.8,85.6,36.3z"/>
	<path d="M89.5,34.9c0-1.3,0.7-2.1,1.9-2.1c1,0,1.8,0.6,1.8,1.9c0,0.2,0,0.4,0,0.5h-2.8c0,0.7,0.5,1.1,1,1.1c0.3,0,0.6-0.1,0.8-0.4
		l0.5,0.6C92.4,36.8,92,37,91.3,37C90.2,37,89.5,36.2,89.5,34.9z M92.2,34.5c0-0.8-0.5-1-0.9-1c-0.5,0-1,0.3-1,1H92.2z"/>
	<path d="M94.2,37c-0.3,0-0.5-0.2-0.5-0.6c0-0.4,0.3-0.6,0.6-0.6c0.3,0,0.6,0.2,0.6,0.7c0,0.6-0.4,1.2-0.9,1.5l-0.3-0.2
		C93.9,37.7,94.2,37.4,94.2,37z"/>
	<path d="M97.7,34.1h2v0.8h-2V34.1z"/>
	<path d="M100.4,32.8h0.8l0.9,2.7c0,0.1,0.1,0.2,0.1,0.4c0-0.1,0.1-0.2,0.1-0.4l0.9-2.7h0.8l-1.5,4.1h-0.8L100.4,32.8z"/>
	<path d="M104.9,31.7c0-0.3,0.2-0.5,0.5-0.5c0.3,0,0.5,0.2,0.5,0.5c0,0.3-0.2,0.5-0.5,0.5C105.1,32.2,104.9,32,104.9,31.7z
		 M105,32.8h0.8v4.1H105V32.8z"/>
	<path d="M106.8,36.3l0.6-0.5c0.2,0.2,0.5,0.4,0.9,0.4c0.4,0,0.7-0.1,0.7-0.4c0-0.3-0.4-0.5-0.8-0.6c-0.9-0.3-1.3-0.7-1.3-1.3
		c0-0.7,0.6-1.1,1.4-1.1c0.7,0,1.2,0.3,1.4,0.6l-0.6,0.5c-0.1-0.2-0.4-0.3-0.8-0.3c-0.4,0-0.6,0.1-0.6,0.4c0,0.3,0.4,0.4,0.8,0.6
		c0.9,0.3,1.3,0.6,1.3,1.4c0,0.8-0.6,1.2-1.5,1.2C107.7,37,107,36.8,106.8,36.3z"/>
	<path d="M113.3,36.5c-0.3,0.3-0.6,0.5-1.1,0.5c-0.9,0-1.5-0.5-1.5-1.7v-2.4h0.8v2.4c0,0.7,0.4,1,0.8,1c0.5,0,0.9-0.2,0.9-0.9v-2.5
		h0.8v4.1h-0.8V36.5z"/>
	<path d="M117.7,36.6c-0.2,0.2-0.6,0.4-1.1,0.4c-0.8,0-1.5-0.5-1.5-1.4c0-0.9,0.8-1.4,1.6-1.4c0.4,0,0.7,0.1,1,0.2v-0.2
		c0-0.6-0.3-0.8-0.9-0.8c-0.5,0-0.9,0.1-1.2,0.4l-0.2-0.7c0.3-0.2,0.9-0.4,1.5-0.4c0.7,0,1.6,0.2,1.6,1.5v2.6h-0.8V36.6z
		 M117.7,35.8v-0.6c-0.2-0.1-0.6-0.2-0.9-0.2c-0.5,0-0.9,0.2-0.9,0.6c0,0.4,0.3,0.6,0.8,0.6C117.1,36.3,117.5,36.1,117.7,35.8z"/>
	<path d="M119.6,31.5l0.8-0.4v5.8h-0.8V31.5z"/>
	<path d="M121.6,31.7c0-0.3,0.2-0.5,0.5-0.5c0.3,0,0.5,0.2,0.5,0.5c0,0.3-0.2,0.5-0.5,0.5C121.9,32.2,121.6,32,121.6,31.7z
		 M121.7,32.8h0.8v4.1h-0.8V32.8z"/>
	<path d="M123.5,36.3l0.6-0.5c0.2,0.2,0.5,0.4,0.9,0.4c0.4,0,0.7-0.1,0.7-0.4c0-0.3-0.4-0.5-0.8-0.6c-0.9-0.3-1.3-0.7-1.3-1.3
		c0-0.7,0.6-1.1,1.4-1.1c0.7,0,1.2,0.3,1.4,0.6l-0.6,0.5c-0.1-0.2-0.4-0.3-0.8-0.3c-0.4,0-0.6,0.1-0.6,0.4c0,0.3,0.4,0.4,0.8,0.6
		c0.9,0.3,1.3,0.6,1.3,1.4c0,0.8-0.6,1.2-1.5,1.2C124.4,37,123.8,36.8,123.5,36.3z"/>
	<path d="M127.5,31.7c0-0.3,0.2-0.5,0.5-0.5c0.3,0,0.5,0.2,0.5,0.5c0,0.3-0.2,0.5-0.5,0.5C127.7,32.2,127.5,32,127.5,31.7z
		 M127.6,32.8h0.8v4.1h-0.8V32.8z"/>
	<path d="M129.4,34.9c0-1.3,0.7-2.1,1.9-2.1c1,0,1.8,0.6,1.8,1.9c0,0.2,0,0.4,0,0.5h-2.8c0,0.7,0.5,1.1,1,1.1c0.3,0,0.6-0.1,0.8-0.4
		l0.5,0.6c-0.3,0.4-0.8,0.6-1.4,0.6C130.1,37,129.4,36.2,129.4,34.9z M132.2,34.5c0-0.8-0.5-1-0.9-1c-0.5,0-1,0.3-1,1H132.2z"/>
</g>
<g class="st0">
	<path d="M134,32.8h0.8v0.5c0.2-0.4,0.5-0.6,0.9-0.6c0.3,0,0.5,0.1,0.7,0.2l-0.1,0.8c-0.2-0.1-0.4-0.2-0.6-0.2
		c-0.4,0-0.8,0.2-0.8,1.1v2.3H134V32.8z"/>
</g>
<g class="st0">
	<path d="M139.6,36.5c-0.3,0.3-0.6,0.5-1.1,0.5c-0.9,0-1.5-0.5-1.5-1.7v-2.4h0.8v2.4c0,0.7,0.4,1,0.8,1c0.5,0,0.9-0.2,0.9-0.9v-2.5
		h0.8v4.1h-0.8V36.5z"/>
	<path d="M144.2,34.5c0-0.7-0.4-1-0.8-1c-0.5,0-0.9,0.2-0.9,0.9v2.5h-0.8v-4.1h0.8v0.4c0.3-0.3,0.6-0.5,1.1-0.5
		c0.9,0,1.5,0.5,1.5,1.7v2.4h-0.8V34.5z"/>
	<path d="M147.1,37.9c1.2-0.1,1.5-0.4,1.5-0.9v-0.4c-0.2,0.3-0.6,0.4-1,0.4c-0.9,0-1.7-0.7-1.7-2.1c0-1.3,0.7-2.1,1.7-2.1
		c0.5,0,0.8,0.2,1,0.4v-0.3h0.8v3.8c0,1.3-0.7,1.8-1.9,1.9L147.1,37.9z M148.6,35.7V34c-0.2-0.3-0.5-0.5-0.8-0.5c-0.6,0-1,0.5-1,1.4
		c0,0.8,0.4,1.4,1,1.4C148.1,36.2,148.4,36.1,148.6,35.7z"/>
</g>
<g class="st0">
	<path d="M1.2,124.9h2.2c1.4,0,1.8,0.9,1.8,1.7c0,0.8-0.5,1.7-1.8,1.7H2.1v2.2H1.2V124.9z M4.5,126.6c0-0.4-0.2-0.9-0.9-0.9H2.1v1.8
		h1.5C4.2,127.5,4.5,127,4.5,126.6z"/>
	<path d="M6.2,126.4H7v0.5c0.2-0.4,0.5-0.6,0.9-0.6c0.3,0,0.5,0.1,0.7,0.2l-0.1,0.8c-0.2-0.1-0.4-0.2-0.6-0.2
		c-0.4,0-0.8,0.2-0.8,1.1v2.3H6.2V126.4z"/>
	<path d="M9.2,128.5c0-1.3,0.7-2.1,1.9-2.1s1.9,0.8,1.9,2.1c0,1.3-0.7,2.1-1.9,2.1S9.2,129.8,9.2,128.5z M12.1,128.5
		c0-0.8-0.4-1.4-1-1.4c-0.6,0-1,0.5-1,1.4s0.4,1.4,1,1.4C11.7,129.8,12.1,129.3,12.1,128.5z"/>
	<path d="M13.8,129.8l2.2-2.7h-2v-0.7h3v0.7l-2.2,2.7h2.2v0.7h-3.2V129.8z"/>
	<path d="M17.8,128.4c0-1.3,0.7-2.1,1.9-2.1c1,0,1.8,0.6,1.8,1.9c0,0.2,0,0.4,0,0.5h-2.8c0,0.7,0.5,1.1,1,1.1c0.3,0,0.6-0.1,0.8-0.4
		l0.5,0.6c-0.3,0.4-0.8,0.6-1.4,0.6C18.5,130.6,17.8,129.8,17.8,128.4z M20.6,128.1c0-0.8-0.5-1-0.9-1c-0.5,0-1,0.3-1,1H20.6z"/>
	<path d="M22.1,129.9l0.6-0.5c0.2,0.2,0.5,0.4,0.9,0.4c0.4,0,0.7-0.1,0.7-0.4c0-0.3-0.4-0.5-0.8-0.6c-0.9-0.3-1.3-0.7-1.3-1.3
		c0-0.7,0.6-1.1,1.4-1.1c0.7,0,1.2,0.3,1.4,0.6l-0.6,0.5c-0.1-0.2-0.4-0.3-0.8-0.3c-0.4,0-0.6,0.1-0.6,0.4c0,0.3,0.4,0.4,0.8,0.6
		c0.9,0.3,1.3,0.6,1.3,1.4c0,0.8-0.6,1.2-1.5,1.2C23,130.6,22.4,130.3,22.1,129.9z"/>
	<path d="M25.9,129.9l0.6-0.5c0.2,0.2,0.5,0.4,0.9,0.4c0.4,0,0.7-0.1,0.7-0.4c0-0.3-0.4-0.5-0.8-0.6c-0.9-0.3-1.3-0.7-1.3-1.3
		c0-0.7,0.6-1.1,1.4-1.1c0.7,0,1.2,0.3,1.4,0.6l-0.6,0.5c-0.1-0.2-0.4-0.3-0.8-0.3c-0.4,0-0.6,0.1-0.6,0.4c0,0.3,0.4,0.4,0.8,0.6
		c0.9,0.3,1.3,0.6,1.3,1.4c0,0.8-0.6,1.2-1.5,1.2C26.8,130.6,26.2,130.3,25.9,129.9z"/>
	<path d="M29.8,128.5c0-1.3,0.7-2.1,1.9-2.1s1.9,0.8,1.9,2.1c0,1.3-0.7,2.1-1.9,2.1S29.8,129.8,29.8,128.5z M32.7,128.5
		c0-0.8-0.4-1.4-1-1.4c-0.6,0-1,0.5-1,1.4s0.4,1.4,1,1.4C32.3,129.8,32.7,129.3,32.7,128.5z"/>
	<path d="M35.4,130.1v1.6l-0.8,0.4v-5.7h0.8v0.3c0.2-0.2,0.5-0.4,1-0.4c1,0,1.7,0.8,1.7,2.1c0,1.3-0.7,2.1-1.7,2.1
		C35.9,130.6,35.6,130.4,35.4,130.1z M37.2,128.5c0-0.8-0.4-1.4-1-1.4c-0.4,0-0.7,0.2-0.9,0.5v1.8c0.2,0.2,0.5,0.5,0.9,0.5
		C36.9,129.8,37.2,129.3,37.2,128.5z"/>
	<path d="M39.3,129.6v-2.4h-0.6v-0.7h0.6v-1.3l0.8-0.4v1.7h1v0.7h-1v2.2c0,0.3,0.1,0.5,0.4,0.5c0.2,0,0.4-0.1,0.6-0.2l-0.1,0.8
		c-0.2,0.1-0.5,0.2-0.8,0.2C39.6,130.6,39.3,130.2,39.3,129.6z"/>
	<path d="M42,125.3c0-0.3,0.2-0.5,0.5-0.5s0.5,0.2,0.5,0.5c0,0.3-0.2,0.5-0.5,0.5S42,125.5,42,125.3z M42.1,126.4h0.8v4.1h-0.8
		V126.4z"/>
	<path d="M48.9,128c0-0.6-0.3-1-0.8-1c-0.4,0-0.8,0.3-0.8,1v2.4h-0.8V128c0-0.6-0.3-1-0.8-1c-0.4,0-0.8,0.3-0.8,1v2.4h-0.8v-4.1h0.8
		v0.4c0.2-0.3,0.6-0.5,1-0.5c0.4,0,0.9,0.2,1.1,0.6c0.3-0.4,0.7-0.6,1.2-0.6c0.8,0,1.5,0.5,1.5,1.5v2.6h-0.8V128z"/>
	<path d="M50.8,125.3c0-0.3,0.2-0.5,0.5-0.5s0.5,0.2,0.5,0.5c0,0.3-0.2,0.5-0.5,0.5S50.8,125.5,50.8,125.3z M50.9,126.4h0.8v4.1
		h-0.8V126.4z"/>
	<path d="M52.8,128.4c0-1.3,0.7-2.1,1.9-2.1c1,0,1.8,0.6,1.8,1.9c0,0.2,0,0.4,0,0.5h-2.8c0,0.7,0.5,1.1,1,1.1c0.3,0,0.6-0.1,0.8-0.4
		L56,130c-0.3,0.4-0.8,0.6-1.4,0.6C53.5,130.6,52.8,129.8,52.8,128.4z M55.5,128.1c0-0.8-0.5-1-0.9-1c-0.5,0-1,0.3-1,1H55.5z"/>
</g>
<g class="st0">
	<path d="M57.3,126.4h0.8v0.5c0.2-0.4,0.5-0.6,0.9-0.6c0.3,0,0.5,0.1,0.7,0.2l-0.1,0.8c-0.2-0.1-0.4-0.2-0.6-0.2
		c-0.4,0-0.8,0.2-0.8,1.1v2.3h-0.8V126.4z"/>
</g>
<g class="st0">
	<path d="M63,130.1c-0.3,0.3-0.6,0.5-1.1,0.5c-0.9,0-1.5-0.5-1.5-1.7v-2.4h0.8v2.4c0,0.7,0.4,1,0.8,1c0.5,0,0.9-0.2,0.9-0.9v-2.5
		h0.8v4.1H63V130.1z"/>
	<path d="M67.6,128.1c0-0.7-0.4-1-0.8-1c-0.5,0-0.9,0.2-0.9,0.9v2.5H65v-4.1h0.8v0.4c0.3-0.3,0.6-0.5,1.1-0.5c0.9,0,1.5,0.5,1.5,1.7
		v2.4h-0.8V128.1z"/>
	<path d="M70.5,131.5c1.2-0.1,1.5-0.4,1.5-0.9v-0.4c-0.2,0.3-0.6,0.4-1,0.4c-0.9,0-1.7-0.7-1.7-2.1c0-1.3,0.7-2.1,1.7-2.1
		c0.5,0,0.8,0.2,1,0.4v-0.3h0.8v3.8c0,1.3-0.7,1.8-1.9,1.9L70.5,131.5z M72,129.3v-1.8c-0.2-0.3-0.5-0.5-0.8-0.5c-0.6,0-1,0.5-1,1.4
		c0,0.8,0.4,1.4,1,1.4C71.5,129.8,71.8,129.6,72,129.3z"/>
</g>
<g class="st0">
	<path d="M3.3,54.8c1.3,0,1.8,0.7,1.8,1.5c0,0.5-0.3,0.9-0.8,1.2c0.7,0.2,1,0.8,1,1.3c0,0.8-0.5,1.6-1.8,1.6H1.2v-5.6H3.3z
		 M4.3,56.3c0-0.4-0.2-0.8-0.9-0.8H2.1v1.5h1.2C3.9,57.1,4.3,56.8,4.3,56.3z M4.5,58.8c0-0.5-0.2-0.9-1.2-0.9H2.1v1.8h1.5
		C4.3,59.6,4.5,59.2,4.5,58.8z"/>
</g>
<g class="st0">
	<path d="M6.2,58.3c0-1.3,0.7-2.1,1.9-2.1c1,0,1.8,0.6,1.8,1.9c0,0.2,0,0.4,0,0.5H7c0,0.7,0.5,1.1,1,1.1c0.3,0,0.6-0.1,0.8-0.4
		l0.5,0.6c-0.3,0.4-0.8,0.6-1.4,0.6C6.9,60.5,6.2,59.7,6.2,58.3z M9,58c0-0.8-0.5-1-0.9-1c-0.5,0-1,0.3-1,1H9z"/>
</g>
<g class="st0">
	<path d="M11,59.5V57h-0.6v-0.7H11V55l0.8-0.4v1.7h1V57h-1v2.2c0,0.3,0.1,0.5,0.4,0.5c0.2,0,0.4-0.1,0.6-0.2l-0.1,0.8
		c-0.2,0.1-0.5,0.2-0.8,0.2C11.2,60.5,11,60.1,11,59.5z"/>
</g>
<g class="st0">
	<path d="M13.5,58.3c0-1.3,0.7-2.1,1.9-2.1c1,0,1.8,0.6,1.8,1.9c0,0.2,0,0.4,0,0.5h-2.8c0,0.7,0.5,1.1,1,1.1c0.3,0,0.6-0.1,0.8-0.4
		l0.5,0.6c-0.3,0.4-0.8,0.6-1.4,0.6C14.2,60.5,13.5,59.7,13.5,58.3z M16.3,58c0-0.8-0.5-1-0.9-1c-0.5,0-1,0.3-1,1H16.3z"/>
	<path d="M18,55.2c0-0.3,0.2-0.5,0.5-0.5s0.5,0.2,0.5,0.5c0,0.3-0.2,0.5-0.5,0.5S18,55.4,18,55.2z M18.1,56.3h0.8v4.1h-0.8V56.3z"/>
	<path d="M20.2,55l0.8-0.4v5.8h-0.8V55z"/>
	<path d="M22.2,55.2c0-0.3,0.2-0.5,0.5-0.5s0.5,0.2,0.5,0.5c0,0.3-0.2,0.5-0.5,0.5S22.2,55.4,22.2,55.2z M22.3,56.3h0.8v4.1h-0.8
		V56.3z"/>
	<path d="M25.2,61.3c1.2-0.1,1.5-0.4,1.5-0.9v-0.4c-0.2,0.3-0.6,0.4-1,0.4c-0.9,0-1.7-0.7-1.7-2.1c0-1.3,0.7-2.1,1.7-2.1
		c0.5,0,0.8,0.2,1,0.4v-0.3h0.8v3.8c0,1.3-0.7,1.8-1.9,1.9L25.2,61.3z M26.8,59.2v-1.8c-0.2-0.3-0.5-0.5-0.8-0.5c-0.6,0-1,0.5-1,1.4
		c0,0.8,0.4,1.4,1,1.4C26.3,59.7,26.6,59.5,26.8,59.2z"/>
	<path d="M31.3,60c-0.3,0.3-0.6,0.5-1.1,0.5c-0.9,0-1.5-0.5-1.5-1.7v-2.4h0.8v2.4c0,0.7,0.4,1,0.8,1c0.5,0,0.9-0.2,0.9-0.9v-2.5h0.8
		v4.1h-0.8V60z"/>
	<path d="M35.8,57.9c0-0.7-0.4-1-0.8-1c-0.5,0-0.9,0.2-0.9,0.9v2.5h-0.8v-4.1h0.8v0.4c0.3-0.3,0.6-0.5,1.1-0.5
		c0.9,0,1.5,0.5,1.5,1.7v2.4h-0.8V57.9z"/>
	<path d="M38.8,61.3c1.2-0.1,1.5-0.4,1.5-0.9v-0.4c-0.2,0.3-0.6,0.4-1,0.4c-0.9,0-1.7-0.7-1.7-2.1c0-1.3,0.7-2.1,1.7-2.1
		c0.5,0,0.8,0.2,1,0.4v-0.3h0.8v3.8c0,1.3-0.7,1.8-1.9,1.9L38.8,61.3z M40.3,59.2v-1.8c-0.2-0.3-0.5-0.5-0.8-0.5c-0.6,0-1,0.5-1,1.4
		c0,0.8,0.4,1.4,1,1.4C39.8,59.7,40.1,59.5,40.3,59.2z"/>
	<path d="M42,59.8l0.6-0.5c0.2,0.2,0.5,0.4,0.9,0.4c0.4,0,0.7-0.1,0.7-0.4c0-0.3-0.4-0.5-0.8-0.6c-0.9-0.3-1.3-0.7-1.3-1.3
		c0-0.7,0.6-1.1,1.4-1.1c0.7,0,1.2,0.3,1.4,0.6l-0.6,0.5C44.3,57.1,44,57,43.6,57c-0.4,0-0.6,0.1-0.6,0.4c0,0.3,0.4,0.4,0.8,0.6
		c0.9,0.3,1.3,0.6,1.3,1.4c0,0.8-0.6,1.2-1.5,1.2C42.9,60.5,42.3,60.2,42,59.8z"/>
	<path d="M48.5,60c-0.2,0.2-0.6,0.4-1.1,0.4c-0.8,0-1.5-0.5-1.5-1.4c0-0.9,0.8-1.4,1.6-1.4c0.4,0,0.7,0.1,1,0.2v-0.2
		c0-0.6-0.3-0.8-0.9-0.8c-0.5,0-0.9,0.1-1.2,0.4l-0.2-0.7c0.3-0.2,0.9-0.4,1.5-0.4c0.7,0,1.6,0.2,1.6,1.5v2.6h-0.8V60z M48.5,59.3
		v-0.6c-0.2-0.1-0.6-0.2-0.9-0.2c-0.5,0-0.9,0.2-0.9,0.6c0,0.4,0.3,0.6,0.8,0.6C47.9,59.7,48.2,59.5,48.5,59.3z"/>
	<path d="M52.9,57.9c0-0.7-0.4-1-0.8-1c-0.5,0-0.9,0.2-0.9,0.9v2.5h-0.8v-4.1h0.8v0.4c0.3-0.3,0.6-0.5,1.1-0.5
		c0.9,0,1.5,0.5,1.5,1.7v2.4h-0.8V57.9z"/>
	<path d="M54.6,59.8l0.6-0.5c0.2,0.2,0.5,0.4,0.9,0.4c0.4,0,0.7-0.1,0.7-0.4c0-0.3-0.4-0.5-0.8-0.6c-0.9-0.3-1.3-0.7-1.3-1.3
		c0-0.7,0.6-1.1,1.4-1.1c0.7,0,1.2,0.3,1.4,0.6L57,57.3c-0.1-0.2-0.4-0.3-0.8-0.3c-0.4,0-0.6,0.1-0.6,0.4c0,0.3,0.4,0.4,0.8,0.6
		c0.9,0.3,1.3,0.6,1.3,1.4c0,0.8-0.6,1.2-1.5,1.2C55.5,60.5,54.9,60.2,54.6,59.8z"/>
	<path d="M61,60c-0.2,0.2-0.6,0.4-1.1,0.4c-0.8,0-1.5-0.5-1.5-1.4c0-0.9,0.8-1.4,1.6-1.4c0.4,0,0.7,0.1,1,0.2v-0.2
		c0-0.6-0.3-0.8-0.9-0.8c-0.5,0-0.9,0.1-1.2,0.4l-0.2-0.7c0.3-0.2,0.9-0.4,1.5-0.4c0.7,0,1.6,0.2,1.6,1.5v2.6H61V60z M59.1,55.2
		c0-0.3,0.2-0.5,0.5-0.5s0.5,0.2,0.5,0.5c0,0.3-0.2,0.5-0.5,0.5S59.1,55.4,59.1,55.2z M61,59.3v-0.6c-0.2-0.1-0.6-0.2-0.9-0.2
		c-0.5,0-0.9,0.2-0.9,0.6c0,0.4,0.3,0.6,0.8,0.6C60.5,59.7,60.8,59.5,61,59.3z M60.5,55.2c0-0.3,0.2-0.5,0.5-0.5s0.5,0.2,0.5,0.5
		c0,0.3-0.2,0.5-0.5,0.5S60.5,55.4,60.5,55.2z"/>
	<path d="M63.2,59.5V57h-0.6v-0.7h0.6V55l0.8-0.4v1.7h1V57h-1v2.2c0,0.3,0.1,0.5,0.4,0.5c0.2,0,0.4-0.1,0.6-0.2L65,60.3
		c-0.2,0.1-0.5,0.2-0.8,0.2C63.5,60.5,63.2,60.1,63.2,59.5z"/>
	<path d="M65.8,59.7L68,57h-2v-0.7h3V57l-2.2,2.7H69v0.7h-3.2V59.7z"/>
	<path d="M69.9,58.3c0-1.3,0.7-2.1,1.9-2.1c1,0,1.8,0.6,1.8,1.9c0,0.2,0,0.4,0,0.5h-2.8c0,0.7,0.5,1.1,1,1.1c0.3,0,0.6-0.1,0.8-0.4
		l0.5,0.6c-0.3,0.4-0.8,0.6-1.4,0.6C70.6,60.5,69.9,59.7,69.9,58.3z M72.7,58c0-0.8-0.5-1-0.9-1c-0.5,0-1,0.3-1,1H72.7z"/>
	<path d="M78.8,60c-0.3,0.3-0.6,0.5-1.1,0.5c-0.9,0-1.5-0.5-1.5-1.7v-2.4h0.8v2.4c0,0.7,0.4,1,0.8,1c0.5,0,0.9-0.2,0.9-0.9v-2.5h0.8
		v4.1h-0.8V60z"/>
	<path d="M83.3,57.9c0-0.7-0.4-1-0.8-1c-0.5,0-0.9,0.2-0.9,0.9v2.5h-0.8v-4.1h0.8v0.4c0.3-0.3,0.6-0.5,1.1-0.5
		c0.9,0,1.5,0.5,1.5,1.7v2.4h-0.8V57.9z"/>
	<path d="M85.1,58.3c0-1.3,0.7-2.1,1.7-2.1c0.4,0,0.8,0.2,1,0.4V55l0.8-0.4v5.8h-0.8v-0.3c-0.2,0.2-0.5,0.4-1,0.4
		C85.8,60.5,85.1,59.7,85.1,58.3z M87.8,59.2v-1.8c-0.1-0.2-0.4-0.4-0.8-0.4c-0.6,0-1,0.5-1,1.4c0,0.8,0.4,1.4,1,1.4
		C87.3,59.7,87.6,59.5,87.8,59.2z"/>
	<path d="M91.7,57.6h2v0.8h-2V57.6z"/>
	<path d="M95.9,60.4h-0.8V57h-0.6v-0.7h0.6v-0.7c0-0.8,0.5-1,0.9-1c0.3,0,0.6,0.1,0.8,0.2v0.7c-0.2-0.1-0.4-0.1-0.6-0.1
		c-0.3,0-0.3,0.2-0.3,0.4v0.5h0.9V57h-0.9V60.4z"/>
	<path d="M97.3,58.3c0-1.3,0.7-2.1,1.9-2.1s1.9,0.8,1.9,2.1c0,1.3-0.7,2.1-1.9,2.1S97.3,59.7,97.3,58.3z M100.2,58.3
		c0-0.8-0.4-1.4-1-1.4c-0.6,0-1,0.5-1,1.4s0.4,1.4,1,1.4C99.8,59.7,100.2,59.2,100.2,58.3z"/>
	<path d="M102,56.3h0.8v0.5c0.2-0.4,0.5-0.6,0.9-0.6c0.3,0,0.5,0.1,0.7,0.2l-0.1,0.8c-0.2-0.1-0.4-0.2-0.6-0.2
		c-0.4,0-0.8,0.2-0.8,1.1v2.3H102V56.3z"/>
	<path d="M110.1,57.9c0-0.6-0.3-1-0.8-1c-0.4,0-0.8,0.3-0.8,1v2.4h-0.8v-2.4c0-0.6-0.3-1-0.8-1c-0.4,0-0.8,0.3-0.8,1v2.4h-0.8v-4.1
		h0.8v0.4c0.2-0.3,0.6-0.5,1-0.5c0.4,0,0.9,0.2,1.1,0.6c0.3-0.4,0.7-0.6,1.2-0.6c0.8,0,1.5,0.5,1.5,1.5v2.6h-0.8V57.9z"/>
	<path d="M114.4,60c-0.2,0.2-0.6,0.4-1.1,0.4c-0.8,0-1.5-0.5-1.5-1.4c0-0.9,0.8-1.4,1.6-1.4c0.4,0,0.7,0.1,1,0.2v-0.2
		c0-0.6-0.3-0.8-0.9-0.8c-0.5,0-0.9,0.1-1.2,0.4l-0.2-0.7c0.3-0.2,0.9-0.4,1.5-0.4c0.7,0,1.6,0.2,1.6,1.5v2.6h-0.8V60z M114.4,59.3
		v-0.6c-0.2-0.1-0.6-0.2-0.9-0.2c-0.5,0-0.9,0.2-0.9,0.6c0,0.4,0.3,0.6,0.8,0.6C113.9,59.7,114.2,59.5,114.4,59.3z"/>
</g>
<g class="st0">
	<path d="M116.6,59.5V57H116v-0.7h0.6V55l0.8-0.4v1.7h1V57h-1v2.2c0,0.3,0.1,0.5,0.4,0.5c0.2,0,0.4-0.1,0.6-0.2l-0.1,0.8
		c-0.2,0.1-0.5,0.2-0.8,0.2C116.8,60.5,116.6,60.1,116.6,59.5z"/>
</g>
<g class="st0">
	<path d="M119.1,58.3c0-1.3,0.7-2.1,1.9-2.1c1,0,1.8,0.6,1.8,1.9c0,0.2,0,0.4,0,0.5h-2.8c0,0.7,0.5,1.1,1,1.1c0.3,0,0.6-0.1,0.8-0.4
		l0.5,0.6c-0.3,0.4-0.8,0.6-1.4,0.6C119.8,60.5,119.1,59.7,119.1,58.3z M121.9,58c0-0.8-0.5-1-0.9-1c-0.5,0-1,0.3-1,1H121.9z"/>
</g>
<g class="st0">
	<path d="M0.9,152.7l0.8-0.3c0.2,0.5,0.7,0.8,1.3,0.8c0.6,0,1-0.3,1-0.9c0-0.6-0.6-0.8-1.3-1.1c-0.8-0.3-1.6-0.6-1.6-1.6
		c0-0.8,0.6-1.5,1.8-1.5c1,0,1.5,0.5,1.7,1.1l-0.8,0.3c-0.1-0.3-0.5-0.6-1-0.6c-0.5,0-0.9,0.2-0.9,0.7c0,0.5,0.5,0.6,1.1,0.8
		c0.8,0.3,1.8,0.6,1.8,1.8c0,1.1-0.8,1.7-1.9,1.7C2,154.1,1.2,153.5,0.9,152.7z"/>
	<path d="M5.7,151.9c0-1.3,0.7-2.1,1.9-2.1s1.9,0.8,1.9,2.1c0,1.3-0.7,2.1-1.9,2.1S5.7,153.3,5.7,151.9z M8.6,151.9
		c0-0.8-0.4-1.4-1-1.4c-0.6,0-1,0.5-1,1.4s0.4,1.4,1,1.4C8.2,153.3,8.6,152.8,8.6,151.9z"/>
	<path d="M10.3,151.9c0-1.3,0.7-2.1,1.8-2.1c0.8,0,1.3,0.3,1.5,1.1l-0.8,0.3c-0.1-0.3-0.4-0.5-0.7-0.5c-0.6,0-1,0.5-1,1.3
		c0,0.8,0.3,1.3,0.9,1.3c0.4,0,0.7-0.2,0.8-0.6l0.8,0.2c-0.2,0.8-0.8,1.2-1.6,1.2C11,154.1,10.3,153.3,10.3,151.9z"/>
	<path d="M14.5,148.7c0-0.3,0.2-0.5,0.5-0.5s0.5,0.2,0.5,0.5c0,0.3-0.2,0.5-0.5,0.5S14.5,149,14.5,148.7z M14.6,149.9h0.8v4.1h-0.8
		V149.9z"/>
	<path d="M19,153.6c-0.2,0.2-0.6,0.4-1.1,0.4c-0.8,0-1.5-0.5-1.5-1.4c0-0.9,0.8-1.4,1.6-1.4c0.4,0,0.7,0.1,1,0.2v-0.2
		c0-0.6-0.3-0.8-0.9-0.8c-0.5,0-0.9,0.1-1.2,0.4l-0.2-0.7c0.3-0.2,0.9-0.4,1.5-0.4c0.7,0,1.6,0.2,1.6,1.5v2.6H19V153.6z M19,152.9
		v-0.6c-0.2-0.1-0.6-0.2-0.9-0.2c-0.5,0-0.9,0.2-0.9,0.6c0,0.4,0.3,0.6,0.8,0.6C18.5,153.3,18.8,153.1,19,152.9z"/>
	<path d="M21,148.6l0.8-0.4v5.8H21V148.6z"/>
	<path d="M29.2,154v-3.1c0-0.3,0-0.7,0-0.9c-0.1,0.3-0.2,0.7-0.3,0.9l-1.4,3.1l-1.4-3.2c-0.1-0.3-0.3-0.6-0.4-0.9c0,0.2,0,0.6,0,0.9
		v3.1H25v-5.6h0.8l1.5,3.5c0.1,0.1,0.1,0.3,0.2,0.4c0-0.1,0.1-0.3,0.2-0.4l1.5-3.5H30v5.6H29.2z"/>
	<path d="M31.1,151.9c0-1.3,0.7-2.1,1.9-2.1c1,0,1.8,0.6,1.8,1.9c0,0.2,0,0.4,0,0.5h-2.8c0,0.7,0.5,1.1,1,1.1c0.3,0,0.6-0.1,0.8-0.4
		l0.5,0.6c-0.3,0.4-0.8,0.6-1.4,0.6C31.8,154.1,31.1,153.3,31.1,151.9z M33.9,151.6c0-0.8-0.5-1-0.9-1c-0.5,0-1,0.3-1,1H33.9z"/>
	<path d="M35.5,151.9c0-1.3,0.7-2.1,1.7-2.1c0.4,0,0.8,0.2,1,0.4v-1.6l0.8-0.4v5.8h-0.8v-0.3c-0.2,0.2-0.5,0.4-1,0.4
		C36.1,154.1,35.5,153.3,35.5,151.9z M38.1,152.8V151c-0.1-0.2-0.4-0.4-0.8-0.4c-0.6,0-1,0.5-1,1.4c0,0.8,0.4,1.4,1,1.4
		C37.7,153.3,38,153.1,38.1,152.8z"/>
	<path d="M40.1,148.7c0-0.3,0.2-0.5,0.5-0.5s0.5,0.2,0.5,0.5c0,0.3-0.2,0.5-0.5,0.5S40.1,149,40.1,148.7z M40.2,149.9H41v4.1h-0.8
		V149.9z"/>
	<path d="M44.6,153.6c-0.2,0.2-0.6,0.4-1.1,0.4c-0.8,0-1.5-0.5-1.5-1.4c0-0.9,0.8-1.4,1.6-1.4c0.4,0,0.7,0.1,1,0.2v-0.2
		c0-0.6-0.3-0.8-0.9-0.8c-0.5,0-0.9,0.1-1.2,0.4l-0.2-0.7c0.3-0.2,0.9-0.4,1.5-0.4c0.7,0,1.6,0.2,1.6,1.5v2.6h-0.8V153.6z
		 M44.6,152.9v-0.6c-0.2-0.1-0.6-0.2-0.9-0.2c-0.5,0-0.9,0.2-0.9,0.6c0,0.4,0.3,0.6,0.8,0.6C44,153.3,44.3,153.1,44.6,152.9z"/>
</g>
<g class="st0">
	<path d="M1.2,76.3h2.2c1.4,0,1.8,0.9,1.8,1.7c0,0.8-0.5,1.7-1.8,1.7H2.1v2.2H1.2V76.3z M4.5,78c0-0.4-0.2-0.9-0.9-0.9H2.1v1.8h1.5
		C4.2,78.9,4.5,78.5,4.5,78z"/>
	<path d="M6.2,77.8H7v0.5c0.2-0.4,0.5-0.6,0.9-0.6c0.3,0,0.5,0.1,0.7,0.2l-0.1,0.8c-0.2-0.1-0.4-0.2-0.6-0.2c-0.4,0-0.8,0.2-0.8,1.1
		v2.3H6.2V77.8z"/>
	<path d="M9.2,79.9c0-1.3,0.7-2.1,1.9-2.1s1.9,0.8,1.9,2.1c0,1.3-0.7,2.1-1.9,2.1S9.2,81.2,9.2,79.9z M12.1,79.9
		c0-0.8-0.4-1.4-1-1.4c-0.6,0-1,0.5-1,1.4s0.4,1.4,1,1.4C11.7,81.2,12.1,80.7,12.1,79.9z"/>
	<path d="M12.8,83c0.8-0.2,1.1-0.4,1.1-1v-4.2h0.8v3.9c0,0.5-0.1,1-0.4,1.3c-0.4,0.4-0.8,0.5-1.2,0.6L12.8,83z M13.9,76.7
		c0-0.3,0.2-0.5,0.5-0.5s0.5,0.2,0.5,0.5c0,0.3-0.2,0.5-0.5,0.5S13.9,77,13.9,76.7z"/>
	<path d="M15.8,79.9c0-1.3,0.7-2.1,1.9-2.1c1,0,1.8,0.6,1.8,1.9c0,0.2,0,0.4,0,0.5h-2.8c0,0.7,0.5,1.1,1,1.1c0.3,0,0.6-0.1,0.8-0.4
		l0.5,0.6c-0.3,0.4-0.8,0.6-1.4,0.6C16.5,82,15.8,81.2,15.8,79.9z M18.6,79.5c0-0.8-0.5-1-0.9-1c-0.5,0-1,0.3-1,1H18.6z"/>
</g>
<g class="st0">
	<path d="M22.9,81.9l-1.2-2.4l-0.5,0.5v1.8h-0.8v-5.4l0.8-0.4v3l1.2-1.3h1L22.3,79l1.5,3H22.9z"/>
</g>
<g class="st0">
	<path d="M25,81v-2.4h-0.6v-0.7H25v-1.3l0.8-0.4v1.7h1v0.7h-1v2.2c0,0.3,0.1,0.5,0.4,0.5c0.2,0,0.4-0.1,0.6-0.2l-0.1,0.8
		c-0.2,0.1-0.5,0.2-0.8,0.2C25.2,82,25,81.6,25,81z"/>
	<path d="M32.5,79.5c0-0.6-0.3-1-0.8-1c-0.4,0-0.8,0.3-0.8,1v2.4h-0.8v-2.4c0-0.6-0.3-1-0.8-1c-0.4,0-0.8,0.3-0.8,1v2.4h-0.8v-4.1
		h0.8v0.4c0.2-0.3,0.6-0.5,1-0.5c0.4,0,0.9,0.2,1.1,0.6c0.3-0.4,0.7-0.6,1.2-0.6c0.8,0,1.5,0.5,1.5,1.5v2.6h-0.8V79.5z"/>
	<path d="M36.9,81.6c-0.2,0.2-0.6,0.4-1.1,0.4c-0.8,0-1.5-0.5-1.5-1.4c0-0.9,0.8-1.4,1.6-1.4c0.4,0,0.7,0.1,1,0.2v-0.2
		c0-0.6-0.3-0.8-0.9-0.8c-0.5,0-0.9,0.1-1.2,0.4l-0.2-0.7c0.3-0.2,0.9-0.4,1.5-0.4c0.7,0,1.6,0.2,1.6,1.5v2.6h-0.8V81.6z M36.9,80.8
		v-0.6C36.6,80.1,36.3,80,36,80c-0.5,0-0.9,0.2-0.9,0.6c0,0.4,0.3,0.6,0.8,0.6C36.3,81.3,36.7,81.1,36.9,80.8z"/>
	<path d="M41.3,79.5c0-0.7-0.4-1-0.8-1c-0.5,0-0.9,0.2-0.9,0.9v2.5h-0.8v-4.1h0.8v0.4c0.3-0.3,0.6-0.5,1.1-0.5
		c0.9,0,1.5,0.5,1.5,1.7v2.4h-0.8V79.5z"/>
	<path d="M45.6,81.6c-0.2,0.2-0.6,0.4-1.1,0.4c-0.8,0-1.5-0.5-1.5-1.4c0-0.9,0.8-1.4,1.6-1.4c0.4,0,0.7,0.1,1,0.2v-0.2
		c0-0.6-0.3-0.8-0.9-0.8c-0.5,0-0.9,0.1-1.2,0.4l-0.2-0.7c0.3-0.2,0.9-0.4,1.5-0.4c0.7,0,1.6,0.2,1.6,1.5v2.6h-0.8V81.6z M45.6,80.8
		v-0.6c-0.2-0.1-0.6-0.2-0.9-0.2c-0.5,0-0.9,0.2-0.9,0.6c0,0.4,0.3,0.6,0.8,0.6C45.1,81.3,45.4,81.1,45.6,80.8z"/>
	<path d="M48.5,82.9c1.2-0.1,1.5-0.4,1.5-0.9v-0.4c-0.2,0.3-0.6,0.4-1,0.4c-0.9,0-1.7-0.7-1.7-2.1c0-1.3,0.7-2.1,1.7-2.1
		c0.5,0,0.8,0.2,1,0.4v-0.3h0.8v3.8c0,1.3-0.7,1.8-1.9,1.9L48.5,82.9z M50,80.7V79c-0.2-0.3-0.5-0.5-0.8-0.5c-0.6,0-1,0.5-1,1.4
		c0,0.8,0.4,1.4,1,1.4C49.5,81.2,49.8,81,50,80.7z"/>
	<path d="M51.9,79.9c0-1.3,0.7-2.1,1.9-2.1c1,0,1.8,0.6,1.8,1.9c0,0.2,0,0.4,0,0.5h-2.8c0,0.7,0.5,1.1,1,1.1c0.3,0,0.6-0.1,0.8-0.4
		l0.5,0.6c-0.3,0.4-0.8,0.6-1.4,0.6C52.6,82,51.9,81.2,51.9,79.9z M54.6,79.5c0-0.8-0.5-1-0.9-1c-0.5,0-1,0.3-1,1H54.6z"/>
	<path d="M61.2,79.5c0-0.6-0.3-1-0.8-1c-0.4,0-0.8,0.3-0.8,1v2.4h-0.8v-2.4c0-0.6-0.3-1-0.8-1c-0.4,0-0.8,0.3-0.8,1v2.4h-0.8v-4.1
		h0.8v0.4c0.2-0.3,0.6-0.5,1-0.5c0.4,0,0.9,0.2,1.1,0.6c0.3-0.4,0.7-0.6,1.2-0.6c0.8,0,1.5,0.5,1.5,1.5v2.6h-0.8V79.5z"/>
	<path d="M63,79.9c0-1.3,0.7-2.1,1.9-2.1c1,0,1.8,0.6,1.8,1.9c0,0.2,0,0.4,0,0.5h-2.8c0,0.7,0.5,1.1,1,1.1c0.3,0,0.6-0.1,0.8-0.4
		l0.5,0.6C66,81.8,65.5,82,64.9,82C63.7,82,63,81.2,63,79.9z M65.8,79.5c0-0.8-0.5-1-0.9-1c-0.5,0-1,0.3-1,1H65.8z"/>
	<path d="M70.1,79.5c0-0.7-0.4-1-0.8-1c-0.5,0-0.9,0.2-0.9,0.9v2.5h-0.8v-4.1h0.8v0.4c0.3-0.3,0.6-0.5,1.1-0.5
		c0.9,0,1.5,0.5,1.5,1.7v2.4h-0.8V79.5z"/>
	<path d="M72.4,81v-2.4h-0.6v-0.7h0.6v-1.3l0.8-0.4v1.7h1v0.7h-1v2.2c0,0.3,0.1,0.5,0.4,0.5c0.2,0,0.4-0.1,0.6-0.2l-0.1,0.8
		c-0.2,0.1-0.5,0.2-0.8,0.2C72.7,82,72.4,81.6,72.4,81z"/>
</g>
<g class="st0">
	<path d="M0.9,169.7h0.9l0.7,3.4c0.1,0.3,0.1,0.5,0.1,0.6c0-0.1,0.1-0.3,0.1-0.6l0.9-3.4h0.7l0.9,3.4c0.1,0.3,0.1,0.5,0.1,0.6
		c0-0.1,0-0.3,0.1-0.6l0.7-3.4H7l-1.2,5.6H5l-1-3.6c-0.1-0.3-0.1-0.5-0.1-0.6c0,0.1-0.1,0.3-0.1,0.6l-0.9,3.6H2.1L0.9,169.7z"/>
	<path d="M7.8,170.1c0-0.3,0.2-0.5,0.5-0.5s0.5,0.2,0.5,0.5c0,0.3-0.2,0.5-0.5,0.5S7.8,170.4,7.8,170.1z M7.9,171.3h0.8v4.1H7.9
		V171.3z"/>
	<path d="M9.7,174.8l0.6-0.5c0.2,0.2,0.5,0.4,0.9,0.4c0.4,0,0.7-0.1,0.7-0.4c0-0.3-0.4-0.5-0.8-0.6c-0.9-0.3-1.3-0.7-1.3-1.3
		c0-0.7,0.6-1.1,1.4-1.1c0.7,0,1.2,0.3,1.4,0.6l-0.6,0.5c-0.1-0.2-0.4-0.3-0.8-0.3c-0.4,0-0.6,0.1-0.6,0.4c0,0.3,0.4,0.4,0.8,0.6
		c0.9,0.3,1.3,0.6,1.3,1.4c0,0.8-0.6,1.2-1.5,1.2C10.6,175.4,10,175.2,9.7,174.8z"/>
	<path d="M13.5,174.8l0.6-0.5c0.2,0.2,0.5,0.4,0.9,0.4c0.4,0,0.7-0.1,0.7-0.4c0-0.3-0.4-0.5-0.8-0.6c-0.9-0.3-1.3-0.7-1.3-1.3
		c0-0.7,0.6-1.1,1.4-1.1c0.7,0,1.2,0.3,1.4,0.6l-0.6,0.5c-0.1-0.2-0.4-0.3-0.8-0.3c-0.4,0-0.6,0.1-0.6,0.4c0,0.3,0.4,0.4,0.8,0.6
		c0.9,0.3,1.3,0.6,1.3,1.4c0,0.8-0.6,1.2-1.5,1.2C14.4,175.4,13.8,175.2,13.5,174.8z"/>
	<path d="M17.4,173.3c0-1.3,0.7-2.1,1.9-2.1c1,0,1.8,0.6,1.8,1.9c0,0.2,0,0.4,0,0.5h-2.8c0,0.7,0.5,1.1,1,1.1c0.3,0,0.6-0.1,0.8-0.4
		l0.5,0.6c-0.3,0.4-0.8,0.6-1.4,0.6C18.1,175.4,17.4,174.6,17.4,173.3z M20.2,172.9c0-0.8-0.5-1-0.9-1c-0.5,0-1,0.3-1,1H20.2z"/>
	<path d="M24.5,172.9c0-0.7-0.4-1-0.8-1c-0.5,0-0.9,0.2-0.9,0.9v2.5H22v-4.1h0.8v0.4c0.3-0.3,0.6-0.5,1.1-0.5c0.9,0,1.5,0.5,1.5,1.7
		v2.4h-0.8V172.9z"/>
	<path d="M26.2,174.8l0.6-0.5c0.2,0.2,0.5,0.4,0.9,0.4c0.4,0,0.7-0.1,0.7-0.4c0-0.3-0.4-0.5-0.8-0.6c-0.9-0.3-1.3-0.7-1.3-1.3
		c0-0.7,0.6-1.1,1.4-1.1c0.7,0,1.2,0.3,1.4,0.6l-0.6,0.5c-0.1-0.2-0.4-0.3-0.8-0.3c-0.4,0-0.6,0.1-0.6,0.4c0,0.3,0.4,0.4,0.8,0.6
		c0.9,0.3,1.3,0.6,1.3,1.4c0,0.8-0.6,1.2-1.5,1.2C27.1,175.4,26.5,175.2,26.2,174.8z"/>
	<path d="M35.1,172.9c0-0.6-0.3-1-0.8-1c-0.4,0-0.8,0.3-0.8,1v2.4h-0.8v-2.4c0-0.6-0.3-1-0.8-1c-0.4,0-0.8,0.3-0.8,1v2.4h-0.8v-4.1
		h0.8v0.4c0.2-0.3,0.6-0.5,1-0.5c0.4,0,0.9,0.2,1.1,0.6c0.3-0.4,0.7-0.6,1.2-0.6c0.8,0,1.5,0.5,1.5,1.5v2.6h-0.8V172.9z"/>
	<path d="M39.4,175c-0.2,0.2-0.6,0.4-1.1,0.4c-0.8,0-1.5-0.5-1.5-1.4c0-0.9,0.8-1.4,1.6-1.4c0.4,0,0.7,0.1,1,0.2v-0.2
		c0-0.6-0.3-0.8-0.9-0.8c-0.5,0-0.9,0.1-1.2,0.4l-0.2-0.7c0.3-0.2,0.9-0.4,1.5-0.4c0.7,0,1.6,0.2,1.6,1.5v2.6h-0.8V175z M39.4,174.3
		v-0.6c-0.2-0.1-0.6-0.2-0.9-0.2c-0.5,0-0.9,0.2-0.9,0.6c0,0.4,0.3,0.6,0.8,0.6C38.9,174.7,39.2,174.5,39.4,174.3z"/>
	<path d="M43.8,172.9c0-0.7-0.4-1-0.8-1c-0.5,0-0.9,0.2-0.9,0.9v2.5h-0.8v-4.1h0.8v0.4c0.3-0.3,0.6-0.5,1.1-0.5
		c0.9,0,1.5,0.5,1.5,1.7v2.4h-0.8V172.9z"/>
	<path d="M48.2,175c-0.2,0.2-0.6,0.4-1.1,0.4c-0.8,0-1.5-0.5-1.5-1.4c0-0.9,0.8-1.4,1.6-1.4c0.4,0,0.7,0.1,1,0.2v-0.2
		c0-0.6-0.3-0.8-0.9-0.8c-0.5,0-0.9,0.1-1.2,0.4l-0.2-0.7c0.3-0.2,0.9-0.4,1.5-0.4c0.7,0,1.6,0.2,1.6,1.5v2.6h-0.8V175z M48.2,174.3
		v-0.6c-0.2-0.1-0.6-0.2-0.9-0.2c-0.5,0-0.9,0.2-0.9,0.6c0,0.4,0.3,0.6,0.8,0.6C47.6,174.7,48,174.5,48.2,174.3z"/>
	<path d="M51,176.3c1.2-0.1,1.5-0.4,1.5-0.9V175c-0.2,0.3-0.6,0.4-1,0.4c-0.9,0-1.7-0.7-1.7-2.1c0-1.3,0.7-2.1,1.7-2.1
		c0.5,0,0.8,0.2,1,0.4v-0.3h0.8v3.8c0,1.3-0.7,1.8-1.9,1.9L51,176.3z M52.6,174.2v-1.8c-0.2-0.3-0.5-0.5-0.8-0.5c-0.6,0-1,0.5-1,1.4
		c0,0.8,0.4,1.4,1,1.4C52.1,174.7,52.4,174.5,52.6,174.2z"/>
	<path d="M54.4,173.3c0-1.3,0.7-2.1,1.9-2.1c1,0,1.8,0.6,1.8,1.9c0,0.2,0,0.4,0,0.5h-2.8c0,0.7,0.5,1.1,1,1.1c0.3,0,0.6-0.1,0.8-0.4
		l0.5,0.6c-0.3,0.4-0.8,0.6-1.4,0.6C55.1,175.4,54.4,174.6,54.4,173.3z M57.2,172.9c0-0.8-0.5-1-0.9-1c-0.5,0-1,0.3-1,1H57.2z"/>
	<path d="M63.8,172.9c0-0.6-0.3-1-0.8-1c-0.4,0-0.8,0.3-0.8,1v2.4h-0.8v-2.4c0-0.6-0.3-1-0.8-1c-0.4,0-0.8,0.3-0.8,1v2.4H59v-4.1
		h0.8v0.4c0.2-0.3,0.6-0.5,1-0.5c0.4,0,0.9,0.2,1.1,0.6c0.3-0.4,0.7-0.6,1.2-0.6c0.8,0,1.5,0.5,1.5,1.5v2.6h-0.8V172.9z"/>
	<path d="M65.6,173.3c0-1.3,0.7-2.1,1.9-2.1c1,0,1.8,0.6,1.8,1.9c0,0.2,0,0.4,0,0.5h-2.8c0,0.7,0.5,1.1,1,1.1c0.3,0,0.6-0.1,0.8-0.4
		l0.5,0.6c-0.3,0.4-0.8,0.6-1.4,0.6C66.3,175.4,65.6,174.6,65.6,173.3z M68.3,172.9c0-0.8-0.5-1-0.9-1c-0.5,0-1,0.3-1,1H68.3z"/>
	<path d="M72.7,172.9c0-0.7-0.4-1-0.8-1c-0.5,0-0.9,0.2-0.9,0.9v2.5h-0.8v-4.1H71v0.4c0.3-0.3,0.6-0.5,1.1-0.5
		c0.9,0,1.5,0.5,1.5,1.7v2.4h-0.8V172.9z"/>
	<path d="M74.9,174.4V172h-0.6v-0.7h0.6V170l0.8-0.4v1.7h1v0.7h-1v2.2c0,0.3,0.1,0.5,0.4,0.5c0.2,0,0.4-0.1,0.6-0.2l-0.1,0.8
		c-0.2,0.1-0.5,0.2-0.8,0.2C75.2,175.4,74.9,175,74.9,174.4z"/>
</g>
<g class="st0">
	<path d="M3.1,194.9l-1,1.2v1.7H1.2v-5.6h0.8v2.7l2.2-2.7h1l-1.6,2l2,3.6h-1L3.1,194.9z"/>
	<path d="M6.3,195.8c0-1.3,0.7-2.1,1.9-2.1c1,0,1.8,0.6,1.8,1.9c0,0.2,0,0.4,0,0.5H7.2c0,0.7,0.5,1.1,1,1.1c0.3,0,0.6-0.1,0.8-0.4
		l0.5,0.6c-0.3,0.4-0.8,0.6-1.4,0.6C7,197.9,6.3,197.1,6.3,195.8z M9.1,195.4c0-0.8-0.5-1-0.9-1c-0.5,0-1,0.3-1,1H9.1z"/>
	<path d="M10.8,192.6c0-0.3,0.2-0.5,0.5-0.5s0.5,0.2,0.5,0.5c0,0.3-0.2,0.5-0.5,0.5S10.8,192.9,10.8,192.6z M10.9,193.7h0.8v4.1
		h-0.8V193.7z"/>
	<path d="M15.5,195.4c0-0.7-0.4-1-0.8-1c-0.5,0-0.9,0.2-0.9,0.9v2.5H13v-4.1h0.8v0.4c0.3-0.3,0.6-0.5,1.1-0.5c0.9,0,1.5,0.5,1.5,1.7
		v2.4h-0.8V195.4z"/>
	<path d="M17.3,195.8c0-1.3,0.7-2.1,1.9-2.1c1,0,1.8,0.6,1.8,1.9c0,0.2,0,0.4,0,0.5h-2.8c0,0.7,0.5,1.1,1,1.1c0.3,0,0.6-0.1,0.8-0.4
		l0.5,0.6c-0.3,0.4-0.8,0.6-1.4,0.6C18,197.9,17.3,197.1,17.3,195.8z M20.1,195.4c0-0.8-0.5-1-0.9-1c-0.5,0-1,0.3-1,1H20.1z"/>
</g>
<g class="st0">
	<path d="M25.9,197.5c-0.2,0.2-0.6,0.4-1.1,0.4c-0.8,0-1.5-0.5-1.5-1.4c0-0.9,0.8-1.4,1.6-1.4c0.4,0,0.7,0.1,1,0.2v-0.2
		c0-0.6-0.3-0.8-0.9-0.8c-0.5,0-0.9,0.1-1.2,0.4l-0.2-0.7c0.3-0.2,0.9-0.4,1.5-0.4c0.7,0,1.6,0.2,1.6,1.5v2.6h-0.8V197.5z
		 M25.9,196.7v-0.6c-0.2-0.1-0.6-0.2-0.9-0.2c-0.5,0-0.9,0.2-0.9,0.6c0,0.4,0.3,0.6,0.8,0.6C25.4,197.2,25.7,197,25.9,196.7z"/>
	<path d="M30.4,197.4c-0.3,0.3-0.6,0.5-1.1,0.5c-0.9,0-1.5-0.5-1.5-1.7v-2.4h0.8v2.4c0,0.7,0.4,1,0.8,1c0.5,0,0.9-0.2,0.9-0.9v-2.5
		h0.8v4.1h-0.8V197.4z"/>
	<path d="M32.1,197.2l0.6-0.5c0.2,0.2,0.5,0.4,0.9,0.4c0.4,0,0.7-0.1,0.7-0.4c0-0.3-0.4-0.5-0.8-0.6c-0.9-0.3-1.3-0.7-1.3-1.3
		c0-0.7,0.6-1.1,1.4-1.1c0.7,0,1.2,0.3,1.4,0.6l-0.6,0.5c-0.1-0.2-0.4-0.3-0.8-0.3c-0.4,0-0.6,0.1-0.6,0.4c0,0.3,0.4,0.4,0.8,0.6
		c0.9,0.3,1.3,0.6,1.3,1.4c0,0.8-0.6,1.2-1.5,1.2C33,197.9,32.4,197.7,32.1,197.2z"/>
</g>
<g class="st0">
	<path d="M37.8,195.8c0-1.3,0.7-2.1,1.7-2.1c0.4,0,0.8,0.2,1,0.4v-1.6l0.8-0.4v5.8h-0.8v-0.3c-0.2,0.2-0.5,0.4-1,0.4
		C38.5,197.9,37.8,197.1,37.8,195.8z M40.5,196.7v-1.8c-0.1-0.2-0.4-0.4-0.8-0.4c-0.6,0-1,0.5-1,1.4c0,0.8,0.4,1.4,1,1.4
		C40,197.1,40.3,197,40.5,196.7z"/>
	<path d="M42.4,192.6c0-0.3,0.2-0.5,0.5-0.5s0.5,0.2,0.5,0.5c0,0.3-0.2,0.5-0.5,0.5S42.4,192.9,42.4,192.6z M42.5,193.7h0.8v4.1
		h-0.8V193.7z"/>
	<path d="M44.4,195.8c0-1.3,0.7-2.1,1.9-2.1c1,0,1.8,0.6,1.8,1.9c0,0.2,0,0.4,0,0.5h-2.8c0,0.7,0.5,1.1,1,1.1c0.3,0,0.6-0.1,0.8-0.4
		l0.5,0.6c-0.3,0.4-0.8,0.6-1.4,0.6C45.1,197.9,44.4,197.1,44.4,195.8z M47.1,195.4c0-0.8-0.5-1-0.9-1c-0.5,0-1,0.3-1,1H47.1z"/>
	<path d="M48.7,197.2l0.6-0.5c0.2,0.2,0.5,0.4,0.9,0.4c0.4,0,0.7-0.1,0.7-0.4c0-0.3-0.4-0.5-0.8-0.6c-0.9-0.3-1.3-0.7-1.3-1.3
		c0-0.7,0.6-1.1,1.4-1.1c0.7,0,1.2,0.3,1.4,0.6l-0.6,0.5c-0.1-0.2-0.4-0.3-0.8-0.3c-0.4,0-0.6,0.1-0.6,0.4c0,0.3,0.4,0.4,0.8,0.6
		c0.9,0.3,1.3,0.6,1.3,1.4c0,0.8-0.6,1.2-1.5,1.2C49.6,197.9,48.9,197.7,48.7,197.2z"/>
	<path d="M52.5,195.8c0-1.3,0.7-2.1,1.9-2.1c1,0,1.8,0.6,1.8,1.9c0,0.2,0,0.4,0,0.5h-2.8c0,0.7,0.5,1.1,1,1.1c0.3,0,0.6-0.1,0.8-0.4
		l0.5,0.6c-0.3,0.4-0.8,0.6-1.4,0.6C53.2,197.9,52.5,197.1,52.5,195.8z M55.3,195.4c0-0.8-0.5-1-0.9-1c-0.5,0-1,0.3-1,1H55.3z"/>
	<path d="M57.1,193.7h0.8v0.5c0.2-0.4,0.5-0.6,0.9-0.6c0.3,0,0.5,0.1,0.7,0.2l-0.1,0.8c-0.2-0.1-0.4-0.2-0.6-0.2
		c-0.4,0-0.8,0.2-0.8,1.1v2.3h-0.8V193.7z"/>
</g>
<g class="st0">
	<path d="M62.3,192.2h0.8v4.8h2.7v0.8h-3.6V192.2z"/>
	<path d="M66.8,192.6c0-0.3,0.2-0.5,0.5-0.5s0.5,0.2,0.5,0.5c0,0.3-0.2,0.5-0.5,0.5S66.8,192.9,66.8,192.6z M66.9,193.7h0.8v4.1
		h-0.8V193.7z"/>
	<path d="M68.6,197.2l0.6-0.5c0.2,0.2,0.5,0.4,0.9,0.4c0.4,0,0.7-0.1,0.7-0.4c0-0.3-0.4-0.5-0.8-0.6c-0.9-0.3-1.3-0.7-1.3-1.3
		c0-0.7,0.6-1.1,1.4-1.1c0.7,0,1.2,0.3,1.4,0.6l-0.6,0.5c-0.1-0.2-0.4-0.3-0.8-0.3c-0.4,0-0.6,0.1-0.6,0.4c0,0.3,0.4,0.4,0.8,0.6
		c0.9,0.3,1.3,0.6,1.3,1.4c0,0.8-0.6,1.2-1.5,1.2C69.5,197.9,68.9,197.7,68.6,197.2z"/>
</g>
<g class="st0">
	<path d="M73,196.9v-2.4h-0.6v-0.7H73v-1.3l0.8-0.4v1.7h1v0.7h-1v2.2c0,0.3,0.1,0.5,0.4,0.5c0.2,0,0.4-0.1,0.6-0.2l-0.1,0.8
		c-0.2,0.1-0.5,0.2-0.8,0.2C73.2,197.9,73,197.5,73,196.9z"/>
</g>
<g class="st0">
	<path d="M75.4,195.8c0-1.3,0.7-2.1,1.9-2.1c1,0,1.8,0.6,1.8,1.9c0,0.2,0,0.4,0,0.5h-2.8c0,0.7,0.5,1.1,1,1.1c0.3,0,0.6-0.1,0.8-0.4
		l0.5,0.6c-0.3,0.4-0.8,0.6-1.4,0.6C76.1,197.9,75.4,197.1,75.4,195.8z M78.2,195.4c0-0.8-0.5-1-0.9-1c-0.5,0-1,0.3-1,1H78.2z"/>
</g>
<g class="st0">
	<path d="M214,239.2c0-0.8-0.4-1.1-0.9-1.1c-0.5,0-0.9,0.3-0.9,1.1v2.5h-0.7v-4.1h0.7v0.4c0.3-0.4,0.6-0.5,1.1-0.5
		c0.9,0,1.5,0.5,1.5,1.8v2.4H214V239.2z"/>
	<path d="M216,237.9h3.8v0.7H216V237.9z M216,239.3h3.8v0.7H216V239.3z"/>
</g>
<g class="st0">
	<path d="M222.9,241.2l0.4-0.5c0.3,0.3,0.7,0.5,1.4,0.5c0.8,0,1.4-0.6,1.4-1.3c0-0.7-0.5-1.2-1.1-1.2c-0.5,0-0.9,0.2-1.1,0.5
		l-0.7-0.2l0.3-2.8h3v0.6h-2.4l-0.2,1.7c0.3-0.2,0.7-0.4,1.2-0.4c1.1,0,1.8,0.8,1.8,1.8c0,1.1-0.8,1.9-2.1,1.9
		C223.8,241.8,223.2,241.5,222.9,241.2z"/>
	<path d="M228.6,237.2h-0.9v-0.5c0.6,0,1-0.2,1.1-0.7h0.5v5.6h-0.7V237.2z"/>
</g>
<g class="st0">
	<path d="M232.9,239.4c0-1.7,0.5-2.8,1.1-3.4h0.7c-0.3,0.4-1,1.7-1,3.4c0,1.8,0.7,3,1,3.3h-0.7C233.4,242.1,232.9,241.1,232.9,239.4
		z"/>
</g>
<g class="st0">
	<path d="M240.6,239.2c0-0.6-0.2-1.1-0.8-1.1c-0.5,0-0.9,0.4-0.9,1.1v2.5h-0.7v-2.5c0-0.6-0.2-1.1-0.8-1.1c-0.5,0-0.9,0.4-0.9,1.1
		v2.5h-0.7v-4.1h0.7v0.4c0.2-0.3,0.6-0.5,1.1-0.5c0.4,0,0.9,0.2,1.1,0.6c0.2-0.4,0.7-0.6,1.2-0.6c0.8,0,1.4,0.5,1.4,1.5v2.7h-0.7
		V239.2z"/>
	<path d="M242.3,239.7c0-1.4,0.7-2.1,1.8-2.1c0.9,0,1.7,0.6,1.7,1.9c0,0.1,0,0.3,0,0.5H243c0.1,0.8,0.5,1.2,1.1,1.2
		c0.3,0,0.6-0.1,0.9-0.4l0.4,0.5c-0.3,0.3-0.8,0.5-1.3,0.5C243,241.8,242.3,240.9,242.3,239.7z M245.1,239.3c0-0.9-0.6-1.2-1-1.2
		c-0.6,0-1.1,0.4-1.1,1.2H245.1z"/>
</g>
<g class="st0">
	<path d="M246.9,236.3l0.7-0.3v2.1c0.3-0.4,0.6-0.5,1.1-0.5c0.9,0,1.5,0.5,1.5,1.8v2.4h-0.7v-2.5c0-0.8-0.4-1.1-0.9-1.1
		c-0.5,0-0.9,0.3-0.9,1.1v2.5h-0.7V236.3z"/>
	<path d="M251.4,237.6h0.7v0.5c0.2-0.4,0.6-0.6,1-0.6c0.2,0,0.4,0.1,0.6,0.2l-0.1,0.7c-0.1-0.1-0.3-0.2-0.6-0.2
		c-0.4,0-0.9,0.3-0.9,1.2v2.3h-0.7V237.6z"/>
</g>
<g class="st0">
	<path d="M254.4,239.7c0-1.4,0.7-2.1,1.8-2.1c0.9,0,1.7,0.6,1.7,1.9c0,0.1,0,0.3,0,0.5h-2.8c0.1,0.8,0.5,1.2,1.1,1.2
		c0.3,0,0.6-0.1,0.9-0.4l0.4,0.5c-0.3,0.3-0.8,0.5-1.3,0.5C255.1,241.8,254.4,240.9,254.4,239.7z M257.2,239.3c0-0.9-0.6-1.2-1-1.2
		c-0.6,0-1.1,0.4-1.1,1.2H257.2z"/>
</g>
<g class="st0">
	<path d="M259,237.6h0.7v0.5c0.2-0.4,0.6-0.6,1-0.6c0.2,0,0.4,0.1,0.6,0.2l-0.1,0.7c-0.1-0.1-0.3-0.2-0.6-0.2
		c-0.4,0-0.9,0.3-0.9,1.2v2.3H259V237.6z"/>
</g>
<g class="st0">
	<path d="M261.9,239.7c0-1.4,0.7-2.1,1.8-2.1c0.9,0,1.7,0.6,1.7,1.9c0,0.1,0,0.3,0,0.5h-2.8c0.1,0.8,0.5,1.2,1.1,1.2
		c0.3,0,0.6-0.1,0.9-0.4l0.4,0.5c-0.3,0.3-0.8,0.5-1.3,0.5C262.6,241.8,261.9,240.9,261.9,239.7z M264.7,239.3c0-0.9-0.6-1.2-1-1.2
		c-0.6,0-1.1,0.4-1.1,1.2H264.7z"/>
</g>
<g class="st0">
	<path d="M271.2,240.3H269l-0.5,1.4h-0.7l2-5.6h0.6l2,5.6h-0.7L271.2,240.3z M270.3,237.7c-0.1-0.2-0.1-0.4-0.2-0.6
		c0,0.1-0.1,0.4-0.2,0.6l-0.7,2.1h1.8L270.3,237.7z"/>
	<path d="M276,239.2c0-0.8-0.4-1.1-0.9-1.1c-0.5,0-0.9,0.3-0.9,1.1v2.5h-0.7v-4.1h0.7v0.4c0.3-0.4,0.6-0.5,1.1-0.5
		c0.9,0,1.5,0.5,1.5,1.8v2.4H276V239.2z"/>
	<path d="M278.2,240.8v-2.6h-0.7v-0.6h0.7v-1.4l0.7-0.3v1.7h1v0.6h-1v2.4c0,0.3,0.1,0.6,0.4,0.6c0.2,0,0.4-0.1,0.6-0.2l-0.1,0.7
		c-0.2,0.1-0.5,0.2-0.8,0.2C278.5,241.8,278.2,241.4,278.2,240.8z"/>
</g>
<g class="st0">
	<path d="M280.8,237.6h0.7l0.6,2.7c0,0.2,0.1,0.3,0.1,0.4c0-0.1,0.1-0.3,0.1-0.4l0.8-2.7h0.6l0.8,2.7l0.1,0.4c0-0.1,0.1-0.3,0.1-0.4
		l0.6-2.7h0.7l-1,4.1h-0.6l-0.7-2.4c0-0.2-0.1-0.4-0.2-0.5c0,0.2-0.1,0.4-0.1,0.5l-0.7,2.4h-0.6L280.8,237.6z"/>
</g>
<g class="st0">
	<path d="M286.6,239.7c0-1.3,0.7-2.1,1.8-2.1s1.8,0.8,1.8,2.1c0,1.3-0.7,2.1-1.8,2.1S286.6,241,286.6,239.7z M289.5,239.7
		c0-0.9-0.4-1.5-1.1-1.5s-1.1,0.6-1.1,1.5c0,0.9,0.4,1.5,1.1,1.5C289.1,241.2,289.5,240.6,289.5,239.7z"/>
</g>
<g class="st0">
	<path d="M291.4,237.6h0.7v0.5c0.2-0.4,0.6-0.6,1-0.6c0.2,0,0.4,0.1,0.6,0.2l-0.1,0.7c-0.1-0.1-0.3-0.2-0.6-0.2
		c-0.4,0-0.9,0.3-0.9,1.2v2.3h-0.7V237.6z"/>
</g>
<g class="st0">
	<path d="M294.9,240.8v-2.6h-0.7v-0.6h0.7v-1.4l0.7-0.3v1.7h1v0.6h-1v2.4c0,0.3,0.1,0.6,0.4,0.6c0.2,0,0.4-0.1,0.6-0.2l-0.1,0.7
		c-0.2,0.1-0.5,0.2-0.8,0.2C295.2,241.8,294.9,241.4,294.9,240.8z"/>
</g>
<g class="st0">
	<path d="M302.5,239.2c0-0.6-0.2-1.1-0.8-1.1c-0.5,0-0.9,0.4-0.9,1.1v2.5h-0.7v-2.5c0-0.6-0.2-1.1-0.8-1.1c-0.5,0-0.9,0.4-0.9,1.1
		v2.5h-0.7v-4.1h0.7v0.4c0.2-0.3,0.6-0.5,1.1-0.5c0.4,0,0.9,0.2,1.1,0.6c0.2-0.4,0.7-0.6,1.2-0.6c0.8,0,1.4,0.5,1.4,1.5v2.7h-0.7
		V239.2z"/>
	<path d="M304.2,239.7c0-1.3,0.7-2.1,1.8-2.1c1.1,0,1.8,0.8,1.8,2.1c0,1.3-0.7,2.1-1.8,2.1C304.9,241.8,304.2,241,304.2,239.7z
		 M304.9,236.5c0-0.2,0.2-0.4,0.4-0.4c0.2,0,0.4,0.2,0.4,0.4c0,0.2-0.2,0.4-0.4,0.4C305.1,236.9,304.9,236.7,304.9,236.5z
		 M307.1,239.7c0-0.9-0.4-1.5-1.1-1.5c-0.7,0-1.1,0.6-1.1,1.5c0,0.9,0.4,1.5,1.1,1.5C306.7,241.2,307.1,240.6,307.1,239.7z
		 M306.3,236.5c0-0.2,0.2-0.4,0.4-0.4c0.2,0,0.4,0.2,0.4,0.4c0,0.2-0.2,0.4-0.4,0.4C306.5,236.9,306.3,236.7,306.3,236.5z"/>
</g>
<g class="st0">
	<path d="M309.9,242.8c1.3-0.1,1.6-0.5,1.6-1v-0.5c-0.2,0.3-0.6,0.5-1.1,0.5c-0.9,0-1.7-0.7-1.7-2.1c0-1.3,0.7-2.1,1.7-2.1
		c0.6,0,0.9,0.3,1,0.4v-0.3h0.7v3.9c0,1.3-0.8,1.8-1.9,1.8L309.9,242.8z M311.5,240.6v-1.9c-0.2-0.3-0.6-0.5-0.9-0.5
		c-0.7,0-1.1,0.5-1.1,1.5c0,0.9,0.5,1.5,1.1,1.5C310.9,241.2,311.2,240.9,311.5,240.6z"/>
</g>
<g class="st0">
	<path d="M313.6,236.3l0.7-0.3v5.8h-0.7V236.3z"/>
	<path d="M315.6,236.4c0-0.2,0.2-0.4,0.4-0.4c0.2,0,0.4,0.2,0.4,0.4c0,0.2-0.2,0.4-0.4,0.4C315.8,236.9,315.6,236.7,315.6,236.4z
		 M315.7,237.6h0.7v4.1h-0.7V237.6z"/>
</g>
<g class="st0">
	<path d="M317.4,239.7c0-1.3,0.7-2.1,1.7-2.1c0.7,0,1.2,0.3,1.4,1l-0.7,0.2c-0.1-0.3-0.4-0.5-0.8-0.5c-0.7,0-1,0.6-1,1.5
		c0,0.9,0.3,1.5,1,1.5c0.4,0,0.7-0.2,0.8-0.6l0.6,0.2c-0.2,0.7-0.7,1-1.5,1C318.1,241.8,317.4,241,317.4,239.7z"/>
	<path d="M321.7,236.3l0.7-0.3v2.1c0.3-0.4,0.6-0.5,1.1-0.5c0.9,0,1.5,0.5,1.5,1.8v2.4h-0.7v-2.5c0-0.8-0.4-1.1-0.9-1.1
		c-0.5,0-0.9,0.3-0.9,1.1v2.5h-0.7V236.3z"/>
</g>
<g class="st0">
	<path d="M328.8,241.7l-1.3-2.5l-0.6,0.6v1.8h-0.7v-5.4l0.7-0.3v3.1l1.3-1.4h0.8l-1.1,1.1l1.5,3H328.8z"/>
</g>
<g class="st0">
	<path d="M330.2,239.7c0-1.4,0.7-2.1,1.8-2.1c0.9,0,1.7,0.6,1.7,1.9c0,0.1,0,0.3,0,0.5h-2.8c0.1,0.8,0.5,1.2,1.1,1.2
		c0.3,0,0.6-0.1,0.9-0.4l0.4,0.5c-0.3,0.3-0.8,0.5-1.3,0.5C330.9,241.8,330.2,240.9,330.2,239.7z M333,239.3c0-0.9-0.6-1.2-1-1.2
		c-0.6,0-1.1,0.4-1.1,1.2H333z"/>
</g>
<g class="st0">
	<path d="M334.7,236.4c0-0.2,0.2-0.4,0.4-0.4c0.2,0,0.4,0.2,0.4,0.4c0,0.2-0.2,0.4-0.4,0.4C334.9,236.9,334.7,236.7,334.7,236.4z
		 M334.8,237.6h0.7v4.1h-0.7V237.6z"/>
</g>
<g class="st0">
	<path d="M337.1,240.8v-2.6h-0.7v-0.6h0.7v-1.4l0.7-0.3v1.7h1v0.6h-1v2.4c0,0.3,0.1,0.6,0.4,0.6c0.2,0,0.4-0.1,0.6-0.2l-0.1,0.7
		c-0.2,0.1-0.5,0.2-0.8,0.2C337.4,241.8,337.1,241.4,337.1,240.8z"/>
</g>
<g class="st0">
	<path d="M339.6,239.7c0-1.4,0.7-2.1,1.8-2.1c0.9,0,1.7,0.6,1.7,1.9c0,0.1,0,0.3,0,0.5h-2.8c0.1,0.8,0.5,1.2,1.1,1.2
		c0.3,0,0.6-0.1,0.9-0.4l0.4,0.5c-0.3,0.3-0.8,0.5-1.3,0.5C340.3,241.8,339.6,240.9,339.6,239.7z M342.4,239.3c0-0.9-0.6-1.2-1-1.2
		c-0.6,0-1.1,0.4-1.1,1.2H342.4z"/>
</g>
<g class="st0">
	<path d="M346.7,239.2c0-0.8-0.4-1.1-0.9-1.1c-0.5,0-0.9,0.3-0.9,1.1v2.5h-0.7v-4.1h0.7v0.4c0.3-0.4,0.6-0.5,1.1-0.5
		c0.9,0,1.5,0.5,1.5,1.8v2.4h-0.7V239.2z"/>
</g>
<g class="st0">
	<path d="M349.5,239.4c0-1.8-0.8-3.1-1-3.4h0.7c0.5,0.6,1.1,1.8,1.1,3.4s-0.5,2.7-1,3.3h-0.7C348.8,242.4,349.5,241.2,349.5,239.4z"
		/>
</g>
</svg>
