<?xml version="1.0" encoding="utf-8"?>
<!-- Generator: Adobe Illustrator 21.0.0, SVG Export Plug-In . SVG Version: 6.00 Build 0)  -->
<svg version="1.1" id="Layer_1" xmlns="http://www.w3.org/2000/svg" xmlns:xlink="http://www.w3.org/1999/xlink" x="0px" y="0px"
	 viewBox="0 0 353.9 247" style="enable-background:new 0 0 353.9 247;" xml:space="preserve">
<style type="text/css">
	.st0{font-family:'Overpass-SemiBold';}
	.st1{font-size:8px;}
	.st2{font-size:8.2594px;}
	.st3{fill:#0000FF;}
	.st4{fill:none;stroke:#000000;stroke-width:0.5;}
	.st5{fill:#FFFFFF;}
	.st6{fill:none;stroke:#000000;stroke-width:0.691;}
	.st7{font-family:'Overpass-Regular';}
</style>
<text transform="matrix(1 0 0 1 314.6465 13.4092)" class="st0 st1">23</text>
<text transform="matrix(1 0 0 1 260.7432 106.9854)" class="st0 st1">13</text>
<text transform="matrix(1 0 0 1 239.2471 36.9131)" class="st0 st1">9</text>
<text transform="matrix(1 0 0 1 217.4229 130.4893)" class="st0 st1">5</text>
<text transform="matrix(1 0 0 1 304.4463 60.3857)" class="st0 st1">21</text>
<text transform="matrix(1 0 0 1 342.2871 153.9609)" class="st0 st1">28</text>
<text transform="matrix(1 0 0 1 304.6787 83.4736)" class="st0 st1">21</text>
<text transform="matrix(1 0 0 1 239.0791 177.0498)" class="st0 st1">9</text>
<text transform="matrix(1 0 0 1 223.375 199.7139)" class="st0 st1">6</text>
<text transform="matrix(-6.123234e-17 1 -1 -6.123234e-17 234.082 12.84)" class="st0 st2">1</text>
<text transform="matrix(-6.123234e-17 1 -1 -6.123234e-17 234.082 106.4106)" class="st0 st2">1</text>
<rect x="186" y="76.8" class="st3" width="109.1" height="16.1"/>
<rect x="186" y="76.8" class="st4" width="109.1" height="16.1"/>
<rect x="186" y="170.4" class="st3" width="43.9" height="16.1"/>
<rect x="186" y="170.4" class="st4" width="43.9" height="16.1"/>
<rect x="186" y="193.1" class="st3" width="28" height="16.1"/>
<rect x="186" y="193.1" class="st4" width="28" height="16.1"/>
<rect x="192.5" y="72.5" class="st5" width="106.8" height="15.9"/>
<rect x="192.5" y="72.5" class="st6" width="106.8" height="15.9"/>
<rect x="192.5" y="166.1" class="st5" width="41.6" height="15.9"/>
<rect x="192.5" y="166.1" class="st6" width="41.6" height="15.9"/>
<rect x="192.5" y="188.8" class="st5" width="26" height="15.9"/>
<rect x="192.5" y="188.8" class="st6" width="26" height="15.9"/>
<rect x="186" y="53.7" class="st3" width="109.1" height="16.1"/>
<rect x="186" y="53.7" class="st4" width="109.1" height="16.1"/>
<rect x="186" y="147.3" class="st3" width="147.8" height="16.1"/>
<rect x="186" y="147.3" class="st4" width="147.8" height="16.1"/>
<rect x="192.5" y="49.4" class="st5" width="106.8" height="15.9"/>
<rect x="192.5" y="49.4" class="st6" width="106.8" height="15.9"/>
<rect x="192.5" y="143" class="st5" width="144.7" height="15.9"/>
<rect x="192.5" y="143" class="st6" width="144.7" height="15.9"/>
<rect x="186" y="30.3" class="st3" width="43.9" height="16.1"/>
<rect x="186" y="30.3" class="st4" width="43.9" height="16.1"/>
<rect x="186" y="123.8" class="st3" width="22.3" height="16.1"/>
<rect x="186" y="123.8" class="st4" width="22.3" height="16.1"/>
<rect x="192.5" y="26" class="st5" width="41.6" height="15.9"/>
<rect x="192.5" y="26" class="st6" width="41.6" height="15.9"/>
<rect x="192.5" y="119.5" class="st5" width="20" height="15.9"/>
<rect x="192.5" y="119.5" class="st6" width="20" height="15.9"/>
<rect x="186" y="6.8" class="st3" width="118.3" height="16.1"/>
<rect x="186" y="6.8" class="st4" width="118.3" height="16.1"/>
<rect x="186" y="100.3" class="st3" width="65.6" height="16.1"/>
<rect x="186" y="100.3" class="st4" width="65.6" height="16.1"/>
<rect x="192.5" y="2.5" class="st5" width="117.1" height="15.9"/>
<rect x="192.5" y="2.5" class="st6" width="117.1" height="15.9"/>
<rect x="192.5" y="96" class="st5" width="63.2" height="15.9"/>
<rect x="192.5" y="96" class="st6" width="63.2" height="15.9"/>
<text transform="matrix(1 0 0 1 0.5107 13.4111)" class="st0 st1">Da</text>
<text transform="matrix(1 0 0 1 10.2107 13.4111)" class="st0 st1">t</text>
<text transform="matrix(1 0 0 1 13.2107 13.4111)" class="st0 st1">enschutz / I</text>
<text transform="matrix(1 0 0 1 56.2107 13.4111)" class="st0 st1">T</text>
<text transform="matrix(1 0 0 1 60.5107 13.4111)" class="st0 st1">-Sicherheit</text>
<text transform="matrix(1 0 0 1 0.5107 106.9873)" class="st0 st1">Prog</text>
<text transform="matrix(1 0 0 1 17.8107 106.9873)" class="st0 st1">r</text>
<text transform="matrix(1 0 0 1 20.9107 106.9873)" class="st0 st1">ammieren / Coding</text>
<text transform="matrix(1 0 0 1 0.5107 36.915)" class="st0 st1">Da</text>
<text transform="matrix(1 0 0 1 10.2107 36.915)" class="st0 st1">t</text>
<text transform="matrix(1 0 0 1 13.2107 36.915)" class="st0 st1">enrecherche, -analyse, -visualisie</text>
<text transform="matrix(1 0 0 1 133.4107 36.915)" class="st0 st1">r</text>
<text transform="matrix(1 0 0 1 136.5107 36.915)" class="st0 st1">ung</text>
<text transform="matrix(1 0 0 1 0.5107 130.4912)" class="st0 st1">Prozessoptimie</text>
<text transform="matrix(1 0 0 1 56.7107 130.4912)" class="st0 st1">r</text>
<text transform="matrix(1 0 0 1 59.9107 130.4912)" class="st0 st1">ung</text>
<text transform="matrix(1 0 0 1 0.5107 60.3877)" class="st0 st1">B</text>
<text transform="matrix(1 0 0 1 5.8107 60.3877)" class="st0 st1">e</text>
<text transform="matrix(1 0 0 1 10.1107 60.3877)" class="st0 st1">t</text>
<text transform="matrix(1 0 0 1 13.1107 60.3877)" class="st0 st1">eiligungsansätze und -forma</text>
<text transform="matrix(1 0 0 1 115.7107 60.3877)" class="st0 st1">t</text>
<text transform="matrix(1 0 0 1 118.7107 60.3877)" class="st0 st1">e</text>
<text transform="matrix(1 0 0 1 0.5107 153.9639)" class="st0 st1">Social Media</text>
<text transform="matrix(1 0 0 1 0.5107 81.9072)" class="st0 st1">Proje</text>
<text transform="matrix(1 0 0 1 19.7107 81.9072)" class="st0 st1">k</text>
<text transform="matrix(1 0 0 1 24.1107 81.9072)" class="st0 st1">tmanagement</text>
<text transform="matrix(1 0 0 1 0.5107 175.3398)" class="st0 st1">Wissensmanagement</text>
<text transform="matrix(1 0 0 1 0.5107 197.8115)" class="st0 st1">Keine</text>
<text transform="matrix(1 0 0 1 21.2107 197.8115)" class="st0 st1"> </text>
<text transform="matrix(1 0 0 1 23.0107 197.8115)" class="st0 st1">aus</text>
<text transform="matrix(1 0 0 1 35.6107 197.8115)" class="st0 st1"> </text>
<text transform="matrix(1 0 0 1 37.4107 197.8115)" class="st0 st1">dieser</text>
<text transform="matrix(1 0 0 1 59.8107 197.8115)" class="st0 st1"> </text>
<text transform="matrix(1 0 0 1 61.6107 197.8115)" class="st0 st1">Lis</text>
<text transform="matrix(1 0 0 1 72.1107 197.8115)" class="st0 st1">t</text>
<text transform="matrix(1 0 0 1 75.0107 197.8115)" class="st0 st1">e</text>
<text transform="matrix(1 0 0 1 210.8066 241.707)" class="st7 st1">n=</text>
<text transform="matrix(1 0 0 1 220.5066 241.707)" class="st7 st1"> </text>
<text transform="matrix(1 0 0 1 222.4066 241.707)" class="st7 st1">51</text>
<text transform="matrix(1 0 0 1 230.4066 241.707)" class="st7 st1"> </text>
<text transform="matrix(1 0 0 1 232.3066 241.707)" class="st7 st1">(</text>
<text transform="matrix(1 0 0 1 235.1066 241.707)" class="st7 st1">me</text>
<text transform="matrix(1 0 0 1 246.2066 241.707)" class="st7 st1">hr</text>
<text transform="matrix(1 0 0 1 254.0066 241.707)" class="st7 st1">e</text>
<text transform="matrix(1 0 0 1 258.3066 241.707)" class="st7 st1">r</text>
<text transform="matrix(1 0 0 1 261.5066 241.707)" class="st7 st1">e</text>
<text transform="matrix(1 0 0 1 265.9066 241.707)" class="st7 st1"> </text>
<text transform="matrix(1 0 0 1 267.4066 241.707)" class="st7 st1">Ant</text>
<text transform="matrix(1 0 0 1 280.5066 241.707)" class="st7 st1">w</text>
<text transform="matrix(1 0 0 1 286.2066 241.707)" class="st7 st1">o</text>
<text transform="matrix(1 0 0 1 290.7066 241.707)" class="st7 st1">r</text>
<text transform="matrix(1 0 0 1 294.0066 241.707)" class="st7 st1">t</text>
<text transform="matrix(1 0 0 1 297.0066 241.707)" class="st7 st1">mö</text>
<text transform="matrix(1 0 0 1 308.3066 241.707)" class="st7 st1">g</text>
<text transform="matrix(1 0 0 1 312.9066 241.707)" class="st7 st1">li</text>
<text transform="matrix(1 0 0 1 317.0066 241.707)" class="st7 st1">ch</text>
<text transform="matrix(1 0 0 1 325.6066 241.707)" class="st7 st1">k</text>
<text transform="matrix(1 0 0 1 329.8066 241.707)" class="st7 st1">e</text>
<text transform="matrix(1 0 0 1 334.1066 241.707)" class="st7 st1">i</text>
<text transform="matrix(1 0 0 1 336.2066 241.707)" class="st7 st1">t</text>
<text transform="matrix(1 0 0 1 339.2066 241.707)" class="st7 st1">e</text>
<text transform="matrix(1 0 0 1 343.5066 241.707)" class="st7 st1">n</text>
<text transform="matrix(1 0 0 1 348.1066 241.707)" class="st7 st1">)</text>
</svg>
