<?xml version="1.0" encoding="utf-8"?>
<!-- Generator: Adobe Illustrator 21.0.0, SVG Export Plug-In . SVG Version: 6.00 Build 0)  -->
<svg version="1.1" id="Layer_1" xmlns="http://www.w3.org/2000/svg" xmlns:xlink="http://www.w3.org/1999/xlink" x="0px" y="0px"
	 viewBox="0 0 357.2 389" style="enable-background:new 0 0 357.2 389;" xml:space="preserve">
<style type="text/css">
	.st0{fill:none;stroke:#000000;stroke-width:0.5;}
	.st1{font-family:'Overpass-Regular';}
	.st2{font-size:6px;}
	.st3{fill:#FFFFFF;}
	.st4{fill:none;stroke:#0000DD;stroke-width:0.5;}
	.st5{fill:#0000FF;}
	.st6{fill:none;stroke:#0000FF;stroke-width:0.5;}
	.st7{font-size:8px;}
	.st8{fill:#0000DD;}
</style>
<rect x="0.2" y="5" width="5.7" height="5.5"/>
<rect x="0.2" y="5" class="st0" width="5.7" height="5.5"/>
<text transform="matrix(1 0 0 1 8.0788 9.6975)" class="st1 st2">K</text>
<text transform="matrix(1 0 0 1 11.9788 9.6975)" class="st1 st2">ei</text>
<text transform="matrix(1 0 0 1 16.7788 9.6975)" class="st1 st2">n</text>
<text transform="matrix(1 0 0 1 20.1788 9.6975)" class="st1 st2">e</text>
<rect x="109.5" y="5" class="st3" width="5.7" height="5.5"/>
<rect x="109.5" y="5" class="st0" width="5.7" height="5.5"/>
<text transform="matrix(1 0 0 1 117.2922 9.6975)" class="st1 st2">We</text>
<text transform="matrix(1 0 0 1 125.5922 9.6975)" class="st1 st2">n</text>
<text transform="matrix(1 0 0 1 128.9922 9.6975)" class="st1 st2">i</text>
<text transform="matrix(1 0 0 1 130.5922 9.6975)" class="st1 st2">g</text>
<rect x="222.5" y="5" class="st3" width="5.7" height="5.5"/>
<rect x="222.5" y="5" class="st4" width="5.7" height="5.5"/>
<text transform="matrix(1 0 0 1 230.3362 9.6975)" class="st1 st2">Vie</text>
<text transform="matrix(1 0 0 1 239.0362 9.6975)" class="st1 st2">l</text>
<rect x="325.8" y="5" class="st5" width="5.7" height="5.5"/>
<rect x="325.8" y="5" class="st6" width="5.7" height="5.5"/>
<text transform="matrix(1 0 0 1 333.5798 9.6975)" class="st1 st2">Se</text>
<text transform="matrix(1 0 0 1 340.4798 9.6975)" class="st1 st2">hr</text>
<text transform="matrix(1 0 0 1 346.2798 9.6975)" class="st1 st2"> vie</text>
<text transform="matrix(1 0 0 1 355.5798 9.6975)" class="st1 st2">l</text>
<g>
	<path class="st5" d="M2.8,33.7c1.4,0,2.6-1.2,2.6-2.6s-1.2-2.6-2.6-2.6s-2.6,1.2-2.6,2.6C0.2,32.5,1.4,33.7,2.8,33.7"/>
</g>
<text transform="matrix(1 0 0 1 5.3987 33.6975)" class="st5 st1 st7"> </text>
<text transform="matrix(1 0 0 1 7.2385 33.6975)" class="st1 st7"> Da</text>
<text transform="matrix(1 0 0 1 18.7385 33.6975)" class="st1 st7">t</text>
<text transform="matrix(1 0 0 1 21.6385 33.6975)" class="st1 st7">enschutz / I</text>
<text transform="matrix(1 0 0 1 64.1385 33.6975)" class="st1 st7">T</text>
<text transform="matrix(1 0 0 1 68.4385 33.6975)" class="st1 st7">-Sicherheit</text>
<g>
	<path class="st5" d="M2.8,75.7c1.4,0,2.6-1.2,2.6-2.6s-1.2-2.6-2.6-2.6s-2.6,1.2-2.6,2.6C0.2,74.5,1.4,75.7,2.8,75.7"/>
</g>
<text transform="matrix(1 0 0 1 5.3987 75.6975)" class="st5 st1 st7">  </text>
<text transform="matrix(1 0 0 1 9.0784 75.6975)" class="st1 st7">Da</text>
<text transform="matrix(1 0 0 1 18.7784 75.6975)" class="st1 st7">t</text>
<text transform="matrix(1 0 0 1 21.6784 75.6975)" class="st1 st7">enrecherche, -analyse, -visualisie</text>
<text transform="matrix(1 0 0 1 140.4784 75.6975)" class="st1 st7">r</text>
<text transform="matrix(1 0 0 1 143.5784 75.6975)" class="st1 st7">ung</text>
<g>
	<path class="st5" d="M3.5,117.7c1.4,0,2.6-1.2,2.6-2.6s-1.2-2.6-2.6-2.6s-2.6,1.2-2.6,2.6C0.9,116.5,2.1,117.7,3.5,117.7"/>
</g>
<text transform="matrix(1 0 0 1 6.1072 117.6975)" class="st5 st1 st7">  </text>
<text transform="matrix(1 0 0 1 9.7873 117.6975)" class="st1 st7">B</text>
<text transform="matrix(1 0 0 1 14.9873 117.6975)" class="st1 st7">et</text>
<text transform="matrix(1 0 0 1 22.1873 117.6975)" class="st1 st7">eiligungsansätze und -</text>
<text transform="matrix(1 0 0 1 102.7873 117.6975)" class="st1 st7">f</text>
<text transform="matrix(1 0 0 1 105.3873 117.6975)" class="st1 st7">orma</text>
<text transform="matrix(1 0 0 1 123.9873 117.6975)" class="st1 st7">t</text>
<text transform="matrix(1 0 0 1 126.8873 117.6975)" class="st1 st7">e</text>
<g>
	<path class="st5" d="M3.5,159.7c1.4,0,2.6-1.2,2.6-2.6c0-1.4-1.2-2.6-2.6-2.6s-2.6,1.2-2.6,2.6C0.9,158.5,2.1,159.7,3.5,159.7"/>
</g>
<text transform="matrix(1 0 0 1 6.1072 159.6975)" class="st5 st1 st7">  </text>
<text transform="matrix(1 0 0 1 9.7873 159.6975)" class="st1 st7">Proje</text>
<text transform="matrix(1 0 0 1 28.7873 159.6975)" class="st1 st7">k</text>
<text transform="matrix(1 0 0 1 32.9873 159.6975)" class="st1 st7">tmanagement</text>
<g>
	<path class="st5" d="M2.8,201.7c1.4,0,2.6-1.2,2.6-2.6c0-1.4-1.2-2.6-2.6-2.6s-2.6,1.2-2.6,2.6C0.2,200.5,1.4,201.7,2.8,201.7"/>
</g>
<text transform="matrix(1 0 0 1 5.3987 201.6975)" class="st8 st1 st7"> </text>
<text transform="matrix(1 0 0 1 7.2385 201.6975)" class="st1 st7"> Prog</text>
<text transform="matrix(1 0 0 1 26.2385 201.6975)" class="st1 st7">r</text>
<text transform="matrix(1 0 0 1 29.2385 201.6975)" class="st1 st7">ammieren / Coding</text>
<g>
	<path class="st5" d="M2.8,243.7c1.4,0,2.6-1.2,2.6-2.6s-1.2-2.6-2.6-2.6s-2.6,1.2-2.6,2.6C0.2,242.5,1.4,243.7,2.8,243.7"/>
</g>
<text transform="matrix(1 0 0 1 5.3987 243.6975)" class="st5 st1 st7">  </text>
<text transform="matrix(1 0 0 1 9.0784 243.6975)" class="st1 st7">Prozessoptimie</text>
<text transform="matrix(1 0 0 1 64.6784 243.6975)" class="st1 st7">r</text>
<text transform="matrix(1 0 0 1 67.7784 243.6975)" class="st1 st7">ung</text>
<g>
	<path class="st5" d="M2.8,285.7c1.4,0,2.6-1.2,2.6-2.6s-1.2-2.6-2.6-2.6s-2.6,1.2-2.6,2.6C0.2,284.5,1.4,285.7,2.8,285.7"/>
</g>
<text transform="matrix(1 0 0 1 5.3987 285.6975)" class="st5 st1 st7">  </text>
<text transform="matrix(1 0 0 1 9.0784 285.6975)" class="st1 st7">Social Media</text>
<g>
	<path class="st5" d="M2.8,327.7c1.4,0,2.6-1.2,2.6-2.6s-1.2-2.6-2.6-2.6s-2.6,1.2-2.6,2.6C0.2,326.5,1.4,327.7,2.8,327.7"/>
</g>
<text transform="matrix(1 0 0 1 5.3987 327.6975)" class="st5 st1 st7">  </text>
<text transform="matrix(1 0 0 1 8.9187 327.6975)" class="st1 st7">Wissensmanagement</text>
<line class="st0" x1="0" y1="19.1" x2="357.2" y2="19.1"/>
<line class="st0" x1="0" y1="60.7" x2="357.2" y2="60.7"/>
<line class="st0" x1="0" y1="102.7" x2="357.2" y2="102.7"/>
<line class="st0" x1="0" y1="144.3" x2="357.2" y2="144.3"/>
<line class="st0" x1="0" y1="187.4" x2="357.2" y2="187.4"/>
<line class="st0" x1="0" y1="227.9" x2="357.2" y2="227.9"/>
<line class="st0" x1="0" y1="270.1" x2="357.2" y2="270.1"/>
<line class="st0" x1="0" y1="312.4" x2="357.2" y2="312.4"/>
<line class="st0" x1="0" y1="354.8" x2="357.2" y2="354.8"/>
<rect x="185.8" y="24.7" width="5.6" height="6.5"/>
<rect x="186.1" y="33.1" class="st0" width="46.7" height="6"/>
<rect x="186.1" y="41.1" class="st6" width="146.1" height="6"/>
<rect x="185.8" y="49" class="st5" width="100.2" height="6.5"/>
<rect x="185.8" y="66.3" width="5.2" height="6.5"/>
<rect x="186.1" y="74.6" class="st0" width="111.4" height="6"/>
<rect x="186.1" y="82.7" class="st6" width="93.7" height="6"/>
<rect x="185.8" y="90.5" class="st5" width="88.6" height="6.5"/>
<rect x="185.8" y="108.2" width="0.7" height="6.5"/>
<rect x="186.1" y="116.5" class="st0" width="29.2" height="6"/>
<rect x="185.7" y="124.6" class="st6" width="141.1" height="6"/>
<rect x="185.4" y="132.4" class="st5" width="130.1" height="6.5"/>
<rect x="185.4" y="150.3" width="0.5" height="6.5"/>
<rect x="185.7" y="158.6" class="st0" width="63.8" height="6"/>
<rect x="185.7" y="166.7" class="st6" width="158.2" height="6"/>
<rect x="185.4" y="174.5" class="st5" width="76" height="6.5"/>
<rect x="185.4" y="233.8" width="23.2" height="6.5"/>
<rect x="185.7" y="242.1" class="st0" width="58.1" height="6"/>
<rect x="185.7" y="250.2" class="st6" width="140.3" height="6"/>
<rect x="185.4" y="258" class="st5" width="76" height="6.5"/>
<rect x="185.4" y="276" width="5.6" height="6.5"/>
<rect x="185.7" y="284.4" class="st0" width="99.5" height="6"/>
<rect x="185.7" y="292.4" class="st6" width="99.5" height="6"/>
<rect x="185.4" y="300.3" class="st5" width="94.1" height="6.5"/>
<rect x="185.4" y="318.3" width="5.6" height="6.5"/>
<rect x="185.7" y="326.7" class="st0" width="64" height="6"/>
<rect x="185.7" y="334.8" class="st6" width="122.7" height="6"/>
<rect x="185.4" y="342.6" class="st5" width="105.9" height="6.5"/>
<rect x="185.4" y="192.3" width="41" height="6.5"/>
<rect x="185.7" y="208" class="st6" width="99.5" height="6"/>
<rect x="185.4" y="215.8" class="st5" width="76" height="6.5"/>
<rect x="185.7" y="200.2" class="st0" width="85.8" height="6"/>
<text transform="matrix(1 0 0 1 339.4255 364.6174)" class="st1 st7">n=5</text>
<text transform="matrix(1 0 0 1 354.2255 364.6174)" class="st1 st7">1</text>
<text transform="matrix(1 0 0 1 355.2771 29.9367)" class="st1 st2">1</text>
<text transform="matrix(1 0 0 1 353.8489 38.2351)" class="st1 st2">8</text>
<text transform="matrix(1 0 0 1 350.1169 46.5329)" class="st1 st2">25</text>
<text transform="matrix(1 0 0 1 352.1448 54.8308)" class="st1 st2">17</text>
<text transform="matrix(1 0 0 1 355.2771 71.5051)" class="st1 st2">1</text>
<text transform="matrix(1 0 0 1 351.6951 79.8029)" class="st1 st2">19</text>
<text transform="matrix(1 0 0 1 351.6951 88.1008)" class="st1 st2">16</text>
<text transform="matrix(1 0 0 1 351.551 96.3991)" class="st1 st2">15</text>
<text transform="matrix(1 0 0 1 353.6809 113.2648)" class="st1 st2">0</text>
<text transform="matrix(1 0 0 1 353.7888 121.5627)" class="st1 st2">5</text>
<text transform="matrix(1 0 0 1 350.177 129.861)" class="st1 st2">2</text>
<text transform="matrix(1 0 0 1 353.777 129.861)" class="st1 st2">4</text>
<text transform="matrix(1 0 0 1 350.1707 138.1589)" class="st1 st2">22</text>
<text transform="matrix(1 0 0 1 353.6809 155.4509)" class="st1 st2">0</text>
<text transform="matrix(1 0 0 1 353.0388 163.7487)" class="st1 st2">11</text>
<text transform="matrix(1 0 0 1 350.7107 172.0471)" class="st1 st2">27</text>
<text transform="matrix(1 0 0 1 351.6648 180.3449)" class="st1 st2">13</text>
<text transform="matrix(1 0 0 1 354.3831 197.343)" class="st1 st2">7</text>
<text transform="matrix(1 0 0 1 351.6707 205.6408)" class="st1 st2">1</text>
<text transform="matrix(1 0 0 1 353.7707 205.6408)" class="st1 st2">4</text>
<text transform="matrix(1 0 0 1 352.1448 213.9387)" class="st1 st2">17</text>
<text transform="matrix(1 0 0 1 351.6648 222.2365)" class="st1 st2">13</text>
<text transform="matrix(1 0 0 1 353.7888 238.965)" class="st1 st2">4</text>
<text transform="matrix(1 0 0 1 351.4426 247.2629)" class="st1 st2">10</text>
<text transform="matrix(1 0 0 1 350.177 255.5607)" class="st1 st2">2</text>
<text transform="matrix(1 0 0 1 353.777 255.5607)" class="st1 st2">4</text>
<text transform="matrix(1 0 0 1 351.6648 263.8586)" class="st1 st2">13</text>
<text transform="matrix(1 0 0 1 355.2771 281.1154)" class="st1 st2">1</text>
<text transform="matrix(1 0 0 1 352.1448 289.4133)" class="st1 st2">17</text>
<text transform="matrix(1 0 0 1 352.1448 297.7111)" class="st1 st2">17</text>
<text transform="matrix(1 0 0 1 351.6951 306.009)" class="st1 st2">16</text>
<text transform="matrix(1 0 0 1 355.2771 323.3791)" class="st1 st2">1</text>
<text transform="matrix(1 0 0 1 353.0388 331.677)" class="st1 st2">11</text>
<text transform="matrix(1 0 0 1 351.6047 339.9748)" class="st1 st2">21</text>
<text transform="matrix(1 0 0 1 351.6111 348.2727)" class="st1 st2">18</text>
</svg>
