<?xml version="1.0" encoding="utf-8"?>
<!-- Generator: Adobe Illustrator 21.0.0, SVG Export Plug-In . SVG Version: 6.00 Build 0)  -->
<svg version="1.1" id="Layer_1" xmlns="http://www.w3.org/2000/svg" xmlns:xlink="http://www.w3.org/1999/xlink" x="0px" y="0px"
	 viewBox="0 0 358.9 230.3" style="enable-background:new 0 0 358.9 230.3;" xml:space="preserve">
<style type="text/css">
	.st0{fill:#0000FF;}
	.st1{fill:#FFFFFF;}
	.st2{fill:none;stroke:#000000;stroke-width:0.5;}
</style>
<rect x="186.8" y="24.2" class="st0" width="36.6" height="8.4"/>
<rect x="186.8" y="42.2" class="st0" width="16.7" height="8.4"/>
<rect x="186.8" y="60.9" class="st0" width="36.3" height="8.4"/>
<rect x="186.8" y="78.9" class="st0" width="16.7" height="8.4"/>
<rect x="186.8" y="96.9" class="st0" width="170.5" height="8.4"/>
<rect x="186.8" y="114.2" class="st0" width="92.4" height="8.4"/>
<rect x="186.8" y="132.9" class="st0" width="129.2" height="8.4"/>
<rect x="186.8" y="150.2" class="st0" width="152.4" height="8.4"/>
<rect x="186.8" y="168.9" class="st0" width="92.4" height="8.4"/>
<rect x="186.8" y="186.2" class="st0" width="73.4" height="8.4"/>
<rect x="186.8" y="204.2" class="st0" width="128.1" height="8.4"/>
<rect x="184.5" y="21.8" class="st1" width="36.6" height="8.4"/>
<rect x="184.5" y="21.8" class="st2" width="36.6" height="8.4"/>
<rect x="184.5" y="39.8" class="st1" width="16.7" height="8.4"/>
<rect x="184.5" y="39.8" class="st2" width="16.7" height="8.4"/>
<rect x="184.5" y="58.6" class="st1" width="36.6" height="8.4"/>
<rect x="184.5" y="58.6" class="st2" width="36.6" height="8.4"/>
<rect x="184.5" y="76.6" class="st1" width="16.7" height="8.4"/>
<rect x="184.5" y="76.6" class="st2" width="16.7" height="8.4"/>
<rect x="184.5" y="94.6" class="st1" width="170.5" height="8.4"/>
<rect x="184.5" y="94.6" class="st2" width="170.5" height="8.4"/>
<rect x="184.5" y="111.8" class="st1" width="92.4" height="8.4"/>
<rect x="184.5" y="111.8" class="st2" width="92.4" height="8.4"/>
<rect x="184.5" y="130.6" class="st1" width="129.2" height="8.4"/>
<rect x="184.5" y="130.6" class="st2" width="129.2" height="8.4"/>
<rect x="184.5" y="147.9" class="st1" width="151.9" height="8.4"/>
<rect x="184.5" y="147.9" class="st2" width="151.9" height="8.4"/>
<rect x="184.5" y="166.6" class="st1" width="92.4" height="8.4"/>
<rect x="184.5" y="166.6" class="st2" width="92.4" height="8.4"/>
<rect x="184.5" y="183.9" class="st1" width="73.4" height="8.4"/>
<rect x="184.5" y="183.9" class="st2" width="73.4" height="8.4"/>
<rect x="184.5" y="201.9" class="st1" width="128.1" height="8.4"/>
<rect x="184.5" y="201.9" class="st2" width="128.1" height="8.4"/>
<g>
	<path d="M0,23.7h2.1c1.4,0,1.8,0.8,1.8,1.7c0,0.8-0.5,1.7-1.8,1.7H0.7v2.2H0V23.7z M3.3,25.4c0-0.4-0.2-1-1.1-1H0.7v2.1h1.5
		C3,26.4,3.3,25.8,3.3,25.4z"/>
	<path d="M4.5,27.2c0-1.3,0.7-2.1,1.8-2.1c1.1,0,1.8,0.8,1.8,2.1c0,1.3-0.7,2.1-1.8,2.1C5.2,29.4,4.5,28.6,4.5,27.2z M7.4,27.2
		c0-0.9-0.4-1.5-1.1-1.5s-1.1,0.6-1.1,1.5s0.4,1.5,1.1,1.5S7.4,28.2,7.4,27.2z"/>
	<path d="M9.2,23.8l0.7-0.3v5.8H9.2V23.8z"/>
	<path d="M11.2,24c0-0.2,0.2-0.4,0.4-0.4c0.2,0,0.4,0.2,0.4,0.4c0,0.2-0.2,0.4-0.4,0.4C11.4,24.5,11.2,24.3,11.2,24z M11.3,25.2H12
		v4.1h-0.7V25.2z"/>
	<path d="M13.6,28.4v-2.6h-0.7v-0.6h0.7v-1.4l0.7-0.3v1.7h1v0.6h-1v2.4c0,0.3,0.1,0.6,0.4,0.6c0.2,0,0.4-0.1,0.6-0.2l-0.1,0.7
		c-0.2,0.1-0.5,0.2-0.8,0.2C13.8,29.4,13.6,29,13.6,28.4z"/>
	<path d="M16.2,24c0-0.2,0.2-0.4,0.4-0.4S17,23.8,17,24c0,0.2-0.2,0.4-0.4,0.4C16.4,24.5,16.2,24.3,16.2,24z M16.3,25.2H17v4.1h-0.7
		V25.2z"/>
	<path d="M18.1,28.7l0.5-0.4c0.2,0.2,0.6,0.5,1,0.5s0.8-0.2,0.8-0.5c0-0.4-0.5-0.6-0.9-0.8c-0.8-0.3-1.3-0.6-1.3-1.3
		c0-0.7,0.6-1.1,1.4-1.1c0.6,0,1.1,0.3,1.4,0.6l-0.5,0.4c-0.2-0.2-0.5-0.4-0.9-0.4s-0.7,0.2-0.7,0.5s0.4,0.5,0.9,0.7
		c0.7,0.3,1.3,0.6,1.3,1.4c0,0.7-0.6,1.2-1.5,1.2C19,29.4,18.4,29.1,18.1,28.7z"/>
	<path d="M21.9,27.2c0-1.3,0.7-2.1,1.7-2.1c0.7,0,1.2,0.3,1.4,1l-0.7,0.2c-0.1-0.3-0.4-0.5-0.8-0.5c-0.7,0-1,0.6-1,1.5
		s0.3,1.5,1,1.5c0.4,0,0.7-0.2,0.8-0.6l0.6,0.2c-0.2,0.7-0.7,1-1.5,1C22.5,29.4,21.9,28.6,21.9,27.2z"/>
	<path d="M26.1,23.8l0.7-0.3v2.1c0.3-0.4,0.6-0.5,1.1-0.5c0.9,0,1.5,0.5,1.5,1.8v2.4h-0.8v-2.5c0-0.8-0.4-1.1-0.9-1.1
		s-0.9,0.3-0.9,1.1v2.5h-0.7C26.1,29.3,26.1,23.8,26.1,23.8z"/>
	<path d="M30.4,27.2c0-1.4,0.7-2.1,1.8-2.1c0.9,0,1.7,0.6,1.7,1.9c0,0.1,0,0.3,0,0.5h-2.8c0.1,0.8,0.5,1.2,1.1,1.2
		c0.3,0,0.6-0.1,0.9-0.4l0.4,0.5c-0.3,0.3-0.8,0.5-1.3,0.5C31.1,29.4,30.4,28.5,30.4,27.2z M33.2,26.9c0-0.9-0.6-1.2-1-1.2
		c-0.6,0-1.1,0.4-1.1,1.2H33.2z"/>
	<path d="M36.3,28.4l0.6-0.3c0.2,0.4,0.5,0.6,1,0.6s1.1-0.2,1.1-1.3v-3.8h0.7v3.8c0,1.5-1,1.9-1.8,1.9C37.1,29.4,36.6,29,36.3,28.4z
		"/>
	<path d="M43.6,28.9c-0.3,0.4-0.6,0.5-1,0.5c-1,0-1.5-0.5-1.5-1.8v-2.4h0.7v2.5c0,0.8,0.4,1.1,0.9,1.1s0.9-0.3,0.9-1.1v-2.5h0.7v4.1
		h-0.7V28.9z"/>
	<path d="M46.5,30.4c1.3-0.1,1.6-0.5,1.6-1v-0.5c-0.2,0.3-0.6,0.5-1.1,0.5c-0.9,0-1.7-0.7-1.7-2.1c0-1.3,0.7-2.1,1.7-2.1
		c0.6,0,0.9,0.3,1,0.4v-0.3h0.7v3.9c0,1.3-0.8,1.8-1.9,1.8L46.5,30.4z M48.1,28.2v-1.9c-0.2-0.3-0.6-0.5-0.9-0.5
		c-0.7,0-1.1,0.5-1.1,1.5c0,0.9,0.5,1.5,1.1,1.5C47.5,28.7,47.9,28.5,48.1,28.2z"/>
	<path d="M49.9,27.2c0-1.4,0.7-2.1,1.8-2.1c0.9,0,1.7,0.6,1.7,1.9c0,0.1,0,0.3,0,0.5h-2.8c0.1,0.8,0.5,1.2,1.1,1.2
		c0.3,0,0.6-0.1,0.9-0.4l0.4,0.5c-0.3,0.3-0.8,0.5-1.3,0.5C50.6,29.4,49.9,28.5,49.9,27.2z M52.7,26.9c0-0.9-0.6-1.2-1-1.2
		c-0.6,0-1.1,0.4-1.1,1.2H52.7z"/>
	<path d="M56.9,26.8c0-0.8-0.4-1.1-0.9-1.1s-0.9,0.3-0.9,1.1v2.5h-0.7v-4.1h0.7v0.4c0.3-0.4,0.6-0.5,1.1-0.5c0.9,0,1.5,0.5,1.5,1.8
		v2.4H57L56.9,26.8L56.9,26.8z"/>
	<path d="M58.7,27.2c0-1.3,0.7-2.1,1.7-2.1c0.5,0,0.8,0.2,1,0.4v-1.6l0.7-0.3v5.8h-0.7V29c-0.2,0.2-0.5,0.4-1,0.4
		C59.3,29.4,58.7,28.6,58.7,27.2z M61.4,28.2v-1.9c-0.2-0.2-0.5-0.5-0.9-0.5c-0.7,0-1.1,0.5-1.1,1.5c0,0.8,0.4,1.5,1.1,1.5
		C60.9,28.7,61.2,28.5,61.4,28.2z"/>
	<path d="M63.2,27.2c0-1.3,0.7-2.1,1.8-2.1c1.1,0,1.8,0.8,1.8,2.1c0,1.3-0.7,2.1-1.8,2.1C63.9,29.4,63.2,28.6,63.2,27.2z M66.1,27.2
		c0-0.9-0.4-1.5-1.1-1.5s-1.1,0.6-1.1,1.5s0.4,1.5,1.1,1.5S66.1,28.2,66.1,27.2z"/>
	<path d="M67.9,25.2h0.7v0.5c0.2-0.4,0.6-0.6,1-0.6c0.2,0,0.4,0.1,0.6,0.2L70.1,26c-0.1-0.1-0.3-0.2-0.6-0.2c-0.4,0-0.9,0.3-0.9,1.2
		v2.3h-0.7V25.2z"/>
	<path d="M72,30.4c1.3-0.1,1.6-0.5,1.6-1v-0.5c-0.2,0.3-0.6,0.5-1.1,0.5c-0.9,0-1.7-0.7-1.7-2.1c0-1.3,0.7-2.1,1.7-2.1
		c0.6,0,0.9,0.3,1,0.4v-0.3h0.7v3.9c0,1.3-0.8,1.8-1.9,1.8L72,30.4z M73.5,28.2v-1.9c-0.2-0.3-0.6-0.5-0.9-0.5
		c-0.7,0-1.1,0.5-1.1,1.5c0,0.9,0.5,1.5,1.1,1.5C73,28.7,73.3,28.5,73.5,28.2z"/>
	<path d="M77.9,28.9c-0.3,0.3-0.7,0.5-1.2,0.5c-0.8,0-1.4-0.5-1.4-1.4s0.7-1.4,1.5-1.4c0.4,0,0.7,0.1,1.1,0.3v-0.3
		c0-0.7-0.4-0.9-0.9-0.9s-0.9,0.2-1.2,0.4l-0.2-0.6c0.3-0.2,0.9-0.4,1.5-0.4s1.5,0.2,1.5,1.5v2.7h-0.7V28.9z M77.9,28.2v-0.7
		c-0.2-0.2-0.6-0.3-1-0.3c-0.5,0-1,0.2-1,0.8c0,0.5,0.3,0.8,0.9,0.8C77.3,28.8,77.7,28.5,77.9,28.2z"/>
	<path d="M82.3,26.8c0-0.8-0.4-1.1-0.9-1.1s-0.9,0.3-0.9,1.1v2.5h-0.7v-4.1h0.7v0.4c0.3-0.4,0.6-0.5,1.1-0.5c0.9,0,1.5,0.5,1.5,1.8
		v2.4h-0.7L82.3,26.8L82.3,26.8z"/>
	<path d="M84.2,24c0-0.2,0.2-0.4,0.4-0.4c0.2,0,0.4,0.2,0.4,0.4c0,0.2-0.2,0.4-0.4,0.4C84.4,24.5,84.2,24.3,84.2,24z M84.3,25.2H85
		v4.1h-0.7V25.2z"/>
	<path d="M86,28.7l0.5-0.4c0.2,0.2,0.6,0.5,1,0.5s0.8-0.2,0.8-0.5c0-0.4-0.5-0.6-0.9-0.8c-0.8-0.3-1.3-0.6-1.3-1.3
		c0-0.7,0.6-1.1,1.4-1.1c0.6,0,1.1,0.3,1.4,0.6l-0.5,0.4c-0.2-0.2-0.5-0.4-0.9-0.4s-0.7,0.2-0.7,0.5s0.4,0.5,0.9,0.7
		c0.7,0.3,1.3,0.6,1.3,1.4c0,0.7-0.6,1.2-1.5,1.2C86.9,29.4,86.3,29.1,86,28.7z"/>
	<path d="M92.4,28.9c-0.3,0.3-0.7,0.5-1.2,0.5c-0.8,0-1.4-0.5-1.4-1.4s0.7-1.4,1.5-1.4c0.4,0,0.7,0.1,1.1,0.3v-0.3
		c0-0.7-0.4-0.9-0.9-0.9s-0.9,0.2-1.2,0.4l-0.2-0.6c0.3-0.2,0.9-0.4,1.5-0.4s1.5,0.2,1.5,1.5v2.7h-0.7
		C92.4,29.3,92.4,28.9,92.4,28.9z M92.4,28.2v-0.7c-0.2-0.2-0.6-0.3-1-0.3c-0.5,0-1,0.2-1,0.8c0,0.5,0.3,0.8,0.9,0.8
		C91.8,28.8,92.2,28.5,92.4,28.2z"/>
	<path d="M94.5,28.4v-2.6h-0.7v-0.6h0.7v-1.4l0.7-0.3v1.7h1v0.6h-1v2.4c0,0.3,0.1,0.6,0.4,0.6c0.2,0,0.4-0.1,0.6-0.2l-0.1,0.7
		c-0.2,0.1-0.5,0.2-0.8,0.2C94.7,29.4,94.5,29,94.5,28.4z"/>
	<path d="M97.2,24c0-0.2,0.2-0.4,0.4-0.4c0.2,0,0.4,0.2,0.4,0.4c0,0.2-0.2,0.4-0.4,0.4C97.4,24.5,97.2,24.3,97.2,24z M97.3,25.2H98
		v4.1h-0.7V25.2z"/>
	<path d="M99,27.2c0-1.3,0.7-2.1,1.8-2.1c1.1,0,1.8,0.8,1.8,2.1c0,1.3-0.7,2.1-1.8,2.1C99.8,29.4,99,28.6,99,27.2z M102,27.2
		c0-0.9-0.4-1.5-1.1-1.5s-1.1,0.6-1.1,1.5s0.4,1.5,1.1,1.5C101.5,28.7,102,28.2,102,27.2z"/>
	<path d="M106.3,26.8c0-0.8-0.4-1.1-0.9-1.1s-0.9,0.3-0.9,1.1v2.5h-0.7v-4.1h0.7v0.4c0.3-0.4,0.6-0.5,1.1-0.5c0.9,0,1.5,0.5,1.5,1.8
		v2.4h-0.7L106.3,26.8L106.3,26.8z"/>
	<path d="M108,27.2c0-1.4,0.7-2.1,1.8-2.1c0.9,0,1.7,0.6,1.7,1.9c0,0.1,0,0.3,0,0.5h-2.8c0.1,0.8,0.5,1.2,1.1,1.2
		c0.3,0,0.6-0.1,0.9-0.4l0.4,0.5c-0.3,0.3-0.8,0.5-1.3,0.5C108.7,29.4,108,28.5,108,27.2z M110.8,26.9c0-0.9-0.6-1.2-1-1.2
		c-0.6,0-1.1,0.4-1.1,1.2H110.8z"/>
	<path d="M115.1,26.8c0-0.8-0.4-1.1-0.9-1.1s-0.9,0.3-0.9,1.1v2.5h-0.7v-4.1h0.7v0.4c0.3-0.4,0.6-0.5,1.1-0.5c0.9,0,1.5,0.5,1.5,1.8
		v2.4h-0.7v-2.5H115.1z"/>
</g>
<g>
	<path d="M188.2,226.4c0-0.8-0.4-1.1-0.9-1.1s-0.9,0.3-0.9,1.1v2.5h-0.7v-4.1h0.7v0.4c0.3-0.4,0.6-0.5,1.1-0.5
		c0.9,0,1.5,0.5,1.5,1.8v2.4h-0.7v-2.5H188.2z"/>
	<path d="M190.3,225.1h3.8v0.7h-3.8V225.1z M190.3,226.5h3.8v0.7h-3.8V226.5z"/>
	<path d="M195.3,228.4l0.4-0.5c0.3,0.3,0.7,0.5,1.4,0.5c0.8,0,1.4-0.6,1.4-1.3s-0.5-1.2-1.1-1.2c-0.5,0-0.9,0.2-1.1,0.5l-0.7-0.2
		l0.3-2.8h3v0.6h-2.4l-0.2,1.7c0.3-0.2,0.7-0.4,1.2-0.4c1.1,0,1.8,0.8,1.8,1.8c0,1.1-0.8,1.9-2.1,1.9
		C196.2,229,195.6,228.7,195.3,228.4z"/>
	<path d="M201,224.4h-0.9V224c0.6,0,1-0.2,1.1-0.7h0.5v5.6H201L201,224.4L201,224.4z"/>
</g>
<g>
	<path d="M175.1,26.3c0.5-0.2,0.9-0.6,0.9-1.1s-0.4-0.8-1-0.8s-1,0.3-1.1,0.7l-0.8-0.3c0.3-0.7,1-1.2,1.9-1.2c1.1,0,1.8,0.7,1.8,1.7
		s-0.6,1.4-1.4,1.8c-0.7,0.4-1.2,0.8-1.4,1.4h2.8v0.8h-3.9C173,27.8,174,26.9,175.1,26.3z"/>
</g>
<g>
	<path d="M175,42.8h-0.9v-0.6c0.5,0,1-0.2,1.1-0.6h0.6v5.6H175L175,42.8L175,42.8z"/>
</g>
<g>
	<path d="M175.1,62.5c0.5-0.2,0.9-0.6,0.9-1.1s-0.4-0.8-1-0.8s-1,0.3-1.1,0.7l-0.8-0.3c0.3-0.7,1-1.2,1.9-1.2c1.1,0,1.8,0.7,1.8,1.7
		s-0.6,1.4-1.4,1.8c-0.7,0.4-1.2,0.8-1.4,1.4h2.8v0.8h-3.9C173,63.9,174,63,175.1,62.5z"/>
</g>
<g>
	<path d="M175,79.5h-0.9v-0.6c0.5,0,1-0.2,1.1-0.6h0.6v5.6H175L175,79.5L175,79.5z"/>
</g>
<g>
	<path d="M174,101.8c0.9,0,1.7-0.4,1.9-1.7c-0.2,0.2-0.6,0.4-1.1,0.4c-1,0-1.8-0.7-1.8-1.8c0-1.1,0.8-1.8,1.9-1.8
		c1.3,0,1.9,0.9,1.9,2.2c0,2.1-0.9,3.5-2.9,3.6v-0.9H174z M176,98.7c0-0.6-0.4-0.9-1.1-0.9c-0.6,0-1.1,0.4-1.1,1s0.4,1,1.1,1
		S176,99.3,176,98.7z"/>
</g>
<g>
	<path d="M172.9,119.4l0.5-0.7c0.3,0.2,0.6,0.4,1.2,0.4c0.8,0,1.3-0.5,1.3-1.2s-0.4-1-1-1c-0.4,0-0.7,0.1-0.9,0.4l-0.9-0.3l0.2-2.8
		h3.1v0.8H174l-0.1,1.4c0.2-0.2,0.6-0.3,1.1-0.3c1.2,0,1.8,0.9,1.8,1.8c0,1.2-0.9,2-2.1,2C173.7,119.9,173.2,119.7,172.9,119.4z"/>
</g>
<g>
	<path d="M176.3,133.1h-2.9v-0.8h3.8v0.9c-1.3,1.5-1.7,3.5-1.7,4.7h-0.9C174.7,135.9,175.2,134.6,176.3,133.1z"/>
</g>
<g>
	<path d="M173,153.7c0-0.7,0.4-1.2,0.9-1.4c-0.4-0.2-0.7-0.6-0.7-1.2c0-0.8,0.7-1.5,1.7-1.5s1.7,0.6,1.7,1.5c0,0.5-0.3,0.9-0.7,1.2
		c0.6,0.3,0.9,0.7,0.9,1.4c0,1-0.8,1.7-1.9,1.7S173,154.7,173,153.7z M176.1,153.7c0-0.5-0.5-1-1.1-1s-1.1,0.4-1.1,1s0.4,1,1.1,1
		C175.6,154.6,176.1,154.2,176.1,153.7z M175.8,151.1c0-0.4-0.4-0.7-0.9-0.7s-0.8,0.3-0.8,0.7s0.3,0.7,0.8,0.7
		C175.5,151.9,175.8,151.5,175.8,151.1z"/>
</g>
<g>
	<path d="M172.9,173.4l0.5-0.7c0.3,0.2,0.6,0.4,1.2,0.4c0.8,0,1.3-0.5,1.3-1.2s-0.4-1-1-1c-0.4,0-0.7,0.1-0.9,0.4l-0.9-0.3l0.2-2.8
		h3.1v0.8H174l-0.1,1.4c0.2-0.2,0.6-0.3,1.1-0.3c1.2,0,1.8,0.9,1.8,1.8c0,1.2-0.9,2-2.1,2C173.7,173.9,173.2,173.7,172.9,173.4z"/>
</g>
<g>
	<path d="M175.1,189.9h-3v-0.5l2.9-3.8h1v3.6h0.7v0.8H176v1.3h-0.8L175.1,189.9L175.1,189.9z M175.1,186.5l-1.9,2.6h1.9V186.5z"/>
</g>
<g>
	<path d="M176.3,204.9h-2.9V204h3.8v0.9c-1.3,1.5-1.7,3.5-1.7,4.7h-0.9C174.7,207.7,175.2,206.4,176.3,204.9z"/>
</g>
<g>
	<path d="M-0.5,46.4l0.6-0.3c0.2,0.4,0.5,0.6,1,0.6s1.1-0.2,1.1-1.3v-3.8h0.7v3.8c0,1.5-1,1.9-1.8,1.9C0.3,47.4-0.2,47-0.5,46.4z"/>
	<path d="M6.8,46.9c-0.3,0.4-0.6,0.5-1,0.5c-1,0-1.5-0.5-1.5-1.8v-2.4H5v2.5c0,0.8,0.4,1.1,0.9,1.1s0.9-0.3,0.9-1.1v-2.5h0.7v4.1
		H6.8V46.9z"/>
	<path d="M9.7,48.4c1.3-0.1,1.6-0.5,1.6-1v-0.5c-0.2,0.3-0.6,0.5-1.1,0.5c-0.9,0-1.7-0.7-1.7-2.1c0-1.3,0.7-2.1,1.7-2.1
		c0.6,0,0.9,0.3,1,0.4v-0.3h0.7v3.9c0,1.3-0.8,1.8-1.9,1.8L9.7,48.4z M11.3,46.2v-1.9c-0.2-0.3-0.6-0.5-0.9-0.5
		c-0.7,0-1.1,0.5-1.1,1.5c0,0.9,0.5,1.5,1.1,1.5C10.7,46.7,11.1,46.5,11.3,46.2z"/>
	<path d="M13.1,45.2c0-1.4,0.7-2.1,1.8-2.1c0.9,0,1.7,0.6,1.7,1.9c0,0.1,0,0.3,0,0.5h-2.8c0.1,0.8,0.5,1.2,1.1,1.2
		c0.3,0,0.6-0.1,0.9-0.4l0.4,0.5c-0.3,0.3-0.8,0.5-1.3,0.5C13.8,47.4,13.1,46.5,13.1,45.2z M15.9,44.9c0-0.9-0.6-1.2-1-1.2
		c-0.6,0-1.1,0.4-1.1,1.2H15.9z"/>
	<path d="M20.1,44.8c0-0.8-0.4-1.1-0.9-1.1s-0.9,0.3-0.9,1.1v2.5h-0.7v-4.1h0.7v0.4c0.3-0.4,0.6-0.5,1.1-0.5c0.9,0,1.5,0.5,1.5,1.8
		v2.4h-0.7L20.1,44.8L20.1,44.8z"/>
	<path d="M21.9,45.2c0-1.3,0.7-2.1,1.7-2.1c0.5,0,0.8,0.2,1,0.4v-1.6l0.7-0.3v5.8h-0.7V47c-0.2,0.2-0.5,0.4-1,0.4
		C22.5,47.4,21.9,46.6,21.9,45.2z M24.6,46.2v-1.9c-0.2-0.2-0.5-0.5-0.9-0.5c-0.7,0-1.1,0.5-1.1,1.5c0,0.8,0.4,1.5,1.1,1.5
		C24,46.7,24.4,46.5,24.6,46.2z"/>
	<path d="M26.6,43.2h0.7v0.5c0.2-0.4,0.6-0.6,1-0.6c0.2,0,0.4,0.1,0.6,0.2L28.8,44c-0.1-0.1-0.3-0.2-0.6-0.2c-0.4,0-0.9,0.3-0.9,1.2
		v2.3h-0.7V43.2z"/>
	<path d="M29.5,45.2c0-1.4,0.7-2.1,1.8-2.1c0.9,0,1.7,0.6,1.7,1.9c0,0.1,0,0.3,0,0.5h-2.8c0.1,0.8,0.5,1.2,1.1,1.2
		c0.3,0,0.6-0.1,0.9-0.4l0.4,0.5c-0.3,0.3-0.8,0.5-1.3,0.5C30.2,47.4,29.5,46.5,29.5,45.2z M32.3,44.9c0-0.9-0.6-1.2-1-1.2
		c-0.6,0-1.1,0.4-1.1,1.2H32.3z"/>
	<path d="M34,42c0-0.2,0.2-0.4,0.4-0.4c0.2,0,0.4,0.2,0.4,0.4s-0.2,0.4-0.4,0.4C34.2,42.5,34,42.3,34,42z M34.1,43.2h0.7v4.1h-0.7
		V43.2z"/>
	<path d="M35.8,46.7l0.5-0.4c0.2,0.2,0.6,0.5,1,0.5s0.8-0.2,0.8-0.5c0-0.4-0.5-0.6-0.9-0.8c-0.8-0.3-1.3-0.6-1.3-1.3
		s0.6-1.1,1.4-1.1c0.6,0,1.1,0.3,1.4,0.6l-0.5,0.4c-0.2-0.2-0.5-0.4-0.9-0.4s-0.7,0.2-0.7,0.5s0.4,0.5,0.9,0.7
		c0.7,0.3,1.3,0.6,1.3,1.4c0,0.7-0.6,1.2-1.5,1.2C36.7,47.4,36.1,47.1,35.8,46.7z"/>
	<path d="M39.6,45.2c0-1.4,0.7-2.1,1.8-2.1c0.9,0,1.7,0.6,1.7,1.9c0,0.1,0,0.3,0,0.5h-2.8c0.1,0.8,0.5,1.2,1.1,1.2
		c0.3,0,0.6-0.1,0.9-0.4l0.4,0.5c-0.3,0.3-0.8,0.5-1.3,0.5C40.3,47.4,39.6,46.5,39.6,45.2z M42.4,44.9c0-0.9-0.6-1.2-1-1.2
		c-0.6,0-1.1,0.4-1.1,1.2H42.4z"/>
	<path d="M44.2,44.6h1.9v0.7h-1.9V44.6z"/>
	<path d="M51.7,46.9c-0.3,0.4-0.6,0.5-1,0.5c-1,0-1.5-0.5-1.5-1.8v-2.4h0.7v2.5c0,0.8,0.4,1.1,0.9,1.1s0.9-0.3,0.9-1.1v-2.5h0.7v4.1
		h-0.7V46.9z"/>
	<path d="M56.2,44.8c0-0.8-0.4-1.1-0.9-1.1s-0.9,0.3-0.9,1.1v2.5h-0.7v-4.1h0.7v0.4c0.3-0.4,0.6-0.5,1.1-0.5c0.9,0,1.5,0.5,1.5,1.8
		v2.4h-0.7L56.2,44.8L56.2,44.8z"/>
	<path d="M58,45.2c0-1.3,0.7-2.1,1.7-2.1c0.5,0,0.8,0.2,1,0.4v-1.6l0.7-0.3v5.8h-0.7V47c-0.2,0.2-0.5,0.4-1,0.4
		C58.6,47.4,58,46.6,58,45.2z M60.7,46.2v-1.9c-0.2-0.2-0.5-0.5-0.9-0.5c-0.7,0-1.1,0.5-1.1,1.5c0,0.8,0.4,1.5,1.1,1.5
		C60.1,46.7,60.5,46.5,60.7,46.2z"/>
	<path d="M67.4,45.9h-2.2l-0.5,1.4H64l2-5.6h0.6l2,5.6h-0.7L67.4,45.9z M66.5,43.2c-0.1-0.2-0.1-0.4-0.2-0.6c0,0.1-0.1,0.4-0.2,0.6
		l-0.7,2.1h1.8L66.5,43.2z"/>
	<path d="M72.1,46.9c-0.3,0.4-0.6,0.5-1,0.5c-1,0-1.5-0.5-1.5-1.8v-2.4h0.7v2.5c0,0.8,0.4,1.1,0.9,1.1s0.9-0.3,0.9-1.1v-2.5h0.7v4.1
		h-0.7V46.9z"/>
	<path d="M73.9,46.7l0.5-0.4c0.2,0.2,0.6,0.5,1,0.5s0.8-0.2,0.8-0.5c0-0.4-0.5-0.6-0.9-0.8c-0.8-0.3-1.3-0.6-1.3-1.3
		s0.6-1.1,1.4-1.1c0.6,0,1.1,0.3,1.4,0.6l-0.5,0.4c-0.2-0.2-0.5-0.4-0.9-0.4s-0.7,0.2-0.7,0.5s0.4,0.5,0.9,0.7
		c0.7,0.3,1.3,0.6,1.3,1.4c0,0.7-0.6,1.2-1.5,1.2C74.7,47.4,74.2,47.1,73.9,46.7z"/>
	<path d="M78.1,46.4v-2.6h-0.7v-0.6h0.7v-1.4l0.7-0.3v1.7h1v0.6h-1v2.4c0,0.3,0.1,0.6,0.4,0.6c0.2,0,0.4-0.1,0.6-0.2l-0.1,0.7
		c-0.2,0.1-0.5,0.2-0.8,0.2C78.4,47.4,78.1,47,78.1,46.4z"/>
	<path d="M83.1,46.9c-0.3,0.3-0.7,0.5-1.2,0.5c-0.8,0-1.4-0.5-1.4-1.4s0.7-1.4,1.5-1.4c0.4,0,0.7,0.1,1.1,0.3v-0.3
		c0-0.7-0.4-0.9-0.9-0.9s-0.9,0.2-1.2,0.4l-0.2-0.6c0.3-0.2,0.9-0.4,1.5-0.4s1.5,0.2,1.5,1.5v2.7h-0.7
		C83.1,47.3,83.1,46.9,83.1,46.9z M83.1,46.2v-0.7c-0.2-0.2-0.6-0.3-1-0.3c-0.5,0-1,0.2-1,0.8c0,0.5,0.3,0.8,0.9,0.8
		C82.5,46.8,82.9,46.5,83.1,46.2z"/>
	<path d="M87.5,46.9c-0.3,0.4-0.6,0.5-1,0.5c-1,0-1.5-0.5-1.5-1.8v-2.4h0.7v2.5c0,0.8,0.4,1.1,0.9,1.1s0.9-0.3,0.9-1.1v-2.5h0.7v4.1
		h-0.7V46.9z"/>
	<path d="M89.2,46.7l0.5-0.4c0.2,0.2,0.6,0.5,1,0.5s0.8-0.2,0.8-0.5c0-0.4-0.5-0.6-0.9-0.8c-0.8-0.3-1.3-0.6-1.3-1.3
		s0.6-1.1,1.4-1.1c0.6,0,1.1,0.3,1.4,0.6l-0.5,0.4c-0.2-0.2-0.5-0.4-0.9-0.4S90,43.9,90,44.2s0.4,0.5,0.9,0.7
		c0.7,0.3,1.3,0.6,1.3,1.4c0,0.7-0.6,1.2-1.5,1.2C90.1,47.4,89.5,47.1,89.2,46.7z"/>
	<path d="M93,45.2c0-1.3,0.7-2.1,1.7-2.1c0.7,0,1.2,0.3,1.4,1l-0.7,0.2c-0.1-0.3-0.4-0.5-0.8-0.5c-0.7,0-1,0.6-1,1.5s0.3,1.5,1,1.5
		c0.4,0,0.7-0.2,0.8-0.6l0.6,0.2c-0.2,0.7-0.7,1-1.5,1C93.7,47.4,93,46.6,93,45.2z"/>
	<path d="M97.3,41.8l0.7-0.3v2.1c0.3-0.4,0.6-0.5,1.1-0.5c0.9,0,1.5,0.5,1.5,1.8v2.4h-0.7v-2.5c0-0.8-0.4-1.1-0.9-1.1
		s-0.9,0.3-0.9,1.1v2.5h-0.7L97.3,41.8L97.3,41.8z"/>
	<path d="M101.2,43.2h0.7l1,2.7c0,0.1,0.1,0.3,0.1,0.4c0-0.1,0.1-0.3,0.1-0.4l1-2.7h0.7l-1.5,4.1h-0.6L101.2,43.2z"/>
	<path d="M105.5,45.2c0-1.4,0.7-2.1,1.8-2.1c0.9,0,1.7,0.6,1.7,1.9c0,0.1,0,0.3,0,0.5h-2.8c0.1,0.8,0.5,1.2,1.1,1.2
		c0.3,0,0.6-0.1,0.9-0.4l0.4,0.5c-0.3,0.3-0.8,0.5-1.3,0.5C106.2,47.4,105.5,46.5,105.5,45.2z M108.3,44.9c0-0.9-0.6-1.2-1-1.2
		c-0.6,0-1.1,0.4-1.1,1.2H108.3z"/>
	<path d="M110,43.2h0.7v0.5c0.2-0.4,0.6-0.6,1-0.6c0.2,0,0.4,0.1,0.6,0.2l-0.1,0.7c-0.1-0.1-0.3-0.2-0.6-0.2c-0.4,0-0.9,0.3-0.9,1.2
		v2.3H110V43.2z"/>
	<path d="M113.9,46.9v0.4h-0.7v-5.4l0.7-0.3v2c0.2-0.3,0.6-0.4,1-0.4c1,0,1.7,0.8,1.7,2.1c0,1.4-0.6,2.1-1.7,2.1
		C114.4,47.4,114.1,47.2,113.9,46.9z M115.9,45.2c0-1-0.4-1.5-1.1-1.5c-0.5,0-0.8,0.3-1,0.5v1.9c0.2,0.3,0.6,0.6,1,0.6
		C115.6,46.7,115.9,46.2,115.9,45.2z"/>
	<path d="M120,46.9c-0.3,0.3-0.7,0.5-1.2,0.5c-0.8,0-1.4-0.5-1.4-1.4s0.7-1.4,1.5-1.4c0.4,0,0.7,0.1,1.1,0.3v-0.3
		c0-0.7-0.4-0.9-0.9-0.9s-0.9,0.2-1.2,0.4l-0.2-0.6c0.3-0.2,0.9-0.4,1.5-0.4s1.5,0.2,1.5,1.5v2.7H120L120,46.9L120,46.9z
		 M118.1,42.1c0-0.2,0.2-0.4,0.4-0.4s0.4,0.2,0.4,0.4s-0.2,0.4-0.4,0.4S118.1,42.3,118.1,42.1z M120,46.2v-0.7
		c-0.2-0.2-0.6-0.3-1-0.3c-0.5,0-1,0.2-1,0.8c0,0.5,0.3,0.8,0.9,0.8C119.4,46.8,119.8,46.5,120,46.2z M119.5,42.1
		c0-0.2,0.2-0.4,0.4-0.4s0.4,0.2,0.4,0.4s-0.2,0.4-0.4,0.4C119.7,42.5,119.5,42.3,119.5,42.1z"/>
	<path d="M124.4,44.8c0-0.8-0.4-1.1-0.9-1.1s-0.9,0.3-0.9,1.1v2.5h-0.7v-4.1h0.7v0.4c0.3-0.4,0.6-0.5,1.1-0.5c0.9,0,1.5,0.5,1.5,1.8
		v2.4h-0.7v-2.5H124.4z"/>
	<path d="M126.2,45.2c0-1.3,0.7-2.1,1.7-2.1c0.5,0,0.8,0.2,1,0.4v-1.6l0.7-0.3v5.8h-0.7V47c-0.2,0.2-0.5,0.4-1,0.4
		C126.8,47.4,126.2,46.6,126.2,45.2z M128.9,46.2v-1.9c-0.2-0.2-0.5-0.5-0.9-0.5c-0.7,0-1.1,0.5-1.1,1.5c0,0.8,0.4,1.5,1.1,1.5
		C128.3,46.7,128.7,46.5,128.9,46.2z"/>
	<path d="M130.7,45.2c0-1.4,0.7-2.1,1.8-2.1c0.9,0,1.7,0.6,1.7,1.9c0,0.1,0,0.3,0,0.5h-2.8c0.1,0.8,0.5,1.2,1.1,1.2
		c0.3,0,0.6-0.1,0.9-0.4l0.4,0.5c-0.3,0.3-0.8,0.5-1.3,0.5C131.4,47.4,130.7,46.5,130.7,45.2z M133.5,44.9c0-0.9-0.6-1.2-1-1.2
		c-0.6,0-1.1,0.4-1.1,1.2H133.5z"/>
</g>
<g>
	<path d="M-0.5,65l0.6-0.3c0.2,0.4,0.5,0.6,1,0.6s1.1-0.2,1.1-1.3v-3.8h0.7V64c0,1.5-1,1.9-1.8,1.9C0.3,66-0.2,65.6-0.5,65z"/>
	<path d="M6.8,65.5c-0.3,0.4-0.6,0.5-1,0.5c-1,0-1.5-0.5-1.5-1.8v-2.4H5v2.5c0,0.8,0.4,1.1,0.9,1.1s0.9-0.3,0.9-1.1v-2.5h0.7v4.1
		H6.8V65.5z"/>
	<path d="M9.7,67c1.3-0.1,1.6-0.5,1.6-1v-0.5c-0.2,0.3-0.6,0.5-1.1,0.5c-0.9,0-1.7-0.7-1.7-2.1c0-1.3,0.7-2.1,1.7-2.1
		c0.6,0,0.9,0.3,1,0.4v-0.3h0.7v3.9c0,1.3-0.8,1.8-1.9,1.8L9.7,67z M11.3,64.8v-1.9c-0.2-0.3-0.6-0.5-0.9-0.5
		c-0.7,0-1.1,0.5-1.1,1.5c0,0.9,0.5,1.5,1.1,1.5C10.7,65.3,11.1,65.1,11.3,64.8z"/>
	<path d="M13.1,63.8c0-1.4,0.7-2.1,1.8-2.1c0.9,0,1.7,0.6,1.7,1.9c0,0.1,0,0.3,0,0.5h-2.8c0.1,0.8,0.5,1.2,1.1,1.2
		c0.3,0,0.6-0.1,0.9-0.4l0.4,0.5c-0.3,0.3-0.8,0.5-1.3,0.5C13.8,66,13.1,65.1,13.1,63.8z M15.9,63.5c0-0.9-0.6-1.2-1-1.2
		c-0.6,0-1.1,0.4-1.1,1.2H15.9z"/>
	<path d="M20.1,63.4c0-0.8-0.4-1.1-0.9-1.1s-0.9,0.3-0.9,1.1v2.5h-0.7v-4.1h0.7v0.4c0.3-0.4,0.6-0.5,1.1-0.5c0.9,0,1.5,0.5,1.5,1.8
		v2.4h-0.7L20.1,63.4L20.1,63.4z"/>
	<path d="M21.9,63.8c0-1.3,0.7-2.1,1.7-2.1c0.5,0,0.8,0.2,1,0.4v-1.6l0.7-0.3V66h-0.7v-0.3c-0.2,0.2-0.5,0.4-1,0.4
		C22.5,66,21.9,65.2,21.9,63.8z M24.6,64.8v-1.9c-0.2-0.2-0.5-0.5-0.9-0.5c-0.7,0-1.1,0.5-1.1,1.5c0,0.8,0.4,1.5,1.1,1.5
		C24,65.3,24.4,65.1,24.6,64.8z"/>
	<path d="M26.4,63.9c0-1.3,0.7-2.1,1.8-2.1s1.8,0.8,1.8,2.1c0,1.3-0.7,2.1-1.8,2.1S26.4,65.2,26.4,63.9z M29.3,63.8
		c0-0.9-0.4-1.5-1.1-1.5c-0.7,0-1.1,0.6-1.1,1.5c0,0.9,0.4,1.5,1.1,1.5S29.3,64.8,29.3,63.8z"/>
	<path d="M31.1,61.8h0.7v0.5c0.2-0.4,0.6-0.6,1-0.6c0.2,0,0.4,0.1,0.6,0.2l-0.1,0.7c-0.1-0.1-0.3-0.2-0.6-0.2
		c-0.4,0-0.9,0.3-0.9,1.2v2.3h-0.7V61.8z"/>
	<path d="M35.1,67c1.3-0.1,1.6-0.5,1.6-1v-0.5c-0.2,0.3-0.6,0.5-1.1,0.5c-0.9,0-1.7-0.7-1.7-2.1c0-1.3,0.7-2.1,1.7-2.1
		c0.6,0,0.9,0.3,1,0.4v-0.3h0.7v3.9c0,1.3-0.8,1.8-1.9,1.8L35.1,67z M36.7,64.8v-1.9c-0.2-0.3-0.6-0.5-0.9-0.5
		c-0.7,0-1.1,0.5-1.1,1.5c0,0.9,0.5,1.5,1.1,1.5C36.1,65.3,36.5,65.1,36.7,64.8z"/>
	<path d="M41.1,65.5c-0.3,0.3-0.7,0.5-1.2,0.5c-0.8,0-1.4-0.5-1.4-1.4s0.7-1.4,1.5-1.4c0.4,0,0.7,0.1,1.1,0.3v-0.3
		c0-0.7-0.4-0.9-0.9-0.9s-0.9,0.2-1.2,0.4l-0.2-0.6c0.3-0.2,0.9-0.4,1.5-0.4s1.5,0.2,1.5,1.5v2.7h-0.7
		C41.1,65.9,41.1,65.5,41.1,65.5z M41.1,64.8v-0.7c-0.2-0.2-0.6-0.3-1-0.3c-0.5,0-1,0.2-1,0.8c0,0.5,0.3,0.8,0.9,0.8
		C40.5,65.4,40.8,65.1,41.1,64.8z"/>
	<path d="M45.5,63.4c0-0.8-0.4-1.1-0.9-1.1s-0.9,0.3-0.9,1.1v2.5H43v-4.1h0.6v0.4c0.3-0.4,0.6-0.5,1.1-0.5c0.9,0,1.5,0.5,1.5,1.8
		v2.4h-0.7V63.4z"/>
	<path d="M47.4,60.6c0-0.2,0.2-0.4,0.4-0.4c0.2,0,0.4,0.2,0.4,0.4S48,61,47.8,61C47.6,61.1,47.4,60.9,47.4,60.6z M47.5,61.8h0.7v4.1
		h-0.7V61.8z"/>
	<path d="M49.2,65.3l0.5-0.4c0.2,0.2,0.6,0.5,1,0.5s0.8-0.2,0.8-0.5c0-0.4-0.5-0.6-0.9-0.8c-0.8-0.3-1.3-0.6-1.3-1.3
		s0.6-1.1,1.4-1.1c0.6,0,1.1,0.3,1.4,0.6l-0.5,0.4c-0.2-0.2-0.5-0.4-0.9-0.4S50,62.5,50,62.8s0.4,0.5,0.9,0.7
		c0.7,0.3,1.3,0.6,1.3,1.4c0,0.7-0.6,1.2-1.5,1.2C50.1,66,49.5,65.7,49.2,65.3z"/>
	<path d="M55.6,65.5c-0.3,0.3-0.7,0.5-1.2,0.5c-0.8,0-1.4-0.5-1.4-1.4s0.7-1.4,1.5-1.4c0.4,0,0.7,0.1,1.1,0.3v-0.3
		c0-0.7-0.4-0.9-0.9-0.9s-0.9,0.2-1.2,0.4l-0.2-0.6c0.3-0.2,0.9-0.4,1.5-0.4s1.5,0.2,1.5,1.5v2.7h-0.7V65.5z M55.6,64.8v-0.7
		c-0.2-0.2-0.6-0.3-1-0.3c-0.5,0-1,0.2-1,0.8c0,0.5,0.3,0.8,0.9,0.8C55,65.4,55.3,65.1,55.6,64.8z"/>
	<path d="M57.7,65v-2.6H57v-0.6h0.7v-1.4l0.7-0.3v1.7h1v0.6h-1v2.4c0,0.3,0.1,0.6,0.4,0.6c0.2,0,0.4-0.1,0.6-0.2l-0.1,0.7
		c-0.2,0.1-0.5,0.2-0.8,0.2C57.9,66,57.7,65.6,57.7,65z"/>
	<path d="M60.3,60.6c0-0.2,0.2-0.4,0.4-0.4c0.2,0,0.4,0.2,0.4,0.4S60.9,61,60.7,61C60.5,61.1,60.3,60.9,60.3,60.6z M60.4,61.8h0.7
		v4.1h-0.7V61.8z"/>
	<path d="M62.2,63.9c0-1.3,0.7-2.1,1.8-2.1c1.1,0,1.8,0.8,1.8,2.1c0,1.3-0.7,2.1-1.8,2.1C62.9,66,62.2,65.2,62.2,63.9z M65.1,63.8
		c0-0.9-0.4-1.5-1.1-1.5s-1.1,0.6-1.1,1.5c0,0.9,0.4,1.5,1.1,1.5S65.1,64.8,65.1,63.8z"/>
	<path d="M69.4,63.4c0-0.8-0.4-1.1-0.9-1.1s-0.9,0.3-0.9,1.1v2.5h-0.7v-4.1h0.7v0.4c0.3-0.4,0.6-0.5,1.1-0.5c0.9,0,1.5,0.5,1.5,1.8
		v2.4h-0.7L69.4,63.4L69.4,63.4z"/>
	<path d="M73,63.8c0-1.3,0.7-2.1,1.7-2.1c0.5,0,0.8,0.2,1,0.4v-1.6l0.7-0.3V66h-0.7v-0.3c-0.2,0.2-0.5,0.4-1,0.4
		C73.7,66,73,65.2,73,63.8z M75.7,64.8v-1.9c-0.2-0.2-0.5-0.5-0.9-0.5c-0.7,0-1.1,0.5-1.1,1.5c0,0.8,0.4,1.5,1.1,1.5
		C75.2,65.3,75.5,65.1,75.7,64.8z"/>
	<path d="M77.5,63.8c0-1.4,0.7-2.1,1.8-2.1c0.9,0,1.7,0.6,1.7,1.9c0,0.1,0,0.3,0,0.5h-2.8c0.1,0.8,0.5,1.2,1.1,1.2
		c0.3,0,0.6-0.1,0.9-0.4l0.4,0.5c-0.3,0.3-0.8,0.5-1.3,0.5C78.2,66,77.5,65.1,77.5,63.8z M80.3,63.5c0-0.9-0.6-1.2-1-1.2
		c-0.6,0-1.1,0.4-1.1,1.2H80.3z"/>
	<path d="M82.1,61.8h0.7v0.5c0.2-0.4,0.6-0.6,1-0.6c0.2,0,0.4,0.1,0.6,0.2l-0.1,0.7c-0.1-0.1-0.3-0.2-0.6-0.2
		c-0.4,0-0.9,0.3-0.9,1.2v2.3h-0.7V61.8z"/>
	<path d="M90.5,63.3h-2.6v2.6h-0.7v-5.6h0.7v2.4h2.6v-2.4h0.7v5.6h-0.7V63.3z"/>
	<path d="M92.6,60.6c0-0.2,0.2-0.4,0.4-0.4c0.2,0,0.4,0.2,0.4,0.4S93.2,61,93,61C92.8,61.1,92.6,60.9,92.6,60.6z M92.7,61.8h0.7v4.1
		h-0.7V61.8z"/>
	<path d="M94.7,60.5l0.7-0.3V66h-0.7V60.5z"/>
	<path d="M97.7,65.9H97v-3.5h-0.6v-0.6H97v-0.7c0-0.7,0.4-0.9,0.9-0.9c0.3,0,0.6,0.1,0.8,0.2V61c-0.2-0.1-0.4-0.2-0.6-0.2
		c-0.3,0-0.4,0.2-0.4,0.4v0.6h1v0.6h-1C97.7,62.4,97.7,65.9,97.7,65.9z"/>
	<path d="M99,65.3l0.5-0.4c0.2,0.2,0.6,0.5,1,0.5s0.8-0.2,0.8-0.5c0-0.4-0.5-0.6-0.9-0.8c-0.8-0.3-1.3-0.6-1.3-1.3s0.6-1.1,1.4-1.1
		c0.6,0,1.1,0.3,1.4,0.6l-0.5,0.4c-0.2-0.2-0.5-0.4-0.9-0.4s-0.7,0.2-0.7,0.5s0.4,0.5,0.9,0.7c0.7,0.3,1.3,0.6,1.3,1.4
		c0,0.7-0.6,1.2-1.5,1.2C99.9,66,99.3,65.7,99,65.3z"/>
	<path d="M102.7,61.8h0.7l0.6,2.7c0,0.2,0.1,0.3,0.1,0.4c0-0.1,0.1-0.3,0.1-0.4l0.8-2.7h0.6l0.8,2.7l0.1,0.4c0-0.1,0.1-0.3,0.1-0.4
		l0.6-2.7h0.7l-1,4.1h-0.6l-0.7-2.4c0-0.2-0.1-0.4-0.2-0.5c0,0.2-0.1,0.4-0.1,0.5l-0.7,2.4H104L102.7,61.8z"/>
	<path d="M108.4,63.8c0-1.4,0.7-2.1,1.8-2.1c0.9,0,1.7,0.6,1.7,1.9c0,0.1,0,0.3,0,0.5h-2.8c0.1,0.8,0.5,1.2,1.1,1.2
		c0.3,0,0.6-0.1,0.9-0.4l0.4,0.5c-0.3,0.3-0.8,0.5-1.3,0.5C109.1,66,108.4,65.1,108.4,63.8z M111.2,63.5c0-0.9-0.6-1.2-1-1.2
		c-0.6,0-1.1,0.4-1.1,1.2H111.2z"/>
	<path d="M113,61.8h0.7v0.5c0.2-0.4,0.6-0.6,1-0.6c0.2,0,0.4,0.1,0.6,0.2l-0.1,0.7c-0.1-0.1-0.3-0.2-0.6-0.2c-0.4,0-0.9,0.3-0.9,1.2
		v2.3H113V61.8z"/>
	<path d="M118.7,65.9l-1.3-2.5l-0.6,0.6v1.8h-0.7v-5.4l0.7-0.3v3.1l1.3-1.4h0.8l-1.1,1.1l1.5,3C119.3,65.9,118.7,65.9,118.7,65.9z"
		/>
	<path d="M120,63.8c0-1.4,0.7-2.1,1.8-2.1c0.9,0,1.7,0.6,1.7,1.9c0,0.1,0,0.3,0,0.5h-2.8c0.1,0.8,0.5,1.2,1.1,1.2
		c0.3,0,0.6-0.1,0.9-0.4l0.4,0.5c-0.3,0.3-0.8,0.5-1.3,0.5C120.7,66,120,65.1,120,63.8z M122.8,63.5c0-0.9-0.6-1.2-1-1.2
		c-0.6,0-1.1,0.4-1.1,1.2H122.8z"/>
</g>
<g>
	<path d="M-0.5,83l0.6-0.3c0.2,0.4,0.5,0.6,1,0.6s1.1-0.2,1.1-1.3v-3.8h0.7V82c0,1.5-1,1.9-1.8,1.9C0.3,84-0.2,83.7-0.5,83z"/>
	<path d="M6.8,83.5c-0.3,0.4-0.6,0.5-1,0.5c-1,0-1.5-0.5-1.5-1.8v-2.4H5v2.5c0,0.8,0.4,1.1,0.9,1.1s0.9-0.3,0.9-1.1v-2.5h0.7v4.1
		H6.8V83.5z"/>
	<path d="M9.7,85c1.3-0.1,1.6-0.5,1.6-1v-0.5c-0.2,0.3-0.6,0.5-1.1,0.5c-0.9,0-1.7-0.7-1.7-2.1c0-1.3,0.7-2.1,1.7-2.1
		c0.6,0,0.9,0.3,1,0.4v-0.3h0.7v3.9c0,1.3-0.8,1.8-1.9,1.8L9.7,85z M11.3,82.8v-1.9c-0.2-0.3-0.6-0.5-0.9-0.5
		c-0.7,0-1.1,0.5-1.1,1.5c0,0.9,0.5,1.5,1.1,1.5C10.7,83.4,11.1,83.2,11.3,82.8z"/>
	<path d="M13.1,81.9c0-1.4,0.7-2.1,1.8-2.1c0.9,0,1.7,0.6,1.7,1.9c0,0.1,0,0.3,0,0.5h-2.8c0.1,0.8,0.5,1.2,1.1,1.2
		c0.3,0,0.6-0.1,0.9-0.4l0.4,0.5c-0.3,0.3-0.8,0.5-1.3,0.5C13.8,84,13.1,83.1,13.1,81.9z M15.9,81.6c0-0.9-0.6-1.2-1-1.2
		c-0.6,0-1.1,0.4-1.1,1.2H15.9z"/>
	<path d="M20.1,81.4c0-0.8-0.4-1.1-0.9-1.1s-0.9,0.3-0.9,1.1v2.5h-0.7v-4.1h0.7v0.4c0.3-0.4,0.6-0.5,1.1-0.5c0.9,0,1.5,0.5,1.5,1.8
		v2.4h-0.7L20.1,81.4L20.1,81.4z"/>
	<path d="M21.9,81.9c0-1.3,0.7-2.1,1.7-2.1c0.5,0,0.8,0.2,1,0.4v-1.6l0.7-0.3v5.8h-0.7v-0.3c-0.2,0.2-0.5,0.4-1,0.4
		C22.5,84,21.9,83.2,21.9,81.9z M24.6,82.8v-1.9c-0.2-0.2-0.5-0.5-0.9-0.5c-0.7,0-1.1,0.5-1.1,1.5c0,0.8,0.4,1.5,1.1,1.5
		C24,83.4,24.4,83.2,24.6,82.8z"/>
	<path d="M26.4,81.9c0-1.3,0.7-2.1,1.8-2.1s1.8,0.8,1.8,2.1c0,1.3-0.7,2.1-1.8,2.1S26.4,83.2,26.4,81.9z M29.3,81.9
		c0-0.9-0.4-1.5-1.1-1.5c-0.7,0-1.1,0.6-1.1,1.5s0.4,1.5,1.1,1.5S29.3,82.8,29.3,81.9z"/>
	<path d="M31.1,79.8h0.7v0.5c0.2-0.4,0.6-0.6,1-0.6c0.2,0,0.4,0.1,0.6,0.2l-0.1,0.7c-0.1-0.1-0.3-0.2-0.6-0.2
		c-0.4,0-0.9,0.3-0.9,1.2v2.3h-0.7V79.8z"/>
	<path d="M35.1,85c1.3-0.1,1.6-0.5,1.6-1v-0.5c-0.2,0.3-0.6,0.5-1.1,0.5c-0.9,0-1.7-0.7-1.7-2.1c0-1.3,0.7-2.1,1.7-2.1
		c0.6,0,0.9,0.3,1,0.4v-0.3h0.7v3.9c0,1.3-0.8,1.8-1.9,1.8L35.1,85z M36.7,82.8v-1.9c-0.2-0.3-0.6-0.5-0.9-0.5
		c-0.7,0-1.1,0.5-1.1,1.5c0,0.9,0.5,1.5,1.1,1.5C36.1,83.4,36.5,83.2,36.7,82.8z"/>
	<path d="M41.1,83.5c-0.3,0.3-0.7,0.5-1.2,0.5c-0.8,0-1.4-0.5-1.4-1.4s0.7-1.4,1.5-1.4c0.4,0,0.7,0.1,1.1,0.3v-0.3
		c0-0.7-0.4-0.9-0.9-0.9s-0.9,0.2-1.2,0.4l-0.2-0.6c0.3-0.2,0.9-0.4,1.5-0.4s1.5,0.2,1.5,1.5v2.7h-0.7
		C41.1,83.9,41.1,83.5,41.1,83.5z M41.1,82.9v-0.7c-0.2-0.2-0.6-0.3-1-0.3c-0.5,0-1,0.2-1,0.8c0,0.5,0.3,0.8,0.9,0.8
		C40.5,83.4,40.8,83.1,41.1,82.9z"/>
	<path d="M45.5,81.4c0-0.8-0.4-1.1-0.9-1.1s-0.9,0.3-0.9,1.1v2.5H43v-4.1h0.6v0.4c0.3-0.4,0.6-0.5,1.1-0.5c0.9,0,1.5,0.5,1.5,1.8
		v2.4h-0.7V81.4z"/>
	<path d="M47.4,78.7c0-0.2,0.2-0.4,0.4-0.4c0.2,0,0.4,0.2,0.4,0.4c0,0.2-0.2,0.4-0.4,0.4S47.4,78.9,47.4,78.7z M47.5,79.8h0.7v4.1
		h-0.7V79.8z"/>
	<path d="M49.2,83.3l0.5-0.4c0.2,0.2,0.6,0.5,1,0.5s0.8-0.2,0.8-0.5c0-0.4-0.5-0.6-0.9-0.8c-0.8-0.3-1.3-0.6-1.3-1.3
		c0-0.7,0.6-1.1,1.4-1.1c0.6,0,1.1,0.3,1.4,0.6l-0.5,0.4c-0.2-0.2-0.5-0.4-0.9-0.4S50,80.5,50,80.8s0.4,0.5,0.9,0.7
		c0.7,0.3,1.3,0.6,1.3,1.4c0,0.7-0.6,1.2-1.5,1.2C50.1,84,49.5,83.7,49.2,83.3z"/>
	<path d="M55.6,83.5c-0.3,0.3-0.7,0.5-1.2,0.5c-0.8,0-1.4-0.5-1.4-1.4s0.7-1.4,1.5-1.4c0.4,0,0.7,0.1,1.1,0.3v-0.3
		c0-0.7-0.4-0.9-0.9-0.9s-0.9,0.2-1.2,0.4l-0.2-0.6c0.3-0.2,0.9-0.4,1.5-0.4s1.5,0.2,1.5,1.5v2.7h-0.7V83.5z M55.6,82.9v-0.7
		c-0.2-0.2-0.6-0.3-1-0.3c-0.5,0-1,0.2-1,0.8c0,0.5,0.3,0.8,0.9,0.8C55,83.4,55.3,83.1,55.6,82.9z"/>
	<path d="M57.7,83v-2.6H57v-0.6h0.7v-1.4l0.7-0.3v1.7h1v0.6h-1v2.4c0,0.3,0.1,0.6,0.4,0.6c0.2,0,0.4-0.1,0.6-0.2l-0.1,0.7
		c-0.2,0.1-0.5,0.2-0.8,0.2C57.9,84,57.7,83.6,57.7,83z"/>
	<path d="M60.3,78.7c0-0.2,0.2-0.4,0.4-0.4c0.2,0,0.4,0.2,0.4,0.4c0,0.2-0.2,0.4-0.4,0.4C60.5,79.1,60.3,78.9,60.3,78.7z M60.4,79.8
		h0.7v4.1h-0.7V79.8z"/>
	<path d="M62.2,81.9c0-1.3,0.7-2.1,1.8-2.1c1.1,0,1.8,0.8,1.8,2.1c0,1.3-0.7,2.1-1.8,2.1C62.9,84,62.2,83.2,62.2,81.9z M65.1,81.9
		c0-0.9-0.4-1.5-1.1-1.5s-1.1,0.6-1.1,1.5s0.4,1.5,1.1,1.5S65.1,82.8,65.1,81.9z"/>
	<path d="M69.4,81.4c0-0.8-0.4-1.1-0.9-1.1s-0.9,0.3-0.9,1.1v2.5h-0.7v-4.1h0.7v0.4c0.3-0.4,0.6-0.5,1.1-0.5c0.9,0,1.5,0.5,1.5,1.8
		v2.4h-0.7L69.4,81.4L69.4,81.4z"/>
	<path d="M71.2,81.9c0-1.4,0.7-2.1,1.8-2.1c0.9,0,1.7,0.6,1.7,1.9c0,0.1,0,0.3,0,0.5h-2.8c0.1,0.8,0.5,1.2,1.1,1.2
		c0.3,0,0.6-0.1,0.9-0.4l0.4,0.5C74,83.8,73.6,84,73,84C71.9,84,71.2,83.1,71.2,81.9z M74,81.6c0-0.9-0.6-1.2-1-1.2
		c-0.6,0-1.1,0.4-1.1,1.2H74z"/>
	<path d="M78.2,81.4c0-0.8-0.4-1.1-0.9-1.1s-0.9,0.3-0.9,1.1v2.5h-0.7v-4.1h0.7v0.4c0.3-0.4,0.6-0.5,1.1-0.5c0.9,0,1.5,0.5,1.5,1.8
		v2.4h-0.7L78.2,81.4L78.2,81.4z"/>
	<path d="M81.8,81.9c0-1.3,0.7-2.1,1.7-2.1c0.5,0,0.8,0.2,1,0.4v-1.6l0.7-0.3v5.8h-0.6v-0.3c-0.2,0.2-0.5,0.4-1,0.4
		C82.5,84,81.8,83.2,81.8,81.9z M84.6,82.8v-1.9c-0.2-0.2-0.5-0.5-0.9-0.5c-0.7,0-1.1,0.5-1.1,1.5c0,0.8,0.4,1.5,1.1,1.5
		C84,83.4,84.3,83.2,84.6,82.8z"/>
	<path d="M86.3,81.9c0-1.4,0.7-2.1,1.8-2.1c0.9,0,1.7,0.6,1.7,1.9c0,0.1,0,0.3,0,0.5H87c0.1,0.8,0.5,1.2,1.1,1.2
		c0.3,0,0.6-0.1,0.9-0.4l0.4,0.5c-0.3,0.3-0.8,0.5-1.3,0.5C87,84,86.3,83.1,86.3,81.9z M89.1,81.6c0-0.9-0.6-1.2-1-1.2
		c-0.6,0-1.1,0.4-1.1,1.2H89.1z"/>
	<path d="M90.9,79.8h0.7v0.5c0.2-0.4,0.6-0.6,1-0.6c0.2,0,0.4,0.1,0.6,0.2l-0.1,0.7c-0.1-0.1-0.3-0.2-0.6-0.2
		c-0.4,0-0.9,0.3-0.9,1.2v2.3h-0.7V79.8z"/>
	<path d="M95.5,78.3h0.7l0.7,3.6c0,0.2,0.1,0.4,0.1,0.6c0-0.2,0.1-0.3,0.2-0.6l1-3.7h0.6l1,3.6c0.1,0.2,0.1,0.4,0.1,0.5
		c0-0.2,0.1-0.3,0.1-0.6l0.8-3.6h0.7l-1.2,5.6h-0.7l-1.1-3.8c-0.1-0.2-0.1-0.4-0.1-0.6c0,0.2-0.1,0.3-0.1,0.6l-1.1,3.8h-0.6
		L95.5,78.3z"/>
	<path d="M102.4,78.7c0-0.2,0.2-0.4,0.4-0.4c0.2,0,0.4,0.2,0.4,0.4c0,0.2-0.2,0.4-0.4,0.4C102.5,79.1,102.4,78.9,102.4,78.7z
		 M102.4,79.8h0.7v4.1h-0.7V79.8z"/>
	<path d="M104.5,79.8h0.7v0.5c0.2-0.4,0.6-0.6,1-0.6c0.2,0,0.4,0.1,0.6,0.2l-0.1,0.7c-0.1-0.1-0.3-0.2-0.6-0.2
		c-0.4,0-0.9,0.3-0.9,1.2v2.3h-0.7V79.8z"/>
	<path d="M108,83v-2.6h-0.7v-0.6h0.7v-1.4l0.7-0.3v1.7h1v0.6h-1v2.4c0,0.3,0.1,0.6,0.4,0.6c0.2,0,0.4-0.1,0.6-0.2l-0.1,0.7
		c-0.2,0.1-0.5,0.2-0.8,0.2C108.2,84,108,83.6,108,83z"/>
	<path d="M110.5,83.3l0.5-0.4c0.2,0.2,0.6,0.5,1,0.5s0.8-0.2,0.8-0.5c0-0.4-0.5-0.6-0.9-0.8c-0.8-0.3-1.3-0.6-1.3-1.3
		c0-0.7,0.6-1.1,1.4-1.1c0.6,0,1.1,0.3,1.4,0.6l-0.5,0.4c-0.2-0.2-0.5-0.4-0.9-0.4s-0.7,0.2-0.7,0.5s0.4,0.5,0.9,0.7
		c0.7,0.3,1.3,0.6,1.3,1.4c0,0.7-0.6,1.2-1.5,1.2C111.4,84,110.8,83.7,110.5,83.3z"/>
	<path d="M114.3,81.9c0-1.3,0.7-2.1,1.7-2.1c0.7,0,1.2,0.3,1.4,1l-0.7,0.2c-0.1-0.3-0.4-0.5-0.8-0.5c-0.7,0-1,0.6-1,1.5
		s0.3,1.5,1,1.5c0.4,0,0.7-0.2,0.8-0.6l0.6,0.2c-0.2,0.7-0.7,1-1.5,1C114.9,84,114.3,83.2,114.3,81.9z"/>
	<path d="M118.5,78.5l0.7-0.3v2.1c0.3-0.4,0.6-0.5,1.1-0.5c0.9,0,1.5,0.5,1.5,1.8V84h-0.7v-2.5c0-0.8-0.4-1.1-0.9-1.1
		s-0.9,0.3-0.9,1.1V84h-0.7v-5.5H118.5z"/>
	<path d="M125.3,83.5c-0.3,0.3-0.7,0.5-1.2,0.5c-0.8,0-1.4-0.5-1.4-1.4s0.7-1.4,1.5-1.4c0.4,0,0.7,0.1,1.1,0.3v-0.3
		c0-0.7-0.4-0.9-0.9-0.9s-0.9,0.2-1.2,0.4l-0.2-0.6c0.3-0.2,0.9-0.4,1.5-0.4s1.5,0.2,1.5,1.5v2.7h-0.7L125.3,83.5L125.3,83.5z
		 M125.3,82.9v-0.7c-0.2-0.2-0.6-0.3-1-0.3c-0.5,0-1,0.2-1,0.8c0,0.5,0.3,0.8,0.9,0.8C124.7,83.4,125.1,83.1,125.3,82.9z"/>
	<path d="M128.1,83.9h-0.7v-3.5h-0.6v-0.6h0.6v-0.7c0-0.7,0.4-0.9,0.9-0.9c0.3,0,0.6,0.1,0.8,0.2V79c-0.2-0.1-0.4-0.2-0.6-0.2
		c-0.3,0-0.4,0.2-0.4,0.4v0.6h1v0.6h-1V83.9z"/>
	<path d="M130.2,83v-2.6h-0.7v-0.6h0.7v-1.4l0.7-0.3v1.7h1v0.6h-1v2.4c0,0.3,0.1,0.6,0.4,0.6c0.2,0,0.4-0.1,0.6-0.2l-0.1,0.7
		c-0.2,0.1-0.5,0.2-0.8,0.2C130.4,84,130.2,83.6,130.2,83z"/>
</g>
<g>
	<path d="M1.7,98.7l-1,1.2v1.9H0v-5.6h0.7v2.7l2.2-2.7h0.8l-1.5,1.9l2,3.7H3.4L1.7,98.7z"/>
	<path d="M5.1,96.5c0-0.2,0.2-0.4,0.4-0.4c0.2,0,0.4,0.2,0.4,0.4c0,0.2-0.2,0.4-0.4,0.4S5.1,96.7,5.1,96.5z M5.2,97.7h0.7v4.1H5.2
		V97.7z"/>
	<path d="M9.8,99.3c0-0.8-0.4-1.1-0.9-1.1S8,98.5,8,99.3v2.5H7.3v-4.1H8v0.4c0.3-0.4,0.6-0.5,1.1-0.5c0.9,0,1.5,0.5,1.5,1.8v2.4H9.9
		v-2.5H9.8z"/>
	<path d="M11.5,99.7c0-1.3,0.7-2.1,1.7-2.1c0.5,0,0.8,0.2,1,0.4v-1.6l0.7-0.3v5.8h-0.7v-0.3c-0.2,0.2-0.5,0.4-1,0.4
		C12.1,101.8,11.5,101,11.5,99.7z M14.2,100.6v-1.9c-0.2-0.2-0.5-0.5-0.9-0.5c-0.7,0-1.1,0.5-1.1,1.5c0,0.8,0.4,1.5,1.1,1.5
		C13.7,101.2,14,101,14.2,100.6z"/>
	<path d="M16,99.7c0-1.4,0.7-2.1,1.8-2.1c0.9,0,1.7,0.6,1.7,1.9c0,0.1,0,0.3,0,0.5h-2.8c0.1,0.8,0.5,1.2,1.1,1.2
		c0.3,0,0.6-0.1,0.9-0.4l0.4,0.5c-0.3,0.3-0.8,0.5-1.3,0.5C16.7,101.8,16,101,16,99.7z M18.8,99.4c0-0.9-0.6-1.2-1-1.2
		c-0.6,0-1.1,0.4-1.1,1.2H18.8z"/>
	<path d="M20.5,97.7h0.7v0.5c0.2-0.4,0.6-0.6,1-0.6c0.2,0,0.4,0.1,0.6,0.2l-0.1,0.7c-0.1-0.1-0.3-0.2-0.6-0.2
		c-0.4,0-0.9,0.3-0.9,1.2v2.3h-0.7V97.7z"/>
	<path d="M23.5,99h1.9v0.7h-1.9V99z"/>
	<path d="M31.1,101.4c-0.3,0.4-0.6,0.5-1,0.5c-1,0-1.5-0.5-1.5-1.8v-2.4h0.7v2.5c0,0.8,0.4,1.1,0.9,1.1s0.9-0.3,0.9-1.1v-2.5h0.7
		v4.1h-0.7C31.1,101.8,31.1,101.4,31.1,101.4z"/>
	<path d="M35.6,99.3c0-0.8-0.4-1.1-0.9-1.1s-0.9,0.3-0.9,1.1v2.5h-0.7v-4.1h0.7v0.4c0.3-0.4,0.6-0.5,1.1-0.5c0.9,0,1.5,0.5,1.5,1.8
		v2.4h-0.8V99.3z"/>
	<path d="M37.3,99.7c0-1.3,0.7-2.1,1.7-2.1c0.5,0,0.8,0.2,1,0.4v-1.6l0.7-0.3v5.8H40v-0.3c-0.2,0.2-0.5,0.4-1,0.4
		C38,101.8,37.3,101,37.3,99.7z M40.1,100.6v-1.9c-0.2-0.2-0.5-0.5-0.9-0.5c-0.7,0-1.1,0.5-1.1,1.5c0,0.8,0.4,1.5,1.1,1.5
		C39.5,101.2,39.9,101,40.1,100.6z"/>
	<path d="M43.5,100.8l0.6-0.3c0.2,0.4,0.5,0.6,1,0.6s1.1-0.2,1.1-1.3V96h0.7v3.8c0,1.5-1,1.9-1.8,1.9
		C44.3,101.8,43.8,101.5,43.5,100.8z"/>
	<path d="M50.8,101.4c-0.3,0.4-0.6,0.5-1,0.5c-1,0-1.5-0.5-1.5-1.8v-2.4H49v2.5c0,0.8,0.4,1.1,0.9,1.1s0.9-0.3,0.9-1.1v-2.5h0.7v4.1
		h-0.7V101.4z"/>
	<path d="M53.7,102.9c1.3-0.1,1.6-0.5,1.6-1v-0.5c-0.2,0.3-0.6,0.5-1.1,0.5c-0.9,0-1.7-0.7-1.7-2.1c0-1.3,0.7-2.1,1.7-2.1
		c0.6,0,0.9,0.3,1,0.4v-0.3h0.7v3.9c0,1.3-0.8,1.8-1.9,1.8L53.7,102.9z M55.3,100.6v-1.9c-0.2-0.3-0.6-0.5-0.9-0.5
		c-0.7,0-1.1,0.5-1.1,1.5c0,0.9,0.5,1.5,1.1,1.5C54.7,101.2,55.1,101,55.3,100.6z"/>
	<path d="M57.1,99.7c0-1.4,0.7-2.1,1.8-2.1c0.9,0,1.7,0.6,1.7,1.9c0,0.1,0,0.3,0,0.5h-2.8c0.1,0.8,0.5,1.2,1.1,1.2
		c0.3,0,0.6-0.1,0.9-0.4l0.4,0.5c-0.3,0.3-0.8,0.5-1.3,0.5C57.8,101.8,57.1,101,57.1,99.7z M59.9,99.4c0-0.9-0.6-1.2-1-1.2
		c-0.6,0-1.1,0.4-1.1,1.2H59.9z"/>
	<path d="M64.1,99.3c0-0.8-0.4-1.1-0.9-1.1s-0.9,0.3-0.9,1.1v2.5h-0.7v-4.1h0.7v0.4c0.3-0.4,0.6-0.5,1.1-0.5c0.9,0,1.5,0.5,1.5,1.8
		v2.4h-0.7L64.1,99.3L64.1,99.3z"/>
	<path d="M65.9,99.7c0-1.3,0.7-2.1,1.7-2.1c0.5,0,0.8,0.2,1,0.4v-1.6l0.7-0.3v5.8h-0.7v-0.3c-0.2,0.2-0.5,0.4-1,0.4
		C66.5,101.8,65.9,101,65.9,99.7z M68.6,100.6v-1.9c-0.2-0.2-0.5-0.5-0.9-0.5c-0.7,0-1.1,0.5-1.1,1.5c0,0.8,0.4,1.5,1.1,1.5
		C68,101.2,68.4,101,68.6,100.6z"/>
	<path d="M71.5,101.8h-0.7v-3.5h-0.6v-0.6h0.6V97c0-0.7,0.4-0.9,0.9-0.9c0.3,0,0.6,0.1,0.8,0.2v0.6c-0.2-0.1-0.4-0.2-0.6-0.2
		c-0.3,0-0.4,0.2-0.4,0.4v0.6h1v0.6h-1C71.5,98.3,71.5,101.8,71.5,101.8z"/>
	<path d="M73.3,97.7H74v0.5c0.2-0.4,0.6-0.6,1-0.6c0.2,0,0.4,0.1,0.6,0.2l-0.1,0.7c-0.1-0.1-0.3-0.2-0.6-0.2c-0.4,0-0.9,0.3-0.9,1.2
		v2.3h-0.7V97.7z"/>
	<path d="M76.2,99.7c0-1.4,0.7-2.1,1.8-2.1c0.9,0,1.7,0.6,1.7,1.9c0,0.1,0,0.3,0,0.5h-2.8c0.1,0.8,0.5,1.2,1.1,1.2
		c0.3,0,0.6-0.1,0.9-0.4l0.4,0.5c-0.3,0.3-0.8,0.5-1.3,0.5C76.9,101.8,76.2,101,76.2,99.7z M79,99.4c0-0.9-0.6-1.2-1-1.2
		c-0.6,0-1.1,0.4-1.1,1.2H79z"/>
	<path d="M80.7,96.5c0-0.2,0.2-0.4,0.4-0.4c0.2,0,0.4,0.2,0.4,0.4c0,0.2-0.2,0.4-0.4,0.4C80.8,96.9,80.7,96.7,80.7,96.5z M80.7,97.7
		h0.7v4.1h-0.7V97.7z"/>
	<path d="M82.6,101.2l2.1-3h-2v-0.6h2.8v0.5l-2.1,3h2.1v0.6h-3L82.6,101.2L82.6,101.2z"/>
	<path d="M86.6,99.7c0-1.4,0.7-2.1,1.8-2.1c0.9,0,1.7,0.6,1.7,1.9c0,0.1,0,0.3,0,0.5h-2.8c0.1,0.8,0.5,1.2,1.1,1.2
		c0.3,0,0.6-0.1,0.9-0.4l0.4,0.5c-0.3,0.3-0.8,0.5-1.3,0.5C87.3,101.8,86.6,101,86.6,99.7z M89.4,99.4c0-0.9-0.6-1.2-1-1.2
		c-0.6,0-1.1,0.4-1.1,1.2H89.4z"/>
	<path d="M91,96.5c0-0.2,0.2-0.4,0.4-0.4c0.2,0,0.4,0.2,0.4,0.4c0,0.2-0.2,0.4-0.4,0.4S91,96.7,91,96.5z M91.1,97.7h0.7v4.1h-0.7
		V97.7z"/>
	<path d="M93.4,100.9v-2.6h-0.7v-0.6h0.7v-1.4l0.7-0.3v1.7h1v0.6h-1v2.4c0,0.3,0.1,0.6,0.4,0.6c0.2,0,0.4-0.1,0.6-0.2l-0.1,0.7
		c-0.2,0.1-0.5,0.2-0.8,0.2C93.6,101.8,93.4,101.4,93.4,100.9z"/>
	<path d="M95.8,99.7c0-1.4,0.7-2.1,1.8-2.1c0.9,0,1.7,0.6,1.7,1.9c0,0.1,0,0.3,0,0.5h-2.8c0.1,0.8,0.5,1.2,1.1,1.2
		c0.3,0,0.6-0.1,0.9-0.4l0.4,0.5c-0.3,0.3-0.8,0.5-1.3,0.5C96.5,101.8,95.8,101,95.8,99.7z M98.6,99.4c0-0.9-0.6-1.2-1-1.2
		c-0.6,0-1.1,0.4-1.1,1.2H98.6z"/>
	<path d="M100.3,96.5c0-0.2,0.2-0.4,0.4-0.4c0.2,0,0.4,0.2,0.4,0.4c0,0.2-0.2,0.4-0.4,0.4C100.5,96.9,100.3,96.7,100.3,96.5z
		 M100.4,97.7h0.7v4.1h-0.7V97.7z"/>
	<path d="M104.9,99.3c0-0.8-0.4-1.1-0.9-1.1s-0.9,0.3-0.9,1.1v2.5h-0.7v-4.1h0.7v0.4c0.3-0.4,0.6-0.5,1.1-0.5c0.9,0,1.5,0.5,1.5,1.8
		v2.4H105L104.9,99.3L104.9,99.3z"/>
	<path d="M106.9,97.7h0.7v0.5c0.2-0.4,0.6-0.6,1-0.6c0.2,0,0.4,0.1,0.6,0.2l-0.1,0.7c-0.1-0.1-0.3-0.2-0.6-0.2
		c-0.4,0-0.9,0.3-0.9,1.2v2.3h-0.7C106.9,101.8,106.9,97.7,106.9,97.7z"/>
	<path d="M110,96.5c0-0.2,0.2-0.4,0.4-0.4s0.4,0.2,0.4,0.4c0,0.2-0.2,0.4-0.4,0.4C110.2,96.9,110,96.7,110,96.5z M110.1,97.7h0.7
		v4.1h-0.7V97.7z"/>
	<path d="M111.8,99.7c0-1.3,0.7-2.1,1.7-2.1c0.7,0,1.2,0.3,1.4,1l-0.7,0.2c-0.1-0.3-0.4-0.5-0.8-0.5c-0.7,0-1,0.6-1,1.5
		s0.3,1.5,1,1.5c0.4,0,0.7-0.2,0.8-0.6l0.6,0.2c-0.2,0.7-0.7,1-1.5,1C112.5,101.8,111.8,101.1,111.8,99.7z"/>
	<path d="M116.1,96.3l0.7-0.3v2.1c0.3-0.4,0.6-0.5,1.1-0.5c0.9,0,1.5,0.5,1.5,1.8v2.4h-0.8v-2.5c0-0.8-0.4-1.1-0.9-1.1
		s-0.9,0.3-0.9,1.1v2.5h-0.7L116.1,96.3L116.1,96.3z"/>
	<path d="M120.8,100.9v-2.6h-0.7v-0.6h0.7v-1.4l0.7-0.3v1.7h1v0.6h-1v2.4c0,0.3,0.1,0.6,0.4,0.6c0.2,0,0.4-0.1,0.6-0.2l-0.1,0.7
		c-0.2,0.1-0.5,0.2-0.8,0.2C121.1,101.8,120.8,101.4,120.8,100.9z"/>
	<path d="M125.9,101.4c-0.3,0.4-0.6,0.5-1,0.5c-1,0-1.5-0.5-1.5-1.8v-2.4h0.7v2.5c0,0.8,0.4,1.1,0.9,1.1s0.9-0.3,0.9-1.1v-2.5h0.7
		v4.1h-0.7L125.9,101.4L125.9,101.4z"/>
	<path d="M130.4,99.3c0-0.8-0.4-1.1-0.9-1.1s-0.9,0.3-0.9,1.1v2.5h-0.7v-4.1h0.7v0.4c0.3-0.4,0.6-0.5,1.1-0.5c0.9,0,1.5,0.5,1.5,1.8
		v2.4h-0.7v-2.5H130.4z"/>
	<path d="M133.3,102.9c1.3-0.1,1.6-0.5,1.6-1v-0.5c-0.2,0.3-0.6,0.5-1.1,0.5c-0.9,0-1.7-0.7-1.7-2.1c0-1.3,0.7-2.1,1.7-2.1
		c0.6,0,0.9,0.3,1,0.4v-0.3h0.7v3.9c0,1.3-0.8,1.8-1.9,1.8L133.3,102.9z M134.9,100.6v-1.9c-0.2-0.3-0.6-0.5-0.9-0.5
		c-0.7,0-1.1,0.5-1.1,1.5c0,0.9,0.5,1.5,1.1,1.5C134.3,101.2,134.7,101,134.9,100.6z"/>
</g>
<g>
	<path d="M0,113.7h2.1c1.4,0,1.8,0.8,1.8,1.7c0,0.8-0.5,1.7-1.8,1.7H0.7v2.2H0V113.7z M3.3,115.4c0-0.4-0.2-1-1.1-1H0.7v2.1h1.5
		C3,116.4,3.3,115.9,3.3,115.4z"/>
	<path d="M5.9,119.3H5.2v-3.5H4.6v-0.6h0.6v-0.7c0-0.7,0.4-0.9,0.9-0.9c0.3,0,0.6,0.1,0.8,0.2v0.6c-0.2-0.1-0.4-0.2-0.6-0.2
		c-0.3,0-0.4,0.2-0.4,0.4v0.6h1v0.6h-1V119.3z"/>
	<path d="M10,119c-0.3,0.3-0.7,0.5-1.2,0.5c-0.8,0-1.4-0.5-1.4-1.4s0.7-1.4,1.5-1.4c0.4,0,0.7,0.1,1.1,0.3v-0.3
		c0-0.7-0.4-0.9-0.9-0.9s-0.9,0.2-1.2,0.4l-0.2-0.6c0.3-0.2,0.9-0.4,1.5-0.4s1.5,0.2,1.5,1.5v2.7H10C10,119.4,10,119,10,119z
		 M10,118.3v-0.7c-0.2-0.2-0.6-0.3-1-0.3c-0.5,0-1,0.2-1,0.8c0,0.5,0.3,0.8,0.9,0.8C9.4,118.8,9.7,118.5,10,118.3z"/>
	<path d="M11.6,117.3c0-1.3,0.7-2.1,1.7-2.1c0.5,0,0.8,0.2,1,0.4V114l0.7-0.3v5.8h-0.7V119c-0.2,0.2-0.5,0.4-1,0.4
		C12.2,119.4,11.6,118.6,11.6,117.3z M14.3,118.2v-1.9c-0.2-0.2-0.5-0.5-0.9-0.5c-0.7,0-1.1,0.5-1.1,1.5c0,0.8,0.4,1.5,1.1,1.5
		C13.8,118.8,14.1,118.6,14.3,118.2z"/>
	<path d="M17.3,119.3h-0.7v-3.5H16v-0.6h0.6v-0.7c0-0.7,0.4-0.9,0.9-0.9c0.3,0,0.6,0.1,0.8,0.2v0.6c-0.2-0.1-0.4-0.2-0.6-0.2
		c-0.3,0-0.4,0.2-0.4,0.4v0.6h1v0.6h-1V119.3z M18.9,114.1c0-0.2,0.2-0.4,0.4-0.4s0.4,0.2,0.4,0.4c0,0.2-0.2,0.4-0.4,0.4
		S18.9,114.3,18.9,114.1z M19,115.2h0.7v4.1H19V115.2z"/>
	<path d="M23.5,116.9c0-0.8-0.4-1.1-0.9-1.1s-0.9,0.3-0.9,1.1v2.5H21v-4.1h0.7v0.4c0.3-0.4,0.6-0.5,1.1-0.5c0.9,0,1.5,0.5,1.5,1.8
		v2.4h-0.7L23.5,116.9L23.5,116.9z"/>
	<path d="M25.3,117.3c0-1.3,0.7-2.1,1.7-2.1c0.5,0,0.8,0.2,1,0.4V114l0.7-0.3v5.8H28V119c-0.2,0.2-0.5,0.4-1,0.4
		C25.9,119.4,25.3,118.6,25.3,117.3z M28,118.2v-1.9c-0.2-0.2-0.5-0.5-0.9-0.5c-0.7,0-1.1,0.5-1.1,1.5c0,0.8,0.4,1.5,1.1,1.5
		C27.5,118.8,27.8,118.6,28,118.2z"/>
	<path d="M29.8,117.3c0-1.4,0.7-2.1,1.8-2.1c0.9,0,1.7,0.6,1.7,1.9c0,0.1,0,0.3,0,0.5h-2.8c0.1,0.8,0.5,1.2,1.1,1.2
		c0.3,0,0.6-0.1,0.9-0.4l0.4,0.5c-0.3,0.3-0.8,0.5-1.3,0.5C30.5,119.4,29.8,118.5,29.8,117.3z M32.6,117c0-0.9-0.6-1.2-1-1.2
		c-0.6,0-1.1,0.4-1.1,1.2H32.6z"/>
	<path d="M34.3,115.2H35v0.5c0.2-0.4,0.6-0.6,1-0.6c0.2,0,0.4,0.1,0.6,0.2l-0.1,0.7c-0.1-0.1-0.3-0.2-0.6-0.2
		c-0.4,0-0.9,0.3-0.9,1.2v2.3h-0.7V115.2z"/>
	<path d="M37.3,117.3c0-1.3,0.7-2.1,1.8-2.1s1.8,0.8,1.8,2.1c0,1.3-0.7,2.1-1.8,2.1S37.3,118.6,37.3,117.3z M40.2,117.3
		c0-0.9-0.4-1.5-1.1-1.5s-1.1,0.6-1.1,1.5s0.4,1.5,1.1,1.5C39.7,118.8,40.2,118.2,40.2,117.3z"/>
	<path d="M42,115.2h0.7v0.5c0.2-0.4,0.6-0.6,1-0.6c0.2,0,0.4,0.1,0.6,0.2l-0.1,0.7c-0.1-0.1-0.3-0.2-0.6-0.2c-0.4,0-0.9,0.3-0.9,1.2
		v2.3H42C42,119.3,42,115.2,42,115.2z"/>
	<path d="M46,120.4c1.3-0.1,1.6-0.5,1.6-1v-0.5c-0.2,0.3-0.6,0.5-1.1,0.5c-0.9,0-1.7-0.7-1.7-2.1c0-1.3,0.7-2.1,1.7-2.1
		c0.6,0,0.9,0.3,1,0.4v-0.3h0.7v3.9c0,1.3-0.8,1.8-1.9,1.8L46,120.4z M47.6,118.2v-1.9c-0.2-0.3-0.6-0.5-0.9-0.5
		c-0.7,0-1.1,0.5-1.1,1.5c0,0.9,0.5,1.5,1.1,1.5C47,118.8,47.4,118.6,47.6,118.2z"/>
	<path d="M52,119c-0.3,0.3-0.7,0.5-1.2,0.5c-0.8,0-1.4-0.5-1.4-1.4s0.7-1.4,1.5-1.4c0.4,0,0.7,0.1,1.1,0.3v-0.3
		c0-0.7-0.4-0.9-0.9-0.9s-0.9,0.2-1.2,0.4l-0.2-0.6c0.3-0.2,0.9-0.4,1.5-0.4s1.5,0.2,1.5,1.5v2.7H52C52,119.4,52,119,52,119z
		 M52,118.3v-0.7c-0.2-0.2-0.6-0.3-1-0.3c-0.5,0-1,0.2-1,0.8c0,0.5,0.3,0.8,0.9,0.8C51.4,118.8,51.7,118.5,52,118.3z"/>
	<path d="M56.3,116.9c0-0.8-0.4-1.1-0.9-1.1s-0.9,0.3-0.9,1.1v2.5h-0.7v-4.1h0.7v0.4c0.3-0.4,0.6-0.5,1.1-0.5c0.9,0,1.5,0.5,1.5,1.8
		v2.4h-0.7L56.3,116.9L56.3,116.9z"/>
	<path d="M58.3,114.1c0-0.2,0.2-0.4,0.4-0.4c0.2,0,0.4,0.2,0.4,0.4c0,0.2-0.2,0.4-0.4,0.4C58.4,114.5,58.3,114.3,58.3,114.1z
		 M58.3,115.2H59v4.1h-0.7V115.2z"/>
	<path d="M60.1,118.7l0.5-0.4c0.2,0.2,0.6,0.5,1,0.5s0.8-0.2,0.8-0.5c0-0.4-0.5-0.6-0.9-0.8c-0.8-0.3-1.3-0.6-1.3-1.3
		c0-0.7,0.6-1.1,1.4-1.1c0.6,0,1.1,0.3,1.4,0.6l-0.5,0.4c-0.2-0.2-0.5-0.4-0.9-0.4s-0.7,0.2-0.7,0.5s0.4,0.5,0.9,0.7
		c0.7,0.3,1.3,0.6,1.3,1.4c0,0.7-0.6,1.2-1.5,1.2C61,119.4,60.4,119.1,60.1,118.7z"/>
	<path d="M66.5,119c-0.3,0.3-0.7,0.5-1.2,0.5c-0.8,0-1.4-0.5-1.4-1.4s0.7-1.4,1.5-1.4c0.4,0,0.7,0.1,1.1,0.3v-0.3
		c0-0.7-0.4-0.9-0.9-0.9s-0.9,0.2-1.2,0.4l-0.2-0.6c0.3-0.2,0.9-0.4,1.5-0.4s1.5,0.2,1.5,1.5v2.7h-0.7C66.5,119.4,66.5,119,66.5,119
		z M66.5,118.3v-0.7c-0.2-0.2-0.6-0.3-1-0.3c-0.5,0-1,0.2-1,0.8c0,0.5,0.3,0.8,0.9,0.8C65.9,118.8,66.2,118.5,66.5,118.3z"/>
	<path d="M68.6,118.4v-2.6h-0.7v-0.6h0.7v-1.4l0.7-0.3v1.7h1v0.6h-1v2.4c0,0.3,0.1,0.6,0.4,0.6c0.2,0,0.4-0.1,0.6-0.2l-0.1,0.7
		c-0.2,0.1-0.5,0.2-0.8,0.2C68.8,119.4,68.6,119,68.6,118.4z"/>
	<path d="M71.2,114.1c0-0.2,0.2-0.4,0.4-0.4c0.2,0,0.4,0.2,0.4,0.4c0,0.2-0.2,0.4-0.4,0.4C71.4,114.5,71.2,114.3,71.2,114.1z
		 M71.3,115.2H72v4.1h-0.7V115.2z"/>
	<path d="M73.1,117.3c0-1.3,0.7-2.1,1.8-2.1c1.1,0,1.8,0.8,1.8,2.1c0,1.3-0.7,2.1-1.8,2.1S73.1,118.6,73.1,117.3z M76,117.3
		c0-0.9-0.4-1.5-1.1-1.5s-1.1,0.6-1.1,1.5s0.4,1.5,1.1,1.5S76,118.2,76,117.3z"/>
	<path d="M80.3,116.9c0-0.8-0.4-1.1-0.9-1.1s-0.9,0.3-0.9,1.1v2.5h-0.7v-4.1h0.7v0.4c0.3-0.4,0.6-0.5,1.1-0.5c0.9,0,1.5,0.5,1.5,1.8
		v2.4h-0.7L80.3,116.9L80.3,116.9z"/>
	<path d="M82.1,117.3c0-1.4,0.7-2.1,1.8-2.1c0.9,0,1.7,0.6,1.7,1.9c0,0.1,0,0.3,0,0.5h-2.8c0.1,0.8,0.5,1.2,1.1,1.2
		c0.3,0,0.6-0.1,0.9-0.4l0.4,0.5c-0.3,0.3-0.8,0.5-1.3,0.5C82.8,119.4,82.1,118.5,82.1,117.3z M84.9,117c0-0.9-0.6-1.2-1-1.2
		c-0.6,0-1.1,0.4-1.1,1.2H84.9z"/>
	<path d="M89.1,116.9c0-0.8-0.4-1.1-0.9-1.1s-0.9,0.3-0.9,1.1v2.5h-0.7v-4.1h0.7v0.4c0.3-0.4,0.6-0.5,1.1-0.5c0.9,0,1.5,0.5,1.5,1.8
		v2.4h-0.7L89.1,116.9L89.1,116.9z"/>
</g>
<g>
	<path d="M0,132h2.2c1.3,0,1.8,0.8,1.8,1.6c0,0.7-0.4,1.4-1.3,1.6l1.2,2.4H3.1l-1.2-2.4H0.7v2.4H0V132z M2.3,134.5
		c0.8,0,1-0.5,1-0.9c0-0.4-0.2-1-1-1H0.8v1.9H2.3z"/>
	<path d="M5,135.5c0-1.4,0.7-2.1,1.8-2.1c0.9,0,1.7,0.6,1.7,1.9c0,0.1,0,0.3,0,0.5H5.7c0.1,0.8,0.5,1.2,1.1,1.2
		c0.3,0,0.6-0.1,0.9-0.4l0.4,0.5c-0.3,0.3-0.8,0.5-1.3,0.5C5.7,137.7,5,136.8,5,135.5z M7.8,135.2c0-0.9-0.6-1.2-1-1.2
		c-0.6,0-1.1,0.4-1.1,1.2H7.8z"/>
	<path d="M9.6,132.1l0.7-0.3v5.8H9.6V132.1z"/>
	<path d="M11.6,132.3c0-0.2,0.2-0.4,0.4-0.4s0.4,0.2,0.4,0.4s-0.2,0.4-0.4,0.4C11.8,132.7,11.6,132.5,11.6,132.3z M11.7,133.5h0.7
		v4.1h-0.7V133.5z"/>
	<path d="M14.6,138.7c1.3-0.1,1.6-0.5,1.6-1v-0.5c-0.2,0.3-0.6,0.5-1.1,0.5c-0.9,0-1.7-0.7-1.7-2.1c0-1.3,0.7-2.1,1.7-2.1
		c0.6,0,0.9,0.3,1,0.4v-0.3h0.7v3.9c0,1.3-0.8,1.8-1.9,1.8L14.6,138.7z M16.2,136.4v-1.9c-0.2-0.3-0.6-0.5-0.9-0.5
		c-0.7,0-1.1,0.5-1.1,1.5c0,0.9,0.5,1.5,1.1,1.5C15.6,137,16,136.8,16.2,136.4z"/>
	<path d="M18.1,132.3c0-0.2,0.2-0.4,0.4-0.4s0.4,0.2,0.4,0.4s-0.2,0.4-0.4,0.4C18.3,132.7,18.1,132.5,18.1,132.3z M18.2,133.5h0.7
		v4.1h-0.7V133.5z"/>
	<path d="M20,135.5c0-1.3,0.7-2.1,1.8-2.1s1.8,0.8,1.8,2.1c0,1.3-0.7,2.1-1.8,2.1C20.7,137.7,20,136.9,20,135.5z M20.7,132.3
		c0-0.2,0.2-0.4,0.4-0.4s0.4,0.2,0.4,0.4s-0.2,0.4-0.4,0.4C20.9,132.8,20.7,132.6,20.7,132.3z M22.9,135.5c0-0.9-0.4-1.5-1.1-1.5
		c-0.7,0-1.1,0.6-1.1,1.5c0,0.9,0.4,1.5,1.1,1.5C22.5,137,22.9,136.5,22.9,135.5z M22,132.3c0-0.2,0.2-0.4,0.4-0.4s0.4,0.2,0.4,0.4
		s-0.2,0.4-0.4,0.4C22.2,132.8,22,132.6,22,132.3z"/>
	<path d="M24.4,137l0.5-0.4c0.2,0.2,0.6,0.5,1,0.5s0.8-0.2,0.8-0.5c0-0.4-0.5-0.6-0.9-0.8c-0.8-0.3-1.3-0.6-1.3-1.3
		c0-0.7,0.6-1.1,1.4-1.1c0.6,0,1.1,0.3,1.4,0.6l-0.5,0.4c-0.2-0.2-0.5-0.4-0.9-0.4s-0.7,0.2-0.7,0.5s0.4,0.5,0.9,0.7
		c0.7,0.3,1.3,0.6,1.3,1.4c0,0.7-0.6,1.2-1.5,1.2C25.3,137.7,24.7,137.4,24.4,137z"/>
	<path d="M28.2,135.5c0-1.4,0.7-2.1,1.8-2.1c0.9,0,1.7,0.6,1.7,1.9c0,0.1,0,0.3,0,0.5h-2.8c0.1,0.8,0.5,1.2,1.1,1.2
		c0.3,0,0.6-0.1,0.9-0.4l0.4,0.5c-0.3,0.3-0.8,0.5-1.3,0.5C28.9,137.7,28.2,136.8,28.2,135.5z M31,135.2c0-0.9-0.6-1.2-1-1.2
		c-0.6,0-1.1,0.4-1.1,1.2H31z"/>
	<path d="M34.1,136.7l0.6-0.3c0.2,0.4,0.5,0.6,1,0.6s1.1-0.2,1.1-1.3V132h0.7v3.8c0,1.5-1,1.9-1.8,1.9
		C35,137.7,34.4,137.3,34.1,136.7z"/>
	<path d="M41.4,137.2c-0.3,0.4-0.6,0.5-1,0.5c-1,0-1.5-0.5-1.5-1.8v-2.4h0.7v2.5c0,0.8,0.4,1.1,0.9,1.1s0.9-0.3,0.9-1.1v-2.5h0.7
		v4.1h-0.7C41.4,137.6,41.4,137.2,41.4,137.2z"/>
	<path d="M44.4,138.7c1.3-0.1,1.6-0.5,1.6-1v-0.5c-0.2,0.3-0.6,0.5-1.1,0.5c-0.9,0-1.7-0.7-1.7-2.1c0-1.3,0.7-2.1,1.7-2.1
		c0.6,0,0.9,0.3,1,0.4v-0.3h0.7v3.9c0,1.3-0.8,1.8-1.9,1.8L44.4,138.7z M45.9,136.4v-1.9c-0.2-0.3-0.6-0.5-0.9-0.5
		c-0.7,0-1.1,0.5-1.1,1.5c0,0.9,0.5,1.5,1.1,1.5C45.4,137,45.7,136.8,45.9,136.4z"/>
	<path d="M47.7,135.5c0-1.4,0.7-2.1,1.8-2.1c0.9,0,1.7,0.6,1.7,1.9c0,0.1,0,0.3,0,0.5h-2.8c0.1,0.8,0.5,1.2,1.1,1.2
		c0.3,0,0.6-0.1,0.9-0.4l0.4,0.5c-0.3,0.3-0.8,0.5-1.3,0.5C48.4,137.7,47.7,136.8,47.7,135.5z M50.5,135.2c0-0.9-0.6-1.2-1-1.2
		c-0.6,0-1.1,0.4-1.1,1.2H50.5z"/>
	<path d="M54.8,135.1c0-0.8-0.4-1.1-0.9-1.1s-0.9,0.3-0.9,1.1v2.5h-0.7v-4.1H53v0.4c0.3-0.4,0.6-0.5,1.1-0.5c0.9,0,1.5,0.5,1.5,1.8
		v2.4h-0.7L54.8,135.1L54.8,135.1z"/>
	<path d="M56.5,135.5c0-1.3,0.7-2.1,1.7-2.1c0.5,0,0.8,0.2,1,0.4v-1.6l0.7-0.3v5.8h-0.7v-0.3c-0.2,0.2-0.5,0.4-1,0.4
		C57.2,137.7,56.5,136.8,56.5,135.5z M59.2,136.5v-1.9c-0.2-0.2-0.5-0.5-0.9-0.5c-0.7,0-1.1,0.5-1.1,1.5c0,0.8,0.4,1.5,1.1,1.5
		C58.7,137,59,136.8,59.2,136.5z"/>
	<path d="M61,135.5c0-1.3,0.7-2.1,1.8-2.1c1.1,0,1.8,0.8,1.8,2.1c0,1.3-0.7,2.1-1.8,2.1C61.7,137.7,61,136.9,61,135.5z M63.9,135.5
		c0-0.9-0.4-1.5-1.1-1.5s-1.1,0.6-1.1,1.5c0,0.9,0.4,1.5,1.1,1.5S63.9,136.5,63.9,135.5z"/>
	<path d="M65.7,133.5h0.7v0.5c0.2-0.4,0.6-0.6,1-0.6c0.2,0,0.4,0.1,0.6,0.2l-0.1,0.7c-0.1-0.1-0.3-0.2-0.6-0.2
		c-0.4,0-0.9,0.3-0.9,1.2v2.3h-0.7V133.5z"/>
	<path d="M69.8,138.7c1.3-0.1,1.6-0.5,1.6-1v-0.5c-0.2,0.3-0.6,0.5-1.1,0.5c-0.9,0-1.7-0.7-1.7-2.1c0-1.3,0.7-2.1,1.7-2.1
		c0.6,0,0.9,0.3,1,0.4v-0.3H72v3.9c0,1.3-0.8,1.8-1.9,1.8L69.8,138.7z M71.4,136.4v-1.9c-0.2-0.3-0.6-0.5-0.9-0.5
		c-0.7,0-1.1,0.5-1.1,1.5c0,0.9,0.5,1.5,1.1,1.5C70.8,137,71.2,136.8,71.4,136.4z"/>
	<path d="M75.7,137.2c-0.3,0.3-0.7,0.5-1.2,0.5c-0.8,0-1.4-0.5-1.4-1.4c0-0.9,0.7-1.4,1.5-1.4c0.4,0,0.7,0.1,1.1,0.3v-0.3
		c0-0.7-0.4-0.9-0.9-0.9s-0.9,0.2-1.2,0.4l-0.2-0.6c0.3-0.2,0.9-0.4,1.5-0.4s1.5,0.2,1.5,1.5v2.7h-0.7
		C75.7,137.6,75.7,137.2,75.7,137.2z M75.7,136.5v-0.7c-0.2-0.2-0.6-0.3-1-0.3c-0.5,0-1,0.2-1,0.8c0,0.5,0.3,0.8,0.9,0.8
		C75.1,137,75.5,136.8,75.7,136.5z"/>
	<path d="M80.1,135.1c0-0.8-0.4-1.1-0.9-1.1s-0.9,0.3-0.9,1.1v2.5h-0.7v-4.1h0.7v0.4c0.3-0.4,0.6-0.5,1.1-0.5c0.9,0,1.5,0.5,1.5,1.8
		v2.4h-0.7L80.1,135.1L80.1,135.1z"/>
	<path d="M82,132.3c0-0.2,0.2-0.4,0.4-0.4c0.2,0,0.4,0.2,0.4,0.4s-0.2,0.4-0.4,0.4C82.2,132.7,82,132.5,82,132.3z M82.1,133.5h0.7
		v4.1h-0.7V133.5z"/>
	<path d="M83.9,137l0.5-0.4c0.2,0.2,0.6,0.5,1,0.5s0.8-0.2,0.8-0.5c0-0.4-0.5-0.6-0.9-0.8c-0.8-0.3-1.3-0.6-1.3-1.3
		c0-0.7,0.6-1.1,1.4-1.1c0.6,0,1.1,0.3,1.4,0.6l-0.5,0.4c-0.2-0.2-0.5-0.4-0.9-0.4s-0.7,0.2-0.7,0.5s0.4,0.5,0.9,0.7
		c0.7,0.3,1.3,0.6,1.3,1.4c0,0.7-0.6,1.2-1.5,1.2C84.7,137.7,84.2,137.4,83.9,137z"/>
	<path d="M90.2,137.2c-0.3,0.3-0.7,0.5-1.2,0.5c-0.8,0-1.4-0.5-1.4-1.4c0-0.9,0.7-1.4,1.5-1.4c0.4,0,0.7,0.1,1.1,0.3v-0.3
		c0-0.7-0.4-0.9-0.9-0.9s-0.9,0.2-1.2,0.4l-0.2-0.6c0.3-0.2,0.9-0.4,1.5-0.4s1.5,0.2,1.5,1.5v2.7h-0.7
		C90.2,137.6,90.2,137.2,90.2,137.2z M90.2,136.5v-0.7c-0.2-0.2-0.6-0.3-1-0.3c-0.5,0-1,0.2-1,0.8c0,0.5,0.3,0.8,0.9,0.8
		C89.6,137,90,136.8,90.2,136.5z"/>
	<path d="M92.3,136.7v-2.6h-0.7v-0.6h0.7v-1.4l0.7-0.3v1.7h1v0.6h-1v2.4c0,0.3,0.1,0.6,0.4,0.6c0.2,0,0.4-0.1,0.6-0.2l-0.1,0.7
		c-0.2,0.1-0.5,0.2-0.8,0.2C92.6,137.7,92.3,137.3,92.3,136.7z"/>
	<path d="M95,132.3c0-0.2,0.2-0.4,0.4-0.4c0.2,0,0.4,0.2,0.4,0.4s-0.2,0.4-0.4,0.4C95.2,132.7,95,132.5,95,132.3z M95.1,133.5h0.7
		v4.1h-0.7V133.5z"/>
	<path d="M96.9,135.5c0-1.3,0.7-2.1,1.8-2.1c1.1,0,1.8,0.8,1.8,2.1c0,1.3-0.7,2.1-1.8,2.1C97.6,137.7,96.9,136.9,96.9,135.5z
		 M99.8,135.5c0-0.9-0.4-1.5-1.1-1.5s-1.1,0.6-1.1,1.5c0,0.9,0.4,1.5,1.1,1.5C99.4,137,99.8,136.5,99.8,135.5z"/>
	<path d="M104.1,135.1c0-0.8-0.4-1.1-0.9-1.1s-0.9,0.3-0.9,1.1v2.5h-0.7v-4.1h0.7v0.4c0.3-0.4,0.6-0.5,1.1-0.5
		c0.9,0,1.5,0.5,1.5,1.8v2.4h-0.7L104.1,135.1L104.1,135.1z"/>
	<path d="M105.9,135.5c0-1.4,0.7-2.1,1.8-2.1c0.9,0,1.7,0.6,1.7,1.9c0,0.1,0,0.3,0,0.5h-2.8c0.1,0.8,0.5,1.2,1.1,1.2
		c0.3,0,0.6-0.1,0.9-0.4l0.4,0.5c-0.3,0.3-0.8,0.5-1.3,0.5C106.5,137.7,105.9,136.8,105.9,135.5z M108.6,135.2c0-0.9-0.6-1.2-1-1.2
		c-0.6,0-1.1,0.4-1.1,1.2H108.6z"/>
	<path d="M112.9,135.1c0-0.8-0.4-1.1-0.9-1.1s-0.9,0.3-0.9,1.1v2.5h-0.7v-4.1h0.7v0.4c0.3-0.4,0.6-0.5,1.1-0.5
		c0.9,0,1.5,0.5,1.5,1.8v2.4H113v-2.5H112.9z"/>
</g>
<g>
	<path d="M1.9,155H1.2v-4.9h-1.6v-0.7h3.8v0.7H1.8v4.9H1.9z"/>
	<path d="M4.6,151h0.7v0.5c0.2-0.4,0.6-0.6,1-0.6c0.2,0,0.4,0.1,0.6,0.2l-0.1,0.7c-0.1-0.1-0.3-0.2-0.6-0.2c-0.4,0-0.9,0.3-0.9,1.2
		v2.3H4.6V151z"/>
	<path d="M9.9,154.7c-0.3,0.3-0.7,0.5-1.2,0.5c-0.8,0-1.4-0.5-1.4-1.4s0.7-1.4,1.5-1.4c0.4,0,0.7,0.1,1.1,0.3v-0.3
		c0-0.7-0.4-0.9-0.9-0.9s-0.9,0.2-1.2,0.4l-0.2-0.6c0.3-0.2,0.9-0.4,1.5-0.4s1.5,0.2,1.5,1.5v2.7H9.9C9.9,155.1,9.9,154.7,9.9,154.7
		z M8,149.8c0-0.2,0.2-0.4,0.4-0.4c0.2,0,0.4,0.2,0.4,0.4s-0.2,0.4-0.4,0.4C8.2,150.3,8,150.1,8,149.8z M9.9,154v-0.7
		c-0.2-0.2-0.6-0.3-1-0.3c-0.5,0-1,0.2-1,0.8c0,0.5,0.3,0.8,0.9,0.8C9.3,154.5,9.7,154.3,9.9,154z M9.4,149.8c0-0.2,0.2-0.4,0.4-0.4
		c0.2,0,0.4,0.2,0.4,0.4s-0.2,0.4-0.4,0.4C9.6,150.3,9.4,150.1,9.4,149.8z"/>
	<path d="M12.7,156.2c1.3-0.1,1.6-0.5,1.6-1v-0.5c-0.2,0.3-0.6,0.5-1.1,0.5c-0.9,0-1.7-0.7-1.7-2.1c0-1.3,0.7-2.1,1.7-2.1
		c0.6,0,0.9,0.3,1,0.4V151h0.7v3.9c0,1.3-0.8,1.8-1.9,1.8L12.7,156.2z M14.3,153.9V152c-0.2-0.3-0.6-0.5-0.9-0.5
		c-0.7,0-1.1,0.5-1.1,1.5c0,0.9,0.5,1.5,1.1,1.5C13.7,154.5,14.1,154.3,14.3,153.9z"/>
	<path d="M16.1,153c0-1.4,0.7-2.1,1.8-2.1c0.9,0,1.7,0.6,1.7,1.9c0,0.1,0,0.3,0,0.5h-2.8c0.1,0.8,0.5,1.2,1.1,1.2
		c0.3,0,0.6-0.1,0.9-0.4l0.4,0.5c-0.3,0.3-0.8,0.5-1.3,0.5C16.8,155.1,16.1,154.2,16.1,153z M18.9,152.7c0-0.9-0.6-1.2-1-1.2
		c-0.6,0-1.1,0.4-1.1,1.2H18.9z"/>
	<path d="M20.6,151h0.7v0.5c0.2-0.4,0.6-0.6,1-0.6c0.2,0,0.4,0.1,0.6,0.2l-0.1,0.7c-0.1-0.1-0.3-0.2-0.6-0.2c-0.4,0-0.9,0.3-0.9,1.2
		v2.3h-0.7V151z"/>
	<path d="M23.5,154.5l0.5-0.4c0.2,0.2,0.6,0.5,1,0.5s0.8-0.2,0.8-0.5c0-0.4-0.5-0.6-0.9-0.8c-0.8-0.3-1.3-0.6-1.3-1.3
		s0.6-1.1,1.4-1.1c0.6,0,1.1,0.3,1.4,0.6l-0.5,0.4c-0.2-0.2-0.5-0.4-0.9-0.4s-0.7,0.2-0.7,0.5s0.4,0.5,0.9,0.7
		c0.7,0.3,1.3,0.6,1.3,1.4c0,0.7-0.6,1.2-1.5,1.2C24.4,155.1,23.8,154.9,23.5,154.5z"/>
	<path d="M27.3,153c0-1.3,0.7-2.1,1.7-2.1c0.7,0,1.2,0.3,1.4,1l-0.7,0.2c-0.1-0.3-0.4-0.5-0.8-0.5c-0.7,0-1,0.6-1,1.5s0.3,1.5,1,1.5
		c0.4,0,0.7-0.2,0.8-0.6l0.6,0.2c-0.2,0.7-0.7,1-1.5,1C27.9,155.1,27.3,154.4,27.3,153z"/>
	<path d="M31.5,149.6l0.7-0.3v2.1c0.3-0.4,0.6-0.5,1.1-0.5c0.9,0,1.5,0.5,1.5,1.8v2.4h-0.7v-2.5c0-0.8-0.4-1.1-0.9-1.1
		s-0.9,0.3-0.9,1.1v2.5h-0.7L31.5,149.6L31.5,149.6z"/>
	<path d="M38.4,154.7c-0.3,0.3-0.7,0.5-1.2,0.5c-0.8,0-1.4-0.5-1.4-1.4s0.7-1.4,1.5-1.4c0.4,0,0.7,0.1,1.1,0.3v-0.3
		c0-0.7-0.4-0.9-0.9-0.9s-0.9,0.2-1.2,0.4l-0.2-0.6c0.3-0.2,0.9-0.4,1.5-0.4s1.5,0.2,1.5,1.5v2.7h-0.7
		C38.4,155.1,38.4,154.7,38.4,154.7z M38.4,154v-0.7c-0.2-0.2-0.6-0.3-1-0.3c-0.5,0-1,0.2-1,0.8c0,0.5,0.3,0.8,0.9,0.8
		C37.8,154.5,38.1,154.3,38.4,154z"/>
	<path d="M41.2,155h-0.7v-3.5h-0.6V151h0.6v-0.7c0-0.7,0.4-0.9,0.9-0.9c0.3,0,0.6,0.1,0.8,0.2v0.6c-0.2-0.1-0.4-0.2-0.6-0.2
		c-0.3,0-0.4,0.2-0.4,0.4v0.6h1v0.6h-1V155z"/>
	<path d="M43.2,154.2v-2.6h-0.7V151h0.7v-1.4l0.7-0.3v1.7h1v0.6h-1v2.4c0,0.3,0.1,0.6,0.4,0.6c0.2,0,0.4-0.1,0.6-0.2l-0.1,0.7
		c-0.2,0.1-0.5,0.2-0.8,0.2C43.4,155.1,43.2,154.7,43.2,154.2z"/>
	<path d="M45.6,153c0-1.4,0.7-2.1,1.8-2.1c0.9,0,1.7,0.6,1.7,1.9c0,0.1,0,0.3,0,0.5h-2.8c0.1,0.8,0.5,1.2,1.1,1.2
		c0.3,0,0.6-0.1,0.9-0.4l0.4,0.5c-0.3,0.3-0.8,0.5-1.3,0.5C46.3,155.1,45.6,154.2,45.6,153z M48.4,152.7c0-0.9-0.6-1.2-1-1.2
		c-0.6,0-1.1,0.4-1.1,1.2H48.4z"/>
	<path d="M52.7,152.6c0-0.8-0.4-1.1-0.9-1.1s-0.9,0.3-0.9,1.1v2.5h-0.7V151h0.7v0.4c0.3-0.4,0.6-0.5,1.1-0.5c0.9,0,1.5,0.5,1.5,1.8
		v2.4h-0.7L52.7,152.6L52.7,152.6z"/>
</g>
<g>
	<path d="M0,171.5V168h0.7v3.5c0,1.2,0.6,1.5,1.3,1.5s1.3-0.3,1.3-1.5V168H4v3.5c0,1.6-0.8,2.2-2,2.2C0.8,173.7,0,173.1,0,171.5z"/>
	<path d="M10.2,171.1c0-0.6-0.2-1.1-0.8-1.1c-0.5,0-0.9,0.4-0.9,1.1v2.5H7.8v-2.5c0-0.6-0.2-1.1-0.8-1.1c-0.5,0-0.9,0.4-0.9,1.1v2.5
		H5.4v-4.1h0.7v0.4c0.2-0.3,0.6-0.5,1.1-0.5c0.4,0,0.9,0.2,1.1,0.6c0.2-0.4,0.7-0.6,1.2-0.6c0.8,0,1.4,0.5,1.4,1.5v2.7h-0.7
		C10.2,173.6,10.2,171.1,10.2,171.1z"/>
	<path d="M11.8,169.5h0.7l0.6,2.7c0,0.2,0.1,0.3,0.1,0.4c0-0.1,0.1-0.3,0.1-0.4l0.8-2.7h0.5l0.8,2.7l0.1,0.4c0-0.1,0.1-0.3,0.1-0.4
		l0.6-2.7h0.7l-1,4.1h-0.6l-0.7-2.4c0-0.2-0.1-0.4-0.2-0.5c0,0.2-0.1,0.4-0.1,0.5l-0.7,2.4H13L11.8,169.5z"/>
	<path d="M17.5,171.5c0-1.4,0.7-2.1,1.8-2.1c0.9,0,1.7,0.6,1.7,1.9c0,0.1,0,0.3,0,0.5h-2.8c0.1,0.8,0.5,1.2,1.1,1.2
		c0.3,0,0.6-0.1,0.9-0.4l0.4,0.5c-0.3,0.3-0.8,0.5-1.3,0.5C18.2,173.7,17.5,172.8,17.5,171.5z M20.3,171.2c0-0.9-0.6-1.2-1-1.2
		c-0.6,0-1.1,0.4-1.1,1.2H20.3z"/>
	<path d="M22.1,168.1l0.7-0.3v5.8h-0.7V168.1z"/>
	<path d="M24.4,172.7v-2.6h-0.7v-0.6h0.7v-1.4l0.7-0.3v1.7h1v0.6h-1v2.4c0,0.3,0.1,0.6,0.4,0.6c0.2,0,0.4-0.1,0.6-0.2l-0.1,0.7
		c-0.2,0.1-0.5,0.2-0.8,0.2C24.7,173.7,24.4,173.3,24.4,172.7z"/>
	<path d="M27,170.8h1.9v0.7H27V170.8z"/>
	<path d="M34.5,173.2c-0.3,0.4-0.6,0.5-1,0.5c-1,0-1.5-0.5-1.5-1.8v-2.4h0.7v2.5c0,0.8,0.4,1.1,0.9,1.1s0.9-0.3,0.9-1.1v-2.5h0.7
		v4.1h-0.7C34.5,173.6,34.5,173.2,34.5,173.2z"/>
	<path d="M39.1,171.1c0-0.8-0.4-1.1-0.9-1.1s-0.9,0.3-0.9,1.1v2.5h-0.7v-4.1h0.7v0.4c0.3-0.4,0.6-0.5,1.1-0.5c0.9,0,1.5,0.5,1.5,1.8
		v2.4h-0.7L39.1,171.1L39.1,171.1z"/>
	<path d="M40.8,171.5c0-1.3,0.7-2.1,1.7-2.1c0.5,0,0.8,0.2,1,0.4v-1.6l0.7-0.3v5.8h-0.7v-0.3c-0.2,0.2-0.5,0.4-1,0.4
		C41.5,173.7,40.8,172.8,40.8,171.5z M43.5,172.5v-1.9c-0.2-0.2-0.5-0.5-0.9-0.5c-0.7,0-1.1,0.5-1.1,1.5c0,0.8,0.4,1.5,1.1,1.5
		C43,173,43.3,172.8,43.5,172.5z"/>
	<path d="M50.9,173.6l-2.5-4c-0.1-0.1-0.2-0.3-0.2-0.4c0,0.1,0,0.3,0,0.4v4h-0.7V168h0.7l2.5,4c0.1,0.1,0.2,0.3,0.2,0.4
		c0-0.1,0-0.3,0-0.4v-4h0.7v5.6H50.9z"/>
	<path d="M55.4,173.2c-0.3,0.3-0.7,0.5-1.2,0.5c-0.8,0-1.4-0.5-1.4-1.4s0.7-1.4,1.5-1.4c0.4,0,0.7,0.1,1.1,0.3v-0.3
		c0-0.7-0.4-0.9-0.9-0.9s-0.9,0.2-1.2,0.4l-0.2-0.6c0.3-0.2,0.9-0.4,1.5-0.4s1.5,0.2,1.5,1.5v2.7h-0.7
		C55.4,173.6,55.4,173.2,55.4,173.2z M55.4,172.5v-0.7c-0.2-0.2-0.6-0.3-1-0.3c-0.5,0-1,0.2-1,0.8c0,0.5,0.3,0.8,0.9,0.8
		C54.8,173,55.2,172.8,55.4,172.5z"/>
	<path d="M57.5,172.7v-2.6h-0.7v-0.6h0.7v-1.4l0.7-0.3v1.7h1v0.6h-1v2.4c0,0.3,0.1,0.6,0.4,0.6c0.2,0,0.4-0.1,0.6-0.2l-0.1,0.7
		c-0.2,0.1-0.5,0.2-0.8,0.2C57.7,173.7,57.5,173.3,57.5,172.7z"/>
	<path d="M62.5,173.2c-0.3,0.4-0.6,0.5-1,0.5c-1,0-1.5-0.5-1.5-1.8v-2.4h0.7v2.5c0,0.8,0.4,1.1,0.9,1.1s0.9-0.3,0.9-1.1v-2.5h0.7
		v4.1h-0.7V173.2z"/>
	<path d="M64.5,169.5h0.7v0.5c0.2-0.4,0.6-0.6,1-0.6c0.2,0,0.4,0.1,0.6,0.2l-0.1,0.7c-0.1-0.1-0.3-0.2-0.6-0.2
		c-0.4,0-0.9,0.3-0.9,1.2v2.3h-0.7V169.5z"/>
	<path d="M67.4,173l0.5-0.4c0.2,0.2,0.6,0.5,1,0.5s0.8-0.2,0.8-0.5c0-0.4-0.5-0.6-0.9-0.8c-0.8-0.3-1.3-0.6-1.3-1.3s0.6-1.1,1.4-1.1
		c0.6,0,1.1,0.3,1.4,0.6l-0.5,0.4c-0.2-0.2-0.5-0.4-0.9-0.4s-0.7,0.2-0.7,0.5s0.4,0.5,0.9,0.7c0.7,0.3,1.3,0.6,1.3,1.4
		c0,0.7-0.6,1.2-1.5,1.2C68.3,173.7,67.8,173.4,67.4,173z"/>
	<path d="M71.2,171.5c0-1.3,0.7-2.1,1.7-2.1c0.7,0,1.2,0.3,1.4,1l-0.7,0.2c-0.1-0.3-0.4-0.5-0.8-0.5c-0.7,0-1,0.6-1,1.5
		s0.3,1.5,1,1.5c0.4,0,0.7-0.2,0.8-0.6l0.6,0.2c-0.2,0.7-0.7,1-1.5,1C71.9,173.7,71.2,172.9,71.2,171.5z"/>
	<path d="M75.5,168.1l0.7-0.3v2.1c0.3-0.4,0.6-0.5,1.1-0.5c0.9,0,1.5,0.5,1.5,1.8v2.4h-0.7v-2.5c0-0.8-0.4-1.1-0.9-1.1
		s-0.9,0.3-0.9,1.1v2.5h-0.7L75.5,168.1L75.5,168.1z"/>
	<path d="M82.4,173.2c-0.3,0.4-0.6,0.5-1,0.5c-1,0-1.5-0.5-1.5-1.8v-2.4h0.7v2.5c0,0.8,0.4,1.1,0.9,1.1s0.9-0.3,0.9-1.1v-2.5h0.7
		v4.1h-0.7V173.2z"/>
	<path d="M84.7,172.7v-2.6H84v-0.6h0.7v-1.4l0.7-0.3v1.7h1v0.6h-1v2.4c0,0.3,0.1,0.6,0.4,0.6c0.2,0,0.4-0.1,0.6-0.2l-0.1,0.7
		c-0.2,0.1-0.5,0.2-0.8,0.2C85,173.7,84.7,173.3,84.7,172.7z"/>
	<path d="M87.3,173.1l2.1-3h-2v-0.6h2.8v0.5l-2.1,3h2.1v0.6h-3L87.3,173.1L87.3,173.1z"/>
	<path d="M91.1,169.5h0.7l1,2.7c0,0.1,0.1,0.3,0.1,0.4c0-0.1,0.1-0.3,0.1-0.4l1-2.7h0.7l-1.5,4.1h-0.6L91.1,169.5z"/>
	<path d="M95.4,171.5c0-1.4,0.7-2.1,1.8-2.1c0.9,0,1.7,0.6,1.7,1.9c0,0.1,0,0.3,0,0.5h-2.8c0.1,0.8,0.5,1.2,1.1,1.2
		c0.3,0,0.6-0.1,0.9-0.4l0.4,0.5c-0.3,0.3-0.8,0.5-1.3,0.5C96.1,173.7,95.4,172.8,95.4,171.5z M98.2,171.2c0-0.9-0.6-1.2-1-1.2
		c-0.6,0-1.1,0.4-1.1,1.2H98.2z"/>
	<path d="M99.9,169.5h0.7v0.5c0.2-0.4,0.6-0.6,1-0.6c0.2,0,0.4,0.1,0.6,0.2l-0.1,0.7c-0.1-0.1-0.3-0.2-0.6-0.2
		c-0.4,0-0.9,0.3-0.9,1.2v2.3h-0.7V169.5z"/>
	<path d="M103.8,173.2v0.4h-0.7v-5.4l0.7-0.3v2c0.2-0.3,0.6-0.4,1-0.4c1,0,1.7,0.8,1.7,2.1c0,1.4-0.6,2.1-1.7,2.1
		C104.3,173.7,104,173.4,103.8,173.2z M105.8,171.5c0-1-0.4-1.5-1.1-1.5c-0.5,0-0.8,0.3-1,0.5v1.9c0.2,0.3,0.6,0.6,1,0.6
		C105.4,173,105.8,172.4,105.8,171.5z"/>
	<path d="M109.9,173.2c-0.3,0.3-0.7,0.5-1.2,0.5c-0.8,0-1.4-0.5-1.4-1.4s0.7-1.4,1.5-1.4c0.4,0,0.7,0.1,1.1,0.3v-0.3
		c0-0.7-0.4-0.9-0.9-0.9s-0.9,0.2-1.2,0.4l-0.2-0.6c0.3-0.2,0.9-0.4,1.5-0.4s1.5,0.2,1.5,1.5v2.7h-0.7L109.9,173.2L109.9,173.2z
		 M108,168.3c0-0.2,0.2-0.4,0.4-0.4s0.4,0.2,0.4,0.4s-0.2,0.4-0.4,0.4C108.2,168.8,108,168.6,108,168.3z M109.9,172.5v-0.7
		c-0.2-0.2-0.6-0.3-1-0.3c-0.5,0-1,0.2-1,0.8c0,0.5,0.3,0.8,0.9,0.8C109.3,173,109.7,172.8,109.9,172.5z M109.3,168.3
		c0-0.2,0.2-0.4,0.4-0.4s0.4,0.2,0.4,0.4s-0.2,0.4-0.4,0.4C109.5,168.8,109.3,168.6,109.3,168.3z"/>
	<path d="M114.3,171.1c0-0.8-0.4-1.1-0.9-1.1s-0.9,0.3-0.9,1.1v2.5h-0.7v-4.1h0.7v0.4c0.3-0.4,0.6-0.5,1.1-0.5
		c0.9,0,1.5,0.5,1.5,1.8v2.4h-0.7v-2.5H114.3z"/>
	<path d="M116,171.5c0-1.3,0.7-2.1,1.7-2.1c0.5,0,0.8,0.2,1,0.4v-1.6l0.7-0.3v5.8h-0.7v-0.3c-0.2,0.2-0.5,0.4-1,0.4
		C116.7,173.7,116,172.8,116,171.5z M118.7,172.5v-1.9c-0.2-0.2-0.5-0.5-0.9-0.5c-0.7,0-1.1,0.5-1.1,1.5c0,0.8,0.4,1.5,1.1,1.5
		C118.2,173,118.5,172.8,118.7,172.5z"/>
	<path d="M120.5,171.5c0-1.4,0.7-2.1,1.8-2.1c0.9,0,1.7,0.6,1.7,1.9c0,0.1,0,0.3,0,0.5h-2.8c0.1,0.8,0.5,1.2,1.1,1.2
		c0.3,0,0.6-0.1,0.9-0.4l0.4,0.5c-0.3,0.3-0.8,0.5-1.3,0.5C121.2,173.7,120.5,172.8,120.5,171.5z M123.3,171.2c0-0.9-0.6-1.2-1-1.2
		c-0.6,0-1.1,0.4-1.1,1.2H123.3z"/>
</g>
<g>
	<path d="M-0.3,185.3h0.7l0.7,3.6c0,0.2,0.1,0.4,0.1,0.6c0-0.2,0.1-0.3,0.2-0.6l1-3.7H3l1,3.6c0.1,0.2,0.1,0.4,0.1,0.5
		c0-0.2,0.1-0.3,0.1-0.6l0.8-3.6h0.6l-1.2,5.6H3.8l-1.1-3.8c-0.1-0.2-0.1-0.4-0.1-0.6c0,0.2-0.1,0.3-0.1,0.6l-1.1,3.8H0.8
		L-0.3,185.3z"/>
	<path d="M6.4,188.8c0-1.3,0.7-2.1,1.8-2.1c1.1,0,1.8,0.8,1.8,2.1s-0.7,2.1-1.8,2.1C7.1,191,6.4,190.2,6.4,188.8z M9.3,188.8
		c0-0.9-0.4-1.5-1.1-1.5s-1.1,0.6-1.1,1.5s0.4,1.5,1.1,1.5C8.9,190.3,9.3,189.7,9.3,188.8z"/>
	<path d="M11.1,185.4l0.7-0.3v2.1c0.3-0.4,0.6-0.5,1.1-0.5c0.9,0,1.5,0.5,1.5,1.8v2.4h-0.8v-2.5c0-0.8-0.4-1.1-0.9-1.1
		s-0.9,0.3-0.9,1.1v2.5h-0.7C11.1,190.9,11.1,185.4,11.1,185.4z"/>
	<path d="M15.7,185.4l0.7-0.3v5.8h-0.7V185.4z"/>
	<path d="M18.6,190.9h-0.7v-3.5h-0.6v-0.6h0.6v-0.7c0-0.7,0.4-0.9,0.9-0.9c0.3,0,0.6,0.1,0.8,0.2v0.6c-0.2-0.1-0.4-0.2-0.6-0.2
		c-0.3,0-0.4,0.2-0.4,0.4v0.6h1v0.6h-1V190.9z"/>
	<path d="M22.7,190.5c-0.3,0.3-0.7,0.5-1.2,0.5c-0.8,0-1.4-0.5-1.4-1.4s0.7-1.4,1.5-1.4c0.4,0,0.7,0.1,1.1,0.3v-0.3
		c0-0.7-0.4-0.9-0.9-0.9s-0.9,0.2-1.2,0.4l-0.2-0.6c0.3-0.2,0.9-0.4,1.5-0.4s1.5,0.2,1.5,1.5v2.7h-0.7
		C22.7,190.9,22.7,190.5,22.7,190.5z M22.7,189.8v-0.7c-0.2-0.2-0.6-0.3-1-0.3c-0.5,0-1,0.2-1,0.8c0,0.5,0.3,0.8,0.9,0.8
		C22.1,190.3,22.5,190.1,22.7,189.8z"/>
	<path d="M24.6,185.4l0.7-0.3v2.1c0.3-0.4,0.6-0.5,1.1-0.5c0.9,0,1.5,0.5,1.5,1.8v2.4h-0.7v-2.5c0-0.8-0.4-1.1-0.9-1.1
		s-0.9,0.3-0.9,1.1v2.5h-0.8V185.4z"/>
	<path d="M29.1,186.8h0.7v0.5c0.2-0.4,0.6-0.6,1-0.6c0.2,0,0.4,0.1,0.6,0.2l-0.1,0.7c-0.1-0.1-0.3-0.2-0.6-0.2
		c-0.4,0-0.9,0.3-0.9,1.2v2.3h-0.7V186.8z"/>
	<path d="M32.6,190v-2.6h-0.7v-0.6h0.7v-1.4l0.7-0.3v1.7h1v0.6h-1v2.4c0,0.3,0.1,0.6,0.4,0.6c0.2,0,0.4-0.1,0.6-0.2l-0.1,0.7
		c-0.2,0.1-0.5,0.2-0.8,0.2C32.8,191,32.6,190.6,32.6,190z"/>
	<path d="M35.1,190.3l0.5-0.4c0.2,0.2,0.6,0.5,1,0.5s0.8-0.2,0.8-0.5c0-0.4-0.5-0.6-0.9-0.8c-0.8-0.3-1.3-0.6-1.3-1.3
		s0.6-1.1,1.4-1.1c0.6,0,1.1,0.3,1.4,0.6l-0.5,0.4c-0.2-0.2-0.5-0.4-0.9-0.4s-0.7,0.2-0.7,0.5s0.4,0.5,0.9,0.7
		c0.7,0.3,1.3,0.6,1.3,1.4c0,0.7-0.6,1.2-1.5,1.2C35.9,191,35.4,190.7,35.1,190.3z"/>
	<path d="M38.7,186.8h0.7l1,2.7c0,0.1,0.1,0.3,0.1,0.4c0-0.1,0.1-0.3,0.1-0.4l1-2.7h0.7l-1.5,4.1h-0.6L38.7,186.8z"/>
	<path d="M42.9,188.8c0-1.4,0.7-2.1,1.8-2.1c0.9,0,1.7,0.6,1.7,1.9c0,0.1,0,0.3,0,0.5h-2.8c0.1,0.8,0.5,1.2,1.1,1.2
		c0.3,0,0.6-0.1,0.9-0.4l0.4,0.5c-0.3,0.3-0.8,0.5-1.3,0.5C43.6,191,42.9,190.1,42.9,188.8z M45.7,188.5c0-0.9-0.6-1.2-1-1.2
		c-0.6,0-1.1,0.4-1.1,1.2H45.7z"/>
	<path d="M47.5,186.8h0.7v0.5c0.2-0.4,0.6-0.6,1-0.6c0.2,0,0.4,0.1,0.6,0.2l-0.1,0.7c-0.1-0.1-0.3-0.2-0.6-0.2
		c-0.4,0-0.9,0.3-0.9,1.2v2.3h-0.7V186.8z"/>
	<path d="M51.3,190.5v0.4h-0.7v-5.4l0.7-0.3v2c0.2-0.3,0.6-0.4,1-0.4c1,0,1.7,0.8,1.7,2.1c0,1.4-0.6,2.1-1.7,2.1
		C51.9,191,51.6,190.7,51.3,190.5z M53.3,188.8c0-1-0.4-1.5-1.1-1.5c-0.5,0-0.8,0.3-1,0.5v1.9c0.2,0.3,0.6,0.6,1,0.6
		C53,190.3,53.3,189.7,53.3,188.8z"/>
	<path d="M57.5,190.5c-0.3,0.3-0.7,0.5-1.2,0.5c-0.8,0-1.4-0.5-1.4-1.4s0.7-1.4,1.5-1.4c0.4,0,0.7,0.1,1.1,0.3v-0.3
		c0-0.7-0.4-0.9-0.9-0.9s-0.9,0.2-1.2,0.4l-0.2-0.6c0.3-0.2,0.9-0.4,1.5-0.4s1.5,0.2,1.5,1.5v2.7h-0.7
		C57.5,190.9,57.5,190.5,57.5,190.5z M55.5,185.6c0-0.2,0.2-0.4,0.4-0.4c0.2,0,0.4,0.2,0.4,0.4s-0.2,0.4-0.4,0.4
		C55.7,186.1,55.5,185.9,55.5,185.6z M57.5,189.8v-0.7c-0.2-0.2-0.6-0.3-1-0.3c-0.5,0-1,0.2-1,0.8c0,0.5,0.3,0.8,0.9,0.8
		C56.9,190.3,57.3,190.1,57.5,189.8z M56.9,185.6c0-0.2,0.2-0.4,0.4-0.4c0.2,0,0.4,0.2,0.4,0.4s-0.2,0.4-0.4,0.4
		C57.1,186.1,56.9,185.9,56.9,185.6z"/>
	<path d="M61.9,188.4c0-0.8-0.4-1.1-0.9-1.1s-0.9,0.3-0.9,1.1v2.5h-0.7v-4.1h0.7v0.4c0.3-0.4,0.6-0.5,1.1-0.5c0.9,0,1.5,0.5,1.5,1.8
		v2.4H62L61.9,188.4L61.9,188.4z"/>
	<path d="M63.6,188.8c0-1.3,0.7-2.1,1.7-2.1c0.5,0,0.8,0.2,1,0.4v-1.6l0.7-0.3v5.8h-0.7v-0.3c-0.2,0.2-0.5,0.4-1,0.4
		C64.3,191,63.6,190.1,63.6,188.8z M66.3,189.8v-1.9c-0.2-0.2-0.5-0.5-0.9-0.5c-0.7,0-1.1,0.5-1.1,1.5c0,0.8,0.4,1.5,1.1,1.5
		C65.8,190.3,66.1,190.1,66.3,189.8z"/>
	<path d="M68.1,188.8c0-1.4,0.7-2.1,1.8-2.1c0.9,0,1.7,0.6,1.7,1.9c0,0.1,0,0.3,0,0.5h-2.8c0.1,0.8,0.5,1.2,1.1,1.2
		c0.3,0,0.6-0.1,0.9-0.4l0.4,0.5c-0.3,0.3-0.8,0.5-1.3,0.5C68.8,191,68.1,190.1,68.1,188.8z M70.9,188.5c0-0.9-0.6-1.2-1-1.2
		c-0.6,0-1.1,0.4-1.1,1.2H70.9z"/>
</g>
<g>
	<path d="M-0.3,208.5l0.7-0.2c0.2,0.5,0.7,0.8,1.3,0.8c0.7,0,1.1-0.3,1.1-0.9c0-0.6-0.6-0.9-1.3-1.2c-0.8-0.3-1.6-0.6-1.6-1.6
		c0-0.8,0.6-1.4,1.7-1.4c0.9,0,1.5,0.4,1.6,1l-0.6,0.2c-0.1-0.3-0.5-0.6-1-0.6c-0.6,0-1,0.3-1,0.7c0,0.5,0.6,0.8,1.2,1
		c0.8,0.3,1.7,0.7,1.7,1.8c0,1-0.8,1.6-1.8,1.6C0.7,209.8,0,209.2-0.3,208.5z"/>
	<path d="M4.5,207.6c0-1.3,0.7-2.1,1.8-2.1c1.1,0,1.8,0.8,1.8,2.1s-0.7,2.1-1.8,2.1C5.2,209.8,4.5,209,4.5,207.6z M7.4,207.6
		c0-0.9-0.4-1.5-1.1-1.5s-1.1,0.6-1.1,1.5s0.4,1.5,1.1,1.5S7.4,208.5,7.4,207.6z"/>
	<path d="M11.7,207.2c0-0.8-0.4-1.1-0.9-1.1s-0.9,0.3-0.9,1.1v2.5H9.2v-4.1h0.7v0.4c0.3-0.4,0.6-0.5,1.1-0.5c0.9,0,1.5,0.5,1.5,1.8
		v2.4h-0.7v-2.5H11.7z"/>
	<path d="M13.4,209.1l0.5-0.4c0.2,0.2,0.6,0.5,1,0.5s0.8-0.2,0.8-0.5c0-0.4-0.5-0.6-0.9-0.8c-0.8-0.3-1.3-0.6-1.3-1.3
		s0.6-1.1,1.4-1.1c0.6,0,1.1,0.3,1.4,0.6l-0.5,0.4c-0.2-0.2-0.5-0.4-0.9-0.4s-0.7,0.2-0.7,0.5s0.4,0.5,0.9,0.7
		c0.7,0.3,1.3,0.6,1.3,1.4c0,0.7-0.6,1.2-1.5,1.2C14.3,209.8,13.7,209.5,13.4,209.1z"/>
	<path d="M17.7,208.8v-2.6H17v-0.6h0.7v-1.4l0.7-0.3v1.7h1v0.6h-1v2.4c0,0.3,0.1,0.6,0.4,0.6c0.2,0,0.4-0.1,0.6-0.2l-0.1,0.7
		c-0.2,0.1-0.5,0.2-0.8,0.2C17.9,209.8,17.7,209.4,17.7,208.8z"/>
	<path d="M20.3,204.4c0-0.2,0.2-0.4,0.4-0.4s0.4,0.2,0.4,0.4s-0.2,0.4-0.4,0.4C20.5,204.8,20.3,204.6,20.3,204.4z M20.4,205.6h0.7
		v4.1h-0.7V205.6z"/>
	<path d="M23.4,210.8c1.3-0.1,1.6-0.5,1.6-1v-0.5c-0.2,0.3-0.6,0.5-1.1,0.5c-0.9,0-1.7-0.7-1.7-2.1c0-1.3,0.7-2.1,1.7-2.1
		c0.6,0,0.9,0.3,1,0.4v-0.3h0.7v3.9c0,1.3-0.8,1.8-1.9,1.8L23.4,210.8z M24.9,208.5v-1.9c-0.2-0.3-0.6-0.5-0.9-0.5
		c-0.7,0-1.1,0.5-1.1,1.5c0,0.9,0.5,1.5,1.1,1.5C24.4,209.1,24.7,208.9,24.9,208.5z"/>
	<path d="M26.7,207.6c0-1.4,0.7-2.1,1.8-2.1c0.9,0,1.7,0.6,1.7,1.9c0,0.1,0,0.3,0,0.5h-2.8c0.1,0.8,0.5,1.2,1.1,1.2
		c0.3,0,0.6-0.1,0.9-0.4l0.4,0.5c-0.3,0.3-0.8,0.5-1.3,0.5C27.4,209.8,26.7,208.9,26.7,207.6z M29.5,207.3c0-0.9-0.6-1.2-1-1.2
		c-0.6,0-1.1,0.4-1.1,1.2H29.5z"/>
</g>
</svg>
