<?xml version="1.0" encoding="utf-8"?>
<!-- Generator: Adobe Illustrator 21.0.0, SVG Export Plug-In . SVG Version: 6.00 Build 0)  -->
<svg version="1.1" id="Layer_1" xmlns="http://www.w3.org/2000/svg" xmlns:xlink="http://www.w3.org/1999/xlink" x="0px" y="0px"
	 viewBox="0 0 358.9 231.5" style="enable-background:new 0 0 358.9 231.5;" xml:space="preserve">
<style type="text/css">
	.st0{fill:#0000FF;}
	.st1{fill:#FFFFFF;}
	.st2{fill:none;stroke:#000000;stroke-width:0.5;}
</style>
<rect x="186.8" y="2.4" class="st0" width="36.6" height="8.4"/>
<rect x="186.8" y="20.4" class="st0" width="16.7" height="8.4"/>
<rect x="186.8" y="39.1" class="st0" width="36.3" height="8.4"/>
<rect x="186.8" y="57.1" class="st0" width="16.7" height="8.4"/>
<rect x="186.8" y="75.1" class="st0" width="170.5" height="8.4"/>
<rect x="186.8" y="92.4" class="st0" width="92.4" height="8.4"/>
<rect x="186.8" y="111.1" class="st0" width="129.2" height="8.4"/>
<rect x="186.8" y="128.4" class="st0" width="152.4" height="8.4"/>
<rect x="186.8" y="147.1" class="st0" width="92.4" height="8.4"/>
<rect x="186.8" y="164.4" class="st0" width="73.4" height="8.4"/>
<rect x="186.8" y="182.4" class="st0" width="128.1" height="8.4"/>
<rect x="184.5" class="st1" width="36.6" height="8.4"/>
<rect x="184.5" class="st2" width="36.6" height="8.4"/>
<rect x="184.5" y="18" class="st1" width="16.7" height="8.4"/>
<rect x="184.5" y="18" class="st2" width="16.7" height="8.4"/>
<rect x="184.5" y="36.8" class="st1" width="36.6" height="8.4"/>
<rect x="184.5" y="36.8" class="st2" width="36.6" height="8.4"/>
<rect x="184.5" y="54.8" class="st1" width="16.7" height="8.4"/>
<rect x="184.5" y="54.8" class="st2" width="16.7" height="8.4"/>
<rect x="184.5" y="72.8" class="st1" width="170.5" height="8.4"/>
<rect x="184.5" y="72.8" class="st2" width="170.5" height="8.4"/>
<rect x="184.5" y="90" class="st1" width="92.4" height="8.4"/>
<rect x="184.5" y="90" class="st2" width="92.4" height="8.4"/>
<rect x="184.5" y="108.8" class="st1" width="129.2" height="8.4"/>
<rect x="184.5" y="108.8" class="st2" width="129.2" height="8.4"/>
<rect x="184.5" y="126.1" class="st1" width="151.9" height="8.4"/>
<rect x="184.5" y="126.1" class="st2" width="151.9" height="8.4"/>
<rect x="184.5" y="144.8" class="st1" width="92.4" height="8.4"/>
<rect x="184.5" y="144.8" class="st2" width="92.4" height="8.4"/>
<rect x="184.5" y="162.1" class="st1" width="73.4" height="8.4"/>
<rect x="184.5" y="162.1" class="st2" width="73.4" height="8.4"/>
<rect x="184.5" y="180.1" class="st1" width="128.1" height="8.4"/>
<rect x="184.5" y="180.1" class="st2" width="128.1" height="8.4"/>
<path d="M0,1.9h2.1c1.4,0,1.8,0.8,1.8,1.7c0,0.8-0.5,1.7-1.8,1.7H0.7v2.2H0V1.9z M3.3,3.6c0-0.4-0.2-1-1.1-1H0.7v2.1h1.5
	C3,4.6,3.3,4,3.3,3.6z"/>
<path d="M4.5,5.4c0-1.3,0.7-2.1,1.8-2.1s1.8,0.8,1.8,2.1S7.4,7.5,6.3,7.5C5.2,7.6,4.5,6.8,4.5,5.4z M7.4,5.4c0-0.9-0.4-1.5-1.1-1.5
	S5.2,4.5,5.2,5.4s0.4,1.5,1.1,1.5S7.4,6.4,7.4,5.4z"/>
<path d="M9.2,2l0.7-0.3v5.8H9.2V2z"/>
<path d="M11.2,2.2c0-0.2,0.2-0.4,0.4-0.4S12,2,12,2.2s-0.2,0.4-0.4,0.4C11.4,2.7,11.2,2.5,11.2,2.2z M11.3,3.4H12v4.1h-0.7V3.4z"/>
<path d="M13.6,6.6V4h-0.7V3.4h0.7V2l0.7-0.3v1.7h1V4h-1v2.4c0,0.3,0.1,0.6,0.4,0.6c0.2,0,0.4-0.1,0.6-0.2l-0.1,0.7
	c-0.2,0.1-0.5,0.2-0.8,0.2C13.8,7.6,13.6,7.2,13.6,6.6z"/>
<path d="M16.2,2.2c0-0.2,0.2-0.4,0.4-0.4S17,2,17,2.2s-0.2,0.4-0.4,0.4C16.4,2.7,16.2,2.5,16.2,2.2z M16.3,3.4H17v4.1h-0.7V3.4z"/>
<path d="M18.1,6.9l0.5-0.4c0.2,0.2,0.6,0.5,1,0.5s0.8-0.2,0.8-0.5c0-0.4-0.5-0.6-0.9-0.8c-0.8-0.3-1.3-0.6-1.3-1.3s0.6-1.1,1.4-1.1
	c0.6,0,1.1,0.3,1.4,0.6l-0.5,0.4c-0.2-0.2-0.5-0.4-0.9-0.4s-0.7,0.2-0.7,0.5s0.4,0.5,0.9,0.7c0.7,0.3,1.3,0.6,1.3,1.4
	c0,0.7-0.6,1.2-1.5,1.2C19,7.6,18.4,7.3,18.1,6.9z"/>
<path d="M21.9,5.4c0-1.3,0.7-2.1,1.7-2.1c0.7,0,1.2,0.3,1.4,1l-0.7,0.2C24.2,4.2,23.9,4,23.5,4c-0.7,0-1,0.6-1,1.5s0.3,1.5,1,1.5
	c0.4,0,0.7-0.2,0.8-0.6l0.6,0.2c-0.2,0.7-0.7,1-1.5,1C22.5,7.6,21.9,6.8,21.9,5.4z"/>
<path d="M26.1,2l0.7-0.3v2.1c0.3-0.4,0.6-0.5,1.1-0.5c0.9,0,1.5,0.5,1.5,1.8v2.4h-0.8V5c0-0.8-0.4-1.1-0.9-1.1S26.8,4.2,26.8,5v2.5
	h-0.7C26.1,7.5,26.1,2,26.1,2z"/>
<path d="M30.4,5.4c0-1.4,0.7-2.1,1.8-2.1c0.9,0,1.7,0.6,1.7,1.9c0,0.1,0,0.3,0,0.5h-2.8c0.1,0.8,0.5,1.2,1.1,1.2
	c0.3,0,0.6-0.1,0.9-0.4L33.5,7c-0.3,0.3-0.8,0.5-1.3,0.5C31.1,7.6,30.4,6.7,30.4,5.4z M33.2,5.1c0-0.9-0.6-1.2-1-1.2
	c-0.6,0-1.1,0.4-1.1,1.2H33.2z"/>
<path d="M36.3,6.6l0.6-0.3c0.2,0.4,0.5,0.6,1,0.6S39,6.7,39,5.6V1.8h0.7v3.8c0,1.5-1,1.9-1.8,1.9C37.1,7.6,36.6,7.2,36.3,6.6z"/>
<path d="M43.6,7.1c-0.3,0.4-0.6,0.5-1,0.5c-1,0-1.5-0.5-1.5-1.8V3.4h0.7v2.5c0,0.8,0.4,1.1,0.9,1.1s0.9-0.3,0.9-1.1V3.4h0.7v4.1
	h-0.7C43.6,7.5,43.6,7.1,43.6,7.1z"/>
<path d="M46.5,8.6c1.3-0.1,1.6-0.5,1.6-1V7.1c-0.2,0.3-0.6,0.5-1.1,0.5c-0.9,0-1.7-0.7-1.7-2.1c0-1.3,0.7-2.1,1.7-2.1
	c0.6,0,0.9,0.3,1,0.4V3.5h0.7v3.9c0,1.3-0.8,1.8-1.9,1.8L46.5,8.6z M48.1,6.4V4.5C47.9,4.2,47.5,4,47.2,4c-0.7,0-1.1,0.5-1.1,1.5
	c0,0.9,0.5,1.5,1.1,1.5C47.5,6.9,47.9,6.7,48.1,6.4z"/>
<path d="M49.9,5.4c0-1.4,0.7-2.1,1.8-2.1c0.9,0,1.7,0.6,1.7,1.9c0,0.1,0,0.3,0,0.5h-2.8c0.1,0.8,0.5,1.2,1.1,1.2
	c0.3,0,0.6-0.1,0.9-0.4L53,7c-0.3,0.3-0.8,0.5-1.3,0.5C50.6,7.6,49.9,6.7,49.9,5.4z M52.7,5.1c0-0.9-0.6-1.2-1-1.2
	c-0.6,0-1.1,0.4-1.1,1.2H52.7z"/>
<path d="M56.9,5c0-0.8-0.4-1.1-0.9-1.1S55.1,4.2,55.1,5v2.5h-0.7V3.4h0.7v0.4c0.3-0.4,0.6-0.5,1.1-0.5c0.9,0,1.5,0.5,1.5,1.8v2.4H57
	L56.9,5L56.9,5z"/>
<path d="M58.7,5.4c0-1.3,0.7-2.1,1.7-2.1c0.5,0,0.8,0.2,1,0.4V2.1l0.7-0.3v5.8h-0.7V7.2c-0.2,0.2-0.5,0.4-1,0.4
	C59.3,7.6,58.7,6.8,58.7,5.4z M61.4,6.4V4.5C61.2,4.3,60.9,4,60.5,4c-0.7,0-1.1,0.5-1.1,1.5c0,0.8,0.4,1.5,1.1,1.5
	C60.9,6.9,61.2,6.7,61.4,6.4z"/>
<path d="M63.2,5.4c0-1.3,0.7-2.1,1.8-2.1s1.8,0.8,1.8,2.1S66.1,7.5,65,7.5C63.9,7.6,63.2,6.8,63.2,5.4z M66.1,5.4
	c0-0.9-0.4-1.5-1.1-1.5s-1.1,0.6-1.1,1.5s0.4,1.5,1.1,1.5S66.1,6.4,66.1,5.4z"/>
<path d="M67.9,3.4h0.7v0.5c0.2-0.4,0.6-0.6,1-0.6c0.2,0,0.4,0.1,0.6,0.2l-0.1,0.7C70,4.1,69.8,4,69.5,4c-0.4,0-0.9,0.3-0.9,1.2v2.3
	h-0.7V3.4z"/>
<path d="M72,8.6c1.3-0.1,1.6-0.5,1.6-1V7.1c-0.2,0.3-0.6,0.5-1.1,0.5c-0.9,0-1.7-0.7-1.7-2.1c0-1.3,0.7-2.1,1.7-2.1
	c0.6,0,0.9,0.3,1,0.4V3.5h0.7v3.9c0,1.3-0.8,1.8-1.9,1.8L72,8.6z M73.5,6.4V4.5C73.3,4.2,72.9,4,72.6,4c-0.7,0-1.1,0.5-1.1,1.5
	C71.5,6.4,72,7,72.6,7C73,6.9,73.3,6.7,73.5,6.4z"/>
<path d="M77.9,7.1c-0.3,0.3-0.7,0.5-1.2,0.5c-0.8,0-1.4-0.5-1.4-1.4s0.7-1.4,1.5-1.4c0.4,0,0.7,0.1,1.1,0.3V4.8
	c0-0.7-0.4-0.9-0.9-0.9s-0.9,0.2-1.2,0.4l-0.2-0.6c0.3-0.2,0.9-0.4,1.5-0.4s1.5,0.2,1.5,1.5v2.7h-0.7C77.9,7.5,77.9,7.1,77.9,7.1z
	 M77.9,6.4V5.7c-0.2-0.2-0.6-0.3-1-0.3c-0.5,0-1,0.2-1,0.8c0,0.5,0.3,0.8,0.9,0.8C77.3,7,77.7,6.7,77.9,6.4z"/>
<path d="M82.3,5c0-0.8-0.4-1.1-0.9-1.1S80.5,4.2,80.5,5v2.5h-0.7V3.4h0.7v0.4c0.3-0.4,0.6-0.5,1.1-0.5c0.9,0,1.5,0.5,1.5,1.8v2.4
	h-0.7L82.3,5L82.3,5z"/>
<path d="M84.2,2.2c0-0.2,0.2-0.4,0.4-0.4C84.8,1.8,85,2,85,2.2s-0.2,0.4-0.4,0.4C84.4,2.7,84.2,2.5,84.2,2.2z M84.3,3.4H85v4.1h-0.7
	V3.4z"/>
<path d="M86,6.9l0.5-0.4c0.2,0.2,0.6,0.5,1,0.5s0.8-0.2,0.8-0.5c0-0.4-0.5-0.6-0.9-0.8c-0.8-0.3-1.3-0.6-1.3-1.3s0.6-1.1,1.4-1.1
	c0.6,0,1.1,0.3,1.4,0.6l-0.5,0.4c-0.2-0.2-0.5-0.4-0.9-0.4s-0.7,0.2-0.7,0.5s0.4,0.5,0.9,0.7C88.4,5.4,89,5.7,89,6.5
	c0,0.7-0.6,1.2-1.5,1.2C86.9,7.6,86.3,7.3,86,6.9z"/>
<path d="M92.4,7.1c-0.3,0.3-0.7,0.5-1.2,0.5c-0.8,0-1.4-0.5-1.4-1.4s0.7-1.4,1.5-1.4c0.4,0,0.7,0.1,1.1,0.3V4.8
	c0-0.7-0.4-0.9-0.9-0.9s-0.9,0.2-1.2,0.4l-0.2-0.6c0.3-0.2,0.9-0.4,1.5-0.4s1.5,0.2,1.5,1.5v2.7h-0.7C92.4,7.5,92.4,7.1,92.4,7.1z
	 M92.4,6.4V5.7c-0.2-0.2-0.6-0.3-1-0.3c-0.5,0-1,0.2-1,0.8c0,0.5,0.3,0.8,0.9,0.8C91.8,7,92.2,6.7,92.4,6.4z"/>
<path d="M94.5,6.6V4h-0.7V3.4h0.7V2l0.7-0.3v1.7h1V4h-1v2.4c0,0.3,0.1,0.6,0.4,0.6c0.2,0,0.4-0.1,0.6-0.2l-0.1,0.7
	c-0.2,0.1-0.5,0.2-0.8,0.2C94.7,7.6,94.5,7.2,94.5,6.6z"/>
<path d="M97.2,2.2c0-0.2,0.2-0.4,0.4-0.4C97.8,1.8,98,2,98,2.2s-0.2,0.4-0.4,0.4C97.4,2.7,97.2,2.5,97.2,2.2z M97.3,3.4H98v4.1h-0.7
	V3.4z"/>
<path d="M99,5.4c0-1.3,0.7-2.1,1.8-2.1c1.1,0,1.8,0.8,1.8,2.1s-0.7,2.1-1.8,2.1C99.8,7.6,99,6.8,99,5.4z M102,5.4
	c0-0.9-0.4-1.5-1.1-1.5s-1.1,0.6-1.1,1.5s0.4,1.5,1.1,1.5C101.5,6.9,102,6.4,102,5.4z"/>
<path d="M106.3,5c0-0.8-0.4-1.1-0.9-1.1s-0.9,0.3-0.9,1.1v2.5h-0.7V3.4h0.7v0.4c0.3-0.4,0.6-0.5,1.1-0.5c0.9,0,1.5,0.5,1.5,1.8v2.4
	h-0.7L106.3,5L106.3,5z"/>
<path d="M108,5.4c0-1.4,0.7-2.1,1.8-2.1c0.9,0,1.7,0.6,1.7,1.9c0,0.1,0,0.3,0,0.5h-2.8c0.1,0.8,0.5,1.2,1.1,1.2
	c0.3,0,0.6-0.1,0.9-0.4l0.4,0.5c-0.3,0.3-0.8,0.5-1.3,0.5C108.7,7.6,108,6.7,108,5.4z M110.8,5.1c0-0.9-0.6-1.2-1-1.2
	c-0.6,0-1.1,0.4-1.1,1.2H110.8z"/>
<path d="M115.1,5c0-0.8-0.4-1.1-0.9-1.1s-0.9,0.3-0.9,1.1v2.5h-0.7V3.4h0.7v0.4c0.3-0.4,0.6-0.5,1.1-0.5c0.9,0,1.5,0.5,1.5,1.8v2.4
	h-0.7L115.1,5C115.2,5,115.1,5,115.1,5z"/>
<path d="M341.7,203.1c0-0.8-0.4-1.1-0.9-1.1s-0.9,0.3-0.9,1.1v2.5h-0.7v-4.1h0.7v0.4c0.3-0.4,0.6-0.5,1.1-0.5c0.9,0,1.5,0.5,1.5,1.8
	v2.4h-0.7v-2.5L341.7,203.1L341.7,203.1z"/>
<path d="M343.8,201.8h3.8v0.7h-3.8V201.8z M343.8,203.2h3.8v0.7h-3.8V203.2z"/>
<path d="M348.8,205.1l0.4-0.5c0.3,0.3,0.7,0.5,1.4,0.5c0.8,0,1.4-0.6,1.4-1.3s-0.5-1.2-1.1-1.2c-0.5,0-0.9,0.2-1.1,0.5l-0.7-0.2
	l0.3-2.8h3v0.6H350l-0.2,1.7c0.3-0.2,0.7-0.4,1.2-0.4c1.1,0,1.8,0.8,1.8,1.8c0,1.1-0.8,1.9-2.1,1.9
	C349.7,205.7,349.1,205.4,348.8,205.1z"/>
<path d="M354.5,201.1h-0.9v-0.4c0.6,0,1-0.2,1.1-0.7h0.5v5.6h-0.7V201.1L354.5,201.1z"/>
<path d="M175.1,4.5c0.5-0.2,0.9-0.6,0.9-1.1s-0.4-0.8-1-0.8s-1,0.3-1.1,0.7L173.1,3c0.3-0.7,1-1.2,1.9-1.2c1.1,0,1.8,0.7,1.8,1.7
	s-0.6,1.4-1.4,1.8c-0.7,0.4-1.2,0.8-1.4,1.4h2.8v0.8h-3.9C173,6,174,5.1,175.1,4.5z"/>
<path d="M175,21h-0.9v-0.6c0.5,0,1-0.2,1.1-0.6h0.6v5.6H175V21L175,21z"/>
<path d="M175.1,40.7c0.5-0.2,0.9-0.6,0.9-1.1s-0.4-0.8-1-0.8s-1,0.3-1.1,0.7l-0.8-0.3c0.3-0.7,1-1.2,1.9-1.2c1.1,0,1.8,0.7,1.8,1.7
	s-0.6,1.4-1.4,1.8c-0.7,0.4-1.2,0.8-1.4,1.4h2.8v0.8h-3.9C173,42.1,174,41.2,175.1,40.7z"/>
<path d="M175,57.7h-0.9v-0.6c0.5,0,1-0.2,1.1-0.6h0.6v5.6H175V57.7L175,57.7z"/>
<path d="M174,80c0.9,0,1.7-0.4,1.9-1.7c-0.2,0.2-0.6,0.4-1.1,0.4c-1,0-1.8-0.7-1.8-1.8s0.8-1.8,1.9-1.8c1.3,0,1.9,0.9,1.9,2.2
	c0,2.1-0.9,3.5-2.9,3.6V80C173.9,80,174,80,174,80z M176,76.9c0-0.6-0.4-0.9-1.1-0.9c-0.6,0-1.1,0.4-1.1,1s0.4,1,1.1,1
	S176,77.5,176,76.9z"/>
<path d="M172.9,97.6l0.5-0.7c0.3,0.2,0.6,0.4,1.2,0.4c0.8,0,1.3-0.5,1.3-1.2s-0.4-1-1-1c-0.4,0-0.7,0.1-0.9,0.4l-0.9-0.3l0.2-2.8
	h3.1v0.8H174l-0.1,1.4c0.2-0.2,0.6-0.3,1.1-0.3c1.2,0,1.8,0.9,1.8,1.8c0,1.2-0.9,2-2.1,2C173.7,98.1,173.2,97.9,172.9,97.6z"/>
<path d="M176.3,111.3h-2.9v-0.8h3.8v0.9c-1.3,1.5-1.7,3.5-1.7,4.7h-0.9C174.7,114.1,175.2,112.8,176.3,111.3z"/>
<path d="M173,131.9c0-0.7,0.4-1.2,0.9-1.4c-0.4-0.2-0.7-0.6-0.7-1.2c0-0.8,0.7-1.5,1.7-1.5s1.7,0.6,1.7,1.5c0,0.5-0.3,0.9-0.7,1.2
	c0.6,0.3,0.9,0.7,0.9,1.4c0,1-0.8,1.7-1.9,1.7S173,132.9,173,131.9z M176.1,131.9c0-0.5-0.5-1-1.1-1s-1.1,0.4-1.1,1s0.4,1,1.1,1
	C175.6,132.8,176.1,132.4,176.1,131.9z M175.8,129.3c0-0.4-0.4-0.7-0.9-0.7s-0.8,0.3-0.8,0.7s0.3,0.7,0.8,0.7
	C175.5,130.1,175.8,129.7,175.8,129.3z"/>
<path d="M172.9,151.6l0.5-0.7c0.3,0.2,0.6,0.4,1.2,0.4c0.8,0,1.3-0.5,1.3-1.2s-0.4-1-1-1c-0.4,0-0.7,0.1-0.9,0.4l-0.9-0.3l0.2-2.8
	h3.1v0.8H174l-0.1,1.4c0.2-0.2,0.6-0.3,1.1-0.3c1.2,0,1.8,0.9,1.8,1.8c0,1.2-0.9,2-2.1,2C173.7,152.1,173.2,151.9,172.9,151.6z"/>
<path d="M175.1,168.1h-3v-0.5l2.9-3.8h1v3.6h0.7v0.8H176v1.3h-0.8L175.1,168.1L175.1,168.1z M175.1,164.7l-1.9,2.6h1.9V164.7z"/>
<path d="M176.3,183.1h-2.9v-0.9h3.8v0.9c-1.3,1.5-1.7,3.5-1.7,4.7h-0.9C174.7,185.9,175.2,184.6,176.3,183.1z"/>
<path d="M-0.5,24.6l0.6-0.3c0.2,0.4,0.5,0.6,1,0.6s1.1-0.2,1.1-1.3v-3.8h0.7v3.8c0,1.5-1,1.9-1.8,1.9C0.3,25.6-0.2,25.2-0.5,24.6z"
	/>
<path d="M6.8,25.1c-0.3,0.4-0.6,0.5-1,0.5c-1,0-1.5-0.5-1.5-1.8v-2.4H5v2.5C5,24.7,5.4,25,5.9,25s0.9-0.3,0.9-1.1v-2.5h0.7v4.1H6.8
	V25.1z"/>
<path d="M9.7,26.6c1.3-0.1,1.6-0.5,1.6-1v-0.5c-0.2,0.3-0.6,0.5-1.1,0.5c-0.9,0-1.7-0.7-1.7-2.1c0-1.3,0.7-2.1,1.7-2.1
	c0.6,0,0.9,0.3,1,0.4v-0.3h0.7v3.9c0,1.3-0.8,1.8-1.9,1.8L9.7,26.6z M11.3,24.4v-1.9c-0.2-0.3-0.6-0.5-0.9-0.5
	c-0.7,0-1.1,0.5-1.1,1.5c0,0.9,0.5,1.5,1.1,1.5C10.7,24.9,11.1,24.7,11.3,24.4z"/>
<path d="M13.1,23.4c0-1.4,0.7-2.1,1.8-2.1c0.9,0,1.7,0.6,1.7,1.9c0,0.1,0,0.3,0,0.5h-2.8c0.1,0.8,0.5,1.2,1.1,1.2
	c0.3,0,0.6-0.1,0.9-0.4l0.4,0.5c-0.3,0.3-0.8,0.5-1.3,0.5C13.8,25.6,13.1,24.7,13.1,23.4z M15.9,23.1c0-0.9-0.6-1.2-1-1.2
	c-0.6,0-1.1,0.4-1.1,1.2H15.9z"/>
<path d="M20.1,23c0-0.8-0.4-1.1-0.9-1.1s-0.9,0.3-0.9,1.1v2.5h-0.7v-4.1h0.7v0.4c0.3-0.4,0.6-0.5,1.1-0.5c0.9,0,1.5,0.5,1.5,1.8v2.4
	h-0.7L20.1,23L20.1,23z"/>
<path d="M21.9,23.4c0-1.3,0.7-2.1,1.7-2.1c0.5,0,0.8,0.2,1,0.4v-1.6l0.7-0.3v5.8h-0.7v-0.4c-0.2,0.2-0.5,0.4-1,0.4
	C22.5,25.6,21.9,24.8,21.9,23.4z M24.6,24.4v-1.9c-0.2-0.2-0.5-0.5-0.9-0.5c-0.7,0-1.1,0.5-1.1,1.5c0,0.8,0.4,1.5,1.1,1.5
	C24,24.9,24.4,24.7,24.6,24.4z"/>
<path d="M26.6,21.4h0.7v0.5c0.2-0.4,0.6-0.6,1-0.6c0.2,0,0.4,0.1,0.6,0.2l-0.1,0.7c-0.1-0.1-0.3-0.2-0.6-0.2c-0.4,0-0.9,0.3-0.9,1.2
	v2.3h-0.7V21.4z"/>
<path d="M29.5,23.4c0-1.4,0.7-2.1,1.8-2.1c0.9,0,1.7,0.6,1.7,1.9c0,0.1,0,0.3,0,0.5h-2.8c0.1,0.8,0.5,1.2,1.1,1.2
	c0.3,0,0.6-0.1,0.9-0.4l0.4,0.5c-0.3,0.3-0.8,0.5-1.3,0.5C30.2,25.6,29.5,24.7,29.5,23.4z M32.3,23.1c0-0.9-0.6-1.2-1-1.2
	c-0.6,0-1.1,0.4-1.1,1.2H32.3z"/>
<path d="M34,20.2c0-0.2,0.2-0.4,0.4-0.4s0.4,0.2,0.4,0.4s-0.2,0.4-0.4,0.4C34.2,20.7,34,20.5,34,20.2z M34.1,21.4h0.7v4.1h-0.7V21.4
	z"/>
<path d="M35.8,24.9l0.5-0.4c0.2,0.2,0.6,0.5,1,0.5s0.8-0.2,0.8-0.5c0-0.4-0.5-0.6-0.9-0.8c-0.8-0.3-1.3-0.6-1.3-1.3s0.6-1.1,1.4-1.1
	c0.6,0,1.1,0.3,1.4,0.6l-0.5,0.4c-0.2-0.2-0.5-0.4-0.9-0.4s-0.7,0.2-0.7,0.5s0.4,0.5,0.9,0.7c0.7,0.3,1.3,0.6,1.3,1.4
	c0,0.7-0.6,1.2-1.5,1.2C36.7,25.6,36.1,25.3,35.8,24.9z"/>
<path d="M39.6,23.4c0-1.4,0.7-2.1,1.8-2.1c0.9,0,1.7,0.6,1.7,1.9c0,0.1,0,0.3,0,0.5h-2.8c0.1,0.8,0.5,1.2,1.1,1.2
	c0.3,0,0.6-0.1,0.9-0.4l0.4,0.5c-0.3,0.3-0.8,0.5-1.3,0.5C40.3,25.6,39.6,24.7,39.6,23.4z M42.4,23.1c0-0.9-0.6-1.2-1-1.2
	c-0.6,0-1.1,0.4-1.1,1.2H42.4z"/>
<path d="M44.2,22.8h1.9v0.7h-1.9V22.8z"/>
<path d="M51.7,25.1c-0.3,0.4-0.6,0.5-1,0.5c-1,0-1.5-0.5-1.5-1.8v-2.4h0.7v2.5c0,0.8,0.4,1.1,0.9,1.1s0.9-0.3,0.9-1.1v-2.5h0.7v4.1
	h-0.7C51.7,25.5,51.7,25.1,51.7,25.1z"/>
<path d="M56.2,23c0-0.8-0.4-1.1-0.9-1.1s-0.9,0.3-0.9,1.1v2.5h-0.7v-4.1h0.7v0.4c0.3-0.4,0.6-0.5,1.1-0.5c0.9,0,1.5,0.5,1.5,1.8v2.4
	h-0.7L56.2,23L56.2,23z"/>
<path d="M58,23.4c0-1.3,0.7-2.1,1.7-2.1c0.5,0,0.8,0.2,1,0.4v-1.6l0.7-0.3v5.8h-0.7v-0.4c-0.2,0.2-0.5,0.4-1,0.4
	C58.6,25.6,58,24.8,58,23.4z M60.7,24.4v-1.9c-0.2-0.2-0.5-0.5-0.9-0.5c-0.7,0-1.1,0.5-1.1,1.5c0,0.8,0.4,1.5,1.1,1.5
	C60.1,24.9,60.5,24.7,60.7,24.4z"/>
<path d="M67.4,24.1h-2.2l-0.5,1.4H64l2-5.6h0.6l2,5.6h-0.7L67.4,24.1z M66.5,21.4c-0.1-0.2-0.1-0.4-0.2-0.6c0,0.1-0.1,0.4-0.2,0.6
	l-0.7,2.1h1.8L66.5,21.4z"/>
<path d="M72.1,25.1c-0.3,0.4-0.6,0.5-1,0.5c-1,0-1.5-0.5-1.5-1.8v-2.4h0.7v2.5c0,0.8,0.4,1.1,0.9,1.1s0.9-0.3,0.9-1.1v-2.5h0.7v4.1
	h-0.7V25.1z"/>
<path d="M73.9,24.9l0.5-0.4c0.2,0.2,0.6,0.5,1,0.5s0.8-0.2,0.8-0.5c0-0.4-0.5-0.6-0.9-0.8c-0.8-0.3-1.3-0.6-1.3-1.3s0.6-1.1,1.4-1.1
	c0.6,0,1.1,0.3,1.4,0.6l-0.5,0.4c-0.2-0.2-0.5-0.4-0.9-0.4s-0.7,0.2-0.7,0.5s0.4,0.5,0.9,0.7c0.7,0.3,1.3,0.6,1.3,1.4
	c0,0.7-0.6,1.2-1.5,1.2C74.7,25.6,74.2,25.3,73.9,24.9z"/>
<path d="M78.1,24.6V22h-0.7v-0.6h0.7V20l0.7-0.3v1.7h1V22h-1v2.4c0,0.3,0.1,0.6,0.4,0.6c0.2,0,0.4-0.1,0.6-0.2l-0.1,0.7
	c-0.2,0.1-0.5,0.2-0.8,0.2C78.4,25.6,78.1,25.2,78.1,24.6z"/>
<path d="M83.1,25.1c-0.3,0.3-0.7,0.5-1.2,0.5c-0.8,0-1.4-0.5-1.4-1.4s0.7-1.4,1.5-1.4c0.4,0,0.7,0.1,1.1,0.3v-0.3
	c0-0.7-0.4-0.9-0.9-0.9s-0.9,0.2-1.2,0.4l-0.2-0.6c0.3-0.2,0.9-0.4,1.5-0.4s1.5,0.2,1.5,1.5v2.7h-0.7C83.1,25.5,83.1,25.1,83.1,25.1
	z M83.1,24.4v-0.7c-0.2-0.2-0.6-0.3-1-0.3c-0.5,0-1,0.2-1,0.8c0,0.5,0.3,0.8,0.9,0.8C82.5,25,82.9,24.7,83.1,24.4z"/>
<path d="M87.5,25.1c-0.3,0.4-0.6,0.5-1,0.5c-1,0-1.5-0.5-1.5-1.8v-2.4h0.7v2.5c0,0.8,0.4,1.1,0.9,1.1s0.9-0.3,0.9-1.1v-2.5h0.7v4.1
	h-0.7V25.1z"/>
<path d="M89.2,24.9l0.5-0.4c0.2,0.2,0.6,0.5,1,0.5s0.8-0.2,0.8-0.5c0-0.4-0.5-0.6-0.9-0.8c-0.8-0.3-1.3-0.6-1.3-1.3s0.6-1.1,1.4-1.1
	c0.6,0,1.1,0.3,1.4,0.6l-0.5,0.4c-0.2-0.2-0.5-0.4-0.9-0.4S90,22.1,90,22.4s0.4,0.5,0.9,0.7c0.7,0.3,1.3,0.6,1.3,1.4
	c0,0.7-0.6,1.2-1.5,1.2C90.1,25.6,89.5,25.3,89.2,24.9z"/>
<path d="M93,23.4c0-1.3,0.7-2.1,1.7-2.1c0.7,0,1.2,0.3,1.4,1l-0.7,0.2C95.3,22.2,95,22,94.6,22c-0.7,0-1,0.6-1,1.5s0.3,1.5,1,1.5
	c0.4,0,0.7-0.2,0.8-0.6l0.6,0.2c-0.2,0.7-0.7,1-1.5,1S93,24.8,93,23.4z"/>
<path d="M97.3,20l0.7-0.3v2.1c0.3-0.4,0.6-0.5,1.1-0.5c0.9,0,1.5,0.5,1.5,1.8v2.4h-0.7V23c0-0.8-0.4-1.1-0.9-1.1s-0.9,0.3-0.9,1.1
	v2.5h-0.7L97.3,20L97.3,20z"/>
<path d="M101.2,21.4h0.7l1,2.7c0,0.1,0.1,0.3,0.1,0.4c0-0.1,0.1-0.3,0.1-0.4l1-2.7h0.7l-1.5,4.1h-0.6L101.2,21.4z"/>
<path d="M105.5,23.4c0-1.4,0.7-2.1,1.8-2.1c0.9,0,1.7,0.6,1.7,1.9c0,0.1,0,0.3,0,0.5h-2.8c0.1,0.8,0.5,1.2,1.1,1.2
	c0.3,0,0.6-0.1,0.9-0.4l0.4,0.5c-0.3,0.3-0.8,0.5-1.3,0.5C106.2,25.6,105.5,24.7,105.5,23.4z M108.3,23.1c0-0.9-0.6-1.2-1-1.2
	c-0.6,0-1.1,0.4-1.1,1.2H108.3z"/>
<path d="M110,21.4h0.7v0.5c0.2-0.4,0.6-0.6,1-0.6c0.2,0,0.4,0.1,0.6,0.2l-0.1,0.7c-0.1-0.1-0.3-0.2-0.6-0.2c-0.4,0-0.9,0.3-0.9,1.2
	v2.3H110V21.4z"/>
<path d="M113.9,25.1v0.4h-0.7v-5.4l0.7-0.3v2c0.2-0.3,0.6-0.4,1-0.4c1,0,1.7,0.8,1.7,2.1c0,1.4-0.6,2.1-1.7,2.1
	C114.4,25.6,114.1,25.4,113.9,25.1z M115.9,23.4c0-1-0.4-1.5-1.1-1.5c-0.5,0-0.8,0.3-1,0.5v1.9c0.2,0.3,0.6,0.6,1,0.6
	C115.6,24.9,115.9,24.4,115.9,23.4z"/>
<path d="M120,25.1c-0.3,0.3-0.7,0.5-1.2,0.5c-0.8,0-1.4-0.5-1.4-1.4s0.7-1.4,1.5-1.4c0.4,0,0.7,0.1,1.1,0.3v-0.3
	c0-0.7-0.4-0.9-0.9-0.9s-0.9,0.2-1.2,0.4l-0.2-0.6c0.3-0.2,0.9-0.4,1.5-0.4s1.5,0.2,1.5,1.5v2.7H120V25.1L120,25.1z M118.1,20.3
	c0-0.2,0.2-0.4,0.4-0.4s0.4,0.2,0.4,0.4s-0.2,0.4-0.4,0.4S118.1,20.5,118.1,20.3z M120,24.4v-0.7c-0.2-0.2-0.6-0.3-1-0.3
	c-0.5,0-1,0.2-1,0.8c0,0.5,0.3,0.8,0.9,0.8C119.4,25,119.8,24.7,120,24.4z M119.5,20.3c0-0.2,0.2-0.4,0.4-0.4s0.4,0.2,0.4,0.4
	s-0.2,0.4-0.4,0.4S119.5,20.5,119.5,20.3z"/>
<path d="M124.4,23c0-0.8-0.4-1.1-0.9-1.1s-0.9,0.3-0.9,1.1v2.5h-0.7v-4.1h0.7v0.4c0.3-0.4,0.6-0.5,1.1-0.5c0.9,0,1.5,0.5,1.5,1.8
	v2.4h-0.7L124.4,23C124.5,23,124.4,23,124.4,23z"/>
<path d="M126.2,23.4c0-1.3,0.7-2.1,1.7-2.1c0.5,0,0.8,0.2,1,0.4v-1.6l0.7-0.3v5.8h-0.7v-0.4c-0.2,0.2-0.5,0.4-1,0.4
	C126.8,25.6,126.2,24.8,126.2,23.4z M128.9,24.4v-1.9c-0.2-0.2-0.5-0.5-0.9-0.5c-0.7,0-1.1,0.5-1.1,1.5c0,0.8,0.4,1.5,1.1,1.5
	C128.3,24.9,128.7,24.7,128.9,24.4z"/>
<path d="M130.7,23.4c0-1.4,0.7-2.1,1.8-2.1c0.9,0,1.7,0.6,1.7,1.9c0,0.1,0,0.3,0,0.5h-2.8c0.1,0.8,0.5,1.2,1.1,1.2
	c0.3,0,0.6-0.1,0.9-0.4l0.4,0.5c-0.3,0.3-0.8,0.5-1.3,0.5C131.4,25.6,130.7,24.7,130.7,23.4z M133.5,23.1c0-0.9-0.6-1.2-1-1.2
	c-0.6,0-1.1,0.4-1.1,1.2H133.5z"/>
<path d="M-0.5,43.2l0.6-0.3c0.2,0.4,0.5,0.6,1,0.6s1.1-0.2,1.1-1.3v-3.8h0.7v3.8c0,1.5-1,1.9-1.8,1.9C0.3,44.2-0.2,43.8-0.5,43.2z"
	/>
<path d="M6.8,43.7c-0.3,0.4-0.6,0.5-1,0.5c-1,0-1.5-0.5-1.5-1.8V40H5v2.5c0,0.8,0.4,1.1,0.9,1.1s0.9-0.3,0.9-1.1V40h0.7v4.1H6.8
	V43.7z"/>
<path d="M9.7,45.2c1.3-0.1,1.6-0.5,1.6-1v-0.5c-0.2,0.3-0.6,0.5-1.1,0.5c-0.9,0-1.7-0.7-1.7-2.1c0-1.3,0.7-2.1,1.7-2.1
	c0.6,0,0.9,0.3,1,0.4v-0.3h0.7V44c0,1.3-0.8,1.8-1.9,1.8L9.7,45.2z M11.3,43v-1.9c-0.2-0.3-0.6-0.5-0.9-0.5c-0.7,0-1.1,0.5-1.1,1.5
	c0,0.9,0.5,1.5,1.1,1.5C10.7,43.5,11.1,43.3,11.3,43z"/>
<path d="M13.1,42c0-1.4,0.7-2.1,1.8-2.1c0.9,0,1.7,0.6,1.7,1.9c0,0.1,0,0.3,0,0.5h-2.8c0.1,0.8,0.5,1.2,1.1,1.2
	c0.3,0,0.6-0.1,0.9-0.4l0.4,0.5c-0.3,0.3-0.8,0.5-1.3,0.5C13.8,44.2,13.1,43.3,13.1,42z M15.9,41.7c0-0.9-0.6-1.2-1-1.2
	c-0.6,0-1.1,0.4-1.1,1.2H15.9z"/>
<path d="M20.1,41.6c0-0.8-0.4-1.1-0.9-1.1s-0.9,0.3-0.9,1.1v2.5h-0.7V40h0.7v0.4c0.3-0.4,0.6-0.5,1.1-0.5c0.9,0,1.5,0.5,1.5,1.8v2.4
	h-0.7L20.1,41.6L20.1,41.6z"/>
<path d="M21.9,42c0-1.3,0.7-2.1,1.7-2.1c0.5,0,0.8,0.2,1,0.4v-1.6l0.7-0.3v5.8h-0.7v-0.3c-0.2,0.2-0.5,0.4-1,0.4
	C22.5,44.2,21.9,43.4,21.9,42z M24.6,43v-1.9c-0.2-0.2-0.5-0.5-0.9-0.5c-0.7,0-1.1,0.5-1.1,1.5c0,0.8,0.4,1.5,1.1,1.5
	C24,43.5,24.4,43.3,24.6,43z"/>
<path d="M26.4,42.1c0-1.3,0.7-2.1,1.8-2.1s1.8,0.8,1.8,2.1s-0.7,2.1-1.8,2.1S26.4,43.4,26.4,42.1z M29.3,42c0-0.9-0.4-1.5-1.1-1.5
	s-1.1,0.6-1.1,1.5s0.4,1.5,1.1,1.5S29.3,43,29.3,42z"/>
<path d="M31.1,40h0.7v0.5c0.2-0.4,0.6-0.6,1-0.6c0.2,0,0.4,0.1,0.6,0.2l-0.1,0.7c-0.1-0.1-0.3-0.2-0.6-0.2c-0.4,0-0.9,0.3-0.9,1.2
	v2.3h-0.7C31.1,44.1,31.1,40,31.1,40z"/>
<path d="M35.1,45.2c1.3-0.1,1.6-0.5,1.6-1v-0.5c-0.2,0.3-0.6,0.5-1.1,0.5c-0.9,0-1.7-0.7-1.7-2.1c0-1.3,0.7-2.1,1.7-2.1
	c0.6,0,0.9,0.3,1,0.4v-0.3h0.7V44c0,1.3-0.8,1.8-1.9,1.8L35.1,45.2z M36.7,43v-1.9c-0.2-0.3-0.6-0.5-0.9-0.5c-0.7,0-1.1,0.5-1.1,1.5
	c0,0.9,0.5,1.5,1.1,1.5C36.1,43.5,36.5,43.3,36.7,43z"/>
<path d="M41.1,43.7c-0.3,0.3-0.7,0.5-1.2,0.5c-0.8,0-1.4-0.5-1.4-1.4s0.7-1.4,1.5-1.4c0.4,0,0.7,0.1,1.1,0.3v-0.3
	c0-0.7-0.4-0.9-0.9-0.9s-0.9,0.2-1.2,0.4l-0.2-0.6c0.3-0.2,0.9-0.4,1.5-0.4s1.5,0.2,1.5,1.5v2.7h-0.7C41.1,44.1,41.1,43.7,41.1,43.7
	z M41.1,43v-0.7c-0.2-0.2-0.6-0.3-1-0.3c-0.5,0-1,0.2-1,0.8c0,0.5,0.3,0.8,0.9,0.8C40.5,43.6,40.8,43.3,41.1,43z"/>
<path d="M45.5,41.6c0-0.8-0.4-1.1-0.9-1.1s-0.9,0.3-0.9,1.1v2.5H43V40h0.6v0.4c0.3-0.4,0.6-0.5,1.1-0.5c0.9,0,1.5,0.5,1.5,1.8v2.4
	h-0.7C45.5,44.1,45.5,41.6,45.5,41.6z"/>
<path d="M47.4,38.8c0-0.2,0.2-0.4,0.4-0.4s0.4,0.2,0.4,0.4s-0.2,0.4-0.4,0.4C47.6,39.3,47.4,39.1,47.4,38.8z M47.5,40h0.7v4.1h-0.7
	V40z"/>
<path d="M49.2,43.5l0.5-0.4c0.2,0.2,0.6,0.5,1,0.5s0.8-0.2,0.8-0.5c0-0.4-0.5-0.6-0.9-0.8c-0.8-0.3-1.3-0.6-1.3-1.3s0.6-1.1,1.4-1.1
	c0.6,0,1.1,0.3,1.4,0.6l-0.5,0.4c-0.2-0.2-0.5-0.4-0.9-0.4S50,40.7,50,41s0.4,0.5,0.9,0.7c0.7,0.3,1.3,0.6,1.3,1.4
	c0,0.7-0.6,1.2-1.5,1.2C50.1,44.2,49.5,43.9,49.2,43.5z"/>
<path d="M55.6,43.7c-0.3,0.3-0.7,0.5-1.2,0.5c-0.8,0-1.4-0.5-1.4-1.4s0.7-1.4,1.5-1.4c0.4,0,0.7,0.1,1.1,0.3v-0.3
	c0-0.7-0.4-0.9-0.9-0.9s-0.9,0.2-1.2,0.4l-0.2-0.6c0.3-0.2,0.9-0.4,1.5-0.4s1.5,0.2,1.5,1.5v2.7h-0.7C55.6,44.1,55.6,43.7,55.6,43.7
	z M55.6,43v-0.7c-0.2-0.2-0.6-0.3-1-0.3c-0.5,0-1,0.2-1,0.8c0,0.5,0.3,0.8,0.9,0.8C55,43.6,55.3,43.3,55.6,43z"/>
<path d="M57.7,43.2v-2.6H57V40h0.7v-1.4l0.7-0.3V40h1v0.6h-1V43c0,0.3,0.1,0.6,0.4,0.6c0.2,0,0.4-0.1,0.6-0.2l-0.1,0.7
	c-0.2,0.1-0.5,0.2-0.8,0.2C57.9,44.2,57.7,43.8,57.7,43.2z"/>
<path d="M60.3,38.8c0-0.2,0.2-0.4,0.4-0.4s0.4,0.2,0.4,0.4s-0.2,0.4-0.4,0.4C60.5,39.3,60.3,39.1,60.3,38.8z M60.4,40h0.7v4.1h-0.7
	V40z"/>
<path d="M62.2,42.1c0-1.3,0.7-2.1,1.8-2.1s1.8,0.8,1.8,2.1s-0.7,2.1-1.8,2.1C62.9,44.2,62.2,43.4,62.2,42.1z M65.1,42
	c0-0.9-0.4-1.5-1.1-1.5s-1.1,0.6-1.1,1.5s0.4,1.5,1.1,1.5S65.1,43,65.1,42z"/>
<path d="M69.4,41.6c0-0.8-0.4-1.1-0.9-1.1s-0.9,0.3-0.9,1.1v2.5h-0.7V40h0.7v0.4c0.3-0.4,0.6-0.5,1.1-0.5c0.9,0,1.5,0.5,1.5,1.8v2.4
	h-0.7L69.4,41.6L69.4,41.6z"/>
<path d="M73,42c0-1.3,0.7-2.1,1.7-2.1c0.5,0,0.8,0.2,1,0.4v-1.6l0.7-0.3v5.8h-0.7v-0.3c-0.2,0.2-0.5,0.4-1,0.4
	C73.7,44.2,73,43.4,73,42z M75.7,43v-1.9c-0.2-0.2-0.5-0.5-0.9-0.5c-0.7,0-1.1,0.5-1.1,1.5c0,0.8,0.4,1.5,1.1,1.5
	C75.2,43.5,75.5,43.3,75.7,43z"/>
<path d="M77.5,42c0-1.4,0.7-2.1,1.8-2.1c0.9,0,1.7,0.6,1.7,1.9c0,0.1,0,0.3,0,0.5h-2.8c0.1,0.8,0.5,1.2,1.1,1.2
	c0.3,0,0.6-0.1,0.9-0.4l0.4,0.5c-0.3,0.3-0.8,0.5-1.3,0.5C78.2,44.2,77.5,43.3,77.5,42z M80.3,41.7c0-0.9-0.6-1.2-1-1.2
	c-0.6,0-1.1,0.4-1.1,1.2H80.3z"/>
<path d="M82.1,40h0.7v0.5c0.2-0.4,0.6-0.6,1-0.6c0.2,0,0.4,0.1,0.6,0.2l-0.1,0.7c-0.1-0.1-0.3-0.2-0.6-0.2c-0.4,0-0.9,0.3-0.9,1.2
	v2.3h-0.7V40z"/>
<path d="M90.5,41.5h-2.6v2.6h-0.7v-5.6h0.7v2.4h2.6v-2.4h0.7v5.6h-0.7V41.5z"/>
<path d="M92.6,38.8c0-0.2,0.2-0.4,0.4-0.4c0.2,0,0.4,0.2,0.4,0.4s-0.2,0.4-0.4,0.4C92.8,39.3,92.6,39.1,92.6,38.8z M92.7,40h0.7v4.1
	h-0.7V40z"/>
<path d="M94.7,38.7l0.7-0.3v5.8h-0.7V38.7z"/>
<path d="M97.7,44.1H97v-3.5h-0.6V40H97v-0.7c0-0.7,0.4-0.9,0.9-0.9c0.3,0,0.6,0.1,0.8,0.2v0.6c-0.2-0.1-0.4-0.2-0.6-0.2
	c-0.3,0-0.4,0.2-0.4,0.4V40h1v0.6h-1C97.7,40.6,97.7,44.1,97.7,44.1z"/>
<path d="M99,43.5l0.5-0.4c0.2,0.2,0.6,0.5,1,0.5s0.8-0.2,0.8-0.5c0-0.4-0.5-0.6-0.9-0.8c-0.8-0.3-1.3-0.6-1.3-1.3s0.6-1.1,1.4-1.1
	c0.6,0,1.1,0.3,1.4,0.6l-0.5,0.4c-0.2-0.2-0.5-0.4-0.9-0.4s-0.7,0.2-0.7,0.5s0.4,0.5,0.9,0.7c0.7,0.3,1.3,0.6,1.3,1.4
	c0,0.7-0.6,1.2-1.5,1.2C99.9,44.2,99.3,43.9,99,43.5z"/>
<path d="M102.7,40h0.7l0.6,2.7c0,0.2,0.1,0.3,0.1,0.4c0-0.1,0.1-0.3,0.1-0.4L105,40h0.6l0.8,2.7l0.1,0.4c0-0.1,0.1-0.3,0.1-0.4
	l0.6-2.7h0.7l-1,4.1h-0.6l-0.7-2.4c0-0.2-0.1-0.4-0.2-0.5c0,0.2-0.1,0.4-0.1,0.5l-0.7,2.4H104L102.7,40z"/>
<path d="M108.4,42c0-1.4,0.7-2.1,1.8-2.1c0.9,0,1.7,0.6,1.7,1.9c0,0.1,0,0.3,0,0.5h-2.8c0.1,0.8,0.5,1.2,1.1,1.2
	c0.3,0,0.6-0.1,0.9-0.4l0.4,0.5c-0.3,0.3-0.8,0.5-1.3,0.5C109.1,44.2,108.4,43.3,108.4,42z M111.2,41.7c0-0.9-0.6-1.2-1-1.2
	c-0.6,0-1.1,0.4-1.1,1.2H111.2z"/>
<path d="M113,40h0.7v0.5c0.2-0.4,0.6-0.6,1-0.6c0.2,0,0.4,0.1,0.6,0.2l-0.1,0.7c-0.1-0.1-0.3-0.2-0.6-0.2c-0.4,0-0.9,0.3-0.9,1.2
	v2.3H113V40z"/>
<path d="M118.7,44.1l-1.3-2.5l-0.6,0.6V44h-0.7v-5.4l0.7-0.3v3.1l1.3-1.4h0.8l-1.1,1.1l1.5,3C119.3,44.1,118.7,44.1,118.7,44.1z"/>
<path d="M120,42c0-1.4,0.7-2.1,1.8-2.1c0.9,0,1.7,0.6,1.7,1.9c0,0.1,0,0.3,0,0.5h-2.8c0.1,0.8,0.5,1.2,1.1,1.2
	c0.3,0,0.6-0.1,0.9-0.4l0.4,0.5c-0.3,0.3-0.8,0.5-1.3,0.5C120.7,44.2,120,43.3,120,42z M122.8,41.7c0-0.9-0.6-1.2-1-1.2
	c-0.6,0-1.1,0.4-1.1,1.2H122.8z"/>
<path d="M-0.5,61.2l0.6-0.3c0.2,0.4,0.5,0.6,1,0.6s1.1-0.2,1.1-1.3v-3.8h0.7v3.8c0,1.5-1,1.9-1.8,1.9C0.3,62.2-0.2,61.9-0.5,61.2z"
	/>
<path d="M6.8,61.7c-0.3,0.4-0.6,0.5-1,0.5c-1,0-1.5-0.5-1.5-1.8V58H5v2.5c0,0.8,0.4,1.1,0.9,1.1s0.9-0.3,0.9-1.1V58h0.7v4.1H6.8
	V61.7z"/>
<path d="M9.7,63.2c1.3-0.1,1.6-0.5,1.6-1v-0.5c-0.2,0.3-0.6,0.5-1.1,0.5c-0.9,0-1.7-0.7-1.7-2.1c0-1.3,0.7-2.1,1.7-2.1
	c0.6,0,0.9,0.3,1,0.4v-0.3h0.7V62c0,1.3-0.8,1.8-1.9,1.8L9.7,63.2z M11.3,61v-1.9c-0.2-0.3-0.6-0.5-0.9-0.5c-0.7,0-1.1,0.5-1.1,1.5
	c0,0.9,0.5,1.5,1.1,1.5C10.7,61.6,11.1,61.4,11.3,61z"/>
<path d="M13.1,60.1c0-1.4,0.7-2.1,1.8-2.1c0.9,0,1.7,0.6,1.7,1.9c0,0.1,0,0.3,0,0.5h-2.8c0.1,0.8,0.5,1.2,1.1,1.2
	c0.3,0,0.6-0.1,0.9-0.4l0.4,0.5c-0.3,0.3-0.8,0.5-1.3,0.5C13.8,62.2,13.1,61.3,13.1,60.1z M15.9,59.8c0-0.9-0.6-1.2-1-1.2
	c-0.6,0-1.1,0.4-1.1,1.2H15.9z"/>
<path d="M20.1,59.6c0-0.8-0.4-1.1-0.9-1.1s-0.9,0.3-0.9,1.1v2.5h-0.7V58h0.7v0.4c0.3-0.4,0.6-0.5,1.1-0.5c0.9,0,1.5,0.5,1.5,1.8v2.4
	h-0.7L20.1,59.6L20.1,59.6z"/>
<path d="M21.9,60.1c0-1.3,0.7-2.1,1.7-2.1c0.5,0,0.8,0.2,1,0.4v-1.6l0.7-0.3v5.8h-0.7V62c-0.2,0.2-0.5,0.4-1,0.4
	C22.5,62.2,21.9,61.4,21.9,60.1z M24.6,61v-1.9c-0.2-0.2-0.5-0.5-0.9-0.5c-0.7,0-1.1,0.5-1.1,1.5c0,0.8,0.4,1.5,1.1,1.5
	C24,61.6,24.4,61.4,24.6,61z"/>
<path d="M26.4,60.1c0-1.3,0.7-2.1,1.8-2.1s1.8,0.8,1.8,2.1s-0.7,2.1-1.8,2.1S26.4,61.4,26.4,60.1z M29.3,60.1c0-0.9-0.4-1.5-1.1-1.5
	s-1.1,0.6-1.1,1.5s0.4,1.5,1.1,1.5S29.3,61,29.3,60.1z"/>
<path d="M31.1,58h0.7v0.5c0.2-0.4,0.6-0.6,1-0.6c0.2,0,0.4,0.1,0.6,0.2l-0.1,0.7c-0.1-0.1-0.3-0.2-0.6-0.2c-0.4,0-0.9,0.3-0.9,1.2
	v2.3h-0.7C31.1,62.1,31.1,58,31.1,58z"/>
<path d="M35.1,63.2c1.3-0.1,1.6-0.5,1.6-1v-0.5c-0.2,0.3-0.6,0.5-1.1,0.5c-0.9,0-1.7-0.7-1.7-2.1c0-1.3,0.7-2.1,1.7-2.1
	c0.6,0,0.9,0.3,1,0.4v-0.3h0.7V62c0,1.3-0.8,1.8-1.9,1.8L35.1,63.2z M36.7,61v-1.9c-0.2-0.3-0.6-0.5-0.9-0.5c-0.7,0-1.1,0.5-1.1,1.5
	c0,0.9,0.5,1.5,1.1,1.5C36.1,61.6,36.5,61.4,36.7,61z"/>
<path d="M41.1,61.7c-0.3,0.3-0.7,0.5-1.2,0.5c-0.8,0-1.4-0.5-1.4-1.4s0.7-1.4,1.5-1.4c0.4,0,0.7,0.1,1.1,0.3v-0.3
	c0-0.7-0.4-0.9-0.9-0.9s-0.9,0.2-1.2,0.4l-0.2-0.6c0.3-0.2,0.9-0.4,1.5-0.4s1.5,0.2,1.5,1.5v2.7h-0.7C41.1,62.1,41.1,61.7,41.1,61.7
	z M41.1,61.1v-0.7c-0.2-0.2-0.6-0.3-1-0.3c-0.5,0-1,0.2-1,0.8c0,0.5,0.3,0.8,0.9,0.8C40.5,61.6,40.8,61.3,41.1,61.1z"/>
<path d="M45.5,59.6c0-0.8-0.4-1.1-0.9-1.1s-0.9,0.3-0.9,1.1v2.5H43V58h0.6v0.4c0.3-0.4,0.6-0.5,1.1-0.5c0.9,0,1.5,0.5,1.5,1.8v2.4
	h-0.7C45.5,62.1,45.5,59.6,45.5,59.6z"/>
<path d="M47.4,56.9c0-0.2,0.2-0.4,0.4-0.4s0.4,0.2,0.4,0.4s-0.2,0.4-0.4,0.4S47.4,57.1,47.4,56.9z M47.5,58h0.7v4.1h-0.7V58z"/>
<path d="M49.2,61.5l0.5-0.4c0.2,0.2,0.6,0.5,1,0.5s0.8-0.2,0.8-0.5c0-0.4-0.5-0.6-0.9-0.8c-0.8-0.3-1.3-0.6-1.3-1.3s0.6-1.1,1.4-1.1
	c0.6,0,1.1,0.3,1.4,0.6l-0.5,0.4c-0.2-0.2-0.5-0.4-0.9-0.4S50,58.7,50,59s0.4,0.5,0.9,0.7c0.7,0.3,1.3,0.6,1.3,1.4
	c0,0.7-0.6,1.2-1.5,1.2C50.1,62.2,49.5,61.9,49.2,61.5z"/>
<path d="M55.6,61.7c-0.3,0.3-0.7,0.5-1.2,0.5c-0.8,0-1.4-0.5-1.4-1.4s0.7-1.4,1.5-1.4c0.4,0,0.7,0.1,1.1,0.3v-0.3
	c0-0.7-0.4-0.9-0.9-0.9s-0.9,0.2-1.2,0.4l-0.2-0.6c0.3-0.2,0.9-0.4,1.5-0.4s1.5,0.2,1.5,1.5v2.7h-0.7C55.6,62.1,55.6,61.7,55.6,61.7
	z M55.6,61.1v-0.7c-0.2-0.2-0.6-0.3-1-0.3c-0.5,0-1,0.2-1,0.8c0,0.5,0.3,0.8,0.9,0.8C55,61.6,55.3,61.3,55.6,61.1z"/>
<path d="M57.7,61.2v-2.6H57V58h0.7v-1.4l0.7-0.3V58h1v0.6h-1V61c0,0.3,0.1,0.6,0.4,0.6c0.2,0,0.4-0.1,0.6-0.2l-0.1,0.7
	c-0.2,0.1-0.5,0.2-0.8,0.2C57.9,62.2,57.7,61.8,57.7,61.2z"/>
<path d="M60.3,56.9c0-0.2,0.2-0.4,0.4-0.4s0.4,0.2,0.4,0.4s-0.2,0.4-0.4,0.4S60.3,57.1,60.3,56.9z M60.4,58h0.7v4.1h-0.7V58z"/>
<path d="M62.2,60.1c0-1.3,0.7-2.1,1.8-2.1s1.8,0.8,1.8,2.1s-0.7,2.1-1.8,2.1C62.9,62.2,62.2,61.4,62.2,60.1z M65.1,60.1
	c0-0.9-0.4-1.5-1.1-1.5s-1.1,0.6-1.1,1.5s0.4,1.5,1.1,1.5S65.1,61,65.1,60.1z"/>
<path d="M69.4,59.6c0-0.8-0.4-1.1-0.9-1.1s-0.9,0.3-0.9,1.1v2.5h-0.7V58h0.7v0.4c0.3-0.4,0.6-0.5,1.1-0.5c0.9,0,1.5,0.5,1.5,1.8v2.4
	h-0.7L69.4,59.6L69.4,59.6z"/>
<path d="M71.2,60.1c0-1.4,0.7-2.1,1.8-2.1c0.9,0,1.7,0.6,1.7,1.9c0,0.1,0,0.3,0,0.5h-2.8c0.1,0.8,0.5,1.2,1.1,1.2
	c0.3,0,0.6-0.1,0.9-0.4l0.4,0.5C74,62,73.6,62.2,73,62.2C71.9,62.2,71.2,61.3,71.2,60.1z M74,59.8c0-0.9-0.6-1.2-1-1.2
	c-0.6,0-1.1,0.4-1.1,1.2H74z"/>
<path d="M78.2,59.6c0-0.8-0.4-1.1-0.9-1.1s-0.9,0.3-0.9,1.1v2.5h-0.7V58h0.7v0.4c0.3-0.4,0.6-0.5,1.1-0.5c0.9,0,1.5,0.5,1.5,1.8v2.4
	h-0.7L78.2,59.6L78.2,59.6z"/>
<path d="M81.8,60.1c0-1.3,0.7-2.1,1.7-2.1c0.5,0,0.8,0.2,1,0.4v-1.6l0.7-0.3v5.8h-0.6V62c-0.2,0.2-0.5,0.4-1,0.4
	C82.5,62.2,81.8,61.4,81.8,60.1z M84.6,61v-1.9c-0.2-0.2-0.5-0.5-0.9-0.5c-0.7,0-1.1,0.5-1.1,1.5c0,0.8,0.4,1.5,1.1,1.5
	C84,61.6,84.3,61.4,84.6,61z"/>
<path d="M86.3,60.1c0-1.4,0.7-2.1,1.8-2.1c0.9,0,1.7,0.6,1.7,1.9c0,0.1,0,0.3,0,0.5H87c0.1,0.8,0.5,1.2,1.1,1.2
	c0.3,0,0.6-0.1,0.9-0.4l0.4,0.5c-0.3,0.3-0.8,0.5-1.3,0.5C87,62.2,86.3,61.3,86.3,60.1z M89.1,59.8c0-0.9-0.6-1.2-1-1.2
	c-0.6,0-1.1,0.4-1.1,1.2H89.1z"/>
<path d="M90.9,58h0.7v0.5c0.2-0.4,0.6-0.6,1-0.6c0.2,0,0.4,0.1,0.6,0.2l-0.1,0.7c-0.1-0.1-0.3-0.2-0.6-0.2c-0.4,0-0.9,0.3-0.9,1.2
	v2.3h-0.7V58z"/>
<path d="M95.5,56.5h0.7l0.7,3.6c0,0.2,0.1,0.4,0.1,0.6c0-0.2,0.1-0.3,0.2-0.6l1-3.7h0.6l1,3.6c0.1,0.2,0.1,0.4,0.1,0.5
	c0-0.2,0.1-0.3,0.1-0.6l0.8-3.6h0.7l-1.2,5.6h-0.7l-1.1-3.8c-0.1-0.2-0.1-0.4-0.1-0.6c0,0.2-0.1,0.3-0.1,0.6l-1.1,3.8h-0.6
	L95.5,56.5z"/>
<path d="M102.4,56.9c0-0.2,0.2-0.4,0.4-0.4c0.2,0,0.4,0.2,0.4,0.4s-0.2,0.4-0.4,0.4C102.5,57.3,102.4,57.1,102.4,56.9z M102.4,58
	h0.7v4.1h-0.7V58z"/>
<path d="M104.5,58h0.7v0.5c0.2-0.4,0.6-0.6,1-0.6c0.2,0,0.4,0.1,0.6,0.2l-0.1,0.7c-0.1-0.1-0.3-0.2-0.6-0.2c-0.4,0-0.9,0.3-0.9,1.2
	v2.3h-0.7V58z"/>
<path d="M108,61.2v-2.6h-0.7V58h0.7v-1.4l0.7-0.3V58h1v0.6h-1V61c0,0.3,0.1,0.6,0.4,0.6c0.2,0,0.4-0.1,0.6-0.2l-0.1,0.7
	c-0.2,0.1-0.5,0.2-0.8,0.2C108.2,62.2,108,61.8,108,61.2z"/>
<path d="M110.5,61.5l0.5-0.4c0.2,0.2,0.6,0.5,1,0.5s0.8-0.2,0.8-0.5c0-0.4-0.5-0.6-0.9-0.8c-0.8-0.3-1.3-0.6-1.3-1.3
	s0.6-1.1,1.4-1.1c0.6,0,1.1,0.3,1.4,0.6l-0.5,0.4c-0.2-0.2-0.5-0.4-0.9-0.4s-0.7,0.2-0.7,0.5s0.4,0.5,0.9,0.7
	c0.7,0.3,1.3,0.6,1.3,1.4c0,0.7-0.6,1.2-1.5,1.2C111.4,62.2,110.8,61.9,110.5,61.5z"/>
<path d="M114.3,60.1c0-1.3,0.7-2.1,1.7-2.1c0.7,0,1.2,0.3,1.4,1l-0.7,0.2c-0.1-0.3-0.4-0.5-0.8-0.5c-0.7,0-1,0.6-1,1.5
	s0.3,1.5,1,1.5c0.4,0,0.7-0.2,0.8-0.6l0.6,0.2c-0.2,0.7-0.7,1-1.5,1C114.9,62.2,114.3,61.4,114.3,60.1z"/>
<path d="M118.5,56.7l0.7-0.3v2.1c0.3-0.4,0.6-0.5,1.1-0.5c0.9,0,1.5,0.5,1.5,1.8v2.4h-0.7v-2.5c0-0.8-0.4-1.1-0.9-1.1
	s-0.9,0.3-0.9,1.1v2.5h-0.7L118.5,56.7L118.5,56.7z"/>
<path d="M125.3,61.7c-0.3,0.3-0.7,0.5-1.2,0.5c-0.8,0-1.4-0.5-1.4-1.4s0.7-1.4,1.5-1.4c0.4,0,0.7,0.1,1.1,0.3v-0.3
	c0-0.7-0.4-0.9-0.9-0.9s-0.9,0.2-1.2,0.4l-0.2-0.6c0.3-0.2,0.9-0.4,1.5-0.4s1.5,0.2,1.5,1.5v2.7h-0.7L125.3,61.7L125.3,61.7z
	 M125.3,61.1v-0.7c-0.2-0.2-0.6-0.3-1-0.3c-0.5,0-1,0.2-1,0.8c0,0.5,0.3,0.8,0.9,0.8C124.7,61.6,125.1,61.3,125.3,61.1z"/>
<path d="M128.1,62.1h-0.7v-3.5h-0.6V58h0.6v-0.7c0-0.7,0.4-0.9,0.9-0.9c0.3,0,0.6,0.1,0.8,0.2v0.6c-0.2-0.1-0.4-0.2-0.6-0.2
	c-0.3,0-0.4,0.2-0.4,0.4V58h1v0.6h-1V62.1z"/>
<path d="M130.2,61.2v-2.6h-0.7V58h0.7v-1.4l0.7-0.3V58h1v0.6h-1V61c0,0.3,0.1,0.6,0.4,0.6c0.2,0,0.4-0.1,0.6-0.2l-0.1,0.7
	c-0.2,0.1-0.5,0.2-0.8,0.2C130.4,62.2,130.2,61.8,130.2,61.2z"/>
<path d="M1.7,76.9l-1,1.2V80H0v-5.6h0.7v2.7l2.2-2.7h0.8l-1.5,1.9l2,3.7H3.4L1.7,76.9z"/>
<path d="M5.1,74.7c0-0.2,0.2-0.4,0.4-0.4c0.2,0,0.4,0.2,0.4,0.4s-0.2,0.4-0.4,0.4S5.1,74.9,5.1,74.7z M5.2,75.9h0.7V80H5.2V75.9z"/>
<path d="M9.8,77.5c0-0.8-0.4-1.1-0.9-1.1S8,76.7,8,77.5V80H7.3v-4.1H8v0.4c0.3-0.4,0.6-0.5,1.1-0.5c0.9,0,1.5,0.5,1.5,1.8V80H9.9
	L9.8,77.5C9.9,77.5,9.8,77.5,9.8,77.5z"/>
<path d="M11.5,77.9c0-1.3,0.7-2.1,1.7-2.1c0.5,0,0.8,0.2,1,0.4v-1.6l0.7-0.3v5.8h-0.7v-0.3c-0.2,0.2-0.5,0.4-1,0.4
	C12.1,80,11.5,79.2,11.5,77.9z M14.2,78.8v-1.9c-0.2-0.2-0.5-0.5-0.9-0.5c-0.7,0-1.1,0.5-1.1,1.5c0,0.8,0.4,1.5,1.1,1.5
	C13.7,79.4,14,79.2,14.2,78.8z"/>
<path d="M16,77.9c0-1.4,0.7-2.1,1.8-2.1c0.9,0,1.7,0.6,1.7,1.9c0,0.1,0,0.3,0,0.5h-2.8c0.1,0.8,0.5,1.2,1.1,1.2
	c0.3,0,0.6-0.1,0.9-0.4l0.4,0.5c-0.3,0.3-0.8,0.5-1.3,0.5C16.7,80,16,79.2,16,77.9z M18.8,77.6c0-0.9-0.6-1.2-1-1.2
	c-0.6,0-1.1,0.4-1.1,1.2H18.8z"/>
<path d="M20.5,75.9h0.7v0.5c0.2-0.4,0.6-0.6,1-0.6c0.2,0,0.4,0.1,0.6,0.2l-0.1,0.7c-0.1-0.1-0.3-0.2-0.6-0.2c-0.4,0-0.9,0.3-0.9,1.2
	V80h-0.7V75.9z"/>
<path d="M23.5,77.2h1.9v0.7h-1.9V77.2z"/>
<path d="M31.1,79.6c-0.3,0.4-0.6,0.5-1,0.5c-1,0-1.5-0.5-1.5-1.8v-2.4h0.7v2.5c0,0.8,0.4,1.1,0.9,1.1s0.9-0.3,0.9-1.1v-2.5h0.7V80
	h-0.7V79.6z"/>
<path d="M35.6,77.5c0-0.8-0.4-1.1-0.9-1.1s-0.9,0.3-0.9,1.1V80h-0.7v-4.1h0.7v0.4c0.3-0.4,0.6-0.5,1.1-0.5c0.9,0,1.5,0.5,1.5,1.8V80
	h-0.8C35.6,80,35.6,77.5,35.6,77.5z"/>
<path d="M37.3,77.9c0-1.3,0.7-2.1,1.7-2.1c0.5,0,0.8,0.2,1,0.4v-1.6l0.7-0.3v5.8H40v-0.3c-0.2,0.2-0.5,0.4-1,0.4
	C38,80,37.3,79.2,37.3,77.9z M40.1,78.8v-1.9c-0.2-0.2-0.5-0.5-0.9-0.5c-0.7,0-1.1,0.5-1.1,1.5c0,0.8,0.4,1.5,1.1,1.5
	C39.5,79.4,39.9,79.2,40.1,78.8z"/>
<path d="M43.5,79l0.6-0.3c0.2,0.4,0.5,0.6,1,0.6s1.1-0.2,1.1-1.3v-3.8h0.7V78c0,1.5-1,1.9-1.8,1.9C44.3,80,43.8,79.7,43.5,79z"/>
<path d="M50.8,79.6c-0.3,0.4-0.6,0.5-1,0.5c-1,0-1.5-0.5-1.5-1.8v-2.4H49v2.5c0,0.8,0.4,1.1,0.9,1.1s0.9-0.3,0.9-1.1v-2.5h0.7V80
	h-0.7C50.8,80,50.8,79.6,50.8,79.6z"/>
<path d="M53.7,81.1c1.3-0.1,1.6-0.5,1.6-1v-0.5c-0.2,0.3-0.6,0.5-1.1,0.5c-0.9,0-1.7-0.7-1.7-2.1c0-1.3,0.7-2.1,1.7-2.1
	c0.6,0,0.9,0.3,1,0.4V76h0.7v3.9c0,1.3-0.8,1.8-1.9,1.8L53.7,81.1z M55.3,78.8v-1.9c-0.2-0.3-0.6-0.5-0.9-0.5
	c-0.7,0-1.1,0.5-1.1,1.5c0,0.9,0.5,1.5,1.1,1.5C54.7,79.4,55.1,79.2,55.3,78.8z"/>
<path d="M57.1,77.9c0-1.4,0.7-2.1,1.8-2.1c0.9,0,1.7,0.6,1.7,1.9c0,0.1,0,0.3,0,0.5h-2.8c0.1,0.8,0.5,1.2,1.1,1.2
	c0.3,0,0.6-0.1,0.9-0.4l0.4,0.5c-0.3,0.3-0.8,0.5-1.3,0.5C57.8,80,57.1,79.2,57.1,77.9z M59.9,77.6c0-0.9-0.6-1.2-1-1.2
	c-0.6,0-1.1,0.4-1.1,1.2H59.9z"/>
<path d="M64.1,77.5c0-0.8-0.4-1.1-0.9-1.1s-0.9,0.3-0.9,1.1V80h-0.7v-4.1h0.7v0.4c0.3-0.4,0.6-0.5,1.1-0.5c0.9,0,1.5,0.5,1.5,1.8V80
	h-0.7L64.1,77.5L64.1,77.5z"/>
<path d="M65.9,77.9c0-1.3,0.7-2.1,1.7-2.1c0.5,0,0.8,0.2,1,0.4v-1.6l0.7-0.3v5.8h-0.7v-0.3c-0.2,0.2-0.5,0.4-1,0.4
	C66.5,80,65.9,79.2,65.9,77.9z M68.6,78.8v-1.9c-0.2-0.2-0.5-0.5-0.9-0.5c-0.7,0-1.1,0.5-1.1,1.5c0,0.8,0.4,1.5,1.1,1.5
	C68,79.4,68.4,79.2,68.6,78.8z"/>
<path d="M71.5,80h-0.7v-3.5h-0.6v-0.6h0.6v-0.7c0-0.7,0.4-0.9,0.9-0.9c0.3,0,0.6,0.1,0.8,0.2v0.6c-0.2-0.1-0.4-0.2-0.6-0.2
	c-0.3,0-0.4,0.2-0.4,0.4v0.6h1v0.6h-1C71.5,76.5,71.5,80,71.5,80z"/>
<path d="M73.3,75.9H74v0.5c0.2-0.4,0.6-0.6,1-0.6c0.2,0,0.4,0.1,0.6,0.2l-0.1,0.7c-0.1-0.1-0.3-0.2-0.6-0.2c-0.4,0-0.9,0.3-0.9,1.2
	V80h-0.7V75.9z"/>
<path d="M76.2,77.9c0-1.4,0.7-2.1,1.8-2.1c0.9,0,1.7,0.6,1.7,1.9c0,0.1,0,0.3,0,0.5h-2.8c0.1,0.8,0.5,1.2,1.1,1.2
	c0.3,0,0.6-0.1,0.9-0.4l0.4,0.5C79,79.8,78.5,80,78,80C76.9,80,76.2,79.2,76.2,77.9z M79,77.6c0-0.9-0.6-1.2-1-1.2
	c-0.6,0-1.1,0.4-1.1,1.2H79z"/>
<path d="M80.7,74.7c0-0.2,0.2-0.4,0.4-0.4c0.2,0,0.4,0.2,0.4,0.4s-0.2,0.4-0.4,0.4C80.8,75.1,80.7,74.9,80.7,74.7z M80.7,75.9h0.7
	V80h-0.7V75.9z"/>
<path d="M82.6,79.4l2.1-3h-2v-0.6h2.8v0.5l-2.1,3h2.1v0.6h-3L82.6,79.4L82.6,79.4z"/>
<path d="M86.6,77.9c0-1.4,0.7-2.1,1.8-2.1c0.9,0,1.7,0.6,1.7,1.9c0,0.1,0,0.3,0,0.5h-2.8c0.1,0.8,0.5,1.2,1.1,1.2
	c0.3,0,0.6-0.1,0.9-0.4l0.4,0.5c-0.3,0.3-0.8,0.5-1.3,0.5C87.3,80,86.6,79.2,86.6,77.9z M89.4,77.6c0-0.9-0.6-1.2-1-1.2
	c-0.6,0-1.1,0.4-1.1,1.2H89.4z"/>
<path d="M91,74.7c0-0.2,0.2-0.4,0.4-0.4c0.2,0,0.4,0.2,0.4,0.4s-0.2,0.4-0.4,0.4S91,74.9,91,74.7z M91.1,75.9h0.7V80h-0.7V75.9z"/>
<path d="M93.4,79.1v-2.6h-0.7v-0.6h0.7v-1.4l0.7-0.3v1.7h1v0.6h-1v2.4c0,0.3,0.1,0.6,0.4,0.6c0.2,0,0.4-0.1,0.6-0.2L95,80
	c-0.2,0.1-0.5,0.2-0.8,0.2C93.6,80,93.4,79.6,93.4,79.1z"/>
<path d="M95.8,77.9c0-1.4,0.7-2.1,1.8-2.1c0.9,0,1.7,0.6,1.7,1.9c0,0.1,0,0.3,0,0.5h-2.8c0.1,0.8,0.5,1.2,1.1,1.2
	c0.3,0,0.6-0.1,0.9-0.4l0.4,0.5c-0.3,0.3-0.8,0.5-1.3,0.5C96.5,80,95.8,79.2,95.8,77.9z M98.6,77.6c0-0.9-0.6-1.2-1-1.2
	c-0.6,0-1.1,0.4-1.1,1.2H98.6z"/>
<path d="M100.3,74.7c0-0.2,0.2-0.4,0.4-0.4c0.2,0,0.4,0.2,0.4,0.4s-0.2,0.4-0.4,0.4S100.3,74.9,100.3,74.7z M100.4,75.9h0.7V80h-0.7
	V75.9z"/>
<path d="M104.9,77.5c0-0.8-0.4-1.1-0.9-1.1s-0.9,0.3-0.9,1.1V80h-0.7v-4.1h0.7v0.4c0.3-0.4,0.6-0.5,1.1-0.5c0.9,0,1.5,0.5,1.5,1.8
	V80H105L104.9,77.5L104.9,77.5z"/>
<path d="M106.9,75.9h0.7v0.5c0.2-0.4,0.6-0.6,1-0.6c0.2,0,0.4,0.1,0.6,0.2l-0.1,0.7c-0.1-0.1-0.3-0.2-0.6-0.2
	c-0.4,0-0.9,0.3-0.9,1.2V80h-0.7V75.9z"/>
<path d="M110,74.7c0-0.2,0.2-0.4,0.4-0.4s0.4,0.2,0.4,0.4s-0.2,0.4-0.4,0.4S110,74.9,110,74.7z M110.1,75.9h0.7V80h-0.7V75.9z"/>
<path d="M111.8,77.9c0-1.3,0.7-2.1,1.7-2.1c0.7,0,1.2,0.3,1.4,1l-0.7,0.2c-0.1-0.3-0.4-0.5-0.8-0.5c-0.7,0-1,0.6-1,1.5
	s0.3,1.5,1,1.5c0.4,0,0.7-0.2,0.8-0.6l0.6,0.2c-0.2,0.7-0.7,1-1.5,1C112.5,80,111.8,79.3,111.8,77.9z"/>
<path d="M116.1,74.5l0.7-0.3v2.1c0.3-0.4,0.6-0.5,1.1-0.5c0.9,0,1.5,0.5,1.5,1.8V80h-0.8v-2.5c0-0.8-0.4-1.1-0.9-1.1
	s-0.9,0.3-0.9,1.1V80h-0.7L116.1,74.5L116.1,74.5z"/>
<path d="M120.8,79.1v-2.6h-0.7v-0.6h0.7v-1.4l0.7-0.3v1.7h1v0.6h-1v2.4c0,0.3,0.1,0.6,0.4,0.6c0.2,0,0.4-0.1,0.6-0.2l-0.1,0.7
	c-0.2,0.1-0.5,0.2-0.8,0.2C121.1,80,120.8,79.6,120.8,79.1z"/>
<path d="M125.9,79.6c-0.3,0.4-0.6,0.5-1,0.5c-1,0-1.5-0.5-1.5-1.8v-2.4h0.7v2.5c0,0.8,0.4,1.1,0.9,1.1s0.9-0.3,0.9-1.1v-2.5h0.7V80
	h-0.7V79.6L125.9,79.6z"/>
<path d="M130.4,77.5c0-0.8-0.4-1.1-0.9-1.1s-0.9,0.3-0.9,1.1V80h-0.7v-4.1h0.7v0.4c0.3-0.4,0.6-0.5,1.1-0.5c0.9,0,1.5,0.5,1.5,1.8
	V80h-0.7v-2.5C130.5,77.5,130.4,77.5,130.4,77.5z"/>
<path d="M133.3,81.1c1.3-0.1,1.6-0.5,1.6-1v-0.5c-0.2,0.3-0.6,0.5-1.1,0.5c-0.9,0-1.7-0.7-1.7-2.1c0-1.3,0.7-2.1,1.7-2.1
	c0.6,0,0.9,0.3,1,0.4V76h0.7v3.9c0,1.3-0.8,1.8-1.9,1.8L133.3,81.1z M134.9,78.8v-1.9c-0.2-0.3-0.6-0.5-0.9-0.5
	c-0.7,0-1.1,0.5-1.1,1.5c0,0.9,0.5,1.5,1.1,1.5C134.3,79.4,134.7,79.2,134.9,78.8z"/>
<path d="M0,91.9h2.1c1.4,0,1.8,0.8,1.8,1.7c0,0.8-0.5,1.7-1.8,1.7H0.7v2.2H0V91.9z M3.3,93.6c0-0.4-0.2-1-1.1-1H0.7v2.1h1.5
	C3,94.6,3.3,94.1,3.3,93.6z"/>
<path d="M5.9,97.5H5.2V94H4.6v-0.6h0.6v-0.7c0-0.7,0.4-0.9,0.9-0.9c0.3,0,0.6,0.1,0.8,0.2v0.6c-0.2-0.1-0.4-0.2-0.6-0.2
	c-0.3,0-0.4,0.2-0.4,0.4v0.6h1V94h-1V97.5z"/>
<path d="M10,97.2c-0.3,0.3-0.7,0.5-1.2,0.5c-0.8,0-1.4-0.5-1.4-1.4s0.7-1.4,1.5-1.4c0.4,0,0.7,0.1,1.1,0.3v-0.3
	c0-0.7-0.4-0.9-0.9-0.9s-0.9,0.2-1.2,0.4l-0.2-0.6c0.3-0.2,0.9-0.4,1.5-0.4s1.5,0.2,1.5,1.5v2.7H10C10,97.6,10,97.2,10,97.2z
	 M10,96.5v-0.7c-0.2-0.2-0.6-0.3-1-0.3c-0.5,0-1,0.2-1,0.8c0,0.5,0.3,0.8,0.9,0.8C9.4,97,9.7,96.7,10,96.5z"/>
<path d="M11.6,95.5c0-1.3,0.7-2.1,1.7-2.1c0.5,0,0.8,0.2,1,0.4v-1.6l0.7-0.3v5.8h-0.7v-0.5c-0.2,0.2-0.5,0.4-1,0.4
	C12.2,97.6,11.6,96.8,11.6,95.5z M14.3,96.4v-1.9c-0.2-0.2-0.5-0.5-0.9-0.5c-0.7,0-1.1,0.5-1.1,1.5c0,0.8,0.4,1.5,1.1,1.5
	C13.8,97,14.1,96.8,14.3,96.4z"/>
<path d="M17.3,97.5h-0.7V94H16v-0.6h0.6v-0.7c0-0.7,0.4-0.9,0.9-0.9c0.3,0,0.6,0.1,0.8,0.2v0.6c-0.2-0.1-0.4-0.2-0.6-0.2
	c-0.3,0-0.4,0.2-0.4,0.4v0.6h1V94h-1V97.5z M18.9,92.3c0-0.2,0.2-0.4,0.4-0.4s0.4,0.2,0.4,0.4c0,0.2-0.2,0.4-0.4,0.4
	S18.9,92.5,18.9,92.3z M19,93.4h0.7v4.1H19V93.4z"/>
<path d="M23.5,95.1c0-0.8-0.4-1.1-0.9-1.1s-0.9,0.3-0.9,1.1v2.5H21v-4.1h0.7v0.4c0.3-0.4,0.6-0.5,1.1-0.5c0.9,0,1.5,0.5,1.5,1.8v2.4
	h-0.7L23.5,95.1L23.5,95.1z"/>
<path d="M25.3,95.5c0-1.3,0.7-2.1,1.7-2.1c0.5,0,0.8,0.2,1,0.4v-1.6l0.7-0.3v5.8H28v-0.5c-0.2,0.2-0.5,0.4-1,0.4
	C25.9,97.6,25.3,96.8,25.3,95.5z M28,96.4v-1.9c-0.2-0.2-0.5-0.5-0.9-0.5c-0.7,0-1.1,0.5-1.1,1.5c0,0.8,0.4,1.5,1.1,1.5
	C27.5,97,27.8,96.8,28,96.4z"/>
<path d="M29.8,95.5c0-1.4,0.7-2.1,1.8-2.1c0.9,0,1.7,0.6,1.7,1.9c0,0.1,0,0.3,0,0.5h-2.8c0.1,0.8,0.5,1.2,1.1,1.2
	c0.3,0,0.6-0.1,0.9-0.4l0.4,0.5c-0.3,0.3-0.8,0.5-1.3,0.5C30.5,97.6,29.8,96.7,29.8,95.5z M32.6,95.2c0-0.9-0.6-1.2-1-1.2
	c-0.6,0-1.1,0.4-1.1,1.2H32.6z"/>
<path d="M34.3,93.4H35v0.5c0.2-0.4,0.6-0.6,1-0.6c0.2,0,0.4,0.1,0.6,0.2l-0.1,0.7c-0.1-0.1-0.3-0.2-0.6-0.2c-0.4,0-0.9,0.3-0.9,1.2
	v2.3h-0.7V93.4z"/>
<path d="M37.3,95.5c0-1.3,0.7-2.1,1.8-2.1s1.8,0.8,1.8,2.1c0,1.3-0.7,2.1-1.8,2.1S37.3,96.8,37.3,95.5z M40.2,95.5
	c0-0.9-0.4-1.5-1.1-1.5S38,94.6,38,95.5s0.4,1.5,1.1,1.5C39.7,97,40.2,96.4,40.2,95.5z"/>
<path d="M42,93.4h0.7v0.5c0.2-0.4,0.6-0.6,1-0.6c0.2,0,0.4,0.1,0.6,0.2l-0.1,0.7c-0.1-0.1-0.3-0.2-0.6-0.2c-0.4,0-0.9,0.3-0.9,1.2
	v2.3H42V93.4z"/>
<path d="M46,98.6c1.3-0.1,1.6-0.5,1.6-1v-0.5c-0.2,0.3-0.6,0.5-1.1,0.5c-0.9,0-1.7-0.7-1.7-2.1c0-1.3,0.7-2.1,1.7-2.1
	c0.6,0,0.9,0.3,1,0.4v-0.3h0.7v3.9c0,1.3-0.8,1.8-1.9,1.8L46,98.6z M47.6,96.4v-1.9C47.4,94.2,47,94,46.7,94c-0.7,0-1.1,0.5-1.1,1.5
	c0,0.9,0.5,1.5,1.1,1.5C47,97,47.4,96.8,47.6,96.4z"/>
<path d="M52,97.2c-0.3,0.3-0.7,0.5-1.2,0.5c-0.8,0-1.4-0.5-1.4-1.4s0.7-1.4,1.5-1.4c0.4,0,0.7,0.1,1.1,0.3v-0.3
	c0-0.7-0.4-0.9-0.9-0.9s-0.9,0.2-1.2,0.4l-0.2-0.6c0.3-0.2,0.9-0.4,1.5-0.4s1.5,0.2,1.5,1.5v2.7H52C52,97.6,52,97.2,52,97.2z
	 M52,96.5v-0.7c-0.2-0.2-0.6-0.3-1-0.3c-0.5,0-1,0.2-1,0.8c0,0.5,0.3,0.8,0.9,0.8C51.4,97,51.7,96.7,52,96.5z"/>
<path d="M56.3,95.1c0-0.8-0.4-1.1-0.9-1.1s-0.9,0.3-0.9,1.1v2.5h-0.7v-4.1h0.7v0.4c0.3-0.4,0.6-0.5,1.1-0.5c0.9,0,1.5,0.5,1.5,1.8
	v2.4h-0.7L56.3,95.1L56.3,95.1z"/>
<path d="M58.3,92.3c0-0.2,0.2-0.4,0.4-0.4s0.4,0.2,0.4,0.4c0,0.2-0.2,0.4-0.4,0.4C58.4,92.7,58.3,92.5,58.3,92.3z M58.3,93.4H59v4.1
	h-0.7V93.4z"/>
<path d="M60.1,96.9l0.5-0.4c0.2,0.2,0.6,0.5,1,0.5s0.8-0.2,0.8-0.5c0-0.4-0.5-0.6-0.9-0.8c-0.8-0.3-1.3-0.6-1.3-1.3s0.6-1.1,1.4-1.1
	c0.6,0,1.1,0.3,1.4,0.6l-0.5,0.4c-0.2-0.2-0.5-0.4-0.9-0.4s-0.7,0.2-0.7,0.5s0.4,0.5,0.9,0.7c0.7,0.3,1.3,0.6,1.3,1.4
	c0,0.7-0.6,1.2-1.5,1.2C61,97.6,60.4,97.3,60.1,96.9z"/>
<path d="M66.5,97.2c-0.3,0.3-0.7,0.5-1.2,0.5c-0.8,0-1.4-0.5-1.4-1.4s0.7-1.4,1.5-1.4c0.4,0,0.7,0.1,1.1,0.3v-0.3
	c0-0.7-0.4-0.9-0.9-0.9s-0.9,0.2-1.2,0.4l-0.2-0.6c0.3-0.2,0.9-0.4,1.5-0.4s1.5,0.2,1.5,1.5v2.7h-0.7C66.5,97.6,66.5,97.2,66.5,97.2
	z M66.5,96.5v-0.7c-0.2-0.2-0.6-0.3-1-0.3c-0.5,0-1,0.2-1,0.8c0,0.5,0.3,0.8,0.9,0.8C65.9,97,66.2,96.7,66.5,96.5z"/>
<path d="M68.6,96.6V94h-0.7v-0.6h0.7V92l0.7-0.3v1.7h1V94h-1v2.4c0,0.3,0.1,0.6,0.4,0.6c0.2,0,0.4-0.1,0.6-0.2l-0.1,0.7
	c-0.2,0.1-0.5,0.2-0.8,0.2C68.8,97.6,68.6,97.2,68.6,96.6z"/>
<path d="M71.2,92.3c0-0.2,0.2-0.4,0.4-0.4c0.2,0,0.4,0.2,0.4,0.4c0,0.2-0.2,0.4-0.4,0.4C71.4,92.7,71.2,92.5,71.2,92.3z M71.3,93.4
	H72v4.1h-0.7V93.4z"/>
<path d="M73.1,95.5c0-1.3,0.7-2.1,1.8-2.1c1.1,0,1.8,0.8,1.8,2.1c0,1.3-0.7,2.1-1.8,2.1S73.1,96.8,73.1,95.5z M76,95.5
	c0-0.9-0.4-1.5-1.1-1.5s-1.1,0.6-1.1,1.5s0.4,1.5,1.1,1.5S76,96.4,76,95.5z"/>
<path d="M80.3,95.1c0-0.8-0.4-1.1-0.9-1.1s-0.9,0.3-0.9,1.1v2.5h-0.7v-4.1h0.7v0.4c0.3-0.4,0.6-0.5,1.1-0.5c0.9,0,1.5,0.5,1.5,1.8
	v2.4h-0.7L80.3,95.1L80.3,95.1z"/>
<path d="M82.1,95.5c0-1.4,0.7-2.1,1.8-2.1c0.9,0,1.7,0.6,1.7,1.9c0,0.1,0,0.3,0,0.5h-2.8c0.1,0.8,0.5,1.2,1.1,1.2
	c0.3,0,0.6-0.1,0.9-0.4l0.4,0.5c-0.3,0.3-0.8,0.5-1.3,0.5C82.8,97.6,82.1,96.7,82.1,95.5z M84.9,95.2c0-0.9-0.6-1.2-1-1.2
	c-0.6,0-1.1,0.4-1.1,1.2H84.9z"/>
<path d="M89.1,95.1c0-0.8-0.4-1.1-0.9-1.1s-0.9,0.3-0.9,1.1v2.5h-0.7v-4.1h0.7v0.4c0.3-0.4,0.6-0.5,1.1-0.5c0.9,0,1.5,0.5,1.5,1.8
	v2.4h-0.7L89.1,95.1L89.1,95.1z"/>
<path d="M0,110.2h2.2c1.3,0,1.8,0.8,1.8,1.6c0,0.7-0.4,1.4-1.3,1.6l1.2,2.4H3.1l-1.2-2.4H0.7v2.4H0V110.2z M2.3,112.7
	c0.8,0,1-0.5,1-0.9s-0.2-1-1-1H0.8v1.9H2.3z"/>
<path d="M5,113.7c0-1.4,0.7-2.1,1.8-2.1c0.9,0,1.7,0.6,1.7,1.9c0,0.1,0,0.3,0,0.5H5.7c0.1,0.8,0.5,1.2,1.1,1.2
	c0.3,0,0.6-0.1,0.9-0.4l0.4,0.5c-0.3,0.3-0.8,0.5-1.3,0.5C5.7,115.9,5,115,5,113.7z M7.8,113.4c0-0.9-0.6-1.2-1-1.2
	c-0.6,0-1.1,0.4-1.1,1.2H7.8z"/>
<path d="M9.6,110.3l0.7-0.3v5.8H9.6V110.3z"/>
<path d="M11.6,110.5c0-0.2,0.2-0.4,0.4-0.4s0.4,0.2,0.4,0.4s-0.2,0.4-0.4,0.4S11.6,110.7,11.6,110.5z M11.7,111.7h0.7v4.1h-0.7
	V111.7z"/>
<path d="M14.6,116.9c1.3-0.1,1.6-0.5,1.6-1v-0.5c-0.2,0.3-0.6,0.5-1.1,0.5c-0.9,0-1.7-0.7-1.7-2.1c0-1.3,0.7-2.1,1.7-2.1
	c0.6,0,0.9,0.3,1,0.4v-0.3h0.7v3.9c0,1.3-0.8,1.8-1.9,1.8L14.6,116.9z M16.2,114.6v-1.9c-0.2-0.3-0.6-0.5-0.9-0.5
	c-0.7,0-1.1,0.5-1.1,1.5c0,0.9,0.5,1.5,1.1,1.5C15.6,115.2,16,115,16.2,114.6z"/>
<path d="M18.1,110.5c0-0.2,0.2-0.4,0.4-0.4s0.4,0.2,0.4,0.4s-0.2,0.4-0.4,0.4C18.3,110.9,18.1,110.7,18.1,110.5z M18.2,111.7h0.7
	v4.1h-0.7V111.7z"/>
<path d="M20,113.7c0-1.3,0.7-2.1,1.8-2.1s1.8,0.8,1.8,2.1s-0.7,2.1-1.8,2.1C20.7,115.9,20,115.1,20,113.7z M20.7,110.5
	c0-0.2,0.2-0.4,0.4-0.4s0.4,0.2,0.4,0.4s-0.2,0.4-0.4,0.4C20.9,111,20.7,110.8,20.7,110.5z M22.9,113.7c0-0.9-0.4-1.5-1.1-1.5
	s-1.1,0.6-1.1,1.5s0.4,1.5,1.1,1.5S22.9,114.7,22.9,113.7z M22,110.5c0-0.2,0.2-0.4,0.4-0.4s0.4,0.2,0.4,0.4s-0.2,0.4-0.4,0.4
	C22.2,111,22,110.8,22,110.5z"/>
<path d="M24.4,115.2l0.5-0.4c0.2,0.2,0.6,0.5,1,0.5s0.8-0.2,0.8-0.5c0-0.4-0.5-0.6-0.9-0.8c-0.8-0.3-1.3-0.6-1.3-1.3
	s0.6-1.1,1.4-1.1c0.6,0,1.1,0.3,1.4,0.6l-0.5,0.4c-0.2-0.2-0.5-0.4-0.9-0.4s-0.7,0.2-0.7,0.5s0.4,0.5,0.9,0.7
	c0.7,0.3,1.3,0.6,1.3,1.4c0,0.7-0.6,1.2-1.5,1.2C25.3,115.9,24.7,115.6,24.4,115.2z"/>
<path d="M28.2,113.7c0-1.4,0.7-2.1,1.8-2.1c0.9,0,1.7,0.6,1.7,1.9c0,0.1,0,0.3,0,0.5h-2.8c0.1,0.8,0.5,1.2,1.1,1.2
	c0.3,0,0.6-0.1,0.9-0.4l0.4,0.5c-0.3,0.3-0.8,0.5-1.3,0.5C28.9,115.9,28.2,115,28.2,113.7z M31,113.4c0-0.9-0.6-1.2-1-1.2
	c-0.6,0-1.1,0.4-1.1,1.2H31z"/>
<path d="M34.1,114.9l0.6-0.3c0.2,0.4,0.5,0.6,1,0.6s1.1-0.2,1.1-1.3v-3.7h0.7v3.8c0,1.5-1,1.9-1.8,1.9
	C35,115.9,34.4,115.5,34.1,114.9z"/>
<path d="M41.4,115.4c-0.3,0.4-0.6,0.5-1,0.5c-1,0-1.5-0.5-1.5-1.8v-2.4h0.7v2.5c0,0.8,0.4,1.1,0.9,1.1s0.9-0.3,0.9-1.1v-2.5h0.7v4.1
	h-0.7C41.4,115.8,41.4,115.4,41.4,115.4z"/>
<path d="M44.4,116.9c1.3-0.1,1.6-0.5,1.6-1v-0.5c-0.2,0.3-0.6,0.5-1.1,0.5c-0.9,0-1.7-0.7-1.7-2.1c0-1.3,0.7-2.1,1.7-2.1
	c0.6,0,0.9,0.3,1,0.4v-0.3h0.7v3.9c0,1.3-0.8,1.8-1.9,1.8L44.4,116.9z M45.9,114.6v-1.9c-0.2-0.3-0.6-0.5-0.9-0.5
	c-0.7,0-1.1,0.5-1.1,1.5c0,0.9,0.5,1.5,1.1,1.5C45.4,115.2,45.7,115,45.9,114.6z"/>
<path d="M47.7,113.7c0-1.4,0.7-2.1,1.8-2.1c0.9,0,1.7,0.6,1.7,1.9c0,0.1,0,0.3,0,0.5h-2.8c0.1,0.8,0.5,1.2,1.1,1.2
	c0.3,0,0.6-0.1,0.9-0.4l0.4,0.5c-0.3,0.3-0.8,0.5-1.3,0.5C48.4,115.9,47.7,115,47.7,113.7z M50.5,113.4c0-0.9-0.6-1.2-1-1.2
	c-0.6,0-1.1,0.4-1.1,1.2H50.5z"/>
<path d="M54.8,113.3c0-0.8-0.4-1.1-0.9-1.1s-0.9,0.3-0.9,1.1v2.5h-0.7v-4.1H53v0.4c0.3-0.4,0.6-0.5,1.1-0.5c0.9,0,1.5,0.5,1.5,1.8
	v2.4h-0.7L54.8,113.3L54.8,113.3z"/>
<path d="M56.5,113.7c0-1.3,0.7-2.1,1.7-2.1c0.5,0,0.8,0.2,1,0.4v-1.6l0.7-0.3v5.8h-0.7v-0.3c-0.2,0.2-0.5,0.4-1,0.4
	C57.2,115.9,56.5,115,56.5,113.7z M59.2,114.7v-1.9c-0.2-0.2-0.5-0.5-0.9-0.5c-0.7,0-1.1,0.5-1.1,1.5c0,0.8,0.4,1.5,1.1,1.5
	C58.7,115.2,59,115,59.2,114.7z"/>
<path d="M61,113.7c0-1.3,0.7-2.1,1.8-2.1s1.8,0.8,1.8,2.1s-0.7,2.1-1.8,2.1C61.7,115.9,61,115.1,61,113.7z M63.9,113.7
	c0-0.9-0.4-1.5-1.1-1.5s-1.1,0.6-1.1,1.5s0.4,1.5,1.1,1.5S63.9,114.7,63.9,113.7z"/>
<path d="M65.7,111.7h0.7v0.5c0.2-0.4,0.6-0.6,1-0.6c0.2,0,0.4,0.1,0.6,0.2l-0.1,0.7c-0.1-0.1-0.3-0.2-0.6-0.2
	c-0.4,0-0.9,0.3-0.9,1.2v2.3h-0.7V111.7z"/>
<path d="M69.8,116.9c1.3-0.1,1.6-0.5,1.6-1v-0.5c-0.2,0.3-0.6,0.5-1.1,0.5c-0.9,0-1.7-0.7-1.7-2.1c0-1.3,0.7-2.1,1.7-2.1
	c0.6,0,0.9,0.3,1,0.4v-0.3H72v3.9c0,1.3-0.8,1.8-1.9,1.8L69.8,116.9z M71.4,114.6v-1.9c-0.2-0.3-0.6-0.5-0.9-0.5
	c-0.7,0-1.1,0.5-1.1,1.5c0,0.9,0.5,1.5,1.1,1.5C70.8,115.2,71.2,115,71.4,114.6z"/>
<path d="M75.7,115.4c-0.3,0.3-0.7,0.5-1.2,0.5c-0.8,0-1.4-0.5-1.4-1.4s0.7-1.4,1.5-1.4c0.4,0,0.7,0.1,1.1,0.3v-0.3
	c0-0.7-0.4-0.9-0.9-0.9s-0.9,0.2-1.2,0.4l-0.2-0.6c0.3-0.2,0.9-0.4,1.5-0.4s1.5,0.2,1.5,1.5v2.7h-0.7
	C75.7,115.8,75.7,115.4,75.7,115.4z M75.7,114.7V114c-0.2-0.2-0.6-0.3-1-0.3c-0.5,0-1,0.2-1,0.8c0,0.5,0.3,0.8,0.9,0.8
	C75.1,115.2,75.5,115,75.7,114.7z"/>
<path d="M80.1,113.3c0-0.8-0.4-1.1-0.9-1.1s-0.9,0.3-0.9,1.1v2.5h-0.7v-4.1h0.7v0.4c0.3-0.4,0.6-0.5,1.1-0.5c0.9,0,1.5,0.5,1.5,1.8
	v2.4h-0.7L80.1,113.3L80.1,113.3z"/>
<path d="M82,110.5c0-0.2,0.2-0.4,0.4-0.4c0.2,0,0.4,0.2,0.4,0.4s-0.2,0.4-0.4,0.4S82,110.7,82,110.5z M82.1,111.7h0.7v4.1h-0.7
	V111.7z"/>
<path d="M83.9,115.2l0.5-0.4c0.2,0.2,0.6,0.5,1,0.5s0.8-0.2,0.8-0.5c0-0.4-0.5-0.6-0.9-0.8c-0.8-0.3-1.3-0.6-1.3-1.3
	s0.6-1.1,1.4-1.1c0.6,0,1.1,0.3,1.4,0.6l-0.5,0.4c-0.2-0.2-0.5-0.4-0.9-0.4s-0.7,0.2-0.7,0.5s0.4,0.5,0.9,0.7
	c0.7,0.3,1.3,0.6,1.3,1.4c0,0.7-0.6,1.2-1.5,1.2C84.7,115.9,84.2,115.6,83.9,115.2z"/>
<path d="M90.2,115.4c-0.3,0.3-0.7,0.5-1.2,0.5c-0.8,0-1.4-0.5-1.4-1.4s0.7-1.4,1.5-1.4c0.4,0,0.7,0.1,1.1,0.3v-0.3
	c0-0.7-0.4-0.9-0.9-0.9s-0.9,0.2-1.2,0.4l-0.2-0.6c0.3-0.2,0.9-0.4,1.5-0.4s1.5,0.2,1.5,1.5v2.7h-0.7
	C90.2,115.8,90.2,115.4,90.2,115.4z M90.2,114.7V114c-0.2-0.2-0.6-0.3-1-0.3c-0.5,0-1,0.2-1,0.8c0,0.5,0.3,0.8,0.9,0.8
	C89.6,115.2,90,115,90.2,114.7z"/>
<path d="M92.3,114.9v-2.6h-0.7v-0.6h0.7v-1.4L93,110v1.7h1v0.6h-1v2.4c0,0.3,0.1,0.6,0.4,0.6c0.2,0,0.4-0.1,0.6-0.2l-0.1,0.7
	c-0.2,0.1-0.5,0.2-0.8,0.2C92.6,115.9,92.3,115.5,92.3,114.9z"/>
<path d="M95,110.5c0-0.2,0.2-0.4,0.4-0.4c0.2,0,0.4,0.2,0.4,0.4s-0.2,0.4-0.4,0.4S95,110.7,95,110.5z M95.1,111.7h0.7v4.1h-0.7
	V111.7z"/>
<path d="M96.9,113.7c0-1.3,0.7-2.1,1.8-2.1c1.1,0,1.8,0.8,1.8,2.1s-0.7,2.1-1.8,2.1C97.6,115.9,96.9,115.1,96.9,113.7z M99.8,113.7
	c0-0.9-0.4-1.5-1.1-1.5s-1.1,0.6-1.1,1.5s0.4,1.5,1.1,1.5S99.8,114.7,99.8,113.7z"/>
<path d="M104.1,113.3c0-0.8-0.4-1.1-0.9-1.1s-0.9,0.3-0.9,1.1v2.5h-0.7v-4.1h0.7v0.4c0.3-0.4,0.6-0.5,1.1-0.5c0.9,0,1.5,0.5,1.5,1.8
	v2.4h-0.7L104.1,113.3L104.1,113.3z"/>
<path d="M105.9,113.7c0-1.4,0.7-2.1,1.8-2.1c0.9,0,1.7,0.6,1.7,1.9c0,0.1,0,0.3,0,0.5h-2.8c0.1,0.8,0.5,1.2,1.1,1.2
	c0.3,0,0.6-0.1,0.9-0.4l0.4,0.5c-0.3,0.3-0.8,0.5-1.3,0.5C106.5,115.9,105.9,115,105.9,113.7z M108.6,113.4c0-0.9-0.6-1.2-1-1.2
	c-0.6,0-1.1,0.4-1.1,1.2H108.6z"/>
<path d="M112.9,113.3c0-0.8-0.4-1.1-0.9-1.1s-0.9,0.3-0.9,1.1v2.5h-0.7v-4.1h0.7v0.4c0.3-0.4,0.6-0.5,1.1-0.5c0.9,0,1.5,0.5,1.5,1.8
	v2.4H113L112.9,113.3L112.9,113.3L112.9,113.3z"/>
<path d="M1.9,133.2H1.2v-4.9h-1.6v-0.7h3.8v0.7H1.8v4.9H1.9z"/>
<path d="M4.6,129.2h0.7v0.5c0.2-0.4,0.6-0.6,1-0.6c0.2,0,0.4,0.1,0.6,0.2L6.8,130c-0.1-0.1-0.3-0.2-0.6-0.2c-0.4,0-0.9,0.3-0.9,1.2
	v2.3H4.6V129.2z"/>
<path d="M9.9,132.9c-0.3,0.3-0.7,0.5-1.2,0.5c-0.8,0-1.4-0.5-1.4-1.4s0.7-1.4,1.5-1.4c0.4,0,0.7,0.1,1.1,0.3v-0.3
	c0-0.7-0.4-0.9-0.9-0.9s-0.9,0.2-1.2,0.4l-0.2-0.6c0.3-0.2,0.9-0.4,1.5-0.4s1.5,0.2,1.5,1.5v2.7H9.9V132.9z M8,128
	c0-0.2,0.2-0.4,0.4-0.4s0.4,0.2,0.4,0.4c0,0.2-0.2,0.4-0.4,0.4C8.2,128.5,8,128.3,8,128z M9.9,132.2v-0.7c-0.2-0.2-0.6-0.3-1-0.3
	c-0.5,0-1,0.2-1,0.8c0,0.5,0.3,0.8,0.9,0.8C9.3,132.7,9.7,132.5,9.9,132.2z M9.4,128c0-0.2,0.2-0.4,0.4-0.4s0.4,0.2,0.4,0.4
	c0,0.2-0.2,0.4-0.4,0.4C9.6,128.5,9.4,128.3,9.4,128z"/>
<path d="M12.7,134.4c1.3-0.1,1.6-0.5,1.6-1v-0.5c-0.2,0.3-0.6,0.5-1.1,0.5c-0.9,0-1.7-0.7-1.7-2.1c0-1.3,0.7-2.1,1.7-2.1
	c0.6,0,0.9,0.3,1,0.4v-0.4h0.7v3.9c0,1.3-0.8,1.8-1.9,1.8L12.7,134.4z M14.3,132.1v-1.9c-0.2-0.3-0.6-0.5-0.9-0.5
	c-0.7,0-1.1,0.5-1.1,1.5c0,0.9,0.5,1.5,1.1,1.5C13.7,132.7,14.1,132.5,14.3,132.1z"/>
<path d="M16.1,131.2c0-1.4,0.7-2.1,1.8-2.1c0.9,0,1.7,0.6,1.7,1.9c0,0.1,0,0.3,0,0.5h-2.8c0.1,0.8,0.5,1.2,1.1,1.2
	c0.3,0,0.6-0.1,0.9-0.4l0.4,0.5c-0.3,0.3-0.8,0.5-1.3,0.5C16.8,133.3,16.1,132.4,16.1,131.2z M18.9,130.9c0-0.9-0.6-1.2-1-1.2
	c-0.6,0-1.1,0.4-1.1,1.2H18.9z"/>
<path d="M20.6,129.2h0.7v0.5c0.2-0.4,0.6-0.6,1-0.6c0.2,0,0.4,0.1,0.6,0.2l-0.1,0.7c-0.1-0.1-0.3-0.2-0.6-0.2
	c-0.4,0-0.9,0.3-0.9,1.2v2.3h-0.7V129.2z"/>
<path d="M23.5,132.7l0.5-0.4c0.2,0.2,0.6,0.5,1,0.5s0.8-0.2,0.8-0.5c0-0.4-0.5-0.6-0.9-0.8c-0.8-0.3-1.3-0.6-1.3-1.3
	s0.6-1.1,1.4-1.1c0.6,0,1.1,0.3,1.4,0.6l-0.5,0.4c-0.2-0.2-0.5-0.4-0.9-0.4s-0.7,0.2-0.7,0.5s0.4,0.5,0.9,0.7
	c0.7,0.3,1.3,0.6,1.3,1.4c0,0.7-0.6,1.2-1.5,1.2C24.4,133.3,23.8,133.1,23.5,132.7z"/>
<path d="M27.3,131.2c0-1.3,0.7-2.1,1.7-2.1c0.7,0,1.2,0.3,1.4,1l-0.7,0.2c-0.1-0.3-0.4-0.5-0.8-0.5c-0.7,0-1,0.6-1,1.5
	s0.3,1.5,1,1.5c0.4,0,0.7-0.2,0.8-0.6l0.6,0.2c-0.2,0.7-0.7,1-1.5,1C27.9,133.3,27.3,132.6,27.3,131.2z"/>
<path d="M31.5,127.8l0.7-0.3v2.1c0.3-0.4,0.6-0.5,1.1-0.5c0.9,0,1.5,0.5,1.5,1.8v2.4h-0.7v-2.5c0-0.8-0.4-1.1-0.9-1.1
	s-0.9,0.3-0.9,1.1v2.5h-0.7L31.5,127.8L31.5,127.8z"/>
<path d="M38.4,132.9c-0.3,0.3-0.7,0.5-1.2,0.5c-0.8,0-1.4-0.5-1.4-1.4s0.7-1.4,1.5-1.4c0.4,0,0.7,0.1,1.1,0.3v-0.3
	c0-0.7-0.4-0.9-0.9-0.9s-0.9,0.2-1.2,0.4l-0.2-0.6c0.3-0.2,0.9-0.4,1.5-0.4s1.5,0.2,1.5,1.5v2.7h-0.7
	C38.4,133.3,38.4,132.9,38.4,132.9z M38.4,132.2v-0.7c-0.2-0.2-0.6-0.3-1-0.3c-0.5,0-1,0.2-1,0.8c0,0.5,0.3,0.8,0.9,0.8
	C37.8,132.7,38.1,132.5,38.4,132.2z"/>
<path d="M41.2,133.2h-0.7v-3.5h-0.6v-0.5h0.6v-0.7c0-0.7,0.4-0.9,0.9-0.9c0.3,0,0.6,0.1,0.8,0.2v0.6c-0.2-0.1-0.4-0.2-0.6-0.2
	c-0.3,0-0.4,0.2-0.4,0.4v0.6h1v0.6h-1V133.2z"/>
<path d="M43.2,132.4v-2.6h-0.7v-0.6h0.7v-1.4l0.7-0.3v1.7h1v0.6h-1v2.4c0,0.3,0.1,0.6,0.4,0.6c0.2,0,0.4-0.1,0.6-0.2l-0.1,0.7
	c-0.2,0.1-0.5,0.2-0.8,0.2C43.4,133.3,43.2,132.9,43.2,132.4z"/>
<path d="M45.6,131.2c0-1.4,0.7-2.1,1.8-2.1c0.9,0,1.7,0.6,1.7,1.9c0,0.1,0,0.3,0,0.5h-2.8c0.1,0.8,0.5,1.2,1.1,1.2
	c0.3,0,0.6-0.1,0.9-0.4l0.4,0.5c-0.3,0.3-0.8,0.5-1.3,0.5C46.3,133.3,45.6,132.4,45.6,131.2z M48.4,130.9c0-0.9-0.6-1.2-1-1.2
	c-0.6,0-1.1,0.4-1.1,1.2H48.4z"/>
<path d="M52.7,130.8c0-0.8-0.4-1.1-0.9-1.1s-0.9,0.3-0.9,1.1v2.5h-0.7v-4.1h0.7v0.4c0.3-0.4,0.6-0.5,1.1-0.5c0.9,0,1.5,0.5,1.5,1.8
	v2.4h-0.7L52.7,130.8L52.7,130.8z"/>
<path d="M0,149.7v-3.5h0.7v3.5c0,1.2,0.6,1.5,1.3,1.5s1.3-0.3,1.3-1.5v-3.5H4v3.5c0,1.6-0.8,2.2-2,2.2S0,151.3,0,149.7z"/>
<path d="M10.2,149.3c0-0.6-0.2-1.1-0.8-1.1c-0.5,0-0.9,0.4-0.9,1.1v2.5H7.8v-2.5c0-0.6-0.2-1.1-0.8-1.1c-0.5,0-0.9,0.4-0.9,1.1v2.5
	H5.4v-4.1h0.7v0.4c0.2-0.3,0.6-0.5,1.1-0.5c0.4,0,0.9,0.2,1.1,0.6c0.2-0.4,0.7-0.6,1.2-0.6c0.8,0,1.4,0.5,1.4,1.5v2.7h-0.7
	C10.2,151.8,10.2,149.3,10.2,149.3z"/>
<path d="M11.8,147.7h0.7l0.6,2.7c0,0.2,0.1,0.3,0.1,0.4c0-0.1,0.1-0.3,0.1-0.4l0.8-2.7h0.5l0.8,2.7l0.1,0.4c0-0.1,0.1-0.3,0.1-0.4
	l0.6-2.7h0.7l-1,4.1h-0.6l-0.7-2.4c0-0.2-0.1-0.4-0.2-0.5c0,0.2-0.1,0.4-0.1,0.5l-0.7,2.4H13L11.8,147.7z"/>
<path d="M17.5,149.7c0-1.4,0.7-2.1,1.8-2.1c0.9,0,1.7,0.6,1.7,1.9c0,0.1,0,0.3,0,0.5h-2.8c0.1,0.8,0.5,1.2,1.1,1.2
	c0.3,0,0.6-0.1,0.9-0.4l0.4,0.5c-0.3,0.3-0.8,0.5-1.3,0.5C18.2,151.9,17.5,151,17.5,149.7z M20.3,149.4c0-0.9-0.6-1.2-1-1.2
	c-0.6,0-1.1,0.4-1.1,1.2H20.3z"/>
<path d="M22.1,146.3l0.7-0.3v5.8h-0.7V146.3z"/>
<path d="M24.4,150.9v-2.6h-0.7v-0.6h0.7v-1.4l0.7-0.3v1.7h1v0.6h-1v2.4c0,0.3,0.1,0.6,0.4,0.6c0.2,0,0.4-0.1,0.6-0.2l-0.1,0.7
	c-0.2,0.1-0.5,0.2-0.8,0.2C24.7,151.9,24.4,151.5,24.4,150.9z"/>
<path d="M27,149h1.9v0.7H27V149z"/>
<path d="M34.5,151.4c-0.3,0.4-0.6,0.5-1,0.5c-1,0-1.5-0.5-1.5-1.8v-2.4h0.7v2.5c0,0.8,0.4,1.1,0.9,1.1s0.9-0.3,0.9-1.1v-2.5h0.7v4.1
	h-0.7C34.5,151.8,34.5,151.4,34.5,151.4z"/>
<path d="M39.1,149.3c0-0.8-0.4-1.1-0.9-1.1s-0.9,0.3-0.9,1.1v2.5h-0.7v-4.1h0.7v0.4c0.3-0.4,0.6-0.5,1.1-0.5c0.9,0,1.5,0.5,1.5,1.8
	v2.4h-0.7L39.1,149.3L39.1,149.3z"/>
<path d="M40.8,149.7c0-1.3,0.7-2.1,1.7-2.1c0.5,0,0.8,0.2,1,0.4v-1.6l0.7-0.3v5.8h-0.7v-0.3c-0.2,0.2-0.5,0.4-1,0.4
	C41.5,151.9,40.8,151,40.8,149.7z M43.5,150.7v-1.9c-0.2-0.2-0.5-0.5-0.9-0.5c-0.7,0-1.1,0.5-1.1,1.5c0,0.8,0.4,1.5,1.1,1.5
	C43,151.2,43.3,151,43.5,150.7z"/>
<path d="M50.9,151.8l-2.5-4c-0.1-0.1-0.2-0.3-0.2-0.4c0,0.1,0,0.3,0,0.4v4h-0.7v-5.6h0.7l2.5,4c0.1,0.1,0.2,0.3,0.2,0.4
	c0-0.1,0-0.3,0-0.4v-4h0.7v5.6H50.9z"/>
<path d="M55.4,151.4c-0.3,0.3-0.7,0.5-1.2,0.5c-0.8,0-1.4-0.5-1.4-1.4s0.7-1.4,1.5-1.4c0.4,0,0.7,0.1,1.1,0.3v-0.3
	c0-0.7-0.4-0.9-0.9-0.9s-0.9,0.2-1.2,0.4l-0.2-0.6c0.3-0.2,0.9-0.4,1.5-0.4s1.5,0.2,1.5,1.5v2.7h-0.7
	C55.4,151.8,55.4,151.4,55.4,151.4z M55.4,150.7V150c-0.2-0.2-0.6-0.3-1-0.3c-0.5,0-1,0.2-1,0.8c0,0.5,0.3,0.8,0.9,0.8
	C54.8,151.2,55.2,151,55.4,150.7z"/>
<path d="M57.5,150.9v-2.6h-0.7v-0.6h0.7v-1.4l0.7-0.3v1.7h1v0.6h-1v2.4c0,0.3,0.1,0.6,0.4,0.6c0.2,0,0.4-0.1,0.6-0.2l-0.1,0.7
	c-0.2,0.1-0.5,0.2-0.8,0.2C57.7,151.9,57.5,151.5,57.5,150.9z"/>
<path d="M62.5,151.4c-0.3,0.4-0.6,0.5-1,0.5c-1,0-1.5-0.5-1.5-1.8v-2.4h0.7v2.5c0,0.8,0.4,1.1,0.9,1.1s0.9-0.3,0.9-1.1v-2.5h0.7v4.1
	h-0.7C62.5,151.8,62.5,151.4,62.5,151.4z"/>
<path d="M64.5,147.7h0.7v0.5c0.2-0.4,0.6-0.6,1-0.6c0.2,0,0.4,0.1,0.6,0.2l-0.1,0.7c-0.1-0.1-0.3-0.2-0.6-0.2
	c-0.4,0-0.9,0.3-0.9,1.2v2.3h-0.7V147.7z"/>
<path d="M67.4,151.2l0.5-0.4c0.2,0.2,0.6,0.5,1,0.5s0.8-0.2,0.8-0.5c0-0.4-0.5-0.6-0.9-0.8c-0.8-0.3-1.3-0.6-1.3-1.3
	s0.6-1.1,1.4-1.1c0.6,0,1.1,0.3,1.4,0.6l-0.5,0.4c-0.2-0.2-0.5-0.4-0.9-0.4s-0.7,0.2-0.7,0.5s0.4,0.5,0.9,0.7
	c0.7,0.3,1.3,0.6,1.3,1.4c0,0.7-0.6,1.2-1.5,1.2C68.3,151.9,67.8,151.6,67.4,151.2z"/>
<path d="M71.2,149.7c0-1.3,0.7-2.1,1.7-2.1c0.7,0,1.2,0.3,1.4,1l-0.7,0.2c-0.1-0.3-0.4-0.5-0.8-0.5c-0.7,0-1,0.6-1,1.5
	s0.3,1.5,1,1.5c0.4,0,0.7-0.2,0.8-0.6l0.6,0.2c-0.2,0.7-0.7,1-1.5,1C71.9,151.9,71.2,151.1,71.2,149.7z"/>
<path d="M75.5,146.3l0.7-0.3v2.1c0.3-0.4,0.6-0.5,1.1-0.5c0.9,0,1.5,0.5,1.5,1.8v2.4h-0.7v-2.5c0-0.8-0.4-1.1-0.9-1.1
	s-0.9,0.3-0.9,1.1v2.5h-0.7L75.5,146.3L75.5,146.3z"/>
<path d="M82.4,151.4c-0.3,0.4-0.6,0.5-1,0.5c-1,0-1.5-0.5-1.5-1.8v-2.4h0.7v2.5c0,0.8,0.4,1.1,0.9,1.1s0.9-0.3,0.9-1.1v-2.5h0.7v4.1
	h-0.7V151.4z"/>
<path d="M84.7,150.9v-2.6H84v-0.6h0.7v-1.4l0.7-0.3v1.7h1v0.6h-1v2.4c0,0.3,0.1,0.6,0.4,0.6c0.2,0,0.4-0.1,0.6-0.2l-0.1,0.7
	c-0.2,0.1-0.5,0.2-0.8,0.2C85,151.9,84.7,151.5,84.7,150.9z"/>
<path d="M87.3,151.3l2.1-3h-2v-0.6h2.8v0.5l-2.1,3h2.1v0.6h-3L87.3,151.3L87.3,151.3z"/>
<path d="M91.1,147.7h0.7l1,2.7c0,0.1,0.1,0.3,0.1,0.4c0-0.1,0.1-0.3,0.1-0.4l1-2.7h0.7l-1.5,4.1h-0.6L91.1,147.7z"/>
<path d="M95.4,149.7c0-1.4,0.7-2.1,1.8-2.1c0.9,0,1.7,0.6,1.7,1.9c0,0.1,0,0.3,0,0.5h-2.8c0.1,0.8,0.5,1.2,1.1,1.2
	c0.3,0,0.6-0.1,0.9-0.4l0.4,0.5c-0.3,0.3-0.8,0.5-1.3,0.5C96.1,151.9,95.4,151,95.4,149.7z M98.2,149.4c0-0.9-0.6-1.2-1-1.2
	c-0.6,0-1.1,0.4-1.1,1.2H98.2z"/>
<path d="M99.9,147.7h0.7v0.5c0.2-0.4,0.6-0.6,1-0.6c0.2,0,0.4,0.1,0.6,0.2l-0.1,0.7c-0.1-0.1-0.3-0.2-0.6-0.2
	c-0.4,0-0.9,0.3-0.9,1.2v2.3h-0.7V147.7z"/>
<path d="M103.8,151.4v0.4h-0.7v-5.4l0.7-0.3v2c0.2-0.3,0.6-0.4,1-0.4c1,0,1.7,0.8,1.7,2.1c0,1.4-0.6,2.1-1.7,2.1
	C104.3,151.9,104,151.6,103.8,151.4z M105.8,149.7c0-1-0.4-1.5-1.1-1.5c-0.5,0-0.8,0.3-1,0.5v1.9c0.2,0.3,0.6,0.6,1,0.6
	C105.4,151.2,105.8,150.6,105.8,149.7z"/>
<path d="M109.9,151.4c-0.3,0.3-0.7,0.5-1.2,0.5c-0.8,0-1.4-0.5-1.4-1.4s0.7-1.4,1.5-1.4c0.4,0,0.7,0.1,1.1,0.3v-0.3
	c0-0.7-0.4-0.9-0.9-0.9s-0.9,0.2-1.2,0.4l-0.2-0.6c0.3-0.2,0.9-0.4,1.5-0.4s1.5,0.2,1.5,1.5v2.7h-0.7L109.9,151.4L109.9,151.4z
	 M108,146.5c0-0.2,0.2-0.4,0.4-0.4s0.4,0.2,0.4,0.4s-0.2,0.4-0.4,0.4C108.2,147,108,146.8,108,146.5z M109.9,150.7V150
	c-0.2-0.2-0.6-0.3-1-0.3c-0.5,0-1,0.2-1,0.8c0,0.5,0.3,0.8,0.9,0.8C109.3,151.2,109.7,151,109.9,150.7z M109.3,146.5
	c0-0.2,0.2-0.4,0.4-0.4s0.4,0.2,0.4,0.4s-0.2,0.4-0.4,0.4C109.5,147,109.3,146.8,109.3,146.5z"/>
<path d="M114.3,149.3c0-0.8-0.4-1.1-0.9-1.1s-0.9,0.3-0.9,1.1v2.5h-0.7v-4.1h0.7v0.4c0.3-0.4,0.6-0.5,1.1-0.5c0.9,0,1.5,0.5,1.5,1.8
	v2.4h-0.7L114.3,149.3L114.3,149.3L114.3,149.3z"/>
<path d="M116,149.7c0-1.3,0.7-2.1,1.7-2.1c0.5,0,0.8,0.2,1,0.4v-1.6l0.7-0.3v5.8h-0.7v-0.3c-0.2,0.2-0.5,0.4-1,0.4
	C116.7,151.9,116,151,116,149.7z M118.7,150.7v-1.9c-0.2-0.2-0.5-0.5-0.9-0.5c-0.7,0-1.1,0.5-1.1,1.5c0,0.8,0.4,1.5,1.1,1.5
	C118.2,151.2,118.5,151,118.7,150.7z"/>
<path d="M120.5,149.7c0-1.4,0.7-2.1,1.8-2.1c0.9,0,1.7,0.6,1.7,1.9c0,0.1,0,0.3,0,0.5h-2.8c0.1,0.8,0.5,1.2,1.1,1.2
	c0.3,0,0.6-0.1,0.9-0.4l0.4,0.5c-0.3,0.3-0.8,0.5-1.3,0.5C121.2,151.9,120.5,151,120.5,149.7z M123.3,149.4c0-0.9-0.6-1.2-1-1.2
	c-0.6,0-1.1,0.4-1.1,1.2H123.3z"/>
<path d="M-0.3,163.5h0.7l0.7,3.6c0,0.2,0.1,0.4,0.1,0.6c0-0.2,0.1-0.3,0.2-0.6l1-3.7H3l1,3.6c0.1,0.2,0.1,0.4,0.1,0.5
	c0-0.2,0.1-0.3,0.1-0.6l0.8-3.6h0.6l-1.2,5.6H3.8l-1.1-3.8c-0.1-0.2-0.1-0.4-0.1-0.6c0,0.2-0.1,0.3-0.1,0.6l-1.1,3.8H0.8L-0.3,163.5
	z"/>
<path d="M6.4,167c0-1.3,0.7-2.1,1.8-2.1s1.8,0.8,1.8,2.1s-0.7,2.1-1.8,2.1C7.1,169.2,6.4,168.4,6.4,167z M9.3,167
	c0-0.9-0.4-1.5-1.1-1.5s-1.1,0.6-1.1,1.5s0.4,1.5,1.1,1.5S9.3,167.9,9.3,167z"/>
<path d="M11.1,163.6l0.7-0.3v2.1c0.3-0.4,0.6-0.5,1.1-0.5c0.9,0,1.5,0.5,1.5,1.8v2.4h-0.8v-2.5c0-0.8-0.4-1.1-0.9-1.1
	s-0.9,0.3-0.9,1.1v2.5h-0.7C11.1,169.1,11.1,163.6,11.1,163.6z"/>
<path d="M15.7,163.6l0.7-0.3v5.8h-0.7V163.6z"/>
<path d="M18.6,169.1h-0.7v-3.5h-0.6V165h0.6v-0.7c0-0.7,0.4-0.9,0.9-0.9c0.3,0,0.6,0.1,0.8,0.2v0.6c-0.2-0.1-0.4-0.2-0.6-0.2
	c-0.3,0-0.4,0.2-0.4,0.4v0.6h1v0.6h-1C18.6,165.6,18.6,169.1,18.6,169.1z"/>
<path d="M22.7,168.7c-0.3,0.3-0.7,0.5-1.2,0.5c-0.8,0-1.4-0.5-1.4-1.4s0.7-1.4,1.5-1.4c0.4,0,0.7,0.1,1.1,0.3v-0.3
	c0-0.7-0.4-0.9-0.9-0.9s-0.9,0.2-1.2,0.4l-0.2-0.6c0.3-0.2,0.9-0.4,1.5-0.4s1.5,0.2,1.5,1.5v2.7h-0.7
	C22.7,169.1,22.7,168.7,22.7,168.7z M22.7,168v-0.7c-0.2-0.2-0.6-0.3-1-0.3c-0.5,0-1,0.2-1,0.8c0,0.5,0.3,0.8,0.9,0.8
	C22.1,168.5,22.5,168.3,22.7,168z"/>
<path d="M24.6,163.6l0.7-0.3v2.1c0.3-0.4,0.6-0.5,1.1-0.5c0.9,0,1.5,0.5,1.5,1.8v2.4h-0.7v-2.5c0-0.8-0.4-1.1-0.9-1.1
	s-0.9,0.3-0.9,1.1v2.5h-0.8C24.6,169.1,24.6,163.6,24.6,163.6z"/>
<path d="M29.1,165h0.7v0.5c0.2-0.4,0.6-0.6,1-0.6c0.2,0,0.4,0.1,0.6,0.2l-0.1,0.7c-0.1-0.1-0.3-0.2-0.6-0.2c-0.4,0-0.9,0.3-0.9,1.2
	v2.3h-0.7V165z"/>
<path d="M32.6,168.2v-2.6h-0.7V165h0.7v-1.4l0.7-0.3v1.7h1v0.6h-1v2.4c0,0.3,0.1,0.6,0.4,0.6c0.2,0,0.4-0.1,0.6-0.2l-0.1,0.7
	c-0.2,0.1-0.5,0.2-0.8,0.2C32.8,169.2,32.6,168.8,32.6,168.2z"/>
<path d="M35.1,168.5l0.5-0.4c0.2,0.2,0.6,0.5,1,0.5s0.8-0.2,0.8-0.5c0-0.4-0.5-0.6-0.9-0.8c-0.8-0.3-1.3-0.6-1.3-1.3
	s0.6-1.1,1.4-1.1c0.6,0,1.1,0.3,1.4,0.6l-0.5,0.4c-0.2-0.2-0.5-0.4-0.9-0.4s-0.7,0.2-0.7,0.5s0.4,0.5,0.9,0.7
	c0.7,0.3,1.3,0.6,1.3,1.4c0,0.7-0.6,1.2-1.5,1.2C35.9,169.2,35.4,168.9,35.1,168.5z"/>
<path d="M38.7,165h0.7l1,2.7c0,0.1,0.1,0.3,0.1,0.4c0-0.1,0.1-0.3,0.1-0.4l1-2.7h0.7l-1.5,4.1h-0.6L38.7,165z"/>
<path d="M42.9,167c0-1.4,0.7-2.1,1.8-2.1c0.9,0,1.7,0.6,1.7,1.9c0,0.1,0,0.3,0,0.5h-2.8c0.1,0.8,0.5,1.2,1.1,1.2
	c0.3,0,0.6-0.1,0.9-0.4l0.4,0.5c-0.3,0.3-0.8,0.5-1.3,0.5C43.6,169.2,42.9,168.3,42.9,167z M45.7,166.7c0-0.9-0.6-1.2-1-1.2
	c-0.6,0-1.1,0.4-1.1,1.2H45.7z"/>
<path d="M47.5,165h0.7v0.5c0.2-0.4,0.6-0.6,1-0.6c0.2,0,0.4,0.1,0.6,0.2l-0.1,0.7c-0.1-0.1-0.3-0.2-0.6-0.2c-0.4,0-0.9,0.3-0.9,1.2
	v2.3h-0.7V165z"/>
<path d="M51.3,168.7v0.4h-0.7v-5.4l0.7-0.3v2c0.2-0.3,0.6-0.4,1-0.4c1,0,1.7,0.8,1.7,2.1c0,1.4-0.6,2.1-1.7,2.1
	C51.9,169.2,51.6,168.9,51.3,168.7z M53.3,167c0-1-0.4-1.5-1.1-1.5c-0.5,0-0.8,0.3-1,0.5v1.9c0.2,0.3,0.6,0.6,1,0.6
	C53,168.5,53.3,167.9,53.3,167z"/>
<path d="M57.5,168.7c-0.3,0.3-0.7,0.5-1.2,0.5c-0.8,0-1.4-0.5-1.4-1.4s0.7-1.4,1.5-1.4c0.4,0,0.7,0.1,1.1,0.3v-0.3
	c0-0.7-0.4-0.9-0.9-0.9s-0.9,0.2-1.2,0.4l-0.2-0.6c0.3-0.2,0.9-0.4,1.5-0.4s1.5,0.2,1.5,1.5v2.7h-0.7
	C57.5,169.1,57.5,168.7,57.5,168.7z M55.5,163.8c0-0.2,0.2-0.4,0.4-0.4s0.4,0.2,0.4,0.4s-0.2,0.4-0.4,0.4
	C55.7,164.3,55.5,164.1,55.5,163.8z M57.5,168v-0.7c-0.2-0.2-0.6-0.3-1-0.3c-0.5,0-1,0.2-1,0.8c0,0.5,0.3,0.8,0.9,0.8
	C56.9,168.5,57.3,168.3,57.5,168z M56.9,163.8c0-0.2,0.2-0.4,0.4-0.4s0.4,0.2,0.4,0.4s-0.2,0.4-0.4,0.4
	C57.1,164.3,56.9,164.1,56.9,163.8z"/>
<path d="M61.9,166.6c0-0.8-0.4-1.1-0.9-1.1s-0.9,0.3-0.9,1.1v2.5h-0.7V165h0.7v0.4c0.3-0.4,0.6-0.5,1.1-0.5c0.9,0,1.5,0.5,1.5,1.8
	v2.4H62L61.9,166.6L61.9,166.6z"/>
<path d="M63.6,167c0-1.3,0.7-2.1,1.7-2.1c0.5,0,0.8,0.2,1,0.4v-1.6l0.7-0.3v5.8h-0.7v-0.3c-0.2,0.2-0.5,0.4-1,0.4
	C64.3,169.2,63.6,168.3,63.6,167z M66.3,168v-1.9c-0.2-0.2-0.5-0.5-0.9-0.5c-0.7,0-1.1,0.5-1.1,1.5c0,0.8,0.4,1.5,1.1,1.5
	C65.8,168.5,66.1,168.3,66.3,168z"/>
<path d="M68.1,167c0-1.4,0.7-2.1,1.8-2.1c0.9,0,1.7,0.6,1.7,1.9c0,0.1,0,0.3,0,0.5h-2.8c0.1,0.8,0.5,1.2,1.1,1.2
	c0.3,0,0.6-0.1,0.9-0.4l0.4,0.5c-0.3,0.3-0.8,0.5-1.3,0.5C68.8,169.2,68.1,168.3,68.1,167z M70.9,166.7c0-0.9-0.6-1.2-1-1.2
	c-0.6,0-1.1,0.4-1.1,1.2H70.9z"/>
<path d="M-0.3,186.7l0.7-0.2c0.2,0.5,0.7,0.8,1.3,0.8c0.7,0,1.1-0.3,1.1-0.9c0-0.6-0.6-0.9-1.3-1.2c-0.8-0.3-1.6-0.6-1.6-1.6
	c0-0.8,0.6-1.4,1.7-1.4c0.9,0,1.5,0.4,1.6,1l-0.6,0.2c-0.1-0.3-0.5-0.6-1-0.6c-0.6,0-1,0.3-1,0.7c0,0.5,0.6,0.8,1.2,1
	c0.8,0.3,1.7,0.7,1.7,1.8c0,1-0.8,1.6-1.8,1.6C0.7,188,0,187.4-0.3,186.7z"/>
<path d="M4.5,185.8c0-1.3,0.7-2.1,1.8-2.1s1.8,0.8,1.8,2.1s-0.7,2.1-1.8,2.1C5.2,188,4.5,187.2,4.5,185.8z M7.4,185.8
	c0-0.9-0.4-1.5-1.1-1.5s-1.1,0.6-1.1,1.5s0.4,1.5,1.1,1.5S7.4,186.7,7.4,185.8z"/>
<path d="M11.7,185.4c0-0.8-0.4-1.1-0.9-1.1s-0.9,0.3-0.9,1.1v2.5H9.2v-4.1h0.7v0.4c0.3-0.4,0.6-0.5,1.1-0.5c0.9,0,1.5,0.5,1.5,1.8
	v2.4h-0.7v-2.5L11.7,185.4L11.7,185.4z"/>
<path d="M13.4,187.3l0.5-0.4c0.2,0.2,0.6,0.5,1,0.5s0.8-0.2,0.8-0.5c0-0.4-0.5-0.6-0.9-0.8c-0.8-0.3-1.3-0.6-1.3-1.3
	s0.6-1.1,1.4-1.1c0.6,0,1.1,0.3,1.4,0.6l-0.5,0.4c-0.2-0.2-0.5-0.4-0.9-0.4s-0.7,0.2-0.7,0.5s0.4,0.5,0.9,0.7
	c0.7,0.3,1.3,0.6,1.3,1.4c0,0.7-0.6,1.2-1.5,1.2C14.3,188,13.7,187.7,13.4,187.3z"/>
<path d="M17.7,187v-2.6H17v-0.6h0.7v-1.4l0.7-0.3v1.7h1v0.6h-1v2.4c0,0.3,0.1,0.6,0.4,0.6c0.2,0,0.4-0.1,0.6-0.2l-0.1,0.7
	c-0.2,0.1-0.5,0.2-0.8,0.2C17.9,188,17.7,187.6,17.7,187z"/>
<path d="M20.3,182.6c0-0.2,0.2-0.4,0.4-0.4s0.4,0.2,0.4,0.4s-0.2,0.4-0.4,0.4S20.3,182.8,20.3,182.6z M20.4,183.8h0.7v4.1h-0.7
	V183.8z"/>
<path d="M23.4,189c1.3-0.1,1.6-0.5,1.6-1v-0.5c-0.2,0.3-0.6,0.5-1.1,0.5c-0.9,0-1.7-0.7-1.7-2.1c0-1.3,0.7-2.1,1.7-2.1
	c0.6,0,0.9,0.3,1,0.4v-0.3h0.7v3.9c0,1.3-0.8,1.8-1.9,1.8L23.4,189z M24.9,186.7v-1.9c-0.2-0.3-0.6-0.5-0.9-0.5
	c-0.7,0-1.1,0.5-1.1,1.5c0,0.9,0.5,1.5,1.1,1.5C24.4,187.3,24.7,187.1,24.9,186.7z"/>
<path d="M26.7,185.8c0-1.4,0.7-2.1,1.8-2.1c0.9,0,1.7,0.6,1.7,1.9c0,0.1,0,0.3,0,0.5h-2.8c0.1,0.8,0.5,1.2,1.1,1.2
	c0.3,0,0.6-0.1,0.9-0.4l0.4,0.5c-0.3,0.3-0.8,0.5-1.3,0.5C27.4,188,26.7,187.1,26.7,185.8z M29.5,185.5c0-0.9-0.6-1.2-1-1.2
	c-0.6,0-1.1,0.4-1.1,1.2H29.5z"/>
</svg>
