<?xml version="1.0" encoding="utf-8"?>
<!-- Generator: Adobe Illustrator 21.0.0, SVG Export Plug-In . SVG Version: 6.00 Build 0)  -->
<svg version="1.1" id="Layer_1" xmlns="http://www.w3.org/2000/svg" xmlns:xlink="http://www.w3.org/1999/xlink" x="0px" y="0px"
	 viewBox="0 0 329.7 168.5" style="enable-background:new 0 0 329.7 168.5;" xml:space="preserve">
<style type="text/css">
	.st0{enable-background:new    ;}
	.st1{fill:#FFFFFF;}
	.st2{clip-path:url(#SVGID_2_);fill:none;stroke:#0000FF;stroke-width:0.991;}
	.st3{clip-path:url(#SVGID_4_);fill:none;stroke:#0000FF;stroke-width:0.991;}
	.st4{clip-path:url(#SVGID_6_);fill:none;stroke:#0000FF;stroke-width:0.991;}
	.st5{clip-path:url(#SVGID_8_);fill:none;stroke:#0000FF;stroke-width:0.991;}
	.st6{clip-path:url(#SVGID_10_);fill:none;stroke:#0000FF;stroke-width:0.991;}
	.st7{clip-path:url(#SVGID_12_);fill:none;stroke:#0000FF;stroke-width:0.991;}
	.st8{clip-path:url(#SVGID_14_);fill:none;stroke:#0000FF;stroke-width:0.991;}
	.st9{clip-path:url(#SVGID_16_);fill:none;stroke:#0000FF;stroke-width:0.991;}
	.st10{clip-path:url(#SVGID_18_);fill:none;stroke:#0000FF;stroke-width:0.991;}
	.st11{clip-path:url(#SVGID_20_);fill:none;stroke:#0000FF;stroke-width:0.991;}
	.st12{clip-path:url(#SVGID_22_);fill:none;stroke:#0000FF;stroke-width:0.991;}
	.st13{clip-path:url(#SVGID_24_);fill:none;stroke:#0000FF;stroke-width:0.991;}
	.st14{clip-path:url(#SVGID_26_);fill:none;stroke:#0000FF;stroke-width:0.991;}
	.st15{clip-path:url(#SVGID_28_);fill:none;stroke:#0000FF;stroke-width:0.991;}
	.st16{clip-path:url(#SVGID_30_);fill:none;stroke:#0000FF;stroke-width:0.991;}
	.st17{clip-path:url(#SVGID_32_);fill:none;stroke:#0000FF;stroke-width:0.991;}
	.st18{clip-path:url(#SVGID_34_);fill:none;stroke:#0000FF;stroke-width:0.991;}
	.st19{clip-path:url(#SVGID_36_);fill:none;stroke:#0000FF;stroke-width:0.991;}
	.st20{clip-path:url(#SVGID_38_);fill:none;stroke:#0000FF;stroke-width:0.991;}
	.st21{clip-path:url(#SVGID_40_);fill:none;stroke:#0000FF;stroke-width:0.991;}
	.st22{clip-path:url(#SVGID_42_);fill:none;stroke:#0000FF;stroke-width:0.991;}
	.st23{clip-path:url(#SVGID_44_);fill:none;stroke:#0000FF;stroke-width:0.991;}
	.st24{clip-path:url(#SVGID_46_);fill:none;stroke:#0000FF;stroke-width:0.991;}
	.st25{clip-path:url(#SVGID_48_);fill:none;stroke:#0000FF;stroke-width:0.991;}
	.st26{clip-path:url(#SVGID_50_);fill:none;stroke:#0000FF;stroke-width:0.991;}
	.st27{clip-path:url(#SVGID_52_);fill:none;stroke:#0000FF;stroke-width:0.991;}
	.st28{clip-path:url(#SVGID_54_);fill:none;stroke:#0000FF;stroke-width:0.991;}
	.st29{clip-path:url(#SVGID_56_);fill:none;stroke:#0000FF;stroke-width:0.991;}
	.st30{clip-path:url(#SVGID_58_);fill:none;stroke:#0000FF;stroke-width:0.991;}
	.st31{clip-path:url(#SVGID_60_);fill:none;stroke:#0000FF;stroke-width:0.991;}
	.st32{clip-path:url(#SVGID_62_);fill:none;stroke:#0000FF;stroke-width:0.991;}
	.st33{clip-path:url(#SVGID_64_);fill:none;stroke:#0000FF;stroke-width:0.991;}
	.st34{clip-path:url(#SVGID_66_);fill:none;stroke:#0000FF;stroke-width:0.991;}
	.st35{clip-path:url(#SVGID_68_);fill:none;stroke:#0000FF;stroke-width:0.991;}
	.st36{clip-path:url(#SVGID_70_);fill:none;stroke:#0000FF;stroke-width:0.991;}
	.st37{clip-path:url(#SVGID_72_);fill:none;stroke:#0000FF;stroke-width:0.991;}
	.st38{clip-path:url(#SVGID_74_);fill:none;stroke:#0000FF;stroke-width:0.991;}
	.st39{fill:none;stroke:#0000FF;stroke-width:0.991;}
	.st40{fill:#0000FF;}
	.st41{fill:none;stroke:#0000FF;stroke-width:1.487;}
	.st42{fill:none;stroke:#000000;stroke-width:0.743;}
</style>
<g class="st0">
	<path d="M174.3,87.3c0-0.8-0.4-1.1-0.9-1.1c-0.5,0-0.9,0.3-0.9,1.1v2.5h-0.7v-4.1h0.7v0.4c0.3-0.4,0.6-0.5,1.1-0.5
		c0.9,0,1.5,0.5,1.5,1.8v2.4h-0.7V87.3z"/>
	<path d="M176.3,86h3.8v0.7h-3.8V86z M176.3,87.4h3.8v0.7h-3.8V87.4z"/>
	<path d="M181.3,89.3l0.4-0.5c0.3,0.3,0.7,0.5,1.4,0.5c0.8,0,1.4-0.6,1.4-1.3c0-0.7-0.5-1.2-1.1-1.2c-0.5,0-0.9,0.2-1.1,0.5
		l-0.7-0.2l0.3-2.8h3v0.6h-2.4l-0.2,1.7c0.3-0.2,0.7-0.4,1.2-0.4c1.1,0,1.8,0.8,1.8,1.8c0,1.1-0.8,1.9-2.1,1.9
		C182.2,89.9,181.6,89.5,181.3,89.3z"/>
</g>
<g class="st0">
	<path d="M187.2,85.3h-0.9v-0.5c0.6,0,1-0.2,1.1-0.7h0.5v5.6h-0.7V85.3z"/>
</g>
<g class="st0">
	<path d="M171.6,55.4c0-1.4,0.6-2.9,2.4-2.9c1.8,0,2.4,1.5,2.4,2.9c0,1.4-0.6,2.9-2.4,2.9C172.3,58.3,171.6,56.8,171.6,55.4z
		 M175.7,55.4c0-1.1-0.4-2.2-1.7-2.2c-1.2,0-1.7,1.2-1.7,2.2c0,1.1,0.4,2.2,1.7,2.2C175.3,57.6,175.7,56.4,175.7,55.4z M172.9,51.5
		c0-0.2,0.2-0.4,0.4-0.4c0.2,0,0.4,0.2,0.4,0.4s-0.2,0.4-0.4,0.4C173.1,51.9,172.9,51.7,172.9,51.5z M174.3,51.5
		c0-0.2,0.2-0.4,0.4-0.4c0.2,0,0.4,0.2,0.4,0.4s-0.2,0.4-0.4,0.4C174.5,51.9,174.3,51.7,174.3,51.5z"/>
</g>
<g class="st0">
	<path d="M178.5,58.2h-0.7v-3.5h-0.6v-0.6h0.6v-0.7c0-0.7,0.4-0.9,0.9-0.9c0.3,0,0.6,0.1,0.8,0.2v0.6c-0.2-0.1-0.4-0.2-0.6-0.2
		c-0.3,0-0.4,0.2-0.4,0.4v0.6h1v0.6h-1V58.2z"/>
</g>
<g class="st0">
	<path d="M181.3,58.2h-0.7v-3.5H180v-0.6h0.6v-0.7c0-0.7,0.4-0.9,0.9-0.9c0.3,0,0.6,0.1,0.8,0.2v0.6c-0.2-0.1-0.4-0.2-0.6-0.2
		c-0.3,0-0.4,0.2-0.4,0.4v0.6h1v0.6h-1V58.2z"/>
</g>
<g class="st0">
	<path d="M182.6,56.2c0-1.4,0.7-2.1,1.8-2.1c0.9,0,1.7,0.6,1.7,1.9c0,0.1,0,0.3,0,0.5h-2.8c0.1,0.8,0.5,1.2,1.1,1.2
		c0.3,0,0.6-0.1,0.9-0.4l0.4,0.5c-0.3,0.3-0.8,0.5-1.3,0.5C183.3,58.3,182.6,57.4,182.6,56.2z M185.4,55.8c0-0.9-0.6-1.2-1-1.2
		c-0.6,0-1.1,0.4-1.1,1.2H185.4z"/>
	<path d="M189.7,55.7c0-0.8-0.4-1.1-0.9-1.1c-0.5,0-0.9,0.3-0.9,1.1v2.5h-0.7v-4.1h0.7v0.4c0.3-0.4,0.6-0.5,1.1-0.5
		c0.9,0,1.5,0.5,1.5,1.8v2.4h-0.7V55.7z"/>
	<path d="M191.9,57.3v-2.6h-0.7v-0.6h0.7v-1.4l0.7-0.3v1.7h1v0.6h-1v2.4c0,0.3,0.1,0.6,0.4,0.6c0.2,0,0.4-0.1,0.6-0.2l-0.1,0.7
		c-0.2,0.1-0.5,0.2-0.8,0.2C192.2,58.3,191.9,57.9,191.9,57.3z"/>
	<path d="M194.7,52.8l0.7-0.3v5.8h-0.7V52.8z"/>
	<path d="M196.7,52.9c0-0.2,0.2-0.4,0.4-0.4c0.2,0,0.4,0.2,0.4,0.4c0,0.2-0.2,0.4-0.4,0.4C196.9,53.4,196.7,53.2,196.7,52.9z
		 M196.8,54.1h0.7v4.1h-0.7V54.1z"/>
	<path d="M198.6,56.2c0-1.3,0.7-2.1,1.7-2.1c0.7,0,1.2,0.3,1.4,1l-0.7,0.2c-0.1-0.3-0.4-0.5-0.8-0.5c-0.7,0-1,0.6-1,1.5
		c0,0.9,0.3,1.5,1,1.5c0.4,0,0.7-0.2,0.8-0.6l0.6,0.2c-0.2,0.7-0.7,1-1.5,1C199.2,58.3,198.6,57.5,198.6,56.2z"/>
	<path d="M202.8,52.8l0.7-0.3v2.1c0.3-0.4,0.6-0.5,1.1-0.5c0.9,0,1.5,0.5,1.5,1.8v2.4h-0.7v-2.5c0-0.8-0.4-1.1-0.9-1.1
		c-0.5,0-0.9,0.3-0.9,1.1v2.5h-0.7V52.8z"/>
	<path d="M207.1,56.2c0-1.4,0.7-2.1,1.8-2.1c0.9,0,1.7,0.6,1.7,1.9c0,0.1,0,0.3,0,0.5h-2.8c0.1,0.8,0.5,1.2,1.1,1.2
		c0.3,0,0.6-0.1,0.9-0.4l0.4,0.5c-0.3,0.3-0.8,0.5-1.3,0.5C207.8,58.3,207.1,57.4,207.1,56.2z M209.9,55.8c0-0.9-0.6-1.2-1-1.2
		c-0.6,0-1.1,0.4-1.1,1.2H209.9z"/>
</g>
<g class="st0">
	<path d="M215.2,58.2h-0.7v-4.9h-1.6v-0.7h3.8v0.7h-1.6V58.2z"/>
</g>
<g class="st0">
	<path d="M217.9,54.1h0.7v0.5c0.2-0.4,0.6-0.6,1-0.6c0.2,0,0.4,0.1,0.6,0.2l-0.1,0.7c-0.1-0.1-0.3-0.2-0.6-0.2
		c-0.4,0-0.9,0.3-0.9,1.2v2.3h-0.7V54.1z"/>
</g>
<g class="st0">
	<path d="M223.2,57.8c-0.3,0.3-0.7,0.5-1.2,0.5c-0.8,0-1.4-0.5-1.4-1.4c0-0.9,0.7-1.4,1.5-1.4c0.4,0,0.7,0.1,1.1,0.3v-0.3
		c0-0.7-0.4-0.9-0.9-0.9c-0.5,0-0.9,0.2-1.2,0.4l-0.2-0.6c0.3-0.2,0.9-0.4,1.5-0.4c0.6,0,1.5,0.2,1.5,1.5v2.7h-0.7V57.8z M221.3,53
		c0-0.2,0.2-0.4,0.4-0.4c0.2,0,0.4,0.2,0.4,0.4c0,0.2-0.2,0.4-0.4,0.4C221.5,53.4,221.3,53.2,221.3,53z M223.2,57.1v-0.7
		c-0.2-0.2-0.6-0.3-1-0.3c-0.5,0-1,0.2-1,0.8c0,0.5,0.3,0.8,0.9,0.8C222.6,57.7,223,57.4,223.2,57.1z M222.7,53
		c0-0.2,0.2-0.4,0.4-0.4c0.2,0,0.4,0.2,0.4,0.4c0,0.2-0.2,0.4-0.4,0.4C222.9,53.4,222.7,53.2,222.7,53z"/>
	<path d="M226,59.3c1.3-0.1,1.6-0.5,1.6-1v-0.5c-0.2,0.3-0.6,0.5-1.1,0.5c-0.9,0-1.7-0.7-1.7-2.1c0-1.3,0.7-2.1,1.7-2.1
		c0.6,0,0.9,0.3,1,0.4v-0.3h0.7V58c0,1.3-0.8,1.8-1.9,1.8L226,59.3z M227.6,57.1v-1.9c-0.2-0.3-0.6-0.5-0.9-0.5
		c-0.7,0-1.1,0.5-1.1,1.5c0,0.9,0.5,1.5,1.1,1.5C227,57.7,227.4,57.4,227.6,57.1z"/>
	<path d="M229.3,56.2c0-1.4,0.7-2.1,1.8-2.1c0.9,0,1.7,0.6,1.7,1.9c0,0.1,0,0.3,0,0.5H230c0.1,0.8,0.5,1.2,1.1,1.2
		c0.3,0,0.6-0.1,0.9-0.4l0.4,0.5c-0.3,0.3-0.8,0.5-1.3,0.5C230,58.3,229.3,57.4,229.3,56.2z M232.1,55.8c0-0.9-0.6-1.2-1-1.2
		c-0.6,0-1.1,0.4-1.1,1.2H232.1z"/>
	<path d="M233.9,54.1h0.7v0.5c0.2-0.4,0.6-0.6,1-0.6c0.2,0,0.4,0.1,0.6,0.2l-0.1,0.7c-0.1-0.1-0.3-0.2-0.6-0.2
		c-0.4,0-0.9,0.3-0.9,1.2v2.3h-0.7V54.1z"/>
	<path d="M236.7,54.9c0-0.3,0.2-0.6,0.6-0.6c0.3,0,0.6,0.3,0.6,0.6s-0.2,0.5-0.6,0.5C237,55.4,236.7,55.2,236.7,54.9z M236.7,57.8
		c0-0.3,0.2-0.6,0.6-0.6c0.3,0,0.6,0.3,0.6,0.6c0,0.3-0.2,0.5-0.6,0.5C237,58.3,236.7,58.1,236.7,57.8z"/>
</g>
<g class="st0">
	<path d="M279.6,57.7l0.4-0.5c0.3,0.3,0.7,0.5,1.4,0.5c0.8,0,1.4-0.6,1.4-1.3c0-0.7-0.5-1.2-1.1-1.2c-0.5,0-0.9,0.2-1.1,0.5
		l-0.7-0.2l0.3-2.8h3v0.6h-2.4l-0.2,1.7c0.3-0.2,0.7-0.4,1.2-0.4c1.1,0,1.8,0.8,1.8,1.8c0,1.1-0.8,1.9-2.1,1.9
		C280.5,58.3,279.9,58,279.6,57.7z"/>
</g>
<g class="st0">
	<path d="M171.9,64.6h3.4v0.7h-2.7V67h1.8v0.7h-1.8v2.6h-0.7V64.6z"/>
</g>
<g class="st0">
	<path d="M176,66.1h0.7v0.5c0.2-0.4,0.6-0.6,1-0.6c0.2,0,0.4,0.1,0.6,0.2l-0.1,0.7c-0.1-0.1-0.3-0.2-0.6-0.2c-0.4,0-0.9,0.3-0.9,1.2
		v2.3H176V66.1z"/>
	<path d="M178.9,68.2c0-1.4,0.7-2.1,1.8-2.1c0.9,0,1.7,0.6,1.7,1.9c0,0.1,0,0.3,0,0.5h-2.8c0.1,0.8,0.5,1.2,1.1,1.2
		c0.3,0,0.6-0.1,0.9-0.4l0.4,0.5c-0.3,0.3-0.8,0.5-1.3,0.5C179.6,70.3,178.9,69.4,178.9,68.2z M181.7,67.8c0-0.9-0.6-1.2-1-1.2
		c-0.6,0-1.1,0.4-1.1,1.2H181.7z"/>
	<path d="M183.4,64.9c0-0.2,0.2-0.4,0.4-0.4c0.2,0,0.4,0.2,0.4,0.4c0,0.2-0.2,0.4-0.4,0.4C183.5,65.4,183.4,65.2,183.4,64.9z
		 M183.4,66.1h0.7v4.1h-0.7V66.1z"/>
	<path d="M185.2,68.2c0-1.4,0.7-2.1,1.8-2.1c0.9,0,1.7,0.6,1.7,1.9c0,0.1,0,0.3,0,0.5h-2.8c0.1,0.8,0.5,1.2,1.1,1.2
		c0.3,0,0.6-0.1,0.9-0.4l0.4,0.5c-0.3,0.3-0.8,0.5-1.3,0.5C185.9,70.3,185.2,69.4,185.2,68.2z M188,67.8c0-0.9-0.6-1.2-1-1.2
		c-0.6,0-1.1,0.4-1.1,1.2H188z"/>
</g>
<g class="st0">
	<path d="M193.4,70.2h-0.7v-4.9h-1.6v-0.7h3.8v0.7h-1.6V70.2z"/>
</g>
<g class="st0">
	<path d="M196,66.1h0.7v0.5c0.2-0.4,0.6-0.6,1-0.6c0.2,0,0.4,0.1,0.6,0.2l-0.1,0.7c-0.1-0.1-0.3-0.2-0.6-0.2c-0.4,0-0.9,0.3-0.9,1.2
		v2.3H196V66.1z"/>
</g>
<g class="st0">
	<path d="M201.3,69.8c-0.3,0.3-0.7,0.5-1.2,0.5c-0.8,0-1.4-0.5-1.4-1.4c0-0.9,0.7-1.4,1.5-1.4c0.4,0,0.7,0.1,1.1,0.3v-0.3
		c0-0.7-0.4-0.9-0.9-0.9c-0.5,0-0.9,0.2-1.2,0.4l-0.2-0.6c0.3-0.2,0.9-0.4,1.5-0.4c0.6,0,1.5,0.2,1.5,1.5v2.7h-0.7V69.8z M199.4,65
		c0-0.2,0.2-0.4,0.4-0.4c0.2,0,0.4,0.2,0.4,0.4c0,0.2-0.2,0.4-0.4,0.4C199.6,65.4,199.4,65.2,199.4,65z M201.3,69.1v-0.7
		c-0.2-0.2-0.6-0.3-1-0.3c-0.5,0-1,0.2-1,0.8c0,0.5,0.3,0.8,0.9,0.8C200.7,69.7,201.1,69.4,201.3,69.1z M200.8,65
		c0-0.2,0.2-0.4,0.4-0.4c0.2,0,0.4,0.2,0.4,0.4c0,0.2-0.2,0.4-0.4,0.4C201,65.4,200.8,65.2,200.8,65z"/>
	<path d="M204.1,71.3c1.3-0.1,1.6-0.5,1.6-1v-0.5c-0.2,0.3-0.6,0.5-1.1,0.5c-0.9,0-1.7-0.7-1.7-2.1c0-1.3,0.7-2.1,1.7-2.1
		c0.6,0,0.9,0.3,1,0.4v-0.3h0.7V70c0,1.3-0.8,1.8-1.9,1.8L204.1,71.3z M205.7,69.1v-1.9c-0.2-0.3-0.6-0.5-0.9-0.5
		c-0.7,0-1.1,0.5-1.1,1.5c0,0.9,0.5,1.5,1.1,1.5C205.1,69.7,205.5,69.4,205.7,69.1z"/>
	<path d="M207.4,68.2c0-1.4,0.7-2.1,1.8-2.1c0.9,0,1.7,0.6,1.7,1.9c0,0.1,0,0.3,0,0.5h-2.8c0.1,0.8,0.5,1.2,1.1,1.2
		c0.3,0,0.6-0.1,0.9-0.4l0.4,0.5c-0.3,0.3-0.8,0.5-1.3,0.5C208.1,70.3,207.4,69.4,207.4,68.2z M210.2,67.8c0-0.9-0.6-1.2-1-1.2
		c-0.6,0-1.1,0.4-1.1,1.2H210.2z"/>
	<path d="M212,66.1h0.7v0.5c0.2-0.4,0.6-0.6,1-0.6c0.2,0,0.4,0.1,0.6,0.2l-0.1,0.7c-0.1-0.1-0.3-0.2-0.6-0.2c-0.4,0-0.9,0.3-0.9,1.2
		v2.3H212V66.1z"/>
	<path d="M214.8,66.9c0-0.3,0.2-0.6,0.6-0.6c0.3,0,0.6,0.3,0.6,0.6s-0.2,0.5-0.6,0.5C215.1,67.4,214.8,67.2,214.8,66.9z M214.8,69.8
		c0-0.3,0.2-0.6,0.6-0.6c0.3,0,0.6,0.3,0.6,0.6c0,0.3-0.2,0.5-0.6,0.5C215.1,70.3,214.8,70.1,214.8,69.8z"/>
</g>
<g class="st0">
	<path d="M282.2,68.8h-2.9v-0.4l2.9-3.8h0.7v3.6h0.8v0.6h-0.8v1.4h-0.7V68.8z M282.2,65.6l-2,2.6h2V65.6z"/>
	<path d="M284.6,68.1c0-1.7,1.1-3.2,3-3.6v0.6c-1,0.2-1.9,1-2.1,2c0.2-0.3,0.7-0.5,1.2-0.5c1,0,1.7,0.8,1.7,1.8
		c0,1.1-0.8,1.8-1.9,1.8C285.2,70.3,284.6,69.4,284.6,68.1z M287.7,68.5c0-0.7-0.5-1.2-1.2-1.2c-0.7,0-1.2,0.5-1.2,1.2
		c0,0.7,0.5,1.1,1.2,1.1C287.2,69.6,287.7,69.2,287.7,68.5z"/>
</g>
<g>
	<path class="st1" d="M73.5,158.1c39.2,0,71.2-31.9,71.2-71.2s-31.9-71.2-71.2-71.2S2.3,47.6,2.3,86.9S34.3,158.1,73.5,158.1"/>
</g>
<g>
	<g>
		<g>
			<defs>
				<path id="SVGID_1_" d="M2.9,86.9c0,39,31.6,70.7,70.7,70.7c39,0,70.7-31.6,70.7-70.7c0-39-31.6-70.7-70.7-70.7
					C34.5,16.2,2.9,47.9,2.9,86.9"/>
			</defs>
			<clipPath id="SVGID_2_">
				<use xlink:href="#SVGID_1_"  style="overflow:visible;"/>
			</clipPath>
			<line class="st2" x1="-40.1" y1="124.8" x2="188.3" y2="255.6"/>
		</g>
	</g>
	<g>
		<g>
			<defs>
				<path id="SVGID_3_" d="M2.9,86.9c0,39,31.6,70.7,70.7,70.7c39,0,70.7-31.6,70.7-70.7c0-39-31.6-70.7-70.7-70.7
					C34.5,16.2,2.9,47.9,2.9,86.9"/>
			</defs>
			<clipPath id="SVGID_4_">
				<use xlink:href="#SVGID_3_"  style="overflow:visible;"/>
			</clipPath>
			<line class="st3" x1="-49.7" y1="113.8" x2="178.8" y2="244.6"/>
		</g>
	</g>
	<g>
		<g>
			<defs>
				<path id="SVGID_5_" d="M2.9,86.9c0,39,31.6,70.7,70.7,70.7c39,0,70.7-31.6,70.7-70.7c0-39-31.6-70.7-70.7-70.7
					C34.5,16.2,2.9,47.9,2.9,86.9"/>
			</defs>
			<clipPath id="SVGID_6_">
				<use xlink:href="#SVGID_5_"  style="overflow:visible;"/>
			</clipPath>
			<line class="st4" x1="-40.1" y1="113.8" x2="188.3" y2="244.6"/>
		</g>
	</g>
	<g>
		<g>
			<defs>
				<path id="SVGID_7_" d="M2.9,86.9c0,39,31.6,70.7,70.7,70.7c39,0,70.7-31.6,70.7-70.7c0-39-31.6-70.7-70.7-70.7
					C34.5,16.2,2.9,47.9,2.9,86.9"/>
			</defs>
			<clipPath id="SVGID_8_">
				<use xlink:href="#SVGID_7_"  style="overflow:visible;"/>
			</clipPath>
			<line class="st5" x1="-49.7" y1="102.9" x2="178.8" y2="233.7"/>
		</g>
	</g>
	<g>
		<g>
			<defs>
				<path id="SVGID_9_" d="M2.9,86.9c0,39,31.6,70.7,70.7,70.7c39,0,70.7-31.6,70.7-70.7c0-39-31.6-70.7-70.7-70.7
					C34.5,16.2,2.9,47.9,2.9,86.9"/>
			</defs>
			<clipPath id="SVGID_10_">
				<use xlink:href="#SVGID_9_"  style="overflow:visible;"/>
			</clipPath>
			<line class="st6" x1="-40.1" y1="102.9" x2="188.3" y2="233.7"/>
		</g>
	</g>
	<g>
		<g>
			<defs>
				<path id="SVGID_11_" d="M2.9,86.9c0,39,31.6,70.7,70.7,70.7c39,0,70.7-31.6,70.7-70.7c0-39-31.6-70.7-70.7-70.7
					C34.5,16.2,2.9,47.9,2.9,86.9"/>
			</defs>
			<clipPath id="SVGID_12_">
				<use xlink:href="#SVGID_11_"  style="overflow:visible;"/>
			</clipPath>
			<line class="st7" x1="-49.7" y1="91.9" x2="178.8" y2="222.7"/>
		</g>
	</g>
	<g>
		<g>
			<defs>
				<path id="SVGID_13_" d="M2.9,86.9c0,39,31.6,70.7,70.7,70.7c39,0,70.7-31.6,70.7-70.7c0-39-31.6-70.7-70.7-70.7
					C34.5,16.2,2.9,47.9,2.9,86.9"/>
			</defs>
			<clipPath id="SVGID_14_">
				<use xlink:href="#SVGID_13_"  style="overflow:visible;"/>
			</clipPath>
			<line class="st8" x1="-40.1" y1="91.9" x2="188.3" y2="222.7"/>
		</g>
	</g>
	<g>
		<g>
			<defs>
				<path id="SVGID_15_" d="M2.9,86.9c0,39,31.6,70.7,70.7,70.7c39,0,70.7-31.6,70.7-70.7c0-39-31.6-70.7-70.7-70.7
					C34.5,16.2,2.9,47.9,2.9,86.9"/>
			</defs>
			<clipPath id="SVGID_16_">
				<use xlink:href="#SVGID_15_"  style="overflow:visible;"/>
			</clipPath>
			<line class="st9" x1="-49.7" y1="81" x2="178.8" y2="211.7"/>
		</g>
	</g>
	<g>
		<g>
			<defs>
				<path id="SVGID_17_" d="M2.9,86.9c0,39,31.6,70.7,70.7,70.7c39,0,70.7-31.6,70.7-70.7c0-39-31.6-70.7-70.7-70.7
					C34.5,16.2,2.9,47.9,2.9,86.9"/>
			</defs>
			<clipPath id="SVGID_18_">
				<use xlink:href="#SVGID_17_"  style="overflow:visible;"/>
			</clipPath>
			<line class="st10" x1="-40.1" y1="81" x2="188.3" y2="211.7"/>
		</g>
	</g>
	<g>
		<g>
			<defs>
				<path id="SVGID_19_" d="M2.9,86.9c0,39,31.6,70.7,70.7,70.7c39,0,70.7-31.6,70.7-70.7c0-39-31.6-70.7-70.7-70.7
					C34.5,16.2,2.9,47.9,2.9,86.9"/>
			</defs>
			<clipPath id="SVGID_20_">
				<use xlink:href="#SVGID_19_"  style="overflow:visible;"/>
			</clipPath>
			<line class="st11" x1="-49.7" y1="70" x2="178.8" y2="200.8"/>
		</g>
	</g>
	<g>
		<g>
			<defs>
				<path id="SVGID_21_" d="M2.9,86.9c0,39,31.6,70.7,70.7,70.7c39,0,70.7-31.6,70.7-70.7c0-39-31.6-70.7-70.7-70.7
					C34.5,16.2,2.9,47.9,2.9,86.9"/>
			</defs>
			<clipPath id="SVGID_22_">
				<use xlink:href="#SVGID_21_"  style="overflow:visible;"/>
			</clipPath>
			<line class="st12" x1="-40.1" y1="70" x2="188.3" y2="200.8"/>
		</g>
	</g>
	<g>
		<g>
			<defs>
				<path id="SVGID_23_" d="M2.9,86.9c0,39,31.6,70.7,70.7,70.7c39,0,70.7-31.6,70.7-70.7c0-39-31.6-70.7-70.7-70.7
					C34.5,16.2,2.9,47.9,2.9,86.9"/>
			</defs>
			<clipPath id="SVGID_24_">
				<use xlink:href="#SVGID_23_"  style="overflow:visible;"/>
			</clipPath>
			<line class="st13" x1="-49.7" y1="59" x2="178.8" y2="189.8"/>
		</g>
	</g>
	<g>
		<g>
			<defs>
				<path id="SVGID_25_" d="M2.9,86.9c0,39,31.6,70.7,70.7,70.7c39,0,70.7-31.6,70.7-70.7c0-39-31.6-70.7-70.7-70.7
					C34.5,16.2,2.9,47.9,2.9,86.9"/>
			</defs>
			<clipPath id="SVGID_26_">
				<use xlink:href="#SVGID_25_"  style="overflow:visible;"/>
			</clipPath>
			<line class="st14" x1="-40.1" y1="59" x2="188.3" y2="189.8"/>
		</g>
	</g>
	<g>
		<g>
			<defs>
				<path id="SVGID_27_" d="M2.9,86.9c0,39,31.6,70.7,70.7,70.7c39,0,70.7-31.6,70.7-70.7c0-39-31.6-70.7-70.7-70.7
					C34.5,16.2,2.9,47.9,2.9,86.9"/>
			</defs>
			<clipPath id="SVGID_28_">
				<use xlink:href="#SVGID_27_"  style="overflow:visible;"/>
			</clipPath>
			<line class="st15" x1="-49.7" y1="48.1" x2="178.8" y2="178.8"/>
		</g>
	</g>
	<g>
		<g>
			<defs>
				<path id="SVGID_29_" d="M2.9,86.9c0,39,31.6,70.7,70.7,70.7c39,0,70.7-31.6,70.7-70.7c0-39-31.6-70.7-70.7-70.7
					C34.5,16.2,2.9,47.9,2.9,86.9"/>
			</defs>
			<clipPath id="SVGID_30_">
				<use xlink:href="#SVGID_29_"  style="overflow:visible;"/>
			</clipPath>
			<line class="st16" x1="-40.1" y1="48.1" x2="188.3" y2="178.8"/>
		</g>
	</g>
	<g>
		<g>
			<defs>
				<path id="SVGID_31_" d="M2.9,86.9c0,39,31.6,70.7,70.7,70.7c39,0,70.7-31.6,70.7-70.7c0-39-31.6-70.7-70.7-70.7
					C34.5,16.2,2.9,47.9,2.9,86.9"/>
			</defs>
			<clipPath id="SVGID_32_">
				<use xlink:href="#SVGID_31_"  style="overflow:visible;"/>
			</clipPath>
			<line class="st17" x1="-49.7" y1="37.1" x2="178.8" y2="167.9"/>
		</g>
	</g>
	<g>
		<g>
			<defs>
				<path id="SVGID_33_" d="M2.9,86.9c0,39,31.6,70.7,70.7,70.7c39,0,70.7-31.6,70.7-70.7c0-39-31.6-70.7-70.7-70.7
					C34.5,16.2,2.9,47.9,2.9,86.9"/>
			</defs>
			<clipPath id="SVGID_34_">
				<use xlink:href="#SVGID_33_"  style="overflow:visible;"/>
			</clipPath>
			<line class="st18" x1="-40.1" y1="37.1" x2="188.3" y2="167.9"/>
		</g>
	</g>
	<g>
		<g>
			<defs>
				<path id="SVGID_35_" d="M2.9,86.9c0,39,31.6,70.7,70.7,70.7c39,0,70.7-31.6,70.7-70.7c0-39-31.6-70.7-70.7-70.7
					C34.5,16.2,2.9,47.9,2.9,86.9"/>
			</defs>
			<clipPath id="SVGID_36_">
				<use xlink:href="#SVGID_35_"  style="overflow:visible;"/>
			</clipPath>
			<line class="st19" x1="-49.7" y1="26.1" x2="178.8" y2="156.9"/>
		</g>
	</g>
	<g>
		<g>
			<defs>
				<path id="SVGID_37_" d="M2.9,86.9c0,39,31.6,70.7,70.7,70.7c39,0,70.7-31.6,70.7-70.7c0-39-31.6-70.7-70.7-70.7
					C34.5,16.2,2.9,47.9,2.9,86.9"/>
			</defs>
			<clipPath id="SVGID_38_">
				<use xlink:href="#SVGID_37_"  style="overflow:visible;"/>
			</clipPath>
			<line class="st20" x1="-40.1" y1="26.1" x2="188.3" y2="156.9"/>
		</g>
	</g>
	<g>
		<g>
			<defs>
				<path id="SVGID_39_" d="M2.9,86.9c0,39,31.6,70.7,70.7,70.7c39,0,70.7-31.6,70.7-70.7c0-39-31.6-70.7-70.7-70.7
					C34.5,16.2,2.9,47.9,2.9,86.9"/>
			</defs>
			<clipPath id="SVGID_40_">
				<use xlink:href="#SVGID_39_"  style="overflow:visible;"/>
			</clipPath>
			<line class="st21" x1="-49.7" y1="15.2" x2="178.8" y2="145.9"/>
		</g>
	</g>
	<g>
		<g>
			<defs>
				<path id="SVGID_41_" d="M2.9,86.9c0,39,31.6,70.7,70.7,70.7c39,0,70.7-31.6,70.7-70.7c0-39-31.6-70.7-70.7-70.7
					C34.5,16.2,2.9,47.9,2.9,86.9"/>
			</defs>
			<clipPath id="SVGID_42_">
				<use xlink:href="#SVGID_41_"  style="overflow:visible;"/>
			</clipPath>
			<line class="st22" x1="-40.1" y1="15.2" x2="188.3" y2="145.9"/>
		</g>
	</g>
	<g>
		<g>
			<defs>
				<path id="SVGID_43_" d="M2.9,86.9c0,39,31.6,70.7,70.7,70.7c39,0,70.7-31.6,70.7-70.7c0-39-31.6-70.7-70.7-70.7
					C34.5,16.2,2.9,47.9,2.9,86.9"/>
			</defs>
			<clipPath id="SVGID_44_">
				<use xlink:href="#SVGID_43_"  style="overflow:visible;"/>
			</clipPath>
			<line class="st23" x1="-49.7" y1="4.2" x2="178.8" y2="135"/>
		</g>
	</g>
	<g>
		<g>
			<defs>
				<path id="SVGID_45_" d="M2.9,86.9c0,39,31.6,70.7,70.7,70.7c39,0,70.7-31.6,70.7-70.7c0-39-31.6-70.7-70.7-70.7
					C34.5,16.2,2.9,47.9,2.9,86.9"/>
			</defs>
			<clipPath id="SVGID_46_">
				<use xlink:href="#SVGID_45_"  style="overflow:visible;"/>
			</clipPath>
			<line class="st24" x1="-40.1" y1="4.2" x2="188.3" y2="135"/>
		</g>
	</g>
	<g>
		<g>
			<defs>
				<path id="SVGID_47_" d="M2.9,86.9c0,39,31.6,70.7,70.7,70.7c39,0,70.7-31.6,70.7-70.7c0-39-31.6-70.7-70.7-70.7
					C34.5,16.2,2.9,47.9,2.9,86.9"/>
			</defs>
			<clipPath id="SVGID_48_">
				<use xlink:href="#SVGID_47_"  style="overflow:visible;"/>
			</clipPath>
			<line class="st25" x1="-49.7" y1="-6.8" x2="178.8" y2="124"/>
		</g>
	</g>
	<g>
		<g>
			<defs>
				<path id="SVGID_49_" d="M2.9,86.9c0,39,31.6,70.7,70.7,70.7c39,0,70.7-31.6,70.7-70.7c0-39-31.6-70.7-70.7-70.7
					C34.5,16.2,2.9,47.9,2.9,86.9"/>
			</defs>
			<clipPath id="SVGID_50_">
				<use xlink:href="#SVGID_49_"  style="overflow:visible;"/>
			</clipPath>
			<line class="st26" x1="-40.1" y1="-6.8" x2="188.3" y2="124"/>
		</g>
	</g>
	<g>
		<g>
			<defs>
				<path id="SVGID_51_" d="M2.9,86.9c0,39,31.6,70.7,70.7,70.7c39,0,70.7-31.6,70.7-70.7c0-39-31.6-70.7-70.7-70.7
					C34.5,16.2,2.9,47.9,2.9,86.9"/>
			</defs>
			<clipPath id="SVGID_52_">
				<use xlink:href="#SVGID_51_"  style="overflow:visible;"/>
			</clipPath>
			<line class="st27" x1="-49.7" y1="-17.7" x2="178.8" y2="113.1"/>
		</g>
	</g>
	<g>
		<g>
			<defs>
				<path id="SVGID_53_" d="M2.9,86.9c0,39,31.6,70.7,70.7,70.7c39,0,70.7-31.6,70.7-70.7c0-39-31.6-70.7-70.7-70.7
					C34.5,16.2,2.9,47.9,2.9,86.9"/>
			</defs>
			<clipPath id="SVGID_54_">
				<use xlink:href="#SVGID_53_"  style="overflow:visible;"/>
			</clipPath>
			<line class="st28" x1="-40.1" y1="-17.7" x2="188.3" y2="113.1"/>
		</g>
	</g>
	<g>
		<g>
			<defs>
				<path id="SVGID_55_" d="M2.9,86.9c0,39,31.6,70.7,70.7,70.7c39,0,70.7-31.6,70.7-70.7c0-39-31.6-70.7-70.7-70.7
					C34.5,16.2,2.9,47.9,2.9,86.9"/>
			</defs>
			<clipPath id="SVGID_56_">
				<use xlink:href="#SVGID_55_"  style="overflow:visible;"/>
			</clipPath>
			<line class="st29" x1="-49.7" y1="-28.7" x2="178.8" y2="102.1"/>
		</g>
	</g>
	<g>
		<g>
			<defs>
				<path id="SVGID_57_" d="M2.9,86.9c0,39,31.6,70.7,70.7,70.7c39,0,70.7-31.6,70.7-70.7c0-39-31.6-70.7-70.7-70.7
					C34.5,16.2,2.9,47.9,2.9,86.9"/>
			</defs>
			<clipPath id="SVGID_58_">
				<use xlink:href="#SVGID_57_"  style="overflow:visible;"/>
			</clipPath>
			<line class="st30" x1="-40.1" y1="-28.7" x2="188.3" y2="102.1"/>
		</g>
	</g>
	<g>
		<g>
			<defs>
				<path id="SVGID_59_" d="M2.9,86.9c0,39,31.6,70.7,70.7,70.7c39,0,70.7-31.6,70.7-70.7c0-39-31.6-70.7-70.7-70.7
					C34.5,16.2,2.9,47.9,2.9,86.9"/>
			</defs>
			<clipPath id="SVGID_60_">
				<use xlink:href="#SVGID_59_"  style="overflow:visible;"/>
			</clipPath>
			<line class="st31" x1="-49.7" y1="-39.6" x2="178.8" y2="91.1"/>
		</g>
	</g>
	<g>
		<g>
			<defs>
				<path id="SVGID_61_" d="M2.9,86.9c0,39,31.6,70.7,70.7,70.7c39,0,70.7-31.6,70.7-70.7c0-39-31.6-70.7-70.7-70.7
					C34.5,16.2,2.9,47.9,2.9,86.9"/>
			</defs>
			<clipPath id="SVGID_62_">
				<use xlink:href="#SVGID_61_"  style="overflow:visible;"/>
			</clipPath>
			<line class="st32" x1="-40.1" y1="-39.6" x2="188.3" y2="91.1"/>
		</g>
	</g>
	<g>
		<g>
			<defs>
				<path id="SVGID_63_" d="M2.9,86.9c0,39,31.6,70.7,70.7,70.7c39,0,70.7-31.6,70.7-70.7c0-39-31.6-70.7-70.7-70.7
					C34.5,16.2,2.9,47.9,2.9,86.9"/>
			</defs>
			<clipPath id="SVGID_64_">
				<use xlink:href="#SVGID_63_"  style="overflow:visible;"/>
			</clipPath>
			<line class="st33" x1="-49.7" y1="-50.6" x2="178.8" y2="80.2"/>
		</g>
	</g>
	<g>
		<g>
			<defs>
				<path id="SVGID_65_" d="M2.9,86.9c0,39,31.6,70.7,70.7,70.7c39,0,70.7-31.6,70.7-70.7c0-39-31.6-70.7-70.7-70.7
					C34.5,16.2,2.9,47.9,2.9,86.9"/>
			</defs>
			<clipPath id="SVGID_66_">
				<use xlink:href="#SVGID_65_"  style="overflow:visible;"/>
			</clipPath>
			<line class="st34" x1="-40.1" y1="-50.6" x2="188.3" y2="80.2"/>
		</g>
	</g>
	<g>
		<g>
			<defs>
				<path id="SVGID_67_" d="M2.9,86.9c0,39,31.6,70.7,70.7,70.7c39,0,70.7-31.6,70.7-70.7c0-39-31.6-70.7-70.7-70.7
					C34.5,16.2,2.9,47.9,2.9,86.9"/>
			</defs>
			<clipPath id="SVGID_68_">
				<use xlink:href="#SVGID_67_"  style="overflow:visible;"/>
			</clipPath>
			<line class="st35" x1="-49.7" y1="-61.6" x2="178.8" y2="69.2"/>
		</g>
	</g>
	<g>
		<g>
			<defs>
				<path id="SVGID_69_" d="M2.9,86.9c0,39,31.6,70.7,70.7,70.7c39,0,70.7-31.6,70.7-70.7c0-39-31.6-70.7-70.7-70.7
					C34.5,16.2,2.9,47.9,2.9,86.9"/>
			</defs>
			<clipPath id="SVGID_70_">
				<use xlink:href="#SVGID_69_"  style="overflow:visible;"/>
			</clipPath>
			<line class="st36" x1="-40.1" y1="-61.6" x2="188.3" y2="69.2"/>
		</g>
	</g>
	<g>
		<g>
			<defs>
				<path id="SVGID_71_" d="M2.9,86.9c0,39,31.6,70.7,70.7,70.7c39,0,70.7-31.6,70.7-70.7c0-39-31.6-70.7-70.7-70.7
					C34.5,16.2,2.9,47.9,2.9,86.9"/>
			</defs>
			<clipPath id="SVGID_72_">
				<use xlink:href="#SVGID_71_"  style="overflow:visible;"/>
			</clipPath>
			<line class="st37" x1="-49.7" y1="-72.5" x2="178.8" y2="58.2"/>
		</g>
	</g>
	<g>
		<g>
			<defs>
				<path id="SVGID_73_" d="M2.9,86.9c0,39,31.6,70.7,70.7,70.7c39,0,70.7-31.6,70.7-70.7c0-39-31.6-70.7-70.7-70.7
					C34.5,16.2,2.9,47.9,2.9,86.9"/>
			</defs>
			<clipPath id="SVGID_74_">
				<use xlink:href="#SVGID_73_"  style="overflow:visible;"/>
			</clipPath>
			<line class="st38" x1="-40.1" y1="-72.5" x2="188.3" y2="58.2"/>
		</g>
	</g>
</g>
<g>
	<path class="st39" d="M73.5,158.1c39.2,0,71.2-31.9,71.2-71.2s-31.9-71.2-71.2-71.2S2.3,47.6,2.3,86.9S34.3,158.1,73.5,158.1z"/>
	<path class="st40" d="M117.1,30.5l-9.8-6l-7.2-2.7l-3.9-1.6l-5-1.4l-4.5-0.9l-10.1-1.5h-3.9c-0.4,1.2,0.2,71.5,0.2,71.5L117.1,30.5
		z"/>
	<path class="st41" d="M117.1,30.5l-9.8-6l-7.2-2.7l-3.9-1.6l-5-1.4l-4.5-0.9l-10.1-1.5h-3.9c-0.4,1.2,0.2,71.5,0.2,71.5L117.1,30.5
		z"/>
	<path class="st1" d="M75.6,2.8v73.4l43.7-55.5C119.3,20.7,101.9,2.3,75.6,2.8"/>
	<path class="st42" d="M75.6,2.8v73.4l43.7-55.5C119.3,20.7,101.9,2.3,75.6,2.8z"/>
</g>
<g class="st0">
	<path d="M85.2,22h-0.9v-0.6c0.5,0,1-0.2,1.1-0.6h0.6v5.6h-0.8V22z"/>
	<path d="M87.8,23.5c0-1.3,0.4-2.9,2-2.9c1.5,0,2,1.5,2,2.9c0,1.3-0.4,2.9-2,2.9C88.3,26.4,87.8,24.9,87.8,23.5z M91,23.5
		c0-1-0.2-2.1-1.1-2.1c-0.9,0-1.1,1.1-1.1,2.1c0,1,0.2,2.1,1.1,2.1C90.8,25.6,91,24.5,91,23.5z"/>
	<path d="M94.6,22c0-0.6,0.3-1.4,1.3-1.4c1,0,1.3,0.8,1.3,1.4c0,0.6-0.3,1.4-1.3,1.4C95,23.4,94.6,22.7,94.6,22z M96.6,22
		c0-0.5-0.2-0.8-0.6-0.8c-0.4,0-0.6,0.4-0.6,0.8c0,0.5,0.2,0.8,0.6,0.8C96.4,22.8,96.6,22.4,96.6,22z M95.4,26.4l3.8-5.8h0.8
		l-3.8,5.8H95.4z M98.1,25c0-0.6,0.3-1.4,1.3-1.4c1,0,1.3,0.8,1.3,1.4c0,0.6-0.3,1.4-1.3,1.4C98.5,26.4,98.1,25.6,98.1,25z
		 M100.1,25c0-0.5-0.2-0.8-0.6-0.8c-0.4,0-0.6,0.4-0.6,0.8c0,0.5,0.2,0.8,0.6,0.8C99.9,25.7,100.1,25.4,100.1,25z"/>
</g>
<rect x="33.4" y="134" class="st1" width="29" height="29"/>
<rect x="33.4" y="134" class="st42" width="29" height="29"/>
<g class="st0">
	<path d="M38.9,150.6c0.9,0,1.7-0.4,1.9-1.7c-0.2,0.2-0.6,0.4-1.1,0.4c-1,0-1.8-0.7-1.8-1.8c0-1.1,0.8-1.8,1.9-1.8
		c1.3,0,1.9,0.9,1.9,2.2c0,2.1-0.9,3.5-2.9,3.6V150.6z M40.9,147.5c0-0.6-0.4-0.9-1.1-0.9c-0.6,0-1.1,0.4-1.1,1c0,0.6,0.4,1,1.1,1
		S40.9,148.1,40.9,147.5z"/>
	<path d="M42.9,148.6c0-1.3,0.4-2.9,2-2.9c1.5,0,2,1.5,2,2.9c0,1.3-0.4,2.9-2,2.9C43.3,151.5,42.9,150,42.9,148.6z M46,148.6
		c0-1-0.2-2.1-1.1-2.1c-0.9,0-1.1,1.1-1.1,2.1c0,1,0.2,2.1,1.1,2.1C45.8,150.7,46,149.5,46,148.6z"/>
	<path d="M49.7,147.1c0-0.6,0.3-1.4,1.3-1.4c1,0,1.3,0.8,1.3,1.4c0,0.6-0.3,1.4-1.3,1.4C50,148.5,49.7,147.8,49.7,147.1z
		 M51.6,147.1c0-0.5-0.2-0.8-0.6-0.8c-0.4,0-0.6,0.4-0.6,0.8c0,0.5,0.2,0.8,0.6,0.8C51.4,147.9,51.6,147.5,51.6,147.1z M50.4,151.5
		l3.8-5.8H55l-3.8,5.8H50.4z M53.1,150c0-0.6,0.3-1.4,1.3-1.4c1,0,1.3,0.8,1.3,1.4c0,0.6-0.3,1.4-1.3,1.4
		C53.5,151.5,53.1,150.7,53.1,150z M55.1,150c0-0.5-0.2-0.8-0.6-0.8c-0.4,0-0.6,0.4-0.6,0.8c0,0.5,0.2,0.8,0.6,0.8
		C54.9,150.8,55.1,150.5,55.1,150z"/>
</g>
</svg>
