<?xml version="1.0" encoding="utf-8"?>
<!-- Generator: Adobe Illustrator 21.0.0, SVG Export Plug-In . SVG Version: 6.00 Build 0)  -->
<svg version="1.1" id="Layer_1" xmlns="http://www.w3.org/2000/svg" xmlns:xlink="http://www.w3.org/1999/xlink" x="0px" y="0px"
	 viewBox="0 0 329.7 168.5" style="enable-background:new 0 0 329.7 168.5;" xml:space="preserve">
<style type="text/css">
	.st0{font-family:'Overpass-Regular';}
	.st1{font-size:8px;}
	.st2{enable-background:new    ;}
	.st3{fill:#FFFFFF;}
	.st4{clip-path:url(#SVGID_2_);fill:none;stroke:#0000FF;stroke-width:0.991;}
	.st5{clip-path:url(#SVGID_4_);fill:none;stroke:#0000FF;stroke-width:0.991;}
	.st6{clip-path:url(#SVGID_6_);fill:none;stroke:#0000FF;stroke-width:0.991;}
	.st7{clip-path:url(#SVGID_8_);fill:none;stroke:#0000FF;stroke-width:0.991;}
	.st8{clip-path:url(#SVGID_10_);fill:none;stroke:#0000FF;stroke-width:0.991;}
	.st9{clip-path:url(#SVGID_12_);fill:none;stroke:#0000FF;stroke-width:0.991;}
	.st10{clip-path:url(#SVGID_14_);fill:none;stroke:#0000FF;stroke-width:0.991;}
	.st11{clip-path:url(#SVGID_16_);fill:none;stroke:#0000FF;stroke-width:0.991;}
	.st12{clip-path:url(#SVGID_18_);fill:none;stroke:#0000FF;stroke-width:0.991;}
	.st13{clip-path:url(#SVGID_20_);fill:none;stroke:#0000FF;stroke-width:0.991;}
	.st14{clip-path:url(#SVGID_22_);fill:none;stroke:#0000FF;stroke-width:0.991;}
	.st15{clip-path:url(#SVGID_24_);fill:none;stroke:#0000FF;stroke-width:0.991;}
	.st16{clip-path:url(#SVGID_26_);fill:none;stroke:#0000FF;stroke-width:0.991;}
	.st17{clip-path:url(#SVGID_28_);fill:none;stroke:#0000FF;stroke-width:0.991;}
	.st18{clip-path:url(#SVGID_30_);fill:none;stroke:#0000FF;stroke-width:0.991;}
	.st19{clip-path:url(#SVGID_32_);fill:none;stroke:#0000FF;stroke-width:0.991;}
	.st20{clip-path:url(#SVGID_34_);fill:none;stroke:#0000FF;stroke-width:0.991;}
	.st21{clip-path:url(#SVGID_36_);fill:none;stroke:#0000FF;stroke-width:0.991;}
	.st22{clip-path:url(#SVGID_38_);fill:none;stroke:#0000FF;stroke-width:0.991;}
	.st23{clip-path:url(#SVGID_40_);fill:none;stroke:#0000FF;stroke-width:0.991;}
	.st24{clip-path:url(#SVGID_42_);fill:none;stroke:#0000FF;stroke-width:0.991;}
	.st25{clip-path:url(#SVGID_44_);fill:none;stroke:#0000FF;stroke-width:0.991;}
	.st26{clip-path:url(#SVGID_46_);fill:none;stroke:#0000FF;stroke-width:0.991;}
	.st27{clip-path:url(#SVGID_48_);fill:none;stroke:#0000FF;stroke-width:0.991;}
	.st28{clip-path:url(#SVGID_50_);fill:none;stroke:#0000FF;stroke-width:0.991;}
	.st29{clip-path:url(#SVGID_52_);fill:none;stroke:#0000FF;stroke-width:0.991;}
	.st30{clip-path:url(#SVGID_54_);fill:none;stroke:#0000FF;stroke-width:0.991;}
	.st31{clip-path:url(#SVGID_56_);fill:none;stroke:#0000FF;stroke-width:0.991;}
	.st32{clip-path:url(#SVGID_58_);fill:none;stroke:#0000FF;stroke-width:0.991;}
	.st33{clip-path:url(#SVGID_60_);fill:none;stroke:#0000FF;stroke-width:0.991;}
	.st34{clip-path:url(#SVGID_62_);fill:none;stroke:#0000FF;stroke-width:0.991;}
	.st35{clip-path:url(#SVGID_64_);fill:none;stroke:#0000FF;stroke-width:0.991;}
	.st36{clip-path:url(#SVGID_66_);fill:none;stroke:#0000FF;stroke-width:0.991;}
	.st37{clip-path:url(#SVGID_68_);fill:none;stroke:#0000FF;stroke-width:0.991;}
	.st38{clip-path:url(#SVGID_70_);fill:none;stroke:#0000FF;stroke-width:0.991;}
	.st39{clip-path:url(#SVGID_72_);fill:none;stroke:#0000FF;stroke-width:0.991;}
	.st40{clip-path:url(#SVGID_74_);fill:none;stroke:#0000FF;stroke-width:0.991;}
	.st41{fill:none;stroke:#0000FF;stroke-width:0.991;}
	.st42{fill:#0000FF;}
	.st43{fill:none;stroke:#0000FF;stroke-width:1.487;}
	.st44{fill:none;stroke:#000000;stroke-width:0.743;}
	.st45{font-family:'Overpass-SemiBold';}
</style>
<text transform="matrix(1 0 0 1 171.1039 89.7774)" class="st0 st1">n=5</text>
<text transform="matrix(1 0 0 1 185.9038 89.7774)" class="st0 st1">1</text>
<text transform="matrix(1 0 0 1 171.1029 58.2051)" class="st0 st1">Ö</text>
<text transform="matrix(1 0 0 1 176.9029 58.2051)" class="st0 st1">f</text>
<text transform="matrix(1 0 0 1 179.7029 58.2051)" class="st0 st1">f</text>
<text transform="matrix(1 0 0 1 182.2029 58.2051)" class="st0 st1">entliche</text>
<text transform="matrix(1 0 0 1 211.0029 58.2051)" class="st0 st1"> </text>
<text transform="matrix(1 0 0 1 212.5029 58.2051)" class="st0 st1">T</text>
<text transform="matrix(1 0 0 1 217.2029 58.2051)" class="st0 st1">r</text>
<text transform="matrix(1 0 0 1 220.2029 58.2051)" class="st0 st1">äger:</text>
<text transform="matrix(1 0 0 1 184.5268 179.9277)" class="st0 st1" style="letter-spacing:3;"> </text>
<text transform="matrix(1 0 0 1 189.5268 179.9277)" class="st0 st1"> </text>
<text transform="matrix(1 0 0 1 279.1029 58.2051)" class="st0 st1">5</text>
<text transform="matrix(1 0 0 1 171.1029 70.2051)" class="st0 st1">F</text>
<text transform="matrix(1 0 0 1 175.3029 70.2051)" class="st0 st1">reie</text>
<text transform="matrix(1 0 0 1 189.1029 70.2051)" class="st0 st1"> </text>
<text transform="matrix(1 0 0 1 190.7029 70.2051)" class="st0 st1">T</text>
<text transform="matrix(1 0 0 1 195.3029 70.2051)" class="st0 st1">r</text>
<text transform="matrix(1 0 0 1 198.3029 70.2051)" class="st0 st1">äger: </text>
<text transform="matrix(1 0 0 1 164.519 191.9277)" class="st0 st1" style="letter-spacing:23;"> </text>
<text transform="matrix(1 0 0 1 189.519 191.9277)" class="st0 st1"> </text>
<text transform="matrix(1 0 0 1 279.1029 70.2051)" class="st0 st1">46</text>
<text transform="matrix(1 0 0 1 -12.2942 9.4025)" class="st0" style="font-size:13px;"> </text>
<g>
	<path class="st3" d="M73.5,158.1c39.2,0,71.2-31.9,71.2-71.2s-31.9-71.2-71.2-71.2S2.3,47.6,2.3,86.9S34.3,158.1,73.5,158.1"/>
</g>
<g>
	<g>
		<defs>
			<path id="SVGID_1_" d="M2.9,86.9c0,39,31.6,70.7,70.7,70.7c39,0,70.7-31.6,70.7-70.7c0-39-31.6-70.7-70.7-70.7
				C34.5,16.2,2.9,47.9,2.9,86.9"/>
		</defs>
		<clipPath id="SVGID_2_">
			<use xlink:href="#SVGID_1_"  style="overflow:visible;"/>
		</clipPath>
		<line class="st4" x1="-40.1" y1="124.8" x2="188.3" y2="255.6"/>
	</g>
	<g>
		<defs>
			<path id="SVGID_3_" d="M2.9,86.9c0,39,31.6,70.7,70.7,70.7c39,0,70.7-31.6,70.7-70.7c0-39-31.6-70.7-70.7-70.7
				C34.5,16.2,2.9,47.9,2.9,86.9"/>
		</defs>
		<clipPath id="SVGID_4_">
			<use xlink:href="#SVGID_3_"  style="overflow:visible;"/>
		</clipPath>
		<line class="st5" x1="-49.7" y1="113.8" x2="178.8" y2="244.6"/>
	</g>
	<g>
		<defs>
			<path id="SVGID_5_" d="M2.9,86.9c0,39,31.6,70.7,70.7,70.7c39,0,70.7-31.6,70.7-70.7c0-39-31.6-70.7-70.7-70.7
				C34.5,16.2,2.9,47.9,2.9,86.9"/>
		</defs>
		<clipPath id="SVGID_6_">
			<use xlink:href="#SVGID_5_"  style="overflow:visible;"/>
		</clipPath>
		<line class="st6" x1="-40.1" y1="113.8" x2="188.3" y2="244.6"/>
	</g>
	<g>
		<defs>
			<path id="SVGID_7_" d="M2.9,86.9c0,39,31.6,70.7,70.7,70.7c39,0,70.7-31.6,70.7-70.7c0-39-31.6-70.7-70.7-70.7
				C34.5,16.2,2.9,47.9,2.9,86.9"/>
		</defs>
		<clipPath id="SVGID_8_">
			<use xlink:href="#SVGID_7_"  style="overflow:visible;"/>
		</clipPath>
		<line class="st7" x1="-49.7" y1="102.9" x2="178.8" y2="233.7"/>
	</g>
	<g>
		<defs>
			<path id="SVGID_9_" d="M2.9,86.9c0,39,31.6,70.7,70.7,70.7c39,0,70.7-31.6,70.7-70.7c0-39-31.6-70.7-70.7-70.7
				C34.5,16.2,2.9,47.9,2.9,86.9"/>
		</defs>
		<clipPath id="SVGID_10_">
			<use xlink:href="#SVGID_9_"  style="overflow:visible;"/>
		</clipPath>
		<line class="st8" x1="-40.1" y1="102.9" x2="188.3" y2="233.7"/>
	</g>
	<g>
		<defs>
			<path id="SVGID_11_" d="M2.9,86.9c0,39,31.6,70.7,70.7,70.7c39,0,70.7-31.6,70.7-70.7c0-39-31.6-70.7-70.7-70.7
				C34.5,16.2,2.9,47.9,2.9,86.9"/>
		</defs>
		<clipPath id="SVGID_12_">
			<use xlink:href="#SVGID_11_"  style="overflow:visible;"/>
		</clipPath>
		<line class="st9" x1="-49.7" y1="91.9" x2="178.8" y2="222.7"/>
	</g>
	<g>
		<defs>
			<path id="SVGID_13_" d="M2.9,86.9c0,39,31.6,70.7,70.7,70.7c39,0,70.7-31.6,70.7-70.7c0-39-31.6-70.7-70.7-70.7
				C34.5,16.2,2.9,47.9,2.9,86.9"/>
		</defs>
		<clipPath id="SVGID_14_">
			<use xlink:href="#SVGID_13_"  style="overflow:visible;"/>
		</clipPath>
		<line class="st10" x1="-40.1" y1="91.9" x2="188.3" y2="222.7"/>
	</g>
	<g>
		<defs>
			<path id="SVGID_15_" d="M2.9,86.9c0,39,31.6,70.7,70.7,70.7c39,0,70.7-31.6,70.7-70.7c0-39-31.6-70.7-70.7-70.7
				C34.5,16.2,2.9,47.9,2.9,86.9"/>
		</defs>
		<clipPath id="SVGID_16_">
			<use xlink:href="#SVGID_15_"  style="overflow:visible;"/>
		</clipPath>
		<line class="st11" x1="-49.7" y1="81" x2="178.8" y2="211.7"/>
	</g>
	<g>
		<defs>
			<path id="SVGID_17_" d="M2.9,86.9c0,39,31.6,70.7,70.7,70.7c39,0,70.7-31.6,70.7-70.7c0-39-31.6-70.7-70.7-70.7
				C34.5,16.2,2.9,47.9,2.9,86.9"/>
		</defs>
		<clipPath id="SVGID_18_">
			<use xlink:href="#SVGID_17_"  style="overflow:visible;"/>
		</clipPath>
		<line class="st12" x1="-40.1" y1="81" x2="188.3" y2="211.7"/>
	</g>
	<g>
		<defs>
			<path id="SVGID_19_" d="M2.9,86.9c0,39,31.6,70.7,70.7,70.7c39,0,70.7-31.6,70.7-70.7c0-39-31.6-70.7-70.7-70.7
				C34.5,16.2,2.9,47.9,2.9,86.9"/>
		</defs>
		<clipPath id="SVGID_20_">
			<use xlink:href="#SVGID_19_"  style="overflow:visible;"/>
		</clipPath>
		<line class="st13" x1="-49.7" y1="70" x2="178.8" y2="200.8"/>
	</g>
	<g>
		<defs>
			<path id="SVGID_21_" d="M2.9,86.9c0,39,31.6,70.7,70.7,70.7c39,0,70.7-31.6,70.7-70.7c0-39-31.6-70.7-70.7-70.7
				C34.5,16.2,2.9,47.9,2.9,86.9"/>
		</defs>
		<clipPath id="SVGID_22_">
			<use xlink:href="#SVGID_21_"  style="overflow:visible;"/>
		</clipPath>
		<line class="st14" x1="-40.1" y1="70" x2="188.3" y2="200.8"/>
	</g>
	<g>
		<defs>
			<path id="SVGID_23_" d="M2.9,86.9c0,39,31.6,70.7,70.7,70.7c39,0,70.7-31.6,70.7-70.7c0-39-31.6-70.7-70.7-70.7
				C34.5,16.2,2.9,47.9,2.9,86.9"/>
		</defs>
		<clipPath id="SVGID_24_">
			<use xlink:href="#SVGID_23_"  style="overflow:visible;"/>
		</clipPath>
		<line class="st15" x1="-49.7" y1="59" x2="178.8" y2="189.8"/>
	</g>
	<g>
		<defs>
			<path id="SVGID_25_" d="M2.9,86.9c0,39,31.6,70.7,70.7,70.7c39,0,70.7-31.6,70.7-70.7c0-39-31.6-70.7-70.7-70.7
				C34.5,16.2,2.9,47.9,2.9,86.9"/>
		</defs>
		<clipPath id="SVGID_26_">
			<use xlink:href="#SVGID_25_"  style="overflow:visible;"/>
		</clipPath>
		<line class="st16" x1="-40.1" y1="59" x2="188.3" y2="189.8"/>
	</g>
	<g>
		<defs>
			<path id="SVGID_27_" d="M2.9,86.9c0,39,31.6,70.7,70.7,70.7c39,0,70.7-31.6,70.7-70.7c0-39-31.6-70.7-70.7-70.7
				C34.5,16.2,2.9,47.9,2.9,86.9"/>
		</defs>
		<clipPath id="SVGID_28_">
			<use xlink:href="#SVGID_27_"  style="overflow:visible;"/>
		</clipPath>
		<line class="st17" x1="-49.7" y1="48.1" x2="178.8" y2="178.8"/>
	</g>
	<g>
		<defs>
			<path id="SVGID_29_" d="M2.9,86.9c0,39,31.6,70.7,70.7,70.7c39,0,70.7-31.6,70.7-70.7c0-39-31.6-70.7-70.7-70.7
				C34.5,16.2,2.9,47.9,2.9,86.9"/>
		</defs>
		<clipPath id="SVGID_30_">
			<use xlink:href="#SVGID_29_"  style="overflow:visible;"/>
		</clipPath>
		<line class="st18" x1="-40.1" y1="48.1" x2="188.3" y2="178.8"/>
	</g>
	<g>
		<defs>
			<path id="SVGID_31_" d="M2.9,86.9c0,39,31.6,70.7,70.7,70.7c39,0,70.7-31.6,70.7-70.7c0-39-31.6-70.7-70.7-70.7
				C34.5,16.2,2.9,47.9,2.9,86.9"/>
		</defs>
		<clipPath id="SVGID_32_">
			<use xlink:href="#SVGID_31_"  style="overflow:visible;"/>
		</clipPath>
		<line class="st19" x1="-49.7" y1="37.1" x2="178.8" y2="167.9"/>
	</g>
	<g>
		<defs>
			<path id="SVGID_33_" d="M2.9,86.9c0,39,31.6,70.7,70.7,70.7c39,0,70.7-31.6,70.7-70.7c0-39-31.6-70.7-70.7-70.7
				C34.5,16.2,2.9,47.9,2.9,86.9"/>
		</defs>
		<clipPath id="SVGID_34_">
			<use xlink:href="#SVGID_33_"  style="overflow:visible;"/>
		</clipPath>
		<line class="st20" x1="-40.1" y1="37.1" x2="188.3" y2="167.9"/>
	</g>
	<g>
		<defs>
			<path id="SVGID_35_" d="M2.9,86.9c0,39,31.6,70.7,70.7,70.7c39,0,70.7-31.6,70.7-70.7c0-39-31.6-70.7-70.7-70.7
				C34.5,16.2,2.9,47.9,2.9,86.9"/>
		</defs>
		<clipPath id="SVGID_36_">
			<use xlink:href="#SVGID_35_"  style="overflow:visible;"/>
		</clipPath>
		<line class="st21" x1="-49.7" y1="26.1" x2="178.8" y2="156.9"/>
	</g>
	<g>
		<defs>
			<path id="SVGID_37_" d="M2.9,86.9c0,39,31.6,70.7,70.7,70.7c39,0,70.7-31.6,70.7-70.7c0-39-31.6-70.7-70.7-70.7
				C34.5,16.2,2.9,47.9,2.9,86.9"/>
		</defs>
		<clipPath id="SVGID_38_">
			<use xlink:href="#SVGID_37_"  style="overflow:visible;"/>
		</clipPath>
		<line class="st22" x1="-40.1" y1="26.1" x2="188.3" y2="156.9"/>
	</g>
	<g>
		<defs>
			<path id="SVGID_39_" d="M2.9,86.9c0,39,31.6,70.7,70.7,70.7c39,0,70.7-31.6,70.7-70.7c0-39-31.6-70.7-70.7-70.7
				C34.5,16.2,2.9,47.9,2.9,86.9"/>
		</defs>
		<clipPath id="SVGID_40_">
			<use xlink:href="#SVGID_39_"  style="overflow:visible;"/>
		</clipPath>
		<line class="st23" x1="-49.7" y1="15.2" x2="178.8" y2="145.9"/>
	</g>
	<g>
		<defs>
			<path id="SVGID_41_" d="M2.9,86.9c0,39,31.6,70.7,70.7,70.7c39,0,70.7-31.6,70.7-70.7c0-39-31.6-70.7-70.7-70.7
				C34.5,16.2,2.9,47.9,2.9,86.9"/>
		</defs>
		<clipPath id="SVGID_42_">
			<use xlink:href="#SVGID_41_"  style="overflow:visible;"/>
		</clipPath>
		<line class="st24" x1="-40.1" y1="15.2" x2="188.3" y2="145.9"/>
	</g>
	<g>
		<defs>
			<path id="SVGID_43_" d="M2.9,86.9c0,39,31.6,70.7,70.7,70.7c39,0,70.7-31.6,70.7-70.7c0-39-31.6-70.7-70.7-70.7
				C34.5,16.2,2.9,47.9,2.9,86.9"/>
		</defs>
		<clipPath id="SVGID_44_">
			<use xlink:href="#SVGID_43_"  style="overflow:visible;"/>
		</clipPath>
		<line class="st25" x1="-49.7" y1="4.2" x2="178.8" y2="135"/>
	</g>
	<g>
		<defs>
			<path id="SVGID_45_" d="M2.9,86.9c0,39,31.6,70.7,70.7,70.7c39,0,70.7-31.6,70.7-70.7c0-39-31.6-70.7-70.7-70.7
				C34.5,16.2,2.9,47.9,2.9,86.9"/>
		</defs>
		<clipPath id="SVGID_46_">
			<use xlink:href="#SVGID_45_"  style="overflow:visible;"/>
		</clipPath>
		<line class="st26" x1="-40.1" y1="4.2" x2="188.3" y2="135"/>
	</g>
	<g>
		<defs>
			<path id="SVGID_47_" d="M2.9,86.9c0,39,31.6,70.7,70.7,70.7c39,0,70.7-31.6,70.7-70.7c0-39-31.6-70.7-70.7-70.7
				C34.5,16.2,2.9,47.9,2.9,86.9"/>
		</defs>
		<clipPath id="SVGID_48_">
			<use xlink:href="#SVGID_47_"  style="overflow:visible;"/>
		</clipPath>
		<line class="st27" x1="-49.7" y1="-6.8" x2="178.8" y2="124"/>
	</g>
	<g>
		<defs>
			<path id="SVGID_49_" d="M2.9,86.9c0,39,31.6,70.7,70.7,70.7c39,0,70.7-31.6,70.7-70.7c0-39-31.6-70.7-70.7-70.7
				C34.5,16.2,2.9,47.9,2.9,86.9"/>
		</defs>
		<clipPath id="SVGID_50_">
			<use xlink:href="#SVGID_49_"  style="overflow:visible;"/>
		</clipPath>
		<line class="st28" x1="-40.1" y1="-6.8" x2="188.3" y2="124"/>
	</g>
	<g>
		<defs>
			<path id="SVGID_51_" d="M2.9,86.9c0,39,31.6,70.7,70.7,70.7c39,0,70.7-31.6,70.7-70.7c0-39-31.6-70.7-70.7-70.7
				C34.5,16.2,2.9,47.9,2.9,86.9"/>
		</defs>
		<clipPath id="SVGID_52_">
			<use xlink:href="#SVGID_51_"  style="overflow:visible;"/>
		</clipPath>
		<line class="st29" x1="-49.7" y1="-17.7" x2="178.8" y2="113.1"/>
	</g>
	<g>
		<defs>
			<path id="SVGID_53_" d="M2.9,86.9c0,39,31.6,70.7,70.7,70.7c39,0,70.7-31.6,70.7-70.7c0-39-31.6-70.7-70.7-70.7
				C34.5,16.2,2.9,47.9,2.9,86.9"/>
		</defs>
		<clipPath id="SVGID_54_">
			<use xlink:href="#SVGID_53_"  style="overflow:visible;"/>
		</clipPath>
		<line class="st30" x1="-40.1" y1="-17.7" x2="188.3" y2="113.1"/>
	</g>
	<g>
		<defs>
			<path id="SVGID_55_" d="M2.9,86.9c0,39,31.6,70.7,70.7,70.7c39,0,70.7-31.6,70.7-70.7c0-39-31.6-70.7-70.7-70.7
				C34.5,16.2,2.9,47.9,2.9,86.9"/>
		</defs>
		<clipPath id="SVGID_56_">
			<use xlink:href="#SVGID_55_"  style="overflow:visible;"/>
		</clipPath>
		<line class="st31" x1="-49.7" y1="-28.7" x2="178.8" y2="102.1"/>
	</g>
	<g>
		<defs>
			<path id="SVGID_57_" d="M2.9,86.9c0,39,31.6,70.7,70.7,70.7c39,0,70.7-31.6,70.7-70.7c0-39-31.6-70.7-70.7-70.7
				C34.5,16.2,2.9,47.9,2.9,86.9"/>
		</defs>
		<clipPath id="SVGID_58_">
			<use xlink:href="#SVGID_57_"  style="overflow:visible;"/>
		</clipPath>
		<line class="st32" x1="-40.1" y1="-28.7" x2="188.3" y2="102.1"/>
	</g>
	<g>
		<defs>
			<path id="SVGID_59_" d="M2.9,86.9c0,39,31.6,70.7,70.7,70.7c39,0,70.7-31.6,70.7-70.7c0-39-31.6-70.7-70.7-70.7
				C34.5,16.2,2.9,47.9,2.9,86.9"/>
		</defs>
		<clipPath id="SVGID_60_">
			<use xlink:href="#SVGID_59_"  style="overflow:visible;"/>
		</clipPath>
		<line class="st33" x1="-49.7" y1="-39.6" x2="178.8" y2="91.1"/>
	</g>
	<g>
		<defs>
			<path id="SVGID_61_" d="M2.9,86.9c0,39,31.6,70.7,70.7,70.7c39,0,70.7-31.6,70.7-70.7c0-39-31.6-70.7-70.7-70.7
				C34.5,16.2,2.9,47.9,2.9,86.9"/>
		</defs>
		<clipPath id="SVGID_62_">
			<use xlink:href="#SVGID_61_"  style="overflow:visible;"/>
		</clipPath>
		<line class="st34" x1="-40.1" y1="-39.6" x2="188.3" y2="91.1"/>
	</g>
	<g>
		<defs>
			<path id="SVGID_63_" d="M2.9,86.9c0,39,31.6,70.7,70.7,70.7c39,0,70.7-31.6,70.7-70.7c0-39-31.6-70.7-70.7-70.7
				C34.5,16.2,2.9,47.9,2.9,86.9"/>
		</defs>
		<clipPath id="SVGID_64_">
			<use xlink:href="#SVGID_63_"  style="overflow:visible;"/>
		</clipPath>
		<line class="st35" x1="-49.7" y1="-50.6" x2="178.8" y2="80.2"/>
	</g>
	<g>
		<defs>
			<path id="SVGID_65_" d="M2.9,86.9c0,39,31.6,70.7,70.7,70.7c39,0,70.7-31.6,70.7-70.7c0-39-31.6-70.7-70.7-70.7
				C34.5,16.2,2.9,47.9,2.9,86.9"/>
		</defs>
		<clipPath id="SVGID_66_">
			<use xlink:href="#SVGID_65_"  style="overflow:visible;"/>
		</clipPath>
		<line class="st36" x1="-40.1" y1="-50.6" x2="188.3" y2="80.2"/>
	</g>
	<g>
		<defs>
			<path id="SVGID_67_" d="M2.9,86.9c0,39,31.6,70.7,70.7,70.7c39,0,70.7-31.6,70.7-70.7c0-39-31.6-70.7-70.7-70.7
				C34.5,16.2,2.9,47.9,2.9,86.9"/>
		</defs>
		<clipPath id="SVGID_68_">
			<use xlink:href="#SVGID_67_"  style="overflow:visible;"/>
		</clipPath>
		<line class="st37" x1="-49.7" y1="-61.6" x2="178.8" y2="69.2"/>
	</g>
	<g>
		<defs>
			<path id="SVGID_69_" d="M2.9,86.9c0,39,31.6,70.7,70.7,70.7c39,0,70.7-31.6,70.7-70.7c0-39-31.6-70.7-70.7-70.7
				C34.5,16.2,2.9,47.9,2.9,86.9"/>
		</defs>
		<clipPath id="SVGID_70_">
			<use xlink:href="#SVGID_69_"  style="overflow:visible;"/>
		</clipPath>
		<line class="st38" x1="-40.1" y1="-61.6" x2="188.3" y2="69.2"/>
	</g>
	<g>
		<defs>
			<path id="SVGID_71_" d="M2.9,86.9c0,39,31.6,70.7,70.7,70.7c39,0,70.7-31.6,70.7-70.7c0-39-31.6-70.7-70.7-70.7
				C34.5,16.2,2.9,47.9,2.9,86.9"/>
		</defs>
		<clipPath id="SVGID_72_">
			<use xlink:href="#SVGID_71_"  style="overflow:visible;"/>
		</clipPath>
		<line class="st39" x1="-49.7" y1="-72.5" x2="178.8" y2="58.2"/>
	</g>
	<g>
		<defs>
			<path id="SVGID_73_" d="M2.9,86.9c0,39,31.6,70.7,70.7,70.7c39,0,70.7-31.6,70.7-70.7c0-39-31.6-70.7-70.7-70.7
				C34.5,16.2,2.9,47.9,2.9,86.9"/>
		</defs>
		<clipPath id="SVGID_74_">
			<use xlink:href="#SVGID_73_"  style="overflow:visible;"/>
		</clipPath>
		<line class="st40" x1="-40.1" y1="-72.5" x2="188.3" y2="58.2"/>
	</g>
</g>
<g>
	<path class="st41" d="M73.5,158.1c39.2,0,71.2-31.9,71.2-71.2s-31.9-71.2-71.2-71.2S2.3,47.6,2.3,86.9S34.3,158.1,73.5,158.1z"/>
	<path class="st42" d="M117.1,30.5l-9.8-6l-7.2-2.7l-3.9-1.6l-5-1.4l-4.5-0.9l-10.1-1.5h-3.9c-0.4,1.2,0.2,71.5,0.2,71.5L117.1,30.5
		z"/>
	<path class="st43" d="M117.1,30.5l-9.8-6l-7.2-2.7l-3.9-1.6l-5-1.4l-4.5-0.9l-10.1-1.5h-3.9c-0.4,1.2,0.2,71.5,0.2,71.5L117.1,30.5
		z"/>
	<path class="st3" d="M75.6,2.8v73.4l43.7-55.5C119.3,20.7,101.9,2.3,75.6,2.8"/>
	<path class="st44" d="M75.6,2.8v73.4l43.7-55.5C119.3,20.7,101.9,2.3,75.6,2.8z"/>
</g>
<text transform="matrix(1 0 0 1 84.0403 26.2921)" class="st45 st1">10 %</text>
<rect x="33.4" y="134" class="st3" width="29" height="29"/>
<rect x="33.4" y="134" class="st44" width="29" height="29"/>
<text transform="matrix(1 0 0 1 37.4885 151.3712)" class="st45 st1">90 %</text>
</svg>
