<?xml version="1.0" encoding="utf-8"?>
<!-- Generator: Adobe Illustrator 21.0.0, SVG Export Plug-In . SVG Version: 6.00 Build 0)  -->
<svg version="1.1" id="Layer_1" xmlns="http://www.w3.org/2000/svg" xmlns:xlink="http://www.w3.org/1999/xlink" x="0px" y="0px"
	 viewBox="0 0 330 168" style="enable-background:new 0 0 330 168;" xml:space="preserve">
<style type="text/css">
	.st0{enable-background:new    ;}
	.st1{fill:#0000FF;}
	.st2{fill:#FFFFFF;}
	.st3{fill:none;stroke:#000000;stroke-width:0.745;}
</style>
<g>
	<g class="st0">
		<path d="M196.6,142.2c0-0.7-0.3-1-0.8-1c-0.5,0-0.9,0.2-0.9,1v2.2h-0.6v-3.7h0.6v0.4c0.2-0.3,0.6-0.5,1-0.5c0.8,0,1.3,0.5,1.3,1.7
			v2.1h-0.6V142.2z"/>
		<path d="M198.5,141h3.4v0.6h-3.4V141z M198.5,142.3h3.4v0.6h-3.4V142.3z"/>
	</g>
	<g class="st0">
		<path d="M204.7,144l0.4-0.5c0.3,0.2,0.6,0.5,1.2,0.5c0.7,0,1.2-0.5,1.2-1.1s-0.4-1.1-1-1.1c-0.5,0-0.8,0.2-1,0.4l-0.6-0.2l0.3-2.6
			h2.7v0.6h-2.2l-0.2,1.5c0.3-0.2,0.6-0.3,1.1-0.3c1,0,1.6,0.7,1.6,1.6c0,1-0.7,1.8-1.9,1.8C205.5,144.5,205,144.2,204.7,144z"/>
		<path d="M209.8,140.4H209V140c0.5,0,0.9-0.1,1-0.6h0.5v5.1h-0.6V140.4z"/>
	</g>
	<g class="st0">
		<path d="M213.7,142.4c0-1.5,0.5-2.5,1-3.1h0.6c-0.3,0.3-0.9,1.5-0.9,3.1c0,1.6,0.6,2.7,0.9,3h-0.6
			C214.2,144.8,213.7,143.9,213.7,142.4z"/>
	</g>
	<g class="st0">
		<path d="M220.6,142.2c0-0.5-0.2-1-0.7-1c-0.5,0-0.8,0.4-0.8,1v2.2h-0.6v-2.2c0-0.5-0.2-1-0.7-1c-0.5,0-0.8,0.4-0.8,1v2.2h-0.6
			v-3.7h0.6v0.3c0.2-0.3,0.6-0.4,1-0.4c0.4,0,0.8,0.2,1,0.5c0.2-0.3,0.6-0.5,1.1-0.5c0.7,0,1.3,0.5,1.3,1.4v2.4h-0.6V142.2z"/>
		<path d="M222.2,142.6c0-1.2,0.7-1.9,1.6-1.9c0.8,0,1.5,0.5,1.5,1.8c0,0.1,0,0.3,0,0.4h-2.5c0,0.7,0.5,1.1,1,1.1
			c0.3,0,0.6-0.1,0.8-0.3l0.4,0.4c-0.3,0.3-0.7,0.5-1.2,0.5C222.8,144.5,222.2,143.7,222.2,142.6z M224.7,142.3
			c0-0.8-0.5-1.1-0.9-1.1c-0.5,0-1,0.3-1,1.1H224.7z"/>
	</g>
	<g class="st0">
		<path d="M226.3,139.5l0.6-0.3v1.9c0.2-0.3,0.6-0.5,1-0.5c0.8,0,1.3,0.5,1.3,1.7v2.1h-0.6v-2.2c0-0.7-0.3-1-0.8-1
			c-0.5,0-0.9,0.2-0.9,1v2.2h-0.6V139.5z"/>
		<path d="M230.4,140.8h0.6v0.5c0.2-0.4,0.5-0.6,0.9-0.6c0.2,0,0.4,0.1,0.5,0.2l-0.1,0.6c-0.1-0.1-0.3-0.2-0.5-0.2
			c-0.3,0-0.8,0.2-0.8,1.1v2.1h-0.6V140.8z"/>
	</g>
	<g class="st0">
		<path d="M233.1,142.6c0-1.2,0.7-1.9,1.6-1.9c0.8,0,1.5,0.5,1.5,1.8c0,0.1,0,0.3,0,0.4h-2.5c0,0.7,0.5,1.1,1,1.1
			c0.3,0,0.6-0.1,0.8-0.3l0.4,0.4c-0.3,0.3-0.7,0.5-1.2,0.5C233.7,144.5,233.1,143.7,233.1,142.6z M235.6,142.3
			c0-0.8-0.5-1.1-0.9-1.1c-0.5,0-1,0.3-1,1.1H235.6z"/>
	</g>
	<g class="st0">
		<path d="M237.2,140.8h0.6v0.5c0.2-0.4,0.5-0.6,0.9-0.6c0.2,0,0.4,0.1,0.5,0.2l-0.1,0.6c-0.1-0.1-0.3-0.2-0.5-0.2
			c-0.3,0-0.8,0.2-0.8,1.1v2.1h-0.6V140.8z"/>
	</g>
	<g class="st0">
		<path d="M239.9,142.6c0-1.2,0.7-1.9,1.6-1.9c0.8,0,1.5,0.5,1.5,1.8c0,0.1,0,0.3,0,0.4h-2.5c0,0.7,0.5,1.1,1,1.1
			c0.3,0,0.6-0.1,0.8-0.3l0.4,0.4c-0.3,0.3-0.7,0.5-1.2,0.5C240.5,144.5,239.9,143.7,239.9,142.6z M242.4,142.3
			c0-0.8-0.5-1.1-0.9-1.1c-0.5,0-1,0.3-1,1.1H242.4z"/>
	</g>
	<g class="st0">
		<path d="M248.3,143.2h-2l-0.4,1.2h-0.7l1.8-5.1h0.6l1.8,5.1h-0.6L248.3,143.2z M247.4,140.8c-0.1-0.1-0.1-0.4-0.2-0.5
			c0,0.1-0.1,0.4-0.2,0.5l-0.7,1.9h1.6L247.4,140.8z"/>
		<path d="M252.6,142.2c0-0.7-0.3-1-0.8-1c-0.5,0-0.9,0.2-0.9,1v2.2h-0.6v-3.7h0.6v0.4c0.2-0.3,0.6-0.5,1-0.5c0.8,0,1.3,0.5,1.3,1.7
			v2.1h-0.6V142.2z"/>
		<path d="M254.6,143.7v-2.3H254v-0.5h0.6v-1.2l0.6-0.3v1.5h0.9v0.5h-0.9v2.1c0,0.3,0.1,0.5,0.4,0.5c0.2,0,0.4-0.1,0.5-0.2l-0.1,0.6
			c-0.2,0.1-0.4,0.2-0.7,0.2C254.8,144.5,254.6,144.2,254.6,143.7z"/>
	</g>
	<g class="st0">
		<path d="M256.9,140.8h0.6l0.6,2.5c0,0.1,0.1,0.3,0.1,0.4c0-0.1,0.1-0.3,0.1-0.4l0.7-2.5h0.5l0.7,2.5l0.1,0.4
			c0-0.1,0.1-0.3,0.1-0.4l0.6-2.5h0.6l-0.9,3.7H260l-0.7-2.2c0-0.1-0.1-0.3-0.1-0.5c0,0.1-0.1,0.3-0.1,0.5l-0.7,2.2h-0.6
			L256.9,140.8z"/>
	</g>
	<g class="st0">
		<path d="M262.1,142.6c0-1.2,0.6-1.9,1.6-1.9c1,0,1.6,0.7,1.6,1.9c0,1.2-0.6,1.9-1.6,1.9C262.8,144.5,262.1,143.8,262.1,142.6z
			 M264.8,142.6c0-0.8-0.4-1.3-1-1.3s-1,0.5-1,1.4c0,0.8,0.4,1.3,1,1.3C264.4,144,264.8,143.5,264.8,142.6z"/>
	</g>
	<g class="st0">
		<path d="M266.4,140.8h0.6v0.5c0.2-0.4,0.5-0.6,0.9-0.6c0.2,0,0.4,0.1,0.5,0.2l-0.1,0.6c-0.1-0.1-0.3-0.2-0.5-0.2
			c-0.3,0-0.8,0.2-0.8,1.1v2.1h-0.6V140.8z"/>
	</g>
	<g class="st0">
		<path d="M269.6,143.7v-2.3H269v-0.5h0.6v-1.2l0.6-0.3v1.5h0.9v0.5h-0.9v2.1c0,0.3,0.1,0.5,0.4,0.5c0.2,0,0.4-0.1,0.5-0.2l-0.1,0.6
			c-0.2,0.1-0.4,0.2-0.7,0.2C269.8,144.5,269.6,144.2,269.6,143.7z"/>
	</g>
	<g class="st0">
		<path d="M276.4,142.2c0-0.5-0.2-1-0.7-1c-0.5,0-0.8,0.4-0.8,1v2.2h-0.6v-2.2c0-0.5-0.2-1-0.7-1c-0.5,0-0.8,0.4-0.8,1v2.2h-0.6
			v-3.7h0.6v0.3c0.2-0.3,0.6-0.4,1-0.4c0.4,0,0.8,0.2,1,0.5c0.2-0.3,0.6-0.5,1.1-0.5c0.7,0,1.3,0.5,1.3,1.4v2.4h-0.6V142.2z"/>
	</g>
	<g class="st0">
		<path d="M278,142.6c0-1.2,0.6-1.9,1.6-1.9c1,0,1.6,0.7,1.6,1.9c0,1.2-0.6,1.9-1.6,1.9C278.6,144.5,278,143.8,278,142.6z
			 M278.6,139.7c0-0.2,0.2-0.4,0.4-0.4c0.2,0,0.4,0.2,0.4,0.4c0,0.2-0.2,0.4-0.4,0.4C278.8,140.1,278.6,140,278.6,139.7z
			 M280.6,142.6c0-0.8-0.4-1.3-1-1.3s-1,0.5-1,1.4c0,0.8,0.4,1.3,1,1.3C280.3,144,280.6,143.5,280.6,142.6z M279.9,139.7
			c0-0.2,0.2-0.4,0.4-0.4c0.2,0,0.4,0.2,0.4,0.4c0,0.2-0.2,0.4-0.4,0.4C280,140.1,279.9,140,279.9,139.7z"/>
		<path d="M283.1,145.5c1.1-0.1,1.4-0.4,1.4-0.9v-0.4c-0.2,0.3-0.5,0.4-1,0.4c-0.8,0-1.5-0.6-1.5-1.9c0-1.2,0.6-1.9,1.5-1.9
			c0.5,0,0.8,0.2,0.9,0.4v-0.3h0.6v3.5c0,1.2-0.7,1.6-1.7,1.6L283.1,145.5z M284.5,143.4v-1.7c-0.2-0.3-0.5-0.5-0.8-0.5
			c-0.7,0-1,0.5-1,1.3c0,0.8,0.4,1.3,1,1.3C284,144,284.3,143.8,284.5,143.4z"/>
	</g>
	<g class="st0">
		<path d="M286.5,139.5l0.6-0.3v5.2h-0.6V139.5z"/>
	</g>
	<g class="st0">
		<path d="M288.2,139.7c0-0.2,0.2-0.4,0.4-0.4c0.2,0,0.4,0.2,0.4,0.4c0,0.2-0.2,0.4-0.4,0.4C288.4,140.1,288.2,139.9,288.2,139.7z
			 M288.3,140.8h0.6v3.7h-0.6V140.8z"/>
	</g>
	<g class="st0">
		<path d="M290,142.6c0-1.2,0.6-1.9,1.6-1.9c0.6,0,1.1,0.3,1.3,0.9l-0.6,0.2c-0.1-0.3-0.3-0.5-0.7-0.5c-0.6,0-0.9,0.5-0.9,1.3
			c0,0.8,0.3,1.3,0.9,1.3c0.4,0,0.6-0.2,0.8-0.5l0.6,0.2c-0.2,0.6-0.7,0.9-1.3,0.9C290.6,144.5,290,143.8,290,142.6z"/>
	</g>
	<g class="st0">
		<path d="M293.8,139.5l0.6-0.3v1.9c0.2-0.3,0.6-0.5,1-0.5c0.8,0,1.3,0.5,1.3,1.7v2.1h-0.6v-2.2c0-0.7-0.3-1-0.8-1
			c-0.5,0-0.9,0.2-0.9,1v2.2h-0.6V139.5z"/>
	</g>
	<g class="st0">
		<path d="M300.2,144.5l-1.1-2.2l-0.5,0.6v1.7h-0.6v-4.9l0.6-0.3v2.8l1.2-1.3h0.8l-1,1l1.4,2.7H300.2z"/>
	</g>
	<g class="st0">
		<path d="M301.4,142.6c0-1.2,0.7-1.9,1.6-1.9c0.8,0,1.5,0.5,1.5,1.8c0,0.1,0,0.3,0,0.4h-2.5c0,0.7,0.5,1.1,1,1.1
			c0.3,0,0.6-0.1,0.8-0.3l0.4,0.4c-0.3,0.3-0.7,0.5-1.2,0.5C302.1,144.5,301.4,143.7,301.4,142.6z M304,142.3c0-0.8-0.5-1.1-0.9-1.1
			c-0.5,0-1,0.3-1,1.1H304z"/>
		<path d="M305.5,139.7c0-0.2,0.2-0.4,0.4-0.4c0.2,0,0.4,0.2,0.4,0.4c0,0.2-0.2,0.4-0.4,0.4C305.6,140.1,305.5,139.9,305.5,139.7z
			 M305.5,140.8h0.6v3.7h-0.6V140.8z"/>
	</g>
	<g class="st0">
		<path d="M307.6,143.7v-2.3H307v-0.5h0.6v-1.2l0.6-0.3v1.5h0.9v0.5h-0.9v2.1c0,0.3,0.1,0.5,0.4,0.5c0.2,0,0.4-0.1,0.5-0.2l-0.1,0.6
			c-0.2,0.1-0.4,0.2-0.7,0.2C307.9,144.5,307.6,144.2,307.6,143.7z"/>
	</g>
	<g class="st0">
		<path d="M309.9,142.6c0-1.2,0.7-1.9,1.6-1.9c0.8,0,1.5,0.5,1.5,1.8c0,0.1,0,0.3,0,0.4h-2.5c0,0.7,0.5,1.1,1,1.1
			c0.3,0,0.6-0.1,0.8-0.3l0.4,0.4c-0.3,0.3-0.7,0.5-1.2,0.5C310.5,144.5,309.9,143.7,309.9,142.6z M312.4,142.3
			c0-0.8-0.5-1.1-0.9-1.1c-0.5,0-1,0.3-1,1.1H312.4z"/>
	</g>
	<g class="st0">
		<path d="M316.3,142.2c0-0.7-0.3-1-0.8-1c-0.5,0-0.9,0.2-0.9,1v2.2H314v-3.7h0.6v0.4c0.2-0.3,0.6-0.5,1-0.5c0.8,0,1.3,0.5,1.3,1.7
			v2.1h-0.6V142.2z"/>
	</g>
	<g class="st0">
		<path d="M318.8,142.4c0-1.6-0.7-2.8-0.9-3.1h0.6c0.5,0.6,1,1.6,1,3.1s-0.4,2.4-0.9,3H318C318.2,145.1,318.8,144,318.8,142.4z"/>
	</g>
</g>
<g>
	<g class="st0">
		<path d="M28.2,7H29v4.8h2.7v0.8h-3.6V7z"/>
		<path d="M32.5,10.5c0-1.3,0.7-2.1,1.9-2.1c1.1,0,1.9,0.8,1.9,2.1c0,1.3-0.7,2.1-1.9,2.1C33.2,12.7,32.5,11.9,32.5,10.5z
			 M35.4,10.5c0-0.8-0.4-1.4-1-1.4c-0.6,0-1,0.5-1,1.4s0.4,1.4,1,1.4C35,11.9,35.4,11.4,35.4,10.5z"/>
	</g>
	<g class="st0">
		<path d="M39.8,12.6l-1.2-2.4l-0.5,0.5v1.8h-0.8V7.2l0.8-0.4v3l1.2-1.3h1l-1.1,1.1l1.5,3H39.8z"/>
	</g>
	<g class="st0">
		<path d="M43.8,12.2c-0.2,0.2-0.6,0.4-1.1,0.4c-0.8,0-1.5-0.5-1.5-1.4c0-0.9,0.8-1.4,1.6-1.4c0.4,0,0.7,0.1,1,0.2V10
			c0-0.6-0.3-0.8-0.9-0.8c-0.5,0-0.9,0.1-1.2,0.4l-0.2-0.7c0.3-0.2,0.9-0.4,1.5-0.4c0.7,0,1.6,0.2,1.6,1.5v2.6h-0.8V12.2z
			 M43.8,11.5v-0.6c-0.2-0.1-0.6-0.2-0.9-0.2c-0.5,0-0.9,0.2-0.9,0.6c0,0.4,0.3,0.6,0.8,0.6C43.2,11.9,43.6,11.7,43.8,11.5z"/>
		<path d="M45.7,7.2l0.8-0.4v5.8h-0.8V7.2z"/>
		<path d="M47.6,10.5c0-1.3,0.7-2.1,1.9-2.1c1,0,1.8,0.6,1.8,1.9c0,0.2,0,0.4,0,0.5h-2.8c0,0.7,0.5,1.1,1,1.1c0.3,0,0.6-0.1,0.8-0.4
			l0.5,0.6c-0.3,0.4-0.8,0.6-1.4,0.6C48.3,12.7,47.6,11.9,47.6,10.5z M50.4,10.2c0-0.8-0.5-1-0.9-1c-0.5,0-1,0.3-1,1H50.4z"/>
		<path d="M54.1,7h3.5v0.8H55v1.5h1.7v0.8H55v1.7h2.8v0.8h-3.6V7z"/>
		<path d="M59.7,12.3v0.3h-0.8V7.2l0.8-0.4v2c0.2-0.2,0.5-0.4,1-0.4c1,0,1.7,0.8,1.7,2.1c0,1.4-0.6,2.1-1.7,2.1
			C60.2,12.7,59.9,12.5,59.7,12.3z M61.5,10.5c0-0.9-0.3-1.4-1-1.4c-0.4,0-0.7,0.3-0.9,0.5v1.8c0.2,0.3,0.5,0.5,0.9,0.5
			C61.2,11.9,61.5,11.4,61.5,10.5z"/>
		<path d="M63.1,10.5c0-1.3,0.7-2.1,1.9-2.1c1,0,1.8,0.6,1.8,1.9c0,0.2,0,0.4,0,0.5H64c0,0.7,0.5,1.1,1,1.1c0.3,0,0.6-0.1,0.8-0.4
			l0.5,0.6c-0.3,0.4-0.8,0.6-1.4,0.6C63.8,12.7,63.1,11.9,63.1,10.5z M65.9,10.2c0-0.8-0.5-1-0.9-1c-0.5,0-1,0.3-1,1H65.9z"/>
		<path d="M70.2,10.1c0-0.7-0.4-1-0.8-1c-0.5,0-0.9,0.2-0.9,0.9v2.5h-0.8V8.5h0.8v0.4c0.3-0.3,0.6-0.5,1.1-0.5
			c0.9,0,1.5,0.5,1.5,1.7v2.4h-0.8V10.1z"/>
		<path d="M72,10.5c0-1.3,0.7-2.1,1.9-2.1c1,0,1.8,0.6,1.8,1.9c0,0.2,0,0.4,0,0.5h-2.8c0,0.7,0.5,1.1,1,1.1c0.3,0,0.6-0.1,0.8-0.4
			l0.5,0.6c-0.3,0.4-0.8,0.6-1.4,0.6C72.7,12.7,72,11.9,72,10.5z M74.8,10.2c0-0.8-0.5-1-0.9-1c-0.5,0-1,0.3-1,1H74.8z"/>
	</g>
</g>
<rect x="90" y="6.8" class="st1" width="69.5" height="12.6"/>
<rect x="85.5" y="3.4" class="st2" width="69.7" height="12.6"/>
<rect x="85.5" y="3.4" class="st3" width="69.7" height="12.6"/>
<g class="st0">
	<path d="M166.5,10.7c0.5-0.2,0.9-0.6,0.9-1.1c0-0.5-0.4-0.8-1-0.8c-0.6,0-1,0.3-1.1,0.7l-0.8-0.3c0.3-0.7,1-1.2,1.9-1.2
		c1.1,0,1.8,0.7,1.8,1.7c0,1-0.6,1.4-1.4,1.8c-0.7,0.4-1.2,0.8-1.4,1.4h2.8v0.8h-3.9C164.4,12.2,165.4,11.3,166.5,10.7z"/>
</g>
<g class="st0">
	<path d="M171.8,8.9h-2.9V8.1h3.8V9c-1.3,1.5-1.7,3.5-1.7,4.7h-0.9C170.2,11.8,170.7,10.4,171.8,8.9z"/>
</g>
<g>
	<g class="st0">
		<path d="M30.1,33.4c1.3,0,1.8,0.7,1.8,1.5c0,0.5-0.3,0.9-0.8,1.2c0.7,0.2,1,0.8,1,1.3c0,0.8-0.5,1.6-1.8,1.6h-2.2v-5.6H30.1z
			 M31,35c0-0.4-0.2-0.8-0.9-0.8h-1.3v1.5h1.2C30.6,35.7,31,35.4,31,35z M31.2,37.4c0-0.5-0.2-0.9-1.2-0.9h-1.2v1.8h1.5
			C31,38.3,31.2,37.8,31.2,37.4z"/>
		<path d="M33,37c0-1.3,0.7-2.1,1.9-2.1c1,0,1.8,0.6,1.8,1.9c0,0.2,0,0.4,0,0.5h-2.8c0,0.7,0.5,1.1,1,1.1c0.3,0,0.6-0.1,0.8-0.4
			l0.5,0.6c-0.3,0.4-0.8,0.6-1.4,0.6C33.7,39.1,33,38.3,33,37z M35.7,36.6c0-0.8-0.5-1-0.9-1c-0.5,0-1,0.3-1,1H35.7z"/>
		<path d="M37.4,38.4l2.2-2.7h-2v-0.7h3v0.7l-2.2,2.7h2.2V39h-3.2V38.4z"/>
		<path d="M41.5,33.8c0-0.3,0.2-0.5,0.5-0.5s0.5,0.2,0.5,0.5c0,0.3-0.2,0.5-0.5,0.5S41.5,34.1,41.5,33.8z M41.6,34.9h0.8V39h-0.8
			V34.9z"/>
		<path d="M43.7,34.9h0.8v0.5c0.2-0.4,0.5-0.6,0.9-0.6c0.3,0,0.5,0.1,0.7,0.2L46,35.9c-0.2-0.1-0.4-0.2-0.6-0.2
			c-0.4,0-0.8,0.2-0.8,1.1V39h-0.8V34.9z"/>
		<path d="M49.5,39l-1.2-2.4l-0.5,0.5V39h-0.8v-5.4l0.8-0.4v3l1.2-1.3h1l-1.1,1.1l1.5,3H49.5z"/>
		<path d="M51,38.5l0.6-0.5c0.2,0.2,0.5,0.4,0.9,0.4c0.4,0,0.7-0.1,0.7-0.4c0-0.3-0.4-0.5-0.8-0.6c-0.9-0.3-1.3-0.7-1.3-1.3
			c0-0.7,0.6-1.1,1.4-1.1c0.7,0,1.2,0.3,1.4,0.6l-0.6,0.5c-0.1-0.2-0.4-0.3-0.8-0.3c-0.4,0-0.6,0.1-0.6,0.4c0,0.3,0.4,0.4,0.8,0.6
			c0.9,0.3,1.3,0.6,1.3,1.4c0,0.8-0.6,1.2-1.5,1.2C51.9,39.1,51.3,38.9,51,38.5z"/>
	</g>
	<g class="st0">
		<path d="M54.5,37c0-1.3,0.7-2.1,1.9-2.1c1,0,1.8,0.6,1.8,1.9c0,0.2,0,0.4,0,0.5h-2.8c0,0.7,0.5,1.1,1,1.1c0.3,0,0.6-0.1,0.8-0.4
			l0.5,0.6c-0.3,0.4-0.8,0.6-1.4,0.6C55.2,39.1,54.5,38.3,54.5,37z M57.3,36.6c0-0.8-0.5-1-0.9-1c-0.5,0-1,0.3-1,1H57.3z"/>
	</g>
	<g class="st0">
		<path d="M59.9,38.7V39H59v-5.4l0.8-0.4v2c0.2-0.2,0.5-0.4,1-0.4c1,0,1.7,0.8,1.7,2.1c0,1.4-0.6,2.1-1.7,2.1
			C60.4,39.1,60.1,38.9,59.9,38.7z M61.7,37c0-0.9-0.3-1.4-1-1.4c-0.4,0-0.7,0.3-0.9,0.5v1.8c0.2,0.3,0.5,0.5,0.9,0.5
			C61.4,38.3,61.7,37.8,61.7,37z"/>
	</g>
	<g class="st0">
		<path d="M63.2,37c0-1.3,0.7-2.1,1.9-2.1c1,0,1.8,0.6,1.8,1.9c0,0.2,0,0.4,0,0.5h-2.8c0,0.7,0.5,1.1,1,1.1c0.3,0,0.6-0.1,0.8-0.4
			l0.5,0.6c-0.3,0.4-0.8,0.6-1.4,0.6C63.9,39.1,63.2,38.3,63.2,37z M66,36.6c0-0.8-0.5-1-0.9-1c-0.5,0-1,0.3-1,1H66z"/>
	</g>
	<g class="st0">
		<path d="M70.3,36.6c0-0.7-0.4-1-0.8-1c-0.5,0-0.9,0.2-0.9,0.9V39h-0.8v-4.1h0.8v0.4c0.3-0.3,0.6-0.5,1.1-0.5
			c0.9,0,1.5,0.5,1.5,1.7V39h-0.8V36.6z"/>
	</g>
	<g class="st0">
		<path d="M72,37c0-1.3,0.7-2.1,1.9-2.1c1,0,1.8,0.6,1.8,1.9c0,0.2,0,0.4,0,0.5h-2.8c0,0.7,0.5,1.1,1,1.1c0.3,0,0.6-0.1,0.8-0.4
			l0.5,0.6c-0.3,0.4-0.8,0.6-1.4,0.6C72.7,39.1,72,38.3,72,37z M74.8,36.6c0-0.8-0.5-1-0.9-1c-0.5,0-1,0.3-1,1H74.8z"/>
	</g>
</g>
<rect x="88.9" y="33.6" class="st1" width="24.9" height="12.6"/>
<rect x="85.5" y="30.1" class="st2" width="24.9" height="12.6"/>
<rect x="85.5" y="30.1" class="st3" width="24.9" height="12.6"/>
<g class="st0">
	<path d="M119.9,35.1H119v-0.6c0.5,0,1-0.2,1.1-0.6h0.6v5.6h-0.8V35.1z"/>
	<path d="M122.3,38.2l0.8-0.3c0.3,0.6,0.7,0.8,1.2,0.8c0.6,0,1.1-0.3,1.1-0.9c0-0.5-0.3-0.9-1.1-0.9h-0.4v-0.8h0.4
		c0.5,0,0.9-0.3,0.9-0.8c0-0.5-0.3-0.8-0.9-0.8c-0.5,0-0.8,0.3-1,0.6l-0.8-0.3c0.3-0.7,0.9-1.1,1.8-1.1c1,0,1.7,0.7,1.7,1.5
		c0,0.5-0.2,1-0.7,1.2c0.6,0.2,0.9,0.7,0.9,1.3c0,1.1-0.8,1.7-2,1.7C123.3,39.5,122.6,39,122.3,38.2z"/>
</g>
<g>
	<g class="st0">
		<path d="M28.9,61.5h0.8v4.8h2.7v0.8h-3.6V61.5z"/>
	</g>
	<g class="st0">
		<path d="M35.8,66.7c-0.2,0.2-0.6,0.4-1.1,0.4c-0.8,0-1.5-0.5-1.5-1.4c0-0.9,0.8-1.4,1.6-1.4c0.4,0,0.7,0.1,1,0.2v-0.2
			c0-0.6-0.3-0.8-0.9-0.8c-0.5,0-0.9,0.1-1.2,0.4l-0.2-0.7c0.3-0.2,0.9-0.4,1.5-0.4c0.7,0,1.6,0.2,1.6,1.5v2.6h-0.8V66.7z M35.8,66
			v-0.6c-0.2-0.1-0.6-0.2-0.9-0.2c-0.5,0-0.9,0.2-0.9,0.6c0,0.4,0.3,0.6,0.8,0.6C35.2,66.5,35.5,66.3,35.8,66z"/>
	</g>
	<g class="st0">
		<path d="M40.2,64.7c0-0.7-0.4-1-0.8-1c-0.5,0-0.9,0.2-0.9,0.9v2.5h-0.8V63h0.8v0.4c0.3-0.3,0.6-0.5,1.1-0.5c0.9,0,1.5,0.5,1.5,1.7
			v2.4h-0.8V64.7z"/>
	</g>
	<g class="st0">
		<path d="M41.9,65c0-1.3,0.7-2.1,1.7-2.1c0.4,0,0.8,0.2,1,0.4v-1.6l0.8-0.4v5.8h-0.8v-0.3c-0.2,0.2-0.5,0.4-1,0.4
			C42.6,67.2,41.9,66.4,41.9,65z M44.6,65.9v-1.8c-0.1-0.2-0.4-0.4-0.8-0.4c-0.6,0-1,0.5-1,1.4c0,0.8,0.4,1.4,1,1.4
			C44.1,66.4,44.4,66.2,44.6,65.9z"/>
	</g>
	<g class="st0">
		<path d="M46.3,65c0-1.3,0.7-2.1,1.9-2.1c1,0,1.8,0.6,1.8,1.9c0,0.2,0,0.4,0,0.5h-2.8c0,0.7,0.5,1.1,1,1.1c0.3,0,0.6-0.1,0.8-0.4
			l0.5,0.6c-0.3,0.4-0.8,0.6-1.4,0.6C47,67.2,46.3,66.4,46.3,65z M49.1,64.7c0-0.8-0.5-1-0.9-1c-0.5,0-1,0.3-1,1H49.1z"/>
		<path d="M50.6,66.5l0.6-0.5c0.2,0.2,0.5,0.4,0.9,0.4c0.4,0,0.7-0.1,0.7-0.4c0-0.3-0.4-0.5-0.8-0.6c-0.9-0.3-1.3-0.7-1.3-1.3
			c0-0.7,0.6-1.1,1.4-1.1c0.7,0,1.2,0.3,1.4,0.6L53,64c-0.1-0.2-0.4-0.3-0.8-0.3c-0.4,0-0.6,0.1-0.6,0.4c0,0.3,0.4,0.4,0.8,0.6
			c0.9,0.3,1.3,0.6,1.3,1.4c0,0.8-0.6,1.2-1.5,1.2C51.5,67.2,50.9,66.9,50.6,66.5z"/>
		<path d="M54.5,65c0-1.3,0.7-2.1,1.9-2.1c1,0,1.8,0.6,1.8,1.9c0,0.2,0,0.4,0,0.5h-2.8c0,0.7,0.5,1.1,1,1.1c0.3,0,0.6-0.1,0.8-0.4
			l0.5,0.6c-0.3,0.4-0.8,0.6-1.4,0.6C55.2,67.2,54.5,66.4,54.5,65z M57.3,64.7c0-0.8-0.5-1-0.9-1c-0.5,0-1,0.3-1,1H57.3z"/>
		<path d="M59.9,66.8v0.3h-0.8v-5.4l0.8-0.4v2c0.2-0.2,0.5-0.4,1-0.4c1,0,1.7,0.8,1.7,2.1c0,1.4-0.6,2.1-1.7,2.1
			C60.4,67.2,60.1,67,59.9,66.8z M61.7,65c0-0.9-0.3-1.4-1-1.4c-0.4,0-0.7,0.3-0.9,0.5v1.8c0.2,0.3,0.5,0.5,0.9,0.5
			C61.4,66.4,61.7,65.9,61.7,65z"/>
	</g>
	<g class="st0">
		<path d="M63.2,65c0-1.3,0.7-2.1,1.9-2.1c1,0,1.8,0.6,1.8,1.9c0,0.2,0,0.4,0,0.5h-2.8c0,0.7,0.5,1.1,1,1.1c0.3,0,0.6-0.1,0.8-0.4
			l0.5,0.6c-0.3,0.4-0.8,0.6-1.4,0.6C63.9,67.2,63.2,66.4,63.2,65z M66,64.7c0-0.8-0.5-1-0.9-1c-0.5,0-1,0.3-1,1H66z"/>
	</g>
	<g class="st0">
		<path d="M70.4,64.7c0-0.7-0.4-1-0.8-1c-0.5,0-0.9,0.2-0.9,0.9v2.5h-0.8V63h0.8v0.4c0.3-0.3,0.6-0.5,1.1-0.5c0.9,0,1.5,0.5,1.5,1.7
			v2.4h-0.8V64.7z"/>
	</g>
	<g class="st0">
		<path d="M72,65c0-1.3,0.7-2.1,1.9-2.1c1,0,1.8,0.6,1.8,1.9c0,0.2,0,0.4,0,0.5h-2.8c0,0.7,0.5,1.1,1,1.1c0.3,0,0.6-0.1,0.8-0.4
			l0.5,0.6c-0.3,0.4-0.8,0.6-1.4,0.6C72.7,67.2,72,66.4,72,65z M74.8,64.7c0-0.8-0.5-1-0.9-1c-0.5,0-1,0.3-1,1H74.8z"/>
	</g>
</g>
<rect x="88.9" y="60.3" class="st1" width="67" height="12.6"/>
<rect x="85.5" y="56.8" class="st2" width="67" height="12.6"/>
<rect x="85.5" y="56.8" class="st3" width="67" height="12.6"/>
<g class="st0">
	<path d="M163.5,64.2c0.5-0.2,0.9-0.6,0.9-1.1c0-0.5-0.4-0.8-1-0.8c-0.6,0-1,0.3-1.1,0.7l-0.8-0.3c0.3-0.7,1-1.2,1.9-1.2
		c1.1,0,1.8,0.7,1.8,1.7c0,1-0.6,1.4-1.4,1.8c-0.7,0.4-1.2,0.8-1.4,1.4h2.8v0.8h-3.9C161.5,65.6,162.4,64.7,163.5,64.2z"/>
</g>
<g class="st0">
	<path d="M166.4,65.1c0-1.9,1-3.3,3.1-3.6v0.8c-0.9,0.1-1.8,0.7-2.1,1.8c0.2-0.2,0.6-0.4,1.2-0.4c1,0,1.7,0.7,1.7,1.8
		c0,1.1-0.8,1.8-1.9,1.8C167,67.2,166.4,66.3,166.4,65.1z M169.4,65.4c0-0.6-0.4-1-1.1-1c-0.6,0-1.1,0.4-1.1,1c0,0.6,0.5,1,1.1,1
		C168.9,66.4,169.4,66.1,169.4,65.4z"/>
</g>
<g>
	<g class="st0">
		<path d="M30.1,88c1.3,0,1.8,0.7,1.8,1.5c0,0.5-0.3,0.9-0.8,1.2c0.7,0.2,1,0.8,1,1.3c0,0.8-0.5,1.6-1.8,1.6h-2.2V88H30.1z M31,89.5
			c0-0.4-0.2-0.8-0.9-0.8h-1.3v1.5h1.2C30.6,90.3,31,89.9,31,89.5z M31.2,92c0-0.5-0.2-0.9-1.2-0.9h-1.2v1.8h1.5
			C31,92.8,31.2,92.3,31.2,92z"/>
		<path d="M35.6,93.2c-0.3,0.3-0.6,0.5-1.1,0.5c-0.9,0-1.5-0.5-1.5-1.7v-2.4h0.8v2.4c0,0.7,0.4,1,0.8,1c0.5,0,0.9-0.2,0.9-0.9v-2.5
			h0.8v4.1h-0.8V93.2z"/>
		<path d="M40.2,91.1c0-0.7-0.4-1-0.8-1c-0.5,0-0.9,0.2-0.9,0.9v2.5h-0.8v-4.1h0.8v0.4c0.3-0.3,0.6-0.5,1.1-0.5
			c0.9,0,1.5,0.5,1.5,1.7v2.4h-0.8V91.1z"/>
		<path d="M42,91.5c0-1.3,0.7-2.1,1.7-2.1c0.4,0,0.8,0.2,1,0.4v-1.6l0.8-0.4v5.8h-0.8v-0.3c-0.2,0.2-0.5,0.4-1,0.4
			C42.7,93.6,42,92.8,42,91.5z M44.7,92.4v-1.8c-0.1-0.2-0.4-0.4-0.8-0.4c-0.6,0-1,0.5-1,1.4c0,0.8,0.4,1.4,1,1.4
			C44.2,92.9,44.5,92.7,44.7,92.4z"/>
	</g>
	<g class="st0">
		<path d="M46.3,91.5c0-1.3,0.7-2.1,1.9-2.1c1,0,1.8,0.6,1.8,1.9c0,0.2,0,0.4,0,0.5h-2.8c0,0.7,0.5,1.1,1,1.1c0.3,0,0.6-0.1,0.8-0.4
			l0.5,0.6c-0.3,0.4-0.8,0.6-1.4,0.6C47,93.6,46.3,92.8,46.3,91.5z M49.1,91.1c0-0.8-0.5-1-0.9-1c-0.5,0-1,0.3-1,1H49.1z"/>
	</g>
	<g class="st0">
		<path d="M50.5,93l0.6-0.5c0.2,0.2,0.5,0.4,0.9,0.4c0.4,0,0.7-0.1,0.7-0.4c0-0.3-0.4-0.5-0.8-0.6c-0.9-0.3-1.3-0.7-1.3-1.3
			c0-0.7,0.6-1.1,1.4-1.1c0.7,0,1.2,0.3,1.4,0.6l-0.6,0.5c-0.1-0.2-0.4-0.3-0.8-0.3c-0.4,0-0.6,0.1-0.6,0.4c0,0.3,0.4,0.4,0.8,0.6
			c0.9,0.3,1.3,0.6,1.3,1.4c0,0.8-0.6,1.2-1.5,1.2C51.4,93.6,50.8,93.4,50.5,93z"/>
	</g>
	<g class="st0">
		<path d="M54.4,91.5c0-1.3,0.7-2.1,1.9-2.1c1,0,1.8,0.6,1.8,1.9c0,0.2,0,0.4,0,0.5h-2.8c0,0.7,0.5,1.1,1,1.1c0.3,0,0.6-0.1,0.8-0.4
			l0.5,0.6c-0.3,0.4-0.8,0.6-1.4,0.6C55.1,93.6,54.4,92.8,54.4,91.5z M57.2,91.1c0-0.8-0.5-1-0.9-1c-0.5,0-1,0.3-1,1H57.2z"/>
	</g>
	<g class="st0">
		<path d="M59.8,93.2v0.3h-0.8v-5.4l0.8-0.4v2c0.2-0.2,0.5-0.4,1-0.4c1,0,1.7,0.8,1.7,2.1c0,1.4-0.6,2.1-1.7,2.1
			C60.3,93.6,60,93.5,59.8,93.2z M61.6,91.5c0-0.9-0.3-1.4-1-1.4c-0.4,0-0.7,0.3-0.9,0.5v1.8c0.2,0.3,0.5,0.5,0.9,0.5
			C61.3,92.9,61.6,92.3,61.6,91.5z"/>
		<path d="M63.2,91.5c0-1.3,0.7-2.1,1.9-2.1c1,0,1.8,0.6,1.8,1.9c0,0.2,0,0.4,0,0.5h-2.8c0,0.7,0.5,1.1,1,1.1c0.3,0,0.6-0.1,0.8-0.4
			l0.5,0.6c-0.3,0.4-0.8,0.6-1.4,0.6C63.9,93.6,63.2,92.8,63.2,91.5z M66,91.1c0-0.8-0.5-1-0.9-1c-0.5,0-1,0.3-1,1H66z"/>
		<path d="M70.3,91.1c0-0.7-0.4-1-0.8-1c-0.5,0-0.9,0.2-0.9,0.9v2.5h-0.8v-4.1h0.8v0.4c0.3-0.3,0.6-0.5,1.1-0.5
			c0.9,0,1.5,0.5,1.5,1.7v2.4h-0.8V91.1z"/>
	</g>
	<g class="st0">
		<path d="M72,91.5c0-1.3,0.7-2.1,1.9-2.1c1,0,1.8,0.6,1.8,1.9c0,0.2,0,0.4,0,0.5h-2.8c0,0.7,0.5,1.1,1,1.1c0.3,0,0.6-0.1,0.8-0.4
			l0.5,0.6c-0.3,0.4-0.8,0.6-1.4,0.6C72.7,93.6,72,92.8,72,91.5z M74.8,91.1c0-0.8-0.5-1-0.9-1c-0.5,0-1,0.3-1,1H74.8z"/>
	</g>
</g>
<rect x="88.9" y="87" class="st1" width="36.4" height="12.6"/>
<rect x="85.5" y="83.5" class="st2" width="36.4" height="12.6"/>
<rect x="85.5" y="83.5" class="st3" width="36.4" height="12.6"/>
<g class="st0">
	<path d="M131,89.5h-0.9v-0.6c0.5,0,1-0.2,1.1-0.6h0.6v5.6H131V89.5z"/>
	<path d="M133.5,91.8c0-1.9,1-3.3,3.1-3.6V89c-0.9,0.1-1.8,0.7-2.1,1.8c0.2-0.2,0.6-0.4,1.2-0.4c1,0,1.7,0.7,1.7,1.8
		c0,1.1-0.8,1.8-1.9,1.8C134.1,94,133.5,93,133.5,91.8z M136.5,92.2c0-0.6-0.4-1-1.1-1s-1.1,0.4-1.1,1c0,0.6,0.5,1,1.1,1
		S136.5,92.8,136.5,92.2z"/>
</g>
<g>
	<g class="st0">
		<path d="M2,115c0-0.3,0.2-0.5,0.5-0.5s0.5,0.2,0.5,0.5c0,0.3-0.2,0.5-0.5,0.5S2,115.2,2,115z M2.1,116.1H3v4.1H2.1V116.1z"/>
	</g>
	<g class="st0">
		<path d="M6.7,117.8c0-0.7-0.4-1-0.8-1c-0.5,0-0.9,0.2-0.9,0.9v2.5H4.1v-4.1H5v0.4c0.3-0.3,0.6-0.5,1.1-0.5c0.9,0,1.5,0.5,1.5,1.7
			v2.4H6.7V117.8z"/>
	</g>
	<g class="st0">
		<path d="M8.9,119.3v-2.4H8.3v-0.7h0.6v-1.3l0.8-0.4v1.7h1v0.7h-1v2.2c0,0.3,0.1,0.5,0.4,0.5c0.2,0,0.4-0.1,0.6-0.2l-0.1,0.8
			c-0.2,0.1-0.5,0.2-0.8,0.2C9.2,120.3,8.9,119.9,8.9,119.3z"/>
	</g>
	<g class="st0">
		<path d="M11.3,118.1c0-1.3,0.7-2.1,1.9-2.1c1,0,1.8,0.6,1.8,1.9c0,0.2,0,0.4,0,0.5h-2.8c0,0.7,0.5,1.1,1,1.1
			c0.3,0,0.6-0.1,0.8-0.4l0.5,0.6c-0.3,0.4-0.8,0.6-1.4,0.6C12,120.3,11.3,119.5,11.3,118.1z M14.1,117.8c0-0.8-0.5-1-0.9-1
			c-0.5,0-1,0.3-1,1H14.1z"/>
		<path d="M15.9,116.1h0.8v0.5c0.2-0.4,0.5-0.6,0.9-0.6c0.3,0,0.5,0.1,0.7,0.2l-0.1,0.8c-0.2-0.1-0.4-0.2-0.6-0.2
			c-0.4,0-0.8,0.2-0.8,1.1v2.3h-0.8V116.1z"/>
		<path d="M21.7,117.8c0-0.7-0.4-1-0.8-1c-0.5,0-0.9,0.2-0.9,0.9v2.5h-0.8v-4.1H20v0.4c0.3-0.3,0.6-0.5,1.1-0.5
			c0.9,0,1.5,0.5,1.5,1.7v2.4h-0.8V117.8z"/>
		<path d="M26,119.8c-0.2,0.2-0.6,0.4-1.1,0.4c-0.8,0-1.5-0.5-1.5-1.4c0-0.9,0.8-1.4,1.6-1.4c0.4,0,0.7,0.1,1,0.2v-0.2
			c0-0.6-0.3-0.8-0.9-0.8c-0.5,0-0.9,0.1-1.2,0.4l-0.2-0.7c0.3-0.2,0.9-0.4,1.5-0.4c0.7,0,1.6,0.2,1.6,1.5v2.6H26V119.8z M26,119.1
			v-0.6c-0.2-0.1-0.6-0.2-0.9-0.2c-0.5,0-0.9,0.2-0.9,0.6c0,0.4,0.3,0.6,0.8,0.6C25.4,119.6,25.8,119.4,26,119.1z"/>
	</g>
	<g class="st0">
		<path d="M28.1,119.3v-2.4h-0.6v-0.7h0.6v-1.3l0.8-0.4v1.7h1v0.7h-1v2.2c0,0.3,0.1,0.5,0.4,0.5c0.2,0,0.4-0.1,0.6-0.2l-0.1,0.8
			c-0.2,0.1-0.5,0.2-0.8,0.2C28.4,120.3,28.1,119.9,28.1,119.3z"/>
	</g>
	<g class="st0">
		<path d="M30.7,115c0-0.3,0.2-0.5,0.5-0.5s0.5,0.2,0.5,0.5c0,0.3-0.2,0.5-0.5,0.5S30.7,115.2,30.7,115z M30.8,116.1h0.8v4.1h-0.8
			V116.1z"/>
		<path d="M32.7,118.2c0-1.3,0.7-2.1,1.9-2.1s1.9,0.8,1.9,2.1c0,1.3-0.7,2.1-1.9,2.1S32.7,119.5,32.7,118.2z M35.6,118.2
			c0-0.8-0.4-1.4-1-1.4c-0.6,0-1,0.5-1,1.4s0.4,1.4,1,1.4C35.2,119.5,35.6,119,35.6,118.2z"/>
		<path d="M39.9,117.8c0-0.7-0.4-1-0.8-1c-0.5,0-0.9,0.2-0.9,0.9v2.5h-0.8v-4.1h0.8v0.4c0.3-0.3,0.6-0.5,1.1-0.5
			c0.9,0,1.5,0.5,1.5,1.7v2.4h-0.8V117.8z"/>
	</g>
	<g class="st0">
		<path d="M44.3,119.8c-0.2,0.2-0.6,0.4-1.1,0.4c-0.8,0-1.5-0.5-1.5-1.4c0-0.9,0.8-1.4,1.6-1.4c0.4,0,0.7,0.1,1,0.2v-0.2
			c0-0.6-0.3-0.8-0.9-0.8c-0.5,0-0.9,0.1-1.2,0.4l-0.2-0.7c0.3-0.2,0.9-0.4,1.5-0.4c0.7,0,1.6,0.2,1.6,1.5v2.6h-0.8V119.8z
			 M44.3,119.1v-0.6c-0.2-0.1-0.6-0.2-0.9-0.2c-0.5,0-0.9,0.2-0.9,0.6c0,0.4,0.3,0.6,0.8,0.6C43.7,119.6,44,119.4,44.3,119.1z"/>
	</g>
	<g class="st0">
		<path d="M46.2,114.8l0.8-0.4v5.8h-0.8V114.8z"/>
		<path d="M48,118.1c0-1.3,0.7-2.1,1.9-2.1c1,0,1.8,0.6,1.8,1.9c0,0.2,0,0.4,0,0.5h-2.8c0,0.7,0.5,1.1,1,1.1c0.3,0,0.6-0.1,0.8-0.4
			l0.5,0.6c-0.3,0.4-0.8,0.6-1.4,0.6C48.8,120.3,48,119.5,48,118.1z M50.8,117.8c0-0.8-0.5-1-0.9-1c-0.5,0-1,0.3-1,1H50.8z"/>
	</g>
	<g class="st0">
		<path d="M54.2,114.6h3.5v0.8h-2.6v1.5h1.7v0.8h-1.7v1.7h2.8v0.8h-3.6V114.6z"/>
	</g>
	<g class="st0">
		<path d="M59.8,119.9v0.3h-0.8v-5.4l0.8-0.4v2c0.2-0.2,0.5-0.4,1-0.4c1,0,1.7,0.8,1.7,2.1c0,1.4-0.6,2.1-1.7,2.1
			C60.3,120.3,60,120.1,59.8,119.9z M61.6,118.1c0-0.9-0.3-1.4-1-1.4c-0.4,0-0.7,0.3-0.9,0.5v1.8c0.2,0.3,0.5,0.5,0.9,0.5
			C61.3,119.5,61.6,119,61.6,118.1z"/>
		<path d="M63.2,118.1c0-1.3,0.7-2.1,1.9-2.1c1,0,1.8,0.6,1.8,1.9c0,0.2,0,0.4,0,0.5h-2.8c0,0.7,0.5,1.1,1,1.1
			c0.3,0,0.6-0.1,0.8-0.4l0.5,0.6c-0.3,0.4-0.8,0.6-1.4,0.6C63.9,120.3,63.2,119.5,63.2,118.1z M66,117.8c0-0.8-0.5-1-0.9-1
			c-0.5,0-1,0.3-1,1H66z"/>
		<path d="M70.3,117.8c0-0.7-0.4-1-0.8-1c-0.5,0-0.9,0.2-0.9,0.9v2.5h-0.8v-4.1h0.8v0.4c0.3-0.3,0.6-0.5,1.1-0.5
			c0.9,0,1.5,0.5,1.5,1.7v2.4h-0.8V117.8z"/>
	</g>
	<g class="st0">
		<path d="M72,118.1c0-1.3,0.7-2.1,1.9-2.1c1,0,1.8,0.6,1.8,1.9c0,0.2,0,0.4,0,0.5h-2.8c0,0.7,0.5,1.1,1,1.1c0.3,0,0.6-0.1,0.8-0.4
			l0.5,0.6c-0.3,0.4-0.8,0.6-1.4,0.6C72.7,120.3,72,119.5,72,118.1z M74.8,117.8c0-0.8-0.5-1-0.9-1c-0.5,0-1,0.3-1,1H74.8z"/>
	</g>
</g>
<rect x="88.9" y="113.7" class="st1" width="17.1" height="12.6"/>
<rect x="85.5" y="110.3" class="st2" width="17.3" height="12.6"/>
<rect x="85.5" y="110.3" class="st3" width="17.3" height="12.6"/>
<g class="st0">
	<path d="M113.9,115.5h-2.9v-0.8h3.8v0.9c-1.3,1.5-1.7,3.5-1.7,4.7h-0.9C112.3,118.3,112.9,117,113.9,115.5z"/>
</g>
</svg>
