<?xml version="1.0" encoding="utf-8"?>
<!-- Generator: Adobe Illustrator 21.0.0, SVG Export Plug-In . SVG Version: 6.00 Build 0)  -->
<svg version="1.1" id="Layer_1" xmlns="http://www.w3.org/2000/svg" xmlns:xlink="http://www.w3.org/1999/xlink" x="0px" y="0px"
	 viewBox="0 0 330 241" style="enable-background:new 0 0 330 241;" xml:space="preserve">
<style type="text/css">
	.st0{font-family:'Overpass-SemiBold';}
	.st1{font-size:8px;}
	.st2{fill:#0000FF;}
	.st3{fill:none;stroke:#000000;stroke-width:0.5;}
	.st4{fill:#FFFFFF;}
	.st5{font-family:'Overpass-Regular';}
	.st6{fill:none;stroke:#0000FF;stroke-width:0.5;}
</style>
<text transform="matrix(1 0 0 1 18.0791 191.8062)" class="st0 st1">15-</text>
<text transform="matrix(1 0 0 1 29.2791 191.8062)" class="st0 st1">2</text>
<text transform="matrix(1 0 0 1 34.0791 191.8062)" class="st0 st1">4</text>
<text transform="matrix(1 0 0 1 51.9111 191.8062)" class="st0 st1">25-34</text>
<text transform="matrix(1 0 0 1 85.8311 191.8062)" class="st0 st1">35-4</text>
<text transform="matrix(1 0 0 1 103.7311 191.8062)" class="st0 st1">4</text>
<text transform="matrix(1 0 0 1 119.4551 191.8062)" class="st0 st1">45-54</text>
<text transform="matrix(1 0 0 1 153.7515 191.8062)" class="st0 st1">55-64</text>
<text transform="matrix(1 0 0 1 51.9033 11.1343)" class="st0 st1">23</text>
<text transform="matrix(1 0 0 1 86.7832 56.6064)" class="st0 st1">1</text>
<text transform="matrix(1 0 0 1 89.8832 56.6064)" class="st0 st1">4</text>
<text transform="matrix(1 0 0 1 121.9995 105.1904)" class="st0 st1">8</text>
<text transform="matrix(1 0 0 1 156.1914 148.5342)" class="st0 st1">3</text>
<text transform="matrix(1 0 0 1 20.1675 155.3662)" class="st0 st1">2</text>
<rect x="153.3" y="160.8" class="st2" width="23.4" height="21.3"/>
<rect x="153.3" y="160.8" class="st3" width="23.4" height="21.3"/>
<rect x="146.9" y="153.7" class="st4" width="23.4" height="22"/>
<rect x="146.9" y="153.7" class="st3" width="23.4" height="22"/>
<rect x="119.1" y="116.5" class="st2" width="23.4" height="65.7"/>
<rect x="119.1" y="116.5" class="st3" width="23.4" height="65.7"/>
<rect x="112.7" y="110.2" class="st4" width="23.4" height="65.5"/>
<rect x="112.7" y="110.2" class="st3" width="23.4" height="65.5"/>
<rect x="85.6" y="69.3" class="st2" width="23.4" height="112.9"/>
<rect x="85.6" y="69.3" class="st3" width="23.4" height="112.9"/>
<rect x="79.2" y="61.7" class="st4" width="23.4" height="114.1"/>
<rect x="79.2" y="61.7" class="st3" width="23.4" height="114.1"/>
<rect x="51.5" y="23" class="st2" width="23.4" height="159.2"/>
<rect x="51.5" y="23" class="st3" width="23.4" height="159.2"/>
<rect x="45.1" y="16.6" class="st4" width="23.4" height="159.2"/>
<rect x="45.1" y="16.6" class="st3" width="23.4" height="159.2"/>
<rect x="17.3" y="166.3" class="st2" width="23.4" height="15.8"/>
<rect x="17.3" y="166.3" class="st3" width="23.4" height="15.8"/>
<rect x="10.9" y="161.2" class="st4" width="23.4" height="14.6"/>
<rect x="10.9" y="161.2" class="st3" width="23.4" height="14.6"/>
<text transform="matrix(-6.123234e-17 1 -1 -6.123234e-17 9.8906 6.8979)" class="st5 st1">T</text>
<text transform="matrix(-6.123234e-17 1 -1 -6.123234e-17 9.8906 10.8979)" class="st5 st1">ei</text>
<text transform="matrix(-6.123234e-17 1 -1 -6.123234e-17 9.8906 17.2979)" class="st5 st1">l</text>
<text transform="matrix(-6.123234e-17 1 -1 -6.123234e-17 9.8906 19.4979)" class="st5 st1">nehm</text>
<text transform="matrix(-6.123234e-17 1 -1 -6.123234e-17 9.8906 39.6979)" class="st5 st1">e</text>
<text transform="matrix(-6.123234e-17 1 -1 -6.123234e-17 9.8906 43.9979)" class="st5 st1">nd</text>
<text transform="matrix(-6.123234e-17 1 -1 -6.123234e-17 9.8906 53.0979)" class="st5 st1">e</text>
<text transform="matrix(1 0 0 1 158.3491 208.2539)" class="st5 st1">A</text>
<text transform="matrix(1 0 0 1 163.8491 208.2539)" class="st5 st1">l</text>
<text transform="matrix(1 0 0 1 165.9491 208.2539)" class="st5 st1">t</text>
<text transform="matrix(1 0 0 1 168.9491 208.2539)" class="st5 st1">e</text>
<text transform="matrix(1 0 0 1 173.2491 208.2539)" class="st5 st1">r</text>
<text transform="matrix(1 0 0 1 5.981 208.2539)" class="st5 st1">n=5</text>
<text transform="matrix(1 0 0 1 20.781 208.2539)" class="st5 st1">1</text>
<polyline class="st6" points="175.9,198.1 5.7,198.1 5.7,6.9 "/>
</svg>
