<?xml version="1.0" encoding="utf-8"?>
<!-- Generator: Adobe Illustrator 21.0.0, SVG Export Plug-In . SVG Version: 6.00 Build 0)  -->
<svg version="1.1" id="Layer_1" xmlns="http://www.w3.org/2000/svg" xmlns:xlink="http://www.w3.org/1999/xlink" x="0px" y="0px"
	 viewBox="0 0 330 241" style="enable-background:new 0 0 330 241;" xml:space="preserve">
<style type="text/css">
	.st0{enable-background:new    ;}
	.st1{fill:#0000FF;}
	.st2{fill:none;stroke:#000000;stroke-width:0.5;}
	.st3{fill:#FFFFFF;}
	.st4{fill:none;stroke:#0000FF;stroke-width:0.5;}
</style>
<g class="st0">
	<path d="M19.3,187.5h-0.9v-0.6c0.5,0,1-0.2,1.1-0.6h0.6v5.6h-0.8V187.5z"/>
	<path d="M21.8,191.4l0.5-0.7c0.3,0.2,0.6,0.4,1.2,0.4c0.8,0,1.3-0.5,1.3-1.2c0-0.7-0.4-1-1-1c-0.4,0-0.7,0.1-0.9,0.4l-0.9-0.3
		l0.2-2.8h3.1v0.8h-2.4l-0.1,1.4c0.2-0.2,0.6-0.3,1.1-0.3c1.2,0,1.8,0.9,1.8,1.8c0,1.2-0.9,2-2.1,2C22.6,191.9,22,191.6,21.8,191.4z
		"/>
	<path d="M26.7,189h2v0.8h-2V189z"/>
</g>
<g class="st0">
	<path d="M31.8,188.8c0.5-0.2,0.9-0.6,0.9-1.1c0-0.5-0.4-0.8-1-0.8c-0.6,0-1,0.3-1.1,0.7l-0.8-0.3c0.3-0.7,1-1.2,1.9-1.2
		c1.1,0,1.8,0.7,1.8,1.7c0,1-0.6,1.4-1.4,1.8c-0.7,0.4-1.2,0.8-1.4,1.4h2.8v0.8h-3.9C29.8,190.3,30.8,189.4,31.8,188.8z"/>
</g>
<g class="st0">
	<path d="M37.2,190.5h-3V190l2.9-3.8h1v3.6h0.7v0.8H38v1.3h-0.8V190.5z M37.2,187.2l-1.9,2.6h1.9V187.2z"/>
</g>
<g class="st0">
	<path d="M54.4,188.8c0.5-0.2,0.9-0.6,0.9-1.1c0-0.5-0.4-0.8-1-0.8c-0.6,0-1,0.3-1.1,0.7l-0.8-0.3c0.3-0.7,1-1.2,1.9-1.2
		c1.1,0,1.8,0.7,1.8,1.7c0,1-0.6,1.4-1.4,1.8c-0.7,0.4-1.2,0.8-1.4,1.4h2.8v0.8h-3.9C52.4,190.3,53.4,189.4,54.4,188.8z"/>
	<path d="M57.3,191.4l0.5-0.7c0.3,0.2,0.6,0.4,1.2,0.4c0.8,0,1.3-0.5,1.3-1.2c0-0.7-0.4-1-1-1c-0.4,0-0.7,0.1-0.9,0.4l-0.9-0.3
		l0.2-2.8h3.1v0.8h-2.4l-0.1,1.4c0.2-0.2,0.6-0.3,1.1-0.3c1.2,0,1.8,0.9,1.8,1.8c0,1.2-0.9,2-2.1,2
		C58.1,191.9,57.6,191.6,57.3,191.4z"/>
	<path d="M62.3,189h2v0.8h-2V189z"/>
	<path d="M65.2,190.6l0.8-0.3c0.3,0.6,0.7,0.8,1.2,0.8c0.6,0,1.1-0.3,1.1-0.9c0-0.5-0.3-0.9-1.1-0.9h-0.4v-0.8h0.4
		c0.5,0,0.9-0.3,0.9-0.8c0-0.5-0.3-0.8-0.9-0.8c-0.5,0-0.8,0.3-1,0.6l-0.8-0.3c0.3-0.7,0.9-1.1,1.8-1.1c1,0,1.7,0.7,1.7,1.5
		c0,0.5-0.2,1-0.7,1.2c0.6,0.2,0.9,0.7,0.9,1.3c0,1.1-0.8,1.7-2,1.7C66.2,191.9,65.5,191.4,65.2,190.6z"/>
	<path d="M72.8,190.5h-3V190l2.9-3.8h1v3.6h0.7v0.8h-0.7v1.3h-0.8V190.5z M72.8,187.2l-1.9,2.6h1.9V187.2z"/>
</g>
<g class="st0">
	<path d="M86.2,190.6l0.8-0.3c0.3,0.6,0.7,0.8,1.2,0.8c0.6,0,1.1-0.3,1.1-0.9c0-0.5-0.3-0.9-1.1-0.9h-0.4v-0.8h0.4
		c0.5,0,0.9-0.3,0.9-0.8c0-0.5-0.3-0.8-0.9-0.8c-0.5,0-0.8,0.3-1,0.6l-0.8-0.3c0.3-0.7,0.9-1.1,1.8-1.1c1,0,1.7,0.7,1.7,1.5
		c0,0.5-0.2,1-0.7,1.2c0.6,0.2,0.9,0.7,0.9,1.3c0,1.1-0.8,1.7-2,1.7C87.2,191.9,86.5,191.4,86.2,190.6z"/>
	<path d="M91.1,191.4l0.5-0.7c0.3,0.2,0.6,0.4,1.2,0.4c0.8,0,1.3-0.5,1.3-1.2c0-0.7-0.4-1-1-1c-0.4,0-0.7,0.1-0.9,0.4l-0.9-0.3
		l0.2-2.8h3.1v0.8h-2.4l-0.1,1.4c0.2-0.2,0.6-0.3,1.1-0.3c1.2,0,1.8,0.9,1.8,1.8c0,1.2-0.9,2-2.1,2
		C91.9,191.9,91.4,191.6,91.1,191.4z"/>
	<path d="M96.1,189h2v0.8h-2V189z"/>
	<path d="M101.8,190.5h-3V190l2.9-3.8h1v3.6h0.7v0.8h-0.7v1.3h-0.8V190.5z M101.8,187.2l-1.9,2.6h1.9V187.2z"/>
</g>
<g class="st0">
	<path d="M106.9,190.5h-3V190l2.9-3.8h1v3.6h0.7v0.8h-0.7v1.3h-0.8V190.5z M106.9,187.2l-1.9,2.6h1.9V187.2z"/>
</g>
<g class="st0">
	<path d="M122.6,190.5h-3V190l2.9-3.8h1v3.6h0.7v0.8h-0.7v1.3h-0.8V190.5z M122.6,187.2l-1.9,2.6h1.9V187.2z"/>
	<path d="M125.1,191.4l0.5-0.7c0.3,0.2,0.6,0.4,1.2,0.4c0.8,0,1.3-0.5,1.3-1.2c0-0.7-0.4-1-1-1c-0.4,0-0.7,0.1-0.9,0.4l-0.9-0.3
		l0.2-2.8h3.1v0.8h-2.4l-0.1,1.4c0.2-0.2,0.6-0.3,1.1-0.3c1.2,0,1.8,0.9,1.8,1.8c0,1.2-0.9,2-2.1,2
		C125.9,191.9,125.4,191.6,125.1,191.4z"/>
	<path d="M130,189h2v0.8h-2V189z"/>
	<path d="M133.1,191.4l0.5-0.7c0.3,0.2,0.6,0.4,1.2,0.4c0.8,0,1.3-0.5,1.3-1.2c0-0.7-0.4-1-1-1c-0.4,0-0.7,0.1-0.9,0.4l-0.9-0.3
		l0.2-2.8h3.1v0.8h-2.4l-0.1,1.4c0.2-0.2,0.6-0.3,1.1-0.3c1.2,0,1.8,0.9,1.8,1.8c0,1.2-0.9,2-2.1,2
		C133.9,191.9,133.3,191.6,133.1,191.4z"/>
	<path d="M140.6,190.5h-3V190l2.9-3.8h1v3.6h0.7v0.8h-0.7v1.3h-0.8V190.5z M140.6,187.2l-1.9,2.6h1.9V187.2z"/>
</g>
<g class="st0">
	<path d="M154.2,191.4l0.5-0.7c0.3,0.2,0.6,0.4,1.2,0.4c0.8,0,1.3-0.5,1.3-1.2c0-0.7-0.4-1-1-1c-0.4,0-0.7,0.1-0.9,0.4l-0.9-0.3
		l0.2-2.8h3.1v0.8h-2.4l-0.1,1.4c0.2-0.2,0.6-0.3,1.1-0.3c1.2,0,1.8,0.9,1.8,1.8c0,1.2-0.9,2-2.1,2
		C155,191.9,154.5,191.6,154.2,191.4z"/>
	<path d="M159.1,191.4l0.5-0.7c0.3,0.2,0.6,0.4,1.2,0.4c0.8,0,1.3-0.5,1.3-1.2c0-0.7-0.4-1-1-1c-0.4,0-0.7,0.1-0.9,0.4l-0.9-0.3
		l0.2-2.8h3.1v0.8h-2.4l-0.1,1.4c0.2-0.2,0.6-0.3,1.1-0.3c1.2,0,1.8,0.9,1.8,1.8c0,1.2-0.9,2-2.1,2
		C159.9,191.9,159.3,191.6,159.1,191.4z"/>
	<path d="M164,189h2v0.8h-2V189z"/>
	<path d="M167.1,189.7c0-1.9,1-3.3,3.1-3.6v0.8c-0.9,0.1-1.8,0.7-2.1,1.8c0.2-0.2,0.6-0.4,1.2-0.4c1,0,1.7,0.7,1.7,1.8
		c0,1.1-0.8,1.8-1.9,1.8C167.7,191.9,167.1,191,167.1,189.7z M170.1,190.1c0-0.6-0.4-1-1.1-1c-0.6,0-1.1,0.4-1.1,1
		c0,0.6,0.5,1,1.1,1C169.7,191.1,170.1,190.7,170.1,190.1z"/>
	<path d="M174.5,190.5h-3V190l2.9-3.8h1v3.6h0.7v0.8h-0.7v1.3h-0.8V190.5z M174.5,187.2l-1.9,2.6h1.9V187.2z"/>
</g>
<g class="st0">
	<path d="M54.4,8.2c0.5-0.2,0.9-0.6,0.9-1.1c0-0.5-0.4-0.8-1-0.8c-0.6,0-1,0.3-1.1,0.7l-0.8-0.3c0.3-0.7,1-1.2,1.9-1.2
		c1.1,0,1.8,0.7,1.8,1.7c0,1-0.6,1.4-1.4,1.8c-0.7,0.4-1.2,0.8-1.4,1.4h2.8v0.8h-3.9C52.4,9.6,53.4,8.7,54.4,8.2z"/>
	<path d="M57.2,9.9L58,9.6c0.3,0.6,0.7,0.8,1.2,0.8c0.6,0,1.1-0.3,1.1-0.9c0-0.5-0.3-0.9-1.1-0.9h-0.4V7.8h0.4
		c0.5,0,0.9-0.3,0.9-0.8c0-0.5-0.3-0.8-0.9-0.8c-0.5,0-0.8,0.3-1,0.6l-0.8-0.3c0.3-0.7,0.9-1.1,1.8-1.1c1,0,1.7,0.7,1.7,1.5
		c0,0.5-0.2,1-0.7,1.2c0.6,0.2,0.9,0.7,0.9,1.3c0,1.1-0.8,1.7-2,1.7C58.2,11.2,57.5,10.7,57.2,9.9z"/>
</g>
<g class="st0">
	<path d="M88,52.3h-0.9v-0.6c0.5,0,1-0.2,1.1-0.6h0.6v5.6H88V52.3z"/>
</g>
<g class="st0">
	<path d="M93,55.3h-3v-0.5l2.9-3.8h1v3.6h0.7v0.8h-0.7v1.3H93V55.3z M93,52l-1.9,2.6H93V52z"/>
</g>
<g class="st0">
	<path d="M122.5,103.6c0-0.7,0.4-1.2,0.9-1.4c-0.4-0.2-0.7-0.6-0.7-1.2c0-0.8,0.7-1.5,1.7-1.5s1.7,0.6,1.7,1.5
		c0,0.5-0.3,0.9-0.7,1.2c0.6,0.3,0.9,0.7,0.9,1.4c0,1-0.8,1.7-1.9,1.7C123.3,105.3,122.5,104.6,122.5,103.6z M125.5,103.5
		c0-0.5-0.5-1-1.1-1c-0.6,0-1.1,0.4-1.1,1c0,0.6,0.4,1,1.1,1C125.1,104.5,125.5,104.1,125.5,103.5z M125.3,101
		c0-0.4-0.4-0.7-0.9-0.7c-0.5,0-0.8,0.3-0.8,0.7c0,0.4,0.3,0.7,0.8,0.7C124.9,101.7,125.3,101.4,125.3,101z"/>
</g>
<g class="st0">
	<path d="M156.6,147.3l0.8-0.3c0.3,0.6,0.7,0.8,1.2,0.8c0.6,0,1.1-0.3,1.1-0.9c0-0.5-0.3-0.9-1.1-0.9h-0.4v-0.8h0.4
		c0.5,0,0.9-0.3,0.9-0.8c0-0.5-0.3-0.8-0.9-0.8c-0.5,0-0.8,0.3-1,0.6l-0.8-0.3c0.3-0.7,0.9-1.1,1.8-1.1c1,0,1.7,0.7,1.7,1.5
		c0,0.5-0.2,1-0.7,1.2c0.6,0.2,0.9,0.7,0.9,1.3c0,1.1-0.8,1.7-2,1.7C157.6,148.6,156.9,148.1,156.6,147.3z"/>
</g>
<g class="st0">
	<path d="M22.7,152.4c0.5-0.2,0.9-0.6,0.9-1.1c0-0.5-0.4-0.8-1-0.8c-0.6,0-1,0.3-1.1,0.7l-0.8-0.3c0.3-0.7,1-1.2,1.9-1.2
		c1.1,0,1.8,0.7,1.8,1.7c0,1-0.6,1.4-1.4,1.8c-0.7,0.4-1.2,0.8-1.4,1.4h2.8v0.8h-3.9C20.7,153.8,21.7,152.9,22.7,152.4z"/>
</g>
<rect x="153.3" y="160.8" class="st1" width="23.4" height="21.3"/>
<rect x="153.3" y="160.8" class="st2" width="23.4" height="21.3"/>
<rect x="146.9" y="153.7" class="st3" width="23.4" height="22"/>
<rect x="146.9" y="153.7" class="st2" width="23.4" height="22"/>
<rect x="119.1" y="116.5" class="st1" width="23.4" height="65.7"/>
<rect x="119.1" y="116.5" class="st2" width="23.4" height="65.7"/>
<rect x="112.7" y="110.2" class="st3" width="23.4" height="65.5"/>
<rect x="112.7" y="110.2" class="st2" width="23.4" height="65.5"/>
<rect x="85.6" y="69.3" class="st1" width="23.4" height="112.9"/>
<rect x="85.6" y="69.3" class="st2" width="23.4" height="112.9"/>
<rect x="79.2" y="61.7" class="st3" width="23.4" height="114.1"/>
<rect x="79.2" y="61.7" class="st2" width="23.4" height="114.1"/>
<rect x="51.5" y="23" class="st1" width="23.4" height="159.2"/>
<rect x="51.5" y="23" class="st2" width="23.4" height="159.2"/>
<rect x="45.1" y="16.6" class="st3" width="23.4" height="159.2"/>
<rect x="45.1" y="16.6" class="st2" width="23.4" height="159.2"/>
<rect x="17.3" y="166.3" class="st1" width="23.4" height="15.8"/>
<rect x="17.3" y="166.3" class="st2" width="23.4" height="15.8"/>
<rect x="10.9" y="161.2" class="st3" width="23.4" height="14.6"/>
<rect x="10.9" y="161.2" class="st2" width="23.4" height="14.6"/>
<g class="st0">
	<path d="M9.9,9.6V8.9h4.9V7.3h0.7v3.8h-0.7V9.6H9.9z"/>
</g>
<g class="st0">
	<path d="M11.9,11.3c1.4,0,2.1,0.7,2.1,1.8c0,0.9-0.6,1.7-1.9,1.7c-0.1,0-0.3,0-0.5,0V12c-0.8,0.1-1.2,0.5-1.2,1.1
		c0,0.3,0.1,0.6,0.4,0.9l-0.5,0.4c-0.3-0.3-0.5-0.8-0.5-1.3C9.8,12,10.7,11.3,11.9,11.3z M12.3,14.1c0.9,0,1.2-0.6,1.2-1
		c0-0.6-0.4-1.1-1.2-1.1V14.1z"/>
	<path d="M14,15.9v0.7H9.9v-0.7H14z M15.2,15.8c0.2,0,0.4,0.2,0.4,0.4c0,0.2-0.2,0.4-0.4,0.4c-0.2,0-0.4-0.2-0.4-0.4
		C14.7,16,14.9,15.8,15.2,15.8z"/>
</g>
<g class="st0">
	<path d="M15.3,18l0.3,0.7H9.9V18H15.3z"/>
</g>
<g class="st0">
	<path d="M12.4,22.7c0.8,0,1.1-0.4,1.1-0.9c0-0.5-0.3-0.9-1.1-0.9H9.9v-0.7H14v0.7h-0.4c0.4,0.3,0.5,0.6,0.5,1.1
		c0,0.9-0.5,1.5-1.8,1.5H9.9v-0.7H12.4z"/>
	<path d="M11.9,24.4c1.4,0,2.1,0.7,2.1,1.8c0,0.9-0.6,1.7-1.9,1.7c-0.1,0-0.3,0-0.5,0v-2.8c-0.8,0.1-1.2,0.5-1.2,1.1
		c0,0.3,0.1,0.6,0.4,0.9l-0.5,0.4c-0.3-0.3-0.5-0.8-0.5-1.3C9.8,25.1,10.7,24.4,11.9,24.4z M12.3,27.2c0.9,0,1.2-0.6,1.2-1
		c0-0.6-0.4-1.1-1.2-1.1V27.2z"/>
	<path d="M15.3,29l0.3,0.7h-2.1c0.4,0.3,0.5,0.6,0.5,1.1c0,0.9-0.5,1.5-1.8,1.5H9.9v-0.7h2.5c0.8,0,1.1-0.4,1.1-0.9
		c0-0.5-0.3-0.9-1.1-0.9H9.9V29H15.3z"/>
	<path d="M12.4,38.3c0.6,0,1.1-0.2,1.1-0.8c0-0.5-0.4-0.9-1.1-0.9H9.9v-0.7h2.5c0.6,0,1.1-0.2,1.1-0.8c0-0.5-0.4-0.9-1.1-0.9H9.9
		v-0.7H14v0.7h-0.4c0.3,0.2,0.5,0.6,0.5,1.1c0,0.4-0.2,0.9-0.6,1.1c0.4,0.2,0.6,0.7,0.6,1.2c0,0.8-0.5,1.4-1.5,1.4H9.9v-0.7H12.4z"
		/>
</g>
<g class="st0">
	<path d="M11.9,40.1c1.4,0,2.1,0.7,2.1,1.8c0,0.9-0.6,1.7-1.9,1.7c-0.1,0-0.3,0-0.5,0v-2.8c-0.8,0.1-1.2,0.5-1.2,1.1
		c0,0.3,0.1,0.6,0.4,0.9l-0.5,0.4C10,43,9.8,42.5,9.8,41.9C9.8,40.8,10.7,40.1,11.9,40.1z M12.3,42.9c0.9,0,1.2-0.6,1.2-1
		c0-0.6-0.4-1.1-1.2-1.1V42.9z"/>
</g>
<g class="st0">
	<path d="M12.4,47.2c0.8,0,1.1-0.4,1.1-0.9c0-0.5-0.3-0.9-1.1-0.9H9.9v-0.7H14v0.7h-0.4c0.4,0.3,0.5,0.6,0.5,1.1
		c0,0.9-0.5,1.5-1.8,1.5H9.9v-0.7H12.4z"/>
	<path d="M11.9,48.9c1.3,0,2.1,0.7,2.1,1.7c0,0.5-0.2,0.8-0.4,1h1.6l0.3,0.7H9.9v-0.7h0.3c-0.2-0.2-0.4-0.5-0.4-1
		C9.8,49.6,10.6,48.9,11.9,48.9z M11,51.6h1.9c0.2-0.2,0.5-0.5,0.5-0.9c0-0.7-0.5-1.1-1.5-1.1c-0.8,0-1.5,0.4-1.5,1.1
		C10.4,51.1,10.6,51.4,11,51.6z"/>
</g>
<g class="st0">
	<path d="M11.9,53.5c1.4,0,2.1,0.7,2.1,1.8c0,0.9-0.6,1.7-1.9,1.7c-0.1,0-0.3,0-0.5,0v-2.8c-0.8,0.1-1.2,0.5-1.2,1.1
		c0,0.3,0.1,0.6,0.4,0.9l-0.5,0.4c-0.3-0.3-0.5-0.8-0.5-1.3C9.8,54.2,10.7,53.5,11.9,53.5z M12.3,56.3c0.9,0,1.2-0.6,1.2-1
		c0-0.6-0.4-1.1-1.2-1.1V56.3z"/>
</g>
<g class="st0">
	<path d="M162.2,206.9H160l-0.5,1.4h-0.7l2-5.6h0.6l2,5.6h-0.7L162.2,206.9z M161.2,204.2c-0.1-0.2-0.1-0.4-0.2-0.6
		c0,0.1-0.1,0.4-0.2,0.6l-0.7,2.1h1.8L161.2,204.2z"/>
</g>
<g class="st0">
	<path d="M164.6,202.8l0.7-0.3v5.8h-0.7V202.8z"/>
</g>
<g class="st0">
	<path d="M166.9,207.4v-2.6h-0.7v-0.6h0.7v-1.4l0.7-0.3v1.7h1v0.6h-1v2.4c0,0.3,0.1,0.6,0.4,0.6c0.2,0,0.4-0.1,0.6-0.2l-0.1,0.7
		c-0.2,0.1-0.5,0.2-0.8,0.2C167.1,208.3,166.9,208,166.9,207.4z"/>
</g>
<g class="st0">
	<path d="M169.4,206.2c0-1.4,0.7-2.1,1.8-2.1c0.9,0,1.7,0.6,1.7,1.9c0,0.1,0,0.3,0,0.5h-2.8c0.1,0.8,0.5,1.2,1.1,1.2
		c0.3,0,0.6-0.1,0.9-0.4l0.4,0.5c-0.3,0.3-0.8,0.5-1.3,0.5C170.1,208.3,169.4,207.5,169.4,206.2z M172.2,205.9c0-0.9-0.6-1.2-1-1.2
		c-0.6,0-1.1,0.4-1.1,1.2H172.2z"/>
</g>
<g class="st0">
	<path d="M173.9,204.2h0.7v0.5c0.2-0.4,0.6-0.6,1-0.6c0.2,0,0.4,0.1,0.6,0.2l-0.1,0.7c-0.1-0.1-0.3-0.2-0.6-0.2
		c-0.4,0-0.9,0.3-0.9,1.2v2.3h-0.7V204.2z"/>
</g>
<g class="st0">
	<path d="M9.2,205.8c0-0.8-0.4-1.1-0.9-1.1c-0.5,0-0.9,0.3-0.9,1.1v2.5H6.6v-4.1h0.7v0.4c0.3-0.4,0.6-0.5,1.1-0.5
		c0.9,0,1.5,0.5,1.5,1.8v2.4H9.2V205.8z"/>
	<path d="M11.2,204.5h3.8v0.7h-3.8V204.5z M11.2,205.9h3.8v0.7h-3.8V205.9z"/>
	<path d="M16.2,207.7l0.4-0.5c0.3,0.3,0.7,0.5,1.4,0.5c0.8,0,1.4-0.6,1.4-1.3c0-0.7-0.5-1.2-1.1-1.2c-0.5,0-0.9,0.2-1.1,0.5
		l-0.7-0.2l0.3-2.8h3v0.6h-2.4l-0.2,1.7c0.3-0.2,0.7-0.4,1.2-0.4c1.1,0,1.8,0.8,1.8,1.8c0,1.1-0.8,1.9-2.1,1.9
		C17.1,208.3,16.5,208,16.2,207.7z"/>
</g>
<g class="st0">
	<path d="M22,203.8h-0.9v-0.5c0.6,0,1-0.2,1.1-0.7h0.5v5.6H22V203.8z"/>
</g>
<polyline class="st4" points="175.9,198.1 5.7,198.1 5.7,6.9 "/>
</svg>
