<?xml version="1.0" encoding="utf-8"?>
<!-- Generator: Adobe Illustrator 21.0.0, SVG Export Plug-In . SVG Version: 6.00 Build 0)  -->
<svg version="1.1" id="Layer_1" xmlns="http://www.w3.org/2000/svg" xmlns:xlink="http://www.w3.org/1999/xlink" x="0px" y="0px"
	 viewBox="0 0 330 236" style="enable-background:new 0 0 330 236;" xml:space="preserve">
<style type="text/css">
	.st0{enable-background:new    ;}
	.st1{fill:#0000FF;}
	.st2{fill:none;stroke:#000000;stroke-width:0.5;}
	.st3{fill:#FFFFFF;}
	.st4{fill:none;stroke:#0000FF;stroke-width:0.5;}
</style>
<g class="st0">
	<path d="M156.3,8.3l0.8-0.3c0.3,0.6,0.7,0.8,1.2,0.8c0.6,0,1.1-0.3,1.1-0.9c0-0.5-0.3-0.9-1.1-0.9h-0.4V6.1h0.4
		c0.5,0,0.9-0.3,0.9-0.8c0-0.5-0.3-0.8-0.9-0.8c-0.5,0-0.8,0.3-1,0.6l-0.8-0.3c0.3-0.7,0.9-1.1,1.8-1.1c1,0,1.7,0.7,1.7,1.5
		c0,0.5-0.2,1-0.7,1.2c0.6,0.2,0.9,0.7,0.9,1.3c0,1.1-0.8,1.7-2,1.7C157.3,9.5,156.6,9,156.3,8.3z"/>
	<path d="M161.4,6.6c0-1.3,0.4-2.9,2-2.9c1.5,0,2,1.5,2,2.9c0,1.3-0.4,2.9-2,2.9C161.8,9.5,161.4,8,161.4,6.6z M164.5,6.6
		c0-1-0.2-2.1-1.1-2.1c-0.9,0-1.1,1.1-1.1,2.1c0,1,0.2,2.1,1.1,2.1C164.3,8.7,164.5,7.6,164.5,6.6z"/>
</g>
<g class="st0">
	<path d="M25.9,187.4v-0.7l3.8-1.5v0.8l-2.6,1l2.6,1v0.8L25.9,187.4z"/>
	<path d="M33.3,185.5h-0.9v-0.6c0.5,0,1-0.2,1.1-0.6h0.6v5.6h-0.8V185.5z"/>
</g>
<g class="st0">
	<path d="M60.7,185.5h-0.9v-0.6c0.5,0,1-0.2,1.1-0.6h0.6v5.6h-0.8V185.5z"/>
	<path d="M63.4,187.1h2v0.8h-2V187.1z"/>
	<path d="M68.5,186.9c0.5-0.2,0.9-0.6,0.9-1.1c0-0.5-0.4-0.8-1-0.8c-0.6,0-1,0.3-1.1,0.7l-0.8-0.3c0.3-0.7,1-1.2,1.9-1.2
		c1.1,0,1.8,0.7,1.8,1.7c0,1-0.6,1.4-1.4,1.8c-0.7,0.4-1.2,0.8-1.4,1.4h2.8v0.8h-3.9C66.4,188.3,67.4,187.4,68.5,186.9z"/>
</g>
<g class="st0">
	<path d="M92.7,188.6l0.8-0.3c0.3,0.6,0.7,0.8,1.2,0.8c0.6,0,1.1-0.3,1.1-0.9c0-0.5-0.3-0.9-1.1-0.9h-0.4v-0.8h0.4
		c0.5,0,0.9-0.3,0.9-0.8c0-0.5-0.3-0.8-0.9-0.8c-0.5,0-0.8,0.3-1,0.6l-0.8-0.3c0.3-0.7,0.9-1.1,1.8-1.1c1,0,1.7,0.7,1.7,1.5
		c0,0.5-0.2,1-0.7,1.2c0.6,0.2,0.9,0.7,0.9,1.3c0,1.1-0.8,1.7-2,1.7C93.7,189.9,93,189.4,92.7,188.6z"/>
	<path d="M97.7,187.1h2v0.8h-2V187.1z"/>
	<path d="M103.4,188.6h-3V188l2.9-3.8h1v3.6h0.7v0.8h-0.7v1.3h-0.8V188.6z M103.4,185.2l-1.9,2.6h1.9V185.2z"/>
</g>
<g class="st0">
	<path d="M127.1,189.4l0.5-0.7c0.3,0.2,0.6,0.4,1.2,0.4c0.8,0,1.3-0.5,1.3-1.2c0-0.7-0.4-1-1-1c-0.4,0-0.7,0.1-0.9,0.4l-0.9-0.3
		l0.2-2.8h3.1v0.8h-2.4l-0.1,1.4c0.2-0.2,0.6-0.3,1.1-0.3c1.2,0,1.8,0.9,1.8,1.8c0,1.2-0.9,2-2.1,2
		C127.9,189.9,127.3,189.6,127.1,189.4z"/>
	<path d="M132,187.1h2v0.8h-2V187.1z"/>
	<path d="M135.1,187.8c0-1.9,1-3.3,3.1-3.6v0.8c-0.9,0.1-1.8,0.7-2.1,1.8c0.2-0.2,0.6-0.4,1.2-0.4c1,0,1.7,0.7,1.7,1.8
		c0,1.1-0.8,1.8-1.9,1.8C135.7,189.9,135.1,189,135.1,187.8z M138.1,188.1c0-0.6-0.4-1-1.1-1s-1.1,0.4-1.1,1c0,0.6,0.5,1,1.1,1
		S138.1,188.8,138.1,188.1z"/>
</g>
<g class="st0">
	<path d="M162.4,189v-0.8l2.6-1l-2.6-1v-0.8l3.8,1.5v0.7L162.4,189z"/>
	<path d="M171.7,185h-2.9v-0.8h3.8v0.9c-1.3,1.5-1.7,3.5-1.7,4.7h-0.9C170.1,187.9,170.6,186.5,171.7,185z"/>
</g>
<g class="st0">
	<path d="M57.2,124.8c0-1.9,1-3.3,3.1-3.6v0.8c-0.9,0.1-1.8,0.7-2.1,1.8c0.2-0.2,0.6-0.4,1.2-0.4c1,0,1.7,0.7,1.7,1.8
		c0,1.1-0.8,1.8-1.9,1.8C57.9,126.9,57.2,126,57.2,124.8z M60.2,125.1c0-0.6-0.4-1-1.1-1s-1.1,0.4-1.1,1c0,0.6,0.5,1,1.1,1
		S60.2,125.8,60.2,125.1z"/>
</g>
<g class="st0">
	<path d="M90.2,103.2h-0.9v-0.6c0.5,0,1-0.2,1.1-0.6h0.6v5.6h-0.8V103.2z"/>
	<path d="M92.8,104.7c0-1.3,0.4-2.9,2-2.9c1.5,0,2,1.5,2,2.9c0,1.3-0.4,2.9-2,2.9C93.3,107.6,92.8,106.1,92.8,104.7z M96,104.7
		c0-1-0.2-2.1-1.1-2.1c-0.9,0-1.1,1.1-1.1,2.1c0,1,0.2,2.1,1.1,2.1C95.8,106.8,96,105.7,96,104.7z"/>
</g>
<g class="st0">
	<path d="M127.3,136.8h-3v-0.5l2.9-3.8h1v3.6h0.7v0.8h-0.7v1.3h-0.8V136.8z M127.3,133.5l-1.9,2.6h1.9V133.5z"/>
</g>
<g class="st0">
	<path d="M24.5,153.3h-0.9v-0.6c0.5,0,1-0.2,1.1-0.6h0.6v5.6h-0.8V153.3z"/>
</g>
<rect x="155.6" y="21" class="st1" width="23.4" height="159.2"/>
<rect x="155.6" y="21" class="st2" width="23.4" height="159.2"/>
<rect x="149.2" y="14.6" class="st3" width="23.4" height="159.2"/>
<rect x="149.2" y="14.6" class="st2" width="23.4" height="159.2"/>
<rect x="121.5" y="149.6" class="st1" width="23.4" height="30.6"/>
<rect x="121.5" y="149.6" class="st2" width="23.4" height="30.6"/>
<rect x="115.1" y="143.5" class="st3" width="23.4" height="30.3"/>
<rect x="115.1" y="143.5" class="st2" width="23.4" height="30.3"/>
<rect x="87.9" y="119" class="st1" width="23.4" height="61.2"/>
<rect x="87.9" y="119" class="st2" width="23.4" height="61.2"/>
<rect x="81.5" y="112.6" class="st3" width="23.4" height="61.2"/>
<rect x="81.5" y="112.6" class="st2" width="23.4" height="61.2"/>
<rect x="53.8" y="137.7" class="st1" width="23.4" height="42.5"/>
<rect x="53.8" y="137.7" class="st2" width="23.4" height="42.5"/>
<rect x="47.4" y="132" class="st3" width="23.4" height="41.8"/>
<rect x="47.4" y="132" class="st2" width="23.4" height="41.8"/>
<rect x="19.7" y="168.3" class="st1" width="23.4" height="11.8"/>
<rect x="19.7" y="168.3" class="st2" width="23.4" height="11.8"/>
<rect x="13.3" y="162.9" class="st3" width="23.4" height="10.9"/>
<rect x="13.3" y="162.9" class="st2" width="23.4" height="10.9"/>
<g class="st0">
	<path d="M310.1,214.6c0-0.8-0.4-1.1-0.9-1.1c-0.5,0-0.9,0.3-0.9,1.1v2.5h-0.7V213h0.7v0.4c0.3-0.4,0.6-0.5,1.1-0.5
		c0.9,0,1.5,0.5,1.5,1.8v2.4h-0.7V214.6z"/>
	<path d="M312.1,213.3h3.8v0.7h-3.8V213.3z M312.1,214.7h3.8v0.7h-3.8V214.7z"/>
	<path d="M317.1,216.5l0.4-0.5c0.3,0.3,0.7,0.5,1.4,0.5c0.8,0,1.4-0.6,1.4-1.3c0-0.7-0.5-1.2-1.1-1.2c-0.5,0-0.9,0.2-1.1,0.5
		l-0.7-0.2l0.3-2.8h3v0.6h-2.4l-0.2,1.7c0.3-0.2,0.7-0.4,1.2-0.4c1.1,0,1.8,0.8,1.8,1.8c0,1.1-0.8,1.9-2.1,1.9
		C318,217.1,317.4,216.8,317.1,216.5z"/>
</g>
<g class="st0">
	<path d="M323,212.6H322v-0.5c0.6,0,1-0.2,1.1-0.7h0.5v5.6H323V212.6z"/>
</g>
<g class="st0">
	<path d="M11,6.5V5.8H16V4.3h0.7v3.8H16V6.5H11z"/>
</g>
<g class="st0">
	<path d="M13.1,8.3c1.4,0,2.1,0.7,2.1,1.8c0,0.9-0.6,1.7-1.9,1.7c-0.1,0-0.3,0-0.5,0V9C12,9,11.6,9.5,11.6,10.1
		c0,0.3,0.1,0.6,0.4,0.9l-0.5,0.4c-0.3-0.3-0.5-0.8-0.5-1.3C10.9,9,11.8,8.3,13.1,8.3z M13.4,11.1c0.9,0,1.2-0.6,1.2-1
		c0-0.6-0.4-1.1-1.2-1.1V11.1z"/>
</g>
<g class="st0">
	<path d="M15.1,12.9v0.7H11v-0.7H15.1z M16.3,12.8c0.2,0,0.4,0.2,0.4,0.4c0,0.2-0.2,0.4-0.4,0.4c-0.2,0-0.4-0.2-0.4-0.4
		C15.8,13,16,12.8,16.3,12.8z"/>
</g>
<g class="st0">
	<path d="M16.5,15l0.3,0.7H11V15H16.5z"/>
</g>
<g class="st0">
	<path d="M13.5,19.6c0.8,0,1.1-0.4,1.1-0.9c0-0.5-0.3-0.9-1.1-0.9H11v-0.7h4.1v0.7h-0.4c0.4,0.3,0.5,0.6,0.5,1.1
		c0,0.9-0.5,1.5-1.8,1.5H11v-0.7H13.5z"/>
</g>
<g class="st0">
	<path d="M13.1,21.4c1.4,0,2.1,0.7,2.1,1.8c0,0.9-0.6,1.7-1.9,1.7c-0.1,0-0.3,0-0.5,0v-2.8c-0.8,0.1-1.2,0.5-1.2,1.1
		c0,0.3,0.1,0.6,0.4,0.9l-0.5,0.4c-0.3-0.3-0.5-0.8-0.5-1.3C10.9,22.1,11.8,21.4,13.1,21.4z M13.4,24.2c0.9,0,1.2-0.6,1.2-1
		c0-0.6-0.4-1.1-1.2-1.1V24.2z"/>
</g>
<g class="st0">
	<path d="M16.5,25.9l0.3,0.7h-2.1c0.4,0.3,0.5,0.6,0.5,1.1c0,0.9-0.5,1.5-1.8,1.5H11v-0.7h2.5c0.8,0,1.1-0.4,1.1-0.9
		c0-0.5-0.3-0.9-1.1-0.9H11v-0.7H16.5z"/>
	<path d="M13.5,35.2c0.6,0,1.1-0.2,1.1-0.8c0-0.5-0.4-0.9-1.1-0.9H11v-0.7h2.5c0.6,0,1.1-0.2,1.1-0.8c0-0.5-0.4-0.9-1.1-0.9H11v-0.7
		h4.1v0.7h-0.4c0.3,0.2,0.5,0.6,0.5,1.1c0,0.4-0.2,0.9-0.6,1.1c0.4,0.2,0.6,0.7,0.6,1.2c0,0.8-0.5,1.4-1.5,1.4H11v-0.7H13.5z"/>
	<path d="M13.1,37c1.4,0,2.1,0.7,2.1,1.8c0,0.9-0.6,1.7-1.9,1.7c-0.1,0-0.3,0-0.5,0v-2.8c-0.8,0.1-1.2,0.5-1.2,1.1
		c0,0.3,0.1,0.6,0.4,0.9l-0.5,0.4c-0.3-0.3-0.5-0.8-0.5-1.3C10.9,37.6,11.8,37,13.1,37z M13.4,39.8c0.9,0,1.2-0.6,1.2-1
		c0-0.6-0.4-1.1-1.2-1.1V39.8z"/>
	<path d="M13.5,44c0.8,0,1.1-0.4,1.1-0.9c0-0.5-0.3-0.9-1.1-0.9H11v-0.7h4.1v0.7h-0.4c0.4,0.3,0.5,0.6,0.5,1.1
		c0,0.9-0.5,1.5-1.8,1.5H11V44H13.5z"/>
</g>
<g class="st0">
	<path d="M13.1,46c1.3,0,2.1,0.7,2.1,1.7c0,0.5-0.2,0.8-0.4,1h1.6l0.3,0.7H11v-0.7h0.3c-0.2-0.2-0.4-0.5-0.4-1
		C10.9,46.6,11.7,46,13.1,46z M12.1,48.7H14c0.2-0.2,0.5-0.5,0.5-0.9c0-0.7-0.5-1.1-1.5-1.1c-0.8,0-1.5,0.4-1.5,1.1
		C11.6,48.1,11.8,48.5,12.1,48.7z"/>
</g>
<g class="st0">
	<path d="M13.1,50.5c1.4,0,2.1,0.7,2.1,1.8c0,0.9-0.6,1.7-1.9,1.7c-0.1,0-0.3,0-0.5,0v-2.8c-0.8,0.1-1.2,0.5-1.2,1.1
		c0,0.3,0.1,0.6,0.4,0.9l-0.5,0.4c-0.3-0.3-0.5-0.8-0.5-1.3C10.9,51.2,11.8,50.5,13.1,50.5z M13.4,53.3c0.9,0,1.2-0.6,1.2-1
		c0-0.6-0.4-1.1-1.2-1.1V53.3z"/>
</g>
<g class="st0">
	<path d="M140.6,200.4c1.3,0,1.7,0.7,1.7,1.5c0,0.5-0.3,0.9-0.8,1.2c0.6,0.2,1,0.7,1,1.3c0,0.8-0.4,1.6-1.8,1.6h-2.1v-5.6H140.6z
		 M141.7,201.9c0-0.4-0.2-0.9-1-0.9h-1.3v1.7h1.2C141.3,202.8,141.7,202.5,141.7,201.9z M141.9,204.5c0-0.5-0.3-1-1.3-1h-1.2v2h1.5
		C141.6,205.4,141.9,204.9,141.9,204.5z"/>
	<path d="M143.5,204c0-1.4,0.7-2.1,1.8-2.1c0.9,0,1.7,0.6,1.7,1.9c0,0.1,0,0.3,0,0.5h-2.8c0.1,0.8,0.5,1.2,1.1,1.2
		c0.3,0,0.6-0.1,0.9-0.4l0.4,0.5c-0.3,0.3-0.8,0.5-1.3,0.5C144.2,206.1,143.5,205.2,143.5,204z M146.3,203.7c0-0.9-0.6-1.2-1-1.2
		c-0.6,0-1.1,0.4-1.1,1.2H146.3z"/>
</g>
<g class="st0">
	<path d="M148.1,202h0.7v0.5c0.2-0.4,0.6-0.6,1-0.6c0.2,0,0.4,0.1,0.6,0.2l-0.1,0.7c-0.1-0.1-0.3-0.2-0.6-0.2
		c-0.4,0-0.9,0.3-0.9,1.2v2.3h-0.7V202z"/>
</g>
<g class="st0">
	<path d="M153.8,205.7c-0.3,0.4-0.6,0.5-1,0.5c-1,0-1.5-0.5-1.5-1.8V202h0.7v2.5c0,0.8,0.4,1.1,0.9,1.1c0.5,0,0.9-0.3,0.9-1.1V202
		h0.7v4.1h-0.7V205.7z"/>
</g>
<g class="st0">
	<path d="M156.7,206H156v-3.5h-0.6V202h0.6v-0.7c0-0.7,0.4-0.9,0.9-0.9c0.3,0,0.6,0.1,0.8,0.2v0.6c-0.2-0.1-0.4-0.2-0.6-0.2
		c-0.3,0-0.4,0.2-0.4,0.4v0.6h1v0.6h-1V206z"/>
</g>
<g class="st0">
	<path d="M158,205.5l0.5-0.4c0.2,0.2,0.6,0.5,1,0.5c0.4,0,0.8-0.2,0.8-0.5c0-0.4-0.5-0.6-0.9-0.8c-0.8-0.3-1.3-0.6-1.3-1.3
		c0-0.7,0.6-1.1,1.4-1.1c0.6,0,1.1,0.3,1.4,0.6l-0.5,0.4c-0.2-0.2-0.5-0.4-0.9-0.4c-0.4,0-0.7,0.2-0.7,0.5c0,0.3,0.4,0.5,0.9,0.7
		c0.7,0.3,1.3,0.6,1.3,1.4c0,0.7-0.6,1.2-1.5,1.2C158.9,206.1,158.4,205.9,158,205.5z"/>
</g>
<g class="st0">
	<path d="M161.1,207.2c0.8-0.1,1-0.4,1-0.9V202h0.7v4.1c0,0.4-0.1,0.8-0.3,1.1c-0.3,0.4-0.7,0.5-1.1,0.6L161.1,207.2z M162,200.8
		c0-0.2,0.2-0.4,0.4-0.4s0.4,0.2,0.4,0.4c0,0.2-0.2,0.4-0.4,0.4S162,201,162,200.8z"/>
	<path d="M166.5,205.7c-0.3,0.3-0.7,0.5-1.2,0.5c-0.8,0-1.4-0.5-1.4-1.4c0-0.9,0.7-1.4,1.5-1.4c0.4,0,0.7,0.1,1.1,0.3v-0.3
		c0-0.7-0.4-0.9-0.9-0.9c-0.5,0-0.9,0.2-1.2,0.4l-0.2-0.6c0.3-0.2,0.9-0.4,1.5-0.4c0.6,0,1.5,0.2,1.5,1.5v2.7h-0.7V205.7z
		 M166.5,205v-0.7c-0.2-0.2-0.6-0.3-1-0.3c-0.5,0-1,0.2-1,0.8c0,0.5,0.3,0.8,0.9,0.8C165.9,205.5,166.3,205.3,166.5,205z"/>
	<path d="M168.3,200.6l0.7-0.3v2.1c0.3-0.4,0.6-0.5,1.1-0.5c0.9,0,1.5,0.5,1.5,1.8v2.4h-0.7v-2.5c0-0.8-0.4-1.1-0.9-1.1
		c-0.5,0-0.9,0.3-0.9,1.1v2.5h-0.7V200.6z"/>
	<path d="M172.9,202h0.7v0.5c0.2-0.4,0.6-0.6,1-0.6c0.2,0,0.4,0.1,0.6,0.2l-0.1,0.7c-0.1-0.1-0.3-0.2-0.6-0.2
		c-0.4,0-0.9,0.3-0.9,1.2v2.3h-0.7V202z"/>
</g>
<g class="st0">
	<path d="M176,204c0-1.4,0.7-2.1,1.8-2.1c0.9,0,1.7,0.6,1.7,1.9c0,0.1,0,0.3,0,0.5h-2.8c0.1,0.8,0.5,1.2,1.1,1.2
		c0.3,0,0.6-0.1,0.9-0.4l0.4,0.5c-0.3,0.3-0.8,0.5-1.3,0.5C176.7,206.1,176,205.2,176,204z M178.8,203.7c0-0.9-0.6-1.2-1-1.2
		c-0.6,0-1.1,0.4-1.1,1.2H178.8z"/>
</g>
<polyline class="st4" points="179,193.9 7.8,193.9 7.8,3.9 "/>
</svg>
