<?xml version="1.0" encoding="utf-8"?>
<!-- Generator: Adobe Illustrator 21.0.0, SVG Export Plug-In . SVG Version: 6.00 Build 0)  -->
<svg version="1.1" id="Layer_1" xmlns="http://www.w3.org/2000/svg" xmlns:xlink="http://www.w3.org/1999/xlink" x="0px" y="0px"
	 viewBox="0 0 362.6 314" style="enable-background:new 0 0 362.6 314;" xml:space="preserve">
<style type="text/css">
	.st0{fill:none;stroke:#000000;stroke-width:0.5;}
	.st1{font-family:'Overpass-Regular';}
	.st2{font-size:6px;}
	.st3{fill:#FFFFFF;}
	.st4{fill:none;stroke:#0000FF;stroke-width:0.5;}
	.st5{fill:#0000FF;}
	.st6{fill:#0000DD;}
	.st7{font-size:8px;}
	.st8{letter-spacing:16;}
	.st9{letter-spacing:7;}
	.st10{letter-spacing:34;}
	.st11{letter-spacing:2;}
	.st12{letter-spacing:3;}
</style>
<rect x="0.2" y="7.9" width="5.7" height="5.5"/>
<rect x="0.2" y="7.9" class="st0" width="5.7" height="5.5"/>
<text transform="matrix(1 0 0 1 8.0789 12.875)" class="st1 st2">T</text>
<text transform="matrix(1 0 0 1 11.5789 12.875)" class="st1 st2">ri</text>
<text transform="matrix(1 0 0 1 15.5789 12.875)" class="st1 st2">f</text>
<text transform="matrix(1 0 0 1 17.5789 12.875)" class="st1 st2">f</text>
<text transform="matrix(1 0 0 1 19.6789 12.875)" class="st1 st2">t </text>
<text transform="matrix(1 0 0 1 23.3789 12.875)" class="st1 st2">überhaupt ni</text>
<text transform="matrix(1 0 0 1 57.8789 12.875)" class="st1 st2">c</text>
<text transform="matrix(1 0 0 1 60.8789 12.875)" class="st1 st2">h</text>
<text transform="matrix(1 0 0 1 64.2789 12.875)" class="st1 st2">t </text>
<text transform="matrix(1 0 0 1 67.9789 12.875)" class="st1 st2">z</text>
<text transform="matrix(1 0 0 1 71.0789 12.875)" class="st1 st2">u</text>
<rect x="109.9" y="7.9" class="st3" width="5.7" height="5.5"/>
<rect x="109.9" y="7.9" class="st0" width="5.7" height="5.5"/>
<text transform="matrix(1 0 0 1 117.6853 12.875)" class="st1 st2">T</text>
<text transform="matrix(1 0 0 1 121.1853 12.875)" class="st1 st2">ri</text>
<text transform="matrix(1 0 0 1 125.1853 12.875)" class="st1 st2">f</text>
<text transform="matrix(1 0 0 1 127.1853 12.875)" class="st1 st2">f</text>
<text transform="matrix(1 0 0 1 129.2853 12.875)" class="st1 st2">t </text>
<text transform="matrix(1 0 0 1 132.9853 12.875)" class="st1 st2">eh</text>
<text transform="matrix(1 0 0 1 139.6853 12.875)" class="st1 st2">er </text>
<text transform="matrix(1 0 0 1 146.6853 12.875)" class="st1 st2">ni</text>
<text transform="matrix(1 0 0 1 151.6853 12.875)" class="st1 st2">c</text>
<text transform="matrix(1 0 0 1 154.6853 12.875)" class="st1 st2">ht</text>
<text transform="matrix(1 0 0 1 160.3853 12.875)" class="st1 st2"> </text>
<text transform="matrix(1 0 0 1 161.7853 12.875)" class="st1 st2">z</text>
<text transform="matrix(1 0 0 1 164.7853 12.875)" class="st1 st2">u</text>
<rect x="206.8" y="7.9" class="st3" width="5.7" height="5.5"/>
<rect x="206.8" y="7.9" class="st4" width="5.7" height="5.5"/>
<text transform="matrix(1 0 0 1 214.6687 12.875)" class="st1 st2">T</text>
<text transform="matrix(1 0 0 1 218.1687 12.875)" class="st1 st2">ri</text>
<text transform="matrix(1 0 0 1 222.1687 12.875)" class="st1 st2">f</text>
<text transform="matrix(1 0 0 1 224.1687 12.875)" class="st1 st2">f</text>
<text transform="matrix(1 0 0 1 226.2687 12.875)" class="st1 st2">t </text>
<text transform="matrix(1 0 0 1 229.9687 12.875)" class="st1 st2">eh</text>
<text transform="matrix(1 0 0 1 236.6687 12.875)" class="st1 st2">er z</text>
<text transform="matrix(1 0 0 1 246.7687 12.875)" class="st1 st2">u</text>
<rect x="290.4" y="7.9" class="st5" width="5.7" height="5.5"/>
<rect x="290.4" y="7.9" class="st4" width="5.7" height="5.5"/>
<text transform="matrix(1 0 0 1 298.2166 12.875)" class="st1 st2">T</text>
<text transform="matrix(1 0 0 1 301.7166 12.875)" class="st1 st2">ri</text>
<text transform="matrix(1 0 0 1 305.7166 12.875)" class="st1 st2">f</text>
<text transform="matrix(1 0 0 1 307.7166 12.875)" class="st1 st2">f</text>
<text transform="matrix(1 0 0 1 309.8167 12.875)" class="st1 st2">t </text>
<text transform="matrix(1 0 0 1 313.5166 12.875)" class="st1 st2">vo</text>
<text transform="matrix(1 0 0 1 320.0166 12.875)" class="st1 st2">l</text>
<text transform="matrix(1 0 0 1 321.6166 12.875)" class="st1 st2">l</text>
<text transform="matrix(1 0 0 1 323.2166 12.875)" class="st1 st2"> </text>
<text transform="matrix(1 0 0 1 324.6166 12.875)" class="st1 st2">un</text>
<text transform="matrix(1 0 0 1 331.4166 12.875)" class="st1 st2">d </text>
<text transform="matrix(1 0 0 1 336.2166 12.875)" class="st1 st2">ganz</text>
<text transform="matrix(1 0 0 1 349.2166 12.875)" class="st1 st2"> z</text>
<text transform="matrix(1 0 0 1 353.7166 12.875)" class="st1 st2">u</text>
<text transform="matrix(1 0 0 1 5.3982 36.8975)" class="st6 st1 st7"> </text>
<text transform="matrix(1 0 0 1 7.239 36.8975)" class="st1 st7"> B</text>
<text transform="matrix(1 0 0 1 14.339 36.8975)" class="st1 st7">e</text>
<text transform="matrix(1 0 0 1 18.539 36.8975)" class="st1 st7">t</text>
<text transform="matrix(1 0 0 1 21.439 36.8975)" class="st1 st7">eiligung der Jugendlichen an </text>
<text transform="matrix(1 0 0 1 126.0945 36.8975)" class="st1 st7 st8"> </text>
<text transform="matrix(1 0 0 1 144.1945 36.8975)" class="st1 st7"> </text>
<text transform="matrix(1 0 0 1 0.2302 48.8975)" class="st1 st7"> </text>
<text transform="matrix(1 0 0 1 9.2302 48.8975)" class="st1 st7">gesellscha</text>
<text transform="matrix(1 0 0 1 46.7302 48.8975)" class="st1 st7">f</text>
<text transform="matrix(1 0 0 1 49.4302 48.8975)" class="st1 st7">tlichen</text>
<text transform="matrix(1 0 0 1 73.9302 48.8975)" class="st1 st7"> </text>
<text transform="matrix(1 0 0 1 75.4302 48.8975)" class="st1 st7">Themen erhöhen</text>
<text transform="matrix(1 0 0 1 5.3982 78.8975)" class="st6 st1 st7"> </text>
<text transform="matrix(1 0 0 1 7.239 78.8975)" class="st1 st7"> Bessere E</text>
<text transform="matrix(1 0 0 1 44.539 78.8975)" class="st1 st7">r</text>
<text transform="matrix(1 0 0 1 47.739 78.8975)" class="st1 st7">füllung des </text>
<text transform="matrix(1 0 0 1 88.839 78.8975)" class="st1 st7">K</text>
<text transform="matrix(1 0 0 1 94.039 78.8975)" class="st1 st7">ernau</text>
<text transform="matrix(1 0 0 1 114.739 78.8975)" class="st1 st7">f</text>
<text transform="matrix(1 0 0 1 117.439 78.8975)" class="st1 st7">t</text>
<text transform="matrix(1 0 0 1 120.439 78.8975)" class="st1 st7">r</text>
<text transform="matrix(1 0 0 1 123.439 78.8975)" class="st1 st7">ags </text>
<text transform="matrix(1 0 0 1 137.7 78.8975)" class="st1 st7"> </text>
<text transform="matrix(1 0 0 1 0.2302 90.8975)" class="st1 st7">     deiner Organisation</text>
<text transform="matrix(1 0 0 1 6.1072 120.8975)" class="st6 st1 st7"> </text>
<text transform="matrix(1 0 0 1 7.947 120.8975)" class="st1 st7"> Sichtbar</text>
<text transform="matrix(1 0 0 1 39.947 120.8975)" class="st1 st7">k</text>
<text transform="matrix(1 0 0 1 44.147 120.8975)" class="st1 st7">eit der eigenen </text>
<text transform="matrix(1 0 0 1 99.3621 120.8975)" class="st1 st7 st9"> </text>
<text transform="matrix(1 0 0 1 108.9621 120.8975)" class="st1 st7 st10"> </text>
<text transform="matrix(1 0 0 1 144.9621 120.8975)" class="st1 st7"> </text>
<text transform="matrix(1 0 0 1 0.9392 132.8975)" class="st1 st7">    Organisation verbessern</text>
<text transform="matrix(1 0 0 1 4.6902 162.8975)" class="st6 st1 st7"> </text>
<text transform="matrix(1 0 0 1 6.53 162.8975)" class="st1 st7"> Selbstwirksam</text>
<text transform="matrix(1 0 0 1 60.73 162.8975)" class="st1 st7">k</text>
<text transform="matrix(1 0 0 1 64.83 162.8975)" class="st1 st7">eitse</text>
<text transform="matrix(1 0 0 1 82.23 162.8975)" class="st1 st7">r</text>
<text transform="matrix(1 0 0 1 85.43 162.8975)" class="st1 st7">f</text>
<text transform="matrix(1 0 0 1 88.03 162.8975)" class="st1 st7">ah</text>
<text transform="matrix(1 0 0 1 96.83 162.8975)" class="st1 st7">r</text>
<text transform="matrix(1 0 0 1 99.83 162.8975)" class="st1 st7">ungen von </text>
<text transform="matrix(1 0 0 1 138.9197 162.8975)" class="st1 st7 st11"> </text>
<text transform="matrix(1 0 0 1 143.5197 162.8975)" class="st1 st7"> </text>
<text transform="matrix(1 0 0 1 -0.4778 174.8975)" class="st1 st7">     Jugendlichen erhöhen</text>
<text transform="matrix(1 0 0 1 5.3982 204.8975)" class="st6 st1 st7"> </text>
<text transform="matrix(1 0 0 1 7.239 204.8975)" class="st1 st7"> Sichtbar</text>
<text transform="matrix(1 0 0 1 39.239 204.8975)" class="st1 st7">k</text>
<text transform="matrix(1 0 0 1 43.439 204.8975)" class="st1 st7">eit für die Bedü</text>
<text transform="matrix(1 0 0 1 97.939 204.8975)" class="st1 st7">r</text>
<text transform="matrix(1 0 0 1 101.139 204.8975)" class="st1 st7">fnisse und </text>
<text transform="matrix(1 0 0 1 139.364 204.8975)" class="st1 st7 st12"> </text>
<text transform="matrix(1 0 0 1 144.264 204.8975)" class="st1 st7"> </text>
<text transform="matrix(1 0 0 1 0.2302 216.8975)" class="st1 st7">     In</text>
<text transform="matrix(1 0 0 1 16.2302 216.8975)" class="st1 st7">t</text>
<text transform="matrix(1 0 0 1 19.1302 216.8975)" class="st1 st7">eressen der Jugendlichen erzeugen</text>
<text transform="matrix(1 0 0 1 5.3982 252.8975)" class="st6 st1 st7"> </text>
<text transform="matrix(1 0 0 1 7.239 252.8975)" class="st1 st7"> </text>
<text transform="matrix(1 0 0 1 8.739 252.8975)" class="st1 st7">V</text>
<text transform="matrix(1 0 0 1 13.339 252.8975)" class="st1 st7">ern</text>
<text transform="matrix(1 0 0 1 25.339 252.8975)" class="st1 st7">e</text>
<text transform="matrix(1 0 0 1 29.539 252.8975)" class="st1 st7">tzung der Jugendorganisationen </text>
<text transform="matrix(1 0 0 1 0.2302 264.8975)" class="st1 st7"> </text>
<text transform="matrix(1 0 0 1 1.2302 264.8975)" class="st1 st7">    un</text>
<text transform="matrix(1 0 0 1 17.6302 264.8975)" class="st1 st7">t</text>
<text transform="matrix(1 0 0 1 20.5302 264.8975)" class="st1 st7">ereinander</text>
<line class="st0" x1="0" y1="22.5" x2="357.2" y2="22.5"/>
<line class="st0" x1="0" y1="64" x2="357.2" y2="64"/>
<line class="st0" x1="0" y1="106" x2="357.2" y2="106"/>
<line class="st0" x1="0.7" y1="147.7" x2="357.2" y2="147.7"/>
<line class="st0" x1="0" y1="190.7" x2="357.2" y2="190.7"/>
<line class="st0" x1="0" y1="238.3" x2="357.2" y2="238.3"/>
<line class="st0" x1="0" y1="280.6" x2="357.2" y2="280.6"/>
<rect x="184.4" y="28.1" width="5.8" height="6.5"/>
<rect x="184.6" y="36.4" class="st0" width="5.3" height="6"/>
<rect x="184.6" y="44.5" class="st4" width="122.8" height="6"/>
<rect x="184.4" y="52.3" class="st5" width="157.9" height="6.5"/>
<rect x="184.4" y="69.6" width="5.8" height="6.5"/>
<rect x="184.6" y="78" class="st0" width="135.4" height="6"/>
<rect x="184.6" y="86.1" class="st4" width="105.4" height="6"/>
<rect x="184.4" y="93.9" class="st5" width="53.1" height="6.5"/>
<rect x="184" y="111.6" width="5.8" height="6.5"/>
<rect x="184.3" y="119.9" class="st0" width="40.4" height="6"/>
<rect x="184.3" y="128" class="st4" width="117.4" height="6"/>
<rect x="184" y="135.8" class="st5" width="134.9" height="6.5"/>
<rect x="184" y="153.6" width="11.9" height="6.5"/>
<rect x="184.3" y="161.9" class="st0" width="75.8" height="6"/>
<rect x="184.3" y="170" class="st4" width="140.9" height="6"/>
<rect x="184" y="177.8" class="st5" width="71.2" height="6.5"/>
<rect x="184" y="244.2" width="6.5" height="6.5"/>
<rect x="184.3" y="252.5" class="st0" width="28.8" height="6"/>
<rect x="184.3" y="260.6" class="st4" width="162.9" height="6"/>
<rect x="184" y="268.4" class="st5" width="94.7" height="6.5"/>
<rect x="184" y="195.6" width="11.9" height="6.5"/>
<rect x="184.3" y="211.3" class="st4" width="154.3" height="6"/>
<rect x="184" y="219.2" class="st5" width="129.4" height="6.5"/>
<text transform="matrix(1 0 0 1 339.4353 290.7178)" class="st1 st7">n=5</text>
<text transform="matrix(1 0 0 1 354.2353 290.7178)" class="st1 st7">1</text>
<text transform="matrix(1 0 0 1 354.9275 33.0752)" class="st1 st2">1</text>
<text transform="matrix(1 0 0 1 354.9275 41.373)" class="st1 st2">1</text>
<text transform="matrix(1 0 0 1 351.2556 49.6714)" class="st1 st2">21</text>
<text transform="matrix(1 0 0 1 349.8269 57.9692)" class="st1 st2">28</text>
<text transform="matrix(1 0 0 1 354.9275 74.8174)" class="st1 st2">1</text>
<text transform="matrix(1 0 0 1 349.8816 83.1152)" class="st1 st2">23</text>
<text transform="matrix(1 0 0 1 351.2615 91.4131)" class="st1 st2">18</text>
<text transform="matrix(1 0 0 1 353.5837 99.7114)" class="st1 st2">9</text>
<text transform="matrix(1 0 0 1 354.9275 118.041)" class="st1 st2">1</text>
<text transform="matrix(1 0 0 1 354.033 126.3389)" class="st1 st2">7</text>
<text transform="matrix(1 0 0 1 349.6589 134.6377)" class="st1 st2">20</text>
<text transform="matrix(1 0 0 1 349.8816 142.9355)" class="st1 st2">23</text>
<text transform="matrix(1 0 0 1 353.4929 158.4277)" class="st1 st2">2</text>
<text transform="matrix(1 0 0 1 351.3152 166.7256)" class="st1 st2">13</text>
<text transform="matrix(1 0 0 1 349.8269 175.0234)" class="st1 st2">2</text>
<text transform="matrix(1 0 0 1 353.4269 175.0234)" class="st1 st2">4</text>
<text transform="matrix(1 0 0 1 351.2556 183.3213)" class="st1 st2">12</text>
<text transform="matrix(1 0 0 1 353.4929 200.9434)" class="st1 st2">2</text>
<text transform="matrix(1 0 0 1 353.3318 209.2412)" class="st1 st2">0</text>
<text transform="matrix(1 0 0 1 350.3611 217.5391)" class="st1 st2">27</text>
<text transform="matrix(1 0 0 1 349.821 225.8369)" class="st1 st2">22</text>
<text transform="matrix(1 0 0 1 354.9275 249.1289)" class="st1 st2">1</text>
<text transform="matrix(1 0 0 1 353.4392 257.4277)" class="st1 st2">5</text>
<text transform="matrix(1 0 0 1 349.9119 265.7256)" class="st1 st2">29</text>
<text transform="matrix(1 0 0 1 351.3455 274.0234)" class="st1 st2">16</text>
<rect x="184" y="203.4" width="0.5" height="6.5"/>
</svg>
