<?xml version="1.0" encoding="utf-8"?>
<!-- Generator: Adobe Illustrator 21.0.0, SVG Export Plug-In . SVG Version: 6.00 Build 0)  -->
<svg version="1.1" id="Layer_1" xmlns="http://www.w3.org/2000/svg" xmlns:xlink="http://www.w3.org/1999/xlink" x="0px" y="0px"
	 viewBox="0 0 362.6 314" style="enable-background:new 0 0 362.6 314;" xml:space="preserve">
<style type="text/css">
	.st0{fill:none;stroke:#000000;stroke-width:0.5;}
	.st1{enable-background:new    ;}
	.st2{fill:#FFFFFF;}
	.st3{fill:none;stroke:#0000FF;stroke-width:0.5;}
	.st4{fill:#0000FF;}
</style>
<rect x="0.2" y="7.9" width="5.7" height="5.5"/>
<rect x="0.2" y="7.9" class="st0" width="5.7" height="5.5"/>
<g class="st1">
	<path d="M10.1,12.9H9.6V9.2H8.4V8.7h2.9v0.5h-1.2V12.9z"/>
</g>
<g class="st1">
	<path d="M12.1,9.8h0.5v0.4c0.2-0.3,0.5-0.5,0.7-0.5c0.2,0,0.3,0.1,0.4,0.2l-0.1,0.5c-0.1-0.1-0.2-0.1-0.4-0.1
		c-0.3,0-0.7,0.2-0.7,0.9v1.7h-0.5V9.8z"/>
	<path d="M14.4,8.9c0-0.2,0.1-0.3,0.3-0.3c0.2,0,0.3,0.1,0.3,0.3c0,0.2-0.1,0.3-0.3,0.3C14.5,9.3,14.4,9.1,14.4,8.9z M14.5,9.8H15
		v3.1h-0.5V9.8z"/>
</g>
<g class="st1">
	<path d="M16.8,12.9h-0.5v-2.6h-0.5V9.8h0.5V9.3c0-0.5,0.3-0.7,0.7-0.7c0.2,0,0.4,0.1,0.6,0.1v0.4c-0.2-0.1-0.3-0.1-0.4-0.1
		c-0.3,0-0.3,0.2-0.3,0.3v0.4h0.7v0.5h-0.7V12.9z"/>
</g>
<g class="st1">
	<path d="M18.8,12.9h-0.5v-2.6h-0.5V9.8h0.5V9.3c0-0.5,0.3-0.7,0.7-0.7c0.2,0,0.4,0.1,0.6,0.1v0.4c-0.2-0.1-0.3-0.1-0.4-0.1
		c-0.3,0-0.3,0.2-0.3,0.3v0.4h0.7v0.5h-0.7V12.9z"/>
</g>
<g class="st1">
	<path d="M20.4,12.2v-1.9h-0.5V9.8h0.5v-1l0.5-0.3v1.3h0.8v0.5h-0.8V12c0,0.2,0,0.4,0.3,0.4c0.2,0,0.3-0.1,0.5-0.2l-0.1,0.5
		c-0.2,0.1-0.3,0.1-0.6,0.1C20.5,12.9,20.4,12.6,20.4,12.2z"/>
</g>
<g class="st1">
	<path d="M25.7,12.6c-0.2,0.3-0.5,0.4-0.8,0.4c-0.7,0-1.1-0.4-1.1-1.4V9.8h0.5v1.8c0,0.6,0.3,0.8,0.7,0.8c0.4,0,0.7-0.2,0.7-0.8V9.8
		h0.5v3.1h-0.5V12.6z M24.2,9c0-0.2,0.1-0.3,0.3-0.3c0.2,0,0.3,0.1,0.3,0.3s-0.1,0.3-0.3,0.3C24.3,9.3,24.2,9.1,24.2,9z M25.2,9
		c0-0.2,0.1-0.3,0.3-0.3c0.2,0,0.3,0.1,0.3,0.3s-0.1,0.3-0.3,0.3C25.4,9.3,25.2,9.1,25.2,9z"/>
	<path d="M27.8,12.6v0.3h-0.5V8.8l0.5-0.2v1.5c0.2-0.2,0.4-0.3,0.8-0.3c0.8,0,1.3,0.6,1.3,1.6c0,1-0.5,1.6-1.3,1.6
		C28.2,12.9,28,12.8,27.8,12.6z M29.3,11.3c0-0.7-0.3-1.1-0.8-1.1c-0.3,0-0.6,0.2-0.7,0.4V12c0.1,0.3,0.4,0.4,0.7,0.4
		C29,12.5,29.3,12,29.3,11.3z"/>
	<path d="M30.4,11.3c0-1,0.5-1.6,1.4-1.6c0.7,0,1.3,0.5,1.3,1.5c0,0.1,0,0.2,0,0.3H31c0,0.6,0.4,0.9,0.8,0.9c0.2,0,0.5-0.1,0.7-0.3
		l0.3,0.4c-0.2,0.2-0.6,0.4-1,0.4C31,12.9,30.4,12.3,30.4,11.3z M32.5,11.1c0-0.7-0.4-0.9-0.7-0.9c-0.4,0-0.8,0.3-0.8,0.9H32.5z"/>
	<path d="M33.9,9.8h0.5v0.4c0.2-0.3,0.5-0.5,0.7-0.5c0.2,0,0.3,0.1,0.4,0.2l-0.1,0.5c-0.1-0.1-0.2-0.1-0.4-0.1
		c-0.3,0-0.7,0.2-0.7,0.9v1.7h-0.5V9.8z"/>
	<path d="M36.2,8.8l0.5-0.2v1.6c0.2-0.3,0.5-0.4,0.8-0.4c0.7,0,1.1,0.4,1.1,1.4v1.8h-0.5V11c0-0.6-0.3-0.8-0.7-0.8
		c-0.4,0-0.7,0.2-0.7,0.8v1.9h-0.5V8.8z"/>
	<path d="M41.4,12.6c-0.2,0.2-0.5,0.4-0.9,0.4c-0.6,0-1.1-0.3-1.1-1c0-0.7,0.6-1,1.1-1c0.3,0,0.5,0.1,0.8,0.2v-0.2
		c0-0.5-0.3-0.7-0.7-0.7c-0.3,0-0.7,0.1-0.9,0.3l-0.1-0.4c0.2-0.2,0.6-0.3,1.1-0.3c0.5,0,1.1,0.2,1.1,1.1v2h-0.5V12.6z M41.4,12.1
		v-0.5c-0.2-0.1-0.5-0.2-0.7-0.2c-0.4,0-0.7,0.2-0.7,0.6c0,0.3,0.2,0.6,0.7,0.6C40.9,12.5,41.2,12.3,41.4,12.1z"/>
	<path d="M44.6,12.6c-0.2,0.3-0.5,0.4-0.8,0.4c-0.7,0-1.1-0.4-1.1-1.4V9.8h0.5v1.8c0,0.6,0.3,0.8,0.7,0.8c0.4,0,0.7-0.2,0.7-0.8V9.8
		h0.5v3.1h-0.5V12.6z"/>
	<path d="M46.7,12.6v1.3l-0.5,0.2V9.8h0.5v0.3c0.2-0.2,0.4-0.3,0.8-0.3c0.8,0,1.3,0.6,1.3,1.6c0,1-0.5,1.6-1.3,1.6
		C47,12.9,46.8,12.8,46.7,12.6z M48.2,11.3c0-0.7-0.3-1.1-0.8-1.1c-0.3,0-0.6,0.1-0.7,0.4V12c0.2,0.2,0.4,0.4,0.7,0.4
		C47.9,12.5,48.2,12.1,48.2,11.3z"/>
	<path d="M49.7,12.2v-1.9h-0.5V9.8h0.5v-1l0.5-0.3v1.3H51v0.5h-0.8V12c0,0.2,0,0.4,0.3,0.4c0.2,0,0.3-0.1,0.5-0.2l-0.1,0.5
		c-0.2,0.1-0.3,0.1-0.6,0.1C49.9,12.9,49.7,12.6,49.7,12.2z"/>
	<path d="M55,11c0-0.6-0.3-0.8-0.7-0.8c-0.4,0-0.7,0.2-0.7,0.8v1.9h-0.5V9.8h0.5v0.3c0.2-0.3,0.5-0.4,0.8-0.4c0.7,0,1.1,0.4,1.1,1.4
		v1.8H55V11z"/>
	<path d="M56.5,8.9c0-0.2,0.1-0.3,0.3-0.3c0.2,0,0.3,0.1,0.3,0.3c0,0.2-0.1,0.3-0.3,0.3C56.6,9.3,56.5,9.1,56.5,8.9z M56.5,9.8H57
		v3.1h-0.5V9.8z"/>
</g>
<g class="st1">
	<path d="M58.2,11.3c0-1,0.5-1.6,1.3-1.6c0.5,0,0.9,0.2,1.1,0.7l-0.5,0.2c-0.1-0.2-0.3-0.4-0.6-0.4c-0.5,0-0.8,0.4-0.8,1.1
		c0,0.7,0.3,1.1,0.7,1.1c0.3,0,0.5-0.2,0.6-0.5l0.5,0.2c-0.1,0.5-0.6,0.8-1.1,0.8C58.7,12.9,58.2,12.4,58.2,11.3z"/>
</g>
<g class="st1">
	<path d="M61.4,8.8l0.5-0.2v1.6c0.2-0.3,0.5-0.4,0.8-0.4c0.7,0,1.1,0.4,1.1,1.4v1.8h-0.5V11c0-0.6-0.3-0.8-0.7-0.8
		c-0.4,0-0.7,0.2-0.7,0.8v1.9h-0.5V8.8z"/>
</g>
<g class="st1">
	<path d="M65,12.2v-1.9h-0.5V9.8H65v-1l0.5-0.3v1.3h0.8v0.5h-0.8V12c0,0.2,0,0.4,0.3,0.4c0.2,0,0.3-0.1,0.5-0.2l-0.1,0.5
		c-0.2,0.1-0.3,0.1-0.6,0.1C65.1,12.9,65,12.6,65,12.2z"/>
</g>
<g class="st1">
	<path d="M68.4,12.5l1.6-2.2h-1.5V9.8h2.1v0.4L69,12.4h1.6v0.5h-2.2V12.5z"/>
</g>
<g class="st1">
	<path d="M73.4,12.6c-0.2,0.3-0.5,0.4-0.8,0.4c-0.7,0-1.1-0.4-1.1-1.4V9.8h0.5v1.8c0,0.6,0.3,0.8,0.7,0.8c0.4,0,0.7-0.2,0.7-0.8V9.8
		H74v3.1h-0.5V12.6z"/>
</g>
<rect x="109.9" y="7.9" class="st2" width="5.7" height="5.5"/>
<rect x="109.9" y="7.9" class="st0" width="5.7" height="5.5"/>
<g class="st1">
	<path d="M119.7,12.9h-0.5V9.2H118V8.7h2.9v0.5h-1.2V12.9z"/>
</g>
<g class="st1">
	<path d="M121.7,9.8h0.5v0.4c0.2-0.3,0.5-0.5,0.7-0.5c0.2,0,0.3,0.1,0.5,0.2l-0.1,0.5c-0.1-0.1-0.2-0.1-0.4-0.1
		c-0.3,0-0.7,0.2-0.7,0.9v1.7h-0.5V9.8z"/>
	<path d="M124,8.9c0-0.2,0.1-0.3,0.3-0.3c0.2,0,0.3,0.1,0.3,0.3c0,0.2-0.1,0.3-0.3,0.3C124.1,9.3,124,9.1,124,8.9z M124.1,9.8h0.5
		v3.1h-0.5V9.8z"/>
</g>
<g class="st1">
	<path d="M126.4,12.9h-0.5v-2.6h-0.5V9.8h0.5V9.3c0-0.5,0.3-0.7,0.7-0.7c0.2,0,0.4,0.1,0.6,0.1v0.4c-0.2-0.1-0.3-0.1-0.4-0.1
		c-0.3,0-0.3,0.2-0.3,0.3v0.4h0.7v0.5h-0.7V12.9z"/>
</g>
<g class="st1">
	<path d="M128.4,12.9h-0.5v-2.6h-0.5V9.8h0.5V9.3c0-0.5,0.3-0.7,0.7-0.7c0.2,0,0.4,0.1,0.6,0.1v0.4c-0.2-0.1-0.3-0.1-0.4-0.1
		c-0.3,0-0.3,0.2-0.3,0.3v0.4h0.7v0.5h-0.7V12.9z"/>
</g>
<g class="st1">
	<path d="M130,12.2v-1.9h-0.5V9.8h0.5v-1l0.5-0.3v1.3h0.8v0.5h-0.8V12c0,0.2,0,0.4,0.3,0.4c0.2,0,0.3-0.1,0.5-0.2l-0.1,0.5
		c-0.2,0.1-0.3,0.1-0.6,0.1C130.1,12.9,130,12.6,130,12.2z"/>
</g>
<g class="st1">
	<path d="M133.3,11.3c0-1,0.5-1.6,1.4-1.6c0.7,0,1.3,0.5,1.3,1.5c0,0.1,0,0.2,0,0.3h-2.1c0,0.6,0.4,0.9,0.8,0.9
		c0.2,0,0.5-0.1,0.7-0.3l0.3,0.4c-0.2,0.2-0.6,0.4-1,0.4C133.8,12.9,133.3,12.3,133.3,11.3z M135.4,11.1c0-0.7-0.4-0.9-0.7-0.9
		c-0.4,0-0.8,0.3-0.8,0.9H135.4z"/>
	<path d="M136.7,8.8l0.5-0.2v1.6c0.2-0.3,0.5-0.4,0.8-0.4c0.7,0,1.1,0.4,1.1,1.4v1.8h-0.5V11c0-0.6-0.3-0.8-0.7-0.8
		c-0.4,0-0.7,0.2-0.7,0.8v1.9h-0.5V8.8z"/>
</g>
<g class="st1">
	<path d="M140,11.3c0-1,0.5-1.6,1.4-1.6c0.7,0,1.3,0.5,1.3,1.5c0,0.1,0,0.2,0,0.3h-2.1c0,0.6,0.4,0.9,0.8,0.9c0.2,0,0.5-0.1,0.7-0.3
		l0.3,0.4c-0.2,0.2-0.6,0.4-1,0.4C140.5,12.9,140,12.3,140,11.3z M142.1,11.1c0-0.7-0.4-0.9-0.7-0.9c-0.4,0-0.8,0.3-0.8,0.9H142.1z"
		/>
	<path d="M143.4,9.8h0.5v0.4c0.2-0.3,0.5-0.5,0.8-0.5c0.2,0,0.3,0.1,0.4,0.2l-0.1,0.5c-0.1-0.1-0.2-0.1-0.4-0.1
		c-0.3,0-0.7,0.2-0.7,0.9v1.7h-0.5V9.8z"/>
</g>
<g class="st1">
	<path d="M149.1,11c0-0.6-0.3-0.8-0.7-0.8c-0.4,0-0.7,0.2-0.7,0.8v1.9h-0.5V9.8h0.5v0.3c0.2-0.3,0.5-0.4,0.8-0.4
		c0.7,0,1.1,0.4,1.1,1.4v1.8h-0.5V11z"/>
	<path d="M150.5,8.9c0-0.2,0.1-0.3,0.3-0.3c0.2,0,0.3,0.1,0.3,0.3c0,0.2-0.1,0.3-0.3,0.3C150.6,9.3,150.5,9.1,150.5,8.9z M150.6,9.8
		h0.5v3.1h-0.5V9.8z"/>
</g>
<g class="st1">
	<path d="M152,11.3c0-1,0.5-1.6,1.3-1.6c0.5,0,0.9,0.2,1.1,0.7l-0.5,0.2c-0.1-0.2-0.3-0.4-0.6-0.4c-0.5,0-0.8,0.4-0.8,1.1
		c0,0.7,0.3,1.1,0.7,1.1c0.3,0,0.5-0.2,0.6-0.5l0.5,0.2c-0.1,0.5-0.6,0.8-1.1,0.8C152.5,12.9,152,12.4,152,11.3z"/>
</g>
<g class="st1">
	<path d="M155.2,8.8l0.5-0.2v1.6c0.2-0.3,0.5-0.4,0.8-0.4c0.7,0,1.1,0.4,1.1,1.4v1.8h-0.5V11c0-0.6-0.3-0.8-0.7-0.8
		c-0.4,0-0.7,0.2-0.7,0.8v1.9h-0.5V8.8z"/>
	<path d="M158.7,12.2v-1.9h-0.5V9.8h0.5v-1l0.5-0.3v1.3h0.8v0.5h-0.8V12c0,0.2,0,0.4,0.3,0.4c0.2,0,0.3-0.1,0.5-0.2l-0.1,0.5
		c-0.2,0.1-0.3,0.1-0.6,0.1C158.9,12.9,158.7,12.6,158.7,12.2z"/>
</g>
<g class="st1">
	<path d="M162.2,12.5l1.6-2.2h-1.5V9.8h2.1v0.4l-1.6,2.2h1.6v0.5h-2.2V12.5z"/>
</g>
<g class="st1">
	<path d="M167.1,12.6c-0.2,0.3-0.5,0.4-0.8,0.4c-0.7,0-1.1-0.4-1.1-1.4V9.8h0.5v1.8c0,0.6,0.3,0.8,0.7,0.8c0.4,0,0.7-0.2,0.7-0.8
		V9.8h0.5v3.1h-0.5V12.6z"/>
</g>
<rect x="206.8" y="7.9" class="st2" width="5.7" height="5.5"/>
<rect x="206.8" y="7.9" class="st3" width="5.7" height="5.5"/>
<g class="st1">
	<path d="M216.7,12.9h-0.5V9.2H215V8.7h2.9v0.5h-1.2V12.9z"/>
</g>
<g class="st1">
	<path d="M218.7,9.8h0.5v0.4c0.2-0.3,0.5-0.5,0.7-0.5c0.2,0,0.3,0.1,0.5,0.2l-0.1,0.5c-0.1-0.1-0.2-0.1-0.4-0.1
		c-0.3,0-0.7,0.2-0.7,0.9v1.7h-0.5V9.8z"/>
	<path d="M221,8.9c0-0.2,0.1-0.3,0.3-0.3c0.2,0,0.3,0.1,0.3,0.3c0,0.2-0.1,0.3-0.3,0.3C221.1,9.3,221,9.1,221,8.9z M221,9.8h0.5v3.1
		H221V9.8z"/>
</g>
<g class="st1">
	<path d="M223.4,12.9h-0.5v-2.6h-0.5V9.8h0.5V9.3c0-0.5,0.3-0.7,0.7-0.7c0.2,0,0.4,0.1,0.6,0.1v0.4c-0.2-0.1-0.3-0.1-0.4-0.1
		c-0.3,0-0.3,0.2-0.3,0.3v0.4h0.7v0.5h-0.7V12.9z"/>
</g>
<g class="st1">
	<path d="M225.4,12.9h-0.5v-2.6h-0.5V9.8h0.5V9.3c0-0.5,0.3-0.7,0.7-0.7c0.2,0,0.4,0.1,0.6,0.1v0.4c-0.2-0.1-0.3-0.1-0.4-0.1
		c-0.3,0-0.3,0.2-0.3,0.3v0.4h0.7v0.5h-0.7V12.9z"/>
</g>
<g class="st1">
	<path d="M226.9,12.2v-1.9h-0.5V9.8h0.5v-1l0.5-0.3v1.3h0.8v0.5h-0.8V12c0,0.2,0,0.4,0.3,0.4c0.2,0,0.3-0.1,0.5-0.2l-0.1,0.5
		c-0.2,0.1-0.3,0.1-0.6,0.1C227.1,12.9,226.9,12.6,226.9,12.2z"/>
</g>
<g class="st1">
	<path d="M230.3,11.3c0-1,0.5-1.6,1.4-1.6c0.7,0,1.3,0.5,1.3,1.5c0,0.1,0,0.2,0,0.3h-2.1c0,0.6,0.4,0.9,0.8,0.9
		c0.2,0,0.5-0.1,0.7-0.3l0.3,0.4c-0.2,0.2-0.6,0.4-1,0.4C230.8,12.9,230.3,12.3,230.3,11.3z M232.4,11.1c0-0.7-0.4-0.9-0.7-0.9
		c-0.4,0-0.8,0.3-0.8,0.9H232.4z"/>
	<path d="M233.7,8.8l0.5-0.2v1.6c0.2-0.3,0.5-0.4,0.8-0.4c0.7,0,1.1,0.4,1.1,1.4v1.8h-0.5V11c0-0.6-0.3-0.8-0.7-0.8
		c-0.4,0-0.7,0.2-0.7,0.8v1.9h-0.5V8.8z"/>
</g>
<g class="st1">
	<path d="M237,11.3c0-1,0.5-1.6,1.4-1.6c0.7,0,1.3,0.5,1.3,1.5c0,0.1,0,0.2,0,0.3h-2.1c0,0.6,0.4,0.9,0.8,0.9c0.2,0,0.5-0.1,0.7-0.3
		l0.3,0.4c-0.2,0.2-0.6,0.4-1,0.4C237.5,12.9,237,12.3,237,11.3z M239.1,11.1c0-0.7-0.4-0.9-0.7-0.9c-0.4,0-0.8,0.3-0.8,0.9H239.1z"
		/>
	<path d="M240.4,9.8h0.5v0.4c0.2-0.3,0.5-0.5,0.8-0.5c0.2,0,0.3,0.1,0.4,0.2l-0.1,0.5c-0.1-0.1-0.2-0.1-0.4-0.1
		c-0.3,0-0.7,0.2-0.7,0.9v1.7h-0.5V9.8z"/>
	<path d="M244,12.5l1.6-2.2h-1.5V9.8h2.1v0.4l-1.6,2.2h1.6v0.5H244V12.5z"/>
</g>
<g class="st1">
	<path d="M249.1,12.6c-0.2,0.3-0.5,0.4-0.8,0.4c-0.7,0-1.1-0.4-1.1-1.4V9.8h0.5v1.8c0,0.6,0.3,0.8,0.7,0.8c0.4,0,0.7-0.2,0.7-0.8
		V9.8h0.5v3.1h-0.5V12.6z"/>
</g>
<rect x="290.4" y="7.9" class="st4" width="5.7" height="5.5"/>
<rect x="290.4" y="7.9" class="st3" width="5.7" height="5.5"/>
<g class="st1">
	<path d="M300.2,12.9h-0.5V9.2h-1.2V8.7h2.9v0.5h-1.2V12.9z"/>
</g>
<g class="st1">
	<path d="M302.2,9.8h0.5v0.4c0.2-0.3,0.5-0.5,0.7-0.5c0.2,0,0.3,0.1,0.5,0.2l-0.1,0.5c-0.1-0.1-0.2-0.1-0.4-0.1
		c-0.3,0-0.7,0.2-0.7,0.9v1.7h-0.5V9.8z"/>
	<path d="M304.5,8.9c0-0.2,0.1-0.3,0.3-0.3c0.2,0,0.3,0.1,0.3,0.3c0,0.2-0.1,0.3-0.3,0.3C304.7,9.3,304.5,9.1,304.5,8.9z M304.6,9.8
		h0.5v3.1h-0.5V9.8z"/>
</g>
<g class="st1">
	<path d="M306.9,12.9h-0.5v-2.6h-0.5V9.8h0.5V9.3c0-0.5,0.3-0.7,0.7-0.7c0.2,0,0.4,0.1,0.6,0.1v0.4c-0.2-0.1-0.3-0.1-0.4-0.1
		c-0.3,0-0.3,0.2-0.3,0.3v0.4h0.7v0.5h-0.7V12.9z"/>
</g>
<g class="st1">
	<path d="M308.9,12.9h-0.5v-2.6h-0.5V9.8h0.5V9.3c0-0.5,0.3-0.7,0.7-0.7c0.2,0,0.4,0.1,0.6,0.1v0.4c-0.2-0.1-0.3-0.1-0.4-0.1
		c-0.3,0-0.3,0.2-0.3,0.3v0.4h0.7v0.5h-0.7V12.9z"/>
</g>
<g class="st1">
	<path d="M310.5,12.2v-1.9H310V9.8h0.5v-1l0.5-0.3v1.3h0.8v0.5H311V12c0,0.2,0,0.4,0.3,0.4c0.2,0,0.3-0.1,0.5-0.2l-0.1,0.5
		c-0.2,0.1-0.3,0.1-0.6,0.1C310.7,12.9,310.5,12.6,310.5,12.2z"/>
</g>
<g class="st1">
	<path d="M313.7,9.8h0.5l0.7,2c0,0.1,0.1,0.2,0.1,0.3c0-0.1,0.1-0.2,0.1-0.3l0.7-2h0.5l-1.1,3.1h-0.4L313.7,9.8z"/>
	<path d="M316.9,11.3c0-1,0.5-1.6,1.4-1.6c0.8,0,1.4,0.6,1.4,1.6c0,1-0.5,1.6-1.4,1.6C317.4,12.9,316.9,12.4,316.9,11.3z
		 M319.1,11.3c0-0.7-0.3-1.1-0.8-1.1s-0.8,0.4-0.8,1.1c0,0.7,0.3,1.1,0.8,1.1C318.8,12.5,319.1,12,319.1,11.3z"/>
</g>
<g class="st1">
	<path d="M320.5,8.8l0.5-0.2v4.3h-0.5V8.8z"/>
</g>
<g class="st1">
	<path d="M322.1,8.8l0.5-0.2v4.3h-0.5V8.8z"/>
</g>
<g class="st1">
	<path d="M327,12.6c-0.2,0.3-0.5,0.4-0.8,0.4c-0.7,0-1.1-0.4-1.1-1.4V9.8h0.5v1.8c0,0.6,0.3,0.8,0.7,0.8c0.4,0,0.7-0.2,0.7-0.8V9.8
		h0.5v3.1H327V12.6z"/>
	<path d="M330.4,11c0-0.6-0.3-0.8-0.7-0.8c-0.4,0-0.7,0.2-0.7,0.8v1.9h-0.5V9.8h0.5v0.3c0.2-0.3,0.5-0.4,0.8-0.4
		c0.7,0,1.1,0.4,1.1,1.4v1.8h-0.5V11z"/>
</g>
<g class="st1">
	<path d="M331.7,11.3c0-1,0.5-1.6,1.3-1.6c0.4,0,0.6,0.1,0.8,0.3V8.8l0.5-0.2v4.3h-0.5v-0.2c-0.2,0.2-0.4,0.3-0.8,0.3
		C332.2,12.9,331.7,12.3,331.7,11.3z M333.8,12v-1.4c-0.1-0.2-0.3-0.4-0.7-0.4c-0.5,0-0.8,0.4-0.8,1.1c0,0.6,0.3,1.1,0.8,1.1
		C333.4,12.5,333.6,12.3,333.8,12z"/>
</g>
<g class="st1">
	<path d="M337.4,13.7c0.9-0.1,1.2-0.4,1.2-0.8v-0.4c-0.2,0.2-0.4,0.4-0.8,0.4c-0.7,0-1.3-0.5-1.3-1.6c0-1,0.5-1.6,1.3-1.6
		c0.4,0,0.7,0.2,0.8,0.3V9.8h0.5v2.9c0,1-0.6,1.3-1.4,1.4L337.4,13.7z M338.6,12v-1.4c-0.1-0.3-0.4-0.4-0.7-0.4
		c-0.5,0-0.8,0.4-0.8,1.1c0,0.7,0.3,1.1,0.8,1.1C338.1,12.5,338.4,12.3,338.6,12z"/>
	<path d="M341.8,12.6c-0.2,0.2-0.5,0.4-0.9,0.4c-0.6,0-1.1-0.3-1.1-1c0-0.7,0.6-1,1.1-1c0.3,0,0.5,0.1,0.8,0.2v-0.2
		c0-0.5-0.3-0.7-0.7-0.7c-0.3,0-0.7,0.1-0.9,0.3l-0.1-0.4c0.2-0.2,0.6-0.3,1.1-0.3c0.5,0,1.1,0.2,1.1,1.1v2h-0.5V12.6z M341.8,12.1
		v-0.5c-0.2-0.1-0.5-0.2-0.7-0.2c-0.4,0-0.7,0.2-0.7,0.6c0,0.3,0.2,0.6,0.7,0.6C341.4,12.5,341.7,12.3,341.8,12.1z"/>
	<path d="M345.1,11c0-0.6-0.3-0.8-0.7-0.8c-0.4,0-0.7,0.2-0.7,0.8v1.9h-0.5V9.8h0.5v0.3c0.2-0.3,0.5-0.4,0.8-0.4
		c0.7,0,1.1,0.4,1.1,1.4v1.8h-0.5V11z"/>
	<path d="M346.5,12.5l1.6-2.2h-1.5V9.8h2.1v0.4l-1.6,2.2h1.6v0.5h-2.2V12.5z"/>
</g>
<g class="st1">
	<path d="M351,12.5l1.6-2.2h-1.5V9.8h2.1v0.4l-1.6,2.2h1.6v0.5H351V12.5z"/>
</g>
<g class="st1">
	<path d="M356.1,12.6c-0.2,0.3-0.5,0.4-0.8,0.4c-0.7,0-1.1-0.4-1.1-1.4V9.8h0.5v1.8c0,0.6,0.3,0.8,0.7,0.8c0.4,0,0.7-0.2,0.7-0.8
		V9.8h0.5v3.1h-0.5V12.6z"/>
</g>
<g class="st1">
	<path d="M11.8,31.3c1.3,0,1.7,0.7,1.7,1.5c0,0.5-0.3,0.9-0.8,1.2c0.6,0.2,1,0.7,1,1.3c0,0.8-0.4,1.6-1.8,1.6H9.9v-5.6H11.8z
		 M12.9,32.8c0-0.4-0.2-0.9-1-0.9h-1.3v1.7h1.2C12.5,33.7,12.9,33.3,12.9,32.8z M13.1,35.3c0-0.5-0.3-1-1.3-1h-1.2v2h1.5
		C12.9,36.3,13.1,35.8,13.1,35.3z"/>
</g>
<g class="st1">
	<path d="M14.8,34.9c0-1.4,0.7-2.1,1.8-2.1c0.9,0,1.7,0.6,1.7,1.9c0,0.1,0,0.3,0,0.5h-2.8c0.1,0.8,0.5,1.2,1.1,1.2
		c0.3,0,0.6-0.1,0.9-0.4l0.4,0.5c-0.3,0.3-0.8,0.5-1.3,0.5C15.5,37,14.8,36.1,14.8,34.9z M17.6,34.5c0-0.9-0.6-1.2-1-1.2
		c-0.6,0-1.1,0.4-1.1,1.2H17.6z"/>
</g>
<g class="st1">
	<path d="M19.4,36v-2.6h-0.7v-0.6h0.7v-1.4l0.7-0.3v1.7h1v0.6h-1v2.4c0,0.3,0.1,0.6,0.4,0.6c0.2,0,0.4-0.1,0.6-0.2l-0.1,0.7
		c-0.2,0.1-0.5,0.2-0.8,0.2C19.7,37,19.4,36.6,19.4,36z"/>
</g>
<g class="st1">
	<path d="M21.9,34.9c0-1.4,0.7-2.1,1.8-2.1c0.9,0,1.7,0.6,1.7,1.9c0,0.1,0,0.3,0,0.5h-2.8c0.1,0.8,0.5,1.2,1.1,1.2
		c0.3,0,0.6-0.1,0.9-0.4l0.4,0.5c-0.3,0.3-0.8,0.5-1.3,0.5C22.6,37,21.9,36.1,21.9,34.9z M24.7,34.5c0-0.9-0.6-1.2-1-1.2
		c-0.6,0-1.1,0.4-1.1,1.2H24.7z"/>
	<path d="M26.3,31.6c0-0.2,0.2-0.4,0.4-0.4c0.2,0,0.4,0.2,0.4,0.4c0,0.2-0.2,0.4-0.4,0.4C26.5,32.1,26.3,31.9,26.3,31.6z M26.4,32.8
		h0.7v4.1h-0.7V32.8z"/>
	<path d="M28.5,31.5l0.7-0.3v5.8h-0.7V31.5z"/>
	<path d="M30.5,31.6c0-0.2,0.2-0.4,0.4-0.4c0.2,0,0.4,0.2,0.4,0.4c0,0.2-0.2,0.4-0.4,0.4C30.6,32.1,30.5,31.9,30.5,31.6z M30.5,32.8
		h0.7v4.1h-0.7V32.8z"/>
	<path d="M33.5,38c1.3-0.1,1.6-0.5,1.6-1v-0.5C34.8,36.8,34.5,37,34,37c-0.9,0-1.7-0.7-1.7-2.1c0-1.3,0.7-2.1,1.7-2.1
		c0.6,0,0.9,0.3,1,0.4v-0.3h0.7v3.9c0,1.3-0.8,1.8-1.9,1.8L33.5,38z M35.1,35.8v-1.9c-0.2-0.3-0.6-0.5-0.9-0.5
		c-0.7,0-1.1,0.5-1.1,1.5c0,0.9,0.5,1.5,1.1,1.5C34.5,36.3,34.8,36.1,35.1,35.8z"/>
	<path d="M39.5,36.5c-0.3,0.4-0.6,0.5-1,0.5c-1,0-1.5-0.5-1.5-1.8v-2.4h0.7v2.5c0,0.8,0.4,1.1,0.9,1.1c0.5,0,0.9-0.3,0.9-1.1v-2.5
		h0.7v4.1h-0.7V36.5z"/>
	<path d="M44.1,34.4c0-0.8-0.4-1.1-0.9-1.1c-0.5,0-0.9,0.3-0.9,1.1v2.5h-0.7v-4.1h0.7v0.4c0.3-0.4,0.6-0.5,1.1-0.5
		c0.9,0,1.5,0.5,1.5,1.8v2.4h-0.7V34.4z"/>
	<path d="M47,38c1.3-0.1,1.6-0.5,1.6-1v-0.5C48.3,36.8,48,37,47.5,37c-0.9,0-1.7-0.7-1.7-2.1c0-1.3,0.7-2.1,1.7-2.1
		c0.6,0,0.9,0.3,1,0.4v-0.3h0.7v3.9c0,1.3-0.8,1.8-1.9,1.8L47,38z M48.6,35.8v-1.9c-0.2-0.3-0.6-0.5-0.9-0.5c-0.7,0-1.1,0.5-1.1,1.5
		c0,0.9,0.5,1.5,1.1,1.5C48,36.3,48.4,36.1,48.6,35.8z"/>
	<path d="M52.2,34.9c0-1.3,0.7-2.1,1.7-2.1c0.5,0,0.8,0.2,1,0.4v-1.6l0.7-0.3v5.8h-0.7v-0.3c-0.2,0.2-0.5,0.4-1,0.4
		C52.8,37,52.2,36.2,52.2,34.9z M54.9,35.8v-1.9c-0.2-0.2-0.5-0.5-0.9-0.5c-0.7,0-1.1,0.5-1.1,1.5c0,0.8,0.4,1.5,1.1,1.5
		C54.3,36.3,54.7,36.1,54.9,35.8z"/>
	<path d="M56.7,34.9c0-1.4,0.7-2.1,1.8-2.1c0.9,0,1.7,0.6,1.7,1.9c0,0.1,0,0.3,0,0.5h-2.8c0.1,0.8,0.5,1.2,1.1,1.2
		c0.3,0,0.6-0.1,0.9-0.4l0.4,0.5C59.5,36.8,59,37,58.5,37C57.4,37,56.7,36.1,56.7,34.9z M59.5,34.5c0-0.9-0.6-1.2-1-1.2
		c-0.6,0-1.1,0.4-1.1,1.2H59.5z"/>
	<path d="M61.2,32.8h0.7v0.5c0.2-0.4,0.6-0.6,1-0.6c0.2,0,0.4,0.1,0.6,0.2l-0.1,0.7c-0.1-0.1-0.3-0.2-0.6-0.2
		c-0.4,0-0.9,0.3-0.9,1.2v2.3h-0.7V32.8z"/>
	<path d="M65.8,36l0.6-0.3c0.2,0.4,0.5,0.6,1,0.6c0.5,0,1.1-0.2,1.1-1.3v-3.8h0.7v3.8c0,1.5-1,1.9-1.8,1.9
		C66.6,37,66.1,36.6,65.8,36z"/>
	<path d="M73.1,36.5c-0.3,0.4-0.6,0.5-1,0.5c-1,0-1.5-0.5-1.5-1.8v-2.4h0.7v2.5c0,0.8,0.4,1.1,0.9,1.1c0.5,0,0.9-0.3,0.9-1.1v-2.5
		h0.7v4.1h-0.7V36.5z"/>
	<path d="M76,38c1.3-0.1,1.6-0.5,1.6-1v-0.5C77.3,36.8,77,37,76.5,37c-0.9,0-1.7-0.7-1.7-2.1c0-1.3,0.7-2.1,1.7-2.1
		c0.6,0,0.9,0.3,1,0.4v-0.3h0.7v3.9c0,1.3-0.8,1.8-1.9,1.8L76,38z M77.6,35.8v-1.9c-0.2-0.3-0.6-0.5-0.9-0.5c-0.7,0-1.1,0.5-1.1,1.5
		c0,0.9,0.5,1.5,1.1,1.5C77,36.3,77.4,36.1,77.6,35.8z"/>
	<path d="M79.4,34.9c0-1.4,0.7-2.1,1.8-2.1c0.9,0,1.7,0.6,1.7,1.9c0,0.1,0,0.3,0,0.5h-2.8c0.1,0.8,0.5,1.2,1.1,1.2
		c0.3,0,0.6-0.1,0.9-0.4l0.4,0.5c-0.3,0.3-0.8,0.5-1.3,0.5C80.1,37,79.4,36.1,79.4,34.9z M82.2,34.5c0-0.9-0.6-1.2-1-1.2
		c-0.6,0-1.1,0.4-1.1,1.2H82.2z"/>
	<path d="M86.4,34.4c0-0.8-0.4-1.1-0.9-1.1c-0.5,0-0.9,0.3-0.9,1.1v2.5h-0.7v-4.1h0.7v0.4c0.3-0.4,0.6-0.5,1.1-0.5
		c0.9,0,1.5,0.5,1.5,1.8v2.4h-0.7V34.4z"/>
	<path d="M88.2,34.9c0-1.3,0.7-2.1,1.7-2.1c0.5,0,0.8,0.2,1,0.4v-1.6l0.7-0.3v5.8h-0.7v-0.3c-0.2,0.2-0.5,0.4-1,0.4
		C88.8,37,88.2,36.2,88.2,34.9z M90.9,35.8v-1.9c-0.2-0.2-0.5-0.5-0.9-0.5c-0.7,0-1.1,0.5-1.1,1.5c0,0.8,0.4,1.5,1.1,1.5
		C90.3,36.3,90.7,36.1,90.9,35.8z"/>
	<path d="M92.9,31.5l0.7-0.3v5.8h-0.7V31.5z"/>
	<path d="M94.9,31.6c0-0.2,0.2-0.4,0.4-0.4c0.2,0,0.4,0.2,0.4,0.4c0,0.2-0.2,0.4-0.4,0.4C95.1,32.1,94.9,31.9,94.9,31.6z M95,32.8
		h0.7v4.1H95V32.8z"/>
	<path d="M96.8,34.9c0-1.3,0.7-2.1,1.7-2.1c0.7,0,1.2,0.3,1.4,1l-0.7,0.2c-0.1-0.3-0.4-0.5-0.8-0.5c-0.7,0-1,0.6-1,1.5
		c0,0.9,0.3,1.5,1,1.5c0.4,0,0.7-0.2,0.8-0.6l0.6,0.2c-0.2,0.7-0.7,1-1.5,1C97.4,37,96.8,36.2,96.8,34.9z"/>
	<path d="M101,31.4l0.7-0.3v2.1c0.3-0.4,0.6-0.5,1.1-0.5c0.9,0,1.5,0.5,1.5,1.8v2.4h-0.7v-2.5c0-0.8-0.4-1.1-0.9-1.1
		c-0.5,0-0.9,0.3-0.9,1.1v2.5H101V31.4z"/>
	<path d="M105.3,34.9c0-1.4,0.7-2.1,1.8-2.1c0.9,0,1.7,0.6,1.7,1.9c0,0.1,0,0.3,0,0.5H106c0.1,0.8,0.5,1.2,1.1,1.2
		c0.3,0,0.6-0.1,0.9-0.4l0.4,0.5c-0.3,0.3-0.8,0.5-1.3,0.5C106,37,105.3,36.1,105.3,34.9z M108.1,34.5c0-0.9-0.6-1.2-1-1.2
		c-0.6,0-1.1,0.4-1.1,1.2H108.1z"/>
	<path d="M112.4,34.4c0-0.8-0.4-1.1-0.9-1.1c-0.5,0-0.9,0.3-0.9,1.1v2.5h-0.7v-4.1h0.7v0.4c0.3-0.4,0.6-0.5,1.1-0.5
		c0.9,0,1.5,0.5,1.5,1.8v2.4h-0.7V34.4z"/>
	<path d="M118.5,36.5c-0.3,0.3-0.7,0.5-1.2,0.5c-0.8,0-1.4-0.5-1.4-1.4c0-0.9,0.7-1.4,1.5-1.4c0.4,0,0.7,0.1,1.1,0.3v-0.3
		c0-0.7-0.4-0.9-0.9-0.9c-0.5,0-0.9,0.2-1.2,0.4l-0.2-0.6c0.3-0.2,0.9-0.4,1.5-0.4c0.6,0,1.5,0.2,1.5,1.5v2.7h-0.7V36.5z
		 M118.5,35.8v-0.7c-0.2-0.2-0.6-0.3-1-0.3c-0.5,0-1,0.2-1,0.8c0,0.5,0.3,0.8,0.9,0.8C117.9,36.4,118.3,36.1,118.5,35.8z"/>
	<path d="M122.9,34.4c0-0.8-0.4-1.1-0.9-1.1c-0.5,0-0.9,0.3-0.9,1.1v2.5h-0.7v-4.1h0.7v0.4c0.3-0.4,0.6-0.5,1.1-0.5
		c0.9,0,1.5,0.5,1.5,1.8v2.4h-0.7V34.4z"/>
</g>
<g class="st1">
	<path d="M10.8,50c1.3-0.1,1.6-0.5,1.6-1v-0.5c-0.2,0.3-0.6,0.5-1.1,0.5c-0.9,0-1.7-0.7-1.7-2.1c0-1.3,0.7-2.1,1.7-2.1
		c0.6,0,0.9,0.3,1,0.4v-0.3h0.7v3.9c0,1.3-0.8,1.8-1.9,1.8L10.8,50z M12.4,47.8v-1.9c-0.2-0.3-0.6-0.5-0.9-0.5
		c-0.7,0-1.1,0.5-1.1,1.5c0,0.9,0.5,1.5,1.1,1.5C11.8,48.3,12.2,48.1,12.4,47.8z"/>
	<path d="M14.2,46.9c0-1.4,0.7-2.1,1.8-2.1c0.9,0,1.7,0.6,1.7,1.9c0,0.1,0,0.3,0,0.5h-2.8c0.1,0.8,0.5,1.2,1.1,1.2
		c0.3,0,0.6-0.1,0.9-0.4l0.4,0.5C17,48.8,16.5,49,16,49C14.9,49,14.2,48.1,14.2,46.9z M17,46.5c0-0.9-0.6-1.2-1-1.2
		c-0.6,0-1.1,0.4-1.1,1.2H17z"/>
	<path d="M18.4,48.3l0.5-0.4c0.2,0.2,0.6,0.5,1,0.5c0.4,0,0.8-0.2,0.8-0.5c0-0.4-0.5-0.6-0.9-0.8c-0.8-0.3-1.3-0.6-1.3-1.3
		c0-0.7,0.6-1.1,1.4-1.1c0.6,0,1.1,0.3,1.4,0.6l-0.5,0.4c-0.2-0.2-0.5-0.4-0.9-0.4c-0.4,0-0.7,0.2-0.7,0.5c0,0.3,0.4,0.5,0.9,0.7
		c0.7,0.3,1.3,0.6,1.3,1.4c0,0.7-0.6,1.2-1.5,1.2C19.3,49,18.7,48.7,18.4,48.3z"/>
	<path d="M22.2,46.9c0-1.4,0.7-2.1,1.8-2.1c0.9,0,1.7,0.6,1.7,1.9c0,0.1,0,0.3,0,0.5h-2.8c0.1,0.8,0.5,1.2,1.1,1.2
		c0.3,0,0.6-0.1,0.9-0.4l0.4,0.5C25,48.8,24.6,49,24,49C22.9,49,22.2,48.1,22.2,46.9z M25,46.5c0-0.9-0.6-1.2-1-1.2
		c-0.6,0-1.1,0.4-1.1,1.2H25z"/>
	<path d="M26.8,43.5l0.7-0.3v5.8h-0.7V43.5z"/>
	<path d="M28.9,43.5l0.7-0.3v5.8h-0.7V43.5z"/>
	<path d="M30.7,48.3l0.5-0.4c0.2,0.2,0.6,0.5,1,0.5c0.4,0,0.8-0.2,0.8-0.5c0-0.4-0.5-0.6-0.9-0.8c-0.8-0.3-1.3-0.6-1.3-1.3
		c0-0.7,0.6-1.1,1.4-1.1c0.6,0,1.1,0.3,1.4,0.6L33,45.7c-0.2-0.2-0.5-0.4-0.9-0.4c-0.4,0-0.7,0.2-0.7,0.5c0,0.3,0.4,0.5,0.9,0.7
		c0.7,0.3,1.3,0.6,1.3,1.4c0,0.7-0.6,1.2-1.5,1.2C31.6,49,31,48.7,30.7,48.3z"/>
	<path d="M34.5,46.9c0-1.3,0.7-2.1,1.7-2.1c0.7,0,1.2,0.3,1.4,1L37,45.9c-0.1-0.3-0.4-0.5-0.8-0.5c-0.7,0-1,0.6-1,1.5
		c0,0.9,0.3,1.5,1,1.5c0.4,0,0.7-0.2,0.8-0.6l0.6,0.2c-0.2,0.7-0.7,1-1.5,1C35.1,49,34.5,48.2,34.5,46.9z"/>
	<path d="M38.7,43.4l0.7-0.3v2.1c0.3-0.4,0.6-0.5,1.1-0.5c0.9,0,1.5,0.5,1.5,1.8v2.4h-0.7v-2.5c0-0.8-0.4-1.1-0.9-1.1
		c-0.5,0-0.9,0.3-0.9,1.1v2.5h-0.7V43.4z"/>
	<path d="M45.5,48.5c-0.3,0.3-0.7,0.5-1.2,0.5c-0.8,0-1.4-0.5-1.4-1.4c0-0.9,0.7-1.4,1.5-1.4c0.4,0,0.7,0.1,1.1,0.3v-0.3
		c0-0.7-0.4-0.9-0.9-0.9c-0.5,0-0.9,0.2-1.2,0.4l-0.2-0.6c0.3-0.2,0.9-0.4,1.5-0.4c0.6,0,1.5,0.2,1.5,1.5v2.7h-0.7V48.5z M45.5,47.8
		v-0.7c-0.2-0.2-0.6-0.3-1-0.3c-0.5,0-1,0.2-1,0.8c0,0.5,0.3,0.8,0.9,0.8C44.9,48.4,45.3,48.1,45.5,47.8z"/>
</g>
<g class="st1">
	<path d="M48.3,48.9h-0.7v-3.5H47v-0.6h0.6v-0.7c0-0.7,0.4-0.9,0.9-0.9c0.3,0,0.6,0.1,0.8,0.2V44c-0.2-0.1-0.4-0.2-0.6-0.2
		c-0.3,0-0.4,0.2-0.4,0.4v0.6h1v0.6h-1V48.9z"/>
</g>
<g class="st1">
	<path d="M50.3,48v-2.6h-0.7v-0.6h0.7v-1.4l0.7-0.3v1.7h1v0.6h-1v2.4c0,0.3,0.1,0.6,0.4,0.6c0.2,0,0.4-0.1,0.6-0.2L52,48.8
		c-0.2,0.1-0.5,0.2-0.8,0.2C50.6,49,50.3,48.6,50.3,48z"/>
	<path d="M53.1,43.5l0.7-0.3v5.8h-0.7V43.5z"/>
	<path d="M55.1,43.6c0-0.2,0.2-0.4,0.4-0.4c0.2,0,0.4,0.2,0.4,0.4c0,0.2-0.2,0.4-0.4,0.4C55.3,44.1,55.1,43.9,55.1,43.6z M55.2,44.8
		h0.7v4.1h-0.7V44.8z"/>
	<path d="M57,46.9c0-1.3,0.7-2.1,1.7-2.1c0.7,0,1.2,0.3,1.4,1l-0.7,0.2c-0.1-0.3-0.4-0.5-0.8-0.5c-0.7,0-1,0.6-1,1.5
		c0,0.9,0.3,1.5,1,1.5c0.4,0,0.7-0.2,0.8-0.6l0.6,0.2c-0.2,0.7-0.7,1-1.5,1C57.6,49,57,48.2,57,46.9z"/>
	<path d="M61.2,43.4l0.7-0.3v2.1c0.3-0.4,0.6-0.5,1.1-0.5c0.9,0,1.5,0.5,1.5,1.8v2.4h-0.7v-2.5c0-0.8-0.4-1.1-0.9-1.1
		c-0.5,0-0.9,0.3-0.9,1.1v2.5h-0.7V43.4z"/>
	<path d="M65.5,46.9c0-1.4,0.7-2.1,1.8-2.1c0.9,0,1.7,0.6,1.7,1.9c0,0.1,0,0.3,0,0.5h-2.8c0.1,0.8,0.5,1.2,1.1,1.2
		c0.3,0,0.6-0.1,0.9-0.4l0.4,0.5c-0.3,0.3-0.8,0.5-1.3,0.5C66.2,49,65.5,48.1,65.5,46.9z M68.3,46.5c0-0.9-0.6-1.2-1-1.2
		c-0.6,0-1.1,0.4-1.1,1.2H68.3z"/>
	<path d="M72.5,46.4c0-0.8-0.4-1.1-0.9-1.1c-0.5,0-0.9,0.3-0.9,1.1v2.5H70v-4.1h0.7v0.4c0.3-0.4,0.6-0.5,1.1-0.5
		c0.9,0,1.5,0.5,1.5,1.8v2.4h-0.7V46.4z"/>
</g>
<g class="st1">
	<path d="M78.1,48.9h-0.7V44h-1.6v-0.7h3.8V44h-1.6V48.9z"/>
	<path d="M80.8,43.4l0.7-0.3v2.1c0.3-0.4,0.6-0.5,1.1-0.5c0.9,0,1.5,0.5,1.5,1.8v2.4h-0.7v-2.5c0-0.8-0.4-1.1-0.9-1.1
		c-0.5,0-0.9,0.3-0.9,1.1v2.5h-0.7V43.4z"/>
	<path d="M85,46.9c0-1.4,0.7-2.1,1.8-2.1c0.9,0,1.7,0.6,1.7,1.9c0,0.1,0,0.3,0,0.5h-2.8c0.1,0.8,0.5,1.2,1.1,1.2
		c0.3,0,0.6-0.1,0.9-0.4l0.4,0.5c-0.3,0.3-0.8,0.5-1.3,0.5C85.7,49,85,48.1,85,46.9z M87.8,46.5c0-0.9-0.6-1.2-1-1.2
		c-0.6,0-1.1,0.4-1.1,1.2H87.8z"/>
	<path d="M94.4,46.4c0-0.6-0.2-1.1-0.8-1.1c-0.5,0-0.9,0.4-0.9,1.1v2.5H92v-2.5c0-0.6-0.2-1.1-0.8-1.1c-0.5,0-0.9,0.4-0.9,1.1v2.5
		h-0.7v-4.1h0.7v0.4c0.2-0.3,0.6-0.5,1.1-0.5c0.4,0,0.9,0.2,1.1,0.6c0.2-0.4,0.7-0.6,1.2-0.6c0.8,0,1.4,0.5,1.4,1.5v2.7h-0.7V46.4z"
		/>
	<path d="M96.1,46.9c0-1.4,0.7-2.1,1.8-2.1c0.9,0,1.7,0.6,1.7,1.9c0,0.1,0,0.3,0,0.5h-2.8c0.1,0.8,0.5,1.2,1.1,1.2
		c0.3,0,0.6-0.1,0.9-0.4l0.4,0.5c-0.3,0.3-0.8,0.5-1.3,0.5C96.8,49,96.1,48.1,96.1,46.9z M98.9,46.5c0-0.9-0.6-1.2-1-1.2
		c-0.6,0-1.1,0.4-1.1,1.2H98.9z"/>
	<path d="M103.2,46.4c0-0.8-0.4-1.1-0.9-1.1c-0.5,0-0.9,0.3-0.9,1.1v2.5h-0.7v-4.1h0.7v0.4c0.3-0.4,0.6-0.5,1.1-0.5
		c0.9,0,1.5,0.5,1.5,1.8v2.4h-0.7V46.4z"/>
	<path d="M106.7,46.9c0-1.4,0.7-2.1,1.8-2.1c0.9,0,1.7,0.6,1.7,1.9c0,0.1,0,0.3,0,0.5h-2.8c0.1,0.8,0.5,1.2,1.1,1.2
		c0.3,0,0.6-0.1,0.9-0.4l0.4,0.5c-0.3,0.3-0.8,0.5-1.3,0.5C107.4,49,106.7,48.1,106.7,46.9z M109.5,46.5c0-0.9-0.6-1.2-1-1.2
		c-0.6,0-1.1,0.4-1.1,1.2H109.5z"/>
	<path d="M111.3,44.8h0.7v0.5c0.2-0.4,0.6-0.6,1-0.6c0.2,0,0.4,0.1,0.6,0.2l-0.1,0.7c-0.1-0.1-0.3-0.2-0.6-0.2
		c-0.4,0-0.9,0.3-0.9,1.2v2.3h-0.7V44.8z"/>
	<path d="M114.4,43.4l0.7-0.3v2.1c0.3-0.4,0.6-0.5,1.1-0.5c0.9,0,1.5,0.5,1.5,1.8v2.4H117v-2.5c0-0.8-0.4-1.1-0.9-1.1
		c-0.5,0-0.9,0.3-0.9,1.1v2.5h-0.7V43.4z"/>
	<path d="M118.7,46.9c0-1.3,0.7-2.1,1.8-2.1c1.1,0,1.8,0.8,1.8,2.1c0,1.3-0.7,2.1-1.8,2.1C119.4,49,118.7,48.2,118.7,46.9z
		 M119.4,43.7c0-0.2,0.2-0.4,0.4-0.4c0.2,0,0.4,0.2,0.4,0.4c0,0.2-0.2,0.4-0.4,0.4C119.6,44.1,119.4,43.9,119.4,43.7z M121.6,46.9
		c0-0.9-0.4-1.5-1.1-1.5c-0.7,0-1.1,0.6-1.1,1.5c0,0.9,0.4,1.5,1.1,1.5C121.2,48.3,121.6,47.8,121.6,46.9z M120.8,43.7
		c0-0.2,0.2-0.4,0.4-0.4c0.2,0,0.4,0.2,0.4,0.4c0,0.2-0.2,0.4-0.4,0.4C121,44.1,120.8,43.9,120.8,43.7z"/>
	<path d="M123.4,43.4l0.7-0.3v2.1c0.3-0.4,0.6-0.5,1.1-0.5c0.9,0,1.5,0.5,1.5,1.8v2.4h-0.7v-2.5c0-0.8-0.4-1.1-0.9-1.1
		c-0.5,0-0.9,0.3-0.9,1.1v2.5h-0.7V43.4z"/>
	<path d="M127.7,46.9c0-1.4,0.7-2.1,1.8-2.1c0.9,0,1.7,0.6,1.7,1.9c0,0.1,0,0.3,0,0.5h-2.8c0.1,0.8,0.5,1.2,1.1,1.2
		c0.3,0,0.6-0.1,0.9-0.4l0.4,0.5c-0.3,0.3-0.8,0.5-1.3,0.5C128.4,49,127.7,48.1,127.7,46.9z M130.5,46.5c0-0.9-0.6-1.2-1-1.2
		c-0.6,0-1.1,0.4-1.1,1.2H130.5z"/>
	<path d="M134.7,46.4c0-0.8-0.4-1.1-0.9-1.1c-0.5,0-0.9,0.3-0.9,1.1v2.5h-0.7v-4.1h0.7v0.4c0.3-0.4,0.6-0.5,1.1-0.5
		c0.9,0,1.5,0.5,1.5,1.8v2.4h-0.7V46.4z"/>
</g>
<g class="st1">
	<path d="M11.8,73.3c1.3,0,1.7,0.7,1.7,1.5c0,0.5-0.3,0.9-0.8,1.2c0.6,0.2,1,0.7,1,1.3c0,0.8-0.4,1.6-1.8,1.6H9.9v-5.6H11.8z
		 M12.9,74.8c0-0.4-0.2-0.9-1-0.9h-1.3v1.7h1.2C12.5,75.7,12.9,75.3,12.9,74.8z M13.1,77.3c0-0.5-0.3-1-1.3-1h-1.2v2h1.5
		C12.9,78.3,13.1,77.8,13.1,77.3z"/>
	<path d="M14.8,76.9c0-1.4,0.7-2.1,1.8-2.1c0.9,0,1.7,0.6,1.7,1.9c0,0.1,0,0.3,0,0.5h-2.8c0.1,0.8,0.5,1.2,1.1,1.2
		c0.3,0,0.6-0.1,0.9-0.4l0.4,0.5c-0.3,0.3-0.8,0.5-1.3,0.5C15.4,79,14.8,78.1,14.8,76.9z M17.5,76.5c0-0.9-0.6-1.2-1-1.2
		c-0.6,0-1.1,0.4-1.1,1.2H17.5z"/>
	<path d="M19,78.3l0.5-0.4c0.2,0.2,0.6,0.5,1,0.5c0.4,0,0.8-0.2,0.8-0.5c0-0.4-0.5-0.6-0.9-0.8c-0.8-0.3-1.3-0.6-1.3-1.3
		c0-0.7,0.6-1.1,1.4-1.1c0.6,0,1.1,0.3,1.4,0.6l-0.5,0.4c-0.2-0.2-0.5-0.4-0.9-0.4c-0.4,0-0.7,0.2-0.7,0.5c0,0.3,0.4,0.5,0.9,0.7
		c0.7,0.3,1.3,0.6,1.3,1.4c0,0.7-0.6,1.2-1.5,1.2C19.9,79,19.3,78.7,19,78.3z"/>
	<path d="M22.8,78.3l0.5-0.4c0.2,0.2,0.6,0.5,1,0.5c0.4,0,0.8-0.2,0.8-0.5c0-0.4-0.5-0.6-0.9-0.8c-0.8-0.3-1.3-0.6-1.3-1.3
		c0-0.7,0.6-1.1,1.4-1.1c0.6,0,1.1,0.3,1.4,0.6l-0.5,0.4c-0.2-0.2-0.5-0.4-0.9-0.4c-0.4,0-0.7,0.2-0.7,0.5c0,0.3,0.4,0.5,0.9,0.7
		c0.7,0.3,1.3,0.6,1.3,1.4c0,0.7-0.6,1.2-1.5,1.2C23.7,79,23.1,78.7,22.8,78.3z"/>
	<path d="M26.6,76.9c0-1.4,0.7-2.1,1.8-2.1c0.9,0,1.7,0.6,1.7,1.9c0,0.1,0,0.3,0,0.5h-2.8c0.1,0.8,0.5,1.2,1.1,1.2
		c0.3,0,0.6-0.1,0.9-0.4l0.4,0.5c-0.3,0.3-0.8,0.5-1.3,0.5C27.3,79,26.6,78.1,26.6,76.9z M29.4,76.5c0-0.9-0.6-1.2-1-1.2
		c-0.6,0-1.1,0.4-1.1,1.2H29.4z"/>
	<path d="M31.1,74.8h0.7v0.5c0.2-0.4,0.6-0.6,1-0.6c0.2,0,0.4,0.1,0.6,0.2l-0.1,0.7c-0.1-0.1-0.3-0.2-0.6-0.2
		c-0.4,0-0.9,0.3-0.9,1.2v2.3h-0.7V74.8z"/>
	<path d="M34,76.9c0-1.4,0.7-2.1,1.8-2.1c0.9,0,1.7,0.6,1.7,1.9c0,0.1,0,0.3,0,0.5h-2.8c0.1,0.8,0.5,1.2,1.1,1.2
		c0.3,0,0.6-0.1,0.9-0.4l0.4,0.5c-0.3,0.3-0.8,0.5-1.3,0.5C34.7,79,34,78.1,34,76.9z M36.8,76.5c0-0.9-0.6-1.2-1-1.2
		c-0.6,0-1.1,0.4-1.1,1.2H36.8z"/>
	<path d="M40.5,73.3h3.3V74h-2.6v1.7H43v0.7h-1.7v1.9H44v0.7h-3.5V73.3z"/>
</g>
<g class="st1">
	<path d="M45.2,74.8h0.7v0.5c0.2-0.4,0.6-0.6,1-0.6c0.2,0,0.4,0.1,0.6,0.2l-0.1,0.7c-0.1-0.1-0.3-0.2-0.6-0.2
		c-0.4,0-0.9,0.3-0.9,1.2v2.3h-0.7V74.8z"/>
</g>
<g class="st1">
	<path d="M49.3,78.9h-0.7v-3.5H48v-0.6h0.6v-0.7c0-0.7,0.4-0.9,0.9-0.9c0.3,0,0.6,0.1,0.8,0.2V74c-0.2-0.1-0.4-0.2-0.6-0.2
		c-0.3,0-0.4,0.2-0.4,0.4v0.6h1v0.6h-1V78.9z"/>
	<path d="M53.5,78.5c-0.3,0.4-0.6,0.5-1,0.5c-1,0-1.5-0.5-1.5-1.8v-2.4h0.7v2.5c0,0.8,0.4,1.1,0.9,1.1c0.5,0,0.9-0.3,0.9-1.1v-2.5
		h0.7v4.1h-0.7V78.5z M51.5,73.7c0-0.2,0.2-0.4,0.4-0.4c0.2,0,0.4,0.2,0.4,0.4c0,0.2-0.2,0.4-0.4,0.4C51.7,74.1,51.5,73.9,51.5,73.7
		z M52.9,73.7c0-0.2,0.2-0.4,0.4-0.4c0.2,0,0.4,0.2,0.4,0.4c0,0.2-0.2,0.4-0.4,0.4C53.1,74.1,52.9,73.9,52.9,73.7z"/>
	<path d="M55.6,73.5l0.7-0.3v5.8h-0.7V73.5z"/>
	<path d="M57.7,73.5l0.7-0.3v5.8h-0.7V73.5z"/>
	<path d="M62.2,78.5c-0.3,0.4-0.6,0.5-1,0.5c-1,0-1.5-0.5-1.5-1.8v-2.4h0.7v2.5c0,0.8,0.4,1.1,0.9,1.1c0.5,0,0.9-0.3,0.9-1.1v-2.5
		h0.7v4.1h-0.7V78.5z"/>
	<path d="M66.8,76.4c0-0.8-0.4-1.1-0.9-1.1c-0.5,0-0.9,0.3-0.9,1.1v2.5h-0.7v-4.1H65v0.4c0.3-0.4,0.6-0.5,1.1-0.5
		c0.9,0,1.5,0.5,1.5,1.8v2.4h-0.7V76.4z"/>
	<path d="M69.7,80c1.3-0.1,1.6-0.5,1.6-1v-0.5C71,78.8,70.7,79,70.2,79c-0.9,0-1.7-0.7-1.7-2.1c0-1.3,0.7-2.1,1.7-2.1
		c0.6,0,0.9,0.3,1,0.4v-0.3H72v3.9c0,1.3-0.8,1.8-1.9,1.8L69.7,80z M71.3,77.8v-1.9c-0.2-0.3-0.6-0.5-0.9-0.5
		c-0.7,0-1.1,0.5-1.1,1.5c0,0.9,0.5,1.5,1.1,1.5C70.7,78.3,71,78.1,71.3,77.8z"/>
	<path d="M74.9,76.9c0-1.3,0.7-2.1,1.7-2.1c0.5,0,0.8,0.2,1,0.4v-1.6l0.7-0.3v5.8h-0.7v-0.3c-0.2,0.2-0.5,0.4-1,0.4
		C75.5,79,74.9,78.2,74.9,76.9z M77.6,77.8v-1.9c-0.2-0.2-0.5-0.5-0.9-0.5c-0.7,0-1.1,0.5-1.1,1.5c0,0.8,0.4,1.5,1.1,1.5
		C77,78.3,77.4,78.1,77.6,77.8z"/>
	<path d="M79.4,76.9c0-1.4,0.7-2.1,1.8-2.1c0.9,0,1.7,0.6,1.7,1.9c0,0.1,0,0.3,0,0.5h-2.8c0.1,0.8,0.5,1.2,1.1,1.2
		c0.3,0,0.6-0.1,0.9-0.4l0.4,0.5c-0.3,0.3-0.8,0.5-1.3,0.5C80.1,79,79.4,78.1,79.4,76.9z M82.2,76.5c0-0.9-0.6-1.2-1-1.2
		c-0.6,0-1.1,0.4-1.1,1.2H82.2z"/>
	<path d="M83.6,78.3l0.5-0.4c0.2,0.2,0.6,0.5,1,0.5c0.4,0,0.8-0.2,0.8-0.5c0-0.4-0.5-0.6-0.9-0.8c-0.8-0.3-1.3-0.6-1.3-1.3
		c0-0.7,0.6-1.1,1.4-1.1c0.6,0,1.1,0.3,1.4,0.6L86,75.7c-0.2-0.2-0.5-0.4-0.9-0.4c-0.4,0-0.7,0.2-0.7,0.5c0,0.3,0.4,0.5,0.9,0.7
		c0.7,0.3,1.3,0.6,1.3,1.4c0,0.7-0.6,1.2-1.5,1.2C84.5,79,84,78.7,83.6,78.3z"/>
</g>
<g class="st1">
	<path d="M91.3,75.8l-1,1.2v1.9h-0.7v-5.6h0.7V76l2.2-2.7h0.8l-1.5,1.9l2,3.7h-0.8L91.3,75.8z"/>
</g>
<g class="st1">
	<path d="M94.5,76.9c0-1.4,0.7-2.1,1.8-2.1c0.9,0,1.7,0.6,1.7,1.9c0,0.1,0,0.3,0,0.5h-2.8c0.1,0.8,0.5,1.2,1.1,1.2
		c0.3,0,0.6-0.1,0.9-0.4l0.4,0.5c-0.3,0.3-0.8,0.5-1.3,0.5C95.2,79,94.5,78.1,94.5,76.9z M97.3,76.5c0-0.9-0.6-1.2-1-1.2
		c-0.6,0-1.1,0.4-1.1,1.2H97.3z"/>
	<path d="M99,74.8h0.7v0.5c0.2-0.4,0.6-0.6,1-0.6c0.2,0,0.4,0.1,0.6,0.2l-0.1,0.7c-0.1-0.1-0.3-0.2-0.6-0.2c-0.4,0-0.9,0.3-0.9,1.2
		v2.3H99V74.8z"/>
	<path d="M104.7,76.4c0-0.8-0.4-1.1-0.9-1.1c-0.5,0-0.9,0.3-0.9,1.1v2.5h-0.7v-4.1h0.7v0.4c0.3-0.4,0.6-0.5,1.1-0.5
		c0.9,0,1.5,0.5,1.5,1.8v2.4h-0.7V76.4z"/>
	<path d="M109,78.5c-0.3,0.3-0.7,0.5-1.2,0.5c-0.8,0-1.4-0.5-1.4-1.4c0-0.9,0.7-1.4,1.5-1.4c0.4,0,0.7,0.1,1.1,0.3v-0.3
		c0-0.7-0.4-0.9-0.9-0.9c-0.5,0-0.9,0.2-1.2,0.4l-0.2-0.6c0.3-0.2,0.9-0.4,1.5-0.4c0.6,0,1.5,0.2,1.5,1.5v2.7H109V78.5z M109,77.8
		v-0.7c-0.2-0.2-0.6-0.3-1-0.3c-0.5,0-1,0.2-1,0.8c0,0.5,0.3,0.8,0.9,0.8C108.4,78.4,108.8,78.1,109,77.8z"/>
	<path d="M113.4,78.5c-0.3,0.4-0.6,0.5-1,0.5c-1,0-1.5-0.5-1.5-1.8v-2.4h0.7v2.5c0,0.8,0.4,1.1,0.9,1.1c0.5,0,0.9-0.3,0.9-1.1v-2.5
		h0.7v4.1h-0.7V78.5z"/>
</g>
<g class="st1">
	<path d="M116.3,78.9h-0.7v-3.5H115v-0.6h0.6v-0.7c0-0.7,0.4-0.9,0.9-0.9c0.3,0,0.6,0.1,0.8,0.2V74c-0.2-0.1-0.4-0.2-0.6-0.2
		c-0.3,0-0.4,0.2-0.4,0.4v0.6h1v0.6h-1V78.9z"/>
</g>
<g class="st1">
	<path d="M118.3,78v-2.6h-0.7v-0.6h0.7v-1.4l0.7-0.3v1.7h1v0.6h-1v2.4c0,0.3,0.1,0.6,0.4,0.6c0.2,0,0.4-0.1,0.6-0.2l-0.1,0.7
		c-0.2,0.1-0.5,0.2-0.8,0.2C118.6,79,118.3,78.6,118.3,78z"/>
</g>
<g class="st1">
	<path d="M121.1,74.8h0.7v0.5c0.2-0.4,0.6-0.6,1-0.6c0.2,0,0.4,0.1,0.6,0.2l-0.1,0.7c-0.1-0.1-0.3-0.2-0.6-0.2
		c-0.4,0-0.9,0.3-0.9,1.2v2.3h-0.7V74.8z"/>
</g>
<g class="st1">
	<path d="M126.4,78.5c-0.3,0.3-0.7,0.5-1.2,0.5c-0.8,0-1.4-0.5-1.4-1.4c0-0.9,0.7-1.4,1.5-1.4c0.4,0,0.7,0.1,1.1,0.3v-0.3
		c0-0.7-0.4-0.9-0.9-0.9c-0.5,0-0.9,0.2-1.2,0.4l-0.2-0.6c0.3-0.2,0.9-0.4,1.5-0.4c0.6,0,1.5,0.2,1.5,1.5v2.7h-0.7V78.5z
		 M126.4,77.8v-0.7c-0.2-0.2-0.6-0.3-1-0.3c-0.5,0-1,0.2-1,0.8c0,0.5,0.3,0.8,0.9,0.8C125.8,78.4,126.2,78.1,126.4,77.8z"/>
	<path d="M129.2,80c1.3-0.1,1.6-0.5,1.6-1v-0.5c-0.2,0.3-0.6,0.5-1.1,0.5c-0.9,0-1.7-0.7-1.7-2.1c0-1.3,0.7-2.1,1.7-2.1
		c0.6,0,0.9,0.3,1,0.4v-0.3h0.7v3.9c0,1.3-0.8,1.8-1.9,1.8L129.2,80z M130.8,77.8v-1.9c-0.2-0.3-0.6-0.5-0.9-0.5
		c-0.7,0-1.1,0.5-1.1,1.5c0,0.9,0.5,1.5,1.1,1.5C130.2,78.3,130.6,78.1,130.8,77.8z"/>
	<path d="M132.5,78.3l0.5-0.4c0.2,0.2,0.6,0.5,1,0.5c0.4,0,0.8-0.2,0.8-0.5c0-0.4-0.5-0.6-0.9-0.8c-0.8-0.3-1.3-0.6-1.3-1.3
		c0-0.7,0.6-1.1,1.4-1.1c0.6,0,1.1,0.3,1.4,0.6l-0.5,0.4c-0.2-0.2-0.5-0.4-0.9-0.4c-0.4,0-0.7,0.2-0.7,0.5c0,0.3,0.4,0.5,0.9,0.7
		c0.7,0.3,1.3,0.6,1.3,1.4c0,0.7-0.6,1.2-1.5,1.2C133.4,79,132.9,78.7,132.5,78.3z"/>
</g>
<g class="st1">
	<path d="M9.9,88.9c0-1.3,0.7-2.1,1.7-2.1c0.5,0,0.8,0.2,1,0.4v-1.6l0.7-0.3v5.8h-0.7v-0.3c-0.2,0.2-0.5,0.4-1,0.4
		C10.5,91,9.9,90.2,9.9,88.9z M12.6,89.8v-1.9c-0.2-0.2-0.5-0.5-0.9-0.5c-0.7,0-1.1,0.5-1.1,1.5c0,0.8,0.4,1.5,1.1,1.5
		C12,90.3,12.4,90.1,12.6,89.8z"/>
	<path d="M14.3,88.9c0-1.4,0.7-2.1,1.8-2.1c0.9,0,1.7,0.6,1.7,1.9c0,0.1,0,0.3,0,0.5h-2.8c0.1,0.8,0.5,1.2,1.1,1.2
		c0.3,0,0.6-0.1,0.9-0.4l0.4,0.5c-0.3,0.3-0.8,0.5-1.3,0.5C15,91,14.3,90.1,14.3,88.9z M17.1,88.5c0-0.9-0.6-1.2-1-1.2
		c-0.6,0-1.1,0.4-1.1,1.2H17.1z"/>
	<path d="M18.8,85.6c0-0.2,0.2-0.4,0.4-0.4c0.2,0,0.4,0.2,0.4,0.4c0,0.2-0.2,0.4-0.4,0.4C19,86.1,18.8,85.9,18.8,85.6z M18.9,86.8
		h0.7v4.1h-0.7V86.8z"/>
	<path d="M23.4,88.4c0-0.8-0.4-1.1-0.9-1.1c-0.5,0-0.9,0.3-0.9,1.1v2.5h-0.7v-4.1h0.7v0.4c0.3-0.4,0.6-0.5,1.1-0.5
		c0.9,0,1.5,0.5,1.5,1.8v2.4h-0.7V88.4z"/>
	<path d="M25.2,88.9c0-1.4,0.7-2.1,1.8-2.1c0.9,0,1.7,0.6,1.7,1.9c0,0.1,0,0.3,0,0.5h-2.8c0.1,0.8,0.5,1.2,1.1,1.2
		c0.3,0,0.6-0.1,0.9-0.4l0.4,0.5C28,90.8,27.6,91,27,91C25.9,91,25.2,90.1,25.2,88.9z M28,88.5c0-0.9-0.6-1.2-1-1.2
		c-0.6,0-1.1,0.4-1.1,1.2H28z"/>
	<path d="M29.7,86.8h0.7v0.5c0.2-0.4,0.6-0.6,1-0.6c0.2,0,0.4,0.1,0.6,0.2l-0.1,0.7c-0.1-0.1-0.3-0.2-0.6-0.2
		c-0.4,0-0.9,0.3-0.9,1.2v2.3h-0.7V86.8z"/>
	<path d="M34.6,88.1c0-1.4,0.6-2.9,2.4-2.9c1.8,0,2.4,1.5,2.4,2.9c0,1.4-0.6,2.9-2.4,2.9C35.2,91,34.6,89.5,34.6,88.1z M38.6,88.1
		c0-1.1-0.4-2.2-1.7-2.2c-1.2,0-1.7,1.2-1.7,2.2c0,1.1,0.4,2.2,1.7,2.2C38.2,90.3,38.6,89.1,38.6,88.1z"/>
	<path d="M40.6,86.8h0.7v0.5c0.2-0.4,0.6-0.6,1-0.6c0.2,0,0.4,0.1,0.6,0.2l-0.1,0.7c-0.1-0.1-0.3-0.2-0.6-0.2
		c-0.4,0-0.9,0.3-0.9,1.2v2.3h-0.7V86.8z"/>
	<path d="M44.7,92c1.3-0.1,1.6-0.5,1.6-1v-0.5C46,90.8,45.7,91,45.2,91c-0.9,0-1.7-0.7-1.7-2.1c0-1.3,0.7-2.1,1.7-2.1
		c0.6,0,0.9,0.3,1,0.4v-0.3h0.7v3.9c0,1.3-0.8,1.8-1.9,1.8L44.7,92z M46.2,89.8v-1.9c-0.2-0.3-0.6-0.5-0.9-0.5
		c-0.7,0-1.1,0.5-1.1,1.5c0,0.9,0.5,1.5,1.1,1.5C45.6,90.3,46,90.1,46.2,89.8z"/>
	<path d="M50.6,90.5c-0.3,0.3-0.7,0.5-1.2,0.5c-0.8,0-1.4-0.5-1.4-1.4c0-0.9,0.7-1.4,1.5-1.4c0.4,0,0.7,0.1,1.1,0.3v-0.3
		c0-0.7-0.4-0.9-0.9-0.9c-0.5,0-0.9,0.2-1.2,0.4l-0.2-0.6c0.3-0.2,0.9-0.4,1.5-0.4c0.6,0,1.5,0.2,1.5,1.5v2.7h-0.7V90.5z M50.6,89.8
		v-0.7c-0.2-0.2-0.6-0.3-1-0.3c-0.5,0-1,0.2-1,0.8c0,0.5,0.3,0.8,0.9,0.8C50,90.4,50.3,90.1,50.6,89.8z"/>
	<path d="M55,88.4c0-0.8-0.4-1.1-0.9-1.1c-0.5,0-0.9,0.3-0.9,1.1v2.5h-0.7v-4.1h0.7v0.4c0.3-0.4,0.6-0.5,1.1-0.5
		c0.9,0,1.5,0.5,1.5,1.8v2.4H55V88.4z"/>
	<path d="M56.9,85.6c0-0.2,0.2-0.4,0.4-0.4c0.2,0,0.4,0.2,0.4,0.4c0,0.2-0.2,0.4-0.4,0.4C57.1,86.1,56.9,85.9,56.9,85.6z M57,86.8
		h0.7v4.1H57V86.8z"/>
	<path d="M58.7,90.3l0.5-0.4c0.2,0.2,0.6,0.5,1,0.5c0.4,0,0.8-0.2,0.8-0.5c0-0.4-0.5-0.6-0.9-0.8c-0.8-0.3-1.3-0.6-1.3-1.3
		c0-0.7,0.6-1.1,1.4-1.1c0.6,0,1.1,0.3,1.4,0.6L61,87.7c-0.2-0.2-0.5-0.4-0.9-0.4c-0.4,0-0.7,0.2-0.7,0.5c0,0.3,0.4,0.5,0.9,0.7
		c0.7,0.3,1.3,0.6,1.3,1.4c0,0.7-0.6,1.2-1.5,1.2C59.6,91,59,90.7,58.7,90.3z"/>
	<path d="M65.1,90.5c-0.3,0.3-0.7,0.5-1.2,0.5c-0.8,0-1.4-0.5-1.4-1.4c0-0.9,0.7-1.4,1.5-1.4c0.4,0,0.7,0.1,1.1,0.3v-0.3
		c0-0.7-0.4-0.9-0.9-0.9c-0.5,0-0.9,0.2-1.2,0.4l-0.2-0.6c0.3-0.2,0.9-0.4,1.5-0.4c0.6,0,1.5,0.2,1.5,1.5v2.7h-0.7V90.5z M65.1,89.8
		v-0.7c-0.2-0.2-0.6-0.3-1-0.3c-0.5,0-1,0.2-1,0.8c0,0.5,0.3,0.8,0.9,0.8C64.5,90.4,64.8,90.1,65.1,89.8z"/>
	<path d="M67.2,90v-2.6h-0.7v-0.6h0.7v-1.4l0.7-0.3v1.7h1v0.6h-1v2.4c0,0.3,0.1,0.6,0.4,0.6c0.2,0,0.4-0.1,0.6-0.2l-0.1,0.7
		C68.6,90.9,68.4,91,68,91C67.4,91,67.2,90.6,67.2,90z"/>
	<path d="M69.9,85.6c0-0.2,0.2-0.4,0.4-0.4c0.2,0,0.4,0.2,0.4,0.4c0,0.2-0.2,0.4-0.4,0.4C70,86.1,69.9,85.9,69.9,85.6z M69.9,86.8
		h0.7v4.1h-0.7V86.8z"/>
	<path d="M71.7,88.9c0-1.3,0.7-2.1,1.8-2.1c1.1,0,1.8,0.8,1.8,2.1c0,1.3-0.7,2.1-1.8,2.1C72.4,91,71.7,90.2,71.7,88.9z M74.6,88.9
		c0-0.9-0.4-1.5-1.1-1.5c-0.7,0-1.1,0.6-1.1,1.5c0,0.9,0.4,1.5,1.1,1.5C74.2,90.3,74.6,89.8,74.6,88.9z"/>
	<path d="M78.9,88.4c0-0.8-0.4-1.1-0.9-1.1c-0.5,0-0.9,0.3-0.9,1.1v2.5h-0.7v-4.1h0.7v0.4c0.3-0.4,0.6-0.5,1.1-0.5
		c0.9,0,1.5,0.5,1.5,1.8v2.4h-0.7V88.4z"/>
</g>
<g class="st1">
	<path d="M10.3,119.7l0.7-0.2c0.2,0.5,0.7,0.8,1.3,0.8c0.7,0,1.1-0.3,1.1-0.9c0-0.6-0.6-0.9-1.3-1.2c-0.8-0.3-1.6-0.6-1.6-1.6
		c0-0.8,0.6-1.4,1.7-1.4c0.9,0,1.5,0.4,1.6,1l-0.6,0.2c-0.1-0.3-0.5-0.6-1-0.6c-0.6,0-1,0.3-1,0.7c0,0.5,0.6,0.8,1.2,1
		c0.8,0.3,1.7,0.7,1.7,1.8c0,1-0.8,1.6-1.8,1.6C11.2,121,10.5,120.5,10.3,119.7z"/>
	<path d="M15.2,115.6c0-0.2,0.2-0.4,0.4-0.4c0.2,0,0.4,0.2,0.4,0.4c0,0.2-0.2,0.4-0.4,0.4C15.4,116.1,15.2,115.9,15.2,115.6z
		 M15.3,116.8h0.7v4.1h-0.7V116.8z"/>
	<path d="M17,118.9c0-1.3,0.7-2.1,1.7-2.1c0.7,0,1.2,0.3,1.4,1l-0.7,0.2c-0.1-0.3-0.4-0.5-0.8-0.5c-0.7,0-1,0.6-1,1.5
		c0,0.9,0.3,1.5,1,1.5c0.4,0,0.7-0.2,0.8-0.6l0.6,0.2c-0.2,0.7-0.7,1-1.5,1C17.7,121,17,120.2,17,118.9z"/>
	<path d="M21.3,115.4l0.7-0.3v2.1c0.3-0.4,0.6-0.5,1.1-0.5c0.9,0,1.5,0.5,1.5,1.8v2.4h-0.7v-2.5c0-0.8-0.4-1.1-0.9-1.1
		c-0.5,0-0.9,0.3-0.9,1.1v2.5h-0.7V115.4z"/>
	<path d="M26,120v-2.6h-0.7v-0.6H26v-1.4l0.7-0.3v1.7h1v0.6h-1v2.4c0,0.3,0.1,0.6,0.4,0.6c0.2,0,0.4-0.1,0.6-0.2l-0.1,0.7
		c-0.2,0.1-0.5,0.2-0.8,0.2C26.3,121,26,120.6,26,120z"/>
	<path d="M29.5,120.5v0.4h-0.7v-5.4l0.7-0.3v2c0.2-0.3,0.6-0.4,1-0.4c1,0,1.7,0.8,1.7,2.1c0,1.4-0.6,2.1-1.7,2.1
		C30,121,29.7,120.8,29.5,120.5z M31.5,118.9c0-1-0.4-1.5-1.1-1.5c-0.5,0-0.8,0.3-1,0.5v1.9c0.2,0.3,0.6,0.6,1,0.6
		C31.1,120.3,31.5,119.8,31.5,118.9z"/>
	<path d="M35.6,120.5c-0.3,0.3-0.7,0.5-1.2,0.5c-0.8,0-1.4-0.5-1.4-1.4c0-0.9,0.7-1.4,1.5-1.4c0.4,0,0.7,0.1,1.1,0.3v-0.3
		c0-0.7-0.4-0.9-0.9-0.9c-0.5,0-0.9,0.2-1.2,0.4l-0.2-0.6c0.3-0.2,0.9-0.4,1.5-0.4c0.6,0,1.5,0.2,1.5,1.5v2.7h-0.7V120.5z
		 M35.6,119.8v-0.7c-0.2-0.2-0.6-0.3-1-0.3c-0.5,0-1,0.2-1,0.8c0,0.5,0.3,0.8,0.9,0.8C35,120.4,35.4,120.1,35.6,119.8z"/>
	<path d="M37.5,116.8h0.7v0.5c0.2-0.4,0.6-0.6,1-0.6c0.2,0,0.4,0.1,0.6,0.2l-0.1,0.7c-0.1-0.1-0.3-0.2-0.6-0.2
		c-0.4,0-0.9,0.3-0.9,1.2v2.3h-0.7V116.8z"/>
</g>
<g class="st1">
	<path d="M43.2,120.9l-1.3-2.5l-0.6,0.6v1.8h-0.7v-5.4l0.7-0.3v3.1l1.3-1.4h0.8l-1.1,1.1l1.5,3H43.2z"/>
</g>
<g class="st1">
	<path d="M44.6,118.9c0-1.4,0.7-2.1,1.8-2.1c0.9,0,1.7,0.6,1.7,1.9c0,0.1,0,0.3,0,0.5h-2.8c0.1,0.8,0.5,1.2,1.1,1.2
		c0.3,0,0.6-0.1,0.9-0.4l0.4,0.5c-0.3,0.3-0.8,0.5-1.3,0.5C45.3,121,44.6,120.1,44.6,118.9z M47.4,118.5c0-0.9-0.6-1.2-1-1.2
		c-0.6,0-1.1,0.4-1.1,1.2H47.4z"/>
	<path d="M49,115.6c0-0.2,0.2-0.4,0.4-0.4c0.2,0,0.4,0.2,0.4,0.4c0,0.2-0.2,0.4-0.4,0.4C49.2,116.1,49,115.9,49,115.6z M49.1,116.8
		h0.7v4.1h-0.7V116.8z"/>
	<path d="M51.4,120v-2.6h-0.7v-0.6h0.7v-1.4l0.7-0.3v1.7h1v0.6h-1v2.4c0,0.3,0.1,0.6,0.4,0.6c0.2,0,0.4-0.1,0.6-0.2l-0.1,0.7
		c-0.2,0.1-0.5,0.2-0.8,0.2C51.6,121,51.4,120.6,51.4,120z"/>
	<path d="M55.7,118.9c0-1.3,0.7-2.1,1.7-2.1c0.5,0,0.8,0.2,1,0.4v-1.6l0.7-0.3v5.8h-0.7v-0.3c-0.2,0.2-0.5,0.4-1,0.4
		C56.4,121,55.7,120.2,55.7,118.9z M58.5,119.8v-1.9c-0.2-0.2-0.5-0.5-0.9-0.5c-0.7,0-1.1,0.5-1.1,1.5c0,0.8,0.4,1.5,1.1,1.5
		C57.9,120.3,58.2,120.1,58.5,119.8z"/>
	<path d="M60.2,118.9c0-1.4,0.7-2.1,1.8-2.1c0.9,0,1.7,0.6,1.7,1.9c0,0.1,0,0.3,0,0.5h-2.8c0.1,0.8,0.5,1.2,1.1,1.2
		c0.3,0,0.6-0.1,0.9-0.4l0.4,0.5c-0.3,0.3-0.8,0.5-1.3,0.5C60.9,121,60.2,120.1,60.2,118.9z M63,118.5c0-0.9-0.6-1.2-1-1.2
		c-0.6,0-1.1,0.4-1.1,1.2H63z"/>
	<path d="M64.8,116.8h0.7v0.5c0.2-0.4,0.6-0.6,1-0.6c0.2,0,0.4,0.1,0.6,0.2l-0.1,0.7c-0.1-0.1-0.3-0.2-0.6-0.2
		c-0.4,0-0.9,0.3-0.9,1.2v2.3h-0.7V116.8z"/>
	<path d="M69.5,118.9c0-1.4,0.7-2.1,1.8-2.1c0.9,0,1.7,0.6,1.7,1.9c0,0.1,0,0.3,0,0.5h-2.8c0.1,0.8,0.5,1.2,1.1,1.2
		c0.3,0,0.6-0.1,0.9-0.4l0.4,0.5c-0.3,0.3-0.8,0.5-1.3,0.5C70.2,121,69.5,120.1,69.5,118.9z M72.3,118.5c0-0.9-0.6-1.2-1-1.2
		c-0.6,0-1.1,0.4-1.1,1.2H72.3z"/>
	<path d="M74,115.6c0-0.2,0.2-0.4,0.4-0.4c0.2,0,0.4,0.2,0.4,0.4c0,0.2-0.2,0.4-0.4,0.4C74.2,116.1,74,115.9,74,115.6z M74.1,116.8
		h0.7v4.1h-0.7V116.8z"/>
	<path d="M77,122c1.3-0.1,1.6-0.5,1.6-1v-0.5c-0.2,0.3-0.6,0.5-1.1,0.5c-0.9,0-1.7-0.7-1.7-2.1c0-1.3,0.7-2.1,1.7-2.1
		c0.6,0,0.9,0.3,1,0.4v-0.3h0.7v3.9c0,1.3-0.8,1.8-1.9,1.8L77,122z M78.6,119.8v-1.9c-0.2-0.3-0.6-0.5-0.9-0.5
		c-0.7,0-1.1,0.5-1.1,1.5c0,0.9,0.5,1.5,1.1,1.5C78,120.3,78.4,120.1,78.6,119.8z"/>
	<path d="M80.4,118.9c0-1.4,0.7-2.1,1.8-2.1c0.9,0,1.7,0.6,1.7,1.9c0,0.1,0,0.3,0,0.5h-2.8c0.1,0.8,0.5,1.2,1.1,1.2
		c0.3,0,0.6-0.1,0.9-0.4l0.4,0.5c-0.3,0.3-0.8,0.5-1.3,0.5C81.1,121,80.4,120.1,80.4,118.9z M83.2,118.5c0-0.9-0.6-1.2-1-1.2
		c-0.6,0-1.1,0.4-1.1,1.2H83.2z"/>
	<path d="M87.4,118.4c0-0.8-0.4-1.1-0.9-1.1c-0.5,0-0.9,0.3-0.9,1.1v2.5h-0.7v-4.1h0.7v0.4c0.3-0.4,0.6-0.5,1.1-0.5
		c0.9,0,1.5,0.5,1.5,1.8v2.4h-0.7V118.4z"/>
	<path d="M89.2,118.9c0-1.4,0.7-2.1,1.8-2.1c0.9,0,1.7,0.6,1.7,1.9c0,0.1,0,0.3,0,0.5h-2.8c0.1,0.8,0.5,1.2,1.1,1.2
		c0.3,0,0.6-0.1,0.9-0.4l0.4,0.5c-0.3,0.3-0.8,0.5-1.3,0.5C89.9,121,89.2,120.1,89.2,118.9z M92,118.5c0-0.9-0.6-1.2-1-1.2
		c-0.6,0-1.1,0.4-1.1,1.2H92z"/>
	<path d="M96.2,118.4c0-0.8-0.4-1.1-0.9-1.1c-0.5,0-0.9,0.3-0.9,1.1v2.5h-0.7v-4.1h0.7v0.4c0.3-0.4,0.6-0.5,1.1-0.5
		c0.9,0,1.5,0.5,1.5,1.8v2.4h-0.7V118.4z"/>
</g>
<g class="st1">
	<path d="M8.8,130.1c0-1.4,0.6-2.9,2.4-2.9c1.8,0,2.4,1.5,2.4,2.9c0,1.4-0.6,2.9-2.4,2.9C9.5,133,8.8,131.5,8.8,130.1z M12.9,130.1
		c0-1.1-0.4-2.2-1.7-2.2c-1.2,0-1.7,1.2-1.7,2.2c0,1.1,0.4,2.2,1.7,2.2C12.4,132.3,12.9,131.1,12.9,130.1z"/>
	<path d="M14.8,128.8h0.7v0.5c0.2-0.4,0.6-0.6,1-0.6c0.2,0,0.4,0.1,0.6,0.2l-0.1,0.7c-0.1-0.1-0.3-0.2-0.6-0.2
		c-0.4,0-0.9,0.3-0.9,1.2v2.3h-0.7V128.8z"/>
	<path d="M18.9,134c1.3-0.1,1.6-0.5,1.6-1v-0.5c-0.2,0.3-0.6,0.5-1.1,0.5c-0.9,0-1.7-0.7-1.7-2.1c0-1.3,0.7-2.1,1.7-2.1
		c0.6,0,0.9,0.3,1,0.4v-0.3h0.7v3.9c0,1.3-0.8,1.8-1.9,1.8L18.9,134z M20.4,131.8v-1.9c-0.2-0.3-0.6-0.5-0.9-0.5
		c-0.7,0-1.1,0.5-1.1,1.5c0,0.9,0.5,1.5,1.1,1.5C19.9,132.3,20.2,132.1,20.4,131.8z"/>
	<path d="M24.8,132.5c-0.3,0.3-0.7,0.5-1.2,0.5c-0.8,0-1.4-0.5-1.4-1.4c0-0.9,0.7-1.4,1.5-1.4c0.4,0,0.7,0.1,1.1,0.3v-0.3
		c0-0.7-0.4-0.9-0.9-0.9c-0.5,0-0.9,0.2-1.2,0.4l-0.2-0.6c0.3-0.2,0.9-0.4,1.5-0.4c0.6,0,1.5,0.2,1.5,1.5v2.7h-0.7V132.5z
		 M24.8,131.8v-0.7c-0.2-0.2-0.6-0.3-1-0.3c-0.5,0-1,0.2-1,0.8c0,0.5,0.3,0.8,0.9,0.8C24.2,132.4,24.6,132.1,24.8,131.8z"/>
	<path d="M29.2,130.4c0-0.8-0.4-1.1-0.9-1.1c-0.5,0-0.9,0.3-0.9,1.1v2.5h-0.7v-4.1h0.7v0.4c0.3-0.4,0.6-0.5,1.1-0.5
		c0.9,0,1.5,0.5,1.5,1.8v2.4h-0.7V130.4z"/>
	<path d="M31.1,127.6c0-0.2,0.2-0.4,0.4-0.4c0.2,0,0.4,0.2,0.4,0.4c0,0.2-0.2,0.4-0.4,0.4C31.3,128.1,31.1,127.9,31.1,127.6z
		 M31.2,128.8h0.7v4.1h-0.7V128.8z"/>
	<path d="M32.9,132.3l0.5-0.4c0.2,0.2,0.6,0.5,1,0.5c0.4,0,0.8-0.2,0.8-0.5c0-0.4-0.5-0.6-0.9-0.8c-0.8-0.3-1.3-0.6-1.3-1.3
		c0-0.7,0.6-1.1,1.4-1.1c0.6,0,1.1,0.3,1.4,0.6l-0.5,0.4c-0.2-0.2-0.5-0.4-0.9-0.4c-0.4,0-0.7,0.2-0.7,0.5c0,0.3,0.4,0.5,0.9,0.7
		c0.7,0.3,1.3,0.6,1.3,1.4c0,0.7-0.6,1.2-1.5,1.2C33.8,133,33.3,132.7,32.9,132.3z"/>
	<path d="M39.3,132.5c-0.3,0.3-0.7,0.5-1.2,0.5c-0.8,0-1.4-0.5-1.4-1.4c0-0.9,0.7-1.4,1.5-1.4c0.4,0,0.7,0.1,1.1,0.3v-0.3
		c0-0.7-0.4-0.9-0.9-0.9c-0.5,0-0.9,0.2-1.2,0.4l-0.2-0.6c0.3-0.2,0.9-0.4,1.5-0.4c0.6,0,1.5,0.2,1.5,1.5v2.7h-0.7V132.5z
		 M39.3,131.8v-0.7c-0.2-0.2-0.6-0.3-1-0.3c-0.5,0-1,0.2-1,0.8c0,0.5,0.3,0.8,0.9,0.8C38.7,132.4,39.1,132.1,39.3,131.8z"/>
	<path d="M41.4,132v-2.6h-0.7v-0.6h0.7v-1.4l0.7-0.3v1.7h1v0.6h-1v2.4c0,0.3,0.1,0.6,0.4,0.6c0.2,0,0.4-0.1,0.6-0.2l-0.1,0.7
		c-0.2,0.1-0.5,0.2-0.8,0.2C41.7,133,41.4,132.6,41.4,132z"/>
	<path d="M44.1,127.6c0-0.2,0.2-0.4,0.4-0.4c0.2,0,0.4,0.2,0.4,0.4c0,0.2-0.2,0.4-0.4,0.4C44.3,128.1,44.1,127.9,44.1,127.6z
		 M44.2,128.8h0.7v4.1h-0.7V128.8z"/>
	<path d="M46,130.9c0-1.3,0.7-2.1,1.8-2.1c1.1,0,1.8,0.8,1.8,2.1c0,1.3-0.7,2.1-1.8,2.1C46.7,133,46,132.2,46,130.9z M48.9,130.9
		c0-0.9-0.4-1.5-1.1-1.5c-0.7,0-1.1,0.6-1.1,1.5c0,0.9,0.4,1.5,1.1,1.5C48.4,132.3,48.9,131.8,48.9,130.9z"/>
	<path d="M53.2,130.4c0-0.8-0.4-1.1-0.9-1.1c-0.5,0-0.9,0.3-0.9,1.1v2.5h-0.7v-4.1h0.7v0.4c0.3-0.4,0.6-0.5,1.1-0.5
		c0.9,0,1.5,0.5,1.5,1.8v2.4h-0.7V130.4z"/>
	<path d="M56.6,128.8h0.7l1,2.7c0,0.1,0.1,0.3,0.1,0.4c0-0.1,0.1-0.3,0.1-0.4l1-2.7h0.7l-1.5,4.1h-0.6L56.6,128.8z"/>
	<path d="M60.9,130.9c0-1.4,0.7-2.1,1.8-2.1c0.9,0,1.7,0.6,1.7,1.9c0,0.1,0,0.3,0,0.5h-2.8c0.1,0.8,0.5,1.2,1.1,1.2
		c0.3,0,0.6-0.1,0.9-0.4l0.4,0.5c-0.3,0.3-0.8,0.5-1.3,0.5C61.6,133,60.9,132.1,60.9,130.9z M63.7,130.5c0-0.9-0.6-1.2-1-1.2
		c-0.6,0-1.1,0.4-1.1,1.2H63.7z"/>
	<path d="M65.4,128.8h0.7v0.5c0.2-0.4,0.6-0.6,1-0.6c0.2,0,0.4,0.1,0.6,0.2l-0.1,0.7c-0.1-0.1-0.3-0.2-0.6-0.2
		c-0.4,0-0.9,0.3-0.9,1.2v2.3h-0.7V128.8z"/>
	<path d="M69.3,132.5v0.4h-0.7v-5.4l0.7-0.3v2c0.2-0.3,0.6-0.4,1-0.4c1,0,1.7,0.8,1.7,2.1c0,1.4-0.6,2.1-1.7,2.1
		C69.8,133,69.5,132.8,69.3,132.5z M71.3,130.9c0-1-0.4-1.5-1.1-1.5c-0.5,0-0.8,0.3-1,0.5v1.9c0.2,0.3,0.6,0.6,1,0.6
		C70.9,132.3,71.3,131.8,71.3,130.9z"/>
	<path d="M72.8,130.9c0-1.4,0.7-2.1,1.8-2.1c0.9,0,1.7,0.6,1.7,1.9c0,0.1,0,0.3,0,0.5h-2.8c0.1,0.8,0.5,1.2,1.1,1.2
		c0.3,0,0.6-0.1,0.9-0.4l0.4,0.5c-0.3,0.3-0.8,0.5-1.3,0.5C73.5,133,72.8,132.1,72.8,130.9z M75.6,130.5c0-0.9-0.6-1.2-1-1.2
		c-0.6,0-1.1,0.4-1.1,1.2H75.6z"/>
	<path d="M77.1,132.3l0.5-0.4c0.2,0.2,0.6,0.5,1,0.5c0.4,0,0.8-0.2,0.8-0.5c0-0.4-0.5-0.6-0.9-0.8c-0.8-0.3-1.3-0.6-1.3-1.3
		c0-0.7,0.6-1.1,1.4-1.1c0.6,0,1.1,0.3,1.4,0.6l-0.5,0.4c-0.2-0.2-0.5-0.4-0.9-0.4c-0.4,0-0.7,0.2-0.7,0.5c0,0.3,0.4,0.5,0.9,0.7
		c0.7,0.3,1.3,0.6,1.3,1.4c0,0.7-0.6,1.2-1.5,1.2C78,133,77.4,132.7,77.1,132.3z"/>
	<path d="M80.8,132.3l0.5-0.4c0.2,0.2,0.6,0.5,1,0.5c0.4,0,0.8-0.2,0.8-0.5c0-0.4-0.5-0.6-0.9-0.8c-0.8-0.3-1.3-0.6-1.3-1.3
		c0-0.7,0.6-1.1,1.4-1.1c0.6,0,1.1,0.3,1.4,0.6l-0.5,0.4c-0.2-0.2-0.5-0.4-0.9-0.4c-0.4,0-0.7,0.2-0.7,0.5c0,0.3,0.4,0.5,0.9,0.7
		c0.7,0.3,1.3,0.6,1.3,1.4c0,0.7-0.6,1.2-1.5,1.2C81.7,133,81.2,132.7,80.8,132.3z"/>
	<path d="M84.6,130.9c0-1.4,0.7-2.1,1.8-2.1c0.9,0,1.7,0.6,1.7,1.9c0,0.1,0,0.3,0,0.5h-2.8c0.1,0.8,0.5,1.2,1.1,1.2
		c0.3,0,0.6-0.1,0.9-0.4l0.4,0.5c-0.3,0.3-0.8,0.5-1.3,0.5C85.3,133,84.6,132.1,84.6,130.9z M87.4,130.5c0-0.9-0.6-1.2-1-1.2
		c-0.6,0-1.1,0.4-1.1,1.2H87.4z"/>
	<path d="M89.2,128.8h0.7v0.5c0.2-0.4,0.6-0.6,1-0.6c0.2,0,0.4,0.1,0.6,0.2l-0.1,0.7c-0.1-0.1-0.3-0.2-0.6-0.2
		c-0.4,0-0.9,0.3-0.9,1.2v2.3h-0.7V128.8z"/>
	<path d="M94.8,130.4c0-0.8-0.4-1.1-0.9-1.1c-0.5,0-0.9,0.3-0.9,1.1v2.5h-0.7v-4.1H93v0.4c0.3-0.4,0.6-0.5,1.1-0.5
		c0.9,0,1.5,0.5,1.5,1.8v2.4h-0.7V130.4z"/>
</g>
<g class="st1">
	<path d="M8.8,161.7l0.7-0.2c0.2,0.5,0.7,0.8,1.3,0.8c0.7,0,1.1-0.3,1.1-0.9c0-0.6-0.6-0.9-1.3-1.2c-0.8-0.3-1.6-0.6-1.6-1.6
		c0-0.8,0.6-1.4,1.7-1.4c0.9,0,1.5,0.4,1.6,1l-0.6,0.2c-0.1-0.3-0.5-0.6-1-0.6c-0.6,0-1,0.3-1,0.7c0,0.5,0.6,0.8,1.2,1
		c0.8,0.3,1.7,0.7,1.7,1.8c0,1-0.8,1.6-1.8,1.6C9.8,163,9.1,162.5,8.8,161.7z"/>
	<path d="M13.6,160.9c0-1.4,0.7-2.1,1.8-2.1c0.9,0,1.7,0.6,1.7,1.9c0,0.1,0,0.3,0,0.5h-2.8c0.1,0.8,0.5,1.2,1.1,1.2
		c0.3,0,0.6-0.1,0.9-0.4l0.4,0.5c-0.3,0.3-0.8,0.5-1.3,0.5C14.3,163,13.6,162.1,13.6,160.9z M16.4,160.5c0-0.9-0.6-1.2-1-1.2
		c-0.6,0-1.1,0.4-1.1,1.2H16.4z"/>
	<path d="M18.2,157.5l0.7-0.3v5.8h-0.7V157.5z"/>
	<path d="M20.9,162.5v0.4h-0.7v-5.4l0.7-0.3v2c0.2-0.3,0.6-0.4,1-0.4c1,0,1.7,0.8,1.7,2.1c0,1.4-0.6,2.1-1.7,2.1
		C21.4,163,21.2,162.8,20.9,162.5z M22.9,160.9c0-1-0.4-1.5-1.1-1.5c-0.5,0-0.8,0.3-1,0.5v1.9c0.2,0.3,0.6,0.6,1,0.6
		C22.6,162.3,22.9,161.8,22.9,160.9z"/>
	<path d="M24.4,162.3l0.5-0.4c0.2,0.2,0.6,0.5,1,0.5c0.4,0,0.8-0.2,0.8-0.5c0-0.4-0.5-0.6-0.9-0.8c-0.8-0.3-1.3-0.6-1.3-1.3
		c0-0.7,0.6-1.1,1.4-1.1c0.6,0,1.1,0.3,1.4,0.6l-0.5,0.4c-0.2-0.2-0.5-0.4-0.9-0.4c-0.4,0-0.7,0.2-0.7,0.5c0,0.3,0.4,0.5,0.9,0.7
		c0.7,0.3,1.3,0.6,1.3,1.4c0,0.7-0.6,1.2-1.5,1.2C25.3,163,24.8,162.7,24.4,162.3z"/>
	<path d="M28.7,162v-2.6H28v-0.6h0.7v-1.4l0.7-0.3v1.7h1v0.6h-1v2.4c0,0.3,0.1,0.6,0.4,0.6c0.2,0,0.4-0.1,0.6-0.2l-0.1,0.7
		c-0.2,0.1-0.5,0.2-0.8,0.2C29,163,28.7,162.6,28.7,162z"/>
	<path d="M31.1,158.8h0.7l0.6,2.7c0,0.2,0.1,0.3,0.1,0.4c0-0.1,0.1-0.3,0.1-0.4l0.8-2.7H34l0.8,2.7l0.1,0.4c0-0.1,0.1-0.3,0.1-0.4
		l0.6-2.7h0.7l-1,4.1h-0.6l-0.7-2.4c0-0.2-0.1-0.4-0.2-0.5c0,0.2-0.1,0.4-0.1,0.5l-0.7,2.4h-0.6L31.1,158.8z"/>
	<path d="M37.1,157.6c0-0.2,0.2-0.4,0.4-0.4c0.2,0,0.4,0.2,0.4,0.4c0,0.2-0.2,0.4-0.4,0.4C37.3,158.1,37.1,157.9,37.1,157.6z
		 M37.2,158.8h0.7v4.1h-0.7V158.8z"/>
	<path d="M39.2,158.8h0.7v0.5c0.2-0.4,0.6-0.6,1-0.6c0.2,0,0.4,0.1,0.6,0.2l-0.1,0.7c-0.1-0.1-0.3-0.2-0.6-0.2
		c-0.4,0-0.9,0.3-0.9,1.2v2.3h-0.7V158.8z"/>
	<path d="M44.9,162.9l-1.3-2.5l-0.6,0.6v1.8h-0.7v-5.4l0.7-0.3v3.1l1.3-1.4h0.8l-1.1,1.1l1.5,3H44.9z"/>
	<path d="M46.4,162.3l0.5-0.4c0.2,0.2,0.6,0.5,1,0.5c0.4,0,0.8-0.2,0.8-0.5c0-0.4-0.5-0.6-0.9-0.8c-0.8-0.3-1.3-0.6-1.3-1.3
		c0-0.7,0.6-1.1,1.4-1.1c0.6,0,1.1,0.3,1.4,0.6l-0.5,0.4c-0.2-0.2-0.5-0.4-0.9-0.4c-0.4,0-0.7,0.2-0.7,0.5c0,0.3,0.4,0.5,0.9,0.7
		c0.7,0.3,1.3,0.6,1.3,1.4c0,0.7-0.6,1.2-1.5,1.2C47.2,163,46.7,162.7,46.4,162.3z"/>
	<path d="M52.7,162.5c-0.3,0.3-0.7,0.5-1.2,0.5c-0.8,0-1.4-0.5-1.4-1.4c0-0.9,0.7-1.4,1.5-1.4c0.4,0,0.7,0.1,1.1,0.3v-0.3
		c0-0.7-0.4-0.9-0.9-0.9c-0.5,0-0.9,0.2-1.2,0.4l-0.2-0.6c0.3-0.2,0.9-0.4,1.5-0.4c0.6,0,1.5,0.2,1.5,1.5v2.7h-0.7V162.5z
		 M52.7,161.8v-0.7c-0.2-0.2-0.6-0.3-1-0.3c-0.5,0-1,0.2-1,0.8c0,0.5,0.3,0.8,0.9,0.8C52.1,162.4,52.5,162.1,52.7,161.8z"/>
	<path d="M59.4,160.4c0-0.6-0.2-1.1-0.8-1.1c-0.5,0-0.9,0.4-0.9,1.1v2.5H57v-2.5c0-0.6-0.2-1.1-0.8-1.1c-0.5,0-0.9,0.4-0.9,1.1v2.5
		h-0.7v-4.1h0.7v0.4c0.2-0.3,0.6-0.5,1.1-0.5c0.4,0,0.9,0.2,1.1,0.6c0.2-0.4,0.7-0.6,1.2-0.6c0.8,0,1.4,0.5,1.4,1.5v2.7h-0.7V160.4z
		"/>
</g>
<g class="st1">
	<path d="M64,162.9l-1.3-2.5l-0.6,0.6v1.8h-0.7v-5.4l0.7-0.3v3.1l1.3-1.4h0.8l-1.1,1.1l1.5,3H64z"/>
</g>
<g class="st1">
	<path d="M65.3,160.9c0-1.4,0.7-2.1,1.8-2.1c0.9,0,1.7,0.6,1.7,1.9c0,0.1,0,0.3,0,0.5H66c0.1,0.8,0.5,1.2,1.1,1.2
		c0.3,0,0.6-0.1,0.9-0.4l0.4,0.5c-0.3,0.3-0.8,0.5-1.3,0.5C65.9,163,65.3,162.1,65.3,160.9z M68.1,160.5c0-0.9-0.6-1.2-1-1.2
		c-0.6,0-1.1,0.4-1.1,1.2H68.1z"/>
	<path d="M69.7,157.6c0-0.2,0.2-0.4,0.4-0.4c0.2,0,0.4,0.2,0.4,0.4c0,0.2-0.2,0.4-0.4,0.4C69.9,158.1,69.7,157.9,69.7,157.6z
		 M69.8,158.8h0.7v4.1h-0.7V158.8z"/>
	<path d="M72.1,162v-2.6h-0.7v-0.6h0.7v-1.4l0.7-0.3v1.7h1v0.6h-1v2.4c0,0.3,0.1,0.6,0.4,0.6c0.2,0,0.4-0.1,0.6-0.2l-0.1,0.7
		c-0.2,0.1-0.5,0.2-0.8,0.2C72.3,163,72.1,162.6,72.1,162z"/>
	<path d="M74.5,162.3l0.5-0.4c0.2,0.2,0.6,0.5,1,0.5c0.4,0,0.8-0.2,0.8-0.5c0-0.4-0.5-0.6-0.9-0.8c-0.8-0.3-1.3-0.6-1.3-1.3
		c0-0.7,0.6-1.1,1.4-1.1c0.6,0,1.1,0.3,1.4,0.6l-0.5,0.4c-0.2-0.2-0.5-0.4-0.9-0.4c-0.4,0-0.7,0.2-0.7,0.5c0,0.3,0.4,0.5,0.9,0.7
		c0.7,0.3,1.3,0.6,1.3,1.4c0,0.7-0.6,1.2-1.5,1.2C75.4,163,74.9,162.7,74.5,162.3z"/>
	<path d="M78.3,160.9c0-1.4,0.7-2.1,1.8-2.1c0.9,0,1.7,0.6,1.7,1.9c0,0.1,0,0.3,0,0.5H79c0.1,0.8,0.5,1.2,1.1,1.2
		c0.3,0,0.6-0.1,0.9-0.4l0.4,0.5c-0.3,0.3-0.8,0.5-1.3,0.5C79,163,78.3,162.1,78.3,160.9z M81.1,160.5c0-0.9-0.6-1.2-1-1.2
		c-0.6,0-1.1,0.4-1.1,1.2H81.1z"/>
</g>
<g class="st1">
	<path d="M82.9,158.8h0.7v0.5c0.2-0.4,0.6-0.6,1-0.6c0.2,0,0.4,0.1,0.6,0.2l-0.1,0.7c-0.1-0.1-0.3-0.2-0.6-0.2
		c-0.4,0-0.9,0.3-0.9,1.2v2.3h-0.7V158.8z"/>
</g>
<g class="st1">
	<path d="M87,162.9h-0.7v-3.5h-0.6v-0.6h0.6v-0.7c0-0.7,0.4-0.9,0.9-0.9c0.3,0,0.6,0.1,0.8,0.2v0.6c-0.2-0.1-0.4-0.2-0.6-0.2
		c-0.3,0-0.4,0.2-0.4,0.4v0.6h1v0.6h-1V162.9z"/>
</g>
<g class="st1">
	<path d="M91,162.5c-0.3,0.3-0.7,0.5-1.2,0.5c-0.8,0-1.4-0.5-1.4-1.4c0-0.9,0.7-1.4,1.5-1.4c0.4,0,0.7,0.1,1.1,0.3v-0.3
		c0-0.7-0.4-0.9-0.9-0.9c-0.5,0-0.9,0.2-1.2,0.4l-0.2-0.6c0.3-0.2,0.9-0.4,1.5-0.4c0.6,0,1.5,0.2,1.5,1.5v2.7H91V162.5z M91,161.8
		v-0.7c-0.2-0.2-0.6-0.3-1-0.3c-0.5,0-1,0.2-1,0.8c0,0.5,0.3,0.8,0.9,0.8C90.4,162.4,90.8,162.1,91,161.8z"/>
	<path d="M92.9,157.4l0.7-0.3v2.1c0.3-0.4,0.6-0.5,1.1-0.5c0.9,0,1.5,0.5,1.5,1.8v2.4h-0.7v-2.5c0-0.8-0.4-1.1-0.9-1.1
		c-0.5,0-0.9,0.3-0.9,1.1v2.5h-0.7V157.4z"/>
</g>
<g class="st1">
	<path d="M97.5,158.8h0.7v0.5c0.2-0.4,0.6-0.6,1-0.6c0.2,0,0.4,0.1,0.6,0.2l-0.1,0.7c-0.1-0.1-0.3-0.2-0.6-0.2
		c-0.4,0-0.9,0.3-0.9,1.2v2.3h-0.7V158.8z"/>
</g>
<g class="st1">
	<path d="M103,162.5c-0.3,0.4-0.6,0.5-1,0.5c-1,0-1.5-0.5-1.5-1.8v-2.4h0.7v2.5c0,0.8,0.4,1.1,0.9,1.1c0.5,0,0.9-0.3,0.9-1.1v-2.5
		h0.7v4.1H103V162.5z"/>
	<path d="M107.5,160.4c0-0.8-0.4-1.1-0.9-1.1c-0.5,0-0.9,0.3-0.9,1.1v2.5H105v-4.1h0.7v0.4c0.3-0.4,0.6-0.5,1.1-0.5
		c0.9,0,1.5,0.5,1.5,1.8v2.4h-0.7V160.4z"/>
	<path d="M110.4,164c1.3-0.1,1.6-0.5,1.6-1v-0.5c-0.2,0.3-0.6,0.5-1.1,0.5c-0.9,0-1.7-0.7-1.7-2.1c0-1.3,0.7-2.1,1.7-2.1
		c0.6,0,0.9,0.3,1,0.4v-0.3h0.7v3.9c0,1.3-0.8,1.8-1.9,1.8L110.4,164z M112,161.8v-1.9c-0.2-0.3-0.6-0.5-0.9-0.5
		c-0.7,0-1.1,0.5-1.1,1.5c0,0.9,0.5,1.5,1.1,1.5C111.4,162.3,111.8,162.1,112,161.8z"/>
	<path d="M113.8,160.9c0-1.4,0.7-2.1,1.8-2.1c0.9,0,1.7,0.6,1.7,1.9c0,0.1,0,0.3,0,0.5h-2.8c0.1,0.8,0.5,1.2,1.1,1.2
		c0.3,0,0.6-0.1,0.9-0.4l0.4,0.5c-0.3,0.3-0.8,0.5-1.3,0.5C114.5,163,113.8,162.1,113.8,160.9z M116.6,160.5c0-0.9-0.6-1.2-1-1.2
		c-0.6,0-1.1,0.4-1.1,1.2H116.6z"/>
	<path d="M120.8,160.4c0-0.8-0.4-1.1-0.9-1.1c-0.5,0-0.9,0.3-0.9,1.1v2.5h-0.7v-4.1h0.7v0.4c0.3-0.4,0.6-0.5,1.1-0.5
		c0.9,0,1.5,0.5,1.5,1.8v2.4h-0.7V160.4z"/>
	<path d="M124.3,158.8h0.7l1,2.7c0,0.1,0.1,0.3,0.1,0.4c0-0.1,0.1-0.3,0.1-0.4l1-2.7h0.7l-1.5,4.1h-0.6L124.3,158.8z"/>
	<path d="M128.5,160.9c0-1.3,0.7-2.1,1.8-2.1c1.1,0,1.8,0.8,1.8,2.1c0,1.3-0.7,2.1-1.8,2.1C129.2,163,128.5,162.2,128.5,160.9z
		 M131.4,160.9c0-0.9-0.4-1.5-1.1-1.5c-0.7,0-1.1,0.6-1.1,1.5c0,0.9,0.4,1.5,1.1,1.5C131,162.3,131.4,161.8,131.4,160.9z"/>
	<path d="M135.7,160.4c0-0.8-0.4-1.1-0.9-1.1c-0.5,0-0.9,0.3-0.9,1.1v2.5h-0.7v-4.1h0.7v0.4c0.3-0.4,0.6-0.5,1.1-0.5
		c0.9,0,1.5,0.5,1.5,1.8v2.4h-0.7V160.4z"/>
</g>
<g class="st1">
	<path d="M8.9,174l0.6-0.3c0.2,0.4,0.5,0.6,1,0.6c0.5,0,1.1-0.2,1.1-1.3v-3.8h0.7v3.8c0,1.5-1,1.9-1.8,1.9
		C9.8,175,9.2,174.6,8.9,174z"/>
	<path d="M16.2,174.5c-0.3,0.4-0.6,0.5-1,0.5c-1,0-1.5-0.5-1.5-1.8v-2.4h0.7v2.5c0,0.8,0.4,1.1,0.9,1.1c0.5,0,0.9-0.3,0.9-1.1v-2.5
		h0.7v4.1h-0.7V174.5z"/>
	<path d="M19.2,176c1.3-0.1,1.6-0.5,1.6-1v-0.5c-0.2,0.3-0.6,0.5-1.1,0.5c-0.9,0-1.7-0.7-1.7-2.1c0-1.3,0.7-2.1,1.7-2.1
		c0.6,0,0.9,0.3,1,0.4v-0.3h0.7v3.9c0,1.3-0.8,1.8-1.9,1.8L19.2,176z M20.7,173.8v-1.9c-0.2-0.3-0.6-0.5-0.9-0.5
		c-0.7,0-1.1,0.5-1.1,1.5c0,0.9,0.5,1.5,1.1,1.5C20.2,174.3,20.5,174.1,20.7,173.8z"/>
	<path d="M22.5,172.9c0-1.4,0.7-2.1,1.8-2.1c0.9,0,1.7,0.6,1.7,1.9c0,0.1,0,0.3,0,0.5h-2.8c0.1,0.8,0.5,1.2,1.1,1.2
		c0.3,0,0.6-0.1,0.9-0.4l0.4,0.5c-0.3,0.3-0.8,0.5-1.3,0.5C23.2,175,22.5,174.1,22.5,172.9z M25.3,172.5c0-0.9-0.6-1.2-1-1.2
		c-0.6,0-1.1,0.4-1.1,1.2H25.3z"/>
	<path d="M29.6,172.4c0-0.8-0.4-1.1-0.9-1.1c-0.5,0-0.9,0.3-0.9,1.1v2.5h-0.7v-4.1h0.7v0.4c0.3-0.4,0.6-0.5,1.1-0.5
		c0.9,0,1.5,0.5,1.5,1.8v2.4h-0.7V172.4z"/>
	<path d="M31.3,172.9c0-1.3,0.7-2.1,1.7-2.1c0.5,0,0.8,0.2,1,0.4v-1.6l0.7-0.3v5.8H34v-0.3c-0.2,0.2-0.5,0.4-1,0.4
		C32,175,31.3,174.2,31.3,172.9z M34,173.8v-1.9c-0.2-0.2-0.5-0.5-0.9-0.5c-0.7,0-1.1,0.5-1.1,1.5c0,0.8,0.4,1.5,1.1,1.5
		C33.5,174.3,33.8,174.1,34,173.8z"/>
	<path d="M36.1,169.5l0.7-0.3v5.8h-0.7V169.5z"/>
	<path d="M38.1,169.6c0-0.2,0.2-0.4,0.4-0.4c0.2,0,0.4,0.2,0.4,0.4c0,0.2-0.2,0.4-0.4,0.4C38.3,170.1,38.1,169.9,38.1,169.6z
		 M38.2,170.8h0.7v4.1h-0.7V170.8z"/>
	<path d="M40,172.9c0-1.3,0.7-2.1,1.7-2.1c0.7,0,1.2,0.3,1.4,1l-0.7,0.2c-0.1-0.3-0.4-0.5-0.8-0.5c-0.7,0-1,0.6-1,1.5
		c0,0.9,0.3,1.5,1,1.5c0.4,0,0.7-0.2,0.8-0.6l0.6,0.2c-0.2,0.7-0.7,1-1.5,1C40.6,175,40,174.2,40,172.9z"/>
	<path d="M44.2,169.4l0.7-0.3v2.1c0.3-0.4,0.6-0.5,1.1-0.5c0.9,0,1.5,0.5,1.5,1.8v2.4h-0.7v-2.5c0-0.8-0.4-1.1-0.9-1.1
		c-0.5,0-0.9,0.3-0.9,1.1v2.5h-0.7V169.4z"/>
	<path d="M48.5,172.9c0-1.4,0.7-2.1,1.8-2.1c0.9,0,1.7,0.6,1.7,1.9c0,0.1,0,0.3,0,0.5h-2.8c0.1,0.8,0.5,1.2,1.1,1.2
		c0.3,0,0.6-0.1,0.9-0.4l0.4,0.5c-0.3,0.3-0.8,0.5-1.3,0.5C49.2,175,48.5,174.1,48.5,172.9z M51.3,172.5c0-0.9-0.6-1.2-1-1.2
		c-0.6,0-1.1,0.4-1.1,1.2H51.3z"/>
	<path d="M55.5,172.4c0-0.8-0.4-1.1-0.9-1.1c-0.5,0-0.9,0.3-0.9,1.1v2.5H53v-4.1h0.7v0.4c0.3-0.4,0.6-0.5,1.1-0.5
		c0.9,0,1.5,0.5,1.5,1.8v2.4h-0.7V172.4z"/>
	<path d="M59.1,172.9c0-1.4,0.7-2.1,1.8-2.1c0.9,0,1.7,0.6,1.7,1.9c0,0.1,0,0.3,0,0.5h-2.8c0.1,0.8,0.5,1.2,1.1,1.2
		c0.3,0,0.6-0.1,0.9-0.4l0.4,0.5c-0.3,0.3-0.8,0.5-1.3,0.5C59.8,175,59.1,174.1,59.1,172.9z M61.9,172.5c0-0.9-0.6-1.2-1-1.2
		c-0.6,0-1.1,0.4-1.1,1.2H61.9z"/>
	<path d="M63.6,170.8h0.7v0.5c0.2-0.4,0.6-0.6,1-0.6c0.2,0,0.4,0.1,0.6,0.2l-0.1,0.7c-0.1-0.1-0.3-0.2-0.6-0.2
		c-0.4,0-0.9,0.3-0.9,1.2v2.3h-0.7V170.8z"/>
	<path d="M66.8,169.4l0.7-0.3v2.1c0.3-0.4,0.6-0.5,1.1-0.5c0.9,0,1.5,0.5,1.5,1.8v2.4h-0.7v-2.5c0-0.8-0.4-1.1-0.9-1.1
		c-0.5,0-0.9,0.3-0.9,1.1v2.5h-0.7V169.4z"/>
	<path d="M71.1,172.9c0-1.3,0.7-2.1,1.8-2.1c1.1,0,1.8,0.8,1.8,2.1c0,1.3-0.7,2.1-1.8,2.1C71.8,175,71.1,174.2,71.1,172.9z
		 M71.7,169.7c0-0.2,0.2-0.4,0.4-0.4c0.2,0,0.4,0.2,0.4,0.4c0,0.2-0.2,0.4-0.4,0.4C71.9,170.1,71.7,169.9,71.7,169.7z M74,172.9
		c0-0.9-0.4-1.5-1.1-1.5c-0.7,0-1.1,0.6-1.1,1.5c0,0.9,0.4,1.5,1.1,1.5C73.6,174.3,74,173.8,74,172.9z M73.1,169.7
		c0-0.2,0.2-0.4,0.4-0.4c0.2,0,0.4,0.2,0.4,0.4c0,0.2-0.2,0.4-0.4,0.4C73.3,170.1,73.1,169.9,73.1,169.7z"/>
	<path d="M75.8,169.4l0.7-0.3v2.1c0.3-0.4,0.6-0.5,1.1-0.5c0.9,0,1.5,0.5,1.5,1.8v2.4h-0.7v-2.5c0-0.8-0.4-1.1-0.9-1.1
		c-0.5,0-0.9,0.3-0.9,1.1v2.5h-0.7V169.4z"/>
	<path d="M80,172.9c0-1.4,0.7-2.1,1.8-2.1c0.9,0,1.7,0.6,1.7,1.9c0,0.1,0,0.3,0,0.5h-2.8c0.1,0.8,0.5,1.2,1.1,1.2
		c0.3,0,0.6-0.1,0.9-0.4l0.4,0.5c-0.3,0.3-0.8,0.5-1.3,0.5C80.7,175,80,174.1,80,172.9z M82.8,172.5c0-0.9-0.6-1.2-1-1.2
		c-0.6,0-1.1,0.4-1.1,1.2H82.8z"/>
	<path d="M87.1,172.4c0-0.8-0.4-1.1-0.9-1.1c-0.5,0-0.9,0.3-0.9,1.1v2.5h-0.7v-4.1h0.7v0.4c0.3-0.4,0.6-0.5,1.1-0.5
		c0.9,0,1.5,0.5,1.5,1.8v2.4h-0.7V172.4z"/>
</g>
<g class="st1">
	<path d="M9.5,203.7l0.7-0.2c0.2,0.5,0.7,0.8,1.3,0.8c0.7,0,1.1-0.3,1.1-0.9c0-0.6-0.6-0.9-1.3-1.2c-0.8-0.3-1.6-0.6-1.6-1.6
		c0-0.8,0.6-1.4,1.7-1.4c0.9,0,1.5,0.4,1.6,1l-0.6,0.2c-0.1-0.3-0.5-0.6-1-0.6c-0.6,0-1,0.3-1,0.7c0,0.5,0.6,0.8,1.2,1
		c0.8,0.3,1.7,0.7,1.7,1.8c0,1-0.8,1.6-1.8,1.6C10.5,205,9.8,204.5,9.5,203.7z"/>
	<path d="M14.5,199.6c0-0.2,0.2-0.4,0.4-0.4c0.2,0,0.4,0.2,0.4,0.4c0,0.2-0.2,0.4-0.4,0.4C14.6,200.1,14.5,199.9,14.5,199.6z
		 M14.5,200.8h0.7v4.1h-0.7V200.8z"/>
	<path d="M16.3,202.9c0-1.3,0.7-2.1,1.7-2.1c0.7,0,1.2,0.3,1.4,1l-0.7,0.2c-0.1-0.3-0.4-0.5-0.8-0.5c-0.7,0-1,0.6-1,1.5
		c0,0.9,0.3,1.5,1,1.5c0.4,0,0.7-0.2,0.8-0.6l0.6,0.2c-0.2,0.7-0.7,1-1.5,1C17,205,16.3,204.2,16.3,202.9z"/>
	<path d="M20.6,199.4l0.7-0.3v2.1c0.3-0.4,0.6-0.5,1.1-0.5c0.9,0,1.5,0.5,1.5,1.8v2.4h-0.7v-2.5c0-0.8-0.4-1.1-0.9-1.1
		c-0.5,0-0.9,0.3-0.9,1.1v2.5h-0.7V199.4z"/>
	<path d="M25.3,204v-2.6h-0.7v-0.6h0.7v-1.4l0.7-0.3v1.7h1v0.6h-1v2.4c0,0.3,0.1,0.6,0.4,0.6c0.2,0,0.4-0.1,0.6-0.2l-0.1,0.7
		c-0.2,0.1-0.5,0.2-0.8,0.2C25.6,205,25.3,204.6,25.3,204z"/>
	<path d="M28.8,204.5v0.4h-0.7v-5.4l0.7-0.3v2c0.2-0.3,0.6-0.4,1-0.4c1,0,1.7,0.8,1.7,2.1c0,1.4-0.6,2.1-1.7,2.1
		C29.3,205,29,204.8,28.8,204.5z M30.8,202.9c0-1-0.4-1.5-1.1-1.5c-0.5,0-0.8,0.3-1,0.5v1.9c0.2,0.3,0.6,0.6,1,0.6
		C30.4,204.3,30.8,203.8,30.8,202.9z"/>
	<path d="M34.9,204.5c-0.3,0.3-0.7,0.5-1.2,0.5c-0.8,0-1.4-0.5-1.4-1.4c0-0.9,0.7-1.4,1.5-1.4c0.4,0,0.7,0.1,1.1,0.3v-0.3
		c0-0.7-0.4-0.9-0.9-0.9c-0.5,0-0.9,0.2-1.2,0.4l-0.2-0.6c0.3-0.2,0.9-0.4,1.5-0.4c0.6,0,1.5,0.2,1.5,1.5v2.7h-0.7V204.5z
		 M34.9,203.8v-0.7c-0.2-0.2-0.6-0.3-1-0.3c-0.5,0-1,0.2-1,0.8c0,0.5,0.3,0.8,0.9,0.8C34.3,204.4,34.7,204.1,34.9,203.8z"/>
	<path d="M36.8,200.8h0.7v0.5c0.2-0.4,0.6-0.6,1-0.6c0.2,0,0.4,0.1,0.6,0.2l-0.1,0.7c-0.1-0.1-0.3-0.2-0.6-0.2
		c-0.4,0-0.9,0.3-0.9,1.2v2.3h-0.7V200.8z"/>
</g>
<g class="st1">
	<path d="M42.5,204.9l-1.3-2.5l-0.6,0.6v1.8h-0.7v-5.4l0.7-0.3v3.1l1.3-1.4h0.8l-1.1,1.1l1.5,3H42.5z"/>
</g>
<g class="st1">
	<path d="M43.9,202.9c0-1.4,0.7-2.1,1.8-2.1c0.9,0,1.7,0.6,1.7,1.9c0,0.1,0,0.3,0,0.5h-2.8c0.1,0.8,0.5,1.2,1.1,1.2
		c0.3,0,0.6-0.1,0.9-0.4l0.4,0.5c-0.3,0.3-0.8,0.5-1.3,0.5C44.6,205,43.9,204.1,43.9,202.9z M46.7,202.5c0-0.9-0.6-1.2-1-1.2
		c-0.6,0-1.1,0.4-1.1,1.2H46.7z"/>
	<path d="M48.3,199.6c0-0.2,0.2-0.4,0.4-0.4c0.2,0,0.4,0.2,0.4,0.4c0,0.2-0.2,0.4-0.4,0.4C48.5,200.1,48.3,199.9,48.3,199.6z
		 M48.4,200.8h0.7v4.1h-0.7V200.8z"/>
	<path d="M50.7,204v-2.6H50v-0.6h0.7v-1.4l0.7-0.3v1.7h1v0.6h-1v2.4c0,0.3,0.1,0.6,0.4,0.6c0.2,0,0.4-0.1,0.6-0.2l-0.1,0.7
		c-0.2,0.1-0.5,0.2-0.8,0.2C50.9,205,50.7,204.6,50.7,204z"/>
	<path d="M56.2,204.9h-0.7v-3.5h-0.6v-0.6h0.6v-0.7c0-0.7,0.4-0.9,0.9-0.9c0.3,0,0.6,0.1,0.8,0.2v0.6c-0.2-0.1-0.4-0.2-0.6-0.2
		c-0.3,0-0.4,0.2-0.4,0.4v0.6h1v0.6h-1V204.9z"/>
	<path d="M60.4,204.5c-0.3,0.4-0.6,0.5-1,0.5c-1,0-1.5-0.5-1.5-1.8v-2.4h0.7v2.5c0,0.8,0.4,1.1,0.9,1.1c0.5,0,0.9-0.3,0.9-1.1v-2.5
		h0.7v4.1h-0.7V204.5z M58.3,199.7c0-0.2,0.2-0.4,0.4-0.4c0.2,0,0.4,0.2,0.4,0.4c0,0.2-0.2,0.4-0.4,0.4
		C58.5,200.1,58.3,199.9,58.3,199.7z M59.7,199.7c0-0.2,0.2-0.4,0.4-0.4c0.2,0,0.4,0.2,0.4,0.4c0,0.2-0.2,0.4-0.4,0.4
		C59.9,200.1,59.7,199.9,59.7,199.7z"/>
	<path d="M62.4,200.8h0.7v0.5c0.2-0.4,0.6-0.6,1-0.6c0.2,0,0.4,0.1,0.6,0.2l-0.1,0.7c-0.1-0.1-0.3-0.2-0.6-0.2
		c-0.4,0-0.9,0.3-0.9,1.2v2.3h-0.7V200.8z"/>
	<path d="M67.2,202.9c0-1.3,0.7-2.1,1.7-2.1c0.5,0,0.8,0.2,1,0.4v-1.6l0.7-0.3v5.8h-0.7v-0.3c-0.2,0.2-0.5,0.4-1,0.4
		C67.8,205,67.2,204.2,67.2,202.9z M69.9,203.8v-1.9c-0.2-0.2-0.5-0.5-0.9-0.5c-0.7,0-1.1,0.5-1.1,1.5c0,0.8,0.4,1.5,1.1,1.5
		C69.4,204.3,69.7,204.1,69.9,203.8z"/>
	<path d="M71.9,199.6c0-0.2,0.2-0.4,0.4-0.4c0.2,0,0.4,0.2,0.4,0.4c0,0.2-0.2,0.4-0.4,0.4C72,200.1,71.9,199.9,71.9,199.6z
		 M71.9,200.8h0.7v4.1h-0.7V200.8z"/>
	<path d="M73.7,202.9c0-1.4,0.7-2.1,1.8-2.1c0.9,0,1.7,0.6,1.7,1.9c0,0.1,0,0.3,0,0.5h-2.8c0.1,0.8,0.5,1.2,1.1,1.2
		c0.3,0,0.6-0.1,0.9-0.4l0.4,0.5c-0.3,0.3-0.8,0.5-1.3,0.5C74.4,205,73.7,204.1,73.7,202.9z M76.5,202.5c0-0.9-0.6-1.2-1-1.2
		c-0.6,0-1.1,0.4-1.1,1.2H76.5z"/>
	<path d="M82.2,199.3c1.3,0,1.7,0.7,1.7,1.5c0,0.5-0.3,0.9-0.8,1.2c0.6,0.2,1,0.7,1,1.3c0,0.8-0.4,1.6-1.8,1.6h-2.1v-5.6H82.2z
		 M83.3,200.8c0-0.4-0.2-0.9-1-0.9h-1.3v1.7h1.2C82.9,201.7,83.3,201.3,83.3,200.8z M83.5,203.3c0-0.5-0.3-1-1.3-1h-1.2v2h1.5
		C83.2,204.3,83.5,203.8,83.5,203.3z"/>
	<path d="M85.1,202.9c0-1.4,0.7-2.1,1.8-2.1c0.9,0,1.7,0.6,1.7,1.9c0,0.1,0,0.3,0,0.5h-2.8c0.1,0.8,0.5,1.2,1.1,1.2
		c0.3,0,0.6-0.1,0.9-0.4l0.4,0.5c-0.3,0.3-0.8,0.5-1.3,0.5C85.8,205,85.1,204.1,85.1,202.9z M87.9,202.5c0-0.9-0.6-1.2-1-1.2
		c-0.6,0-1.1,0.4-1.1,1.2H87.9z"/>
	<path d="M89.4,202.9c0-1.3,0.7-2.1,1.7-2.1c0.5,0,0.8,0.2,1,0.4v-1.6l0.7-0.3v5.8h-0.7v-0.3c-0.2,0.2-0.5,0.4-1,0.4
		C90.1,205,89.4,204.2,89.4,202.9z M92.1,203.8v-1.9c-0.2-0.2-0.5-0.5-0.9-0.5c-0.7,0-1.1,0.5-1.1,1.5c0,0.8,0.4,1.5,1.1,1.5
		C91.6,204.3,91.9,204.1,92.1,203.8z"/>
	<path d="M96.6,204.5c-0.3,0.4-0.6,0.5-1,0.5c-1,0-1.5-0.5-1.5-1.8v-2.4h0.7v2.5c0,0.8,0.4,1.1,0.9,1.1c0.5,0,0.9-0.3,0.9-1.1v-2.5
		h0.7v4.1h-0.7V204.5z M94.6,199.7c0-0.2,0.2-0.4,0.4-0.4c0.2,0,0.4,0.2,0.4,0.4c0,0.2-0.2,0.4-0.4,0.4
		C94.8,200.1,94.6,199.9,94.6,199.7z M95.9,199.7c0-0.2,0.2-0.4,0.4-0.4c0.2,0,0.4,0.2,0.4,0.4c0,0.2-0.2,0.4-0.4,0.4
		C96.1,200.1,95.9,199.9,95.9,199.7z"/>
</g>
<g class="st1">
	<path d="M98.6,200.8h0.7v0.5c0.2-0.4,0.6-0.6,1-0.6c0.2,0,0.4,0.1,0.6,0.2l-0.1,0.7c-0.1-0.1-0.3-0.2-0.6-0.2
		c-0.4,0-0.9,0.3-0.9,1.2v2.3h-0.7V200.8z"/>
</g>
<g class="st1">
	<path d="M102.7,204.9H102v-3.5h-0.6v-0.6h0.6v-0.7c0-0.7,0.4-0.9,0.9-0.9c0.3,0,0.6,0.1,0.8,0.2v0.6c-0.2-0.1-0.4-0.2-0.6-0.2
		c-0.3,0-0.4,0.2-0.4,0.4v0.6h1v0.6h-1V204.9z"/>
	<path d="M107,202.4c0-0.8-0.4-1.1-0.9-1.1c-0.5,0-0.9,0.3-0.9,1.1v2.5h-0.7v-4.1h0.7v0.4c0.3-0.4,0.6-0.5,1.1-0.5
		c0.9,0,1.5,0.5,1.5,1.8v2.4H107V202.4z"/>
	<path d="M108.9,199.6c0-0.2,0.2-0.4,0.4-0.4c0.2,0,0.4,0.2,0.4,0.4c0,0.2-0.2,0.4-0.4,0.4C109.1,200.1,108.9,199.9,108.9,199.6z
		 M109,200.8h0.7v4.1H109V200.8z"/>
	<path d="M110.7,204.3l0.5-0.4c0.2,0.2,0.6,0.5,1,0.5c0.4,0,0.8-0.2,0.8-0.5c0-0.4-0.5-0.6-0.9-0.8c-0.8-0.3-1.3-0.6-1.3-1.3
		c0-0.7,0.6-1.1,1.4-1.1c0.6,0,1.1,0.3,1.4,0.6l-0.5,0.4c-0.2-0.2-0.5-0.4-0.9-0.4c-0.4,0-0.7,0.2-0.7,0.5c0,0.3,0.4,0.5,0.9,0.7
		c0.7,0.3,1.3,0.6,1.3,1.4c0,0.7-0.6,1.2-1.5,1.2C111.6,205,111.1,204.7,110.7,204.3z"/>
	<path d="M114.5,204.3l0.5-0.4c0.2,0.2,0.6,0.5,1,0.5c0.4,0,0.8-0.2,0.8-0.5c0-0.4-0.5-0.6-0.9-0.8c-0.8-0.3-1.3-0.6-1.3-1.3
		c0-0.7,0.6-1.1,1.4-1.1c0.6,0,1.1,0.3,1.4,0.6l-0.5,0.4c-0.2-0.2-0.5-0.4-0.9-0.4c-0.4,0-0.7,0.2-0.7,0.5c0,0.3,0.4,0.5,0.9,0.7
		c0.7,0.3,1.3,0.6,1.3,1.4c0,0.7-0.6,1.2-1.5,1.2C115.4,205,114.8,204.7,114.5,204.3z"/>
	<path d="M118.3,202.9c0-1.4,0.7-2.1,1.8-2.1c0.9,0,1.7,0.6,1.7,1.9c0,0.1,0,0.3,0,0.5H119c0.1,0.8,0.5,1.2,1.1,1.2
		c0.3,0,0.6-0.1,0.9-0.4l0.4,0.5c-0.3,0.3-0.8,0.5-1.3,0.5C119,205,118.3,204.1,118.3,202.9z M121.1,202.5c0-0.9-0.6-1.2-1-1.2
		c-0.6,0-1.1,0.4-1.1,1.2H121.1z"/>
	<path d="M127.1,204.5c-0.3,0.4-0.6,0.5-1,0.5c-1,0-1.5-0.5-1.5-1.8v-2.4h0.7v2.5c0,0.8,0.4,1.1,0.9,1.1c0.5,0,0.9-0.3,0.9-1.1v-2.5
		h0.7v4.1h-0.7V204.5z"/>
	<path d="M131.7,202.4c0-0.8-0.4-1.1-0.9-1.1c-0.5,0-0.9,0.3-0.9,1.1v2.5h-0.7v-4.1h0.7v0.4c0.3-0.4,0.6-0.5,1.1-0.5
		c0.9,0,1.5,0.5,1.5,1.8v2.4h-0.7V202.4z"/>
	<path d="M133.4,202.9c0-1.3,0.7-2.1,1.7-2.1c0.5,0,0.8,0.2,1,0.4v-1.6l0.7-0.3v5.8h-0.7v-0.3c-0.2,0.2-0.5,0.4-1,0.4
		C134.1,205,133.4,204.2,133.4,202.9z M136.1,203.8v-1.9c-0.2-0.2-0.5-0.5-0.9-0.5c-0.7,0-1.1,0.5-1.1,1.5c0,0.8,0.4,1.5,1.1,1.5
		C135.6,204.3,135.9,204.1,136.1,203.8z"/>
</g>
<g class="st1">
	<path d="M10.2,211.3h0.7v5.6h-0.7V211.3z"/>
	<path d="M14.9,214.4c0-0.8-0.4-1.1-0.9-1.1c-0.5,0-0.9,0.3-0.9,1.1v2.5h-0.7v-4.1h0.7v0.4c0.3-0.4,0.6-0.5,1.1-0.5
		c0.9,0,1.5,0.5,1.5,1.8v2.4h-0.7V214.4z"/>
</g>
<g class="st1">
	<path d="M17.1,216v-2.6h-0.7v-0.6h0.7v-1.4l0.7-0.3v1.7h1v0.6h-1v2.4c0,0.3,0.1,0.6,0.4,0.6c0.2,0,0.4-0.1,0.6-0.2l-0.1,0.7
		c-0.2,0.1-0.5,0.2-0.8,0.2C17.4,217,17.1,216.6,17.1,216z"/>
</g>
<g class="st1">
	<path d="M19.6,214.9c0-1.4,0.7-2.1,1.8-2.1c0.9,0,1.7,0.6,1.7,1.9c0,0.1,0,0.3,0,0.5h-2.8c0.1,0.8,0.5,1.2,1.1,1.2
		c0.3,0,0.6-0.1,0.9-0.4l0.4,0.5c-0.3,0.3-0.8,0.5-1.3,0.5C20.2,217,19.6,216.1,19.6,214.9z M22.4,214.5c0-0.9-0.6-1.2-1-1.2
		c-0.6,0-1.1,0.4-1.1,1.2H22.4z"/>
	<path d="M24.1,212.8h0.7v0.5c0.2-0.4,0.6-0.6,1-0.6c0.2,0,0.4,0.1,0.6,0.2l-0.1,0.7c-0.1-0.1-0.3-0.2-0.6-0.2
		c-0.4,0-0.9,0.3-0.9,1.2v2.3h-0.7V212.8z"/>
	<path d="M27,214.9c0-1.4,0.7-2.1,1.8-2.1c0.9,0,1.7,0.6,1.7,1.9c0,0.1,0,0.3,0,0.5h-2.8c0.1,0.8,0.5,1.2,1.1,1.2
		c0.3,0,0.6-0.1,0.9-0.4l0.4,0.5c-0.3,0.3-0.8,0.5-1.3,0.5C27.7,217,27,216.1,27,214.9z M29.8,214.5c0-0.9-0.6-1.2-1-1.2
		c-0.6,0-1.1,0.4-1.1,1.2H29.8z"/>
	<path d="M31.3,216.3l0.5-0.4c0.2,0.2,0.6,0.5,1,0.5c0.4,0,0.8-0.2,0.8-0.5c0-0.4-0.5-0.6-0.9-0.8c-0.8-0.3-1.3-0.6-1.3-1.3
		c0-0.7,0.6-1.1,1.4-1.1c0.6,0,1.1,0.3,1.4,0.6l-0.5,0.4c-0.2-0.2-0.5-0.4-0.9-0.4c-0.4,0-0.7,0.2-0.7,0.5c0,0.3,0.4,0.5,0.9,0.7
		c0.7,0.3,1.3,0.6,1.3,1.4c0,0.7-0.6,1.2-1.5,1.2C32.2,217,31.6,216.7,31.3,216.3z"/>
	<path d="M35,216.3l0.5-0.4c0.2,0.2,0.6,0.5,1,0.5c0.4,0,0.8-0.2,0.8-0.5c0-0.4-0.5-0.6-0.9-0.8c-0.8-0.3-1.3-0.6-1.3-1.3
		c0-0.7,0.6-1.1,1.4-1.1c0.6,0,1.1,0.3,1.4,0.6l-0.5,0.4c-0.2-0.2-0.5-0.4-0.9-0.4c-0.4,0-0.7,0.2-0.7,0.5c0,0.3,0.4,0.5,0.9,0.7
		c0.7,0.3,1.3,0.6,1.3,1.4c0,0.7-0.6,1.2-1.5,1.2C35.9,217,35.4,216.7,35,216.3z"/>
	<path d="M38.8,214.9c0-1.4,0.7-2.1,1.8-2.1c0.9,0,1.7,0.6,1.7,1.9c0,0.1,0,0.3,0,0.5h-2.8c0.1,0.8,0.5,1.2,1.1,1.2
		c0.3,0,0.6-0.1,0.9-0.4l0.4,0.5c-0.3,0.3-0.8,0.5-1.3,0.5C39.5,217,38.8,216.1,38.8,214.9z M41.6,214.5c0-0.9-0.6-1.2-1-1.2
		c-0.6,0-1.1,0.4-1.1,1.2H41.6z"/>
	<path d="M45.9,214.4c0-0.8-0.4-1.1-0.9-1.1c-0.5,0-0.9,0.3-0.9,1.1v2.5h-0.7v-4.1h0.7v0.4c0.3-0.4,0.6-0.5,1.1-0.5
		c0.9,0,1.5,0.5,1.5,1.8v2.4h-0.7V214.4z"/>
	<path d="M49.5,214.9c0-1.3,0.7-2.1,1.7-2.1c0.5,0,0.8,0.2,1,0.4v-1.6l0.7-0.3v5.8h-0.7v-0.3c-0.2,0.2-0.5,0.4-1,0.4
		C50.1,217,49.5,216.2,49.5,214.9z M52.2,215.8v-1.9c-0.2-0.2-0.5-0.5-0.9-0.5c-0.7,0-1.1,0.5-1.1,1.5c0,0.8,0.4,1.5,1.1,1.5
		C51.6,216.3,52,216.1,52.2,215.8z"/>
	<path d="M54,214.9c0-1.4,0.7-2.1,1.8-2.1c0.9,0,1.7,0.6,1.7,1.9c0,0.1,0,0.3,0,0.5h-2.8c0.1,0.8,0.5,1.2,1.1,1.2
		c0.3,0,0.6-0.1,0.9-0.4l0.4,0.5c-0.3,0.3-0.8,0.5-1.3,0.5C54.7,217,54,216.1,54,214.9z M56.8,214.5c0-0.9-0.6-1.2-1-1.2
		c-0.6,0-1.1,0.4-1.1,1.2H56.8z"/>
	<path d="M58.5,212.8h0.7v0.5c0.2-0.4,0.6-0.6,1-0.6c0.2,0,0.4,0.1,0.6,0.2l-0.1,0.7c-0.1-0.1-0.3-0.2-0.6-0.2
		c-0.4,0-0.9,0.3-0.9,1.2v2.3h-0.7V212.8z"/>
	<path d="M63.1,216l0.6-0.3c0.2,0.4,0.5,0.6,1,0.6c0.5,0,1.1-0.2,1.1-1.3v-3.8h0.7v3.8c0,1.5-1,1.9-1.8,1.9
		C63.9,217,63.4,216.6,63.1,216z"/>
	<path d="M70.4,216.5c-0.3,0.4-0.6,0.5-1,0.5c-1,0-1.5-0.5-1.5-1.8v-2.4h0.7v2.5c0,0.8,0.4,1.1,0.9,1.1c0.5,0,0.9-0.3,0.9-1.1v-2.5
		h0.7v4.1h-0.7V216.5z"/>
	<path d="M73.3,218c1.3-0.1,1.6-0.5,1.6-1v-0.5c-0.2,0.3-0.6,0.5-1.1,0.5c-0.9,0-1.7-0.7-1.7-2.1c0-1.3,0.7-2.1,1.7-2.1
		c0.6,0,0.9,0.3,1,0.4v-0.3h0.7v3.9c0,1.3-0.8,1.8-1.9,1.8L73.3,218z M74.9,215.8v-1.9c-0.2-0.3-0.6-0.5-0.9-0.5
		c-0.7,0-1.1,0.5-1.1,1.5c0,0.9,0.5,1.5,1.1,1.5C74.3,216.3,74.7,216.1,74.9,215.8z"/>
	<path d="M76.6,214.9c0-1.4,0.7-2.1,1.8-2.1c0.9,0,1.7,0.6,1.7,1.9c0,0.1,0,0.3,0,0.5h-2.8c0.1,0.8,0.5,1.2,1.1,1.2
		c0.3,0,0.6-0.1,0.9-0.4l0.4,0.5c-0.3,0.3-0.8,0.5-1.3,0.5C77.3,217,76.6,216.1,76.6,214.9z M79.4,214.5c0-0.9-0.6-1.2-1-1.2
		c-0.6,0-1.1,0.4-1.1,1.2H79.4z"/>
	<path d="M83.7,214.4c0-0.8-0.4-1.1-0.9-1.1c-0.5,0-0.9,0.3-0.9,1.1v2.5h-0.7v-4.1h0.7v0.4c0.3-0.4,0.6-0.5,1.1-0.5
		c0.9,0,1.5,0.5,1.5,1.8v2.4h-0.7V214.4z"/>
	<path d="M85.5,214.9c0-1.3,0.7-2.1,1.7-2.1c0.5,0,0.8,0.2,1,0.4v-1.6l0.7-0.3v5.8h-0.7v-0.3c-0.2,0.2-0.5,0.4-1,0.4
		C86.1,217,85.5,216.2,85.5,214.9z M88.2,215.8v-1.9c-0.2-0.2-0.5-0.5-0.9-0.5c-0.7,0-1.1,0.5-1.1,1.5c0,0.8,0.4,1.5,1.1,1.5
		C87.6,216.3,88,216.1,88.2,215.8z"/>
	<path d="M90.2,211.5l0.7-0.3v5.8h-0.7V211.5z"/>
	<path d="M92.2,211.6c0-0.2,0.2-0.4,0.4-0.4c0.2,0,0.4,0.2,0.4,0.4c0,0.2-0.2,0.4-0.4,0.4C92.4,212.1,92.2,211.9,92.2,211.6z
		 M92.3,212.8H93v4.1h-0.7V212.8z"/>
	<path d="M94.1,214.9c0-1.3,0.7-2.1,1.7-2.1c0.7,0,1.2,0.3,1.4,1l-0.7,0.2c-0.1-0.3-0.4-0.5-0.8-0.5c-0.7,0-1,0.6-1,1.5
		c0,0.9,0.3,1.5,1,1.5c0.4,0,0.7-0.2,0.8-0.6l0.6,0.2c-0.2,0.7-0.7,1-1.5,1C94.7,217,94.1,216.2,94.1,214.9z"/>
	<path d="M98.3,211.4l0.7-0.3v2.1c0.3-0.4,0.6-0.5,1.1-0.5c0.9,0,1.5,0.5,1.5,1.8v2.4h-0.7v-2.5c0-0.8-0.4-1.1-0.9-1.1
		c-0.5,0-0.9,0.3-0.9,1.1v2.5h-0.7V211.4z"/>
	<path d="M102.6,214.9c0-1.4,0.7-2.1,1.8-2.1c0.9,0,1.7,0.6,1.7,1.9c0,0.1,0,0.3,0,0.5h-2.8c0.1,0.8,0.5,1.2,1.1,1.2
		c0.3,0,0.6-0.1,0.9-0.4l0.4,0.5c-0.3,0.3-0.8,0.5-1.3,0.5C103.3,217,102.6,216.1,102.6,214.9z M105.4,214.5c0-0.9-0.6-1.2-1-1.2
		c-0.6,0-1.1,0.4-1.1,1.2H105.4z"/>
	<path d="M109.6,214.4c0-0.8-0.4-1.1-0.9-1.1c-0.5,0-0.9,0.3-0.9,1.1v2.5h-0.7v-4.1h0.7v0.4c0.3-0.4,0.6-0.5,1.1-0.5
		c0.9,0,1.5,0.5,1.5,1.8v2.4h-0.7V214.4z"/>
	<path d="M113.2,214.9c0-1.4,0.7-2.1,1.8-2.1c0.9,0,1.7,0.6,1.7,1.9c0,0.1,0,0.3,0,0.5h-2.8c0.1,0.8,0.5,1.2,1.1,1.2
		c0.3,0,0.6-0.1,0.9-0.4l0.4,0.5c-0.3,0.3-0.8,0.5-1.3,0.5C113.9,217,113.2,216.1,113.2,214.9z M116,214.5c0-0.9-0.6-1.2-1-1.2
		c-0.6,0-1.1,0.4-1.1,1.2H116z"/>
	<path d="M117.8,212.8h0.7v0.5c0.2-0.4,0.6-0.6,1-0.6c0.2,0,0.4,0.1,0.6,0.2l-0.1,0.7c-0.1-0.1-0.3-0.2-0.6-0.2
		c-0.4,0-0.9,0.3-0.9,1.2v2.3h-0.7V212.8z"/>
	<path d="M120.8,216.4l2.1-3h-2v-0.6h2.8v0.5l-2.1,3h2.1v0.6h-3V216.4z"/>
	<path d="M124.7,214.9c0-1.4,0.7-2.1,1.8-2.1c0.9,0,1.7,0.6,1.7,1.9c0,0.1,0,0.3,0,0.5h-2.8c0.1,0.8,0.5,1.2,1.1,1.2
		c0.3,0,0.6-0.1,0.9-0.4l0.4,0.5c-0.3,0.3-0.8,0.5-1.3,0.5C125.4,217,124.7,216.1,124.7,214.9z M127.5,214.5c0-0.9-0.6-1.2-1-1.2
		c-0.6,0-1.1,0.4-1.1,1.2H127.5z"/>
	<path d="M131.8,216.5c-0.3,0.4-0.6,0.5-1,0.5c-1,0-1.5-0.5-1.5-1.8v-2.4h0.7v2.5c0,0.8,0.4,1.1,0.9,1.1c0.5,0,0.9-0.3,0.9-1.1v-2.5
		h0.7v4.1h-0.7V216.5z"/>
	<path d="M134.7,218c1.3-0.1,1.6-0.5,1.6-1v-0.5c-0.2,0.3-0.6,0.5-1.1,0.5c-0.9,0-1.7-0.7-1.7-2.1c0-1.3,0.7-2.1,1.7-2.1
		c0.6,0,0.9,0.3,1,0.4v-0.3h0.7v3.9c0,1.3-0.8,1.8-1.9,1.8L134.7,218z M136.3,215.8v-1.9c-0.2-0.3-0.6-0.5-0.9-0.5
		c-0.7,0-1.1,0.5-1.1,1.5c0,0.9,0.5,1.5,1.1,1.5C135.7,216.3,136.1,216.1,136.3,215.8z"/>
	<path d="M138,214.9c0-1.4,0.7-2.1,1.8-2.1c0.9,0,1.7,0.6,1.7,1.9c0,0.1,0,0.3,0,0.5h-2.8c0.1,0.8,0.5,1.2,1.1,1.2
		c0.3,0,0.6-0.1,0.9-0.4l0.4,0.5c-0.3,0.3-0.8,0.5-1.3,0.5C138.7,217,138,216.1,138,214.9z M140.8,214.5c0-0.9-0.6-1.2-1-1.2
		c-0.6,0-1.1,0.4-1.1,1.2H140.8z"/>
	<path d="M145.1,214.4c0-0.8-0.4-1.1-0.9-1.1c-0.5,0-0.9,0.3-0.9,1.1v2.5h-0.7v-4.1h0.7v0.4c0.3-0.4,0.6-0.5,1.1-0.5
		c0.9,0,1.5,0.5,1.5,1.8v2.4h-0.7V214.4z"/>
</g>
<g class="st1">
	<path d="M9.1,247.3h0.7l1.3,4c0,0.2,0.1,0.4,0.2,0.6c0-0.2,0.1-0.4,0.2-0.6l1.3-4h0.7l-1.9,5.6H11L9.1,247.3z"/>
</g>
<g class="st1">
	<path d="M13.8,250.9c0-1.4,0.7-2.1,1.8-2.1c0.9,0,1.7,0.6,1.7,1.9c0,0.1,0,0.3,0,0.5h-2.8c0.1,0.8,0.5,1.2,1.1,1.2
		c0.3,0,0.6-0.1,0.9-0.4l0.4,0.5c-0.3,0.3-0.8,0.5-1.3,0.5C14.5,253,13.8,252.1,13.8,250.9z M16.6,250.5c0-0.9-0.6-1.2-1-1.2
		c-0.6,0-1.1,0.4-1.1,1.2H16.6z"/>
	<path d="M18.3,248.8H19v0.5c0.2-0.4,0.6-0.6,1-0.6c0.2,0,0.4,0.1,0.6,0.2l-0.1,0.7c-0.1-0.1-0.3-0.2-0.6-0.2
		c-0.4,0-0.9,0.3-0.9,1.2v2.3h-0.7V248.8z"/>
	<path d="M24,250.4c0-0.8-0.4-1.1-0.9-1.1c-0.5,0-0.9,0.3-0.9,1.1v2.5h-0.7v-4.1h0.7v0.4c0.3-0.4,0.6-0.5,1.1-0.5
		c0.9,0,1.5,0.5,1.5,1.8v2.4H24V250.4z"/>
</g>
<g class="st1">
	<path d="M25.8,250.9c0-1.4,0.7-2.1,1.8-2.1c0.9,0,1.7,0.6,1.7,1.9c0,0.1,0,0.3,0,0.5h-2.8c0.1,0.8,0.5,1.2,1.1,1.2
		c0.3,0,0.6-0.1,0.9-0.4l0.4,0.5c-0.3,0.3-0.8,0.5-1.3,0.5C26.5,253,25.8,252.1,25.8,250.9z M28.6,250.5c0-0.9-0.6-1.2-1-1.2
		c-0.6,0-1.1,0.4-1.1,1.2H28.6z"/>
</g>
<g class="st1">
	<path d="M30.4,252v-2.6h-0.7v-0.6h0.7v-1.4l0.7-0.3v1.7h1v0.6h-1v2.4c0,0.3,0.1,0.6,0.4,0.6c0.2,0,0.4-0.1,0.6-0.2l-0.1,0.7
		c-0.2,0.1-0.5,0.2-0.8,0.2C30.7,253,30.4,252.6,30.4,252z"/>
	<path d="M33,252.4l2.1-3h-2v-0.6H36v0.5l-2.1,3H36v0.6h-3V252.4z"/>
	<path d="M39.7,252.5c-0.3,0.4-0.6,0.5-1,0.5c-1,0-1.5-0.5-1.5-1.8v-2.4h0.7v2.5c0,0.8,0.4,1.1,0.9,1.1c0.5,0,0.9-0.3,0.9-1.1v-2.5
		h0.7v4.1h-0.7V252.5z"/>
	<path d="M44.3,250.4c0-0.8-0.4-1.1-0.9-1.1c-0.5,0-0.9,0.3-0.9,1.1v2.5h-0.7v-4.1h0.7v0.4c0.3-0.4,0.6-0.5,1.1-0.5
		c0.9,0,1.5,0.5,1.5,1.8v2.4h-0.7V250.4z"/>
	<path d="M47.2,254c1.3-0.1,1.6-0.5,1.6-1v-0.5c-0.2,0.3-0.6,0.5-1.1,0.5c-0.9,0-1.7-0.7-1.7-2.1c0-1.3,0.7-2.1,1.7-2.1
		c0.6,0,0.9,0.3,1,0.4v-0.3h0.7v3.9c0,1.3-0.8,1.8-1.9,1.8L47.2,254z M48.7,251.8v-1.9c-0.2-0.3-0.6-0.5-0.9-0.5
		c-0.7,0-1.1,0.5-1.1,1.5c0,0.9,0.5,1.5,1.1,1.5C48.2,252.3,48.5,252.1,48.7,251.8z"/>
	<path d="M52.3,250.9c0-1.3,0.7-2.1,1.7-2.1c0.5,0,0.8,0.2,1,0.4v-1.6l0.7-0.3v5.8h-0.7v-0.3c-0.2,0.2-0.5,0.4-1,0.4
		C53,253,52.3,252.2,52.3,250.9z M55.1,251.8v-1.9c-0.2-0.2-0.5-0.5-0.9-0.5c-0.7,0-1.1,0.5-1.1,1.5c0,0.8,0.4,1.5,1.1,1.5
		C54.5,252.3,54.9,252.1,55.1,251.8z"/>
	<path d="M56.8,250.9c0-1.4,0.7-2.1,1.8-2.1c0.9,0,1.7,0.6,1.7,1.9c0,0.1,0,0.3,0,0.5h-2.8c0.1,0.8,0.5,1.2,1.1,1.2
		c0.3,0,0.6-0.1,0.9-0.4l0.4,0.5c-0.3,0.3-0.8,0.5-1.3,0.5C57.5,253,56.8,252.1,56.8,250.9z M59.6,250.5c0-0.9-0.6-1.2-1-1.2
		c-0.6,0-1.1,0.4-1.1,1.2H59.6z"/>
	<path d="M61.4,248.8h0.7v0.5c0.2-0.4,0.6-0.6,1-0.6c0.2,0,0.4,0.1,0.6,0.2l-0.1,0.7c-0.1-0.1-0.3-0.2-0.6-0.2
		c-0.4,0-0.9,0.3-0.9,1.2v2.3h-0.7V248.8z"/>
	<path d="M65.9,252l0.6-0.3c0.2,0.4,0.5,0.6,1,0.6c0.5,0,1.1-0.2,1.1-1.3v-3.8h0.7v3.8c0,1.5-1,1.9-1.8,1.9
		C66.8,253,66.2,252.6,65.9,252z"/>
	<path d="M73.2,252.5c-0.3,0.4-0.6,0.5-1,0.5c-1,0-1.5-0.5-1.5-1.8v-2.4h0.7v2.5c0,0.8,0.4,1.1,0.9,1.1c0.5,0,0.9-0.3,0.9-1.1v-2.5
		h0.7v4.1h-0.7V252.5z"/>
	<path d="M76.2,254c1.3-0.1,1.6-0.5,1.6-1v-0.5c-0.2,0.3-0.6,0.5-1.1,0.5c-0.9,0-1.7-0.7-1.7-2.1c0-1.3,0.7-2.1,1.7-2.1
		c0.6,0,0.9,0.3,1,0.4v-0.3h0.7v3.9c0,1.3-0.8,1.8-1.9,1.8L76.2,254z M77.7,251.8v-1.9c-0.2-0.3-0.6-0.5-0.9-0.5
		c-0.7,0-1.1,0.5-1.1,1.5c0,0.9,0.5,1.5,1.1,1.5C77.2,252.3,77.5,252.1,77.7,251.8z"/>
	<path d="M79.5,250.9c0-1.4,0.7-2.1,1.8-2.1c0.9,0,1.7,0.6,1.7,1.9c0,0.1,0,0.3,0,0.5h-2.8c0.1,0.8,0.5,1.2,1.1,1.2
		c0.3,0,0.6-0.1,0.9-0.4l0.4,0.5c-0.3,0.3-0.8,0.5-1.3,0.5C80.2,253,79.5,252.1,79.5,250.9z M82.3,250.5c0-0.9-0.6-1.2-1-1.2
		c-0.6,0-1.1,0.4-1.1,1.2H82.3z"/>
	<path d="M86.6,250.4c0-0.8-0.4-1.1-0.9-1.1c-0.5,0-0.9,0.3-0.9,1.1v2.5h-0.7v-4.1h0.7v0.4c0.3-0.4,0.6-0.5,1.1-0.5
		c0.9,0,1.5,0.5,1.5,1.8v2.4h-0.7V250.4z"/>
	<path d="M88.3,250.9c0-1.3,0.7-2.1,1.7-2.1c0.5,0,0.8,0.2,1,0.4v-1.6l0.7-0.3v5.8H91v-0.3c-0.2,0.2-0.5,0.4-1,0.4
		C89,253,88.3,252.2,88.3,250.9z M91,251.8v-1.9c-0.2-0.2-0.5-0.5-0.9-0.5c-0.7,0-1.1,0.5-1.1,1.5c0,0.8,0.4,1.5,1.1,1.5
		C90.5,252.3,90.8,252.1,91,251.8z"/>
	<path d="M92.8,250.9c0-1.3,0.7-2.1,1.8-2.1c1.1,0,1.8,0.8,1.8,2.1c0,1.3-0.7,2.1-1.8,2.1C93.5,253,92.8,252.2,92.8,250.9z
		 M95.7,250.9c0-0.9-0.4-1.5-1.1-1.5c-0.7,0-1.1,0.6-1.1,1.5c0,0.9,0.4,1.5,1.1,1.5C95.3,252.3,95.7,251.8,95.7,250.9z"/>
	<path d="M97.5,248.8h0.7v0.5c0.2-0.4,0.6-0.6,1-0.6c0.2,0,0.4,0.1,0.6,0.2l-0.1,0.7c-0.1-0.1-0.3-0.2-0.6-0.2
		c-0.4,0-0.9,0.3-0.9,1.2v2.3h-0.7V248.8z"/>
	<path d="M101.6,254c1.3-0.1,1.6-0.5,1.6-1v-0.5c-0.2,0.3-0.6,0.5-1.1,0.5c-0.9,0-1.7-0.7-1.7-2.1c0-1.3,0.7-2.1,1.7-2.1
		c0.6,0,0.9,0.3,1,0.4v-0.3h0.7v3.9c0,1.3-0.8,1.8-1.9,1.8L101.6,254z M103.2,251.8v-1.9c-0.2-0.3-0.6-0.5-0.9-0.5
		c-0.7,0-1.1,0.5-1.1,1.5c0,0.9,0.5,1.5,1.1,1.5C102.6,252.3,103,252.1,103.2,251.8z"/>
	<path d="M107.5,252.5c-0.3,0.3-0.7,0.5-1.2,0.5c-0.8,0-1.4-0.5-1.4-1.4c0-0.9,0.7-1.4,1.5-1.4c0.4,0,0.7,0.1,1.1,0.3v-0.3
		c0-0.7-0.4-0.9-0.9-0.9c-0.5,0-0.9,0.2-1.2,0.4l-0.2-0.6c0.3-0.2,0.9-0.4,1.5-0.4c0.6,0,1.5,0.2,1.5,1.5v2.7h-0.7V252.5z
		 M107.5,251.8v-0.7c-0.2-0.2-0.6-0.3-1-0.3c-0.5,0-1,0.2-1,0.8c0,0.5,0.3,0.8,0.9,0.8C106.9,252.4,107.3,252.1,107.5,251.8z"/>
	<path d="M111.9,250.4c0-0.8-0.4-1.1-0.9-1.1c-0.5,0-0.9,0.3-0.9,1.1v2.5h-0.7v-4.1h0.7v0.4c0.3-0.4,0.6-0.5,1.1-0.5
		c0.9,0,1.5,0.5,1.5,1.8v2.4h-0.7V250.4z"/>
	<path d="M113.8,247.6c0-0.2,0.2-0.4,0.4-0.4c0.2,0,0.4,0.2,0.4,0.4c0,0.2-0.2,0.4-0.4,0.4C114,248.1,113.8,247.9,113.8,247.6z
		 M113.9,248.8h0.7v4.1h-0.7V248.8z"/>
	<path d="M115.7,252.3l0.5-0.4c0.2,0.2,0.6,0.5,1,0.5c0.4,0,0.8-0.2,0.8-0.5c0-0.4-0.5-0.6-0.9-0.8c-0.8-0.3-1.3-0.6-1.3-1.3
		c0-0.7,0.6-1.1,1.4-1.1c0.6,0,1.1,0.3,1.4,0.6l-0.5,0.4c-0.2-0.2-0.5-0.4-0.9-0.4c-0.4,0-0.7,0.2-0.7,0.5c0,0.3,0.4,0.5,0.9,0.7
		c0.7,0.3,1.3,0.6,1.3,1.4c0,0.7-0.6,1.2-1.5,1.2C116.5,253,116,252.7,115.7,252.3z"/>
	<path d="M122,252.5c-0.3,0.3-0.7,0.5-1.2,0.5c-0.8,0-1.4-0.5-1.4-1.4c0-0.9,0.7-1.4,1.5-1.4c0.4,0,0.7,0.1,1.1,0.3v-0.3
		c0-0.7-0.4-0.9-0.9-0.9c-0.5,0-0.9,0.2-1.2,0.4l-0.2-0.6c0.3-0.2,0.9-0.4,1.5-0.4c0.6,0,1.5,0.2,1.5,1.5v2.7H122V252.5z M122,251.8
		v-0.7c-0.2-0.2-0.6-0.3-1-0.3c-0.5,0-1,0.2-1,0.8c0,0.5,0.3,0.8,0.9,0.8C121.4,252.4,121.8,252.1,122,251.8z"/>
	<path d="M124.1,252v-2.6h-0.7v-0.6h0.7v-1.4l0.7-0.3v1.7h1v0.6h-1v2.4c0,0.3,0.1,0.6,0.4,0.6c0.2,0,0.4-0.1,0.6-0.2l-0.1,0.7
		c-0.2,0.1-0.5,0.2-0.8,0.2C124.4,253,124.1,252.6,124.1,252z"/>
	<path d="M126.8,247.6c0-0.2,0.2-0.4,0.4-0.4c0.2,0,0.4,0.2,0.4,0.4c0,0.2-0.2,0.4-0.4,0.4C127,248.1,126.8,247.9,126.8,247.6z
		 M126.9,248.8h0.7v4.1h-0.7V248.8z"/>
	<path d="M128.7,250.9c0-1.3,0.7-2.1,1.8-2.1c1.1,0,1.8,0.8,1.8,2.1c0,1.3-0.7,2.1-1.8,2.1C129.4,253,128.7,252.2,128.7,250.9z
		 M131.6,250.9c0-0.9-0.4-1.5-1.1-1.5c-0.7,0-1.1,0.6-1.1,1.5c0,0.9,0.4,1.5,1.1,1.5C131.2,252.3,131.6,251.8,131.6,250.9z"/>
	<path d="M135.9,250.4c0-0.8-0.4-1.1-0.9-1.1c-0.5,0-0.9,0.3-0.9,1.1v2.5h-0.7v-4.1h0.7v0.4c0.3-0.4,0.6-0.5,1.1-0.5
		c0.9,0,1.5,0.5,1.5,1.8v2.4h-0.7V250.4z"/>
	<path d="M137.6,250.9c0-1.4,0.7-2.1,1.8-2.1c0.9,0,1.7,0.6,1.7,1.9c0,0.1,0,0.3,0,0.5h-2.8c0.1,0.8,0.5,1.2,1.1,1.2
		c0.3,0,0.6-0.1,0.9-0.4l0.4,0.5c-0.3,0.3-0.8,0.5-1.3,0.5C138.3,253,137.6,252.1,137.6,250.9z M140.4,250.5c0-0.9-0.6-1.2-1-1.2
		c-0.6,0-1.1,0.4-1.1,1.2H140.4z"/>
	<path d="M144.7,250.4c0-0.8-0.4-1.1-0.9-1.1c-0.5,0-0.9,0.3-0.9,1.1v2.5h-0.7v-4.1h0.7v0.4c0.3-0.4,0.6-0.5,1.1-0.5
		c0.9,0,1.5,0.5,1.5,1.8v2.4h-0.7V250.4z"/>
</g>
<g class="st1">
	<path d="M11.7,264.5c-0.3,0.4-0.6,0.5-1,0.5c-1,0-1.5-0.5-1.5-1.8v-2.4h0.7v2.5c0,0.8,0.4,1.1,0.9,1.1c0.5,0,0.9-0.3,0.9-1.1v-2.5
		h0.7v4.1h-0.7V264.5z"/>
	<path d="M16.3,262.4c0-0.8-0.4-1.1-0.9-1.1c-0.5,0-0.9,0.3-0.9,1.1v2.5h-0.7v-4.1h0.7v0.4c0.3-0.4,0.6-0.5,1.1-0.5
		c0.9,0,1.5,0.5,1.5,1.8v2.4h-0.7V262.4z"/>
</g>
<g class="st1">
	<path d="M18.5,264v-2.6h-0.7v-0.6h0.7v-1.4l0.7-0.3v1.7h1v0.6h-1v2.4c0,0.3,0.1,0.6,0.4,0.6c0.2,0,0.4-0.1,0.6-0.2l-0.1,0.7
		c-0.2,0.1-0.5,0.2-0.8,0.2C18.8,265,18.5,264.6,18.5,264z"/>
</g>
<g class="st1">
	<path d="M21,262.9c0-1.4,0.7-2.1,1.8-2.1c0.9,0,1.7,0.6,1.7,1.9c0,0.1,0,0.3,0,0.5h-2.8c0.1,0.8,0.5,1.2,1.1,1.2
		c0.3,0,0.6-0.1,0.9-0.4l0.4,0.5c-0.3,0.3-0.8,0.5-1.3,0.5C21.6,265,21,264.1,21,262.9z M23.8,262.5c0-0.9-0.6-1.2-1-1.2
		c-0.6,0-1.1,0.4-1.1,1.2H23.8z"/>
	<path d="M25.5,260.8h0.7v0.5c0.2-0.4,0.6-0.6,1-0.6c0.2,0,0.4,0.1,0.6,0.2l-0.1,0.7c-0.1-0.1-0.3-0.2-0.6-0.2
		c-0.4,0-0.9,0.3-0.9,1.2v2.3h-0.7V260.8z"/>
	<path d="M28.4,262.9c0-1.4,0.7-2.1,1.8-2.1c0.9,0,1.7,0.6,1.7,1.9c0,0.1,0,0.3,0,0.5h-2.8c0.1,0.8,0.5,1.2,1.1,1.2
		c0.3,0,0.6-0.1,0.9-0.4l0.4,0.5c-0.3,0.3-0.8,0.5-1.3,0.5C29.1,265,28.4,264.1,28.4,262.9z M31.2,262.5c0-0.9-0.6-1.2-1-1.2
		c-0.6,0-1.1,0.4-1.1,1.2H31.2z"/>
	<path d="M32.9,259.6c0-0.2,0.2-0.4,0.4-0.4c0.2,0,0.4,0.2,0.4,0.4c0,0.2-0.2,0.4-0.4,0.4C33.1,260.1,32.9,259.9,32.9,259.6z
		 M33,260.8h0.7v4.1H33V260.8z"/>
	<path d="M37.5,262.4c0-0.8-0.4-1.1-0.9-1.1c-0.5,0-0.9,0.3-0.9,1.1v2.5H35v-4.1h0.7v0.4c0.3-0.4,0.6-0.5,1.1-0.5
		c0.9,0,1.5,0.5,1.5,1.8v2.4h-0.7V262.4z"/>
	<path d="M41.8,264.5c-0.3,0.3-0.7,0.5-1.2,0.5c-0.8,0-1.4-0.5-1.4-1.4c0-0.9,0.7-1.4,1.5-1.4c0.4,0,0.7,0.1,1.1,0.3v-0.3
		c0-0.7-0.4-0.9-0.9-0.9c-0.5,0-0.9,0.2-1.2,0.4l-0.2-0.6c0.3-0.2,0.9-0.4,1.5-0.4c0.6,0,1.5,0.2,1.5,1.5v2.7h-0.7V264.5z
		 M41.8,263.8v-0.7c-0.2-0.2-0.6-0.3-1-0.3c-0.5,0-1,0.2-1,0.8c0,0.5,0.3,0.8,0.9,0.8C41.2,264.4,41.6,264.1,41.8,263.8z"/>
	<path d="M46.2,262.4c0-0.8-0.4-1.1-0.9-1.1c-0.5,0-0.9,0.3-0.9,1.1v2.5h-0.7v-4.1h0.7v0.4c0.3-0.4,0.6-0.5,1.1-0.5
		c0.9,0,1.5,0.5,1.5,1.8v2.4h-0.7V262.4z"/>
	<path d="M48,262.9c0-1.3,0.7-2.1,1.7-2.1c0.5,0,0.8,0.2,1,0.4v-1.6l0.7-0.3v5.8h-0.7v-0.3c-0.2,0.2-0.5,0.4-1,0.4
		C48.6,265,48,264.2,48,262.9z M50.7,263.8v-1.9c-0.2-0.2-0.5-0.5-0.9-0.5c-0.7,0-1.1,0.5-1.1,1.5c0,0.8,0.4,1.5,1.1,1.5
		C50.1,264.3,50.5,264.1,50.7,263.8z"/>
	<path d="M52.5,262.9c0-1.4,0.7-2.1,1.8-2.1c0.9,0,1.7,0.6,1.7,1.9c0,0.1,0,0.3,0,0.5h-2.8c0.1,0.8,0.5,1.2,1.1,1.2
		c0.3,0,0.6-0.1,0.9-0.4l0.4,0.5c-0.3,0.3-0.8,0.5-1.3,0.5C53.2,265,52.5,264.1,52.5,262.9z M55.3,262.5c0-0.9-0.6-1.2-1-1.2
		c-0.6,0-1.1,0.4-1.1,1.2H55.3z"/>
	<path d="M57,260.8h0.7v0.5c0.2-0.4,0.6-0.6,1-0.6c0.2,0,0.4,0.1,0.6,0.2l-0.1,0.7c-0.1-0.1-0.3-0.2-0.6-0.2c-0.4,0-0.9,0.3-0.9,1.2
		v2.3H57V260.8z"/>
</g>
<line class="st0" x1="0" y1="22.5" x2="357.2" y2="22.5"/>
<line class="st0" x1="0" y1="64" x2="357.2" y2="64"/>
<line class="st0" x1="0" y1="106" x2="357.2" y2="106"/>
<line class="st0" x1="0.7" y1="147.7" x2="357.2" y2="147.7"/>
<line class="st0" x1="0" y1="190.7" x2="357.2" y2="190.7"/>
<line class="st0" x1="0" y1="238.3" x2="357.2" y2="238.3"/>
<line class="st0" x1="0" y1="280.6" x2="357.2" y2="280.6"/>
<rect x="184.4" y="28.1" width="5.8" height="6.5"/>
<rect x="184.6" y="36.4" class="st0" width="5.3" height="6"/>
<rect x="184.6" y="44.5" class="st3" width="122.8" height="6"/>
<rect x="184.4" y="52.3" class="st4" width="157.9" height="6.5"/>
<rect x="184.4" y="69.6" width="5.8" height="6.5"/>
<rect x="184.6" y="78" class="st0" width="135.4" height="6"/>
<rect x="184.6" y="86.1" class="st3" width="105.4" height="6"/>
<rect x="184.4" y="93.9" class="st4" width="53.1" height="6.5"/>
<rect x="184" y="111.6" width="5.8" height="6.5"/>
<rect x="184.3" y="119.9" class="st0" width="40.4" height="6"/>
<rect x="184.3" y="128" class="st3" width="117.4" height="6"/>
<rect x="184" y="135.8" class="st4" width="134.9" height="6.5"/>
<rect x="184" y="153.6" width="11.9" height="6.5"/>
<rect x="184.3" y="161.9" class="st0" width="75.8" height="6"/>
<rect x="184.3" y="170" class="st3" width="140.9" height="6"/>
<rect x="184" y="177.8" class="st4" width="71.2" height="6.5"/>
<rect x="184" y="244.2" width="6.5" height="6.5"/>
<rect x="184.3" y="252.5" class="st0" width="28.8" height="6"/>
<rect x="184.3" y="260.6" class="st3" width="162.9" height="6"/>
<rect x="184" y="268.4" class="st4" width="94.7" height="6.5"/>
<rect x="184" y="195.6" width="11.9" height="6.5"/>
<rect x="184.3" y="211.3" class="st3" width="154.3" height="6"/>
<rect x="184" y="219.2" class="st4" width="129.4" height="6.5"/>
<g class="st1">
	<path d="M342.6,288.2c0-0.8-0.4-1.1-0.9-1.1c-0.5,0-0.9,0.3-0.9,1.1v2.5h-0.7v-4.1h0.7v0.4c0.3-0.4,0.6-0.5,1.1-0.5
		c0.9,0,1.5,0.5,1.5,1.8v2.4h-0.7V288.2z"/>
	<path d="M344.6,286.9h3.8v0.7h-3.8V286.9z M344.6,288.4h3.8v0.7h-3.8V288.4z"/>
	<path d="M349.6,290.2l0.4-0.5c0.3,0.3,0.7,0.5,1.4,0.5c0.8,0,1.4-0.6,1.4-1.3c0-0.7-0.5-1.2-1.1-1.2c-0.5,0-0.9,0.2-1.1,0.5
		l-0.7-0.2l0.3-2.8h3v0.6h-2.4l-0.2,1.7c0.3-0.2,0.7-0.4,1.2-0.4c1.1,0,1.8,0.8,1.8,1.8c0,1.1-0.8,1.9-2.1,1.9
		C350.5,290.8,349.9,290.5,349.6,290.2z"/>
</g>
<g class="st1">
	<path d="M355.5,286.3h-0.9v-0.5c0.6,0,1-0.2,1.1-0.7h0.5v5.6h-0.7V286.3z"/>
</g>
<g class="st1">
	<path d="M355.9,29.7h-0.7v-0.4c0.4,0,0.7-0.1,0.8-0.5h0.4v4.2h-0.5V29.7z"/>
</g>
<g class="st1">
	<path d="M355.9,38h-0.7v-0.4c0.4,0,0.7-0.1,0.8-0.5h0.4v4.2h-0.5V38z"/>
</g>
<g class="st1">
	<path d="M353.1,47.6c0.4-0.3,0.9-0.5,0.9-1c0-0.4-0.3-0.7-0.8-0.7c-0.5,0-0.8,0.2-0.9,0.6l-0.5-0.2c0.2-0.5,0.7-0.9,1.4-0.9
		c0.8,0,1.3,0.5,1.3,1.2c0,0.7-0.5,1.1-1.2,1.5c-0.5,0.3-0.9,0.6-1,1.1h2.2v0.5h-2.8C351.7,48.6,352.4,48,353.1,47.6z"/>
	<path d="M355.9,46.3h-0.7V46c0.4,0,0.7-0.1,0.8-0.5h0.4v4.2h-0.5V46.3z"/>
</g>
<g class="st1">
	<path d="M351.6,55.9c0.4-0.3,0.9-0.5,0.9-1c0-0.4-0.3-0.7-0.8-0.7c-0.5,0-0.8,0.2-0.9,0.6l-0.5-0.2c0.2-0.5,0.7-0.9,1.4-0.9
		c0.8,0,1.3,0.5,1.3,1.2c0,0.7-0.5,1.1-1.2,1.5c-0.5,0.3-0.9,0.6-1,1.1h2.2V58h-2.8C350.2,56.9,350.9,56.3,351.6,55.9z"/>
	<path d="M353.9,56.8c0-0.5,0.3-0.9,0.7-1.1c-0.3-0.2-0.5-0.5-0.5-0.9c0-0.6,0.5-1.1,1.2-1.1c0.7,0,1.2,0.5,1.2,1.1
		c0,0.4-0.2,0.7-0.5,0.9c0.4,0.2,0.7,0.6,0.7,1.1c0,0.7-0.6,1.3-1.4,1.3C354.5,58,353.9,57.5,353.9,56.8z M356.2,56.7
		c0-0.5-0.4-0.8-0.9-0.8s-0.9,0.4-0.9,0.8c0,0.5,0.4,0.8,0.9,0.8C355.8,57.5,356.2,57.2,356.2,56.7z M356,54.8
		c0-0.4-0.3-0.6-0.7-0.6c-0.4,0-0.7,0.3-0.7,0.6c0,0.3,0.3,0.6,0.7,0.6C355.7,55.5,356,55.2,356,54.8z"/>
</g>
<g class="st1">
	<path d="M355.9,71.5h-0.7v-0.4c0.4,0,0.7-0.1,0.8-0.5h0.4v4.2h-0.5V71.5z"/>
</g>
<g class="st1">
	<path d="M351.7,81.1c0.4-0.3,0.9-0.5,0.9-1c0-0.4-0.3-0.7-0.8-0.7c-0.5,0-0.8,0.2-0.9,0.6l-0.5-0.2c0.2-0.5,0.7-0.9,1.4-0.9
		c0.8,0,1.3,0.5,1.3,1.2c0,0.7-0.5,1.1-1.2,1.5c-0.5,0.3-0.9,0.6-1,1.1h2.2v0.5h-2.8C350.3,82,351,81.5,351.7,81.1z"/>
	<path d="M353.9,82.2l0.5-0.2c0.2,0.5,0.5,0.7,0.9,0.7c0.5,0,0.9-0.2,0.9-0.8c0-0.4-0.3-0.8-0.9-0.8H355v-0.5h0.3
		c0.4,0,0.7-0.3,0.7-0.7c0-0.4-0.3-0.7-0.7-0.7c-0.5,0-0.7,0.3-0.8,0.6l-0.5-0.2c0.2-0.5,0.6-0.9,1.3-0.9c0.7,0,1.3,0.5,1.3,1.1
		c0,0.4-0.2,0.7-0.5,0.9c0.4,0.2,0.7,0.5,0.7,1c0,0.8-0.6,1.3-1.4,1.3C354.5,83.2,354.1,82.8,353.9,82.2z"/>
</g>
<g class="st1">
	<path d="M352.2,88.1h-0.7v-0.4c0.4,0,0.7-0.1,0.8-0.5h0.4v4.2h-0.5V88.1z"/>
	<path d="M353.9,90.2c0-0.5,0.3-0.9,0.7-1.1c-0.3-0.2-0.5-0.5-0.5-0.9c0-0.6,0.5-1.1,1.2-1.1c0.7,0,1.2,0.5,1.2,1.1
		c0,0.4-0.2,0.7-0.5,0.9c0.4,0.2,0.7,0.6,0.7,1.1c0,0.7-0.6,1.3-1.4,1.3C354.5,91.5,353.9,90.9,353.9,90.2z M356.2,90.2
		c0-0.5-0.4-0.8-0.9-0.8s-0.9,0.4-0.9,0.8c0,0.5,0.4,0.8,0.9,0.8S356.2,90.7,356.2,90.2z M356,88.3c0-0.4-0.3-0.6-0.7-0.6
		c-0.4,0-0.7,0.3-0.7,0.6c0,0.3,0.3,0.6,0.7,0.6S356,88.6,356,88.3z"/>
</g>
<g class="st1">
	<path d="M354.6,99.3c0.7-0.1,1.4-0.7,1.5-1.5c-0.2,0.2-0.5,0.4-0.9,0.4c-0.7,0-1.3-0.6-1.3-1.3c0-0.8,0.6-1.4,1.4-1.4
		c1,0,1.4,0.7,1.4,1.6c0,1.4-0.8,2.5-2.1,2.7V99.3z M356.2,96.8c0-0.5-0.4-0.8-0.9-0.8c-0.5,0-0.9,0.4-0.9,0.8
		c0,0.5,0.3,0.9,0.9,0.9C355.9,97.6,356.2,97.3,356.2,96.8z"/>
</g>
<g class="st1">
	<path d="M355.9,114.7h-0.7v-0.4c0.4,0,0.7-0.1,0.8-0.5h0.4v4.2h-0.5V114.7z"/>
</g>
<g class="st1">
	<path d="M356.3,122.6h-2.1v-0.5h2.7v0.5c-1.1,1.2-1.3,2.7-1.3,3.7h-0.5C355.1,125,355.4,123.8,356.3,122.6z"/>
</g>
<g class="st1">
	<path d="M351.5,132.6c0.4-0.3,0.9-0.5,0.9-1c0-0.4-0.3-0.7-0.8-0.7c-0.5,0-0.8,0.2-0.9,0.6l-0.5-0.2c0.2-0.5,0.7-0.9,1.4-0.9
		c0.8,0,1.3,0.5,1.3,1.2c0,0.7-0.5,1.1-1.2,1.5c-0.5,0.3-0.9,0.6-1,1.1h2.2v0.5h-2.8C350.1,133.5,350.8,133,351.5,132.6z"/>
	<path d="M353.8,132.5c0-0.9,0.3-2.2,1.5-2.2c1.1,0,1.5,1.1,1.5,2.2c0,0.9-0.3,2.2-1.5,2.2C354.1,134.7,353.8,133.6,353.8,132.5z
		 M356.2,132.5c0-0.8-0.2-1.7-0.9-1.7c-0.8,0-0.9,0.9-0.9,1.7c0,0.8,0.2,1.7,0.9,1.7C356,134.2,356.2,133.3,356.2,132.5z"/>
</g>
<g class="st1">
	<path d="M351.7,140.9c0.4-0.3,0.9-0.5,0.9-1c0-0.4-0.3-0.7-0.8-0.7c-0.5,0-0.8,0.2-0.9,0.6l-0.5-0.2c0.2-0.5,0.7-0.9,1.4-0.9
		c0.8,0,1.3,0.5,1.3,1.2c0,0.7-0.5,1.1-1.2,1.5c-0.5,0.3-0.9,0.6-1,1.1h2.2v0.5h-2.8C350.3,141.8,351,141.3,351.7,140.9z"/>
	<path d="M353.9,142l0.5-0.2c0.2,0.5,0.5,0.7,0.9,0.7c0.5,0,0.9-0.2,0.9-0.8c0-0.4-0.3-0.8-0.9-0.8H355v-0.5h0.3
		c0.4,0,0.7-0.3,0.7-0.7c0-0.4-0.3-0.7-0.7-0.7c-0.5,0-0.7,0.3-0.8,0.6l-0.5-0.2c0.2-0.5,0.6-0.9,1.3-0.9c0.7,0,1.3,0.5,1.3,1.1
		c0,0.4-0.2,0.7-0.5,0.9c0.4,0.2,0.7,0.5,0.7,1c0,0.8-0.6,1.3-1.4,1.3C354.5,143,354.1,142.6,353.9,142z"/>
</g>
<g class="st1">
	<path d="M355.3,156.4c0.4-0.3,0.9-0.5,0.9-1c0-0.4-0.3-0.7-0.8-0.7c-0.5,0-0.8,0.2-0.9,0.6l-0.5-0.2c0.2-0.5,0.7-0.9,1.4-0.9
		c0.8,0,1.3,0.5,1.3,1.2c0,0.7-0.5,1.1-1.2,1.5c-0.5,0.3-0.9,0.6-1,1.1h2.2v0.5h-2.8C353.9,157.3,354.6,156.8,355.3,156.4z"/>
</g>
<g class="st1">
	<path d="M352.3,163.4h-0.7V163c0.4,0,0.7-0.1,0.8-0.5h0.4v4.2h-0.5V163.4z"/>
	<path d="M353.9,165.8l0.5-0.2c0.2,0.5,0.5,0.7,0.9,0.7c0.5,0,0.9-0.2,0.9-0.8c0-0.4-0.3-0.8-0.9-0.8H355v-0.5h0.3
		c0.4,0,0.7-0.3,0.7-0.7c0-0.4-0.3-0.7-0.7-0.7c-0.5,0-0.7,0.3-0.8,0.6l-0.5-0.2c0.2-0.5,0.6-0.9,1.3-0.9c0.7,0,1.3,0.5,1.3,1.1
		c0,0.4-0.2,0.7-0.5,0.9c0.4,0.2,0.7,0.5,0.7,1c0,0.8-0.6,1.3-1.4,1.3C354.5,166.8,354.1,166.4,353.9,165.8z"/>
</g>
<g class="st1">
	<path d="M351.6,173c0.4-0.3,0.9-0.5,0.9-1c0-0.4-0.3-0.7-0.8-0.7c-0.5,0-0.8,0.2-0.9,0.6l-0.5-0.2c0.2-0.5,0.7-0.9,1.4-0.9
		c0.8,0,1.3,0.5,1.3,1.2c0,0.7-0.5,1.1-1.2,1.5c-0.5,0.3-0.9,0.6-1,1.1h2.2v0.5h-2.8C350.2,173.9,350.9,173.4,351.6,173z"/>
</g>
<g class="st1">
	<path d="M355.7,174h-2.1v-0.3l2.2-2.8h0.5v2.7h0.6v0.5h-0.6v1h-0.5V174z M355.7,171.6l-1.5,1.9h1.5V171.6z"/>
</g>
<g class="st1">
	<path d="M352.2,180h-0.7v-0.4c0.4,0,0.7-0.1,0.8-0.5h0.4v4.2h-0.5V180z"/>
	<path d="M355.3,181.3c0.4-0.3,0.9-0.5,0.9-1c0-0.4-0.3-0.7-0.8-0.7c-0.5,0-0.8,0.2-0.9,0.6l-0.5-0.2c0.2-0.5,0.7-0.9,1.4-0.9
		c0.8,0,1.3,0.5,1.3,1.2c0,0.7-0.5,1.1-1.2,1.5c-0.5,0.3-0.9,0.6-1,1.1h2.2v0.5h-2.8C353.9,182.2,354.6,181.7,355.3,181.3z"/>
</g>
<g class="st1">
	<path d="M355.3,198.9c0.4-0.3,0.9-0.5,0.9-1c0-0.4-0.3-0.7-0.8-0.7c-0.5,0-0.8,0.2-0.9,0.6l-0.5-0.2c0.2-0.5,0.7-0.9,1.4-0.9
		c0.8,0,1.3,0.5,1.3,1.2c0,0.7-0.5,1.1-1.2,1.5c-0.5,0.3-0.9,0.6-1,1.1h2.2v0.5h-2.8C353.9,199.8,354.6,199.3,355.3,198.9z"/>
</g>
<g class="st1">
	<path d="M353.8,207.1c0-0.9,0.3-2.2,1.5-2.2c1.1,0,1.5,1.1,1.5,2.2c0,0.9-0.3,2.2-1.5,2.2C354.1,209.3,353.8,208.2,353.8,207.1z
		 M356.2,207.1c0-0.8-0.2-1.7-0.9-1.7c-0.8,0-0.9,0.9-0.9,1.7c0,0.8,0.2,1.7,0.9,1.7C356,208.8,356.2,207.9,356.2,207.1z"/>
</g>
<g class="st1">
	<path d="M352.2,215.5c0.4-0.3,0.9-0.5,0.9-1c0-0.4-0.3-0.7-0.8-0.7c-0.5,0-0.8,0.2-0.9,0.6l-0.5-0.2c0.2-0.5,0.7-0.9,1.4-0.9
		c0.8,0,1.3,0.5,1.3,1.2c0,0.7-0.5,1.1-1.2,1.5c-0.5,0.3-0.9,0.6-1,1.1h2.2v0.5h-2.8C350.8,216.4,351.5,215.9,352.2,215.5z"/>
	<path d="M356.3,213.8h-2.1v-0.5h2.7v0.5c-1.1,1.2-1.3,2.7-1.3,3.7h-0.5C355.1,216.2,355.4,215,356.3,213.8z"/>
</g>
<g class="st1">
	<path d="M351.6,223.8c0.4-0.3,0.9-0.5,0.9-1c0-0.4-0.3-0.7-0.8-0.7c-0.5,0-0.8,0.2-0.9,0.6l-0.5-0.2c0.2-0.5,0.7-0.9,1.4-0.9
		c0.8,0,1.3,0.5,1.3,1.2c0,0.7-0.5,1.1-1.2,1.5c-0.5,0.3-0.9,0.6-1,1.1h2.2v0.5h-2.8C350.2,224.7,350.9,224.2,351.6,223.8z"/>
	<path d="M355.3,223.8c0.4-0.3,0.9-0.5,0.9-1c0-0.4-0.3-0.7-0.8-0.7c-0.5,0-0.8,0.2-0.9,0.6l-0.5-0.2c0.2-0.5,0.7-0.9,1.4-0.9
		c0.8,0,1.3,0.5,1.3,1.2c0,0.7-0.5,1.1-1.2,1.5c-0.5,0.3-0.9,0.6-1,1.1h2.2v0.5h-2.8C353.9,224.7,354.6,224.2,355.3,223.8z"/>
</g>
<g class="st1">
	<path d="M355.9,245.8h-0.7v-0.4c0.4,0,0.7-0.1,0.8-0.5h0.4v4.2h-0.5V245.8z"/>
</g>
<g class="st1">
	<path d="M353.8,257l0.3-0.4c0.2,0.2,0.5,0.4,1,0.4c0.6,0,1-0.4,1-0.9c0-0.5-0.3-0.9-0.9-0.9c-0.4,0-0.7,0.2-0.8,0.3l-0.5-0.2
		l0.2-2.1h2.2v0.5h-1.8l-0.2,1.3c0.2-0.2,0.5-0.3,0.9-0.3c0.8,0,1.3,0.6,1.3,1.3c0,0.8-0.6,1.5-1.6,1.5
		C354.5,257.5,354,257.3,353.8,257z"/>
</g>
<g class="st1">
	<path d="M351.7,263.7c0.4-0.3,0.9-0.5,0.9-1c0-0.4-0.3-0.7-0.8-0.7c-0.5,0-0.8,0.2-0.9,0.6l-0.5-0.2c0.2-0.5,0.7-0.9,1.4-0.9
		c0.8,0,1.3,0.5,1.3,1.2c0,0.7-0.5,1.1-1.2,1.5c-0.5,0.3-0.9,0.6-1,1.1h2.2v0.5h-2.8C350.3,264.6,351,264.1,351.7,263.7z"/>
	<path d="M354.6,265.3c0.7-0.1,1.4-0.7,1.5-1.5c-0.2,0.2-0.5,0.4-0.9,0.4c-0.7,0-1.3-0.6-1.3-1.3c0-0.8,0.6-1.4,1.4-1.4
		c1,0,1.4,0.7,1.4,1.6c0,1.4-0.8,2.5-2.1,2.7V265.3z M356.2,262.8c0-0.5-0.4-0.8-0.9-0.8c-0.5,0-0.9,0.4-0.9,0.8
		c0,0.5,0.3,0.9,0.9,0.9C355.9,263.7,356.2,263.3,356.2,262.8z"/>
</g>
<g class="st1">
	<path d="M352.3,270.7h-0.7v-0.4c0.4,0,0.7-0.1,0.8-0.5h0.4v4.2h-0.5V270.7z"/>
	<path d="M354,272.5c0-1.3,0.8-2.4,2.2-2.7v0.5c-0.7,0.2-1.4,0.8-1.6,1.5c0.2-0.2,0.5-0.3,0.9-0.3c0.7,0,1.3,0.6,1.3,1.3
		c0,0.8-0.6,1.4-1.4,1.4C354.4,274.1,354,273.4,354,272.5z M356.3,272.8c0-0.5-0.4-0.9-0.9-0.9c-0.5,0-0.9,0.3-0.9,0.9
		c0,0.5,0.4,0.9,0.9,0.9C355.9,273.6,356.3,273.3,356.3,272.8z"/>
</g>
<rect x="184" y="203.4" width="0.5" height="6.5"/>
</svg>
