<?xml version="1.0" encoding="utf-8"?>
<!-- Generator: Adobe Illustrator 21.0.0, SVG Export Plug-In . SVG Version: 6.00 Build 0)  -->
<svg version="1.1" id="Layer_1" xmlns="http://www.w3.org/2000/svg" xmlns:xlink="http://www.w3.org/1999/xlink" x="0px" y="0px"
	 viewBox="0 0 365.1 404.3" style="enable-background:new 0 0 365.1 404.3;" xml:space="preserve">
<style type="text/css">
	.st0{font-family:'Overpass-SemiBold';}
	.st1{font-size:8px;}
	.st2{fill:#FFFFFF;}
	.st3{fill:none;stroke:#000000;stroke-width:0.75;}
	.st4{fill:#0000FF;}
	.st5{font-family:'Overpass-Regular';}
</style>
<text transform="matrix(1 0 0 1 -0.3752 62.1689)" class="st0 st1">Citizen Science (Bürger*innen b</text>
<text transform="matrix(1 0 0 1 115.5248 62.1689)" class="st0 st1">et</text>
<text transform="matrix(1 0 0 1 122.8248 62.1689)" class="st0 st1">eiligen sich an der Forschung) </text>
<rect y="39.5" class="st2" width="125.5" height="12"/>
<rect y="39.5" class="st3" width="125.5" height="12"/>
<rect x="125.3" y="39.5" class="st4" width="231.1" height="12"/>
<rect x="125.3" y="39.5" class="st3" width="231.1" height="12"/>
<text transform="matrix(1 0 0 1 2.8846 48.1187)" class="st5 st1">18</text>
<text transform="matrix(1 0 0 1 343.0203 48.1187)" class="st2 st5 st1">3</text>
<text transform="matrix(1 0 0 1 347.6203 48.1187)" class="st2 st5 st1">3</text>
<text transform="matrix(1 0 0 1 -0.3698 94.7163)" class="st0 st1">Cro</text>
<text transform="matrix(1 0 0 1 12.6302 94.7163)" class="st0 st1">w</text>
<text transform="matrix(1 0 0 1 18.3302 94.7163)" class="st0 st1">dsourcing </text>
<text transform="matrix(1 0 0 1 55.9302 94.7163)" class="st0 st1">(</text>
<text transform="matrix(1 0 0 1 58.5302 94.7163)" class="st0 st1">A</text>
<text transform="matrix(1 0 0 1 64.0302 94.7163)" class="st0 st1">ufgaben an Freiwillige auslagern) </text>
<rect y="71.3" class="st2" width="216.2" height="12"/>
<rect y="71.3" class="st3" width="216.2" height="12"/>
<rect x="215.4" y="71.3" class="st4" width="141" height="12"/>
<rect x="215.4" y="71.3" class="st3" width="141" height="12"/>
<text transform="matrix(1 0 0 1 2.8846 80.4053)" class="st5 st1">31</text>
<text transform="matrix(1 0 0 1 342.3724 80.4053)" class="st2 st5 st1">20</text>
<text transform="matrix(1 0 0 1 -0.3776 126.2109)" class="st0 st1">Cro</text>
<text transform="matrix(1 0 0 1 12.6224 126.2109)" class="st0 st1">w</text>
<text transform="matrix(1 0 0 1 18.3224 126.2109)" class="st0 st1">dfunding (Proje</text>
<text transform="matrix(1 0 0 1 73.9224 126.2109)" class="st0 st1">kt</text>
<text transform="matrix(1 0 0 1 81.2224 126.2109)" class="st0 st1">e gemeinsam ﬁnanzieren) </text>
<rect y="103.4" class="st2" width="335" height="12"/>
<rect y="103.4" class="st3" width="335" height="12"/>
<rect x="334.2" y="103.4" class="st4" width="22.3" height="12"/>
<rect x="334.2" y="103.4" class="st3" width="22.3" height="12"/>
<text transform="matrix(1 0 0 1 2.8846 112.1533)" class="st5 st1">4</text>
<text transform="matrix(1 0 0 1 7.7846 112.1533)" class="st5 st1">8</text>
<text transform="matrix(1 0 0 1 347.5643 112.1533)" class="st2 st5 st1">3</text>
<text transform="matrix(1 0 0 1 -0.3776 158.9268)" class="st0 st1">Ers</text>
<text transform="matrix(1 0 0 1 11.4224 158.9268)" class="st0 st1">t</text>
<text transform="matrix(1 0 0 1 14.4224 158.9268)" class="st0 st1">ellung von OER-Ma</text>
<text transform="matrix(1 0 0 1 83.4224 158.9268)" class="st0 st1">t</text>
<text transform="matrix(1 0 0 1 86.4224 158.9268)" class="st0 st1">erialien (Ers</text>
<text transform="matrix(1 0 0 1 129.8224 158.9268)" class="st0 st1">t</text>
<text transform="matrix(1 0 0 1 132.7224 158.9268)" class="st0 st1">ellen von freien Un</text>
<text transform="matrix(1 0 0 1 200.3224 158.9268)" class="st0 st1">t</text>
<text transform="matrix(1 0 0 1 203.2224 158.9268)" class="st0 st1">errichtsma</text>
<text transform="matrix(1 0 0 1 242.7224 158.9268)" class="st0 st1">t</text>
<text transform="matrix(1 0 0 1 245.6224 158.9268)" class="st0 st1">erialien) </text>
<rect y="135.4" class="st2" width="187.4" height="12"/>
<rect y="135.4" class="st3" width="187.4" height="12"/>
<rect x="186.6" y="135.4" class="st4" width="169.8" height="12"/>
<rect x="186.6" y="135.4" class="st3" width="169.8" height="12"/>
<text transform="matrix(1 0 0 1 2.8846 144.1846)" class="st5 st1">27</text>
<text transform="matrix(1 0 0 1 342.5965 144.1846)" class="st2 st5 st1">2</text>
<text transform="matrix(1 0 0 1 347.3965 144.1846)" class="st2 st5 st1">4</text>
<text transform="matrix(1 0 0 1 -0.3776 190.2944)" class="st0 st1">Kollabo</text>
<text transform="matrix(1 0 0 1 27.1224 190.2944)" class="st0 st1">r</text>
<text transform="matrix(1 0 0 1 30.1224 190.2944)" class="st0 st1">atives Schreiben / Book Sprints (gemeinsam</text>
<text transform="matrix(1 0 0 1 190.5224 190.2944)" class="st0 st1"> </text>
<text transform="matrix(1 0 0 1 192.0224 190.2944)" class="st0 st1">T</text>
<text transform="matrix(1 0 0 1 196.0224 190.2944)" class="st0 st1">e</text>
<text transform="matrix(1 0 0 1 200.2224 190.2944)" class="st0 st1">xt</text>
<text transform="matrix(1 0 0 1 207.3224 190.2944)" class="st0 st1">e verfassen) </text>
<rect y="167.5" class="st2" width="278.6" height="12"/>
<rect y="167.5" class="st3" width="278.6" height="12"/>
<rect x="277.8" y="167.5" class="st4" width="78.6" height="12"/>
<rect x="277.8" y="167.5" class="st3" width="78.6" height="12"/>
<text transform="matrix(1 0 0 1 2.8846 176.3579)" class="st5 st1">40</text>
<text transform="matrix(1 0 0 1 346.4124 176.3579)" class="st2 st5 st1">11</text>
<text transform="matrix(1 0 0 1 -0.3776 222.9473)" class="st0 st1">Kollabo</text>
<text transform="matrix(1 0 0 1 27.1224 222.9473)" class="st0 st1">r</text>
<text transform="matrix(1 0 0 1 30.1224 222.9473)" class="st0 st1">atives Revi</text>
<text transform="matrix(1 0 0 1 69.7224 222.9473)" class="st0 st1">e</text>
<text transform="matrix(1 0 0 1 74.0224 222.9473)" class="st0 st1">wing (gemeinsam Inhal</text>
<text transform="matrix(1 0 0 1 156.5224 222.9473)" class="st0 st1">t</text>
<text transform="matrix(1 0 0 1 159.4224 222.9473)" class="st0 st1">e b</text>
<text transform="matrix(1 0 0 1 170.1224 222.9473)" class="st0 st1">ew</text>
<text transform="matrix(1 0 0 1 180.2224 222.9473)" class="st0 st1">e</text>
<text transform="matrix(1 0 0 1 184.5224 222.9473)" class="st0 st1">r</text>
<text transform="matrix(1 0 0 1 187.9224 222.9473)" class="st0 st1">t</text>
<text transform="matrix(1 0 0 1 190.8224 222.9473)" class="st0 st1">en) </text>
<rect y="199.5" class="st2" width="152.6" height="12"/>
<rect y="199.5" class="st3" width="152.6" height="12"/>
<rect x="151.8" y="199.5" class="st4" width="204.6" height="12"/>
<rect x="151.8" y="199.5" class="st3" width="204.6" height="12"/>
<text transform="matrix(1 0 0 1 2.8846 208.3418)" class="st5 st1">2</text>
<text transform="matrix(1 0 0 1 7.7846 208.3418)" class="st5 st1">2</text>
<text transform="matrix(1 0 0 1 342.7083 208.3418)" class="st2 st5 st1">29</text>
<text transform="matrix(1 0 0 1 -0.3776 253.46)" class="st0 st1">Online </text>
<text transform="matrix(1 0 0 1 24.9224 253.46)" class="st0 st1">P</text>
<text transform="matrix(1 0 0 1 29.8224 253.46)" class="st0 st1">e</text>
<text transform="matrix(1 0 0 1 34.0224 253.46)" class="st0 st1">tition</text>
<rect y="231.6" class="st2" width="349.3" height="12"/>
<rect y="231.6" class="st3" width="349.3" height="12"/>
<rect x="341.9" y="231.6" class="st4" width="14.5" height="12"/>
<rect x="341.9" y="231.6" class="st3" width="14.5" height="12"/>
<text transform="matrix(1 0 0 1 2.8846 240.7041)" class="st5 st1">50</text>
<text transform="matrix(1 0 0 1 349.3963 240.7041)" class="st2 st5 st1">1</text>
<text transform="matrix(1 0 0 1 -0.3776 284.8779)" class="st0 st1">Online</text>
<text transform="matrix(1 0 0 1 23.1224 284.8779)" class="st0 st1"> </text>
<text transform="matrix(1 0 0 1 24.6224 284.8779)" class="st0 st1">V</text>
<text transform="matrix(1 0 0 1 29.3224 284.8779)" class="st0 st1">oting durch Jugendliche zur Proje</text>
<text transform="matrix(1 0 0 1 151.4224 284.8779)" class="st0 st1">kt</text>
<text transform="matrix(1 0 0 1 158.7224 284.8779)" class="st0 st1">entscheidung</text>
<rect y="261.5" class="st2" width="292.7" height="12"/>
<rect y="261.5" class="st3" width="292.7" height="12"/>
<rect x="291.8" y="261.5" class="st4" width="64.6" height="12"/>
<rect x="291.8" y="261.5" class="st3" width="64.6" height="12"/>
<text transform="matrix(1 0 0 1 2.8846 270.3828)" class="st5 st1">4</text>
<text transform="matrix(1 0 0 1 7.7846 270.3828)" class="st5 st1">2</text>
<text transform="matrix(1 0 0 1 347.6043 270.3271)" class="st2 st5 st1">9</text>
<text transform="matrix(1 0 0 1 -0.3776 314.7246)" class="st0 st1">Prog</text>
<text transform="matrix(1 0 0 1 16.9224 314.7246)" class="st0 st1">r</text>
<text transform="matrix(1 0 0 1 20.0224 314.7246)" class="st0 st1">ammieren (gemeinsames Prog</text>
<text transform="matrix(1 0 0 1 129.8224 314.7246)" class="st0 st1">r</text>
<text transform="matrix(1 0 0 1 132.9224 314.7246)" class="st0 st1">ammieren, Bas</text>
<text transform="matrix(1 0 0 1 186.3224 314.7246)" class="st0 st1">t</text>
<text transform="matrix(1 0 0 1 189.2224 314.7246)" class="st0 st1">eln mit</text>
<text transform="matrix(1 0 0 1 213.9224 314.7246)" class="st0 st1"> </text>
<text transform="matrix(1 0 0 1 215.4224 314.7246)" class="st0 st1">T</text>
<text transform="matrix(1 0 0 1 219.5224 314.7246)" class="st0 st1">echnik) </text>
<rect y="292.1" class="st2" width="223.3" height="12"/>
<rect y="292.1" class="st3" width="223.3" height="12"/>
<rect x="222.5" y="292.1" class="st4" width="133.9" height="12"/>
<rect x="222.5" y="292.1" class="st3" width="133.9" height="12"/>
<text transform="matrix(1 0 0 1 2.8846 301.082)" class="st5 st1">32</text>
<text transform="matrix(1 0 0 1 344.6204 301.082)" class="st2 st5 st1">19</text>
<text transform="matrix(1 0 0 1 -0.3698 346.9121)" class="st5 st1">Social Media</text>
<rect y="324.2" class="st2" width="341.7" height="12"/>
<rect y="324.2" class="st3" width="341.7" height="12"/>
<rect x="337.9" y="324.2" class="st4" width="18.5" height="12"/>
<rect x="337.9" y="324.2" class="st3" width="18.5" height="12"/>
<text transform="matrix(1 0 0 1 2.8846 333.2275)" class="st5 st1">4</text>
<text transform="matrix(1 0 0 1 7.7846 333.2275)" class="st5 st1">9</text>
<text transform="matrix(1 0 0 1 347.4842 333.0674)" class="st2 st5 st1">2</text>
<rect x="0.4" y="3.8" class="st3" width="24.8" height="20.7"/>
<text transform="matrix(1 0 0 1 8.2409 17.1587)" class="st5 st1">Ja</text>
<rect x="29.1" y="3.8" class="st4" width="24.8" height="20.7"/>
<rect x="29.1" y="3.8" class="st3" width="24.8" height="20.7"/>
<text transform="matrix(1 0 0 1 33.1544 17.1587)" class="st2 st5 st1">Nein</text>
<text transform="matrix(1 0 0 1 339.056 366.9111)" class="st5 st1">n=5</text>
<text transform="matrix(1 0 0 1 353.856 366.9111)" class="st5 st1">1</text>
</svg>
