<?xml version="1.0" encoding="utf-8"?>
<!-- Generator: Adobe Illustrator 21.0.0, SVG Export Plug-In . SVG Version: 6.00 Build 0)  -->
<svg version="1.1" id="Layer_1" xmlns="http://www.w3.org/2000/svg" xmlns:xlink="http://www.w3.org/1999/xlink" x="0px" y="0px"
	 viewBox="0 0 356.9 364.5" style="enable-background:new 0 0 356.9 364.5;" xml:space="preserve">
<style type="text/css">
	.st0{fill:none;stroke:#000000;stroke-width:0.5;}
	.st1{font-family:'Overpass-Regular';}
	.st2{font-size:6px;}
	.st3{fill:#FFFFFF;}
	.st4{fill:none;stroke:#0000FF;stroke-width:0.5;}
	.st5{fill:#0000FF;}
	.st6{fill:#B2B2B2;}
	.st7{fill:none;stroke:#B2B2B2;}
	.st8{fill:#0000DD;}
	.st9{font-size:8px;}
	.st10{letter-spacing:12;}
	.st11{letter-spacing:34;}
	.st12{letter-spacing:3;}
</style>
<rect y="9.1" width="5.7" height="5.5"/>
<rect y="9.1" class="st0" width="5.7" height="5.5"/>
<text transform="matrix(1 0 0 1 7.8498 14.3975)" class="st1 st2">n</text>
<text transform="matrix(1 0 0 1 11.2498 14.3975)" class="st1 st2">i</text>
<text transform="matrix(1 0 0 1 12.8498 14.3975)" class="st1 st2">e</text>
<rect x="82.3" y="9.1" class="st3" width="5.7" height="5.5"/>
<rect x="82.3" y="9.1" class="st0" width="5.7" height="5.5"/>
<text transform="matrix(1 0 0 1 90.1081 14.3975)" class="st1 st2">sel</text>
<text transform="matrix(1 0 0 1 97.8081 14.3975)" class="st1 st2">t</text>
<text transform="matrix(1 0 0 1 100.0081 14.3975)" class="st1 st2">e</text>
<text transform="matrix(1 0 0 1 103.3081 14.3975)" class="st1 st2">n</text>
<rect x="164.2" y="9.1" class="st3" width="5.7" height="5.5"/>
<rect x="164.2" y="9.1" class="st4" width="5.7" height="5.5"/>
<text transform="matrix(1 0 0 1 171.9919 14.3975)" class="st1 st2">häuﬁ</text>
<text transform="matrix(1 0 0 1 185.5919 14.3975)" class="st1 st2">g</text>
<rect x="233.9" y="9.1" class="st5" width="5.7" height="5.5"/>
<rect x="233.9" y="9.1" class="st4" width="5.7" height="5.5"/>
<text transform="matrix(1 0 0 1 241.6902 14.3975)" class="st1 st2">d</text>
<text transform="matrix(1 0 0 1 245.0902 14.3975)" class="st1 st2">ur</text>
<text transform="matrix(1 0 0 1 250.8902 14.3975)" class="st1 st2">c</text>
<text transform="matrix(1 0 0 1 253.8902 14.3975)" class="st1 st2">hg</text>
<text transform="matrix(1 0 0 1 260.6902 14.3975)" class="st1 st2">e</text>
<text transform="matrix(1 0 0 1 263.9902 14.3975)" class="st1 st2">h</text>
<text transform="matrix(1 0 0 1 267.3902 14.3975)" class="st1 st2">e</text>
<text transform="matrix(1 0 0 1 270.6902 14.3975)" class="st1 st2">n</text>
<text transform="matrix(1 0 0 1 274.0902 14.3975)" class="st1 st2">d</text>
<rect x="310.2" y="9.9" class="st6" width="4.7" height="4.5"/>
<rect x="310.2" y="9.9" class="st7" width="4.7" height="4.5"/>
<text transform="matrix(1 0 0 1 316.6843 14.3975)" class="st1 st2">K</text>
<text transform="matrix(1 0 0 1 320.5843 14.3975)" class="st1 st2">ei</text>
<text transform="matrix(1 0 0 1 325.3843 14.3975)" class="st1 st2">n</text>
<text transform="matrix(1 0 0 1 328.7843 14.3975)" class="st1 st2">e</text>
<text transform="matrix(1 0 0 1 332.0843 14.3975)" class="st1 st2"> </text>
<text transform="matrix(1 0 0 1 333.1843 14.3975)" class="st1 st2">Anga</text>
<text transform="matrix(1 0 0 1 347.2843 14.3975)" class="st1 st2">b</text>
<text transform="matrix(1 0 0 1 350.6843 14.3975)" class="st1 st2">e</text>
<g>
	<path class="st5" d="M2.6,32.4c1.4,0,2.6-1.2,2.6-2.6c0-1.4-1.2-2.6-2.6-2.6S0,28.4,0,29.8S1.2,32.4,2.6,32.4"/>
</g>
<text transform="matrix(1 0 0 1 5.1697 32.3975)" class="st8 st1 st9"> </text>
<text transform="matrix(1 0 0 1 7.0095 32.3975)" class="st1 st9"> </text>
<text transform="matrix(1 0 0 1 8.5095 32.3975)" class="st1 st9">All</text>
<text transform="matrix(1 0 0 1 18.2095 32.3975)" class="st1 st9">t</text>
<text transform="matrix(1 0 0 1 21.1095 32.3975)" class="st1 st9">ägliche</text>
<text transform="matrix(1 0 0 1 46.7095 32.3975)" class="st1 st9"> </text>
<text transform="matrix(1 0 0 1 48.2095 32.3975)" class="st1 st9">Arbeitsver</text>
<text transform="matrix(1 0 0 1 86.0095 32.3975)" class="st1 st9">w</text>
<text transform="matrix(1 0 0 1 91.6095 32.3975)" class="st1 st9">al</text>
<text transform="matrix(1 0 0 1 97.9095 32.3975)" class="st1 st9">t</text>
<text transform="matrix(1 0 0 1 100.7095 32.3975)" class="st1 st9">ung</text>
<g>
	<path class="st5" d="M3.3,92.4c1.4,0,2.6-1.2,2.6-2.6s-1.2-2.6-2.6-2.6s-2.6,1.2-2.6,2.6C0.7,91.2,1.9,92.4,3.3,92.4"/>
</g>
<text transform="matrix(1 0 0 1 5.8782 92.3975)" class="st8 st1 st9"> </text>
<text transform="matrix(1 0 0 1 7.7185 92.3975)" class="st1 st9"> Moni</text>
<text transform="matrix(1 0 0 1 27.0185 92.3975)" class="st1 st9">t</text>
<text transform="matrix(1 0 0 1 29.9185 92.3975)" class="st1 st9">oring und E</text>
<text transform="matrix(1 0 0 1 70.5185 92.3975)" class="st1 st9">v</text>
<text transform="matrix(1 0 0 1 74.5185 92.3975)" class="st1 st9">aluation</text>
<g>
	<path class="st5" d="M2.6,146.4c1.4,0,2.6-1.2,2.6-2.6c0-1.4-1.2-2.6-2.6-2.6S0,142.4,0,143.8S1.2,146.4,2.6,146.4"/>
</g>
<text transform="matrix(1 0 0 1 5.1697 146.3975)" class="st8 st1 st9"> </text>
<text transform="matrix(1 0 0 1 7.0095 146.3975)" class="st1 st9"> </text>
<text transform="matrix(1 0 0 1 8.8494 146.3975)" class="st1 st9"> </text>
<text transform="matrix(1 0 0 1 10.0017 146.3975)" class="st1 st9">Prog</text>
<text transform="matrix(1 0 0 1 27.2017 146.3975)" class="st1 st9">r</text>
<text transform="matrix(1 0 0 1 30.2017 146.3975)" class="st1 st9">ammplanung und </text>
<text transform="matrix(1 0 0 1 93.9055 146.3975)" class="st1 st9 st10"> </text>
<text transform="matrix(1 0 0 1 108.0055 146.3975)" class="st1 st9 st11"> </text>
<text transform="matrix(1 0 0 1 144.0055 146.3975)" class="st1 st9"> </text>
<text transform="matrix(1 0 0 1 1.708984e-03 158.3975)" class="st1 st9"> </text>
<text transform="matrix(1 0 0 1 10.0017 158.3975)" class="st1 st9">-implementie</text>
<text transform="matrix(1 0 0 1 57.8017 158.3975)" class="st1 st9">r</text>
<text transform="matrix(1 0 0 1 60.9017 158.3975)" class="st1 st9">ung</text>
<g>
	<path class="st5" d="M2.6,206.4c1.4,0,2.6-1.2,2.6-2.6s-1.2-2.6-2.6-2.6S0,202.4,0,203.8S1.2,206.4,2.6,206.4"/>
</g>
<text transform="matrix(1 0 0 1 5.1697 206.3975)" class="st8 st1 st9"> </text>
<text transform="matrix(1 0 0 1 7.0095 206.3975)" class="st1 st9"> Repo</text>
<text transform="matrix(1 0 0 1 27.5095 206.3975)" class="st1 st9">r</text>
<text transform="matrix(1 0 0 1 30.7095 206.3975)" class="st1 st9">ting und </text>
<text transform="matrix(1 0 0 1 62.0095 206.3975)" class="st1 st9">K</text>
<text transform="matrix(1 0 0 1 67.1095 206.3975)" class="st1 st9">ommuni</text>
<text transform="matrix(1 0 0 1 96.2095 206.3975)" class="st1 st9">k</text>
<text transform="matrix(1 0 0 1 100.2095 206.3975)" class="st1 st9">ation</text>
<g>
	<path class="st5" d="M2.6,260.4c1.4,0,2.6-1.2,2.6-2.6s-1.2-2.6-2.6-2.6S0,256.4,0,257.8C0,259.2,1.2,260.4,2.6,260.4"/>
</g>
<text transform="matrix(1 0 0 1 5.1697 260.3975)" class="st8 st1 st9"> </text>
<text transform="matrix(1 0 0 1 7.0095 260.3975)" class="st1 st9"> </text>
<text transform="matrix(1 0 0 1 8.8494 260.3975)" class="st1 st9"> </text>
<text transform="matrix(1 0 0 1 9.0017 260.3975)" class="st1 st9">St</text>
<text transform="matrix(1 0 0 1 16.8017 260.3975)" class="st1 st9">r</text>
<text transform="matrix(1 0 0 1 19.8017 260.3975)" class="st1 st9">a</text>
<text transform="matrix(1 0 0 1 24.0017 260.3975)" class="st1 st9">t</text>
<text transform="matrix(1 0 0 1 26.9017 260.3975)" class="st1 st9">egische Planung und </text>
<text transform="matrix(1 0 0 1 102.6653 260.3975)" class="st1 st9 st12"> </text>
<text transform="matrix(1 0 0 1 107.9653 260.3975)" class="st1 st9 st11"> </text>
<text transform="matrix(1 0 0 1 143.9653 260.3975)" class="st1 st9"> </text>
<text transform="matrix(1 0 0 1 1.708984e-03 272.3975)" class="st1 st9"> </text>
<text transform="matrix(1 0 0 1 9.0017 272.3975)" class="st1 st9">Entscheidungsﬁndungen</text>
<line class="st0" x1="-0.2" y1="20.4" x2="356.9" y2="20.4"/>
<line class="st0" x1="-0.2" y1="76.2" x2="356.9" y2="76.2"/>
<line class="st0" x1="-0.2" y1="133.1" x2="356.9" y2="133.1"/>
<line class="st0" x1="-0.2" y1="192.6" x2="356.9" y2="192.6"/>
<line class="st0" x1="-0.2" y1="248.4" x2="356.9" y2="248.4"/>
<line class="st0" x1="-0.2" y1="304.9" x2="356.9" y2="304.9"/>
<rect x="185.4" y="26.4" width="0.5" height="7.4"/>
<rect x="185.7" y="35.8" class="st0" width="16.2" height="6.9"/>
<rect x="185.7" y="45" class="st4" width="111.8" height="6.9"/>
<rect x="185.4" y="54" class="st5" width="146" height="7.4"/>
<rect x="185.4" y="63.2" class="st6" width="10.8" height="7.4"/>
<rect x="185.4" y="82.2" width="10.8" height="7.5"/>
<rect x="185.7" y="91.8" class="st0" width="122.2" height="7"/>
<rect x="185.7" y="101.1" class="st4" width="88.8" height="7"/>
<rect x="185.4" y="110.1" class="st5" width="49.6" height="7.5"/>
<rect x="185.4" y="119.4" class="st6" width="10.8" height="7.5"/>
<rect x="185.4" y="139.1" width="4.4" height="7.5"/>
<rect x="185.7" y="147.9" class="st0" width="88.2" height="7"/>
<rect x="185.7" y="157.2" class="st4" width="139.8" height="7"/>
<rect x="185.4" y="175.5" class="st6" width="5.4" height="7.5"/>
<rect x="185.4" y="198.6" width="1.1" height="7.5"/>
<rect x="185.7" y="208.1" class="st0" width="26.4" height="7"/>
<rect x="185.7" y="217.4" class="st4" width="162.1" height="7"/>
<rect x="185.4" y="226.5" class="st5" width="88.7" height="7.5"/>
<rect x="185.4" y="235" class="st6" width="5.4" height="7.5"/>
<rect x="185.4" y="254.3" width="16.6" height="7.5"/>
<rect x="185.7" y="263.8" class="st0" width="111.5" height="7"/>
<rect x="185.8" y="273.2" class="st4" width="111.4" height="7"/>
<rect x="185.4" y="282.2" class="st5" width="32.9" height="7.5"/>
<text transform="matrix(1 0 0 1 339.2029 326.6455)" class="st1 st9">n=5</text>
<text transform="matrix(1 0 0 1 354.0029 326.6455)" class="st1 st9">1</text>
<text transform="matrix(1 0 0 1 353.1003 32.3208)" class="st1 st2">0</text>
<text transform="matrix(1 0 0 1 353.3225 41.3208)" class="st1 st2">3</text>
<text transform="matrix(1 0 0 1 349.4285 50.3208)" class="st1 st2">20</text>
<text transform="matrix(1 0 0 1 349.6804 59.3208)" class="st1 st2">26</text>
<text transform="matrix(1 0 0 1 353.2625 68.3208)" class="st1 st2">2</text>
<text transform="matrix(1 0 0 1 352.9202 87.3647)" class="st1 st2">2</text>
<text transform="matrix(1 0 0 1 349.2483 96.3647)" class="st1 st2">22</text>
<text transform="matrix(1 0 0 1 350.7722 105.3647)" class="st1 st2">16</text>
<text transform="matrix(1 0 0 1 353.0105 114.3647)" class="st1 st2">9</text>
<text transform="matrix(1 0 0 1 352.9202 123.3647)" class="st1 st2">2</text>
<text transform="matrix(1 0 0 1 354.3542 144.0166)" class="st1 st2">1</text>
<text transform="matrix(1 0 0 1 350.7722 153.0166)" class="st1 st2">16</text>
<text transform="matrix(1 0 0 1 349.1941 162.0166)" class="st1 st2">25</text>
<text transform="matrix(1 0 0 1 352.9265 171.0166)" class="st1 st2">8</text>
<text transform="matrix(1 0 0 1 354.3542 180.0166)" class="st1 st2">1</text>
<text transform="matrix(1 0 0 1 352.7581 204.959)" class="st1 st2">0</text>
<text transform="matrix(1 0 0 1 352.8665 213.959)" class="st1 st2">5</text>
<text transform="matrix(1 0 0 1 349.3381 222.959)" class="st1 st2">29</text>
<text transform="matrix(1 0 0 1 350.7722 231.959)" class="st1 st2">16</text>
<text transform="matrix(1 0 0 1 354.3542 240.959)" class="st1 st2">1</text>
<text transform="matrix(1 0 0 1 352.9802 260.2363)" class="st1 st2">3</text>
<text transform="matrix(1 0 0 1 349.0862 269.2363)" class="st1 st2">20</text>
<text transform="matrix(1 0 0 1 349.0862 278.2363)" class="st1 st2">20</text>
<text transform="matrix(1 0 0 1 353.0105 287.2363)" class="st1 st2">6</text>
<text transform="matrix(1 0 0 1 352.9202 296.2363)" class="st1 st2">2</text>
<rect x="185.4" y="166.1" class="st5" width="44.4" height="7.5"/>
<rect x="185.4" y="291" class="st6" width="10.8" height="7.5"/>
</svg>
