<?xml version="1.0" encoding="utf-8"?>
<!-- Generator: Adobe Illustrator 21.0.0, SVG Export Plug-In . SVG Version: 6.00 Build 0)  -->
<svg version="1.1" id="Layer_1" xmlns="http://www.w3.org/2000/svg" xmlns:xlink="http://www.w3.org/1999/xlink" x="0px" y="0px"
	 viewBox="0 0 357.2 417" style="enable-background:new 0 0 357.2 417;" xml:space="preserve">
<style type="text/css">
	.st0{fill:none;stroke:#000000;stroke-width:0.5;}
	.st1{font-family:'Overpass-Regular';}
	.st2{font-size:6px;}
	.st3{fill:#FFFFFF;}
	.st4{fill:none;stroke:#0000FF;stroke-width:0.5;}
	.st5{fill:#0000FF;}
	.st6{fill:#B2B2B2;}
	.st7{fill:none;stroke:#B2B2B2;}
	.st8{fill:#0000DD;}
	.st9{font-size:8px;}
	.st10{letter-spacing:1;}
	.st11{letter-spacing:13;}
	.st12{fill:none;stroke:#B2B2B2;stroke-width:0.5;}
</style>
<rect x="0.2" y="9.2" width="5.7" height="5.5"/>
<rect x="0.2" y="9.2" class="st0" width="5.7" height="5.5"/>
<text transform="matrix(1 0 0 1 8.0789 13.9014)" class="st1 st2">T</text>
<text transform="matrix(1 0 0 1 11.5789 13.9014)" class="st1 st2">ri</text>
<text transform="matrix(1 0 0 1 15.5789 13.9014)" class="st1 st2">f</text>
<text transform="matrix(1 0 0 1 17.5789 13.9014)" class="st1 st2">f</text>
<text transform="matrix(1 0 0 1 19.6789 13.9014)" class="st1 st2">t </text>
<text transform="matrix(1 0 0 1 23.3789 13.9014)" class="st1 st2">überhaupt ni</text>
<text transform="matrix(1 0 0 1 57.8789 13.9014)" class="st1 st2">c</text>
<text transform="matrix(1 0 0 1 60.8789 13.9014)" class="st1 st2">h</text>
<text transform="matrix(1 0 0 1 64.2789 13.9014)" class="st1 st2">t </text>
<text transform="matrix(1 0 0 1 67.9789 13.9014)" class="st1 st2">z</text>
<text transform="matrix(1 0 0 1 71.0789 13.9014)" class="st1 st2">u</text>
<rect x="91.7" y="9.2" class="st3" width="5.7" height="5.5"/>
<rect x="91.7" y="9.2" class="st0" width="5.7" height="5.5"/>
<text transform="matrix(1 0 0 1 99.5496 14.3691)" class="st1 st2">T</text>
<text transform="matrix(1 0 0 1 103.0496 14.3691)" class="st1 st2">ri</text>
<text transform="matrix(1 0 0 1 107.0496 14.3691)" class="st1 st2">f</text>
<text transform="matrix(1 0 0 1 109.0496 14.3691)" class="st1 st2">f</text>
<text transform="matrix(1 0 0 1 111.1496 14.3691)" class="st1 st2">t </text>
<text transform="matrix(1 0 0 1 114.8496 14.3691)" class="st1 st2">eh</text>
<text transform="matrix(1 0 0 1 121.5496 14.3691)" class="st1 st2">er </text>
<text transform="matrix(1 0 0 1 128.5496 14.3691)" class="st1 st2">ni</text>
<text transform="matrix(1 0 0 1 133.5496 14.3691)" class="st1 st2">c</text>
<text transform="matrix(1 0 0 1 136.5496 14.3691)" class="st1 st2">ht</text>
<text transform="matrix(1 0 0 1 142.2496 14.3691)" class="st1 st2"> </text>
<text transform="matrix(1 0 0 1 143.6496 14.3691)" class="st1 st2">z</text>
<text transform="matrix(1 0 0 1 146.6496 14.3691)" class="st1 st2">u</text>
<rect x="169.4" y="9.2" class="st3" width="5.7" height="5.5"/>
<rect x="169.4" y="9.2" class="st4" width="5.7" height="5.5"/>
<text transform="matrix(1 0 0 1 177.1814 14.2134)" class="st1 st2">T</text>
<text transform="matrix(1 0 0 1 180.6814 14.2134)" class="st1 st2">ri</text>
<text transform="matrix(1 0 0 1 184.6814 14.2134)" class="st1 st2">f</text>
<text transform="matrix(1 0 0 1 186.6814 14.2134)" class="st1 st2">f</text>
<text transform="matrix(1 0 0 1 188.7814 14.2134)" class="st1 st2">t </text>
<text transform="matrix(1 0 0 1 192.4814 14.2134)" class="st1 st2">eh</text>
<text transform="matrix(1 0 0 1 199.1814 14.2134)" class="st1 st2">er z</text>
<text transform="matrix(1 0 0 1 209.2814 14.2134)" class="st1 st2">u</text>
<rect x="229.8" y="9.2" class="st5" width="5.7" height="5.5"/>
<rect x="229.8" y="9.2" class="st4" width="5.7" height="5.5"/>
<text transform="matrix(1 0 0 1 237.6667 14.1704)" class="st1 st2">T</text>
<text transform="matrix(1 0 0 1 241.1667 14.1704)" class="st1 st2">ri</text>
<text transform="matrix(1 0 0 1 245.1667 14.1704)" class="st1 st2">f</text>
<text transform="matrix(1 0 0 1 247.1667 14.1704)" class="st1 st2">f</text>
<text transform="matrix(1 0 0 1 249.2667 14.1704)" class="st1 st2">t </text>
<text transform="matrix(1 0 0 1 252.9667 14.1704)" class="st1 st2">vo</text>
<text transform="matrix(1 0 0 1 259.4667 14.1704)" class="st1 st2">l</text>
<text transform="matrix(1 0 0 1 261.0667 14.1704)" class="st1 st2">l</text>
<text transform="matrix(1 0 0 1 262.6667 14.1704)" class="st1 st2"> </text>
<text transform="matrix(1 0 0 1 264.0667 14.1704)" class="st1 st2">un</text>
<text transform="matrix(1 0 0 1 270.8667 14.1704)" class="st1 st2">d </text>
<text transform="matrix(1 0 0 1 275.6667 14.1704)" class="st1 st2">ganz</text>
<text transform="matrix(1 0 0 1 288.6667 14.1704)" class="st1 st2"> z</text>
<text transform="matrix(1 0 0 1 293.1667 14.1704)" class="st1 st2">u</text>
<rect x="312.6" y="9.9" class="st6" width="4.7" height="4.5"/>
<rect x="312.6" y="9.9" class="st7" width="4.7" height="4.5"/>
<text transform="matrix(1 0 0 1 319.8816 14.1704)" class="st1 st2">K</text>
<text transform="matrix(1 0 0 1 323.7816 14.1704)" class="st1 st2">ei</text>
<text transform="matrix(1 0 0 1 328.5816 14.1704)" class="st1 st2">ne</text>
<text transform="matrix(1 0 0 1 335.2816 14.1704)" class="st1 st2"> </text>
<text transform="matrix(1 0 0 1 336.3816 14.1704)" class="st1 st2">Angab</text>
<text transform="matrix(1 0 0 1 353.8816 14.1704)" class="st1 st2">e</text>
<g>
	<path class="st5" d="M2.8,34.4c1.4,0,2.6-1.2,2.6-2.6c0-1.4-1.2-2.6-2.6-2.6s-2.6,1.2-2.6,2.6C0.2,33.3,1.4,34.4,2.8,34.4"/>
</g>
<text transform="matrix(1 0 0 1 5.3982 34.4092)" class="st8 st1 st9"> </text>
<text transform="matrix(1 0 0 1 7.239 34.4092)" class="st1 st9"> Da</text>
<text transform="matrix(1 0 0 1 18.739 34.4092)" class="st1 st9">t</text>
<text transform="matrix(1 0 0 1 21.639 34.4092)" class="st1 st9">enschutzbeden</text>
<text transform="matrix(1 0 0 1 76.339 34.4092)" class="st1 st9">k</text>
<text transform="matrix(1 0 0 1 80.439 34.4092)" class="st1 st9">en</text>
<g>
	<path class="st5" d="M2.8,69.9c1.4,0,2.6-1.2,2.6-2.6s-1.2-2.6-2.6-2.6s-2.6,1.2-2.6,2.6C0.2,68.8,1.4,69.9,2.8,69.9"/>
</g>
<text transform="matrix(1 0 0 1 5.3982 69.9365)" class="st8 st1 st9"> </text>
<text transform="matrix(1 0 0 1 7.239 69.9365)" class="st1 st9"> </text>
<text transform="matrix(1 0 0 1 9.0789 69.9365)" class="st1 st9"> </text>
<text transform="matrix(1 0 0 1 9.2302 69.9365)" class="st1 st9">mangelnde</text>
<text transform="matrix(1 0 0 1 48.9302 69.9365)" class="st1 st9"> </text>
<text transform="matrix(1 0 0 1 50.4302 69.9365)" class="st1 st9">Aner</text>
<text transform="matrix(1 0 0 1 67.8302 69.9365)" class="st1 st9">k</text>
<text transform="matrix(1 0 0 1 71.9302 69.9365)" class="st1 st9">ennung für digi</text>
<text transform="matrix(1 0 0 1 125.8302 69.9365)" class="st1 st9">t</text>
<text transform="matrix(1 0 0 1 128.7302 69.9365)" class="st1 st9">ale </text>
<text transform="matrix(1 0 0 1 141.2205 69.9365)" class="st1 st9 st10"> </text>
<text transform="matrix(1 0 0 1 144.2205 69.9365)" class="st1 st9"> </text>
<text transform="matrix(1 0 0 1 3.2302 79.9365)" class="st1 st9"> </text>
<text transform="matrix(1 0 0 1 9.2302 79.9365)" class="st1 st9">Arbeit von </text>
<text transform="matrix(1 0 0 1 48.4302 79.9365)" class="st1 st9">F</text>
<text transform="matrix(1 0 0 1 52.6302 79.9365)" class="st1 st9">örderern/ </text>
<text transform="matrix(1 0 0 1 89.9302 79.9365)" class="st1 st9">F</text>
<text transform="matrix(1 0 0 1 94.2302 79.9365)" class="st1 st9">üh</text>
<text transform="matrix(1 0 0 1 103.2302 79.9365)" class="st1 st9">r</text>
<text transform="matrix(1 0 0 1 106.3302 79.9365)" class="st1 st9">ungsebene</text>
<g>
	<path class="st5" d="M2.8,104.8c1.4,0,2.6-1.2,2.6-2.6s-1.2-2.6-2.6-2.6s-2.6,1.2-2.6,2.6C0.2,103.6,1.4,104.8,2.8,104.8"/>
</g>
<text transform="matrix(1 0 0 1 5.3982 104.7637)" class="st8 st1 st9"> </text>
<text transform="matrix(1 0 0 1 7.239 104.7637)" class="st1 st9"> </text>
<text transform="matrix(1 0 0 1 9.0789 104.7637)" class="st1 st9"> </text>
<text transform="matrix(1 0 0 1 10.2302 104.7637)" class="st1 st9">mangelnde</text>
<text transform="matrix(1 0 0 1 49.9302 104.7637)" class="st1 st9"> </text>
<text transform="matrix(1 0 0 1 51.4302 104.7637)" class="st1 st9">Aner</text>
<text transform="matrix(1 0 0 1 68.8302 104.7637)" class="st1 st9">k</text>
<text transform="matrix(1 0 0 1 72.9302 104.7637)" class="st1 st9">ennung für digi</text>
<text transform="matrix(1 0 0 1 126.8302 104.7637)" class="st1 st9">t</text>
<text transform="matrix(1 0 0 1 129.7302 104.7637)" class="st1 st9">ale </text>
<text transform="matrix(1 0 0 1 142.2205 104.7637)" class="st1 st9"> </text>
<text transform="matrix(1 0 0 1 144.2205 104.7637)" class="st1 st9"> </text>
<text transform="matrix(1 0 0 1 0.2302 114.7637)" class="st1 st9"> </text>
<text transform="matrix(1 0 0 1 10.2302 114.7637)" class="st1 st9">Arbeit von </text>
<text transform="matrix(1 0 0 1 49.4302 114.7637)" class="st1 st9">F</text>
<text transform="matrix(1 0 0 1 53.7302 114.7637)" class="st1 st9">üh</text>
<text transform="matrix(1 0 0 1 62.7302 114.7637)" class="st1 st9">r</text>
<text transform="matrix(1 0 0 1 65.8302 114.7637)" class="st1 st9">ungsebene</text>
<g>
	<path class="st5" d="M2.8,140.5c1.4,0,2.6-1.2,2.6-2.6c0-1.4-1.2-2.6-2.6-2.6s-2.6,1.2-2.6,2.6C0.2,139.4,1.4,140.5,2.8,140.5"/>
</g>
<text transform="matrix(1 0 0 1 5.3982 140.519)" class="st8 st1 st9"> </text>
<text transform="matrix(1 0 0 1 7.239 140.519)" class="st1 st9"> mangelnde digi</text>
<text transform="matrix(1 0 0 1 63.639 140.519)" class="st1 st9">t</text>
<text transform="matrix(1 0 0 1 66.539 140.519)" class="st1 st9">ale</text>
<text transform="matrix(1 0 0 1 77.239 140.519)" class="st1 st9"> </text>
<text transform="matrix(1 0 0 1 78.739 140.519)" class="st1 st9">T</text>
<text transform="matrix(1 0 0 1 82.739 140.519)" class="st1 st9">ools und So</text>
<text transform="matrix(1 0 0 1 123.939 140.519)" class="st1 st9">f</text>
<text transform="matrix(1 0 0 1 126.639 140.519)" class="st1 st9">t</text>
<text transform="matrix(1 0 0 1 129.639 140.519)" class="st1 st9">w</text>
<text transform="matrix(1 0 0 1 135.239 140.519)" class="st1 st9">are</text>
<g>
	<path class="st5" d="M2.8,177.5c1.4,0,2.6-1.2,2.6-2.6c0-1.4-1.2-2.6-2.6-2.6s-2.6,1.2-2.6,2.6C0.2,176.3,1.4,177.5,2.8,177.5"/>
</g>
<text transform="matrix(1 0 0 1 5.3982 177.4727)" class="st8 st1 st9"> </text>
<text transform="matrix(1 0 0 1 7.239 177.4727)" class="st1 st9"> mangelnde Inf</text>
<text transform="matrix(1 0 0 1 60.039 177.4727)" class="st1 st9">r</text>
<text transform="matrix(1 0 0 1 63.039 177.4727)" class="st1 st9">ast</text>
<text transform="matrix(1 0 0 1 74.039 177.4727)" class="st1 st9">r</text>
<text transform="matrix(1 0 0 1 77.039 177.4727)" class="st1 st9">u</text>
<text transform="matrix(1 0 0 1 81.539 177.4727)" class="st1 st9">k</text>
<text transform="matrix(1 0 0 1 85.739 177.4727)" class="st1 st9">t</text>
<text transform="matrix(1 0 0 1 88.539 177.4727)" class="st1 st9">ur/ Hard</text>
<text transform="matrix(1 0 0 1 119.439 177.4727)" class="st1 st9">w</text>
<text transform="matrix(1 0 0 1 125.039 177.4727)" class="st1 st9">are</text>
<g>
	<path class="st5" d="M2.8,213.2c1.4,0,2.6-1.2,2.6-2.6c0-1.4-1.2-2.6-2.6-2.6s-2.6,1.2-2.6,2.6C0.2,212.1,1.4,213.2,2.8,213.2"/>
</g>
<text transform="matrix(1 0 0 1 5.3982 213.2363)" class="st8 st1 st9"> </text>
<text transform="matrix(1 0 0 1 7.239 213.2363)" class="st1 st9"> </text>
<text transform="matrix(1 0 0 1 9.0789 213.2363)" class="st1 st9"> </text>
<text transform="matrix(1 0 0 1 9.2302 213.2363)" class="st1 st9">mangelnde Experimentier</text>
<text transform="matrix(1 0 0 1 101.7302 213.2363)" class="st1 st9">r</text>
<text transform="matrix(1 0 0 1 104.7302 213.2363)" class="st1 st9">äume und </text>
<text transform="matrix(1 0 0 1 141.7166 213.2363)" class="st1 st9"> </text>
<text transform="matrix(1 0 0 1 144.2166 213.2363)" class="st1 st9"> </text>
<text transform="matrix(1 0 0 1 0.2302 223.2363)" class="st1 st9"> </text>
<text transform="matrix(1 0 0 1 9.2302 223.2363)" class="st1 st9">-möglich</text>
<text transform="matrix(1 0 0 1 40.8302 223.2363)" class="st1 st9">k</text>
<text transform="matrix(1 0 0 1 44.9302 223.2363)" class="st1 st9">ei</text>
<text transform="matrix(1 0 0 1 51.2302 223.2363)" class="st1 st9">t</text>
<text transform="matrix(1 0 0 1 54.1302 223.2363)" class="st1 st9">en</text>
<g>
	<path class="st5" d="M2.8,249.5c1.4,0,2.6-1.2,2.6-2.6s-1.2-2.6-2.6-2.6s-2.6,1.2-2.6,2.6C0.2,248.3,1.4,249.5,2.8,249.5"/>
</g>
<text transform="matrix(1 0 0 1 5.3982 249.4727)" class="st8 st1 st9"> </text>
<text transform="matrix(1 0 0 1 7.239 249.4727)" class="st1 st9"> mangelnde </text>
<text transform="matrix(1 0 0 1 50.639 249.4727)" class="st1 st9">P</text>
<text transform="matrix(1 0 0 1 55.439 249.4727)" class="st1 st9">a</text>
<text transform="matrix(1 0 0 1 59.639 249.4727)" class="st1 st9">r</text>
<text transform="matrix(1 0 0 1 62.939 249.4727)" class="st1 st9">tnerscha</text>
<text transform="matrix(1 0 0 1 94.439 249.4727)" class="st1 st9">f</text>
<text transform="matrix(1 0 0 1 97.139 249.4727)" class="st1 st9">t</text>
<text transform="matrix(1 0 0 1 100.039 249.4727)" class="st1 st9">en </text>
<g>
	<path class="st5" d="M2.8,286.2c1.4,0,2.6-1.2,2.6-2.6S4.2,281,2.8,281s-2.6,1.2-2.6,2.6S1.4,286.2,2.8,286.2"/>
</g>
<text transform="matrix(1 0 0 1 5.3982 286.1807)" class="st8 st1 st9"> </text>
<text transform="matrix(1 0 0 1 7.239 286.1807)" class="st1 st9"> </text>
<text transform="matrix(1 0 0 1 9.0789 286.1807)" class="st1 st9"> </text>
<text transform="matrix(1 0 0 1 9.2302 286.1807)" class="st1 st9">mangelnde Quali</text>
<text transform="matrix(1 0 0 1 69.4302 286.1807)" class="st1 st9">t</text>
<text transform="matrix(1 0 0 1 72.3302 286.1807)" class="st1 st9">ät von digi</text>
<text transform="matrix(1 0 0 1 109.3302 286.1807)" class="st1 st9">t</text>
<text transform="matrix(1 0 0 1 112.2302 286.1807)" class="st1 st9">alen </text>
<text transform="matrix(1 0 0 1 129.2205 286.1807)" class="st1 st9 st11"> </text>
<text transform="matrix(1 0 0 1 144.2205 286.1807)" class="st1 st9"> </text>
<text transform="matrix(1 0 0 1 0.2302 296.1807)" class="st1 st9"> </text>
<text transform="matrix(1 0 0 1 9.2302 296.1807)" class="st1 st9">In</text>
<text transform="matrix(1 0 0 1 16.0302 296.1807)" class="st1 st9">f</text>
<text transform="matrix(1 0 0 1 18.6302 296.1807)" class="st1 st9">ormationen / Da</text>
<text transform="matrix(1 0 0 1 77.2302 296.1807)" class="st1 st9">t</text>
<text transform="matrix(1 0 0 1 80.1302 296.1807)" class="st1 st9">en</text>
<g>
	<path class="st5" d="M2.8,323.2c1.4,0,2.6-1.2,2.6-2.6S4.2,318,2.8,318s-2.6,1.2-2.6,2.6C0.2,322,1.4,323.2,2.8,323.2"/>
</g>
<text transform="matrix(1 0 0 1 5.3982 323.1729)" class="st8 st1 st9"> </text>
<text transform="matrix(1 0 0 1 7.239 323.1729)" class="st1 st9"> mangelnde Ressourcen</text>
<g>
	<path class="st5" d="M2.8,359.2c1.4,0,2.6-1.2,2.6-2.6S4.2,354,2.8,354s-2.6,1.2-2.6,2.6S1.4,359.2,2.8,359.2"/>
</g>
<text transform="matrix(1 0 0 1 5.3982 359.2207)" class="st8 st1 st9"> </text>
<text transform="matrix(1 0 0 1 7.239 359.2207)" class="st1 st9"> </text>
<text transform="matrix(1 0 0 1 9.0789 359.2207)" class="st1 st9"> </text>
<text transform="matrix(1 0 0 1 9.2302 359.2207)" class="st1 st9">mangelndes</text>
<text transform="matrix(1 0 0 1 52.6302 359.2207)" class="st1 st9"> </text>
<text transform="matrix(1 0 0 1 54.2302 359.2207)" class="st1 st9">V</text>
<text transform="matrix(1 0 0 1 58.8302 359.2207)" class="st1 st9">ers</text>
<text transform="matrix(1 0 0 1 70.0302 359.2207)" class="st1 st9">t</text>
<text transform="matrix(1 0 0 1 72.9302 359.2207)" class="st1 st9">ändnis über </text>
<text transform="matrix(1 0 0 1 116.5302 359.2207)" class="st1 st9">P</text>
<text transform="matrix(1 0 0 1 121.3302 359.2207)" class="st1 st9">o</text>
<text transform="matrix(1 0 0 1 125.8302 359.2207)" class="st1 st9">t</text>
<text transform="matrix(1 0 0 1 128.7302 359.2207)" class="st1 st9">ential </text>
<text transform="matrix(1 0 0 1 150.7166 359.2207)" class="st1 st9"> </text>
<text transform="matrix(1 0 0 1 0.2302 369.2207)" class="st1 st9"> </text>
<text transform="matrix(1 0 0 1 9.2302 369.2207)" class="st1 st9">von Da</text>
<text transform="matrix(1 0 0 1 33.8302 369.2207)" class="st1 st9">t</text>
<text transform="matrix(1 0 0 1 36.7302 369.2207)" class="st1 st9">en</text>
<line class="st0" x1="0" y1="24.7" x2="357.2" y2="24.7"/>
<line class="st0" x1="0" y1="60" x2="357.2" y2="60"/>
<line class="st0" x1="0" y1="95.9" x2="357.2" y2="95.9"/>
<line class="st0" x1="0" y1="131.1" x2="357.2" y2="131.1"/>
<line class="st0" x1="0" y1="167.6" x2="357.2" y2="167.6"/>
<line class="st0" x1="0" y1="203.6" x2="357.2" y2="203.6"/>
<line class="st0" x1="0" y1="239.7" x2="357.2" y2="239.7"/>
<line class="st0" x1="0" y1="276.5" x2="357.2" y2="276.5"/>
<line class="st0" x1="0" y1="312.7" x2="357.2" y2="312.7"/>
<line class="st0" x1="0" y1="349.4" x2="357.2" y2="349.4"/>
<line class="st0" x1="0" y1="385.5" x2="357.2" y2="385.5"/>
<rect x="182.1" y="28.3" width="5" height="4.8"/>
<rect x="182.4" y="34.5" class="st0" width="92.3" height="4.3"/>
<rect x="182.4" y="40.5" class="st4" width="140.8" height="4.3"/>
<rect x="182.1" y="46.3" class="st5" width="58.8" height="4.8"/>
<rect x="182.1" y="207.6" width="23.7" height="4.8"/>
<rect x="182.4" y="213.9" class="st0" width="99.4" height="4.3"/>
<rect x="182.4" y="219.9" class="st4" width="103.7" height="4.3"/>
<rect x="182.1" y="225.6" class="st5" width="58.8" height="4.8"/>
<rect x="182.1" y="231.6" class="st6" width="13.1" height="4.8"/>
<rect x="182.1" y="99" width="87.7" height="4.8"/>
<rect x="182.4" y="105.2" class="st0" width="109.1" height="4.3"/>
<rect x="182.4" y="111.2" class="st4" width="39.3" height="4.3"/>
<rect x="182.1" y="117" class="st5" width="23.4" height="4.8"/>
<rect x="182.1" y="123" class="st6" width="34.7" height="4.8"/>
<rect x="182.1" y="279.8" width="24.1" height="4.8"/>
<rect x="182.4" y="286" class="st0" width="126.7" height="4.3"/>
<rect x="182.4" y="292" class="st4" width="58.3" height="4.3"/>
<rect x="182.1" y="297.8" class="st5" width="25.2" height="4.8"/>
<rect x="182.1" y="303.8" class="st6" width="39.7" height="4.8"/>
<rect x="182.1" y="171.1" width="24.2" height="4.8"/>
<rect x="182.4" y="177.3" class="st0" width="109.3" height="4.3"/>
<rect x="182.4" y="183.3" class="st4" width="91.8" height="4.3"/>
<rect x="182.1" y="189" class="st5" width="68.5" height="4.8"/>
<rect x="182.1" y="353.1" width="46.1" height="4.8"/>
<rect x="182.4" y="359.4" class="st0" width="68.6" height="4.3"/>
<rect x="182.4" y="365.4" class="st4" width="108.3" height="4.3"/>
<rect x="182.1" y="371.1" class="st5" width="58.8" height="4.8"/>
<rect x="182.1" y="377.1" class="st6" width="11.7" height="4.8"/>
<rect x="182.1" y="64" width="24.8" height="4.8"/>
<rect x="182.4" y="70.2" class="st0" width="110.8" height="4.3"/>
<rect x="182.4" y="76.2" class="st4" width="86.4" height="4.3"/>
<rect x="182.1" y="82" class="st5" width="34.2" height="4.8"/>
<rect x="182.1" y="87.9" class="st6" width="41" height="4.8"/>
<rect x="182.1" y="243.5" width="34.7" height="4.8"/>
<rect x="182.4" y="249.7" class="st0" width="98.4" height="4.3"/>
<rect x="182.4" y="255.7" class="st4" width="116.4" height="4.3"/>
<rect x="182.1" y="261.4" class="st5" width="28.7" height="4.8"/>
<rect x="182.1" y="267.4" class="st6" width="18.1" height="4.8"/>
<rect x="182.4" y="141.1" class="st0" width="103.7" height="4.3"/>
<rect x="182.4" y="146.6" class="st4" width="157" height="5.2"/>
<rect x="182.1" y="152.8" class="st5" width="30.5" height="4.8"/>
<rect x="182.1" y="158.8" class="st6" width="5" height="4.8"/>
<rect x="182.1" y="317" width="25.2" height="4.8"/>
<rect x="182.4" y="323.2" class="st0" width="32.5" height="4.3"/>
<rect x="182.4" y="329.2" class="st4" width="58.3" height="4.3"/>
<rect x="182.1" y="334.9" class="st5" width="165.4" height="4.8"/>
<rect x="182.1" y="340.9" class="st6" width="11.7" height="4.8"/>
<line class="st12" x1="182.5" y1="52.4" x2="182.5" y2="57.2"/>
<line class="st0" x1="182.4" y1="139.6" x2="182.4" y2="134.8"/>
<line class="st12" x1="182.3" y1="195.2" x2="182.3" y2="199.9"/>
<text transform="matrix(1 0 0 1 339.5896 397.0654)" class="st1 st9">n=5</text>
<text transform="matrix(1 0 0 1 354.3896 397.0654)" class="st1 st9">1</text>
<text transform="matrix(1 0 0 1 354.9275 32.2607)" class="st1 st2">1</text>
<text transform="matrix(1 0 0 1 351.3455 38.2607)" class="st1 st2">16</text>
<text transform="matrix(1 0 0 1 349.8269 44.2607)" class="st1 st2">2</text>
<text transform="matrix(1 0 0 1 353.4269 44.2607)" class="st1 st2">4</text>
<text transform="matrix(1 0 0 1 351.0935 50.2607)" class="st1 st2">10</text>
<text transform="matrix(1 0 0 1 353.3318 56.2607)" class="st1 st2">0</text>
<text transform="matrix(1 0 0 1 353.4392 68.4048)" class="st1 st2">4</text>
<text transform="matrix(1 0 0 1 351.3455 74.4048)" class="st1 st2">19</text>
<text transform="matrix(1 0 0 1 351.2009 80.4048)" class="st1 st2">15</text>
<text transform="matrix(1 0 0 1 353.5837 86.4048)" class="st1 st2">6</text>
<text transform="matrix(1 0 0 1 354.033 92.4048)" class="st1 st2">7</text>
<text transform="matrix(1 0 0 1 351.2019 103.8408)" class="st1 st2">15</text>
<text transform="matrix(1 0 0 1 351.3455 109.8408)" class="st1 st2">19</text>
<text transform="matrix(1 0 0 1 354.033 115.8408)" class="st1 st2">7</text>
<text transform="matrix(1 0 0 1 353.4392 121.8408)" class="st1 st2">4</text>
<text transform="matrix(1 0 0 1 353.5837 127.8408)" class="st1 st2">6</text>
<text transform="matrix(1 0 0 1 353.3318 139.2769)" class="st1 st2">0</text>
<text transform="matrix(1 0 0 1 351.2615 145.2769)" class="st1 st2">18</text>
<text transform="matrix(1 0 0 1 350.3611 151.2769)" class="st1 st2">27</text>
<text transform="matrix(1 0 0 1 353.4392 157.2769)" class="st1 st2">5</text>
<text transform="matrix(1 0 0 1 354.9275 163.2769)" class="st1 st2">1</text>
<text transform="matrix(1 0 0 1 353.4392 174.7129)" class="st1 st2">4</text>
<text transform="matrix(1 0 0 1 351.3455 180.7129)" class="st1 st2">19</text>
<text transform="matrix(1 0 0 1 351.3455 186.7129)" class="st1 st2">16</text>
<text transform="matrix(1 0 0 1 351.2556 192.7129)" class="st1 st2">12</text>
<text transform="matrix(1 0 0 1 353.3308 198.7129)" class="st1 st2">0</text>
<text transform="matrix(1 0 0 1 353.4392 211.5645)" class="st1 st2">4</text>
<text transform="matrix(1 0 0 1 351.7957 217.5645)" class="st1 st2">17</text>
<text transform="matrix(1 0 0 1 351.2615 223.5645)" class="st1 st2">18</text>
<text transform="matrix(1 0 0 1 351.0935 229.5645)" class="st1 st2">10</text>
<text transform="matrix(1 0 0 1 353.4929 235.5645)" class="st1 st2">2</text>
<text transform="matrix(1 0 0 1 353.5837 247.709)" class="st1 st2">6</text>
<text transform="matrix(1 0 0 1 351.7957 253.709)" class="st1 st2">17</text>
<text transform="matrix(1 0 0 1 349.6589 259.709)" class="st1 st2">20</text>
<text transform="matrix(1 0 0 1 353.4392 265.709)" class="st1 st2">5</text>
<text transform="matrix(1 0 0 1 353.5535 271.709)" class="st1 st2">3</text>
<text transform="matrix(1 0 0 1 353.4392 284.5605)" class="st1 st2">4</text>
<text transform="matrix(1 0 0 1 349.821 290.5605)" class="st1 st2">22</text>
<text transform="matrix(1 0 0 1 351.321 296.5605)" class="st1 st2">1</text>
<text transform="matrix(1 0 0 1 353.421 296.5605)" class="st1 st2">4</text>
<text transform="matrix(1 0 0 1 353.4392 302.5605)" class="st1 st2">4</text>
<text transform="matrix(1 0 0 1 354.033 308.5605)" class="st1 st2">7</text>
<text transform="matrix(1 0 0 1 353.4392 321.4131)" class="st1 st2">4</text>
<text transform="matrix(1 0 0 1 353.5837 327.4131)" class="st1 st2">6</text>
<text transform="matrix(1 0 0 1 351.0935 333.4131)" class="st1 st2">10</text>
<text transform="matrix(1 0 0 1 349.7195 339.4131)" class="st1 st2">30</text>
<text transform="matrix(1 0 0 1 353.4929 345.4131)" class="st1 st2">2</text>
<text transform="matrix(1 0 0 1 353.4988 357.5566)" class="st1 st2">8</text>
<text transform="matrix(1 0 0 1 351.2556 363.5566)" class="st1 st2">12</text>
<text transform="matrix(1 0 0 1 351.3455 369.5566)" class="st1 st2">19</text>
<text transform="matrix(1 0 0 1 351.0935 375.5566)" class="st1 st2">10</text>
<text transform="matrix(1 0 0 1 353.4929 381.5566)" class="st1 st2">2</text>
</svg>
