<?xml version="1.0" encoding="utf-8"?>
<!-- Generator: Adobe Illustrator 21.0.0, SVG Export Plug-In . SVG Version: 6.00 Build 0)  -->
<svg version="1.1" id="Layer_1" xmlns="http://www.w3.org/2000/svg" xmlns:xlink="http://www.w3.org/1999/xlink" x="0px" y="0px"
	 viewBox="0 0 357.2 352" style="enable-background:new 0 0 357.2 352;" xml:space="preserve">
<style type="text/css">
	.st0{fill:none;stroke:#000000;stroke-width:0.5;}
	.st1{enable-background:new    ;}
	.st2{fill:#FFFFFF;}
	.st3{fill:none;stroke:#0000FF;stroke-width:0.5;}
	.st4{fill:#0000FF;}
	.st5{clip-path:url(#SVGID_2_);fill:#0000FF;}
	.st6{fill:none;}
	.st7{clip-path:url(#SVGID_4_);fill:#0000FF;}
	.st8{clip-path:url(#SVGID_6_);fill:#0000FF;}
	.st9{clip-path:url(#SVGID_8_);fill:#0000FF;}
	.st10{clip-path:url(#SVGID_10_);fill:#0000FF;}
	.st11{clip-path:url(#SVGID_12_);fill:#0000FF;}
	.st12{clip-path:url(#SVGID_14_);fill:#0000FF;}
</style>
<rect x="0.2" y="7.1" width="5.7" height="5.5"/>
<rect x="0.2" y="7.1" class="st0" width="5.7" height="5.5"/>
<g class="st1">
	<path d="M10.1,11.9H9.6V8.2H8.4V7.7h2.9v0.5h-1.2V11.9z"/>
</g>
<g class="st1">
	<path d="M12.1,8.8h0.5v0.4c0.2-0.3,0.5-0.5,0.7-0.5c0.2,0,0.3,0.1,0.4,0.2l-0.1,0.5c-0.1-0.1-0.2-0.1-0.4-0.1
		c-0.3,0-0.7,0.2-0.7,0.9v1.7h-0.5V8.8z"/>
	<path d="M14.4,8c0-0.2,0.1-0.3,0.3-0.3C14.9,7.6,15,7.8,15,8c0,0.2-0.1,0.3-0.3,0.3C14.5,8.3,14.4,8.1,14.4,8z M14.5,8.8H15v3.1
		h-0.5V8.8z"/>
</g>
<g class="st1">
	<path d="M16.8,11.9h-0.5V9.3h-0.5V8.8h0.5V8.3c0-0.5,0.3-0.7,0.7-0.7c0.2,0,0.4,0.1,0.6,0.1v0.4c-0.2-0.1-0.3-0.1-0.4-0.1
		c-0.3,0-0.3,0.2-0.3,0.3v0.4h0.7v0.5h-0.7V11.9z"/>
</g>
<g class="st1">
	<path d="M18.8,11.9h-0.5V9.3h-0.5V8.8h0.5V8.3c0-0.5,0.3-0.7,0.7-0.7c0.2,0,0.4,0.1,0.6,0.1v0.4c-0.2-0.1-0.3-0.1-0.4-0.1
		c-0.3,0-0.3,0.2-0.3,0.3v0.4h0.7v0.5h-0.7V11.9z"/>
</g>
<g class="st1">
	<path d="M20.4,11.2V9.3h-0.5V8.8h0.5v-1l0.5-0.3v1.3h0.8v0.5h-0.8v1.8c0,0.2,0,0.4,0.3,0.4c0.2,0,0.3-0.1,0.5-0.2l-0.1,0.5
		C21.4,11.9,21.2,12,21,12C20.5,12,20.4,11.7,20.4,11.2z"/>
</g>
<g class="st1">
	<path d="M25.7,11.6C25.5,11.9,25.3,12,25,12c-0.7,0-1.1-0.4-1.1-1.4V8.8h0.5v1.8c0,0.6,0.3,0.8,0.7,0.8c0.4,0,0.7-0.2,0.7-0.8V8.8
		h0.5v3.1h-0.5V11.6z M24.2,8c0-0.2,0.1-0.3,0.3-0.3c0.2,0,0.3,0.1,0.3,0.3s-0.1,0.3-0.3,0.3C24.3,8.3,24.2,8.2,24.2,8z M25.2,8
		c0-0.2,0.1-0.3,0.3-0.3c0.2,0,0.3,0.1,0.3,0.3s-0.1,0.3-0.3,0.3C25.4,8.3,25.2,8.2,25.2,8z"/>
	<path d="M27.8,11.6v0.3h-0.5V7.8l0.5-0.2v1.5c0.2-0.2,0.4-0.3,0.8-0.3c0.8,0,1.3,0.6,1.3,1.6c0,1-0.5,1.6-1.3,1.6
		C28.2,12,28,11.8,27.8,11.6z M29.3,10.4c0-0.7-0.3-1.1-0.8-1.1c-0.3,0-0.6,0.2-0.7,0.4v1.4c0.1,0.3,0.4,0.4,0.7,0.4
		C29,11.5,29.3,11.1,29.3,10.4z"/>
</g>
<g class="st1">
	<path d="M30.5,10.4c0-1,0.5-1.6,1.4-1.6c0.7,0,1.3,0.5,1.3,1.5c0,0.1,0,0.2,0,0.3H31c0,0.6,0.4,0.9,0.8,0.9c0.2,0,0.5-0.1,0.7-0.3
		l0.3,0.4c-0.2,0.2-0.6,0.4-1,0.4C31,12,30.5,11.3,30.5,10.4z M32.6,10.1c0-0.7-0.4-0.9-0.7-0.9c-0.4,0-0.8,0.3-0.8,0.9H32.6z"/>
</g>
<g class="st1">
	<path d="M34,8.8h0.5v0.4c0.2-0.3,0.5-0.5,0.7-0.5c0.2,0,0.3,0.1,0.4,0.2l-0.1,0.5c-0.1-0.1-0.2-0.1-0.4-0.1c-0.3,0-0.7,0.2-0.7,0.9
		v1.7H34V8.8z"/>
	<path d="M36.3,7.8l0.5-0.2v1.6c0.2-0.3,0.5-0.4,0.8-0.4c0.7,0,1.1,0.4,1.1,1.4v1.8h-0.5V10c0-0.6-0.3-0.8-0.7-0.8
		c-0.4,0-0.7,0.2-0.7,0.8v1.9h-0.5V7.8z"/>
	<path d="M41.5,11.6C41.3,11.8,41,12,40.6,12c-0.6,0-1.1-0.3-1.1-1c0-0.7,0.6-1,1.1-1c0.3,0,0.5,0.1,0.8,0.2V9.9
		c0-0.5-0.3-0.7-0.7-0.7c-0.3,0-0.7,0.1-0.9,0.3l-0.1-0.4c0.2-0.2,0.6-0.3,1.1-0.3c0.5,0,1.1,0.2,1.1,1.1v2h-0.5V11.6z M41.5,11.1
		v-0.5c-0.2-0.1-0.5-0.2-0.7-0.2c-0.4,0-0.7,0.2-0.7,0.6c0,0.3,0.2,0.6,0.7,0.6C41,11.5,41.3,11.3,41.5,11.1z"/>
	<path d="M44.7,11.6C44.5,11.9,44.3,12,44,12c-0.7,0-1.1-0.4-1.1-1.4V8.8h0.5v1.8c0,0.6,0.3,0.8,0.7,0.8c0.4,0,0.7-0.2,0.7-0.8V8.8
		h0.5v3.1h-0.5V11.6z"/>
</g>
<g class="st1">
	<path d="M46.9,11.6v1.3l-0.5,0.2V8.8h0.5v0.3c0.2-0.2,0.4-0.3,0.8-0.3c0.8,0,1.3,0.6,1.3,1.6c0,1-0.5,1.6-1.3,1.6
		C47.3,12,47.1,11.8,46.9,11.6z M48.4,10.4c0-0.7-0.3-1.1-0.8-1.1c-0.3,0-0.6,0.1-0.7,0.4v1.4c0.2,0.2,0.4,0.4,0.7,0.4
		C48.1,11.5,48.4,11.1,48.4,10.4z"/>
	<path d="M49.9,11.2V9.3h-0.5V8.8h0.5v-1l0.5-0.3v1.3h0.8v0.5h-0.8v1.8c0,0.2,0,0.4,0.3,0.4c0.2,0,0.3-0.1,0.5-0.2l-0.1,0.5
		C51,11.9,50.8,12,50.6,12C50.1,12,49.9,11.7,49.9,11.2z"/>
</g>
<g class="st1">
	<path d="M55.2,10c0-0.6-0.3-0.8-0.7-0.8c-0.4,0-0.7,0.2-0.7,0.8v1.9h-0.5V8.8h0.5v0.3c0.2-0.3,0.5-0.4,0.8-0.4
		c0.7,0,1.1,0.4,1.1,1.4v1.8h-0.5V10z"/>
</g>
<g class="st1">
	<path d="M56.8,8c0-0.2,0.1-0.3,0.3-0.3c0.2,0,0.3,0.1,0.3,0.3c0,0.2-0.1,0.3-0.3,0.3C57,8.3,56.8,8.1,56.8,8z M56.9,8.8h0.5v3.1
		h-0.5V8.8z"/>
	<path d="M58.2,10.4c0-1,0.5-1.6,1.3-1.6c0.5,0,0.9,0.2,1.1,0.7l-0.5,0.2c-0.1-0.2-0.3-0.4-0.6-0.4c-0.5,0-0.8,0.4-0.8,1.1
		c0,0.7,0.3,1.1,0.7,1.1c0.3,0,0.5-0.2,0.6-0.5l0.5,0.2c-0.1,0.5-0.6,0.8-1.1,0.8C58.7,12,58.2,11.4,58.2,10.4z"/>
</g>
<g class="st1">
	<path d="M61.4,7.8l0.5-0.2v1.6c0.2-0.3,0.5-0.4,0.8-0.4c0.7,0,1.1,0.4,1.1,1.4v1.8h-0.5V10c0-0.6-0.3-0.8-0.7-0.8
		c-0.4,0-0.7,0.2-0.7,0.8v1.9h-0.5V7.8z"/>
</g>
<g class="st1">
	<path d="M65,11.2V9.3h-0.5V8.8H65v-1l0.5-0.3v1.3h0.8v0.5h-0.8v1.8c0,0.2,0,0.4,0.3,0.4c0.2,0,0.3-0.1,0.5-0.2l-0.1,0.5
		C66,11.9,65.8,12,65.6,12C65.1,12,65,11.7,65,11.2z"/>
</g>
<g class="st1">
	<path d="M68.4,11.5L70,9.3h-1.5V8.8h2.1v0.4L69,11.4h1.6v0.5h-2.2V11.5z"/>
</g>
<g class="st1">
	<path d="M73.4,11.6C73.2,11.9,73,12,72.7,12c-0.7,0-1.1-0.4-1.1-1.4V8.8h0.5v1.8c0,0.6,0.3,0.8,0.7,0.8c0.4,0,0.7-0.2,0.7-0.8V8.8
		H74v3.1h-0.5V11.6z"/>
</g>
<rect x="103.6" y="7.2" class="st2" width="5.7" height="5.5"/>
<rect x="103.6" y="7.2" class="st0" width="5.7" height="5.5"/>
<g class="st1">
	<path d="M113.5,11.9H113V8.2h-1.2V7.7h2.9v0.5h-1.2V11.9z"/>
</g>
<g class="st1">
	<path d="M115.5,8.8h0.5v0.4c0.2-0.3,0.5-0.5,0.8-0.5c0.2,0,0.3,0.1,0.4,0.2l-0.1,0.5c-0.1-0.1-0.2-0.1-0.4-0.1
		c-0.3,0-0.7,0.2-0.7,0.9v1.7h-0.5V8.8z"/>
</g>
<g class="st1">
	<path d="M117.8,8c0-0.2,0.1-0.3,0.3-0.3c0.2,0,0.3,0.1,0.3,0.3c0,0.2-0.1,0.3-0.3,0.3C117.9,8.3,117.8,8.1,117.8,8z M117.9,8.8h0.5
		v3.1h-0.5V8.8z"/>
</g>
<g class="st1">
	<path d="M120.2,11.9h-0.5V9.3h-0.5V8.8h0.5V8.3c0-0.5,0.3-0.7,0.7-0.7c0.2,0,0.4,0.1,0.6,0.1v0.4c-0.2-0.1-0.3-0.1-0.4-0.1
		c-0.3,0-0.3,0.2-0.3,0.3v0.4h0.7v0.5h-0.7V11.9z"/>
	<path d="M122.2,11.9h-0.5V9.3h-0.5V8.8h0.5V8.3c0-0.5,0.3-0.7,0.7-0.7c0.2,0,0.4,0.1,0.6,0.1v0.4c-0.2-0.1-0.3-0.1-0.4-0.1
		c-0.3,0-0.3,0.2-0.3,0.3v0.4h0.7v0.5h-0.7V11.9z"/>
</g>
<g class="st1">
	<path d="M123.7,11.2V9.3h-0.5V8.8h0.5v-1l0.5-0.3v1.3h0.8v0.5h-0.8v1.8c0,0.2,0,0.4,0.3,0.4c0.2,0,0.3-0.1,0.5-0.2l-0.1,0.5
		c-0.2,0.1-0.3,0.1-0.6,0.1C123.9,12,123.7,11.7,123.7,11.2z"/>
</g>
<g class="st1">
	<path d="M127.1,10.4c0-1,0.5-1.6,1.4-1.6c0.7,0,1.3,0.5,1.3,1.5c0,0.1,0,0.2,0,0.3h-2.1c0,0.6,0.4,0.9,0.8,0.9
		c0.2,0,0.5-0.1,0.7-0.3l0.3,0.4c-0.2,0.2-0.6,0.4-1,0.4C127.6,12,127.1,11.3,127.1,10.4z M129.2,10.1c0-0.7-0.4-0.9-0.7-0.9
		c-0.4,0-0.8,0.3-0.8,0.9H129.2z"/>
</g>
<g class="st1">
	<path d="M130.5,7.8l0.5-0.2v1.6c0.2-0.3,0.5-0.4,0.8-0.4c0.7,0,1.1,0.4,1.1,1.4v1.8h-0.5V10c0-0.6-0.3-0.8-0.7-0.8
		c-0.4,0-0.7,0.2-0.7,0.8v1.9h-0.5V7.8z"/>
</g>
<g class="st1">
	<path d="M133.7,10.4c0-1,0.5-1.6,1.4-1.6c0.7,0,1.3,0.5,1.3,1.5c0,0.1,0,0.2,0,0.3h-2.1c0,0.6,0.4,0.9,0.8,0.9
		c0.2,0,0.5-0.1,0.7-0.3l0.3,0.4c-0.2,0.2-0.6,0.4-1,0.4C134.2,12,133.7,11.3,133.7,10.4z M135.8,10.1c0-0.7-0.4-0.9-0.7-0.9
		c-0.4,0-0.8,0.3-0.8,0.9H135.8z"/>
</g>
<g class="st1">
	<path d="M137.2,8.8h0.5v0.4c0.2-0.3,0.5-0.5,0.7-0.5c0.2,0,0.3,0.1,0.4,0.2l-0.1,0.5c-0.1-0.1-0.2-0.1-0.4-0.1
		c-0.3,0-0.7,0.2-0.7,0.9v1.7h-0.5V8.8z"/>
</g>
<g class="st1">
	<path d="M142.9,10c0-0.6-0.3-0.8-0.7-0.8c-0.4,0-0.7,0.2-0.7,0.8v1.9H141V8.8h0.5v0.3c0.2-0.3,0.5-0.4,0.8-0.4
		c0.7,0,1.1,0.4,1.1,1.4v1.8h-0.5V10z"/>
</g>
<g class="st1">
	<path d="M144.3,8c0-0.2,0.1-0.3,0.3-0.3c0.2,0,0.3,0.1,0.3,0.3c0,0.2-0.1,0.3-0.3,0.3C144.4,8.3,144.3,8.1,144.3,8z M144.4,8.8h0.5
		v3.1h-0.5V8.8z"/>
	<path d="M145.7,10.4c0-1,0.5-1.6,1.3-1.6c0.5,0,0.9,0.2,1.1,0.7l-0.5,0.2c-0.1-0.2-0.3-0.4-0.6-0.4c-0.5,0-0.8,0.4-0.8,1.1
		c0,0.7,0.3,1.1,0.7,1.1c0.3,0,0.5-0.2,0.6-0.5l0.5,0.2c-0.1,0.5-0.6,0.8-1.1,0.8C146.2,12,145.7,11.4,145.7,10.4z"/>
</g>
<g class="st1">
	<path d="M149,7.8l0.5-0.2v1.6c0.2-0.3,0.5-0.4,0.8-0.4c0.7,0,1.1,0.4,1.1,1.4v1.8h-0.5V10c0-0.6-0.3-0.8-0.7-0.8
		c-0.4,0-0.7,0.2-0.7,0.8v1.9H149V7.8z"/>
</g>
<g class="st1">
	<path d="M152.5,11.2V9.3H152V8.8h0.5v-1l0.5-0.3v1.3h0.8v0.5h-0.8v1.8c0,0.2,0,0.4,0.3,0.4c0.2,0,0.3-0.1,0.5-0.2l-0.1,0.5
		c-0.2,0.1-0.3,0.1-0.6,0.1C152.7,12,152.5,11.7,152.5,11.2z"/>
</g>
<g class="st1">
	<path d="M155.9,11.5l1.6-2.2h-1.5V8.8h2.1v0.4l-1.6,2.2h1.6v0.5h-2.2V11.5z"/>
</g>
<g class="st1">
	<path d="M160.9,11.6c-0.2,0.3-0.5,0.4-0.8,0.4c-0.7,0-1.1-0.4-1.1-1.4V8.8h0.5v1.8c0,0.6,0.3,0.8,0.7,0.8c0.4,0,0.7-0.2,0.7-0.8
		V8.8h0.5v3.1h-0.5V11.6z"/>
</g>
<rect x="206.6" y="7.1" class="st2" width="5.7" height="5.5"/>
<rect x="206.6" y="7.1" class="st3" width="5.7" height="5.5"/>
<g class="st1">
	<path d="M216.5,11.9H216V8.2h-1.2V7.7h2.9v0.5h-1.2V11.9z"/>
</g>
<g class="st1">
	<path d="M218.5,8.8h0.5v0.4c0.2-0.3,0.5-0.5,0.8-0.5c0.2,0,0.3,0.1,0.4,0.2l-0.1,0.5c-0.1-0.1-0.2-0.1-0.4-0.1
		c-0.3,0-0.7,0.2-0.7,0.9v1.7h-0.5V8.8z"/>
</g>
<g class="st1">
	<path d="M220.8,8c0-0.2,0.1-0.3,0.3-0.3c0.2,0,0.3,0.1,0.3,0.3c0,0.2-0.1,0.3-0.3,0.3C221,8.3,220.8,8.1,220.8,8z M220.9,8.8h0.5
		v3.1h-0.5V8.8z"/>
</g>
<g class="st1">
	<path d="M223.2,11.9h-0.5V9.3h-0.5V8.8h0.5V8.3c0-0.5,0.3-0.7,0.7-0.7c0.2,0,0.4,0.1,0.6,0.1v0.4c-0.2-0.1-0.3-0.1-0.4-0.1
		c-0.3,0-0.3,0.2-0.3,0.3v0.4h0.7v0.5h-0.7V11.9z"/>
</g>
<g class="st1">
	<path d="M225.2,11.9h-0.5V9.3h-0.5V8.8h0.5V8.3c0-0.5,0.3-0.7,0.7-0.7c0.2,0,0.4,0.1,0.6,0.1v0.4c-0.2-0.1-0.3-0.1-0.4-0.1
		c-0.3,0-0.3,0.2-0.3,0.3v0.4h0.7v0.5h-0.7V11.9z"/>
</g>
<g class="st1">
	<path d="M226.8,11.2V9.3h-0.5V8.8h0.5v-1l0.5-0.3v1.3h0.8v0.5h-0.8v1.8c0,0.2,0,0.4,0.3,0.4c0.2,0,0.3-0.1,0.5-0.2l-0.1,0.5
		c-0.2,0.1-0.3,0.1-0.6,0.1C226.9,12,226.8,11.7,226.8,11.2z"/>
	<path d="M230,10.4c0-1,0.5-1.6,1.4-1.6c0.7,0,1.3,0.5,1.3,1.5c0,0.1,0,0.2,0,0.3h-2.1c0,0.6,0.4,0.9,0.8,0.9c0.2,0,0.5-0.1,0.7-0.3
		l0.3,0.4c-0.2,0.2-0.6,0.4-1,0.4C230.5,12,230,11.3,230,10.4z M232.1,10.1c0-0.7-0.4-0.9-0.7-0.9c-0.4,0-0.8,0.3-0.8,0.9H232.1z"/>
</g>
<g class="st1">
	<path d="M233.5,7.8l0.5-0.2v1.6c0.2-0.3,0.5-0.4,0.8-0.4c0.7,0,1.1,0.4,1.1,1.4v1.8h-0.5V10c0-0.6-0.3-0.8-0.7-0.8
		c-0.4,0-0.7,0.2-0.7,0.8v1.9h-0.5V7.8z"/>
</g>
<g class="st1">
	<path d="M236.7,10.4c0-1,0.5-1.6,1.4-1.6c0.7,0,1.3,0.5,1.3,1.5c0,0.1,0,0.2,0,0.3h-2.1c0,0.6,0.4,0.9,0.8,0.9
		c0.2,0,0.5-0.1,0.7-0.3l0.3,0.4c-0.2,0.2-0.6,0.4-1,0.4C237.2,12,236.7,11.3,236.7,10.4z M238.8,10.1c0-0.7-0.4-0.9-0.7-0.9
		c-0.4,0-0.8,0.3-0.8,0.9H238.8z"/>
</g>
<g class="st1">
	<path d="M240.2,8.8h0.5v0.4c0.2-0.3,0.5-0.5,0.8-0.5c0.2,0,0.3,0.1,0.4,0.2l-0.1,0.5c-0.1-0.1-0.2-0.1-0.4-0.1
		c-0.3,0-0.7,0.2-0.7,0.9v1.7h-0.5V8.8z"/>
</g>
<g class="st1">
	<path d="M243.9,11.5l1.6-2.2H244V8.8h2.1v0.4l-1.6,2.2h1.6v0.5h-2.2V11.5z"/>
</g>
<g class="st1">
	<path d="M248.9,11.6c-0.2,0.3-0.5,0.4-0.8,0.4c-0.7,0-1.1-0.4-1.1-1.4V8.8h0.5v1.8c0,0.6,0.3,0.8,0.7,0.8c0.4,0,0.7-0.2,0.7-0.8
		V8.8h0.5v3.1h-0.5V11.6z"/>
</g>
<rect x="290.4" y="6.7" class="st4" width="5.7" height="5.5"/>
<rect x="290.4" y="6.7" class="st3" width="5.7" height="5.5"/>
<g class="st1">
	<path d="M300.2,11.9h-0.5V8.2h-1.2V7.7h2.9v0.5h-1.2V11.9z"/>
</g>
<g class="st1">
	<path d="M302.2,8.8h0.5v0.4c0.2-0.3,0.5-0.5,0.7-0.5c0.2,0,0.3,0.1,0.5,0.2l-0.1,0.5c-0.1-0.1-0.2-0.1-0.4-0.1
		c-0.3,0-0.7,0.2-0.7,0.9v1.7h-0.5V8.8z"/>
</g>
<g class="st1">
	<path d="M304.6,8c0-0.2,0.1-0.3,0.3-0.3c0.2,0,0.3,0.1,0.3,0.3c0,0.2-0.1,0.3-0.3,0.3C304.7,8.3,304.6,8.1,304.6,8z M304.6,8.8h0.5
		v3.1h-0.5V8.8z"/>
</g>
<g class="st1">
	<path d="M306.9,11.9h-0.5V9.3h-0.5V8.8h0.5V8.3c0-0.5,0.3-0.7,0.7-0.7c0.2,0,0.4,0.1,0.6,0.1v0.4c-0.2-0.1-0.3-0.1-0.4-0.1
		c-0.3,0-0.3,0.2-0.3,0.3v0.4h0.7v0.5h-0.7V11.9z"/>
</g>
<g class="st1">
	<path d="M308.9,11.9h-0.5V9.3h-0.5V8.8h0.5V8.3c0-0.5,0.3-0.7,0.7-0.7c0.2,0,0.4,0.1,0.6,0.1v0.4c-0.2-0.1-0.3-0.1-0.4-0.1
		c-0.3,0-0.3,0.2-0.3,0.3v0.4h0.7v0.5h-0.7V11.9z"/>
</g>
<g class="st1">
	<path d="M310.5,11.2V9.3H310V8.8h0.5v-1l0.5-0.3v1.3h0.8v0.5H311v1.8c0,0.2,0,0.4,0.3,0.4c0.2,0,0.3-0.1,0.5-0.2l-0.1,0.5
		c-0.2,0.1-0.3,0.1-0.6,0.1C310.7,12,310.5,11.7,310.5,11.2z"/>
	<path d="M313.6,8.8h0.5l0.7,2c0,0.1,0.1,0.2,0.1,0.3c0-0.1,0.1-0.2,0.1-0.3l0.7-2h0.5l-1.1,3.1h-0.4L313.6,8.8z"/>
	<path d="M316.8,10.4c0-1,0.5-1.6,1.4-1.6s1.4,0.6,1.4,1.6c0,1-0.5,1.6-1.4,1.6S316.8,11.4,316.8,10.4z M319,10.4
		c0-0.7-0.3-1.1-0.8-1.1s-0.8,0.4-0.8,1.1c0,0.7,0.3,1.1,0.8,1.1C318.7,11.5,319,11.1,319,10.4z"/>
</g>
<g class="st1">
	<path d="M320.5,7.8l0.5-0.2v4.3h-0.5V7.8z"/>
</g>
<g class="st1">
	<path d="M322.1,7.8l0.5-0.2v4.3h-0.5V7.8z"/>
</g>
<g class="st1">
	<path d="M327,11.6c-0.2,0.3-0.5,0.4-0.8,0.4c-0.7,0-1.1-0.4-1.1-1.4V8.8h0.5v1.8c0,0.6,0.3,0.8,0.7,0.8c0.4,0,0.7-0.2,0.7-0.8V8.8
		h0.5v3.1H327V11.6z"/>
	<path d="M330.4,10c0-0.6-0.3-0.8-0.7-0.8c-0.4,0-0.7,0.2-0.7,0.8v1.9h-0.5V8.8h0.5v0.3c0.2-0.3,0.5-0.4,0.8-0.4
		c0.7,0,1.1,0.4,1.1,1.4v1.8h-0.5V10z"/>
</g>
<g class="st1">
	<path d="M331.7,10.4c0-1,0.5-1.6,1.3-1.6c0.4,0,0.6,0.1,0.8,0.3V7.8l0.5-0.2v4.3h-0.5v-0.2c-0.2,0.2-0.4,0.3-0.8,0.3
		C332.2,12,331.7,11.4,331.7,10.4z M333.8,11.1V9.6c-0.1-0.2-0.3-0.4-0.7-0.4c-0.5,0-0.8,0.4-0.8,1.1c0,0.6,0.3,1.1,0.8,1.1
		C333.4,11.5,333.6,11.3,333.8,11.1z"/>
</g>
<g class="st1">
	<path d="M337.4,12.7c0.9-0.1,1.2-0.4,1.2-0.8v-0.4c-0.2,0.2-0.4,0.4-0.8,0.4c-0.7,0-1.3-0.5-1.3-1.6c0-1,0.5-1.6,1.3-1.6
		c0.4,0,0.7,0.2,0.8,0.3V8.8h0.5v2.9c0,1-0.6,1.3-1.4,1.4L337.4,12.7z M338.6,11.1V9.6c-0.1-0.3-0.4-0.4-0.7-0.4
		c-0.5,0-0.8,0.4-0.8,1.1c0,0.7,0.3,1.1,0.8,1.1C338.1,11.5,338.4,11.3,338.6,11.1z"/>
	<path d="M341.8,11.6c-0.2,0.2-0.5,0.4-0.9,0.4c-0.6,0-1.1-0.3-1.1-1c0-0.7,0.6-1,1.1-1c0.3,0,0.5,0.1,0.8,0.2V9.9
		c0-0.5-0.3-0.7-0.7-0.7c-0.3,0-0.7,0.1-0.9,0.3l-0.1-0.4c0.2-0.2,0.6-0.3,1.1-0.3c0.5,0,1.1,0.2,1.1,1.1v2h-0.5V11.6z M341.8,11.1
		v-0.5c-0.2-0.1-0.5-0.2-0.7-0.2c-0.4,0-0.7,0.2-0.7,0.6c0,0.3,0.2,0.6,0.7,0.6C341.4,11.5,341.7,11.3,341.8,11.1z"/>
	<path d="M345.1,10c0-0.6-0.3-0.8-0.7-0.8c-0.4,0-0.7,0.2-0.7,0.8v1.9h-0.5V8.8h0.5v0.3c0.2-0.3,0.5-0.4,0.8-0.4
		c0.7,0,1.1,0.4,1.1,1.4v1.8h-0.5V10z"/>
	<path d="M346.5,11.5l1.6-2.2h-1.5V8.8h2.1v0.4l-1.6,2.2h1.6v0.5h-2.2V11.5z"/>
</g>
<g class="st1">
	<path d="M351,11.5l1.6-2.2h-1.5V8.8h2.1v0.4l-1.6,2.2h1.6v0.5H351V11.5z"/>
</g>
<g class="st1">
	<path d="M356.1,11.6c-0.2,0.3-0.5,0.4-0.8,0.4c-0.7,0-1.1-0.4-1.1-1.4V8.8h0.5v1.8c0,0.6,0.3,0.8,0.7,0.8c0.4,0,0.7-0.2,0.7-0.8
		V8.8h0.5v3.1h-0.5V11.6z"/>
</g>
<g>
	<g>
		<g>
			<defs>
				<line id="SVGID_1_" x1="-59.5" y1="449" x2="864.6" y2="449"/>
			</defs>
			<clipPath id="SVGID_2_">
				<use xlink:href="#SVGID_1_"  style="overflow:visible;"/>
			</clipPath>
			<path class="st5" d="M2.8,35.9c1.4,0,2.6-1.2,2.6-2.6c0-1.4-1.2-2.6-2.6-2.6s-2.6,1.2-2.6,2.6C0.2,34.7,1.4,35.9,2.8,35.9"/>
		</g>
	</g>
</g>
<rect x="0.7" y="29.1" class="st6" width="40.3" height="9"/>
<g class="st1">
	<path d="M4.6,34.5H2.3l-0.5,1.4H1.1l2-5.6h0.6l2,5.6H5L4.6,34.5z M3.6,31.8c-0.1-0.2-0.1-0.4-0.2-0.6c0,0.1-0.1,0.4-0.2,0.6
		l-0.7,2.1h1.8L3.6,31.8z"/>
	<path d="M6.9,30.5l0.7-0.3v5.8H6.9V30.5z"/>
	<path d="M9,30.5l0.7-0.3v5.8H9V30.5z"/>
	<path d="M11.9,37c1.3-0.1,1.6-0.5,1.6-1v-0.5C13.3,35.8,13,36,12.5,36c-0.9,0-1.7-0.7-1.7-2.1c0-1.3,0.7-2.1,1.7-2.1
		c0.6,0,0.9,0.3,1,0.4v-0.3h0.7v3.9c0,1.3-0.8,1.8-1.9,1.8L11.9,37z M13.5,34.8v-1.9c-0.2-0.3-0.6-0.5-0.9-0.5
		c-0.7,0-1.1,0.5-1.1,1.5c0,0.9,0.5,1.5,1.1,1.5C12.9,35.3,13.3,35.1,13.5,34.8z"/>
	<path d="M15.3,33.9c0-1.4,0.7-2.1,1.8-2.1c0.9,0,1.7,0.6,1.7,1.9c0,0.1,0,0.3,0,0.5H16c0.1,0.8,0.5,1.2,1.1,1.2
		c0.3,0,0.6-0.1,0.9-0.4l0.4,0.5c-0.3,0.3-0.8,0.5-1.3,0.5C16,36,15.3,35.1,15.3,33.9z M18.1,33.5c0-0.9-0.6-1.2-1-1.2
		c-0.6,0-1.1,0.4-1.1,1.2H18.1z"/>
	<path d="M24.6,33.4c0-0.6-0.2-1.1-0.8-1.1c-0.5,0-0.9,0.4-0.9,1.1v2.5h-0.7v-2.5c0-0.6-0.2-1.1-0.8-1.1c-0.5,0-0.9,0.4-0.9,1.1v2.5
		h-0.7v-4.1h0.7v0.4c0.2-0.3,0.6-0.5,1.1-0.5c0.4,0,0.9,0.2,1.1,0.6c0.2-0.4,0.7-0.6,1.2-0.6c0.8,0,1.4,0.5,1.4,1.5v2.7h-0.7V33.4z"
		/>
	<path d="M26.4,33.9c0-1.4,0.7-2.1,1.8-2.1c0.9,0,1.7,0.6,1.7,1.9c0,0.1,0,0.3,0,0.5h-2.8c0.1,0.8,0.5,1.2,1.1,1.2
		c0.3,0,0.6-0.1,0.9-0.4l0.4,0.5c-0.3,0.3-0.8,0.5-1.3,0.5C27.1,36,26.4,35.1,26.4,33.9z M29.2,33.5c0-0.9-0.6-1.2-1-1.2
		c-0.6,0-1.1,0.4-1.1,1.2H29.2z"/>
	<path d="M30.8,30.6c0-0.2,0.2-0.4,0.4-0.4c0.2,0,0.4,0.2,0.4,0.4c0,0.2-0.2,0.4-0.4,0.4C31,31.1,30.8,30.9,30.8,30.6z M30.9,31.8
		h0.7v4.1h-0.7V31.8z"/>
	<path d="M35.5,33.4c0-0.8-0.4-1.1-0.9-1.1c-0.5,0-0.9,0.3-0.9,1.1v2.5h-0.7v-4.1h0.7v0.4c0.3-0.4,0.6-0.5,1.1-0.5
		c0.9,0,1.5,0.5,1.5,1.8v2.4h-0.7V33.4z"/>
	<path d="M37.2,33.9c0-1.4,0.7-2.1,1.8-2.1c0.9,0,1.7,0.6,1.7,1.9c0,0.1,0,0.3,0,0.5h-2.8c0.1,0.8,0.5,1.2,1.1,1.2
		c0.3,0,0.6-0.1,0.9-0.4l0.4,0.5C40,35.8,39.6,36,39,36C37.9,36,37.2,35.1,37.2,33.9z M40,33.5c0-0.9-0.6-1.2-1-1.2
		c-0.6,0-1.1,0.4-1.1,1.2H40z"/>
</g>
<rect x="41.1" y="29.1" class="st6" width="1.8" height="9"/>
<rect x="42.6" y="29.1" class="st6" width="81.4" height="9"/>
<g class="st1">
	<path d="M46.5,34.5h-2.2l-0.5,1.4H43l2-5.6h0.6l2,5.6h-0.7L46.5,34.5z M45.5,31.8c-0.1-0.2-0.1-0.4-0.2-0.6c0,0.1-0.1,0.4-0.2,0.6
		l-0.7,2.1h1.8L45.5,31.8z"/>
	<path d="M48.7,31.8h0.7v0.5c0.2-0.4,0.6-0.6,1-0.6c0.2,0,0.4,0.1,0.6,0.2l-0.1,0.7c-0.1-0.1-0.3-0.2-0.6-0.2
		c-0.4,0-0.9,0.3-0.9,1.2v2.3h-0.7V31.8z"/>
	<path d="M52.6,35.5v0.4h-0.7v-5.4l0.7-0.3v2c0.2-0.3,0.6-0.4,1-0.4c1,0,1.7,0.8,1.7,2.1c0,1.4-0.6,2.1-1.7,2.1
		C53.1,36,52.8,35.8,52.6,35.5z M54.6,33.9c0-1-0.4-1.5-1.1-1.5c-0.5,0-0.8,0.3-1,0.5v1.9c0.2,0.3,0.6,0.6,1,0.6
		C54.2,35.3,54.6,34.8,54.6,33.9z"/>
	<path d="M56.2,33.9c0-1.4,0.7-2.1,1.8-2.1c0.9,0,1.7,0.6,1.7,1.9c0,0.1,0,0.3,0,0.5h-2.8c0.1,0.8,0.5,1.2,1.1,1.2
		c0.3,0,0.6-0.1,0.9-0.4l0.4,0.5C59,35.8,58.5,36,58,36C56.8,36,56.2,35.1,56.2,33.9z M58.9,33.5c0-0.9-0.6-1.2-1-1.2
		c-0.6,0-1.1,0.4-1.1,1.2H58.9z"/>
	<path d="M60.6,30.6c0-0.2,0.2-0.4,0.4-0.4c0.2,0,0.4,0.2,0.4,0.4c0,0.2-0.2,0.4-0.4,0.4C60.8,31.1,60.6,30.9,60.6,30.6z M60.7,31.8
		h0.7v4.1h-0.7V31.8z"/>
	<path d="M63,35v-2.6h-0.7v-0.6H63v-1.4l0.7-0.3v1.7h1v0.6h-1v2.4c0,0.3,0.1,0.6,0.4,0.6c0.2,0,0.4-0.1,0.6-0.2l-0.1,0.7
		c-0.2,0.1-0.5,0.2-0.8,0.2C63.2,36,63,35.6,63,35z"/>
	<path d="M65.4,35.3l0.5-0.4c0.2,0.2,0.6,0.5,1,0.5c0.4,0,0.8-0.2,0.8-0.5c0-0.4-0.5-0.6-0.9-0.8c-0.8-0.3-1.3-0.6-1.3-1.3
		c0-0.7,0.6-1.1,1.4-1.1c0.6,0,1.1,0.3,1.4,0.6l-0.5,0.4c-0.2-0.2-0.5-0.4-0.9-0.4c-0.4,0-0.7,0.2-0.7,0.5c0,0.3,0.4,0.5,0.9,0.7
		c0.7,0.3,1.3,0.6,1.3,1.4c0,0.7-0.6,1.2-1.5,1.2C66.3,36,65.8,35.7,65.4,35.3z"/>
	<path d="M69.2,33.9c0-1.3,0.7-2.1,1.8-2.1c1.1,0,1.8,0.8,1.8,2.1c0,1.3-0.7,2.1-1.8,2.1C69.9,36,69.2,35.2,69.2,33.9z M72.1,33.9
		c0-0.9-0.4-1.5-1.1-1.5c-0.7,0-1.1,0.6-1.1,1.5c0,0.9,0.4,1.5,1.1,1.5C71.7,35.3,72.1,34.8,72.1,33.9z"/>
	<path d="M73.9,31.8h0.7v0.5c0.2-0.4,0.6-0.6,1-0.6c0.2,0,0.4,0.1,0.6,0.2l-0.1,0.7c-0.1-0.1-0.3-0.2-0.6-0.2
		c-0.4,0-0.9,0.3-0.9,1.2v2.3h-0.7V31.8z"/>
	<path d="M78,37c1.3-0.1,1.6-0.5,1.6-1v-0.5C79.3,35.8,79,36,78.5,36c-0.9,0-1.7-0.7-1.7-2.1c0-1.3,0.7-2.1,1.7-2.1
		c0.6,0,0.9,0.3,1,0.4v-0.3h0.7v3.9c0,1.3-0.8,1.8-1.9,1.8L78,37z M79.6,34.8v-1.9c-0.2-0.3-0.6-0.5-0.9-0.5c-0.7,0-1.1,0.5-1.1,1.5
		c0,0.9,0.5,1.5,1.1,1.5C79,35.3,79.4,35.1,79.6,34.8z"/>
	<path d="M83.9,35.5c-0.3,0.3-0.7,0.5-1.2,0.5c-0.8,0-1.4-0.5-1.4-1.4c0-0.9,0.7-1.4,1.5-1.4c0.4,0,0.7,0.1,1.1,0.3v-0.3
		c0-0.7-0.4-0.9-0.9-0.9c-0.5,0-0.9,0.2-1.2,0.4l-0.2-0.6c0.3-0.2,0.9-0.4,1.5-0.4c0.6,0,1.5,0.2,1.5,1.5v2.7h-0.7V35.5z M83.9,34.8
		v-0.7c-0.2-0.2-0.6-0.3-1-0.3c-0.5,0-1,0.2-1,0.8c0,0.5,0.3,0.8,0.9,0.8C83.3,35.4,83.7,35.1,83.9,34.8z"/>
	<path d="M88.3,33.4c0-0.8-0.4-1.1-0.9-1.1c-0.5,0-0.9,0.3-0.9,1.1v2.5h-0.7v-4.1h0.7v0.4c0.3-0.4,0.6-0.5,1.1-0.5
		c0.9,0,1.5,0.5,1.5,1.8v2.4h-0.7V33.4z"/>
	<path d="M90.2,30.6c0-0.2,0.2-0.4,0.4-0.4c0.2,0,0.4,0.2,0.4,0.4c0,0.2-0.2,0.4-0.4,0.4C90.4,31.1,90.2,30.9,90.2,30.6z M90.3,31.8
		H91v4.1h-0.7V31.8z"/>
	<path d="M92.1,35.3l0.5-0.4c0.2,0.2,0.6,0.5,1,0.5c0.4,0,0.8-0.2,0.8-0.5c0-0.4-0.5-0.6-0.9-0.8c-0.8-0.3-1.3-0.6-1.3-1.3
		c0-0.7,0.6-1.1,1.4-1.1c0.6,0,1.1,0.3,1.4,0.6l-0.5,0.4c-0.2-0.2-0.5-0.4-0.9-0.4c-0.4,0-0.7,0.2-0.7,0.5c0,0.3,0.4,0.5,0.9,0.7
		c0.7,0.3,1.3,0.6,1.3,1.4c0,0.7-0.6,1.2-1.5,1.2C92.9,36,92.4,35.7,92.1,35.3z"/>
	<path d="M98.4,35.5c-0.3,0.3-0.7,0.5-1.2,0.5c-0.8,0-1.4-0.5-1.4-1.4c0-0.9,0.7-1.4,1.5-1.4c0.4,0,0.7,0.1,1.1,0.3v-0.3
		c0-0.7-0.4-0.9-0.9-0.9c-0.5,0-0.9,0.2-1.2,0.4l-0.2-0.6c0.3-0.2,0.9-0.4,1.5-0.4c0.6,0,1.5,0.2,1.5,1.5v2.7h-0.7V35.5z M98.4,34.8
		v-0.7c-0.2-0.2-0.6-0.3-1-0.3c-0.5,0-1,0.2-1,0.8c0,0.5,0.3,0.8,0.9,0.8C97.8,35.4,98.2,35.1,98.4,34.8z"/>
	<path d="M100.5,35v-2.6h-0.7v-0.6h0.7v-1.4l0.7-0.3v1.7h1v0.6h-1v2.4c0,0.3,0.1,0.6,0.4,0.6c0.2,0,0.4-0.1,0.6-0.2l-0.1,0.7
		c-0.2,0.1-0.5,0.2-0.8,0.2C100.8,36,100.5,35.6,100.5,35z"/>
	<path d="M103.2,30.6c0-0.2,0.2-0.4,0.4-0.4c0.2,0,0.4,0.2,0.4,0.4c0,0.2-0.2,0.4-0.4,0.4C103.4,31.1,103.2,30.9,103.2,30.6z
		 M103.3,31.8h0.7v4.1h-0.7V31.8z"/>
	<path d="M105.1,33.9c0-1.3,0.7-2.1,1.8-2.1c1.1,0,1.8,0.8,1.8,2.1c0,1.3-0.7,2.1-1.8,2.1C105.8,36,105.1,35.2,105.1,33.9z
		 M108,33.9c0-0.9-0.4-1.5-1.1-1.5c-0.7,0-1.1,0.6-1.1,1.5c0,0.9,0.4,1.5,1.1,1.5C107.6,35.3,108,34.8,108,33.9z"/>
	<path d="M112.3,33.4c0-0.8-0.4-1.1-0.9-1.1c-0.5,0-0.9,0.3-0.9,1.1v2.5h-0.7v-4.1h0.7v0.4c0.3-0.4,0.6-0.5,1.1-0.5
		c0.9,0,1.5,0.5,1.5,1.8v2.4h-0.7V33.4z"/>
	<path d="M116.1,33.6c0-1.7,0.5-2.8,1.1-3.4h0.7c-0.3,0.4-1,1.7-1,3.4c0,1.8,0.7,3,1,3.3h-0.7C116.6,36.3,116.1,35.3,116.1,33.6z"/>
	<path d="M118.7,35.4l2.1-3h-2v-0.6h2.8v0.5l-2.1,3h2.1v0.6h-3V35.4z"/>
	<path d="M122.6,35.5c0-0.3,0.2-0.6,0.6-0.6s0.6,0.3,0.6,0.6c0,0.3-0.2,0.5-0.6,0.5S122.6,35.7,122.6,35.5z"/>
</g>
<rect x="124" y="29.1" class="st6" width="5.2" height="9"/>
<g class="st1">
	<path d="M126.8,30.3c1.3,0,1.7,0.7,1.7,1.5c0,0.5-0.3,0.9-0.8,1.2c0.6,0.2,1,0.7,1,1.3c0,0.8-0.4,1.6-1.8,1.6h-2.1v-5.6H126.8z
		 M127.9,31.8c0-0.4-0.2-0.9-1-0.9h-1.3v1.7h1.2C127.5,32.7,127.9,32.3,127.9,31.8z M128.1,34.3c0-0.5-0.3-1-1.3-1h-1.2v2h1.5
		C127.8,35.3,128.1,34.8,128.1,34.3z"/>
</g>
<rect x="129.2" y="29.1" class="st6" width="31.7" height="9"/>
<g class="st1">
	<path d="M129.6,35.5c0-0.3,0.2-0.6,0.6-0.6s0.6,0.3,0.6,0.6c0,0.3-0.2,0.5-0.6,0.5S129.6,35.7,129.6,35.5z"/>
	<path d="M135.2,30.3c1.9,0,2.6,1.4,2.6,2.8c0,1.3-0.6,2.8-2.6,2.8h-1.5v-5.6H135.2z M137.1,33.1c0-1.1-0.5-2.2-1.7-2.2h-1v4.3h0.9
		C136.6,35.2,137.1,34.1,137.1,33.1z"/>
	<path d="M138.8,33.9c0-1.3,0.7-2.1,1.8-2.1c1.1,0,1.8,0.8,1.8,2.1c0,1.3-0.7,2.1-1.8,2.1C139.5,36,138.8,35.2,138.8,33.9z
		 M141.7,33.9c0-0.9-0.4-1.5-1.1-1.5c-0.7,0-1.1,0.6-1.1,1.5c0,0.9,0.4,1.5,1.1,1.5C141.3,35.3,141.7,34.8,141.7,33.9z"/>
	<path d="M143.2,33.9c0-1.3,0.7-2.1,1.8-2.1c1.1,0,1.8,0.8,1.8,2.1c0,1.3-0.7,2.1-1.8,2.1C143.9,36,143.2,35.2,143.2,33.9z
		 M146.1,33.9c0-0.9-0.4-1.5-1.1-1.5c-0.7,0-1.1,0.6-1.1,1.5c0,0.9,0.4,1.5,1.1,1.5C145.7,35.3,146.1,34.8,146.1,33.9z"/>
	<path d="M147.7,33.9c0-1.3,0.7-2.1,1.7-2.1c0.5,0,0.8,0.2,1,0.4v-1.6l0.7-0.3v5.8h-0.7v-0.3c-0.2,0.2-0.5,0.4-1,0.4
		C148.3,36,147.7,35.2,147.7,33.9z M150.4,34.8v-1.9c-0.2-0.2-0.5-0.5-0.9-0.5c-0.7,0-1.1,0.5-1.1,1.5c0,0.8,0.4,1.5,1.1,1.5
		C149.9,35.3,150.2,35.1,150.4,34.8z"/>
	<path d="M152.5,30.5l0.7-0.3v5.8h-0.7V30.5z"/>
	<path d="M154.3,33.9c0-1.4,0.7-2.1,1.8-2.1c0.9,0,1.7,0.6,1.7,1.9c0,0.1,0,0.3,0,0.5H155c0.1,0.8,0.5,1.2,1.1,1.2
		c0.3,0,0.6-0.1,0.9-0.4l0.4,0.5c-0.3,0.3-0.8,0.5-1.3,0.5C155,36,154.3,35.1,154.3,33.9z M157.1,33.5c0-0.9-0.6-1.2-1-1.2
		c-0.6,0-1.1,0.4-1.1,1.2H157.1z"/>
	<path d="M159.6,33.6c0-1.8-0.8-3.1-1-3.4h0.7c0.5,0.6,1.1,1.8,1.1,3.4s-0.5,2.7-1,3.3h-0.7C158.9,36.6,159.6,35.4,159.6,33.6z"/>
</g>
<g>
	<g>
		<g>
			<defs>
				<line id="SVGID_3_" x1="-59.5" y1="449" x2="864.6" y2="449"/>
			</defs>
			<clipPath id="SVGID_4_">
				<use xlink:href="#SVGID_3_"  style="overflow:visible;"/>
			</clipPath>
			<path class="st7" d="M2.8,77.9c1.4,0,2.6-1.2,2.6-2.6s-1.2-2.6-2.6-2.6s-2.6,1.2-2.6,2.6C0.2,76.7,1.4,77.9,2.8,77.9"/>
		</g>
	</g>
</g>
<g class="st1">
	<path d="M4.6,76.5H2.3l-0.5,1.4H1.1l2-5.6h0.6l2,5.6H5L4.6,76.5z M3.6,73.8c-0.1-0.2-0.1-0.4-0.2-0.6c0,0.1-0.1,0.4-0.2,0.6
		l-0.7,2.1h1.8L3.6,73.8z"/>
</g>
<g class="st1">
	<path d="M9.3,77.5C9,77.9,8.7,78,8.2,78c-1,0-1.5-0.5-1.5-1.8v-2.4h0.7v2.5c0,0.8,0.4,1.1,0.9,1.1c0.5,0,0.9-0.3,0.9-1.1v-2.5H10
		v4.1H9.3V77.5z"/>
</g>
<g class="st1">
	<path d="M12.2,77.9h-0.7v-3.5h-0.6v-0.6h0.6v-0.7c0-0.7,0.4-0.9,0.9-0.9c0.3,0,0.6,0.1,0.8,0.2V73c-0.2-0.1-0.4-0.2-0.6-0.2
		c-0.3,0-0.4,0.2-0.4,0.4v0.6h1v0.6h-1V77.9z"/>
</g>
<g class="st1">
	<path d="M14.8,79c1.3-0.1,1.6-0.5,1.6-1v-0.5c-0.2,0.3-0.6,0.5-1.1,0.5c-0.9,0-1.7-0.7-1.7-2.1c0-1.3,0.7-2.1,1.7-2.1
		c0.6,0,0.9,0.3,1,0.4v-0.3h0.7v3.9c0,1.3-0.8,1.8-1.9,1.8L14.8,79z M16.4,76.8v-1.9c-0.2-0.3-0.6-0.5-0.9-0.5
		c-0.7,0-1.1,0.5-1.1,1.5c0,0.9,0.5,1.5,1.1,1.5C15.8,77.3,16.2,77.1,16.4,76.8z"/>
	<path d="M20.7,77.5c-0.3,0.3-0.7,0.5-1.2,0.5c-0.8,0-1.4-0.5-1.4-1.4c0-0.9,0.7-1.4,1.5-1.4c0.4,0,0.7,0.1,1.1,0.3v-0.3
		c0-0.7-0.4-0.9-0.9-0.9c-0.5,0-0.9,0.2-1.2,0.4l-0.2-0.6c0.3-0.2,0.9-0.4,1.5-0.4c0.6,0,1.5,0.2,1.5,1.5v2.7h-0.7V77.5z M20.7,76.8
		v-0.7c-0.2-0.2-0.6-0.3-1-0.3c-0.5,0-1,0.2-1,0.8c0,0.5,0.3,0.8,0.9,0.8C20.1,77.4,20.5,77.1,20.7,76.8z"/>
	<path d="M23.3,77.5v0.4h-0.7v-5.4l0.7-0.3v2c0.2-0.3,0.6-0.4,1-0.4c1,0,1.7,0.8,1.7,2.1c0,1.4-0.6,2.1-1.7,2.1
		C23.8,78,23.5,77.8,23.3,77.5z M25.3,75.9c0-1-0.4-1.5-1.1-1.5c-0.5,0-0.8,0.3-1,0.5v1.9c0.2,0.3,0.6,0.6,1,0.6
		C25,77.3,25.3,76.8,25.3,75.9z"/>
	<path d="M26.9,75.9c0-1.4,0.7-2.1,1.8-2.1c0.9,0,1.7,0.6,1.7,1.9c0,0.1,0,0.3,0,0.5h-2.8c0.1,0.8,0.5,1.2,1.1,1.2
		c0.3,0,0.6-0.1,0.9-0.4l0.4,0.5c-0.3,0.3-0.8,0.5-1.3,0.5C27.6,78,26.9,77.1,26.9,75.9z M29.7,75.5c0-0.9-0.6-1.2-1-1.2
		c-0.6,0-1.1,0.4-1.1,1.2H29.7z"/>
	<path d="M33.9,75.4c0-0.8-0.4-1.1-0.9-1.1c-0.5,0-0.9,0.3-0.9,1.1v2.5h-0.7v-4.1h0.7v0.4c0.3-0.4,0.6-0.5,1.1-0.5
		c0.9,0,1.5,0.5,1.5,1.8v2.4h-0.7V75.4z"/>
	<path d="M35.9,75.2h1.9v0.7h-1.9V75.2z"/>
	<path d="M43.4,77.5c-0.3,0.4-0.6,0.5-1,0.5c-1,0-1.5-0.5-1.5-1.8v-2.4h0.7v2.5c0,0.8,0.4,1.1,0.9,1.1c0.5,0,0.9-0.3,0.9-1.1v-2.5
		h0.7v4.1h-0.7V77.5z"/>
	<path d="M48,75.4c0-0.8-0.4-1.1-0.9-1.1c-0.5,0-0.9,0.3-0.9,1.1v2.5h-0.7v-4.1h0.7v0.4c0.3-0.4,0.6-0.5,1.1-0.5
		c0.9,0,1.5,0.5,1.5,1.8v2.4H48V75.4z"/>
	<path d="M49.7,75.9c0-1.3,0.7-2.1,1.7-2.1c0.5,0,0.8,0.2,1,0.4v-1.6l0.7-0.3v5.8h-0.7v-0.3c-0.2,0.2-0.5,0.4-1,0.4
		C50.4,78,49.7,77.2,49.7,75.9z M52.4,76.8v-1.9c-0.2-0.2-0.5-0.5-0.9-0.5c-0.7,0-1.1,0.5-1.1,1.5c0,0.8,0.4,1.5,1.1,1.5
		C51.9,77.3,52.2,77.1,52.4,76.8z"/>
	<path d="M56.4,72.3h2.1c1.4,0,1.8,0.8,1.8,1.7c0,0.8-0.5,1.7-1.8,1.7h-1.4v2.2h-0.7V72.3z M59.7,74c0-0.4-0.2-1-1.1-1h-1.5V75h1.5
		C59.4,75,59.7,74.5,59.7,74z"/>
	<path d="M61.3,73.8H62v0.5c0.2-0.4,0.6-0.6,1-0.6c0.2,0,0.4,0.1,0.6,0.2l-0.1,0.7c-0.1-0.1-0.3-0.2-0.6-0.2c-0.4,0-0.9,0.3-0.9,1.2
		v2.3h-0.7V73.8z"/>
	<path d="M64.3,75.9c0-1.3,0.7-2.1,1.8-2.1c1.1,0,1.8,0.8,1.8,2.1c0,1.3-0.7,2.1-1.8,2.1C65,78,64.3,77.2,64.3,75.9z M67.2,75.9
		c0-0.9-0.4-1.5-1.1-1.5c-0.7,0-1.1,0.6-1.1,1.5c0,0.9,0.4,1.5,1.1,1.5C66.7,77.3,67.2,76.8,67.2,75.9z"/>
	<path d="M67.9,79.1c0.8-0.1,1-0.4,1-0.9v-4.4h0.7v4.1c0,0.4-0.1,0.8-0.3,1.1c-0.3,0.4-0.7,0.5-1.1,0.6L67.9,79.1z M68.9,72.6
		c0-0.2,0.2-0.4,0.4-0.4s0.4,0.2,0.4,0.4c0,0.2-0.2,0.4-0.4,0.4S68.9,72.9,68.9,72.6z"/>
	<path d="M70.7,75.9c0-1.4,0.7-2.1,1.8-2.1c0.9,0,1.7,0.6,1.7,1.9c0,0.1,0,0.3,0,0.5h-2.8c0.1,0.8,0.5,1.2,1.1,1.2
		c0.3,0,0.6-0.1,0.9-0.4l0.4,0.5c-0.3,0.3-0.8,0.5-1.3,0.5C71.4,78,70.7,77.1,70.7,75.9z M73.5,75.5c0-0.9-0.6-1.2-1-1.2
		c-0.6,0-1.1,0.4-1.1,1.2H73.5z"/>
</g>
<g class="st1">
	<path d="M77.9,77.9l-1.3-2.5L76,76.1v1.8h-0.7v-5.4l0.7-0.3v3.1l1.3-1.4h0.8l-1.1,1.1l1.5,3H77.9z"/>
</g>
<g class="st1">
	<path d="M79.7,77v-2.6h-0.7v-0.6h0.7v-1.4l0.7-0.3v1.7h1v0.6h-1v2.4c0,0.3,0.1,0.6,0.4,0.6c0.2,0,0.4-0.1,0.6-0.2l-0.1,0.7
		c-0.2,0.1-0.5,0.2-0.8,0.2C80,78,79.7,77.6,79.7,77z"/>
	<path d="M83.2,77.5v1.7l-0.7,0.3v-5.7h0.7v0.3c0.2-0.2,0.5-0.4,1-0.4c1,0,1.7,0.8,1.7,2.1c0,1.4-0.7,2.1-1.7,2.1
		C83.7,78,83.4,77.8,83.2,77.5z M85.2,75.9c0-0.9-0.4-1.5-1.1-1.5c-0.4,0-0.8,0.2-1,0.6v1.9c0.2,0.3,0.5,0.6,1,0.6
		C84.8,77.3,85.2,76.8,85.2,75.9z"/>
	<path d="M87,72.5l0.7-0.3v5.8H87V72.5z"/>
	<path d="M91.4,77.5c-0.3,0.3-0.7,0.5-1.2,0.5c-0.8,0-1.4-0.5-1.4-1.4c0-0.9,0.7-1.4,1.5-1.4c0.4,0,0.7,0.1,1.1,0.3v-0.3
		c0-0.7-0.4-0.9-0.9-0.9c-0.5,0-0.9,0.2-1.2,0.4l-0.2-0.6c0.3-0.2,0.9-0.4,1.5-0.4c0.6,0,1.5,0.2,1.5,1.5v2.7h-0.7V77.5z M91.4,76.8
		v-0.7c-0.2-0.2-0.6-0.3-1-0.3c-0.5,0-1,0.2-1,0.8c0,0.5,0.3,0.8,0.9,0.8C90.8,77.4,91.2,77.1,91.4,76.8z"/>
	<path d="M95.8,75.4c0-0.8-0.4-1.1-0.9-1.1c-0.5,0-0.9,0.3-0.9,1.1v2.5h-0.7v-4.1H94v0.4c0.3-0.4,0.6-0.5,1.1-0.5
		c0.9,0,1.5,0.5,1.5,1.8v2.4h-0.7V75.4z"/>
	<path d="M100.3,77.5c-0.3,0.4-0.6,0.5-1,0.5c-1,0-1.5-0.5-1.5-1.8v-2.4h0.7v2.5c0,0.8,0.4,1.1,0.9,1.1c0.5,0,0.9-0.3,0.9-1.1v-2.5
		h0.7v4.1h-0.7V77.5z"/>
	<path d="M104.8,75.4c0-0.8-0.4-1.1-0.9-1.1c-0.5,0-0.9,0.3-0.9,1.1v2.5h-0.7v-4.1h0.7v0.4c0.3-0.4,0.6-0.5,1.1-0.5
		c0.9,0,1.5,0.5,1.5,1.8v2.4h-0.7V75.4z"/>
	<path d="M107.7,79c1.3-0.1,1.6-0.5,1.6-1v-0.5c-0.2,0.3-0.6,0.5-1.1,0.5c-0.9,0-1.7-0.7-1.7-2.1c0-1.3,0.7-2.1,1.7-2.1
		c0.6,0,0.9,0.3,1,0.4v-0.3h0.7v3.9c0,1.3-0.8,1.8-1.9,1.8L107.7,79z M109.3,76.8v-1.9c-0.2-0.3-0.6-0.5-0.9-0.5
		c-0.7,0-1.1,0.5-1.1,1.5c0,0.9,0.5,1.5,1.1,1.5C108.7,77.3,109.1,77.1,109.3,76.8z"/>
	<path d="M113.1,75.6c0-1.7,0.5-2.8,1.1-3.4h0.7c-0.3,0.4-1,1.7-1,3.4c0,1.8,0.7,3,1,3.3h-0.7C113.6,78.3,113.1,77.3,113.1,75.6z"/>
	<path d="M115.7,77.4l2.1-3h-2v-0.6h2.8v0.5l-2.1,3h2.1v0.6h-3V77.4z"/>
	<path d="M119.6,77.5c0-0.3,0.2-0.6,0.6-0.6s0.6,0.3,0.6,0.6c0,0.3-0.2,0.5-0.6,0.5S119.6,77.7,119.6,77.5z"/>
</g>
<g class="st1">
	<path d="M123.8,72.3c1.3,0,1.7,0.7,1.7,1.5c0,0.5-0.3,0.9-0.8,1.2c0.6,0.2,1,0.7,1,1.3c0,0.8-0.4,1.6-1.8,1.6h-2.1v-5.6H123.8z
		 M124.9,73.8c0-0.4-0.2-0.9-1-0.9h-1.3v1.7h1.2C124.5,74.7,124.9,74.3,124.9,73.8z M125.1,76.3c0-0.5-0.3-1-1.3-1h-1.2v2h1.5
		C124.8,77.3,125.1,76.8,125.1,76.3z"/>
</g>
<g class="st1">
	<path d="M126.6,77.5c0-0.3,0.2-0.6,0.6-0.6s0.6,0.3,0.6,0.6c0,0.3-0.2,0.5-0.6,0.5S126.6,77.7,126.6,77.5z"/>
</g>
<g class="st1">
	<path d="M132.2,77.9h-0.7V73H130v-0.7h3.8V73h-1.6V77.9z"/>
	<path d="M134.9,73.8h0.7v0.5c0.2-0.4,0.6-0.6,1-0.6c0.2,0,0.4,0.1,0.6,0.2l-0.1,0.7c-0.1-0.1-0.3-0.2-0.6-0.2
		c-0.4,0-0.9,0.3-0.9,1.2v2.3h-0.7V73.8z"/>
	<path d="M137.8,75.9c0-1.4,0.7-2.1,1.8-2.1c0.9,0,1.7,0.6,1.7,1.9c0,0.1,0,0.3,0,0.5h-2.8c0.1,0.8,0.5,1.2,1.1,1.2
		c0.3,0,0.6-0.1,0.9-0.4l0.4,0.5c-0.3,0.3-0.8,0.5-1.3,0.5C138.5,78,137.8,77.1,137.8,75.9z M140.6,75.5c0-0.9-0.6-1.2-1-1.2
		c-0.6,0-1.1,0.4-1.1,1.2H140.6z"/>
	<path d="M142.4,72.5l0.7-0.3v5.8h-0.7V72.5z"/>
	<path d="M144.5,72.5l0.7-0.3v5.8h-0.7V72.5z"/>
	<path d="M146.3,75.9c0-1.3,0.7-2.1,1.8-2.1c1.1,0,1.8,0.8,1.8,2.1c0,1.3-0.7,2.1-1.8,2.1C147,78,146.3,77.2,146.3,75.9z
		 M149.2,75.9c0-0.9-0.4-1.5-1.1-1.5c-0.7,0-1.1,0.6-1.1,1.5c0,0.9,0.4,1.5,1.1,1.5C148.8,77.3,149.2,76.8,149.2,75.9z"/>
	<path d="M151.8,75.6c0-1.8-0.8-3.1-1-3.4h0.7c0.5,0.6,1.1,1.8,1.1,3.4s-0.5,2.7-1,3.3h-0.7C151,78.6,151.8,77.4,151.8,75.6z"/>
</g>
<g>
	<g>
		<g>
			<defs>
				<line id="SVGID_5_" x1="-59.5" y1="449" x2="864.6" y2="449"/>
			</defs>
			<clipPath id="SVGID_6_">
				<use xlink:href="#SVGID_5_"  style="overflow:visible;"/>
			</clipPath>
			<path class="st8" d="M3.5,119.9c1.4,0,2.6-1.2,2.6-2.6s-1.2-2.6-2.6-2.6s-2.6,1.2-2.6,2.6C0.9,118.7,2.1,119.9,3.5,119.9"/>
		</g>
	</g>
</g>
<rect x="0.4" y="113.1" class="st6" width="65" height="9"/>
<g class="st1">
	<path d="M4.3,118.5H2.1l-0.5,1.4H0.9l2-5.6h0.6l2,5.6H4.8L4.3,118.5z M3.3,115.8c-0.1-0.2-0.1-0.4-0.2-0.6c0,0.1-0.1,0.4-0.2,0.6
		l-0.7,2.1h1.8L3.3,115.8z"/>
	<path d="M7.2,119.5v0.4H6.5v-5.4l0.7-0.3v2c0.2-0.3,0.6-0.4,1-0.4c1,0,1.7,0.8,1.7,2.1c0,1.4-0.6,2.1-1.7,2.1
		C7.8,120,7.5,119.8,7.2,119.5z M9.2,117.9c0-1-0.4-1.5-1.1-1.5c-0.5,0-0.8,0.3-1,0.5v1.9c0.2,0.3,0.6,0.6,1,0.6
		C8.9,119.3,9.2,118.8,9.2,117.9z"/>
	<path d="M10.8,119.3l0.5-0.4c0.2,0.2,0.6,0.5,1,0.5c0.4,0,0.8-0.2,0.8-0.5c0-0.4-0.5-0.6-0.9-0.8c-0.8-0.3-1.3-0.6-1.3-1.3
		c0-0.7,0.6-1.1,1.4-1.1c0.6,0,1.1,0.3,1.4,0.6l-0.5,0.4c-0.2-0.2-0.5-0.4-0.9-0.4c-0.4,0-0.7,0.2-0.7,0.5c0,0.3,0.4,0.5,0.9,0.7
		c0.7,0.3,1.3,0.6,1.3,1.4c0,0.7-0.6,1.2-1.5,1.2C11.6,120,11.1,119.7,10.8,119.3z"/>
	<path d="M15,119v-2.6h-0.7v-0.6H15v-1.4l0.7-0.3v1.7h1v0.6h-1v2.4c0,0.3,0.1,0.6,0.4,0.6c0.2,0,0.4-0.1,0.6-0.2l-0.1,0.7
		c-0.2,0.1-0.5,0.2-0.8,0.2C15.3,120,15,119.6,15,119z"/>
	<path d="M17.7,114.6c0-0.2,0.2-0.4,0.4-0.4c0.2,0,0.4,0.2,0.4,0.4c0,0.2-0.2,0.4-0.4,0.4C17.9,115.1,17.7,114.9,17.7,114.6z
		 M17.8,115.8h0.7v4.1h-0.7V115.8z"/>
	<path d="M24.6,117.4c0-0.6-0.2-1.1-0.8-1.1c-0.5,0-0.9,0.4-0.9,1.1v2.5h-0.7v-2.5c0-0.6-0.2-1.1-0.8-1.1c-0.5,0-0.9,0.4-0.9,1.1
		v2.5h-0.7v-4.1h0.7v0.4c0.2-0.3,0.6-0.5,1.1-0.5c0.4,0,0.9,0.2,1.1,0.6c0.2-0.4,0.7-0.6,1.2-0.6c0.8,0,1.4,0.5,1.4,1.5v2.7h-0.7
		V117.4z"/>
	<path d="M31.4,117.4c0-0.6-0.2-1.1-0.8-1.1c-0.5,0-0.9,0.4-0.9,1.1v2.5H29v-2.5c0-0.6-0.2-1.1-0.8-1.1c-0.5,0-0.9,0.4-0.9,1.1v2.5
		h-0.7v-4.1h0.7v0.4c0.2-0.3,0.6-0.5,1.1-0.5c0.4,0,0.9,0.2,1.1,0.6c0.2-0.4,0.7-0.6,1.2-0.6c0.8,0,1.4,0.5,1.4,1.5v2.7h-0.7V117.4z
		"/>
	<path d="M35.8,119.5c-0.3,0.4-0.6,0.5-1,0.5c-1,0-1.5-0.5-1.5-1.8v-2.4H34v2.5c0,0.8,0.4,1.1,0.9,1.1c0.5,0,0.9-0.3,0.9-1.1v-2.5
		h0.7v4.1h-0.7V119.5z"/>
	<path d="M40.4,117.4c0-0.8-0.4-1.1-0.9-1.1c-0.5,0-0.9,0.3-0.9,1.1v2.5h-0.7v-4.1h0.7v0.4c0.3-0.4,0.6-0.5,1.1-0.5
		c0.9,0,1.5,0.5,1.5,1.8v2.4h-0.7V117.4z"/>
	<path d="M43.3,121c1.3-0.1,1.6-0.5,1.6-1v-0.5c-0.2,0.3-0.6,0.5-1.1,0.5c-0.9,0-1.7-0.7-1.7-2.1c0-1.3,0.7-2.1,1.7-2.1
		c0.6,0,0.9,0.3,1,0.4v-0.3h0.7v3.9c0,1.3-0.8,1.8-1.9,1.8L43.3,121z M44.8,118.8v-1.9c-0.2-0.3-0.6-0.5-0.9-0.5
		c-0.7,0-1.1,0.5-1.1,1.5c0,0.9,0.5,1.5,1.1,1.5C44.3,119.3,44.6,119.1,44.8,118.8z"/>
	<path d="M46.6,117.9c0-1.4,0.7-2.1,1.8-2.1c0.9,0,1.7,0.6,1.7,1.9c0,0.1,0,0.3,0,0.5h-2.8c0.1,0.8,0.5,1.2,1.1,1.2
		c0.3,0,0.6-0.1,0.9-0.4l0.4,0.5c-0.3,0.3-0.8,0.5-1.3,0.5C47.3,120,46.6,119.1,46.6,117.9z M49.4,117.5c0-0.9-0.6-1.2-1-1.2
		c-0.6,0-1.1,0.4-1.1,1.2H49.4z"/>
	<path d="M53.7,117.4c0-0.8-0.4-1.1-0.9-1.1c-0.5,0-0.9,0.3-0.9,1.1v2.5h-0.7v-4.1h0.7v0.4c0.3-0.4,0.6-0.5,1.1-0.5
		c0.9,0,1.5,0.5,1.5,1.8v2.4h-0.7V117.4z"/>
	<path d="M57.5,117.6c0-1.7,0.5-2.8,1.1-3.4h0.7c-0.3,0.4-1,1.7-1,3.4c0,1.8,0.7,3,1,3.3h-0.7C58,120.3,57.5,119.3,57.5,117.6z"/>
	<path d="M60.1,119.4l2.1-3h-2v-0.6h2.8v0.5l-2.1,3h2.1v0.6h-3V119.4z"/>
	<path d="M64,119.5c0-0.3,0.2-0.6,0.6-0.6s0.6,0.3,0.6,0.6c0,0.3-0.2,0.5-0.6,0.5S64,119.7,64,119.5z"/>
</g>
<rect x="65.4" y="113.1" class="st6" width="5.2" height="9"/>
<g class="st1">
	<path d="M68.2,114.3c1.3,0,1.7,0.7,1.7,1.5c0,0.5-0.3,0.9-0.8,1.2c0.6,0.2,1,0.7,1,1.3c0,0.8-0.4,1.6-1.8,1.6h-2.1v-5.6H68.2z
		 M69.3,115.8c0-0.4-0.2-0.9-1-0.9h-1.3v1.7h1.2C68.9,116.7,69.3,116.3,69.3,115.8z M69.5,118.3c0-0.5-0.3-1-1.3-1h-1.2v2h1.5
		C69.2,119.3,69.5,118.8,69.5,118.3z"/>
</g>
<rect x="70.6" y="113.1" class="st6" width="1.8" height="9"/>
<g class="st1">
	<path d="M71,119.5c0-0.3,0.2-0.6,0.6-0.6s0.6,0.3,0.6,0.6c0,0.3-0.2,0.5-0.6,0.5S71,119.7,71,119.5z"/>
</g>
<rect x="72.4" y="113.1" class="st6" width="1.8" height="9"/>
<rect x="73.9" y="113.1" class="st6" width="12.9" height="9"/>
<g class="st1">
	<path d="M77.8,118.5h-2.2l-0.5,1.4h-0.7l2-5.6H77l2,5.6h-0.7L77.8,118.5z M76.8,115.8c-0.1-0.2-0.1-0.4-0.2-0.6
		c0,0.1-0.1,0.4-0.2,0.6l-0.7,2.1h1.8L76.8,115.8z"/>
	<path d="M82.6,117.4c0-0.8-0.4-1.1-0.9-1.1c-0.5,0-0.9,0.3-0.9,1.1v2.5H80v-4.1h0.7v0.4c0.3-0.4,0.6-0.5,1.1-0.5
		c0.9,0,1.5,0.5,1.5,1.8v2.4h-0.7V117.4z"/>
	<path d="M84.8,119v-2.6h-0.7v-0.6h0.7v-1.4l0.7-0.3v1.7h1v0.6h-1v2.4c0,0.3,0.1,0.6,0.4,0.6c0.2,0,0.4-0.1,0.6-0.2l-0.1,0.7
		c-0.2,0.1-0.5,0.2-0.8,0.2C85,120,84.8,119.6,84.8,119z"/>
</g>
<rect x="86.9" y="113.1" class="st6" width="3.2" height="9"/>
<g class="st1">
	<path d="M87.6,115.8h0.7v0.5c0.2-0.4,0.6-0.6,1-0.6c0.2,0,0.4,0.1,0.6,0.2l-0.1,0.7c-0.1-0.1-0.3-0.2-0.6-0.2
		c-0.4,0-0.9,0.3-0.9,1.2v2.3h-0.7V115.8z"/>
</g>
<rect x="89.9" y="113.1" class="st6" width="33.7" height="9"/>
<g class="st1">
	<path d="M93,119.5c-0.3,0.3-0.7,0.5-1.2,0.5c-0.8,0-1.4-0.5-1.4-1.4c0-0.9,0.7-1.4,1.5-1.4c0.4,0,0.7,0.1,1.1,0.3v-0.3
		c0-0.7-0.4-0.9-0.9-0.9c-0.5,0-0.9,0.2-1.2,0.4l-0.2-0.6c0.3-0.2,0.9-0.4,1.5-0.4c0.6,0,1.5,0.2,1.5,1.5v2.7H93V119.5z M93,118.8
		v-0.7c-0.2-0.2-0.6-0.3-1-0.3c-0.5,0-1,0.2-1,0.8c0,0.5,0.3,0.8,0.9,0.8C92.4,119.4,92.7,119.1,93,118.8z"/>
	<path d="M95.7,121c1.3-0.1,1.6-0.5,1.6-1v-0.5c-0.2,0.3-0.6,0.5-1.1,0.5c-0.9,0-1.7-0.7-1.7-2.1c0-1.3,0.7-2.1,1.7-2.1
		c0.6,0,0.9,0.3,1,0.4v-0.3H98v3.9c0,1.3-0.8,1.8-1.9,1.8L95.7,121z M97.3,118.8v-1.9c-0.2-0.3-0.6-0.5-0.9-0.5
		c-0.7,0-1.1,0.5-1.1,1.5c0,0.9,0.5,1.5,1.1,1.5C96.7,119.3,97.1,119.1,97.3,118.8z"/>
	<path d="M99.1,119.3l0.5-0.4c0.2,0.2,0.6,0.5,1,0.5c0.4,0,0.8-0.2,0.8-0.5c0-0.4-0.5-0.6-0.9-0.8c-0.8-0.3-1.3-0.6-1.3-1.3
		c0-0.7,0.6-1.1,1.4-1.1c0.6,0,1.1,0.3,1.4,0.6l-0.5,0.4c-0.2-0.2-0.5-0.4-0.9-0.4c-0.4,0-0.7,0.2-0.7,0.5c0,0.3,0.4,0.5,0.9,0.7
		c0.7,0.3,1.3,0.6,1.3,1.4c0,0.7-0.6,1.2-1.5,1.2C99.9,120,99.4,119.7,99.1,119.3z"/>
	<path d="M104,121c1.3-0.1,1.6-0.5,1.6-1v-0.5c-0.2,0.3-0.6,0.5-1.1,0.5c-0.9,0-1.7-0.7-1.7-2.1c0-1.3,0.7-2.1,1.7-2.1
		c0.6,0,0.9,0.3,1,0.4v-0.3h0.7v3.9c0,1.3-0.8,1.8-1.9,1.8L104,121z M105.6,118.8v-1.9c-0.2-0.3-0.6-0.5-0.9-0.5
		c-0.7,0-1.1,0.5-1.1,1.5c0,0.9,0.5,1.5,1.1,1.5C105,119.3,105.4,119.1,105.6,118.8z"/>
	<path d="M107.6,115.8h0.7v0.5c0.2-0.4,0.6-0.6,1-0.6c0.2,0,0.4,0.1,0.6,0.2l-0.1,0.7c-0.1-0.1-0.3-0.2-0.6-0.2
		c-0.4,0-0.9,0.3-0.9,1.2v2.3h-0.7V115.8z"/>
	<path d="M113.2,119.5c-0.3,0.4-0.6,0.5-1,0.5c-1,0-1.5-0.5-1.5-1.8v-2.4h0.7v2.5c0,0.8,0.4,1.1,0.9,1.1c0.5,0,0.9-0.3,0.9-1.1v-2.5
		h0.7v4.1h-0.7V119.5z M111.1,114.7c0-0.2,0.2-0.4,0.4-0.4c0.2,0,0.4,0.2,0.4,0.4c0,0.2-0.2,0.4-0.4,0.4
		C111.3,115.1,111.1,114.9,111.1,114.7z M112.5,114.7c0-0.2,0.2-0.4,0.4-0.4c0.2,0,0.4,0.2,0.4,0.4c0,0.2-0.2,0.4-0.4,0.4
		C112.7,115.1,112.5,114.9,112.5,114.7z"/>
	<path d="M117.8,117.4c0-0.8-0.4-1.1-0.9-1.1c-0.5,0-0.9,0.3-0.9,1.1v2.5h-0.7v-4.1h0.7v0.4c0.3-0.4,0.6-0.5,1.1-0.5
		c0.9,0,1.5,0.5,1.5,1.8v2.4h-0.7V117.4z"/>
	<path d="M120.5,117.6c0-1.8-0.8-3.1-1-3.4h0.7c0.5,0.6,1.1,1.8,1.1,3.4s-0.5,2.7-1,3.3h-0.7C119.8,120.6,120.5,119.4,120.5,117.6z"
		/>
</g>
<g>
	<g>
		<g>
			<defs>
				<line id="SVGID_7_" x1="-59.5" y1="449" x2="864.6" y2="449"/>
			</defs>
			<clipPath id="SVGID_8_">
				<use xlink:href="#SVGID_7_"  style="overflow:visible;"/>
			</clipPath>
			<path class="st9" d="M3.5,161.9c1.4,0,2.6-1.2,2.6-2.6c0-1.4-1.2-2.6-2.6-2.6s-2.6,1.2-2.6,2.6C0.9,160.7,2.1,161.9,3.5,161.9"/>
		</g>
	</g>
</g>
<rect x="-1.1" y="155.1" class="st6" width="11.5" height="9"/>
<g class="st1">
	<path d="M3.1,156.3c1.9,0,2.6,1.4,2.6,2.8c0,1.3-0.6,2.8-2.6,2.8H1.6v-5.6H3.1z M5,159.1c0-1.1-0.5-2.2-1.7-2.2h-1v4.3h0.9
		C4.5,161.2,5,160.1,5,159.1z"/>
	<path d="M9.2,161.5C9,161.8,8.6,162,8.1,162c-0.8,0-1.4-0.5-1.4-1.4c0-0.9,0.7-1.4,1.5-1.4c0.4,0,0.7,0.1,1.1,0.3v-0.3
		c0-0.7-0.4-0.9-0.9-0.9c-0.5,0-0.9,0.2-1.2,0.4L7,158.1c0.3-0.2,0.9-0.4,1.5-0.4c0.6,0,1.5,0.2,1.5,1.5v2.7H9.2V161.5z M9.2,160.8
		v-0.7c-0.2-0.2-0.6-0.3-1-0.3c-0.5,0-1,0.2-1,0.8c0,0.5,0.3,0.8,0.9,0.8C8.6,161.4,9,161.1,9.2,160.8z"/>
</g>
<rect x="10.4" y="155.1" class="st6" width="3" height="9"/>
<g class="st1">
	<path d="M11.4,161v-2.6h-0.7v-0.6h0.7v-1.4l0.7-0.3v1.7h1v0.6h-1v2.4c0,0.3,0.1,0.6,0.4,0.6c0.2,0,0.4-0.1,0.6-0.2l-0.1,0.7
		c-0.2,0.1-0.5,0.2-0.8,0.2C11.6,162,11.4,161.6,11.4,161z"/>
</g>
<rect x="13.3" y="155.1" class="st6" width="79.7" height="9"/>
<g class="st1">
	<path d="M13.8,159.9c0-1.4,0.7-2.1,1.8-2.1c0.9,0,1.7,0.6,1.7,1.9c0,0.1,0,0.3,0,0.5h-2.8c0.1,0.8,0.5,1.2,1.1,1.2
		c0.3,0,0.6-0.1,0.9-0.4l0.4,0.5c-0.3,0.3-0.8,0.5-1.3,0.5C14.5,162,13.8,161.1,13.8,159.9z M16.6,159.5c0-0.9-0.6-1.2-1-1.2
		c-0.6,0-1.1,0.4-1.1,1.2H16.6z"/>
	<path d="M20.8,159.4c0-0.8-0.4-1.1-0.9-1.1c-0.5,0-0.9,0.3-0.9,1.1v2.5h-0.7v-4.1H19v0.4c0.3-0.4,0.6-0.5,1.1-0.5
		c0.9,0,1.5,0.5,1.5,1.8v2.4h-0.7V159.4z"/>
	<path d="M22.5,161.3l0.5-0.4c0.2,0.2,0.6,0.5,1,0.5c0.4,0,0.8-0.2,0.8-0.5c0-0.4-0.5-0.6-0.9-0.8c-0.8-0.3-1.3-0.6-1.3-1.3
		c0-0.7,0.6-1.1,1.4-1.1c0.6,0,1.1,0.3,1.4,0.6l-0.5,0.4c-0.2-0.2-0.5-0.4-0.9-0.4c-0.4,0-0.7,0.2-0.7,0.5c0,0.3,0.4,0.5,0.9,0.7
		c0.7,0.3,1.3,0.6,1.3,1.4c0,0.7-0.6,1.2-1.5,1.2C23.4,162,22.9,161.7,22.5,161.3z"/>
	<path d="M28.9,161.5c-0.3,0.3-0.7,0.5-1.2,0.5c-0.8,0-1.4-0.5-1.4-1.4c0-0.9,0.7-1.4,1.5-1.4c0.4,0,0.7,0.1,1.1,0.3v-0.3
		c0-0.7-0.4-0.9-0.9-0.9c-0.5,0-0.9,0.2-1.2,0.4l-0.2-0.6c0.3-0.2,0.9-0.4,1.5-0.4c0.6,0,1.5,0.2,1.5,1.5v2.7h-0.7V161.5z
		 M28.9,160.8v-0.7c-0.2-0.2-0.6-0.3-1-0.3c-0.5,0-1,0.2-1,0.8c0,0.5,0.3,0.8,0.9,0.8C28.3,161.4,28.7,161.1,28.9,160.8z"/>
	<path d="M35.6,159.4c0-0.6-0.2-1.1-0.8-1.1c-0.5,0-0.9,0.4-0.9,1.1v2.5h-0.7v-2.5c0-0.6-0.2-1.1-0.8-1.1c-0.5,0-0.9,0.4-0.9,1.1
		v2.5h-0.7v-4.1h0.7v0.4c0.2-0.3,0.6-0.5,1.1-0.5c0.4,0,0.9,0.2,1.1,0.6c0.2-0.4,0.7-0.6,1.2-0.6c0.8,0,1.4,0.5,1.4,1.5v2.7h-0.7
		V159.4z"/>
	<path d="M42.3,159.4c0-0.6-0.2-1.1-0.8-1.1c-0.5,0-0.9,0.4-0.9,1.1v2.5h-0.7v-2.5c0-0.6-0.2-1.1-0.8-1.1c-0.5,0-0.9,0.4-0.9,1.1
		v2.5h-0.7v-4.1h0.7v0.4c0.2-0.3,0.6-0.5,1.1-0.5c0.4,0,0.9,0.2,1.1,0.6c0.2-0.4,0.7-0.6,1.2-0.6c0.8,0,1.4,0.5,1.4,1.5v2.7h-0.7
		V159.4z"/>
	<path d="M44.4,156.5l0.7-0.3v5.8h-0.7V156.5z"/>
	<path d="M48.9,161.5c-0.3,0.4-0.6,0.5-1,0.5c-1,0-1.5-0.5-1.5-1.8v-2.4h0.7v2.5c0,0.8,0.4,1.1,0.9,1.1c0.5,0,0.9-0.3,0.9-1.1v-2.5
		h0.7v4.1h-0.7V161.5z"/>
	<path d="M53.4,159.4c0-0.8-0.4-1.1-0.9-1.1c-0.5,0-0.9,0.3-0.9,1.1v2.5h-0.7v-4.1h0.7v0.4c0.3-0.4,0.6-0.5,1.1-0.5
		c0.9,0,1.5,0.5,1.5,1.8v2.4h-0.7V159.4z"/>
	<path d="M56.3,163c1.3-0.1,1.6-0.5,1.6-1v-0.5c-0.2,0.3-0.6,0.5-1.1,0.5c-0.9,0-1.7-0.7-1.7-2.1c0-1.3,0.7-2.1,1.7-2.1
		c0.6,0,0.9,0.3,1,0.4v-0.3h0.7v3.9c0,1.3-0.8,1.8-1.9,1.8L56.3,163z M57.9,160.8v-1.9c-0.2-0.3-0.6-0.5-0.9-0.5
		c-0.7,0-1.1,0.5-1.1,1.5c0,0.9,0.5,1.5,1.1,1.5C57.3,161.3,57.7,161.1,57.9,160.8z"/>
	<path d="M60.2,162c-0.3,0-0.6-0.2-0.6-0.5c0-0.3,0.2-0.6,0.5-0.6c0.3,0,0.6,0.2,0.6,0.7c0,0.6-0.4,1.1-0.8,1.4l-0.2-0.1
		C59.9,162.8,60.1,162.4,60.2,162z"/>
	<path d="M63.6,159.2h1.9v0.7h-1.9V159.2z"/>
	<path d="M67.5,161.5v0.4h-0.7v-5.4l0.7-0.3v2c0.2-0.3,0.6-0.4,1-0.4c1,0,1.7,0.8,1.7,2.1c0,1.4-0.6,2.1-1.7,2.1
		C68,162,67.7,161.8,67.5,161.5z M69.5,159.9c0-1-0.4-1.5-1.1-1.5c-0.5,0-0.8,0.3-1,0.5v1.9c0.2,0.3,0.6,0.6,1,0.6
		C69.1,161.3,69.5,160.8,69.5,159.9z"/>
	<path d="M71,159.9c0-1.4,0.7-2.1,1.8-2.1c0.9,0,1.7,0.6,1.7,1.9c0,0.1,0,0.3,0,0.5h-2.8c0.1,0.8,0.5,1.2,1.1,1.2
		c0.3,0,0.6-0.1,0.9-0.4l0.4,0.5c-0.3,0.3-0.8,0.5-1.3,0.5C71.7,162,71,161.1,71,159.9z M73.8,159.5c0-0.9-0.6-1.2-1-1.2
		c-0.6,0-1.1,0.4-1.1,1.2H73.8z"/>
	<path d="M77.9,161.5c-0.3,0.3-0.7,0.5-1.2,0.5c-0.8,0-1.4-0.5-1.4-1.4c0-0.9,0.7-1.4,1.5-1.4c0.4,0,0.7,0.1,1.1,0.3v-0.3
		c0-0.7-0.4-0.9-0.9-0.9c-0.5,0-0.9,0.2-1.2,0.4l-0.2-0.6c0.3-0.2,0.9-0.4,1.5-0.4c0.6,0,1.5,0.2,1.5,1.5v2.7h-0.7V161.5z
		 M77.9,160.8v-0.7c-0.2-0.2-0.6-0.3-1-0.3c-0.5,0-1,0.2-1,0.8c0,0.5,0.3,0.8,0.9,0.8C77.3,161.4,77.7,161.1,77.9,160.8z"/>
	<path d="M79.8,157.8h0.7v0.5c0.2-0.4,0.6-0.6,1-0.6c0.2,0,0.4,0.1,0.6,0.2l-0.1,0.7c-0.1-0.1-0.3-0.2-0.6-0.2
		c-0.4,0-0.9,0.3-0.9,1.2v2.3h-0.7V157.8z"/>
	<path d="M83.6,161.5v0.4h-0.7v-5.4l0.7-0.3v2c0.2-0.3,0.6-0.4,1-0.4c1,0,1.7,0.8,1.7,2.1c0,1.4-0.6,2.1-1.7,2.1
		C84.1,162,83.9,161.8,83.6,161.5z M85.6,159.9c0-1-0.4-1.5-1.1-1.5c-0.5,0-0.8,0.3-1,0.5v1.9c0.2,0.3,0.6,0.6,1,0.6
		C85.3,161.3,85.6,160.8,85.6,159.9z"/>
	<path d="M87.2,159.9c0-1.4,0.7-2.1,1.8-2.1c0.9,0,1.7,0.6,1.7,1.9c0,0.1,0,0.3,0,0.5h-2.8c0.1,0.8,0.5,1.2,1.1,1.2
		c0.3,0,0.6-0.1,0.9-0.4l0.4,0.5c-0.3,0.3-0.8,0.5-1.3,0.5C87.9,162,87.2,161.1,87.2,159.9z M90,159.5c0-0.9-0.6-1.2-1-1.2
		c-0.6,0-1.1,0.4-1.1,1.2H90z"/>
	<path d="M91.6,156.6c0-0.2,0.2-0.4,0.4-0.4c0.2,0,0.4,0.2,0.4,0.4c0,0.2-0.2,0.4-0.4,0.4C91.8,157.1,91.6,156.9,91.6,156.6z
		 M91.7,157.8h0.7v4.1h-0.7V157.8z"/>
</g>
<rect x="93.1" y="155.1" class="st6" width="3" height="9"/>
<g class="st1">
	<path d="M94.1,161v-2.6h-0.7v-0.6h0.7v-1.4l0.7-0.3v1.7h1v0.6h-1v2.4c0,0.3,0.1,0.6,0.4,0.6c0.2,0,0.4-0.1,0.6-0.2l-0.1,0.7
		c-0.2,0.1-0.5,0.2-0.8,0.2C94.3,162,94.1,161.6,94.1,161z"/>
</g>
<rect x="95.9" y="155.1" class="st6" width="30.7" height="9"/>
<g class="st1">
	<path d="M99.1,161.5c-0.3,0.4-0.6,0.5-1,0.5c-1,0-1.5-0.5-1.5-1.8v-2.4h0.7v2.5c0,0.8,0.4,1.1,0.9,1.1c0.5,0,0.9-0.3,0.9-1.1v-2.5
		h0.7v4.1h-0.7V161.5z"/>
	<path d="M103.6,159.4c0-0.8-0.4-1.1-0.9-1.1c-0.5,0-0.9,0.3-0.9,1.1v2.5h-0.7v-4.1h0.7v0.4c0.3-0.4,0.6-0.5,1.1-0.5
		c0.9,0,1.5,0.5,1.5,1.8v2.4h-0.7V159.4z"/>
	<path d="M106.5,163c1.3-0.1,1.6-0.5,1.6-1v-0.5c-0.2,0.3-0.6,0.5-1.1,0.5c-0.9,0-1.7-0.7-1.7-2.1c0-1.3,0.7-2.1,1.7-2.1
		c0.6,0,0.9,0.3,1,0.4v-0.3h0.7v3.9c0,1.3-0.8,1.8-1.9,1.8L106.5,163z M108.1,160.8v-1.9c-0.2-0.3-0.6-0.5-0.9-0.5
		c-0.7,0-1.1,0.5-1.1,1.5c0,0.9,0.5,1.5,1.1,1.5C107.5,161.3,107.9,161.1,108.1,160.8z"/>
	<path d="M114.4,161.5c-0.3,0.4-0.6,0.5-1,0.5c-1,0-1.5-0.5-1.5-1.8v-2.4h0.7v2.5c0,0.8,0.4,1.1,0.9,1.1c0.5,0,0.9-0.3,0.9-1.1v-2.5
		h0.7v4.1h-0.7V161.5z"/>
	<path d="M119,159.4c0-0.8-0.4-1.1-0.9-1.1c-0.5,0-0.9,0.3-0.9,1.1v2.5h-0.7v-4.1h0.7v0.4c0.3-0.4,0.6-0.5,1.1-0.5
		c0.9,0,1.5,0.5,1.5,1.8v2.4H119V159.4z"/>
	<path d="M120.7,159.9c0-1.3,0.7-2.1,1.7-2.1c0.5,0,0.8,0.2,1,0.4v-1.6l0.7-0.3v5.8h-0.7v-0.3c-0.2,0.2-0.5,0.4-1,0.4
		C121.4,162,120.7,161.2,120.7,159.9z M123.4,160.8v-1.9c-0.2-0.2-0.5-0.5-0.9-0.5c-0.7,0-1.1,0.5-1.1,1.5c0,0.8,0.4,1.5,1.1,1.5
		C122.9,161.3,123.2,161.1,123.4,160.8z"/>
</g>
<rect x="1.9" y="167.1" class="st6" width="60.7" height="9"/>
<g class="st1">
	<path d="M2.6,171.2h1.9v0.7H2.6V171.2z"/>
	<path d="M10.6,171.4c0-0.6-0.2-1.1-0.8-1.1c-0.5,0-0.9,0.4-0.9,1.1v2.5H8.2v-2.5c0-0.6-0.2-1.1-0.8-1.1c-0.5,0-0.9,0.4-0.9,1.1v2.5
		H5.8v-4.1h0.7v0.4c0.2-0.3,0.6-0.5,1.1-0.5c0.4,0,0.9,0.2,1.1,0.6c0.2-0.4,0.7-0.6,1.2-0.6c0.8,0,1.4,0.5,1.4,1.5v2.7h-0.7V171.4z"
		/>
	<path d="M14.9,173.5c-0.3,0.3-0.7,0.5-1.2,0.5c-0.8,0-1.4-0.5-1.4-1.4c0-0.9,0.7-1.4,1.5-1.4c0.4,0,0.7,0.1,1.1,0.3v-0.3
		c0-0.7-0.4-0.9-0.9-0.9c-0.5,0-0.9,0.2-1.2,0.4l-0.2-0.6c0.3-0.2,0.9-0.4,1.5-0.4c0.6,0,1.5,0.2,1.5,1.5v2.7h-0.7V173.5z
		 M14.9,172.8v-0.7c-0.2-0.2-0.6-0.3-1-0.3c-0.5,0-1,0.2-1,0.8c0,0.5,0.3,0.8,0.9,0.8C14.3,173.4,14.7,173.1,14.9,172.8z"/>
	<path d="M19.3,171.4c0-0.8-0.4-1.1-0.9-1.1c-0.5,0-0.9,0.3-0.9,1.1v2.5h-0.7v-4.1h0.7v0.4c0.3-0.4,0.6-0.5,1.1-0.5
		c0.9,0,1.5,0.5,1.5,1.8v2.4h-0.7V171.4z"/>
	<path d="M23.6,173.5c-0.3,0.3-0.7,0.5-1.2,0.5c-0.8,0-1.4-0.5-1.4-1.4c0-0.9,0.7-1.4,1.5-1.4c0.4,0,0.7,0.1,1.1,0.3v-0.3
		c0-0.7-0.4-0.9-0.9-0.9c-0.5,0-0.9,0.2-1.2,0.4l-0.2-0.6c0.3-0.2,0.9-0.4,1.5-0.4c0.6,0,1.5,0.2,1.5,1.5v2.7h-0.7V173.5z
		 M23.6,172.8v-0.7c-0.2-0.2-0.6-0.3-1-0.3c-0.5,0-1,0.2-1,0.8c0,0.5,0.3,0.8,0.9,0.8C23,173.4,23.4,173.1,23.6,172.8z"/>
	<path d="M26.4,175c1.3-0.1,1.6-0.5,1.6-1v-0.5c-0.2,0.3-0.6,0.5-1.1,0.5c-0.9,0-1.7-0.7-1.7-2.1c0-1.3,0.7-2.1,1.7-2.1
		c0.6,0,0.9,0.3,1,0.4v-0.3h0.7v3.9c0,1.3-0.8,1.8-1.9,1.8L26.4,175z M28,172.8v-1.9c-0.2-0.3-0.6-0.5-0.9-0.5
		c-0.7,0-1.1,0.5-1.1,1.5c0,0.9,0.5,1.5,1.1,1.5C27.4,173.3,27.8,173.1,28,172.8z"/>
	<path d="M29.7,171.9c0-1.4,0.7-2.1,1.8-2.1c0.9,0,1.7,0.6,1.7,1.9c0,0.1,0,0.3,0,0.5h-2.8c0.1,0.8,0.5,1.2,1.1,1.2
		c0.3,0,0.6-0.1,0.9-0.4l0.4,0.5c-0.3,0.3-0.8,0.5-1.3,0.5C30.4,174,29.7,173.1,29.7,171.9z M32.5,171.5c0-0.9-0.6-1.2-1-1.2
		c-0.6,0-1.1,0.4-1.1,1.2H32.5z"/>
	<path d="M39.1,171.4c0-0.6-0.2-1.1-0.8-1.1c-0.5,0-0.9,0.4-0.9,1.1v2.5h-0.7v-2.5c0-0.6-0.2-1.1-0.8-1.1c-0.5,0-0.9,0.4-0.9,1.1
		v2.5h-0.7v-4.1H35v0.4c0.2-0.3,0.6-0.5,1.1-0.5c0.4,0,0.9,0.2,1.1,0.6c0.2-0.4,0.7-0.6,1.2-0.6c0.8,0,1.4,0.5,1.4,1.5v2.7h-0.7
		V171.4z"/>
	<path d="M40.8,171.9c0-1.4,0.7-2.1,1.8-2.1c0.9,0,1.7,0.6,1.7,1.9c0,0.1,0,0.3,0,0.5h-2.8c0.1,0.8,0.5,1.2,1.1,1.2
		c0.3,0,0.6-0.1,0.9-0.4l0.4,0.5c-0.3,0.3-0.8,0.5-1.3,0.5C41.5,174,40.8,173.1,40.8,171.9z M43.6,171.5c0-0.9-0.6-1.2-1-1.2
		c-0.6,0-1.1,0.4-1.1,1.2H43.6z"/>
	<path d="M47.9,171.4c0-0.8-0.4-1.1-0.9-1.1c-0.5,0-0.9,0.3-0.9,1.1v2.5h-0.7v-4.1h0.7v0.4c0.3-0.4,0.6-0.5,1.1-0.5
		c0.9,0,1.5,0.5,1.5,1.8v2.4h-0.7V171.4z"/>
	<path d="M50.1,173v-2.6h-0.7v-0.6h0.7v-1.4l0.7-0.3v1.7h1v0.6h-1v2.4c0,0.3,0.1,0.6,0.4,0.6c0.2,0,0.4-0.1,0.6-0.2l-0.1,0.7
		c-0.2,0.1-0.5,0.2-0.8,0.2C50.4,174,50.1,173.6,50.1,173z"/>
	<path d="M54.7,171.6c0-1.7,0.5-2.8,1.1-3.4h0.7c-0.3,0.4-1,1.7-1,3.4c0,1.8,0.7,3,1,3.3h-0.7C55.1,174.3,54.7,173.3,54.7,171.6z"/>
	<path d="M57.3,173.4l2.1-3h-2v-0.6h2.8v0.5l-2.1,3h2.1v0.6h-3V173.4z"/>
	<path d="M61.2,173.5c0-0.3,0.2-0.6,0.6-0.6s0.6,0.3,0.6,0.6c0,0.3-0.2,0.5-0.6,0.5S61.2,173.7,61.2,173.5z"/>
</g>
<rect x="62.6" y="167.1" class="st6" width="5.2" height="9"/>
<g class="st1">
	<path d="M65.4,168.3c1.3,0,1.7,0.7,1.7,1.5c0,0.5-0.3,0.9-0.8,1.2c0.6,0.2,1,0.7,1,1.3c0,0.8-0.4,1.6-1.8,1.6h-2.1v-5.6H65.4z
		 M66.5,169.8c0-0.4-0.2-0.9-1-0.9h-1.3v1.7h1.2C66.1,170.7,66.5,170.3,66.5,169.8z M66.7,172.3c0-0.5-0.3-1-1.3-1h-1.2v2h1.5
		C66.4,173.3,66.7,172.8,66.7,172.3z"/>
</g>
<rect x="67.8" y="167.1" class="st6" width="8.4" height="9"/>
<g class="st1">
	<path d="M68.2,173.5c0-0.3,0.2-0.6,0.6-0.6s0.6,0.3,0.6,0.6c0,0.3-0.2,0.5-0.6,0.5S68.2,173.7,68.2,173.5z"/>
	<path d="M72.3,168.3h3.3v0.7H73v1.7h1.7v0.7H73v1.9h2.8v0.7h-3.5V168.3z"/>
</g>
<rect x="76.2" y="167.1" class="st6" width="4.1" height="9"/>
<g class="st1">
	<path d="M77.9,171.8l-1.3-2h0.8l0.6,1c0.1,0.1,0.2,0.3,0.2,0.4c0.1-0.1,0.1-0.2,0.2-0.4l0.6-1H80l-1.3,2l1.4,2.1h-0.8l-0.8-1.2
		c-0.1-0.1-0.2-0.3-0.2-0.4c-0.1,0.1-0.1,0.3-0.2,0.4l-0.8,1.2h-0.8L77.9,171.8z"/>
</g>
<rect x="80.2" y="167.1" class="st6" width="60.9" height="9"/>
<g class="st1">
	<path d="M80.7,171.9c0-1.3,0.7-2.1,1.7-2.1c0.7,0,1.2,0.3,1.4,1l-0.7,0.2c-0.1-0.3-0.4-0.5-0.8-0.5c-0.7,0-1,0.6-1,1.5
		c0,0.9,0.3,1.5,1,1.5c0.4,0,0.7-0.2,0.8-0.6l0.6,0.2c-0.2,0.7-0.7,1-1.5,1C81.3,174,80.7,173.2,80.7,171.9z"/>
	<path d="M84.7,171.9c0-1.4,0.7-2.1,1.8-2.1c0.9,0,1.7,0.6,1.7,1.9c0,0.1,0,0.3,0,0.5h-2.8c0.1,0.8,0.5,1.2,1.1,1.2
		c0.3,0,0.6-0.1,0.9-0.4l0.4,0.5c-0.3,0.3-0.8,0.5-1.3,0.5C85.4,174,84.7,173.1,84.7,171.9z M87.5,171.5c0-0.9-0.6-1.2-1-1.2
		c-0.6,0-1.1,0.4-1.1,1.2H87.5z"/>
	<path d="M89.2,168.5l0.7-0.3v5.8h-0.7V168.5z"/>
	<path d="M91.5,174c-0.3,0-0.6-0.2-0.6-0.5c0-0.3,0.2-0.6,0.5-0.6c0.3,0,0.6,0.2,0.6,0.7c0,0.6-0.4,1.1-0.8,1.4l-0.2-0.1
		C91.2,174.8,91.5,174.4,91.5,174z"/>
	<path d="M94.8,171.1c0-1.4,0.6-2.9,2.4-2.9c1.8,0,2.4,1.5,2.4,2.9c0,1.4-0.6,2.9-2.4,2.9C95.4,174,94.8,172.5,94.8,171.1z
		 M98.9,171.1c0-1.1-0.4-2.2-1.7-2.2c-1.2,0-1.7,1.2-1.7,2.2c0,1.1,0.4,2.2,1.7,2.2C98.4,173.3,98.9,172.1,98.9,171.1z"/>
	<path d="M101.5,173.5v1.7l-0.7,0.3v-5.7h0.7v0.3c0.2-0.2,0.5-0.4,1-0.4c1,0,1.7,0.8,1.7,2.1c0,1.4-0.7,2.1-1.7,2.1
		C102,174,101.7,173.8,101.5,173.5z M103.5,171.9c0-0.9-0.4-1.5-1.1-1.5c-0.4,0-0.8,0.2-1,0.6v1.9c0.2,0.3,0.5,0.6,1,0.6
		C103.1,173.3,103.5,172.8,103.5,171.9z"/>
	<path d="M105.1,171.9c0-1.4,0.7-2.1,1.8-2.1c0.9,0,1.7,0.6,1.7,1.9c0,0.1,0,0.3,0,0.5h-2.8c0.1,0.8,0.5,1.2,1.1,1.2
		c0.3,0,0.6-0.1,0.9-0.4l0.4,0.5c-0.3,0.3-0.8,0.5-1.3,0.5C105.8,174,105.1,173.1,105.1,171.9z M107.9,171.5c0-0.9-0.6-1.2-1-1.2
		c-0.6,0-1.1,0.4-1.1,1.2H107.9z"/>
	<path d="M112.1,171.4c0-0.8-0.4-1.1-0.9-1.1c-0.5,0-0.9,0.3-0.9,1.1v2.5h-0.7v-4.1h0.7v0.4c0.3-0.4,0.6-0.5,1.1-0.5
		c0.9,0,1.5,0.5,1.5,1.8v2.4h-0.7V171.4z"/>
	<path d="M116.1,168.3h2.2c1.3,0,1.8,0.8,1.8,1.6c0,0.7-0.4,1.4-1.3,1.6l1.2,2.4h-0.8l-1.2-2.4h-1.2v2.4h-0.7V168.3z M118.3,170.9
		c0.8,0,1-0.5,1-0.9c0-0.4-0.2-1-1-1h-1.5v1.9H118.3z"/>
	<path d="M121,171.9c0-1.4,0.7-2.1,1.8-2.1c0.9,0,1.7,0.6,1.7,1.9c0,0.1,0,0.3,0,0.5h-2.8c0.1,0.8,0.5,1.2,1.1,1.2
		c0.3,0,0.6-0.1,0.9-0.4l0.4,0.5c-0.3,0.3-0.8,0.5-1.3,0.5C121.7,174,121,173.1,121,171.9z M123.8,171.5c0-0.9-0.6-1.2-1-1.2
		c-0.6,0-1.1,0.4-1.1,1.2H123.8z"/>
	<path d="M126.5,173.9h-0.7v-3.5h-0.6v-0.6h0.6v-0.7c0-0.7,0.4-0.9,0.9-0.9c0.3,0,0.6,0.1,0.8,0.2v0.6c-0.2-0.1-0.4-0.2-0.6-0.2
		c-0.3,0-0.4,0.2-0.4,0.4v0.6h1v0.6h-1V173.9z M128.2,168.6c0-0.2,0.2-0.4,0.4-0.4c0.2,0,0.4,0.2,0.4,0.4c0,0.2-0.2,0.4-0.4,0.4
		C128.4,169.1,128.2,168.9,128.2,168.6z M128.3,169.8h0.7v4.1h-0.7V169.8z"/>
	<path d="M132.8,171.4c0-0.8-0.4-1.1-0.9-1.1c-0.5,0-0.9,0.3-0.9,1.1v2.5h-0.7v-4.1h0.7v0.4c0.3-0.4,0.6-0.5,1.1-0.5
		c0.9,0,1.5,0.5,1.5,1.8v2.4h-0.7V171.4z"/>
	<path d="M134.5,171.9c0-1.4,0.7-2.1,1.8-2.1c0.9,0,1.7,0.6,1.7,1.9c0,0.1,0,0.3,0,0.5h-2.8c0.1,0.8,0.5,1.2,1.1,1.2
		c0.3,0,0.6-0.1,0.9-0.4l0.4,0.5c-0.3,0.3-0.8,0.5-1.3,0.5C135.2,174,134.5,173.1,134.5,171.9z M137.3,171.5c0-0.9-0.6-1.2-1-1.2
		c-0.6,0-1.1,0.4-1.1,1.2H137.3z"/>
	<path d="M139.9,171.6c0-1.8-0.8-3.1-1-3.4h0.7c0.5,0.6,1.1,1.8,1.1,3.4s-0.5,2.7-1,3.3h-0.7C139.1,174.6,139.9,173.4,139.9,171.6z"
		/>
</g>
<g>
	<g>
		<g>
			<defs>
				<line id="SVGID_9_" x1="-59.5" y1="449" x2="864.6" y2="449"/>
			</defs>
			<clipPath id="SVGID_10_">
				<use xlink:href="#SVGID_9_"  style="overflow:visible;"/>
			</clipPath>
			<path class="st10" d="M2.8,203.9c1.4,0,2.6-1.2,2.6-2.6s-1.2-2.6-2.6-2.6s-2.6,1.2-2.6,2.6S1.4,203.9,2.8,203.9"/>
		</g>
	</g>
</g>
<g class="st1">
	<path d="M3.4,198.3c1.9,0,2.6,1.4,2.6,2.8c0,1.3-0.6,2.8-2.6,2.8H1.9v-5.6H3.4z M5.3,201.1c0-1.1-0.5-2.2-1.7-2.2h-1v4.3h0.9
		C4.8,203.2,5.3,202.1,5.3,201.1z"/>
	<path d="M9.5,203.5c-0.3,0.3-0.7,0.5-1.2,0.5c-0.8,0-1.4-0.5-1.4-1.4c0-0.9,0.7-1.4,1.5-1.4c0.4,0,0.7,0.1,1.1,0.3v-0.3
		c0-0.7-0.4-0.9-0.9-0.9c-0.5,0-0.9,0.2-1.2,0.4l-0.2-0.6c0.3-0.2,0.9-0.4,1.5-0.4c0.6,0,1.5,0.2,1.5,1.5v2.7H9.5V203.5z M9.5,202.8
		v-0.7c-0.2-0.2-0.6-0.3-1-0.3c-0.5,0-1,0.2-1,0.8c0,0.5,0.3,0.8,0.9,0.8C8.9,203.4,9.3,203.1,9.5,202.8z"/>
</g>
<g class="st1">
	<path d="M11.6,203v-2.6H11v-0.6h0.7v-1.4l0.7-0.3v1.7h1v0.6h-1v2.4c0,0.3,0.1,0.6,0.4,0.6c0.2,0,0.4-0.1,0.6-0.2l-0.1,0.7
		c-0.2,0.1-0.5,0.2-0.8,0.2C11.9,204,11.6,203.6,11.6,203z"/>
</g>
<g class="st1">
	<path d="M14.1,201.9c0-1.4,0.7-2.1,1.8-2.1c0.9,0,1.7,0.6,1.7,1.9c0,0.1,0,0.3,0,0.5h-2.8c0.1,0.8,0.5,1.2,1.1,1.2
		c0.3,0,0.6-0.1,0.9-0.4l0.4,0.5c-0.3,0.3-0.8,0.5-1.3,0.5C14.8,204,14.1,203.1,14.1,201.9z M16.9,201.5c0-0.9-0.6-1.2-1-1.2
		c-0.6,0-1.1,0.4-1.1,1.2H16.9z"/>
</g>
<g class="st1">
	<path d="M21.1,201.4c0-0.8-0.4-1.1-0.9-1.1c-0.5,0-0.9,0.3-0.9,1.1v2.5h-0.7v-4.1h0.7v0.4c0.3-0.4,0.6-0.5,1.1-0.5
		c0.9,0,1.5,0.5,1.5,1.8v2.4h-0.7V201.4z"/>
</g>
<g class="st1">
	<path d="M22.6,199.8h0.7l1,2.7c0,0.1,0.1,0.3,0.1,0.4c0-0.1,0.1-0.3,0.1-0.4l1-2.7h0.7l-1.5,4.1h-0.6L22.6,199.8z"/>
	<path d="M27,198.6c0-0.2,0.2-0.4,0.4-0.4c0.2,0,0.4,0.2,0.4,0.4c0,0.2-0.2,0.4-0.4,0.4C27.2,199.1,27,198.9,27,198.6z M27.1,199.8
		h0.7v4.1h-0.7V199.8z"/>
	<path d="M28.9,203.3l0.5-0.4c0.2,0.2,0.6,0.5,1,0.5c0.4,0,0.8-0.2,0.8-0.5c0-0.4-0.5-0.6-0.9-0.8c-0.8-0.3-1.3-0.6-1.3-1.3
		c0-0.7,0.6-1.1,1.4-1.1c0.6,0,1.1,0.3,1.4,0.6l-0.5,0.4c-0.2-0.2-0.5-0.4-0.9-0.4c-0.4,0-0.7,0.2-0.7,0.5c0,0.3,0.4,0.5,0.9,0.7
		c0.7,0.3,1.3,0.6,1.3,1.4c0,0.7-0.6,1.2-1.5,1.2C29.7,204,29.2,203.7,28.9,203.3z"/>
	<path d="M35.4,203.5c-0.3,0.4-0.6,0.5-1,0.5c-1,0-1.5-0.5-1.5-1.8v-2.4h0.7v2.5c0,0.8,0.4,1.1,0.9,1.1c0.5,0,0.9-0.3,0.9-1.1v-2.5
		h0.7v4.1h-0.7V203.5z"/>
	<path d="M39.7,203.5c-0.3,0.3-0.7,0.5-1.2,0.5c-0.8,0-1.4-0.5-1.4-1.4c0-0.9,0.7-1.4,1.5-1.4c0.4,0,0.7,0.1,1.1,0.3v-0.3
		c0-0.7-0.4-0.9-0.9-0.9c-0.5,0-0.9,0.2-1.2,0.4l-0.2-0.6c0.3-0.2,0.9-0.4,1.5-0.4c0.6,0,1.5,0.2,1.5,1.5v2.7h-0.7V203.5z
		 M39.7,202.8v-0.7c-0.2-0.2-0.6-0.3-1-0.3c-0.5,0-1,0.2-1,0.8c0,0.5,0.3,0.8,0.9,0.8C39.1,203.4,39.5,203.1,39.7,202.8z"/>
	<path d="M41.6,198.5l0.7-0.3v5.8h-0.7V198.5z"/>
	<path d="M43.6,198.6c0-0.2,0.2-0.4,0.4-0.4c0.2,0,0.4,0.2,0.4,0.4c0,0.2-0.2,0.4-0.4,0.4C43.8,199.1,43.6,198.9,43.6,198.6z
		 M43.7,199.8h0.7v4.1h-0.7V199.8z"/>
	<path d="M45.4,203.3l0.5-0.4c0.2,0.2,0.6,0.5,1,0.5c0.4,0,0.8-0.2,0.8-0.5c0-0.4-0.5-0.6-0.9-0.8c-0.8-0.3-1.3-0.6-1.3-1.3
		c0-0.7,0.6-1.1,1.4-1.1c0.6,0,1.1,0.3,1.4,0.6l-0.5,0.4c-0.2-0.2-0.5-0.4-0.9-0.4c-0.4,0-0.7,0.2-0.7,0.5c0,0.3,0.4,0.5,0.9,0.7
		c0.7,0.3,1.3,0.6,1.3,1.4c0,0.7-0.6,1.2-1.5,1.2C46.3,204,45.8,203.7,45.4,203.3z"/>
	<path d="M49.4,198.6c0-0.2,0.2-0.4,0.4-0.4c0.2,0,0.4,0.2,0.4,0.4c0,0.2-0.2,0.4-0.4,0.4C49.6,199.1,49.4,198.9,49.4,198.6z
		 M49.5,199.8h0.7v4.1h-0.7V199.8z"/>
	<path d="M51.3,201.9c0-1.4,0.7-2.1,1.8-2.1c0.9,0,1.7,0.6,1.7,1.9c0,0.1,0,0.3,0,0.5H52c0.1,0.8,0.5,1.2,1.1,1.2
		c0.3,0,0.6-0.1,0.9-0.4l0.4,0.5c-0.3,0.3-0.8,0.5-1.3,0.5C52,204,51.3,203.1,51.3,201.9z M54.1,201.5c0-0.9-0.6-1.2-1-1.2
		c-0.6,0-1.1,0.4-1.1,1.2H54.1z"/>
</g>
<g class="st1">
	<path d="M55.8,199.8h0.7v0.5c0.2-0.4,0.6-0.6,1-0.6c0.2,0,0.4,0.1,0.6,0.2l-0.1,0.7c-0.1-0.1-0.3-0.2-0.6-0.2
		c-0.4,0-0.9,0.3-0.9,1.2v2.3h-0.7V199.8z"/>
</g>
<g class="st1">
	<path d="M61.4,203.5c-0.3,0.4-0.6,0.5-1,0.5c-1,0-1.5-0.5-1.5-1.8v-2.4h0.7v2.5c0,0.8,0.4,1.1,0.9,1.1c0.5,0,0.9-0.3,0.9-1.1v-2.5
		h0.7v4.1h-0.7V203.5z"/>
	<path d="M65.9,201.4c0-0.8-0.4-1.1-0.9-1.1c-0.5,0-0.9,0.3-0.9,1.1v2.5h-0.7v-4.1h0.7v0.4c0.3-0.4,0.6-0.5,1.1-0.5
		c0.9,0,1.5,0.5,1.5,1.8v2.4h-0.7V201.4z"/>
	<path d="M68.8,205c1.3-0.1,1.6-0.5,1.6-1v-0.5c-0.2,0.3-0.6,0.5-1.1,0.5c-0.9,0-1.7-0.7-1.7-2.1c0-1.3,0.7-2.1,1.7-2.1
		c0.6,0,0.9,0.3,1,0.4v-0.3h0.7v3.9c0,1.3-0.8,1.8-1.9,1.8L68.8,205z M70.4,202.8v-1.9c-0.2-0.3-0.6-0.5-0.9-0.5
		c-0.7,0-1.1,0.5-1.1,1.5c0,0.9,0.5,1.5,1.1,1.5C69.8,203.3,70.2,203.1,70.4,202.8z"/>
	<path d="M74.2,201.6c0-1.7,0.5-2.8,1.1-3.4h0.7c-0.3,0.4-1,1.7-1,3.4c0,1.8,0.7,3,1,3.3h-0.7C74.7,204.3,74.2,203.3,74.2,201.6z"/>
	<path d="M76.8,203.4l2.1-3h-2v-0.6h2.8v0.5l-2.1,3h2.1v0.6h-3V203.4z"/>
	<path d="M80.7,203.5c0-0.3,0.2-0.6,0.6-0.6s0.6,0.3,0.6,0.6c0,0.3-0.2,0.5-0.6,0.5S80.7,203.7,80.7,203.5z"/>
</g>
<g class="st1">
	<path d="M84.9,198.3c1.3,0,1.7,0.7,1.7,1.5c0,0.5-0.3,0.9-0.8,1.2c0.6,0.2,1,0.7,1,1.3c0,0.8-0.4,1.6-1.8,1.6h-2.1v-5.6H84.9z
		 M86,199.8c0-0.4-0.2-0.9-1-0.9h-1.3v1.7h1.2C85.6,200.7,86,200.3,86,199.8z M86.2,202.3c0-0.5-0.3-1-1.3-1h-1.2v2h1.5
		C85.9,203.3,86.2,202.8,86.2,202.3z"/>
</g>
<g class="st1">
	<path d="M87.7,203.5c0-0.3,0.2-0.6,0.6-0.6s0.6,0.3,0.6,0.6c0,0.3-0.2,0.5-0.6,0.5S87.7,203.7,87.7,203.5z"/>
	<path d="M91.8,198.3h3.3v0.7h-2.6v1.7h1.7v0.7h-1.7v1.9h2.8v0.7h-3.5V198.3z"/>
</g>
<g class="st1">
	<path d="M97.5,201.8l-1.3-2H97l0.6,1c0.1,0.1,0.2,0.3,0.2,0.4c0.1-0.1,0.1-0.2,0.2-0.4l0.6-1h0.8l-1.3,2l1.4,2.1h-0.8l-0.8-1.2
		c-0.1-0.1-0.2-0.3-0.2-0.4c-0.1,0.1-0.1,0.3-0.2,0.4l-0.8,1.2h-0.8L97.5,201.8z"/>
</g>
<g class="st1">
	<path d="M100.3,201.9c0-1.3,0.7-2.1,1.7-2.1c0.7,0,1.2,0.3,1.4,1l-0.7,0.2c-0.1-0.3-0.4-0.5-0.8-0.5c-0.7,0-1,0.6-1,1.5
		c0,0.9,0.3,1.5,1,1.5c0.4,0,0.7-0.2,0.8-0.6l0.6,0.2c-0.2,0.7-0.7,1-1.5,1C100.9,204,100.3,203.2,100.3,201.9z"/>
	<path d="M104.3,201.9c0-1.4,0.7-2.1,1.8-2.1c0.9,0,1.7,0.6,1.7,1.9c0,0.1,0,0.3,0,0.5H105c0.1,0.8,0.5,1.2,1.1,1.2
		c0.3,0,0.6-0.1,0.9-0.4l0.4,0.5c-0.3,0.3-0.8,0.5-1.3,0.5C105,204,104.3,203.1,104.3,201.9z M107.1,201.5c0-0.9-0.6-1.2-1-1.2
		c-0.6,0-1.1,0.4-1.1,1.2H107.1z"/>
	<path d="M108.8,198.5l0.7-0.3v5.8h-0.7V198.5z"/>
	<path d="M111.1,204c-0.3,0-0.6-0.2-0.6-0.5c0-0.3,0.2-0.6,0.5-0.6c0.3,0,0.6,0.2,0.6,0.7c0,0.6-0.4,1.1-0.8,1.4l-0.2-0.1
		C110.8,204.8,111.1,204.4,111.1,204z"/>
	<path d="M114.7,198.3h0.7v5.6h-0.7V198.3z"/>
	<path d="M119.4,201.4c0-0.8-0.4-1.1-0.9-1.1c-0.5,0-0.9,0.3-0.9,1.1v2.5h-0.7v-4.1h0.7v0.4c0.3-0.4,0.6-0.5,1.1-0.5
		c0.9,0,1.5,0.5,1.5,1.8v2.4h-0.7V201.4z"/>
</g>
<g class="st1">
	<path d="M122.2,203.9h-0.7v-3.5h-0.6v-0.6h0.6v-0.7c0-0.7,0.4-0.9,0.9-0.9c0.3,0,0.6,0.1,0.8,0.2v0.6c-0.2-0.1-0.4-0.2-0.6-0.2
		c-0.3,0-0.4,0.2-0.4,0.4v0.6h1v0.6h-1V203.9z"/>
</g>
<g class="st1">
	<path d="M123.7,201.9c0-1.3,0.7-2.1,1.8-2.1c1.1,0,1.8,0.8,1.8,2.1c0,1.3-0.7,2.1-1.8,2.1C124.4,204,123.7,203.2,123.7,201.9z
		 M126.6,201.9c0-0.9-0.4-1.5-1.1-1.5c-0.7,0-1.1,0.6-1.1,1.5c0,0.9,0.4,1.5,1.1,1.5C126.2,203.3,126.6,202.8,126.6,201.9z"/>
	<path d="M129.3,205c1.3-0.1,1.6-0.5,1.6-1v-0.5c-0.2,0.3-0.6,0.5-1.1,0.5c-0.9,0-1.7-0.7-1.7-2.1c0-1.3,0.7-2.1,1.7-2.1
		c0.6,0,0.9,0.3,1,0.4v-0.3h0.7v3.9c0,1.3-0.8,1.8-1.9,1.8L129.3,205z M130.9,202.8v-1.9c-0.2-0.3-0.6-0.5-0.9-0.5
		c-0.7,0-1.1,0.5-1.1,1.5c0,0.9,0.5,1.5,1.1,1.5C130.3,203.3,130.6,203.1,130.9,202.8z"/>
</g>
<g class="st1">
	<path d="M132.9,199.8h0.7v0.5c0.2-0.4,0.6-0.6,1-0.6c0.2,0,0.4,0.1,0.6,0.2l-0.1,0.7c-0.1-0.1-0.3-0.2-0.6-0.2
		c-0.4,0-0.9,0.3-0.9,1.2v2.3h-0.7V199.8z"/>
</g>
<g class="st1">
	<path d="M138.1,203.5c-0.3,0.3-0.7,0.5-1.2,0.5c-0.8,0-1.4-0.5-1.4-1.4c0-0.9,0.7-1.4,1.5-1.4c0.4,0,0.7,0.1,1.1,0.3v-0.3
		c0-0.7-0.4-0.9-0.9-0.9c-0.5,0-0.9,0.2-1.2,0.4l-0.2-0.6c0.3-0.2,0.9-0.4,1.5-0.4c0.6,0,1.5,0.2,1.5,1.5v2.7h-0.7V203.5z
		 M138.1,202.8v-0.7c-0.2-0.2-0.6-0.3-1-0.3c-0.5,0-1,0.2-1,0.8c0,0.5,0.3,0.8,0.9,0.8C137.5,203.4,137.9,203.1,138.1,202.8z"/>
	<path d="M144.8,201.4c0-0.6-0.2-1.1-0.8-1.1c-0.5,0-0.9,0.4-0.9,1.1v2.5h-0.7v-2.5c0-0.6-0.2-1.1-0.8-1.1c-0.5,0-0.9,0.4-0.9,1.1
		v2.5H140v-4.1h0.7v0.4c0.2-0.3,0.6-0.5,1.1-0.5c0.4,0,0.9,0.2,1.1,0.6c0.2-0.4,0.7-0.6,1.2-0.6c0.8,0,1.4,0.5,1.4,1.5v2.7h-0.7
		V201.4z"/>
	<path d="M147,204c-0.3,0-0.6-0.2-0.6-0.5c0-0.3,0.2-0.6,0.5-0.6c0.3,0,0.6,0.2,0.6,0.7c0,0.6-0.4,1.1-0.8,1.4l-0.2-0.1
		C146.7,204.8,147,204.4,147,204z"/>
</g>
<g class="st1">
	<path d="M3.9,215.9H3.2V211H1.7v-0.7h3.8v0.7H3.9V215.9z"/>
</g>
<g class="st1">
	<path d="M8.3,215.5c-0.3,0.3-0.7,0.5-1.2,0.5c-0.8,0-1.4-0.5-1.4-1.4c0-0.9,0.7-1.4,1.5-1.4c0.4,0,0.7,0.1,1.1,0.3v-0.3
		c0-0.7-0.4-0.9-0.9-0.9c-0.5,0-0.9,0.2-1.2,0.4l-0.2-0.6c0.3-0.2,0.9-0.4,1.5-0.4c0.6,0,1.5,0.2,1.5,1.5v2.7H8.3V215.5z M8.3,214.8
		v-0.7c-0.2-0.2-0.6-0.3-1-0.3c-0.5,0-1,0.2-1,0.8c0,0.5,0.3,0.8,0.9,0.8C7.7,215.4,8.1,215.1,8.3,214.8z"/>
	<path d="M10.9,215.5v0.4h-0.7v-5.4l0.7-0.3v2c0.2-0.3,0.6-0.4,1-0.4c1,0,1.7,0.8,1.7,2.1c0,1.4-0.6,2.1-1.7,2.1
		C11.4,216,11.1,215.8,10.9,215.5z M12.9,213.9c0-1-0.4-1.5-1.1-1.5c-0.5,0-0.8,0.3-1,0.5v1.9c0.2,0.3,0.6,0.6,1,0.6
		C12.6,215.3,12.9,214.8,12.9,213.9z"/>
	<path d="M14.7,210.5l0.7-0.3v5.8h-0.7V210.5z"/>
	<path d="M16.6,213.9c0-1.4,0.7-2.1,1.8-2.1c0.9,0,1.7,0.6,1.7,1.9c0,0.1,0,0.3,0,0.5h-2.8c0.1,0.8,0.5,1.2,1.1,1.2
		c0.3,0,0.6-0.1,0.9-0.4l0.4,0.5c-0.3,0.3-0.8,0.5-1.3,0.5C17.2,216,16.6,215.1,16.6,213.9z M19.4,213.5c0-0.9-0.6-1.2-1-1.2
		c-0.6,0-1.1,0.4-1.1,1.2H19.4z"/>
	<path d="M23.4,215.5c-0.3,0.3-0.7,0.5-1.2,0.5c-0.8,0-1.4-0.5-1.4-1.4c0-0.9,0.7-1.4,1.5-1.4c0.4,0,0.7,0.1,1.1,0.3v-0.3
		c0-0.7-0.4-0.9-0.9-0.9c-0.5,0-0.9,0.2-1.2,0.4l-0.2-0.6c0.3-0.2,0.9-0.4,1.5-0.4c0.6,0,1.5,0.2,1.5,1.5v2.7h-0.7V215.5z
		 M23.4,214.8v-0.7c-0.2-0.2-0.6-0.3-1-0.3c-0.5,0-1,0.2-1,0.8c0,0.5,0.3,0.8,0.9,0.8C22.8,215.4,23.2,215.1,23.4,214.8z"/>
	<path d="M27.8,215.5c-0.3,0.4-0.6,0.5-1,0.5c-1,0-1.5-0.5-1.5-1.8v-2.4H26v2.5c0,0.8,0.4,1.1,0.9,1.1c0.5,0,0.9-0.3,0.9-1.1v-2.5
		h0.7v4.1h-0.7V215.5z"/>
	<path d="M30.6,213.6c0-1.8-0.8-3.1-1-3.4h0.7c0.5,0.6,1.1,1.8,1.1,3.4s-0.5,2.7-1,3.3h-0.7C29.9,216.6,30.6,215.4,30.6,213.6z"/>
</g>
<g>
	<g>
		<g>
			<defs>
				<line id="SVGID_11_" x1="-59.5" y1="449" x2="864.6" y2="449"/>
			</defs>
			<clipPath id="SVGID_12_">
				<use xlink:href="#SVGID_11_"  style="overflow:visible;"/>
			</clipPath>
			<path class="st11" d="M2.8,245.9c1.4,0,2.6-1.2,2.6-2.6s-1.2-2.6-2.6-2.6s-2.6,1.2-2.6,2.6C0.2,244.7,1.4,245.9,2.8,245.9"/>
		</g>
	</g>
</g>
<rect y="239.1" class="st6" width="5.3" height="9"/>
<g class="st1">
	<path d="M2.5,242.8l-1,1.2v1.9H0.8v-5.6h0.7v2.7l2.2-2.7h0.8l-1.5,1.9l2,3.7H4.1L2.5,242.8z"/>
</g>
<rect x="5.2" y="239.1" class="st6" width="21.8" height="9"/>
<g class="st1">
	<path d="M5.7,243.9c0-1.3,0.7-2.1,1.8-2.1c1.1,0,1.8,0.8,1.8,2.1c0,1.3-0.7,2.1-1.8,2.1C6.4,246,5.7,245.2,5.7,243.9z M8.6,243.9
		c0-0.9-0.4-1.5-1.1-1.5c-0.7,0-1.1,0.6-1.1,1.5c0,0.9,0.4,1.5,1.1,1.5C8.2,245.3,8.6,244.8,8.6,243.9z"/>
	<path d="M10.4,240.5l0.7-0.3v5.8h-0.7V240.5z"/>
	<path d="M12.5,240.5l0.7-0.3v5.8h-0.7V240.5z"/>
	<path d="M16.9,245.5c-0.3,0.3-0.7,0.5-1.2,0.5c-0.8,0-1.4-0.5-1.4-1.4c0-0.9,0.7-1.4,1.5-1.4c0.4,0,0.7,0.1,1.1,0.3v-0.3
		c0-0.7-0.4-0.9-0.9-0.9c-0.5,0-0.9,0.2-1.2,0.4l-0.2-0.6c0.3-0.2,0.9-0.4,1.5-0.4c0.6,0,1.5,0.2,1.5,1.5v2.7h-0.7V245.5z
		 M16.9,244.8v-0.7c-0.2-0.2-0.6-0.3-1-0.3c-0.5,0-1,0.2-1,0.8c0,0.5,0.3,0.8,0.9,0.8C16.3,245.4,16.7,245.1,16.9,244.8z"/>
	<path d="M19.5,245.5v0.4h-0.7v-5.4l0.7-0.3v2c0.2-0.3,0.6-0.4,1-0.4c1,0,1.7,0.8,1.7,2.1c0,1.4-0.6,2.1-1.7,2.1
		C20,246,19.7,245.8,19.5,245.5z M21.5,243.9c0-1-0.4-1.5-1.1-1.5c-0.5,0-0.8,0.3-1,0.5v1.9c0.2,0.3,0.6,0.6,1,0.6
		C21.1,245.3,21.5,244.8,21.5,243.9z"/>
	<path d="M23,243.9c0-1.3,0.7-2.1,1.8-2.1c1.1,0,1.8,0.8,1.8,2.1c0,1.3-0.7,2.1-1.8,2.1C23.7,246,23,245.2,23,243.9z M25.9,243.9
		c0-0.9-0.4-1.5-1.1-1.5c-0.7,0-1.1,0.6-1.1,1.5c0,0.9,0.4,1.5,1.1,1.5C25.5,245.3,25.9,244.8,25.9,243.9z"/>
</g>
<rect x="27" y="239.1" class="st6" width="3.2" height="9"/>
<g class="st1">
	<path d="M27.7,241.8h0.7v0.5c0.2-0.4,0.6-0.6,1-0.6c0.2,0,0.4,0.1,0.6,0.2l-0.1,0.7c-0.1-0.1-0.3-0.2-0.6-0.2
		c-0.4,0-0.9,0.3-0.9,1.2v2.3h-0.7V241.8z"/>
</g>
<rect x="30" y="239.1" class="st6" width="28.6" height="9"/>
<g class="st1">
	<path d="M33,245.5c-0.3,0.3-0.7,0.5-1.2,0.5c-0.8,0-1.4-0.5-1.4-1.4c0-0.9,0.7-1.4,1.5-1.4c0.4,0,0.7,0.1,1.1,0.3v-0.3
		c0-0.7-0.4-0.9-0.9-0.9c-0.5,0-0.9,0.2-1.2,0.4l-0.2-0.6c0.3-0.2,0.9-0.4,1.5-0.4c0.6,0,1.5,0.2,1.5,1.5v2.7H33V245.5z M33,244.8
		v-0.7c-0.2-0.2-0.6-0.3-1-0.3c-0.5,0-1,0.2-1,0.8c0,0.5,0.3,0.8,0.9,0.8C32.4,245.4,32.8,245.1,33,244.8z"/>
	<path d="M35.1,245v-2.6h-0.7v-0.6h0.7v-1.4l0.7-0.3v1.7h1v0.6h-1v2.4c0,0.3,0.1,0.6,0.4,0.6c0.2,0,0.4-0.1,0.6-0.2l-0.1,0.7
		c-0.2,0.1-0.5,0.2-0.8,0.2C35.4,246,35.1,245.6,35.1,245z"/>
	<path d="M37.8,240.6c0-0.2,0.2-0.4,0.4-0.4c0.2,0,0.4,0.2,0.4,0.4c0,0.2-0.2,0.4-0.4,0.4C38,241.1,37.8,240.9,37.8,240.6z
		 M37.9,241.8h0.7v4.1h-0.7V241.8z"/>
	<path d="M39.7,243.9c0-1.3,0.7-2.1,1.8-2.1c1.1,0,1.8,0.8,1.8,2.1c0,1.3-0.7,2.1-1.8,2.1C40.4,246,39.7,245.2,39.7,243.9z
		 M42.6,243.9c0-0.9-0.4-1.5-1.1-1.5c-0.7,0-1.1,0.6-1.1,1.5c0,0.9,0.4,1.5,1.1,1.5C42.2,245.3,42.6,244.8,42.6,243.9z"/>
	<path d="M46.9,243.4c0-0.8-0.4-1.1-0.9-1.1c-0.5,0-0.9,0.3-0.9,1.1v2.5h-0.7v-4.1h0.7v0.4c0.3-0.4,0.6-0.5,1.1-0.5
		c0.9,0,1.5,0.5,1.5,1.8v2.4h-0.7V243.4z"/>
	<path d="M50.7,243.6c0-1.7,0.5-2.8,1.1-3.4h0.7c-0.3,0.4-1,1.7-1,3.4c0,1.8,0.7,3,1,3.3h-0.7C51.2,246.3,50.7,245.3,50.7,243.6z"/>
	<path d="M53.3,245.4l2.1-3h-2v-0.6h2.8v0.5l-2.1,3h2.1v0.6h-3V245.4z"/>
	<path d="M57.2,245.5c0-0.3,0.2-0.6,0.6-0.6s0.6,0.3,0.6,0.6c0,0.3-0.2,0.5-0.6,0.5S57.2,245.7,57.2,245.5z"/>
</g>
<rect x="58.6" y="239.1" class="st6" width="5.2" height="9"/>
<g class="st1">
	<path d="M61.4,240.3c1.3,0,1.7,0.7,1.7,1.5c0,0.5-0.3,0.9-0.8,1.2c0.6,0.2,1,0.7,1,1.3c0,0.8-0.4,1.6-1.8,1.6h-2.1v-5.6H61.4z
		 M62.5,241.8c0-0.4-0.2-0.9-1-0.9h-1.3v1.7h1.2C62.1,242.7,62.5,242.3,62.5,241.8z M62.7,244.3c0-0.5-0.3-1-1.3-1h-1.2v2h1.5
		C62.4,245.3,62.7,244.8,62.7,244.3z"/>
</g>
<rect x="63.8" y="239.1" class="st6" width="3.6" height="9"/>
<g class="st1">
	<path d="M64.2,245.5c0-0.3,0.2-0.6,0.6-0.6s0.6,0.3,0.6,0.6c0,0.3-0.2,0.5-0.6,0.5S64.2,245.7,64.2,245.5z"/>
</g>
<rect x="67.5" y="239.1" class="st6" width="5" height="9"/>
<g class="st1">
	<path d="M68.3,240.3h2.1c1.4,0,1.8,0.8,1.8,1.7c0,0.8-0.5,1.7-1.8,1.7H69v2.2h-0.7V240.3z M71.6,242c0-0.4-0.2-1-1.1-1H69v2.1h1.5
		C71.3,243,71.6,242.5,71.6,242z"/>
</g>
<rect x="72.4" y="239.1" class="st6" width="42.9" height="9"/>
<g class="st1">
	<path d="M75.4,245.5c-0.3,0.3-0.7,0.5-1.2,0.5c-0.8,0-1.4-0.5-1.4-1.4c0-0.9,0.7-1.4,1.5-1.4c0.4,0,0.7,0.1,1.1,0.3v-0.3
		c0-0.7-0.4-0.9-0.9-0.9c-0.5,0-0.9,0.2-1.2,0.4l-0.2-0.6c0.3-0.2,0.9-0.4,1.5-0.4c0.6,0,1.5,0.2,1.5,1.5v2.7h-0.7V245.5z
		 M75.4,244.8v-0.7c-0.2-0.2-0.6-0.3-1-0.3c-0.5,0-1,0.2-1,0.8c0,0.5,0.3,0.8,0.9,0.8C74.8,245.4,75.2,245.1,75.4,244.8z"/>
	<path d="M77.1,243.9c0-1.3,0.7-2.1,1.7-2.1c0.5,0,0.8,0.2,1,0.4v-1.6l0.7-0.3v5.8h-0.7v-0.3c-0.2,0.2-0.5,0.4-1,0.4
		C77.7,246,77.1,245.2,77.1,243.9z M79.8,244.8v-1.9c-0.2-0.2-0.5-0.5-0.9-0.5c-0.7,0-1.1,0.5-1.1,1.5c0,0.8,0.4,1.5,1.1,1.5
		C79.2,245.3,79.6,245.1,79.8,244.8z"/>
	<path d="M81.5,245.3l0.5-0.4c0.2,0.2,0.6,0.5,1,0.5c0.4,0,0.8-0.2,0.8-0.5c0-0.4-0.5-0.6-0.9-0.8c-0.8-0.3-1.3-0.6-1.3-1.3
		c0-0.7,0.6-1.1,1.4-1.1c0.6,0,1.1,0.3,1.4,0.6l-0.5,0.4c-0.2-0.2-0.5-0.4-0.9-0.4c-0.4,0-0.7,0.2-0.7,0.5c0,0.3,0.4,0.5,0.9,0.7
		c0.7,0.3,1.3,0.6,1.3,1.4c0,0.7-0.6,1.2-1.5,1.2C82.4,246,81.9,245.7,81.5,245.3z"/>
	<path d="M85.8,246c-0.3,0-0.6-0.2-0.6-0.5c0-0.3,0.2-0.6,0.5-0.6c0.3,0,0.6,0.2,0.6,0.7c0,0.6-0.4,1.1-0.8,1.4l-0.2-0.1
		C85.5,246.8,85.8,246.4,85.8,246z"/>
	<path d="M89.1,243.1c0-1.4,0.7-2.9,2.4-2.9c1,0,1.5,0.5,1.8,1l-0.6,0.4c-0.3-0.4-0.6-0.7-1.2-0.7c-1.2,0-1.7,1.2-1.7,2.2
		c0,1.2,0.5,2.2,1.7,2.2c0.8,0,1.3-0.5,1.3-1.3v-0.2h-1v-0.6h1.7v0.7c0,1.4-0.9,2.1-2,2.1C89.8,246,89.1,244.6,89.1,243.1z"/>
	<path d="M94.6,240.6c0-0.2,0.2-0.4,0.4-0.4c0.2,0,0.4,0.2,0.4,0.4c0,0.2-0.2,0.4-0.4,0.4C94.8,241.1,94.6,240.9,94.6,240.6z
		 M94.7,241.8h0.7v4.1h-0.7V241.8z"/>
	<path d="M97,245v-2.6h-0.7v-0.6H97v-1.4l0.7-0.3v1.7h1v0.6h-1v2.4c0,0.3,0.1,0.6,0.4,0.6c0.2,0,0.4-0.1,0.6-0.2l-0.1,0.7
		c-0.2,0.1-0.5,0.2-0.8,0.2C97.2,246,97,245.6,97,245z"/>
	<path d="M99.7,240.4l0.7-0.3v2.1c0.3-0.4,0.6-0.5,1.1-0.5c0.9,0,1.5,0.5,1.5,1.8v2.4h-0.7v-2.5c0-0.8-0.4-1.1-0.9-1.1
		c-0.5,0-0.9,0.3-0.9,1.1v2.5h-0.7V240.4z"/>
	<path d="M106.7,245.5c-0.3,0.4-0.6,0.5-1,0.5c-1,0-1.5-0.5-1.5-1.8v-2.4h0.7v2.5c0,0.8,0.4,1.1,0.9,1.1c0.5,0,0.9-0.3,0.9-1.1v-2.5
		h0.7v4.1h-0.7V245.5z"/>
	<path d="M109.4,245.5v0.4h-0.7v-5.4l0.7-0.3v2c0.2-0.3,0.6-0.4,1-0.4c1,0,1.7,0.8,1.7,2.1c0,1.4-0.6,2.1-1.7,2.1
		C110,246,109.7,245.8,109.4,245.5z M111.4,243.9c0-1-0.4-1.5-1.1-1.5c-0.5,0-0.8,0.3-1,0.5v1.9c0.2,0.3,0.6,0.6,1,0.6
		C111.1,245.3,111.4,244.8,111.4,243.9z"/>
	<path d="M114,243.6c0-1.8-0.8-3.1-1-3.4h0.7c0.5,0.6,1.1,1.8,1.1,3.4s-0.5,2.7-1,3.3H113C113.3,246.6,114,245.4,114,243.6z"/>
</g>
<g>
	<g>
		<g>
			<defs>
				<line id="SVGID_13_" x1="-59.5" y1="449" x2="864.6" y2="449"/>
			</defs>
			<clipPath id="SVGID_14_">
				<use xlink:href="#SVGID_13_"  style="overflow:visible;"/>
			</clipPath>
			<path class="st12" d="M2.8,287.9c1.4,0,2.6-1.2,2.6-2.6s-1.2-2.6-2.6-2.6s-2.6,1.2-2.6,2.6C0.2,286.7,1.4,287.9,2.8,287.9"/>
		</g>
	</g>
</g>
<rect y="281.1" class="st6" width="5.3" height="9"/>
<g class="st1">
	<path d="M2.5,284.8l-1,1.2v1.9H0.8v-5.6h0.7v2.7l2.2-2.7h0.8l-1.5,1.9l2,3.7H4.1L2.5,284.8z"/>
</g>
<rect x="5.2" y="281.1" class="st6" width="29" height="9"/>
<g class="st1">
	<path d="M5.7,285.9c0-1.3,0.7-2.1,1.8-2.1c1.1,0,1.8,0.8,1.8,2.1c0,1.3-0.7,2.1-1.8,2.1C6.4,288,5.7,287.2,5.7,285.9z M8.6,285.9
		c0-0.9-0.4-1.5-1.1-1.5c-0.7,0-1.1,0.6-1.1,1.5c0,0.9,0.4,1.5,1.1,1.5C8.2,287.3,8.6,286.8,8.6,285.9z"/>
	<path d="M15.2,285.4c0-0.6-0.2-1.1-0.8-1.1c-0.5,0-0.9,0.4-0.9,1.1v2.5h-0.7v-2.5c0-0.6-0.2-1.1-0.8-1.1c-0.5,0-0.9,0.4-0.9,1.1
		v2.5h-0.7v-4.1h0.7v0.4c0.2-0.3,0.6-0.5,1.1-0.5c0.4,0,0.9,0.2,1.1,0.6c0.2-0.4,0.7-0.6,1.2-0.6c0.8,0,1.4,0.5,1.4,1.5v2.7h-0.7
		V285.4z"/>
	<path d="M21.9,285.4c0-0.6-0.2-1.1-0.8-1.1c-0.5,0-0.9,0.4-0.9,1.1v2.5h-0.7v-2.5c0-0.6-0.2-1.1-0.8-1.1c-0.5,0-0.9,0.4-0.9,1.1
		v2.5h-0.7v-4.1h0.7v0.4c0.2-0.3,0.6-0.5,1.1-0.5c0.4,0,0.9,0.2,1.1,0.6c0.2-0.4,0.7-0.6,1.2-0.6c0.8,0,1.4,0.5,1.4,1.5v2.7h-0.7
		V285.4z"/>
	<path d="M26.4,287.5c-0.3,0.4-0.6,0.5-1,0.5c-1,0-1.5-0.5-1.5-1.8v-2.4h0.7v2.5c0,0.8,0.4,1.1,0.9,1.1c0.5,0,0.9-0.3,0.9-1.1v-2.5
		h0.7v4.1h-0.7V287.5z"/>
	<path d="M30.9,285.4c0-0.8-0.4-1.1-0.9-1.1c-0.5,0-0.9,0.3-0.9,1.1v2.5h-0.7v-4.1h0.7v0.4c0.3-0.4,0.6-0.5,1.1-0.5
		c0.9,0,1.5,0.5,1.5,1.8v2.4h-0.7V285.4z"/>
	<path d="M32.8,282.6c0-0.2,0.2-0.4,0.4-0.4c0.2,0,0.4,0.2,0.4,0.4c0,0.2-0.2,0.4-0.4,0.4C33,283.1,32.8,282.9,32.8,282.6z
		 M32.9,283.8h0.7v4.1h-0.7V283.8z"/>
</g>
<rect x="34.2" y="281.1" class="st6" width="4.2" height="9"/>
<g class="st1">
	<path d="M37.5,287.9l-1.3-2.5l-0.6,0.6v1.8h-0.7v-5.4l0.7-0.3v3.1l1.3-1.4h0.8l-1.1,1.1l1.5,3H37.5z"/>
</g>
<rect x="38.3" y="281.1" class="st6" width="81.1" height="9"/>
<g class="st1">
	<path d="M41.3,287.5c-0.3,0.3-0.7,0.5-1.2,0.5c-0.8,0-1.4-0.5-1.4-1.4c0-0.9,0.7-1.4,1.5-1.4c0.4,0,0.7,0.1,1.1,0.3v-0.3
		c0-0.7-0.4-0.9-0.9-0.9c-0.5,0-0.9,0.2-1.2,0.4l-0.2-0.6c0.3-0.2,0.9-0.4,1.5-0.4c0.6,0,1.5,0.2,1.5,1.5v2.7h-0.7V287.5z
		 M41.3,286.8v-0.7c-0.2-0.2-0.6-0.3-1-0.3c-0.5,0-1,0.2-1,0.8c0,0.5,0.3,0.8,0.9,0.8C40.7,287.4,41.1,287.1,41.3,286.8z"/>
	<path d="M43.4,287v-2.6h-0.7v-0.6h0.7v-1.4l0.7-0.3v1.7h1v0.6h-1v2.4c0,0.3,0.1,0.6,0.4,0.6c0.2,0,0.4-0.1,0.6-0.2l-0.1,0.7
		c-0.2,0.1-0.5,0.2-0.8,0.2C43.7,288,43.4,287.6,43.4,287z"/>
	<path d="M46.1,282.6c0-0.2,0.2-0.4,0.4-0.4c0.2,0,0.4,0.2,0.4,0.4c0,0.2-0.2,0.4-0.4,0.4C46.3,283.1,46.1,282.9,46.1,282.6z
		 M46.2,283.8h0.7v4.1h-0.7V283.8z"/>
	<path d="M48,285.9c0-1.3,0.7-2.1,1.8-2.1c1.1,0,1.8,0.8,1.8,2.1c0,1.3-0.7,2.1-1.8,2.1C48.7,288,48,287.2,48,285.9z M50.9,285.9
		c0-0.9-0.4-1.5-1.1-1.5c-0.7,0-1.1,0.6-1.1,1.5c0,0.9,0.4,1.5,1.1,1.5C50.5,287.3,50.9,286.8,50.9,285.9z"/>
	<path d="M55.2,285.4c0-0.8-0.4-1.1-0.9-1.1c-0.5,0-0.9,0.3-0.9,1.1v2.5h-0.7v-4.1h0.7v0.4c0.3-0.4,0.6-0.5,1.1-0.5
		c0.9,0,1.5,0.5,1.5,1.8v2.4h-0.7V285.4z"/>
	<path d="M61.5,282.2h0.7l-3.1,6.7h-0.7L61.5,282.2z"/>
	<path d="M64.6,286.7l0.7-0.2c0.2,0.5,0.7,0.8,1.3,0.8c0.7,0,1.1-0.3,1.1-0.9c0-0.6-0.6-0.9-1.3-1.2c-0.8-0.3-1.6-0.6-1.6-1.6
		c0-0.8,0.6-1.4,1.7-1.4c0.9,0,1.5,0.4,1.6,1l-0.6,0.2c-0.1-0.3-0.5-0.6-1-0.6c-0.6,0-1,0.3-1,0.7c0,0.5,0.6,0.8,1.2,1
		c0.8,0.3,1.7,0.7,1.7,1.8c0,1-0.8,1.6-1.8,1.6C65.6,288,64.8,287.5,64.6,286.7z"/>
	<path d="M69.4,285.9c0-1.3,0.7-2.1,1.8-2.1c1.1,0,1.8,0.8,1.8,2.1c0,1.3-0.7,2.1-1.8,2.1C70.1,288,69.4,287.2,69.4,285.9z
		 M72.3,285.9c0-0.9-0.4-1.5-1.1-1.5c-0.7,0-1.1,0.6-1.1,1.5c0,0.9,0.4,1.5,1.1,1.5C71.8,287.3,72.3,286.8,72.3,285.9z"/>
	<path d="M73.8,285.9c0-1.3,0.7-2.1,1.7-2.1c0.7,0,1.2,0.3,1.4,1l-0.7,0.2c-0.1-0.3-0.4-0.5-0.8-0.5c-0.7,0-1,0.6-1,1.5
		c0,0.9,0.3,1.5,1,1.5c0.4,0,0.7-0.2,0.8-0.6l0.6,0.2c-0.2,0.7-0.7,1-1.5,1C74.5,288,73.8,287.2,73.8,285.9z"/>
	<path d="M78,282.6c0-0.2,0.2-0.4,0.4-0.4c0.2,0,0.4,0.2,0.4,0.4c0,0.2-0.2,0.4-0.4,0.4C78.2,283.1,78,282.9,78,282.6z M78.1,283.8
		h0.7v4.1h-0.7V283.8z"/>
	<path d="M82.4,287.5c-0.3,0.3-0.7,0.5-1.2,0.5c-0.8,0-1.4-0.5-1.4-1.4c0-0.9,0.7-1.4,1.5-1.4c0.4,0,0.7,0.1,1.1,0.3v-0.3
		c0-0.7-0.4-0.9-0.9-0.9c-0.5,0-0.9,0.2-1.2,0.4l-0.2-0.6c0.3-0.2,0.9-0.4,1.5-0.4c0.6,0,1.5,0.2,1.5,1.5v2.7h-0.7V287.5z
		 M82.4,286.8v-0.7c-0.2-0.2-0.6-0.3-1-0.3c-0.5,0-1,0.2-1,0.8c0,0.5,0.3,0.8,0.9,0.8C81.8,287.4,82.2,287.1,82.4,286.8z"/>
	<path d="M84.3,282.5l0.7-0.3v5.8h-0.7V282.5z"/>
	<path d="M92.5,287.9v-3.4c0-0.2,0-0.5,0-0.6c-0.1,0.2-0.2,0.4-0.2,0.6l-1.5,3.5l-1.5-3.5c-0.1-0.2-0.2-0.4-0.2-0.6
		c0,0.1,0,0.4,0,0.6v3.4h-0.7v-5.6H89l1.6,3.8l0.1,0.4c0-0.1,0.1-0.3,0.1-0.4l1.6-3.8h0.7v5.6H92.5z"/>
	<path d="M94.4,285.9c0-1.4,0.7-2.1,1.8-2.1c0.9,0,1.7,0.6,1.7,1.9c0,0.1,0,0.3,0,0.5h-2.8c0.1,0.8,0.5,1.2,1.1,1.2
		c0.3,0,0.6-0.1,0.9-0.4l0.4,0.5c-0.3,0.3-0.8,0.5-1.3,0.5C95.1,288,94.4,287.1,94.4,285.9z M97.2,285.5c0-0.9-0.6-1.2-1-1.2
		c-0.6,0-1.1,0.4-1.1,1.2H97.2z"/>
	<path d="M98.7,285.9c0-1.3,0.7-2.1,1.7-2.1c0.5,0,0.8,0.2,1,0.4v-1.6l0.7-0.3v5.8h-0.7v-0.3c-0.2,0.2-0.5,0.4-1,0.4
		C99.4,288,98.7,287.2,98.7,285.9z M101.4,286.8v-1.9c-0.2-0.2-0.5-0.5-0.9-0.5c-0.7,0-1.1,0.5-1.1,1.5c0,0.8,0.4,1.5,1.1,1.5
		C100.9,287.3,101.2,287.1,101.4,286.8z"/>
	<path d="M103.4,282.6c0-0.2,0.2-0.4,0.4-0.4c0.2,0,0.4,0.2,0.4,0.4c0,0.2-0.2,0.4-0.4,0.4C103.6,283.1,103.4,282.9,103.4,282.6z
		 M103.5,283.8h0.7v4.1h-0.7V283.8z"/>
	<path d="M107.8,287.5c-0.3,0.3-0.7,0.5-1.2,0.5c-0.8,0-1.4-0.5-1.4-1.4c0-0.9,0.7-1.4,1.5-1.4c0.4,0,0.7,0.1,1.1,0.3v-0.3
		c0-0.7-0.4-0.9-0.9-0.9c-0.5,0-0.9,0.2-1.2,0.4l-0.2-0.6c0.3-0.2,0.9-0.4,1.5-0.4c0.6,0,1.5,0.2,1.5,1.5v2.7h-0.7V287.5z
		 M107.8,286.8v-0.7c-0.2-0.2-0.6-0.3-1-0.3c-0.5,0-1,0.2-1,0.8c0,0.5,0.3,0.8,0.9,0.8C107.2,287.4,107.6,287.1,107.8,286.8z"/>
	<path d="M111.5,285.6c0-1.7,0.5-2.8,1.1-3.4h0.7c-0.3,0.4-1,1.7-1,3.4c0,1.8,0.7,3,1,3.3h-0.7C112,288.3,111.5,287.3,111.5,285.6z"
		/>
	<path d="M114.1,287.4l2.1-3h-2v-0.6h2.8v0.5l-2.1,3h2.1v0.6h-3V287.4z"/>
	<path d="M118,287.5c0-0.3,0.2-0.6,0.6-0.6s0.6,0.3,0.6,0.6c0,0.3-0.2,0.5-0.6,0.5S118,287.7,118,287.5z"/>
</g>
<rect x="119.4" y="281.1" class="st6" width="5.2" height="9"/>
<g class="st1">
	<path d="M122.2,282.3c1.3,0,1.7,0.7,1.7,1.5c0,0.5-0.3,0.9-0.8,1.2c0.6,0.2,1,0.7,1,1.3c0,0.8-0.4,1.6-1.8,1.6h-2.1v-5.6H122.2z
		 M123.3,283.8c0-0.4-0.2-0.9-1-0.9h-1.3v1.7h1.2C122.9,284.7,123.3,284.3,123.3,283.8z M123.5,286.3c0-0.5-0.3-1-1.3-1h-1.2v2h1.5
		C123.2,287.3,123.5,286.8,123.5,286.3z"/>
</g>
<rect x="124.6" y="281.1" class="st6" width="1.8" height="9"/>
<g class="st1">
	<path d="M125,287.5c0-0.3,0.2-0.6,0.6-0.6s0.6,0.3,0.6,0.6c0,0.3-0.2,0.5-0.6,0.5S125,287.7,125,287.5z"/>
</g>
<rect x="126.4" y="281.1" class="st6" width="5.9" height="9"/>
<rect x="132.3" y="281.1" class="st6" width="7.8" height="9"/>
<g class="st1">
	<path d="M132.6,283.8h0.7l0.6,2.7c0,0.2,0.1,0.3,0.1,0.4c0-0.1,0.1-0.3,0.1-0.4l0.8-2.7h0.6l0.8,2.7l0.1,0.4c0-0.1,0.1-0.3,0.1-0.4
		l0.6-2.7h0.7l-1,4.1h-0.6l-0.7-2.4c0-0.2-0.1-0.4-0.2-0.5c0,0.2-0.1,0.4-0.1,0.5l-0.7,2.4h-0.6L132.6,283.8z"/>
	<path d="M138.6,282.6c0-0.2,0.2-0.4,0.4-0.4c0.2,0,0.4,0.2,0.4,0.4c0,0.2-0.2,0.4-0.4,0.4C138.8,283.1,138.6,282.9,138.6,282.6z
		 M138.7,283.8h0.7v4.1h-0.7V283.8z"/>
</g>
<rect x="140" y="281.1" class="st6" width="3" height="9"/>
<g class="st1">
	<path d="M140.9,287v-2.6h-0.7v-0.6h0.7v-1.4l0.7-0.3v1.7h1v0.6h-1v2.4c0,0.3,0.1,0.6,0.4,0.6c0.2,0,0.4-0.1,0.6-0.2l-0.1,0.7
		c-0.2,0.1-0.5,0.2-0.8,0.2C141.2,288,140.9,287.6,140.9,287z"/>
</g>
<rect x="142.9" y="281.1" class="st6" width="3" height="9"/>
<g class="st1">
	<path d="M143.8,287v-2.6h-0.7v-0.6h0.7v-1.4l0.7-0.3v1.7h1v0.6h-1v2.4c0,0.3,0.1,0.6,0.4,0.6c0.2,0,0.4-0.1,0.6-0.2l-0.1,0.7
		c-0.2,0.1-0.5,0.2-0.8,0.2C144.1,288,143.8,287.6,143.8,287z"/>
</g>
<rect x="145.8" y="281.1" class="st6" width="10.2" height="9"/>
<g class="st1">
	<path d="M146.3,285.9c0-1.4,0.7-2.1,1.8-2.1c0.9,0,1.7,0.6,1.7,1.9c0,0.1,0,0.3,0,0.5H147c0.1,0.8,0.5,1.2,1.1,1.2
		c0.3,0,0.6-0.1,0.9-0.4l0.4,0.5c-0.3,0.3-0.8,0.5-1.3,0.5C147,288,146.3,287.1,146.3,285.9z M149.1,285.5c0-0.9-0.6-1.2-1-1.2
		c-0.6,0-1.1,0.4-1.1,1.2H149.1z"/>
	<path d="M150.8,283.8h0.7v0.5c0.2-0.4,0.6-0.6,1-0.6c0.2,0,0.4,0.1,0.6,0.2l-0.1,0.7c-0.1-0.1-0.3-0.2-0.6-0.2
		c-0.4,0-0.9,0.3-0.9,1.2v2.3h-0.7V283.8z"/>
	<path d="M154.7,285.6c0-1.8-0.8-3.1-1-3.4h0.7c0.5,0.6,1.1,1.8,1.1,3.4s-0.5,2.7-1,3.3h-0.7C154,288.6,154.7,287.4,154.7,285.6z"/>
</g>
<line class="st0" x1="0" y1="21.6" x2="357.2" y2="21.6"/>
<line class="st0" x1="0" y1="63.1" x2="357.2" y2="63.1"/>
<line class="st0" x1="0" y1="105.1" x2="357.2" y2="105.1"/>
<line class="st0" x1="0" y1="146.8" x2="357.2" y2="146.8"/>
<line class="st0" x1="0" y1="189.8" x2="357.2" y2="189.8"/>
<line class="st0" x1="0" y1="230.3" x2="357.2" y2="230.3"/>
<line class="st0" x1="0" y1="272.5" x2="357.2" y2="272.5"/>
<line class="st0" x1="0" y1="314.9" x2="357.2" y2="314.9"/>
<rect x="185.8" y="27.2" width="7.1" height="6.5"/>
<rect x="186.1" y="35.5" class="st0" width="43.1" height="6"/>
<rect x="186.1" y="43.6" class="st3" width="155" height="6"/>
<rect x="185.8" y="51.4" class="st4" width="111.1" height="6.5"/>
<rect x="185.8" y="68.7" width="67" height="6.5"/>
<rect x="186.1" y="77.1" class="st0" width="98.6" height="6"/>
<rect x="186.1" y="85.1" class="st3" width="86.4" height="6"/>
<rect x="185.8" y="93" class="st4" width="62.2" height="6.5"/>
<rect x="185.8" y="110.6" width="92.7" height="6.5"/>
<rect x="186.1" y="119" class="st0" width="130" height="6"/>
<rect x="185.7" y="127.1" class="st3" width="80.7" height="6"/>
<rect x="185.4" y="134.9" class="st4" width="12.4" height="6.5"/>
<rect x="185.4" y="152.7" width="12.4" height="6.5"/>
<rect x="185.7" y="161" class="st0" width="24.7" height="6"/>
<rect x="185.7" y="169.1" class="st3" width="117.7" height="6"/>
<rect x="185.4" y="176.9" class="st4" width="162.9" height="6.5"/>
<rect x="185.4" y="236.2" width="93.1" height="6.5"/>
<rect x="185.7" y="244.5" class="st0" width="98.6" height="6"/>
<rect x="185.7" y="252.6" class="st3" width="98.7" height="6"/>
<rect x="185.4" y="260.5" class="st4" width="25.5" height="6.5"/>
<rect x="185.4" y="278.5" width="18.4" height="6.5"/>
<rect x="185.7" y="286.8" class="st0" width="24.4" height="6"/>
<rect x="185.7" y="294.9" class="st3" width="124.5" height="6"/>
<rect x="185.4" y="302.7" class="st4" width="149.8" height="6.5"/>
<rect x="185.4" y="194.7" width="31.4" height="6.5"/>
<rect x="185.7" y="210.4" class="st3" width="106" height="6"/>
<rect x="185.4" y="218.3" class="st4" width="81.4" height="6.5"/>
<rect x="185.7" y="202.6" class="st0" width="98.2" height="6"/>
<g class="st1">
	<path d="M342.6,323.2c0-0.8-0.4-1.1-0.9-1.1c-0.5,0-0.9,0.3-0.9,1.1v2.5h-0.7v-4.1h0.7v0.4c0.3-0.4,0.6-0.5,1.1-0.5
		c0.9,0,1.5,0.5,1.5,1.8v2.4h-0.7V323.2z"/>
	<path d="M344.6,321.9h3.8v0.7h-3.8V321.9z M344.6,323.3h3.8v0.7h-3.8V323.3z"/>
	<path d="M349.6,325.1l0.4-0.5c0.3,0.3,0.7,0.5,1.4,0.5c0.8,0,1.4-0.6,1.4-1.3c0-0.7-0.5-1.2-1.1-1.2c-0.5,0-0.9,0.2-1.1,0.5
		l-0.7-0.2l0.3-2.8h3v0.6h-2.4l-0.2,1.7c0.3-0.2,0.7-0.4,1.2-0.4c1.1,0,1.8,0.8,1.8,1.8c0,1.1-0.8,1.9-2.1,1.9
		C350.5,325.7,349.9,325.4,349.6,325.1z"/>
</g>
<g class="st1">
	<path d="M355.5,321.2h-0.9v-0.5c0.6,0,1-0.2,1.1-0.7h0.5v5.6h-0.7V321.2z"/>
</g>
<g class="st1">
	<path d="M355.6,30.2h-0.7v-0.4c0.4,0,0.7-0.1,0.8-0.5h0.4v4.2h-0.5V30.2z"/>
</g>
<g class="st1">
	<path d="M356.1,37.8H354v-0.5h2.7v0.5c-1.1,1.2-1.3,2.7-1.3,3.7h-0.5C354.8,40.1,355.2,39,356.1,37.8z"/>
</g>
<g class="st1">
	<path d="M351.3,47.4c0.4-0.3,0.9-0.5,0.9-1c0-0.4-0.3-0.7-0.8-0.7c-0.5,0-0.8,0.2-0.9,0.6l-0.5-0.2c0.2-0.5,0.7-0.9,1.4-0.9
		c0.8,0,1.3,0.5,1.3,1.2c0,0.7-0.5,1.1-1.2,1.5c-0.5,0.3-0.9,0.6-1,1.1h2.2v0.5h-2.8C349.9,48.4,350.6,47.8,351.3,47.4z"/>
	<path d="M353.6,49.1l0.3-0.4c0.2,0.2,0.5,0.4,1,0.4c0.6,0,1-0.4,1-0.9c0-0.5-0.3-0.9-0.9-0.9c-0.4,0-0.7,0.2-0.8,0.3l-0.5-0.2
		l0.2-2.1h2.2v0.5h-1.8l-0.2,1.3c0.2-0.2,0.5-0.3,0.9-0.3c0.8,0,1.3,0.6,1.3,1.3c0,0.8-0.6,1.5-1.6,1.5
		C354.2,49.6,353.8,49.3,353.6,49.1z"/>
</g>
<g class="st1">
	<path d="M351.9,54.1h-0.7v-0.4c0.4,0,0.7-0.1,0.8-0.5h0.4v4.2h-0.5V54.1z"/>
	<path d="M353.6,56.3c0-0.5,0.3-0.9,0.7-1.1c-0.3-0.2-0.5-0.5-0.5-0.9c0-0.6,0.5-1.1,1.2-1.1c0.7,0,1.2,0.5,1.2,1.1
		c0,0.4-0.2,0.7-0.5,0.9c0.4,0.2,0.7,0.6,0.7,1.1c0,0.7-0.6,1.3-1.4,1.3C354.2,57.6,353.6,57,353.6,56.3z M355.9,56.2
		c0-0.5-0.4-0.8-0.9-0.8s-0.9,0.4-0.9,0.8c0,0.5,0.4,0.8,0.9,0.8S355.9,56.8,355.9,56.2z M355.8,54.4c0-0.4-0.3-0.6-0.7-0.6
		c-0.4,0-0.7,0.3-0.7,0.6c0,0.3,0.3,0.6,0.7,0.6S355.8,54.7,355.8,54.4z"/>
</g>
<g class="st1">
	<path d="M353.3,71.3h-0.7v-0.4c0.4,0,0.7-0.1,0.8-0.5h0.4v4.2h-0.5V71.3z"/>
	<path d="M355.5,71.3h-0.7v-0.4c0.4,0,0.7-0.1,0.8-0.5h0.4v4.2h-0.5V71.3z"/>
</g>
<g class="st1">
	<path d="M351.9,79.3h-0.7v-0.4c0.4,0,0.7-0.1,0.8-0.5h0.4v4.2h-0.5V79.3z"/>
	<path d="M353.6,81.1c0-1.3,0.8-2.4,2.2-2.7v0.5c-0.7,0.2-1.4,0.8-1.6,1.5c0.2-0.2,0.5-0.3,0.9-0.3c0.7,0,1.3,0.6,1.3,1.3
		c0,0.8-0.6,1.4-1.4,1.4C354.1,82.7,353.6,82,353.6,81.1z M355.9,81.3c0-0.5-0.4-0.9-0.9-0.9c-0.5,0-0.9,0.3-0.9,0.9
		c0,0.5,0.4,0.9,0.9,0.9C355.6,82.2,355.9,81.9,355.9,81.3z"/>
</g>
<g class="st1">
	<path d="M351.9,87.3h-0.7v-0.4c0.4,0,0.7-0.1,0.8-0.5h0.4v4.2h-0.5V87.3z"/>
</g>
<g class="st1">
	<path d="M355.4,89.6h-2.1v-0.3l2.2-2.8h0.5v2.7h0.6v0.5h-0.6v1h-0.5V89.6z M355.4,87.2l-1.5,1.9h1.5V87.2z"/>
</g>
<g class="st1">
	<path d="M351.7,95.3H351v-0.4c0.4,0,0.7-0.1,0.8-0.5h0.4v4.2h-0.5V95.3z"/>
	<path d="M353.4,96.5c0-0.9,0.3-2.2,1.5-2.2c1.1,0,1.5,1.1,1.5,2.2c0,0.9-0.3,2.2-1.5,2.2C353.8,98.7,353.4,97.6,353.4,96.5z
		 M355.8,96.5c0-0.8-0.2-1.7-0.9-1.7c-0.8,0-0.9,0.9-0.9,1.7c0,0.8,0.2,1.7,0.9,1.7C355.7,98.2,355.8,97.3,355.8,96.5z"/>
</g>
<g class="st1">
	<path d="M351.1,113.1h-0.7v-0.4c0.4,0,0.7-0.1,0.8-0.5h0.4v4.2h-0.5V113.1z"/>
	<path d="M352.8,116l0.3-0.4c0.2,0.2,0.5,0.4,1,0.4c0.6,0,1-0.4,1-0.9c0-0.5-0.3-0.9-0.9-0.9c-0.4,0-0.7,0.2-0.8,0.3l-0.5-0.2
		l0.2-2.1h2.2v0.5h-1.8l-0.2,1.3c0.2-0.2,0.5-0.3,0.9-0.3c0.8,0,1.3,0.6,1.3,1.3c0,0.8-0.6,1.5-1.6,1.5
		C353.4,116.5,353,116.3,352.8,116z"/>
</g>
<g class="st1">
	<path d="M352,122.4c0.4-0.3,0.9-0.5,0.9-1c0-0.4-0.3-0.7-0.8-0.7c-0.5,0-0.8,0.2-0.9,0.6l-0.5-0.2c0.2-0.5,0.7-0.9,1.4-0.9
		c0.8,0,1.3,0.5,1.3,1.2c0,0.7-0.5,1.1-1.2,1.5c-0.5,0.3-0.9,0.6-1,1.1h2.2v0.5h-2.8C350.6,123.3,351.3,122.8,352,122.4z"/>
	<path d="M354.8,121.1h-0.7v-0.4c0.4,0,0.7-0.1,0.8-0.5h0.4v4.2h-0.5V121.1z"/>
</g>
<g class="st1">
	<path d="M351.2,129.1h-0.7v-0.4c0.4,0,0.7-0.1,0.8-0.5h0.4v4.2h-0.5V129.1z"/>
	<path d="M352.8,131.5l0.5-0.2c0.2,0.5,0.5,0.7,0.9,0.7c0.5,0,0.9-0.2,0.9-0.8c0-0.4-0.3-0.8-0.9-0.8H354V130h0.3
		c0.4,0,0.7-0.3,0.7-0.7c0-0.4-0.3-0.7-0.7-0.7c-0.5,0-0.7,0.3-0.8,0.6l-0.5-0.2c0.2-0.5,0.6-0.9,1.3-0.9c0.7,0,1.3,0.5,1.3,1.1
		c0,0.4-0.2,0.7-0.5,0.9c0.4,0.2,0.7,0.5,0.7,1c0,0.8-0.6,1.3-1.4,1.3C353.5,132.5,353,132.1,352.8,131.5z"/>
</g>
<g class="st1">
	<path d="M354.2,138.4c0.4-0.3,0.9-0.5,0.9-1c0-0.4-0.3-0.7-0.8-0.7c-0.5,0-0.8,0.2-0.9,0.6l-0.5-0.2c0.2-0.5,0.7-0.9,1.4-0.9
		c0.8,0,1.3,0.5,1.3,1.2c0,0.7-0.5,1.1-1.2,1.5c-0.5,0.3-0.9,0.6-1,1.1h2.2v0.5h-2.8C352.8,139.3,353.5,138.8,354.2,138.4z"/>
</g>
<g class="st1">
	<path d="M354.9,156.9c0.4-0.3,0.9-0.5,0.9-1c0-0.4-0.3-0.7-0.8-0.7c-0.5,0-0.8,0.2-0.9,0.6l-0.5-0.2c0.2-0.5,0.7-0.9,1.4-0.9
		c0.8,0,1.3,0.5,1.3,1.2c0,0.7-0.5,1.1-1.2,1.5c-0.5,0.3-0.9,0.6-1,1.1h2.2v0.5h-2.8C353.6,157.8,354.3,157.3,354.9,156.9z"/>
</g>
<g class="st1">
	<path d="M355.4,165.9h-2.1v-0.3l2.2-2.8h0.5v2.7h0.6v0.5h-0.6v1h-0.5V165.9z M355.4,163.5l-1.5,1.9h1.5V163.5z"/>
</g>
<g class="st1">
	<path d="M351.9,171.6h-0.7v-0.4c0.4,0,0.7-0.1,0.8-0.5h0.4v4.2h-0.5V171.6z"/>
	<path d="M354.3,174.5c0.7-0.1,1.4-0.7,1.5-1.5c-0.2,0.2-0.5,0.4-0.9,0.4c-0.7,0-1.3-0.6-1.3-1.3c0-0.8,0.6-1.4,1.4-1.4
		c1,0,1.4,0.7,1.4,1.6c0,1.4-0.8,2.5-2.1,2.7V174.5z M355.9,172c0-0.5-0.4-0.8-0.9-0.8c-0.5,0-0.9,0.4-0.9,0.8
		c0,0.5,0.3,0.9,0.9,0.9C355.5,172.9,355.9,172.5,355.9,172z"/>
</g>
<g class="st1">
	<path d="M351.4,180.9c0.4-0.3,0.9-0.5,0.9-1c0-0.4-0.3-0.7-0.8-0.7c-0.5,0-0.8,0.2-0.9,0.6l-0.5-0.2c0.2-0.5,0.7-0.9,1.4-0.9
		c0.8,0,1.3,0.5,1.3,1.2c0,0.7-0.5,1.1-1.2,1.5c-0.5,0.3-0.9,0.6-1,1.1h2.2v0.5H350C350,181.8,350.7,181.3,351.4,180.9z"/>
	<path d="M353.6,181.4c0-1.3,0.8-2.4,2.2-2.7v0.5c-0.7,0.2-1.4,0.8-1.6,1.5c0.2-0.2,0.5-0.3,0.9-0.3c0.7,0,1.3,0.6,1.3,1.3
		c0,0.8-0.6,1.4-1.4,1.4C354.1,183,353.6,182.3,353.6,181.4z M355.9,181.7c0-0.5-0.4-0.9-0.9-0.9c-0.5,0-0.9,0.3-0.9,0.9
		c0,0.5,0.4,0.9,0.9,0.9C355.6,182.5,355.9,182.2,355.9,181.7z"/>
</g>
<g class="st1">
	<path d="M353.5,199.6l0.3-0.4c0.2,0.2,0.5,0.4,1,0.4c0.6,0,1-0.4,1-0.9c0-0.5-0.3-0.9-0.9-0.9c-0.4,0-0.7,0.2-0.8,0.3l-0.5-0.2
		l0.2-2.1h2.2v0.5h-1.8l-0.2,1.3c0.2-0.2,0.5-0.3,0.9-0.3c0.8,0,1.3,0.6,1.3,1.3c0,0.8-0.6,1.5-1.6,1.5
		C354.1,200.1,353.7,199.9,353.5,199.6z"/>
</g>
<g class="st1">
	<path d="M351.9,204.7h-0.7v-0.4c0.4,0,0.7-0.1,0.8-0.5h0.4v4.2h-0.5V204.7z"/>
	<path d="M353.6,206.5c0-1.3,0.8-2.4,2.2-2.7v0.5c-0.7,0.2-1.4,0.8-1.6,1.5c0.2-0.2,0.5-0.3,0.9-0.3c0.7,0,1.3,0.6,1.3,1.3
		c0,0.8-0.6,1.4-1.4,1.4C354.1,208.1,353.6,207.4,353.6,206.5z M355.9,206.8c0-0.5-0.4-0.9-0.9-0.9c-0.5,0-0.9,0.3-0.9,0.9
		c0,0.5,0.4,0.9,0.9,0.9C355.6,207.6,355.9,207.3,355.9,206.8z"/>
</g>
<g class="st1">
	<path d="M352.4,212.7h-0.7v-0.4c0.4,0,0.7-0.1,0.8-0.5h0.4v4.2h-0.5V212.7z"/>
	<path d="M356,212.3h-2.1v-0.5h2.7v0.5c-1.1,1.2-1.3,2.7-1.3,3.7h-0.5C354.7,214.7,355.1,213.5,356,212.3z"/>
</g>
<g class="st1">
	<path d="M351.9,220.7h-0.7v-0.4c0.4,0,0.7-0.1,0.8-0.5h0.4v4.2h-0.5V220.7z"/>
	<path d="M353.5,223.1l0.5-0.2c0.2,0.5,0.5,0.7,0.9,0.7c0.5,0,0.9-0.2,0.9-0.8c0-0.4-0.3-0.8-0.9-0.8h-0.3v-0.5h0.3
		c0.4,0,0.7-0.3,0.7-0.7c0-0.4-0.3-0.7-0.7-0.7c-0.5,0-0.7,0.3-0.8,0.6l-0.5-0.2c0.2-0.5,0.6-0.9,1.3-0.9c0.7,0,1.3,0.5,1.3,1.1
		c0,0.4-0.2,0.7-0.5,0.9c0.4,0.2,0.7,0.5,0.7,1c0,0.8-0.6,1.3-1.4,1.3C354.2,224.1,353.7,223.7,353.5,223.1z"/>
</g>
<g class="st1">
	<path d="M351.8,239.2h-0.7v-0.4c0.4,0,0.7-0.1,0.8-0.5h0.4v4.2h-0.5V239.2z"/>
	<path d="M353.5,242.2l0.3-0.4c0.2,0.2,0.5,0.4,1,0.4c0.6,0,1-0.4,1-0.9c0-0.5-0.3-0.9-0.9-0.9c-0.4,0-0.7,0.2-0.8,0.3l-0.5-0.2
		l0.2-2.1h2.2v0.5h-1.8l-0.2,1.3c0.2-0.2,0.5-0.3,0.9-0.3c0.8,0,1.3,0.6,1.3,1.3c0,0.8-0.6,1.5-1.6,1.5
		C354.1,242.6,353.7,242.4,353.5,242.2z"/>
</g>
<g class="st1">
	<path d="M351.9,247.2h-0.7v-0.4c0.4,0,0.7-0.1,0.8-0.5h0.4v4.2h-0.5V247.2z"/>
	<path d="M353.6,249c0-1.3,0.8-2.4,2.2-2.7v0.5c-0.7,0.2-1.4,0.8-1.6,1.5c0.2-0.2,0.5-0.3,0.9-0.3c0.7,0,1.3,0.6,1.3,1.3
		c0,0.8-0.6,1.4-1.4,1.4C354.1,250.6,353.6,249.9,353.6,249z M355.9,249.3c0-0.5-0.4-0.9-0.9-0.9c-0.5,0-0.9,0.3-0.9,0.9
		c0,0.5,0.4,0.9,0.9,0.9C355.6,250.1,355.9,249.8,355.9,249.3z"/>
</g>
<g class="st1">
	<path d="M351.9,255.2h-0.7v-0.4c0.4,0,0.7-0.1,0.8-0.5h0.4v4.2h-0.5V255.2z"/>
	<path d="M353.6,257c0-1.3,0.8-2.4,2.2-2.7v0.5c-0.7,0.2-1.4,0.8-1.6,1.5c0.2-0.2,0.5-0.3,0.9-0.3c0.7,0,1.3,0.6,1.3,1.3
		c0,0.8-0.6,1.4-1.4,1.4C354.1,258.6,353.6,257.9,353.6,257z M355.9,257.3c0-0.5-0.4-0.9-0.9-0.9c-0.5,0-0.9,0.3-0.9,0.9
		c0,0.5,0.4,0.9,0.9,0.9C355.6,258.1,355.9,257.8,355.9,257.3z"/>
</g>
<g class="st1">
	<path d="M355.4,265.5h-2.1v-0.3l2.2-2.8h0.5v2.7h0.6v0.5h-0.6v1h-0.5V265.5z M355.4,263.1l-1.5,1.9h1.5V263.1z"/>
</g>
<g class="st1">
	<path d="M353.5,283.5l0.5-0.2c0.2,0.5,0.5,0.7,0.9,0.7c0.5,0,0.9-0.2,0.9-0.8c0-0.4-0.3-0.8-0.9-0.8h-0.3v-0.5h0.3
		c0.4,0,0.7-0.3,0.7-0.7c0-0.4-0.3-0.7-0.7-0.7c-0.5,0-0.7,0.3-0.8,0.6l-0.5-0.2c0.2-0.5,0.6-0.9,1.3-0.9c0.7,0,1.3,0.5,1.3,1.1
		c0,0.4-0.2,0.7-0.5,0.9c0.4,0.2,0.7,0.5,0.7,1c0,0.8-0.6,1.3-1.4,1.3C354.2,284.4,353.7,284,353.5,283.5z"/>
</g>
<g class="st1">
	<path d="M355.4,291.3h-2.1V291l2.2-2.8h0.5v2.7h0.6v0.5h-0.6v1h-0.5V291.3z M355.4,288.9l-1.5,1.9h1.5V288.9z"/>
</g>
<g class="st1">
	<path d="M351.1,298.3c0.4-0.3,0.9-0.5,0.9-1c0-0.4-0.3-0.7-0.8-0.7c-0.5,0-0.8,0.2-0.9,0.6l-0.5-0.2c0.2-0.5,0.7-0.9,1.4-0.9
		c0.8,0,1.3,0.5,1.3,1.2c0,0.7-0.5,1.1-1.2,1.5c-0.5,0.3-0.9,0.6-1,1.1h2.2v0.5h-2.8C349.7,299.3,350.4,298.7,351.1,298.3z"/>
	<path d="M353.4,298.3c0-0.9,0.3-2.2,1.5-2.2c1.1,0,1.5,1.1,1.5,2.2c0,0.9-0.3,2.2-1.5,2.2C353.8,300.4,353.4,299.3,353.4,298.3z
		 M355.8,298.3c0-0.8-0.2-1.7-0.9-1.7c-0.8,0-0.9,0.9-0.9,1.7c0,0.8,0.2,1.7,0.9,1.7C355.7,299.9,355.8,299,355.8,298.3z"/>
</g>
<g class="st1">
	<path d="M351.3,306.3c0.4-0.3,0.9-0.5,0.9-1c0-0.4-0.3-0.7-0.8-0.7c-0.5,0-0.8,0.2-0.9,0.6L350,305c0.2-0.5,0.7-0.9,1.4-0.9
		c0.8,0,1.3,0.5,1.3,1.2c0,0.7-0.5,1.1-1.2,1.5c-0.5,0.3-0.9,0.6-1,1.1h2.2v0.5h-2.8C349.9,307.2,350.6,306.7,351.3,306.3z"/>
</g>
<g class="st1">
	<path d="M355.4,307.3h-2.1V307l2.2-2.8h0.5v2.7h0.6v0.5h-0.6v1h-0.5V307.3z M355.4,304.9l-1.5,1.9h1.5V304.9z"/>
</g>
</svg>
