<?xml version="1.0" encoding="utf-8"?>
<!-- Generator: Adobe Illustrator 21.0.0, SVG Export Plug-In . SVG Version: 6.00 Build 0)  -->
<svg version="1.1" id="Layer_1" xmlns="http://www.w3.org/2000/svg" xmlns:xlink="http://www.w3.org/1999/xlink" x="0px" y="0px"
	 viewBox="0 0 357.2 352" style="enable-background:new 0 0 357.2 352;" xml:space="preserve">
<style type="text/css">
	.st0{fill:none;stroke:#000000;stroke-width:0.5;}
	.st1{font-family:'Overpass-Regular';}
	.st2{font-size:6px;}
	.st3{fill:#FFFFFF;}
	.st4{fill:none;stroke:#0000FF;stroke-width:0.5;}
	.st5{fill:#0000FF;}
	.st6{clip-path:url(#SVGID_2_);fill:#0000FF;}
	.st7{fill:none;}
	.st8{font-size:8px;}
	.st9{clip-path:url(#SVGID_4_);fill:#0000FF;}
	.st10{clip-path:url(#SVGID_6_);fill:#0000FF;}
	.st11{enable-background:new    ;}
	.st12{clip-path:url(#SVGID_8_);fill:#0000FF;}
	.st13{clip-path:url(#SVGID_10_);fill:#0000FF;}
	.st14{clip-path:url(#SVGID_12_);fill:#0000FF;}
	.st15{clip-path:url(#SVGID_14_);fill:#0000FF;}
</style>
<rect x="0.2" y="7.1" width="5.7" height="5.5"/>
<rect x="0.2" y="7.1" class="st0" width="5.7" height="5.5"/>
<text transform="matrix(1 0 0 1 8.0788 11.8975)" class="st1 st2">T</text>
<text transform="matrix(1 0 0 1 11.5788 11.8975)" class="st1 st2">ri</text>
<text transform="matrix(1 0 0 1 15.5788 11.8975)" class="st1 st2">f</text>
<text transform="matrix(1 0 0 1 17.5788 11.8975)" class="st1 st2">f</text>
<text transform="matrix(1 0 0 1 19.6788 11.8975)" class="st1 st2">t </text>
<text transform="matrix(1 0 0 1 23.3788 11.8975)" class="st1 st2">üb</text>
<text transform="matrix(1 0 0 1 30.1788 11.8975)" class="st1 st2">e</text>
<text transform="matrix(1 0 0 1 33.4788 11.8975)" class="st1 st2">rhau</text>
<text transform="matrix(1 0 0 1 45.8788 11.8975)" class="st1 st2">pt</text>
<text transform="matrix(1 0 0 1 51.4788 11.8975)" class="st1 st2"> n</text>
<text transform="matrix(1 0 0 1 56.3788 11.8975)" class="st1 st2">ic</text>
<text transform="matrix(1 0 0 1 60.8788 11.8975)" class="st1 st2">h</text>
<text transform="matrix(1 0 0 1 64.2788 11.8975)" class="st1 st2">t </text>
<text transform="matrix(1 0 0 1 67.9788 11.8975)" class="st1 st2">z</text>
<text transform="matrix(1 0 0 1 71.0788 11.8975)" class="st1 st2">u</text>
<rect x="103.6" y="7.2" class="st3" width="5.7" height="5.5"/>
<rect x="103.6" y="7.2" class="st0" width="5.7" height="5.5"/>
<text transform="matrix(1 0 0 1 111.4651 11.8975)" class="st1 st2">T</text>
<text transform="matrix(1 0 0 1 114.9651 11.8975)" class="st1 st2">r</text>
<text transform="matrix(1 0 0 1 117.3651 11.8975)" class="st1 st2">i</text>
<text transform="matrix(1 0 0 1 118.9651 11.8975)" class="st1 st2">ff</text>
<text transform="matrix(1 0 0 1 123.0651 11.8975)" class="st1 st2">t</text>
<text transform="matrix(1 0 0 1 125.3651 11.8975)" class="st1 st2"> e</text>
<text transform="matrix(1 0 0 1 129.9651 11.8975)" class="st1 st2">h</text>
<text transform="matrix(1 0 0 1 133.3651 11.8975)" class="st1 st2">e</text>
<text transform="matrix(1 0 0 1 136.6651 11.8975)" class="st1 st2">r</text>
<text transform="matrix(1 0 0 1 139.0651 11.8975)" class="st1 st2"> </text>
<text transform="matrix(1 0 0 1 140.4651 11.8975)" class="st1 st2">n</text>
<text transform="matrix(1 0 0 1 143.8651 11.8975)" class="st1 st2">ic</text>
<text transform="matrix(1 0 0 1 148.4651 11.8975)" class="st1 st2">h</text>
<text transform="matrix(1 0 0 1 151.8651 11.8975)" class="st1 st2">t </text>
<text transform="matrix(1 0 0 1 155.5651 11.8975)" class="st1 st2">z</text>
<text transform="matrix(1 0 0 1 158.5651 11.8975)" class="st1 st2">u</text>
<rect x="206.6" y="7.1" class="st3" width="5.7" height="5.5"/>
<rect x="206.6" y="7.1" class="st4" width="5.7" height="5.5"/>
<text transform="matrix(1 0 0 1 214.4768 11.8975)" class="st1 st2">T</text>
<text transform="matrix(1 0 0 1 217.9768 11.8975)" class="st1 st2">r</text>
<text transform="matrix(1 0 0 1 220.3768 11.8975)" class="st1 st2">i</text>
<text transform="matrix(1 0 0 1 221.9768 11.8975)" class="st1 st2">f</text>
<text transform="matrix(1 0 0 1 223.9768 11.8975)" class="st1 st2">f</text>
<text transform="matrix(1 0 0 1 226.0768 11.8975)" class="st1 st2">t e</text>
<text transform="matrix(1 0 0 1 232.9768 11.8975)" class="st1 st2">h</text>
<text transform="matrix(1 0 0 1 236.3768 11.8975)" class="st1 st2">e</text>
<text transform="matrix(1 0 0 1 239.6768 11.8975)" class="st1 st2">r</text>
<text transform="matrix(1 0 0 1 242.0768 11.8975)" class="st1 st2"> </text>
<text transform="matrix(1 0 0 1 243.4768 11.8975)" class="st1 st2">z</text>
<text transform="matrix(1 0 0 1 246.5768 11.8975)" class="st1 st2">u</text>
<rect x="290.4" y="6.7" class="st5" width="5.7" height="5.5"/>
<rect x="290.4" y="6.7" class="st4" width="5.7" height="5.5"/>
<text transform="matrix(1 0 0 1 298.2166 11.8975)" class="st1 st2">T</text>
<text transform="matrix(1 0 0 1 301.7166 11.8975)" class="st1 st2">r</text>
<text transform="matrix(1 0 0 1 304.1166 11.8975)" class="st1 st2">i</text>
<text transform="matrix(1 0 0 1 305.7166 11.8975)" class="st1 st2">f</text>
<text transform="matrix(1 0 0 1 307.7166 11.8975)" class="st1 st2">f</text>
<text transform="matrix(1 0 0 1 309.8167 11.8975)" class="st1 st2">t vo</text>
<text transform="matrix(1 0 0 1 320.0166 11.8975)" class="st1 st2">l</text>
<text transform="matrix(1 0 0 1 321.6166 11.8975)" class="st1 st2">l </text>
<text transform="matrix(1 0 0 1 324.6166 11.8975)" class="st1 st2">un</text>
<text transform="matrix(1 0 0 1 331.4166 11.8975)" class="st1 st2">d </text>
<text transform="matrix(1 0 0 1 336.2166 11.8975)" class="st1 st2">ganz</text>
<text transform="matrix(1 0 0 1 349.2166 11.8975)" class="st1 st2"> </text>
<text transform="matrix(1 0 0 1 350.6166 11.8975)" class="st1 st2">z</text>
<text transform="matrix(1 0 0 1 353.7166 11.8975)" class="st1 st2">u</text>
<g>
	<g>
		<defs>
			<line id="SVGID_1_" x1="-59.5" y1="449" x2="864.6" y2="449"/>
		</defs>
		<clipPath id="SVGID_2_">
			<use xlink:href="#SVGID_1_"  style="overflow:visible;"/>
		</clipPath>
		<path class="st6" d="M2.8,35.9c1.4,0,2.6-1.2,2.6-2.6c0-1.4-1.2-2.6-2.6-2.6s-2.6,1.2-2.6,2.6C0.2,34.7,1.4,35.9,2.8,35.9"/>
	</g>
</g>
<rect x="0.7" y="29.1" class="st7" width="40.3" height="9"/>
<text transform="matrix(1 0 0 1 0.7385 35.8975)" class="st1 st8">Allgemeine</text>
<rect x="41.1" y="29.1" class="st7" width="1.8" height="9"/>
<text transform="matrix(1 0 0 1 41.1385 35.8975)" class="st1 st8"> </text>
<rect x="42.6" y="29.1" class="st7" width="81.4" height="9"/>
<text transform="matrix(1 0 0 1 42.6385 35.8975)" class="st1 st8">Arbeitsorganisation (z.</text>
<rect x="124" y="29.1" class="st7" width="5.2" height="9"/>
<text transform="matrix(1 0 0 1 124.0385 35.8975)" class="st1 st8">B</text>
<rect x="129.2" y="29.1" class="st7" width="31.7" height="9"/>
<text transform="matrix(1 0 0 1 129.2385 35.8975)" class="st1 st8">. Doodle)</text>
<g>
	<g>
		<defs>
			<line id="SVGID_3_" x1="-59.5" y1="449" x2="864.6" y2="449"/>
		</defs>
		<clipPath id="SVGID_4_">
			<use xlink:href="#SVGID_3_"  style="overflow:visible;"/>
		</clipPath>
		<path class="st9" d="M2.8,77.9c1.4,0,2.6-1.2,2.6-2.6s-1.2-2.6-2.6-2.6s-2.6,1.2-2.6,2.6C0.2,76.7,1.4,77.9,2.8,77.9"/>
	</g>
</g>
<text transform="matrix(1 0 0 1 -0.7615 77.8975)" class="st1 st8"> </text>
<text transform="matrix(1 0 0 1 0.7385 77.8975)" class="st1 st8">A</text>
<text transform="matrix(1 0 0 1 6.1385 77.8975)" class="st1 st8">u</text>
<text transform="matrix(1 0 0 1 10.6385 77.8975)" class="st1 st8">f</text>
<text transform="matrix(1 0 0 1 13.2385 77.8975)" class="st1 st8">gaben- und Proje</text>
<text transform="matrix(1 0 0 1 74.6385 77.8975)" class="st1 st8">k</text>
<text transform="matrix(1 0 0 1 78.8385 77.8975)" class="st1 st8">tplanung (z.</text>
<text transform="matrix(1 0 0 1 121.0385 77.8975)" class="st1 st8">B</text>
<text transform="matrix(1 0 0 1 126.2385 77.8975)" class="st1 st8">.</text>
<text transform="matrix(1 0 0 1 128.0385 77.8975)" class="st1 st8"> </text>
<text transform="matrix(1 0 0 1 129.5385 77.8975)" class="st1 st8">Trello)</text>
<g>
	<g>
		<defs>
			<line id="SVGID_5_" x1="-59.5" y1="449" x2="864.6" y2="449"/>
		</defs>
		<clipPath id="SVGID_6_">
			<use xlink:href="#SVGID_5_"  style="overflow:visible;"/>
		</clipPath>
		<path class="st10" d="M3.5,119.9c1.4,0,2.6-1.2,2.6-2.6c0-1.4-1.2-2.6-2.6-2.6s-2.6,1.2-2.6,2.6C0.9,118.7,2.1,119.9,3.5,119.9"/>
	</g>
</g>
<text transform="matrix(1 0 0 1 -2.8928 119.8975)" class="st1 st8" style="fill:#0000DD;"> </text>
<rect x="0.4" y="113.1" class="st7" width="65" height="9"/>
<text transform="matrix(1 0 0 1 0.4475 119.8975)" class="st1 st8">Abstimmungen (z.</text>
<rect x="65.4" y="113.1" class="st7" width="5.2" height="9"/>
<text transform="matrix(1 0 0 1 65.4475 119.8975)" class="st1 st8">B</text>
<rect x="70.6" y="113.1" class="st7" width="1.8" height="9"/>
<text transform="matrix(1 0 0 1 70.6475 119.8975)" class="st1 st8">.</text>
<rect x="72.4" y="113.1" class="st7" width="1.8" height="9"/>
<text transform="matrix(1 0 0 1 72.4475 119.8975)" class="st1 st8"> </text>
<rect x="73.9" y="113.1" class="st7" width="12.9" height="9"/>
<text transform="matrix(1 0 0 1 73.9475 119.8975)" class="st1 st8">Ant</text>
<rect x="86.9" y="113.1" class="st7" width="3.2" height="9"/>
<text transform="matrix(1 0 0 1 86.9475 119.8975)" class="st1 st8">r</text>
<rect x="89.9" y="113.1" class="st7" width="33.7" height="9"/>
<text transform="matrix(1 0 0 1 89.9475 119.8975)" class="st1 st8">agsgrün) </text>
<g>
	<g>
		<defs>
			<line id="SVGID_7_" x1="-59.5" y1="449" x2="864.6" y2="449"/>
		</defs>
		<clipPath id="SVGID_8_">
			<use xlink:href="#SVGID_7_"  style="overflow:visible;"/>
		</clipPath>
		<path class="st12" d="M3.5,161.9c1.4,0,2.6-1.2,2.6-2.6c0-1.4-1.2-2.6-2.6-2.6s-2.6,1.2-2.6,2.6C0.9,160.7,2.1,161.9,3.5,161.9"/>
	</g>
</g>
<rect x="-1.1" y="155.1" class="st7" width="11.5" height="9"/>
<text transform="matrix(1 0 0 1 -1.0525 161.8975)" class="st1 st8"> Da</text>
<rect x="10.4" y="155.1" class="st7" width="3" height="9"/>
<text transform="matrix(1 0 0 1 10.4475 161.8975)" class="st1 st8">t</text>
<rect x="13.3" y="155.1" class="st7" width="79.7" height="9"/>
<text transform="matrix(1 0 0 1 13.3475 161.8975)" class="st1 st8">ensammlung, -bearbei</text>
<rect x="93.1" y="155.1" class="st7" width="3" height="9"/>
<text transform="matrix(1 0 0 1 93.1475 161.8975)" class="st1 st8">t</text>
<rect x="95.9" y="155.1" class="st7" width="30.7" height="9"/>
<text transform="matrix(1 0 0 1 95.9475 161.8975)" class="st1 st8">ung und </text>
<rect x="1.9" y="167.1" class="st7" width="60.7" height="9"/>
<text transform="matrix(1 0 0 1 1.9392 173.8975)" class="st1 st8">-management (z.</text>
<rect x="62.6" y="167.1" class="st7" width="5.2" height="9"/>
<text transform="matrix(1 0 0 1 62.6392 173.8975)" class="st1 st8">B</text>
<rect x="67.8" y="167.1" class="st7" width="8.4" height="9"/>
<text transform="matrix(1 0 0 1 67.8392 173.8975)" class="st1 st8">. E</text>
<rect x="76.2" y="167.1" class="st7" width="4.1" height="9"/>
<text transform="matrix(1 0 0 1 76.2392 173.8975)" class="st1 st8">x</text>
<rect x="80.2" y="167.1" class="st7" width="60.9" height="9"/>
<text transform="matrix(1 0 0 1 80.2392 173.8975)" class="st1 st8">cel, Open Reﬁne)</text>
<g>
	<g>
		<defs>
			<line id="SVGID_9_" x1="-59.5" y1="449" x2="864.6" y2="449"/>
		</defs>
		<clipPath id="SVGID_10_">
			<use xlink:href="#SVGID_9_"  style="overflow:visible;"/>
		</clipPath>
		<path class="st13" d="M2.8,203.9c1.4,0,2.6-1.2,2.6-2.6s-1.2-2.6-2.6-2.6s-2.6,1.2-2.6,2.6S1.4,203.9,2.8,203.9"/>
	</g>
</g>
<text transform="matrix(1 0 0 1 -2.6013 203.8975)" class="st1 st8" style="fill:#0000DD;"> </text>
<text transform="matrix(1 0 0 1 -0.7615 203.8975)" class="st1 st8"> Da</text>
<text transform="matrix(1 0 0 1 10.7385 203.8975)" class="st1 st8">t</text>
<text transform="matrix(1 0 0 1 13.6385 203.8975)" class="st1 st8">e</text>
<text transform="matrix(1 0 0 1 17.9385 203.8975)" class="st1 st8">n</text>
<text transform="matrix(1 0 0 1 22.3385 203.8975)" class="st1 st8">visualisie</text>
<text transform="matrix(1 0 0 1 55.1385 203.8975)" class="st1 st8">r</text>
<text transform="matrix(1 0 0 1 58.2385 203.8975)" class="st1 st8">ung (z.</text>
<text transform="matrix(1 0 0 1 82.1385 203.8975)" class="st1 st8">B</text>
<text transform="matrix(1 0 0 1 87.3385 203.8975)" class="st1 st8">. E</text>
<text transform="matrix(1 0 0 1 95.8385 203.8975)" class="st1 st8">x</text>
<text transform="matrix(1 0 0 1 99.8385 203.8975)" class="st1 st8">cel, In</text>
<text transform="matrix(1 0 0 1 120.6385 203.8975)" class="st1 st8">f</text>
<text transform="matrix(1 0 0 1 123.2385 203.8975)" class="st1 st8">og</text>
<text transform="matrix(1 0 0 1 132.2385 203.8975)" class="st1 st8">r</text>
<text transform="matrix(1 0 0 1 135.1385 203.8975)" class="st1 st8">am, </text>
<text transform="matrix(1 0 0 1 1.2307 215.8975)" class="st1 st8">T</text>
<text transform="matrix(1 0 0 1 5.3307 215.8975)" class="st1 st8">ableau)</text>
<g>
	<g>
		<defs>
			<line id="SVGID_11_" x1="-59.5" y1="449" x2="864.6" y2="449"/>
		</defs>
		<clipPath id="SVGID_12_">
			<use xlink:href="#SVGID_11_"  style="overflow:visible;"/>
		</clipPath>
		<path class="st14" d="M2.8,245.9c1.4,0,2.6-1.2,2.6-2.6s-1.2-2.6-2.6-2.6s-2.6,1.2-2.6,2.6C0.2,244.7,1.4,245.9,2.8,245.9"/>
	</g>
</g>
<rect x="0" y="239.1" class="st7" width="5.3" height="9"/>
<text transform="matrix(1 0 0 1 3.849792e-02 245.8975)" class="st1 st8">K</text>
<rect x="5.2" y="239.1" class="st7" width="21.8" height="9"/>
<text transform="matrix(1 0 0 1 5.2385 245.8975)" class="st1 st8">ollabo</text>
<rect x="27" y="239.1" class="st7" width="3.2" height="9"/>
<text transform="matrix(1 0 0 1 27.0385 245.8975)" class="st1 st8">r</text>
<rect x="30" y="239.1" class="st7" width="28.6" height="9"/>
<text transform="matrix(1 0 0 1 30.0385 245.8975)" class="st1 st8">ation (z.</text>
<rect x="58.6" y="239.1" class="st7" width="5.2" height="9"/>
<text transform="matrix(1 0 0 1 58.6385 245.8975)" class="st1 st8">B</text>
<rect x="63.8" y="239.1" class="st7" width="3.6" height="9"/>
<text transform="matrix(1 0 0 1 63.8385 245.8975)" class="st1 st8">. </text>
<rect x="67.5" y="239.1" class="st7" width="5" height="9"/>
<text transform="matrix(1 0 0 1 67.5385 245.8975)" class="st1 st8">P</text>
<rect x="72.4" y="239.1" class="st7" width="42.9" height="9"/>
<text transform="matrix(1 0 0 1 72.4385 245.8975)" class="st1 st8">ads, Github)</text>
<g>
	<g>
		<defs>
			<line id="SVGID_13_" x1="-59.5" y1="449" x2="864.6" y2="449"/>
		</defs>
		<clipPath id="SVGID_14_">
			<use xlink:href="#SVGID_13_"  style="overflow:visible;"/>
		</clipPath>
		<path class="st15" d="M2.8,287.9c1.4,0,2.6-1.2,2.6-2.6s-1.2-2.6-2.6-2.6s-2.6,1.2-2.6,2.6C0.2,286.7,1.4,287.9,2.8,287.9"/>
	</g>
</g>
<text transform="matrix(1 0 0 1 -3.6013 287.8975)" class="st1 st8" style="fill:#0000DD;"> </text>
<rect x="0" y="281.1" class="st7" width="5.3" height="9"/>
<text transform="matrix(1 0 0 1 3.849792e-02 287.8975)" class="st1 st8">K</text>
<rect x="5.2" y="281.1" class="st7" width="29" height="9"/>
<text transform="matrix(1 0 0 1 5.2385 287.8975)" class="st1 st8">ommuni</text>
<rect x="34.2" y="281.1" class="st7" width="4.2" height="9"/>
<text transform="matrix(1 0 0 1 34.2385 287.8975)" class="st1 st8">k</text>
<rect x="38.3" y="281.1" class="st7" width="81.1" height="9"/>
<text transform="matrix(1 0 0 1 38.3385 287.8975)" class="st1 st8">ation / Social Media (z.</text>
<rect x="119.4" y="281.1" class="st7" width="5.2" height="9"/>
<text transform="matrix(1 0 0 1 119.4385 287.8975)" class="st1 st8">B</text>
<rect x="124.6" y="281.1" class="st7" width="1.8" height="9"/>
<text transform="matrix(1 0 0 1 124.6385 287.8975)" class="st1 st8">.</text>
<rect x="126.4" y="281.1" class="st7" width="5.9" height="9"/>
<text transform="matrix(1 0 0 1 126.4385 287.8975)" class="st1 st8"> </text>
<rect x="132.3" y="281.1" class="st7" width="7.8" height="9"/>
<text transform="matrix(1 0 0 1 132.3385 287.8975)" class="st1 st8">wi</text>
<rect x="140" y="281.1" class="st7" width="3" height="9"/>
<text transform="matrix(1 0 0 1 140.0385 287.8975)" class="st1 st8">t</text>
<rect x="142.9" y="281.1" class="st7" width="3" height="9"/>
<text transform="matrix(1 0 0 1 142.9385 287.8975)" class="st1 st8">t</text>
<rect x="145.8" y="281.1" class="st7" width="10.2" height="9"/>
<text transform="matrix(1 0 0 1 145.8385 287.8975)" class="st1 st8">er)</text>
<line class="st0" x1="0" y1="21.6" x2="357.2" y2="21.6"/>
<line class="st0" x1="0" y1="63.1" x2="357.2" y2="63.1"/>
<line class="st0" x1="0" y1="105.1" x2="357.2" y2="105.1"/>
<line class="st0" x1="0" y1="146.8" x2="357.2" y2="146.8"/>
<line class="st0" x1="0" y1="189.8" x2="357.2" y2="189.8"/>
<line class="st0" x1="0" y1="230.3" x2="357.2" y2="230.3"/>
<line class="st0" x1="0" y1="272.5" x2="357.2" y2="272.5"/>
<line class="st0" x1="0" y1="314.9" x2="357.2" y2="314.9"/>
<rect x="185.8" y="27.2" width="7.1" height="6.5"/>
<rect x="186.1" y="35.5" class="st0" width="43.1" height="6"/>
<rect x="186.1" y="43.6" class="st4" width="155" height="6"/>
<rect x="185.8" y="51.4" class="st5" width="111.1" height="6.5"/>
<rect x="185.8" y="68.7" width="67" height="6.5"/>
<rect x="186.1" y="77.1" class="st0" width="98.6" height="6"/>
<rect x="186.1" y="85.1" class="st4" width="86.4" height="6"/>
<rect x="185.8" y="93" class="st5" width="62.2" height="6.5"/>
<rect x="185.8" y="110.6" width="92.7" height="6.5"/>
<rect x="186.1" y="119" class="st0" width="130" height="6"/>
<rect x="185.7" y="127.1" class="st4" width="80.7" height="6"/>
<rect x="185.4" y="134.9" class="st5" width="12.4" height="6.5"/>
<rect x="185.4" y="152.7" width="12.4" height="6.5"/>
<rect x="185.7" y="161" class="st0" width="24.7" height="6"/>
<rect x="185.7" y="169.1" class="st4" width="117.7" height="6"/>
<rect x="185.4" y="176.9" class="st5" width="162.9" height="6.5"/>
<rect x="185.4" y="236.2" width="93.1" height="6.5"/>
<rect x="185.7" y="244.5" class="st0" width="98.6" height="6"/>
<rect x="185.7" y="252.6" class="st4" width="98.7" height="6"/>
<rect x="185.4" y="260.5" class="st5" width="25.5" height="6.5"/>
<rect x="185.4" y="278.5" width="18.4" height="6.5"/>
<rect x="185.7" y="286.8" class="st0" width="24.4" height="6"/>
<rect x="185.7" y="294.9" class="st4" width="124.5" height="6"/>
<rect x="185.4" y="302.7" class="st5" width="149.8" height="6.5"/>
<rect x="185.4" y="194.7" width="31.4" height="6.5"/>
<rect x="185.7" y="210.4" class="st4" width="106" height="6"/>
<rect x="185.4" y="218.3" class="st5" width="81.4" height="6.5"/>
<rect x="185.7" y="202.6" class="st0" width="98.2" height="6"/>
<text transform="matrix(1 0 0 1 339.4314 325.6406)" class="st1 st8">n=5</text>
<text transform="matrix(1 0 0 1 354.2314 325.6406)" class="st1 st8">1</text>
<text transform="matrix(1 0 0 1 354.6531 33.5)" class="st1 st2">1</text>
<text transform="matrix(1 0 0 1 353.759 41.498)" class="st1 st2">7</text>
<text transform="matrix(1 0 0 1 349.4929 49.4961)" class="st1 st2">25</text>
<text transform="matrix(1 0 0 1 350.9871 57.4941)" class="st1 st2">18</text>
<text transform="matrix(1 0 0 1 352.3308 74.6182)" class="st1 st2">11</text>
<text transform="matrix(1 0 0 1 350.9871 82.6157)" class="st1 st2">16</text>
<text transform="matrix(1 0 0 1 350.9631 90.6138)" class="st1 st2">1</text>
<text transform="matrix(1 0 0 1 353.0631 90.6138)" class="st1 st2">4</text>
<text transform="matrix(1 0 0 1 350.7351 98.6118)" class="st1 st2">10</text>
<text transform="matrix(1 0 0 1 350.135 116.4258)" class="st1 st2">15</text>
<text transform="matrix(1 0 0 1 350.1887 124.4238)" class="st1 st2">21</text>
<text transform="matrix(1 0 0 1 350.2488 132.4219)" class="st1 st2">13</text>
<text transform="matrix(1 0 0 1 352.427 140.4199)" class="st1 st2">2</text>
<text transform="matrix(1 0 0 1 353.135 158.9414)" class="st1 st2">2</text>
<text transform="matrix(1 0 0 1 353.0808 166.9395)" class="st1 st2">4</text>
<text transform="matrix(1 0 0 1 350.9871 174.9375)" class="st1 st2">19</text>
<text transform="matrix(1 0 0 1 349.553 182.9355)" class="st1 st2">26</text>
<text transform="matrix(1 0 0 1 353.0808 200.0361)" class="st1 st2">5</text>
<text transform="matrix(1 0 0 1 350.9871 208.0342)" class="st1 st2">16</text>
<text transform="matrix(1 0 0 1 351.4368 216.0322)" class="st1 st2">17</text>
<text transform="matrix(1 0 0 1 350.9568 224.0303)" class="st1 st2">13</text>
<text transform="matrix(1 0 0 1 350.843 242.5518)" class="st1 st2">15</text>
<text transform="matrix(1 0 0 1 350.9871 250.5498)" class="st1 st2">16</text>
<text transform="matrix(1 0 0 1 350.9871 258.5479)" class="st1 st2">16</text>
<text transform="matrix(1 0 0 1 353.0808 266.5459)" class="st1 st2">4</text>
<text transform="matrix(1 0 0 1 353.1951 284.3594)" class="st1 st2">3</text>
<text transform="matrix(1 0 0 1 353.0808 292.3574)" class="st1 st2">4</text>
<text transform="matrix(1 0 0 1 349.301 300.3555)" class="st1 st2">20</text>
<text transform="matrix(1 0 0 1 349.469 308.3535)" class="st1 st2">2</text>
<text transform="matrix(1 0 0 1 353.069 308.3535)" class="st1 st2">4</text>
</svg>
