<?xml version="1.0" encoding="utf-8"?>
<!-- Generator: Adobe Illustrator 21.0.0, SVG Export Plug-In . SVG Version: 6.00 Build 0)  -->
<svg version="1.1" id="Layer_1" xmlns="http://www.w3.org/2000/svg" xmlns:xlink="http://www.w3.org/1999/xlink" x="0px" y="0px"
	 viewBox="0 0 286.9 122" style="enable-background:new 0 0 286.9 122;" xml:space="preserve">
<style type="text/css">
	.st0{font-family:'Overpass-SemiBold';}
	.st1{font-size:8px;}
	.st2{font-size:8.2594px;}
	.st3{fill:#0000FF;}
	.st4{fill:none;stroke:#000000;stroke-width:0.5;}
	.st5{fill:#FFFFFF;}
	.st6{fill:none;stroke:#000000;stroke-width:0.691;}
	.st7{font-family:'Overpass-Regular';}
</style>
<text transform="matrix(1 0 0 1 273.957 14.4829)" class="st0 st1">35</text>
<text transform="matrix(1 0 0 1 210.7578 37.979)" class="st0 st1">6</text>
<text transform="matrix(1 0 0 1 208.2051 61.4507)" class="st0 st1">5</text>
<text transform="matrix(1 0 0 1 208.2051 84.5391)" class="st0 st1">5</text>
<text transform="matrix(-6.123234e-17 1 -1 -6.123234e-17 234.082 13.9113)" class="st0 st2">1</text>
<rect x="185.9" y="77.9" class="st3" width="11" height="16.1"/>
<rect x="185.9" y="77.9" class="st4" width="11" height="16.1"/>
<rect x="192.5" y="73.6" class="st5" width="10.5" height="15.9"/>
<rect x="192.5" y="73.6" class="st6" width="10.5" height="15.9"/>
<rect x="185.9" y="54.8" class="st3" width="8.6" height="16.1"/>
<rect x="185.9" y="54.8" class="st4" width="8.6" height="16.1"/>
<rect x="192.5" y="50.5" class="st5" width="10.2" height="15.9"/>
<rect x="192.5" y="50.5" class="st6" width="10.2" height="15.9"/>
<rect x="186" y="31.3" class="st3" width="10.7" height="16.1"/>
<rect x="186" y="31.3" class="st4" width="10.7" height="16.1"/>
<rect x="192.5" y="27" class="st5" width="12.5" height="15.9"/>
<rect x="192.5" y="27" class="st6" width="12.5" height="15.9"/>
<rect x="186" y="7.8" class="st3" width="75.1" height="16.1"/>
<rect x="186" y="7.8" class="st4" width="75.1" height="16.1"/>
<rect x="192.5" y="3.5" class="st5" width="76" height="15.9"/>
<rect x="192.5" y="3.5" class="st6" width="76" height="15.9"/>
<text transform="matrix(1 0 0 1 0.5107 14.4829)" class="st0 st1">Eigeninitiative (z.B. Online</text>
<text transform="matrix(1 0 0 1 95.2107 14.4829)" class="st0 st1">-</text>
<text transform="matrix(1 0 0 1 98.0107 14.4829)" class="st0 st1">T</text>
<text transform="matrix(1 0 0 1 102.4107 14.4829)" class="st0 st1">u</text>
<text transform="matrix(1 0 0 1 106.9107 14.4829)" class="st0 st1">t</text>
<text transform="matrix(1 0 0 1 109.9107 14.4829)" class="st0 st1">orials)</text>
<text transform="matrix(1 0 0 1 0.5107 37.979)" class="st0 st1">Schulung durch </text>
<text transform="matrix(1 0 0 1 58.8107 37.979)" class="st0 st1">e</text>
<text transform="matrix(1 0 0 1 62.9107 37.979)" class="st0 st1">x</text>
<text transform="matrix(1 0 0 1 67.1107 37.979)" class="st0 st1">t</text>
<text transform="matrix(1 0 0 1 70.0107 37.979)" class="st0 st1">erne Dienstleis</text>
<text transform="matrix(1 0 0 1 123.9107 37.979)" class="st0 st1">t</text>
<text transform="matrix(1 0 0 1 126.6107 37.979)" class="st0 st1">ungen</text>
<text transform="matrix(1 0 0 1 0.5107 61.4507)" class="st0 st1">Schulung durch organisationsin</text>
<text transform="matrix(1 0 0 1 114.4107 61.4507)" class="st0 st1">t</text>
<text transform="matrix(1 0 0 1 117.4107 61.4507)" class="st0 st1">erne</text>
<text transform="matrix(1 0 0 1 133.9107 61.4507)" class="st0 st1"> </text>
<text transform="matrix(1 0 0 1 135.4107 61.4507)" class="st0 st1">Angebo</text>
<text transform="matrix(1 0 0 1 163.4107 61.4507)" class="st0 st1">t</text>
<text transform="matrix(1 0 0 1 166.3107 61.4507)" class="st0 st1">e</text>
<text transform="matrix(1 0 0 1 0.5107 84.5391)" class="st0 st1">Sonstiges</text>
<text transform="matrix(1 0 0 1 264.8066 105.5889)" class="st7 st1">n=5</text>
<text transform="matrix(1 0 0 1 279.6066 105.5889)" class="st7 st1">1</text>
</svg>
