<?xml version="1.0" encoding="utf-8"?>
<!-- Generator: Adobe Illustrator 21.0.0, SVG Export Plug-In . SVG Version: 6.00 Build 0)  -->
<svg version="1.1" id="Layer_1" xmlns="http://www.w3.org/2000/svg" xmlns:xlink="http://www.w3.org/1999/xlink" x="0px" y="0px"
	 viewBox="0 0 357.2 389" style="enable-background:new 0 0 357.2 389;" xml:space="preserve">
<style type="text/css">
	.st0{fill:none;stroke:#000000;stroke-width:0.5;}
	.st1{enable-background:new    ;}
	.st2{fill:#FFFFFF;}
	.st3{fill:none;stroke:#0000DD;stroke-width:0.5;}
	.st4{fill:#0000FF;}
	.st5{fill:none;stroke:#0000FF;stroke-width:0.5;}
</style>
<rect x="0.2" y="5" width="5.7" height="5.5"/>
<rect x="0.2" y="5" class="st0" width="5.7" height="5.5"/>
<g class="st1">
	<path d="M9.9,7.4L9.2,8.3v1.4H8.7V5.5h0.5v2.1l1.6-2.1h0.6L10.3,7l1.5,2.7h-0.6L9.9,7.4z"/>
</g>
<g class="st1">
	<path d="M12.3,8.2c0-1,0.5-1.6,1.4-1.6c0.7,0,1.3,0.5,1.3,1.5c0,0.1,0,0.2,0,0.3h-2.1c0,0.6,0.4,0.9,0.8,0.9c0.2,0,0.5-0.1,0.7-0.3
		l0.3,0.4c-0.2,0.2-0.6,0.4-1,0.4C12.8,9.8,12.3,9.1,12.3,8.2z M14.4,7.9C14.4,7.2,14,7,13.7,7c-0.4,0-0.8,0.3-0.8,0.9H14.4z"/>
	<path d="M15.6,5.8c0-0.2,0.1-0.3,0.3-0.3c0.2,0,0.3,0.1,0.3,0.3c0,0.2-0.1,0.3-0.3,0.3C15.8,6.1,15.6,5.9,15.6,5.8z M15.7,6.6h0.5
		v3.1h-0.5V6.6z"/>
</g>
<g class="st1">
	<path d="M19.2,7.8c0-0.6-0.3-0.8-0.7-0.8c-0.4,0-0.7,0.2-0.7,0.8v1.9h-0.5V6.6h0.5v0.3c0.2-0.3,0.5-0.4,0.8-0.4
		c0.7,0,1.1,0.4,1.1,1.4v1.8h-0.5V7.8z"/>
</g>
<g class="st1">
	<path d="M20.5,8.2c0-1,0.5-1.6,1.4-1.6c0.7,0,1.3,0.5,1.3,1.5c0,0.1,0,0.2,0,0.3H21c0,0.6,0.4,0.9,0.8,0.9c0.2,0,0.5-0.1,0.7-0.3
		l0.3,0.4c-0.2,0.2-0.6,0.4-1,0.4C21,9.8,20.5,9.1,20.5,8.2z M22.6,7.9c0-0.7-0.4-0.9-0.7-0.9c-0.4,0-0.8,0.3-0.8,0.9H22.6z"/>
</g>
<rect x="109.5" y="5" class="st2" width="5.7" height="5.5"/>
<rect x="109.5" y="5" class="st0" width="5.7" height="5.5"/>
<g class="st1">
	<path d="M117.6,5.5h0.5l0.5,2.7c0,0.2,0.1,0.3,0.1,0.4c0-0.1,0.1-0.3,0.1-0.4l0.7-2.7h0.4l0.7,2.7c0,0.2,0.1,0.3,0.1,0.4
		c0-0.1,0-0.2,0.1-0.4l0.6-2.7h0.5l-0.9,4.2h-0.4l-0.8-2.9c0-0.2-0.1-0.3-0.1-0.4c0,0.1-0.1,0.2-0.1,0.4l-0.8,2.9h-0.4L117.6,5.5z"
		/>
	<path d="M122.6,8.2c0-1,0.5-1.6,1.4-1.6c0.7,0,1.3,0.5,1.3,1.5c0,0.1,0,0.2,0,0.3h-2.1c0,0.6,0.4,0.9,0.8,0.9
		c0.2,0,0.5-0.1,0.7-0.3l0.3,0.4c-0.2,0.2-0.6,0.4-1,0.4C123.2,9.8,122.6,9.1,122.6,8.2z M124.7,7.9c0-0.7-0.4-0.9-0.7-0.9
		c-0.4,0-0.8,0.3-0.8,0.9H124.7z"/>
</g>
<g class="st1">
	<path d="M128,7.8c0-0.6-0.3-0.8-0.7-0.8c-0.4,0-0.7,0.2-0.7,0.8v1.9h-0.5V6.6h0.5v0.3c0.2-0.3,0.5-0.4,0.8-0.4
		c0.7,0,1.1,0.4,1.1,1.4v1.8H128V7.8z"/>
</g>
<g class="st1">
	<path d="M129.4,5.8c0-0.2,0.1-0.3,0.3-0.3c0.2,0,0.3,0.1,0.3,0.3c0,0.2-0.1,0.3-0.3,0.3C129.6,6.1,129.4,5.9,129.4,5.8z M129.5,6.6
		h0.5v3.1h-0.5V6.6z"/>
</g>
<g class="st1">
	<path d="M131.8,10.5c0.9-0.1,1.2-0.4,1.2-0.8V9.4c-0.2,0.2-0.4,0.4-0.8,0.4c-0.7,0-1.3-0.5-1.3-1.6c0-1,0.5-1.6,1.3-1.6
		c0.4,0,0.7,0.2,0.8,0.3V6.6h0.5v2.9c0,1-0.6,1.3-1.4,1.4L131.8,10.5z M133,8.9V7.4c-0.1-0.3-0.4-0.4-0.7-0.4
		c-0.5,0-0.8,0.4-0.8,1.1c0,0.7,0.3,1.1,0.8,1.1C132.5,9.3,132.8,9.1,133,8.9z"/>
</g>
<rect x="222.5" y="5" class="st2" width="5.7" height="5.5"/>
<rect x="222.5" y="5" class="st3" width="5.7" height="5.5"/>
<g class="st1">
	<path d="M230.6,5.5h0.6l1,3c0,0.1,0.1,0.3,0.1,0.4c0-0.2,0.1-0.3,0.1-0.4l1-3h0.6l-1.4,4.2h-0.5L230.6,5.5z"/>
	<path d="M234.7,5.8c0-0.2,0.1-0.3,0.3-0.3c0.2,0,0.3,0.1,0.3,0.3c0,0.2-0.1,0.3-0.3,0.3C234.8,6.1,234.7,5.9,234.7,5.8z M234.8,6.6
		h0.5v3.1h-0.5V6.6z"/>
	<path d="M236.1,8.2c0-1,0.5-1.6,1.4-1.6c0.7,0,1.3,0.5,1.3,1.5c0,0.1,0,0.2,0,0.3h-2.1c0,0.6,0.4,0.9,0.8,0.9
		c0.2,0,0.5-0.1,0.7-0.3l0.3,0.4c-0.2,0.2-0.6,0.4-1,0.4C236.6,9.8,236.1,9.1,236.1,8.2z M238.2,7.9c0-0.7-0.4-0.9-0.7-0.9
		c-0.4,0-0.8,0.3-0.8,0.9H238.2z"/>
</g>
<g class="st1">
	<path d="M239.6,5.6l0.5-0.2v4.3h-0.5V5.6z"/>
</g>
<rect x="325.8" y="5" class="st4" width="5.7" height="5.5"/>
<rect x="325.8" y="5" class="st5" width="5.7" height="5.5"/>
<g class="st1">
	<path d="M333.9,8.8l0.5-0.2c0.2,0.4,0.5,0.6,1,0.6c0.5,0,0.8-0.2,0.8-0.7c0-0.5-0.5-0.7-0.9-0.9c-0.6-0.2-1.2-0.5-1.2-1.2
		c0-0.6,0.5-1,1.3-1c0.7,0,1.1,0.3,1.2,0.7l-0.5,0.2c-0.1-0.2-0.4-0.4-0.8-0.4c-0.4,0-0.7,0.2-0.7,0.6c0,0.4,0.4,0.6,0.9,0.7
		c0.6,0.2,1.3,0.5,1.3,1.4c0,0.8-0.6,1.2-1.4,1.2C334.7,9.8,334.1,9.4,333.9,8.8z"/>
	<path d="M337.5,8.2c0-1,0.5-1.6,1.4-1.6c0.7,0,1.3,0.5,1.3,1.5c0,0.1,0,0.2,0,0.3H338c0,0.6,0.4,0.9,0.8,0.9c0.2,0,0.5-0.1,0.7-0.3
		l0.3,0.4c-0.2,0.2-0.6,0.4-1,0.4C338,9.8,337.5,9.1,337.5,8.2z M339.6,7.9c0-0.7-0.4-0.9-0.7-0.9c-0.4,0-0.8,0.3-0.8,0.9H339.6z"/>
</g>
<g class="st1">
	<path d="M341,5.6l0.5-0.2V7c0.2-0.3,0.5-0.4,0.8-0.4c0.7,0,1.1,0.4,1.1,1.4v1.8h-0.5V7.8c0-0.6-0.3-0.8-0.7-0.8
		c-0.4,0-0.7,0.2-0.7,0.8v1.9H341V5.6z"/>
	<path d="M344.4,6.6h0.5V7c0.2-0.3,0.5-0.5,0.8-0.5c0.2,0,0.3,0.1,0.4,0.2L346,7.2c-0.1-0.1-0.2-0.1-0.4-0.1c-0.3,0-0.7,0.2-0.7,0.9
		v1.7h-0.5V6.6z"/>
</g>
<g class="st1">
	<path d="M347.9,6.6h0.5l0.7,2c0,0.1,0.1,0.2,0.1,0.3c0-0.1,0.1-0.2,0.1-0.3l0.7-2h0.5l-1.1,3.1H349L347.9,6.6z"/>
	<path d="M351.2,5.8c0-0.2,0.1-0.3,0.3-0.3c0.2,0,0.3,0.1,0.3,0.3c0,0.2-0.1,0.3-0.3,0.3C351.3,6.1,351.2,5.9,351.2,5.8z M351.2,6.6
		h0.5v3.1h-0.5V6.6z"/>
	<path d="M352.6,8.2c0-1,0.5-1.6,1.4-1.6c0.7,0,1.3,0.5,1.3,1.5c0,0.1,0,0.2,0,0.3h-2.1c0,0.6,0.4,0.9,0.8,0.9
		c0.2,0,0.5-0.1,0.7-0.3l0.3,0.4c-0.2,0.2-0.6,0.4-1,0.4C353.1,9.8,352.6,9.1,352.6,8.2z M354.7,7.9c0-0.7-0.4-0.9-0.7-0.9
		c-0.4,0-0.8,0.3-0.8,0.9H354.7z"/>
</g>
<g class="st1">
	<path d="M356.1,5.6l0.5-0.2v4.3h-0.5V5.6z"/>
</g>
<g>
	<path class="st4" d="M2.8,33.7c1.4,0,2.6-1.2,2.6-2.6s-1.2-2.6-2.6-2.6s-2.6,1.2-2.6,2.6C0.2,32.5,1.4,33.7,2.8,33.7"/>
</g>
<g class="st1">
	<path d="M11.4,28.1c1.9,0,2.6,1.4,2.6,2.8c0,1.3-0.6,2.8-2.6,2.8H9.9v-5.6H11.4z M13.3,30.9c0-1.1-0.5-2.2-1.7-2.2h-1V33h0.9
		C12.8,33,13.3,31.9,13.3,30.9z"/>
	<path d="M17.5,33.3c-0.3,0.3-0.7,0.5-1.2,0.5c-0.8,0-1.4-0.5-1.4-1.4c0-0.9,0.7-1.4,1.5-1.4c0.4,0,0.7,0.1,1.1,0.3V31
		c0-0.7-0.4-0.9-0.9-0.9c-0.5,0-0.9,0.2-1.2,0.4l-0.2-0.6c0.3-0.2,0.9-0.4,1.5-0.4c0.6,0,1.5,0.2,1.5,1.5v2.7h-0.7V33.3z M17.5,32.6
		v-0.7c-0.2-0.2-0.6-0.3-1-0.3c-0.5,0-1,0.2-1,0.8c0,0.5,0.3,0.8,0.9,0.8C16.9,33.2,17.3,32.9,17.5,32.6z"/>
</g>
<g class="st1">
	<path d="M19.6,32.8v-2.6H19v-0.6h0.7v-1.4l0.7-0.3v1.7h1v0.6h-1v2.4c0,0.3,0.1,0.6,0.4,0.6c0.2,0,0.4-0.1,0.6-0.2l-0.1,0.7
		c-0.2,0.1-0.5,0.2-0.8,0.2C19.9,33.8,19.6,33.4,19.6,32.8z"/>
</g>
<g class="st1">
	<path d="M22.1,31.7c0-1.4,0.7-2.1,1.8-2.1c0.9,0,1.7,0.6,1.7,1.9c0,0.1,0,0.3,0,0.5h-2.8c0.1,0.8,0.5,1.2,1.1,1.2
		c0.3,0,0.6-0.1,0.9-0.4l0.4,0.5c-0.3,0.3-0.8,0.5-1.3,0.5C22.8,33.8,22.1,32.9,22.1,31.7z M24.9,31.3c0-0.9-0.6-1.2-1-1.2
		c-0.6,0-1.1,0.4-1.1,1.2H24.9z"/>
	<path d="M29.1,31.2c0-0.8-0.4-1.1-0.9-1.1c-0.5,0-0.9,0.3-0.9,1.1v2.5h-0.7v-4.1h0.7V30c0.3-0.4,0.6-0.5,1.1-0.5
		c0.9,0,1.5,0.5,1.5,1.8v2.4h-0.7V31.2z"/>
	<path d="M30.8,33.1l0.5-0.4c0.2,0.2,0.6,0.5,1,0.5c0.4,0,0.8-0.2,0.8-0.5c0-0.4-0.5-0.6-0.9-0.8c-0.8-0.3-1.3-0.6-1.3-1.3
		c0-0.7,0.6-1.1,1.4-1.1c0.6,0,1.1,0.3,1.4,0.6l-0.5,0.4c-0.2-0.2-0.5-0.4-0.9-0.4c-0.4,0-0.7,0.2-0.7,0.5c0,0.3,0.4,0.5,0.9,0.7
		c0.7,0.3,1.3,0.6,1.3,1.4c0,0.7-0.6,1.2-1.5,1.2C31.7,33.8,31.2,33.5,30.8,33.1z"/>
	<path d="M34.6,31.7c0-1.3,0.7-2.1,1.7-2.1c0.7,0,1.2,0.3,1.4,1l-0.7,0.2c-0.1-0.3-0.4-0.5-0.8-0.5c-0.7,0-1,0.6-1,1.5
		c0,0.9,0.3,1.5,1,1.5c0.4,0,0.7-0.2,0.8-0.6l0.6,0.2c-0.2,0.7-0.7,1-1.5,1C35.3,33.8,34.6,33,34.6,31.7z"/>
	<path d="M38.9,28.2l0.7-0.3V30c0.3-0.4,0.6-0.5,1.1-0.5c0.9,0,1.5,0.5,1.5,1.8v2.4h-0.7v-2.5c0-0.8-0.4-1.1-0.9-1.1
		c-0.5,0-0.9,0.3-0.9,1.1v2.5h-0.7V28.2z"/>
	<path d="M45.8,33.3c-0.3,0.4-0.6,0.5-1,0.5c-1,0-1.5-0.5-1.5-1.8v-2.4H44v2.5c0,0.8,0.4,1.1,0.9,1.1c0.5,0,0.9-0.3,0.9-1.1v-2.5
		h0.7v4.1h-0.7V33.3z"/>
	<path d="M48.1,32.8v-2.6h-0.7v-0.6h0.7v-1.4l0.7-0.3v1.7h1v0.6h-1v2.4c0,0.3,0.1,0.6,0.4,0.6c0.2,0,0.4-0.1,0.6-0.2l-0.1,0.7
		c-0.2,0.1-0.5,0.2-0.8,0.2C48.4,33.8,48.1,33.4,48.1,32.8z"/>
	<path d="M50.7,33.2l2.1-3h-2v-0.6h2.8v0.5l-2.1,3h2.1v0.6h-3V33.2z"/>
	<path d="M59.2,28h0.7l-3.1,6.7H56L59.2,28z"/>
	<path d="M62.6,28.1h0.7v5.6h-0.7V28.1z"/>
</g>
<g class="st1">
	<path d="M66.8,33.7h-0.7v-4.9h-1.6v-0.7h3.8v0.7h-1.6V33.7z"/>
</g>
<g class="st1">
	<path d="M69.1,31H71v0.7h-1.9V31z"/>
	<path d="M72.1,32.5l0.7-0.2c0.2,0.5,0.7,0.8,1.3,0.8c0.7,0,1.1-0.3,1.1-0.9c0-0.6-0.6-0.9-1.3-1.2c-0.8-0.3-1.6-0.6-1.6-1.6
		c0-0.8,0.6-1.4,1.7-1.4c0.9,0,1.5,0.4,1.6,1L75,29.2c-0.1-0.3-0.5-0.6-1-0.6c-0.6,0-1,0.3-1,0.7c0,0.5,0.6,0.8,1.2,1
		c0.8,0.3,1.7,0.7,1.7,1.8c0,1-0.8,1.6-1.8,1.6C73.1,33.8,72.3,33.3,72.1,32.5z"/>
	<path d="M77,28.4c0-0.2,0.2-0.4,0.4-0.4c0.2,0,0.4,0.2,0.4,0.4c0,0.2-0.2,0.4-0.4,0.4C77.2,28.9,77,28.7,77,28.4z M77.1,29.6h0.7
		v4.1h-0.7V29.6z"/>
	<path d="M78.9,31.7c0-1.3,0.7-2.1,1.7-2.1c0.7,0,1.2,0.3,1.4,1l-0.7,0.2c-0.1-0.3-0.4-0.5-0.8-0.5c-0.7,0-1,0.6-1,1.5
		c0,0.9,0.3,1.5,1,1.5c0.4,0,0.7-0.2,0.8-0.6l0.6,0.2c-0.2,0.7-0.7,1-1.5,1C79.5,33.8,78.9,33,78.9,31.7z"/>
	<path d="M83.1,28.2l0.7-0.3V30c0.3-0.4,0.6-0.5,1.1-0.5c0.9,0,1.5,0.5,1.5,1.8v2.4h-0.7v-2.5c0-0.8-0.4-1.1-0.9-1.1
		c-0.5,0-0.9,0.3-0.9,1.1v2.5h-0.7V28.2z"/>
	<path d="M87.4,31.7c0-1.4,0.7-2.1,1.8-2.1c0.9,0,1.7,0.6,1.7,1.9c0,0.1,0,0.3,0,0.5h-2.8c0.1,0.8,0.5,1.2,1.1,1.2
		c0.3,0,0.6-0.1,0.9-0.4l0.4,0.5c-0.3,0.3-0.8,0.5-1.3,0.5C88.1,33.8,87.4,32.9,87.4,31.7z M90.2,31.3c0-0.9-0.6-1.2-1-1.2
		c-0.6,0-1.1,0.4-1.1,1.2H90.2z"/>
	<path d="M91.9,29.6h0.7v0.5c0.2-0.4,0.6-0.6,1-0.6c0.2,0,0.4,0.1,0.6,0.2l-0.1,0.7c-0.1-0.1-0.3-0.2-0.6-0.2
		c-0.4,0-0.9,0.3-0.9,1.2v2.3h-0.7V29.6z"/>
	<path d="M95.1,28.2l0.7-0.3V30c0.3-0.4,0.6-0.5,1.1-0.5c0.9,0,1.5,0.5,1.5,1.8v2.4h-0.7v-2.5c0-0.8-0.4-1.1-0.9-1.1
		c-0.5,0-0.9,0.3-0.9,1.1v2.5h-0.7V28.2z"/>
	<path d="M99.3,31.7c0-1.4,0.7-2.1,1.8-2.1c0.9,0,1.7,0.6,1.7,1.9c0,0.1,0,0.3,0,0.5h-2.8c0.1,0.8,0.5,1.2,1.1,1.2
		c0.3,0,0.6-0.1,0.9-0.4l0.4,0.5c-0.3,0.3-0.8,0.5-1.3,0.5C100,33.8,99.3,32.9,99.3,31.7z M102.1,31.3c0-0.9-0.6-1.2-1-1.2
		c-0.6,0-1.1,0.4-1.1,1.2H102.1z"/>
	<path d="M103.8,28.4c0-0.2,0.2-0.4,0.4-0.4c0.2,0,0.4,0.2,0.4,0.4c0,0.2-0.2,0.4-0.4,0.4C104,28.9,103.8,28.7,103.8,28.4z
		 M103.9,29.6h0.7v4.1h-0.7V29.6z"/>
	<path d="M106.2,32.8v-2.6h-0.7v-0.6h0.7v-1.4l0.7-0.3v1.7h1v0.6h-1v2.4c0,0.3,0.1,0.6,0.4,0.6c0.2,0,0.4-0.1,0.6-0.2l-0.1,0.7
		c-0.2,0.1-0.5,0.2-0.8,0.2C106.4,33.8,106.2,33.4,106.2,32.8z"/>
</g>
<g>
	<path class="st4" d="M2.8,75.7c1.4,0,2.6-1.2,2.6-2.6s-1.2-2.6-2.6-2.6s-2.6,1.2-2.6,2.6C0.2,74.5,1.4,75.7,2.8,75.7"/>
</g>
<g class="st1">
	<path d="M11.4,70.1c1.9,0,2.6,1.4,2.6,2.8c0,1.3-0.6,2.8-2.6,2.8H9.9v-5.6H11.4z M13.3,72.9c0-1.1-0.5-2.2-1.7-2.2h-1V75h0.9
		C12.8,75,13.3,73.9,13.3,72.9z"/>
	<path d="M17.5,75.3c-0.3,0.3-0.7,0.5-1.2,0.5c-0.8,0-1.4-0.5-1.4-1.4c0-0.9,0.7-1.4,1.5-1.4c0.4,0,0.7,0.1,1.1,0.3V73
		c0-0.7-0.4-0.9-0.9-0.9c-0.5,0-0.9,0.2-1.2,0.4l-0.2-0.6c0.3-0.2,0.9-0.4,1.5-0.4c0.6,0,1.5,0.2,1.5,1.5v2.7h-0.7V75.3z M17.5,74.6
		v-0.7c-0.2-0.2-0.6-0.3-1-0.3c-0.5,0-1,0.2-1,0.8c0,0.5,0.3,0.8,0.9,0.8C16.9,75.2,17.3,74.9,17.5,74.6z"/>
</g>
<g class="st1">
	<path d="M19.7,74.8v-2.6H19v-0.6h0.7v-1.4l0.7-0.3v1.7h1v0.6h-1v2.4c0,0.3,0.1,0.6,0.4,0.6c0.2,0,0.4-0.1,0.6-0.2l-0.1,0.7
		c-0.2,0.1-0.5,0.2-0.8,0.2C19.9,75.8,19.7,75.4,19.7,74.8z"/>
</g>
<g class="st1">
	<path d="M22.1,73.7c0-1.4,0.7-2.1,1.8-2.1c0.9,0,1.7,0.6,1.7,1.9c0,0.1,0,0.3,0,0.5h-2.8c0.1,0.8,0.5,1.2,1.1,1.2
		c0.3,0,0.6-0.1,0.9-0.4l0.4,0.5c-0.3,0.3-0.8,0.5-1.3,0.5C22.8,75.8,22.1,74.9,22.1,73.7z M24.9,73.3c0-0.9-0.6-1.2-1-1.2
		c-0.6,0-1.1,0.4-1.1,1.2H24.9z"/>
	<path d="M29.2,73.2c0-0.8-0.4-1.1-0.9-1.1c-0.5,0-0.9,0.3-0.9,1.1v2.5h-0.7v-4.1h0.7V72c0.3-0.4,0.6-0.5,1.1-0.5
		c0.9,0,1.5,0.5,1.5,1.8v2.4h-0.7V73.2z"/>
	<path d="M31.1,71.6h0.7v0.5c0.2-0.4,0.6-0.6,1-0.6c0.2,0,0.4,0.1,0.6,0.2l-0.1,0.7c-0.1-0.1-0.3-0.2-0.6-0.2
		c-0.4,0-0.9,0.3-0.9,1.2v2.3h-0.7V71.6z"/>
	<path d="M34.1,73.7c0-1.4,0.7-2.1,1.8-2.1c0.9,0,1.7,0.6,1.7,1.9c0,0.1,0,0.3,0,0.5h-2.8c0.1,0.8,0.5,1.2,1.1,1.2
		c0.3,0,0.6-0.1,0.9-0.4l0.4,0.5c-0.3,0.3-0.8,0.5-1.3,0.5C34.8,75.8,34.1,74.9,34.1,73.7z M36.9,73.3c0-0.9-0.6-1.2-1-1.2
		c-0.6,0-1.1,0.4-1.1,1.2H36.9z"/>
	<path d="M38.4,73.7c0-1.3,0.7-2.1,1.7-2.1c0.7,0,1.2,0.3,1.4,1l-0.7,0.2c-0.1-0.3-0.4-0.5-0.8-0.5c-0.7,0-1,0.6-1,1.5
		c0,0.9,0.3,1.5,1,1.5c0.4,0,0.7-0.2,0.8-0.6l0.6,0.2c-0.2,0.7-0.7,1-1.5,1C39,75.8,38.4,75,38.4,73.7z"/>
	<path d="M42.6,70.2l0.7-0.3V72c0.3-0.4,0.6-0.5,1.1-0.5c0.9,0,1.5,0.5,1.5,1.8v2.4h-0.7v-2.5c0-0.8-0.4-1.1-0.9-1.1
		c-0.5,0-0.9,0.3-0.9,1.1v2.5h-0.7V70.2z"/>
	<path d="M46.9,73.7c0-1.4,0.7-2.1,1.8-2.1c0.9,0,1.7,0.6,1.7,1.9c0,0.1,0,0.3,0,0.5h-2.8c0.1,0.8,0.5,1.2,1.1,1.2
		c0.3,0,0.6-0.1,0.9-0.4l0.4,0.5c-0.3,0.3-0.8,0.5-1.3,0.5C47.6,75.8,46.9,74.9,46.9,73.7z M49.7,73.3c0-0.9-0.6-1.2-1-1.2
		c-0.6,0-1.1,0.4-1.1,1.2H49.7z"/>
	<path d="M51.4,71.6h0.7v0.5c0.2-0.4,0.6-0.6,1-0.6c0.2,0,0.4,0.1,0.6,0.2l-0.1,0.7c-0.1-0.1-0.3-0.2-0.6-0.2
		c-0.4,0-0.9,0.3-0.9,1.2v2.3h-0.7V71.6z"/>
	<path d="M54.3,73.7c0-1.3,0.7-2.1,1.7-2.1c0.7,0,1.2,0.3,1.4,1l-0.7,0.2c-0.1-0.3-0.4-0.5-0.8-0.5c-0.7,0-1,0.6-1,1.5
		c0,0.9,0.3,1.5,1,1.5c0.4,0,0.7-0.2,0.8-0.6l0.6,0.2c-0.2,0.7-0.7,1-1.5,1C55,75.8,54.3,75,54.3,73.7z"/>
	<path d="M58.6,70.2l0.7-0.3V72c0.3-0.4,0.6-0.5,1.1-0.5c0.9,0,1.5,0.5,1.5,1.8v2.4h-0.7v-2.5c0-0.8-0.4-1.1-0.9-1.1
		c-0.5,0-0.9,0.3-0.9,1.1v2.5h-0.7V70.2z"/>
	<path d="M62.8,73.7c0-1.4,0.7-2.1,1.8-2.1c0.9,0,1.7,0.6,1.7,1.9c0,0.1,0,0.3,0,0.5h-2.8c0.1,0.8,0.5,1.2,1.1,1.2
		c0.3,0,0.6-0.1,0.9-0.4l0.4,0.5c-0.3,0.3-0.8,0.5-1.3,0.5C63.5,75.8,62.8,74.9,62.8,73.7z M65.6,73.3c0-0.9-0.6-1.2-1-1.2
		c-0.6,0-1.1,0.4-1.1,1.2H65.6z"/>
	<path d="M67.6,75.8c-0.3,0-0.6-0.2-0.6-0.5c0-0.3,0.2-0.6,0.5-0.6c0.3,0,0.6,0.2,0.6,0.7c0,0.6-0.4,1.1-0.8,1.4l-0.2-0.1
		C67.3,76.6,67.6,76.2,67.6,75.8z"/>
	<path d="M71,73h1.9v0.7H71V73z"/>
	<path d="M76.6,75.3c-0.3,0.3-0.7,0.5-1.2,0.5c-0.8,0-1.4-0.5-1.4-1.4c0-0.9,0.7-1.4,1.5-1.4c0.4,0,0.7,0.1,1.1,0.3V73
		c0-0.7-0.4-0.9-0.9-0.9c-0.5,0-0.9,0.2-1.2,0.4l-0.2-0.6c0.3-0.2,0.9-0.4,1.5-0.4c0.6,0,1.5,0.2,1.5,1.5v2.7h-0.7V75.3z M76.6,74.6
		v-0.7c-0.2-0.2-0.6-0.3-1-0.3c-0.5,0-1,0.2-1,0.8c0,0.5,0.3,0.8,0.9,0.8C76,75.2,76.3,74.9,76.6,74.6z"/>
	<path d="M80.9,73.2c0-0.8-0.4-1.1-0.9-1.1c-0.5,0-0.9,0.3-0.9,1.1v2.5h-0.7v-4.1h0.7V72c0.3-0.4,0.6-0.5,1.1-0.5
		c0.9,0,1.5,0.5,1.5,1.8v2.4h-0.7V73.2z"/>
	<path d="M85.3,75.3c-0.3,0.3-0.7,0.5-1.2,0.5c-0.8,0-1.4-0.5-1.4-1.4c0-0.9,0.7-1.4,1.5-1.4c0.4,0,0.7,0.1,1.1,0.3V73
		c0-0.7-0.4-0.9-0.9-0.9c-0.5,0-0.9,0.2-1.2,0.4L83,71.9c0.3-0.2,0.9-0.4,1.5-0.4c0.6,0,1.5,0.2,1.5,1.5v2.7h-0.7V75.3z M85.3,74.6
		v-0.7c-0.2-0.2-0.6-0.3-1-0.3c-0.5,0-1,0.2-1,0.8c0,0.5,0.3,0.8,0.9,0.8C84.7,75.2,85,74.9,85.3,74.6z"/>
	<path d="M87.2,70.3l0.7-0.3v5.8h-0.7V70.3z"/>
	<path d="M90.3,75.6l-1.5-4h0.7l1,2.8c0.1,0.1,0.1,0.3,0.1,0.4c0-0.1,0.1-0.2,0.1-0.4l1-2.8h0.7l-2.1,5.6h-0.7L90.3,75.6z"/>
	<path d="M93.2,75.1l0.5-0.4c0.2,0.2,0.6,0.5,1,0.5c0.4,0,0.8-0.2,0.8-0.5c0-0.4-0.5-0.6-0.9-0.8c-0.8-0.3-1.3-0.6-1.3-1.3
		c0-0.7,0.6-1.1,1.4-1.1c0.6,0,1.1,0.3,1.4,0.6l-0.5,0.4c-0.2-0.2-0.5-0.4-0.9-0.4c-0.4,0-0.7,0.2-0.7,0.5c0,0.3,0.4,0.5,0.9,0.7
		c0.7,0.3,1.3,0.6,1.3,1.4c0,0.7-0.6,1.2-1.5,1.2C94.1,75.8,93.5,75.5,93.2,75.1z"/>
	<path d="M97,73.7c0-1.4,0.7-2.1,1.8-2.1c0.9,0,1.7,0.6,1.7,1.9c0,0.1,0,0.3,0,0.5h-2.8c0.1,0.8,0.5,1.2,1.1,1.2
		c0.3,0,0.6-0.1,0.9-0.4l0.4,0.5c-0.3,0.3-0.8,0.5-1.3,0.5C97.7,75.8,97,74.9,97,73.7z M99.8,73.3c0-0.9-0.6-1.2-1-1.2
		c-0.6,0-1.1,0.4-1.1,1.2H99.8z"/>
	<path d="M101.8,75.8c-0.3,0-0.6-0.2-0.6-0.5c0-0.3,0.2-0.6,0.5-0.6c0.3,0,0.6,0.2,0.6,0.7c0,0.6-0.4,1.1-0.8,1.4l-0.2-0.1
		C101.5,76.6,101.7,76.2,101.8,75.8z"/>
	<path d="M105.2,73h1.9v0.7h-1.9V73z"/>
	<path d="M108,71.6h0.7l1,2.7c0,0.1,0.1,0.3,0.1,0.4c0-0.1,0.1-0.3,0.1-0.4l1-2.7h0.7l-1.5,4.1h-0.6L108,71.6z"/>
	<path d="M112.4,70.4c0-0.2,0.2-0.4,0.4-0.4c0.2,0,0.4,0.2,0.4,0.4c0,0.2-0.2,0.4-0.4,0.4C112.6,70.9,112.4,70.7,112.4,70.4z
		 M112.5,71.6h0.7v4.1h-0.7V71.6z"/>
	<path d="M114.2,75.1l0.5-0.4c0.2,0.2,0.6,0.5,1,0.5c0.4,0,0.8-0.2,0.8-0.5c0-0.4-0.5-0.6-0.9-0.8c-0.8-0.3-1.3-0.6-1.3-1.3
		c0-0.7,0.6-1.1,1.4-1.1c0.6,0,1.1,0.3,1.4,0.6l-0.5,0.4c-0.2-0.2-0.5-0.4-0.9-0.4c-0.4,0-0.7,0.2-0.7,0.5c0,0.3,0.4,0.5,0.9,0.7
		c0.7,0.3,1.3,0.6,1.3,1.4c0,0.7-0.6,1.2-1.5,1.2C115.1,75.8,114.5,75.5,114.2,75.1z"/>
	<path d="M120.7,75.3c-0.3,0.4-0.6,0.5-1,0.5c-1,0-1.5-0.5-1.5-1.8v-2.4h0.7v2.5c0,0.8,0.4,1.1,0.9,1.1c0.5,0,0.9-0.3,0.9-1.1v-2.5
		h0.7v4.1h-0.7V75.3z"/>
	<path d="M125.1,75.3c-0.3,0.3-0.7,0.5-1.2,0.5c-0.8,0-1.4-0.5-1.4-1.4c0-0.9,0.7-1.4,1.5-1.4c0.4,0,0.7,0.1,1.1,0.3V73
		c0-0.7-0.4-0.9-0.9-0.9c-0.5,0-0.9,0.2-1.2,0.4l-0.2-0.6c0.3-0.2,0.9-0.4,1.5-0.4c0.6,0,1.5,0.2,1.5,1.5v2.7h-0.7V75.3z
		 M125.1,74.6v-0.7c-0.2-0.2-0.6-0.3-1-0.3c-0.5,0-1,0.2-1,0.8c0,0.5,0.3,0.8,0.9,0.8C124.5,75.2,124.9,74.9,125.1,74.6z"/>
	<path d="M127,70.3l0.7-0.3v5.8H127V70.3z"/>
	<path d="M129,70.4c0-0.2,0.2-0.4,0.4-0.4c0.2,0,0.4,0.2,0.4,0.4c0,0.2-0.2,0.4-0.4,0.4C129.2,70.9,129,70.7,129,70.4z M129.1,71.6
		h0.7v4.1h-0.7V71.6z"/>
	<path d="M130.8,75.1l0.5-0.4c0.2,0.2,0.6,0.5,1,0.5c0.4,0,0.8-0.2,0.8-0.5c0-0.4-0.5-0.6-0.9-0.8c-0.8-0.3-1.3-0.6-1.3-1.3
		c0-0.7,0.6-1.1,1.4-1.1c0.6,0,1.1,0.3,1.4,0.6l-0.5,0.4c-0.2-0.2-0.5-0.4-0.9-0.4c-0.4,0-0.7,0.2-0.7,0.5c0,0.3,0.4,0.5,0.9,0.7
		c0.7,0.3,1.3,0.6,1.3,1.4c0,0.7-0.6,1.2-1.5,1.2C131.7,75.8,131.1,75.5,130.8,75.1z"/>
	<path d="M134.8,70.4c0-0.2,0.2-0.4,0.4-0.4c0.2,0,0.4,0.2,0.4,0.4c0,0.2-0.2,0.4-0.4,0.4C134.9,70.9,134.8,70.7,134.8,70.4z
		 M134.8,71.6h0.7v4.1h-0.7V71.6z"/>
	<path d="M136.6,73.7c0-1.4,0.7-2.1,1.8-2.1c0.9,0,1.7,0.6,1.7,1.9c0,0.1,0,0.3,0,0.5h-2.8c0.1,0.8,0.5,1.2,1.1,1.2
		c0.3,0,0.6-0.1,0.9-0.4l0.4,0.5c-0.3,0.3-0.8,0.5-1.3,0.5C137.3,75.8,136.6,74.9,136.6,73.7z M139.4,73.3c0-0.9-0.6-1.2-1-1.2
		c-0.6,0-1.1,0.4-1.1,1.2H139.4z"/>
</g>
<g class="st1">
	<path d="M141.1,71.6h0.7v0.5c0.2-0.4,0.6-0.6,1-0.6c0.2,0,0.4,0.1,0.6,0.2l-0.1,0.7c-0.1-0.1-0.3-0.2-0.6-0.2
		c-0.4,0-0.9,0.3-0.9,1.2v2.3h-0.7V71.6z"/>
</g>
<g class="st1">
	<path d="M146.7,75.3c-0.3,0.4-0.6,0.5-1,0.5c-1,0-1.5-0.5-1.5-1.8v-2.4h0.7v2.5c0,0.8,0.4,1.1,0.9,1.1c0.5,0,0.9-0.3,0.9-1.1v-2.5
		h0.7v4.1h-0.7V75.3z"/>
	<path d="M151.3,73.2c0-0.8-0.4-1.1-0.9-1.1c-0.5,0-0.9,0.3-0.9,1.1v2.5h-0.7v-4.1h0.7V72c0.3-0.4,0.6-0.5,1.1-0.5
		c0.9,0,1.5,0.5,1.5,1.8v2.4h-0.7V73.2z"/>
	<path d="M154.2,76.8c1.3-0.1,1.6-0.5,1.6-1v-0.5c-0.2,0.3-0.6,0.5-1.1,0.5c-0.9,0-1.7-0.7-1.7-2.1c0-1.3,0.7-2.1,1.7-2.1
		c0.6,0,0.9,0.3,1,0.4v-0.3h0.7v3.9c0,1.3-0.8,1.8-1.9,1.8L154.2,76.8z M155.7,74.6v-1.9c-0.2-0.3-0.6-0.5-0.9-0.5
		c-0.7,0-1.1,0.5-1.1,1.5c0,0.9,0.5,1.5,1.1,1.5C155.2,75.1,155.5,74.9,155.7,74.6z"/>
</g>
<g>
	<path class="st4" d="M3.5,117.7c1.4,0,2.6-1.2,2.6-2.6s-1.2-2.6-2.6-2.6s-2.6,1.2-2.6,2.6C0.9,116.5,2.1,117.7,3.5,117.7"/>
</g>
<g class="st1">
	<path d="M12.6,112.1c1.3,0,1.7,0.7,1.7,1.5c0,0.5-0.3,0.9-0.8,1.2c0.6,0.2,1,0.7,1,1.3c0,0.8-0.4,1.6-1.8,1.6h-2.1v-5.6H12.6z
		 M13.6,113.6c0-0.4-0.2-0.9-1-0.9h-1.3v1.7h1.2C13.2,114.5,13.6,114.1,13.6,113.6z M13.8,116.1c0-0.5-0.3-1-1.3-1h-1.2v2h1.5
		C13.6,117.1,13.8,116.6,13.8,116.1z"/>
</g>
<g class="st1">
	<path d="M15.4,115.7c0-1.4,0.7-2.1,1.8-2.1c0.9,0,1.7,0.6,1.7,1.9c0,0.1,0,0.3,0,0.5h-2.8c0.1,0.8,0.5,1.2,1.1,1.2
		c0.3,0,0.6-0.1,0.9-0.4l0.4,0.5c-0.3,0.3-0.8,0.5-1.3,0.5C16.1,117.8,15.4,116.9,15.4,115.7z M18.2,115.3c0-0.9-0.6-1.2-1-1.2
		c-0.6,0-1.1,0.4-1.1,1.2H18.2z"/>
	<path d="M20.1,116.8v-2.6h-0.7v-0.6h0.7v-1.4l0.7-0.3v1.7h1v0.6h-1v2.4c0,0.3,0.1,0.6,0.4,0.6c0.2,0,0.4-0.1,0.6-0.2l-0.1,0.7
		c-0.2,0.1-0.5,0.2-0.8,0.2C20.4,117.8,20.1,117.4,20.1,116.8z"/>
</g>
<g class="st1">
	<path d="M22.6,115.7c0-1.4,0.7-2.1,1.8-2.1c0.9,0,1.7,0.6,1.7,1.9c0,0.1,0,0.3,0,0.5h-2.8c0.1,0.8,0.5,1.2,1.1,1.2
		c0.3,0,0.6-0.1,0.9-0.4l0.4,0.5c-0.3,0.3-0.8,0.5-1.3,0.5C23.3,117.8,22.6,116.9,22.6,115.7z M25.4,115.3c0-0.9-0.6-1.2-1-1.2
		c-0.6,0-1.1,0.4-1.1,1.2H25.4z"/>
	<path d="M27.1,112.4c0-0.2,0.2-0.4,0.4-0.4c0.2,0,0.4,0.2,0.4,0.4c0,0.2-0.2,0.4-0.4,0.4C27.3,112.9,27.1,112.7,27.1,112.4z
		 M27.2,113.6h0.7v4.1h-0.7V113.6z"/>
	<path d="M29.2,112.3l0.7-0.3v5.8h-0.7V112.3z"/>
	<path d="M31.2,112.4c0-0.2,0.2-0.4,0.4-0.4c0.2,0,0.4,0.2,0.4,0.4c0,0.2-0.2,0.4-0.4,0.4C31.4,112.9,31.2,112.7,31.2,112.4z
		 M31.3,113.6H32v4.1h-0.7V113.6z"/>
	<path d="M34.2,118.8c1.3-0.1,1.6-0.5,1.6-1v-0.5c-0.2,0.3-0.6,0.5-1.1,0.5c-0.9,0-1.7-0.7-1.7-2.1c0-1.3,0.7-2.1,1.7-2.1
		c0.6,0,0.9,0.3,1,0.4v-0.3h0.7v3.9c0,1.3-0.8,1.8-1.9,1.8L34.2,118.8z M35.8,116.6v-1.9c-0.2-0.3-0.6-0.5-0.9-0.5
		c-0.7,0-1.1,0.5-1.1,1.5c0,0.9,0.5,1.5,1.1,1.5C35.2,117.1,35.6,116.9,35.8,116.6z"/>
	<path d="M40.3,117.3c-0.3,0.4-0.6,0.5-1,0.5c-1,0-1.5-0.5-1.5-1.8v-2.4h0.7v2.5c0,0.8,0.4,1.1,0.9,1.1c0.5,0,0.9-0.3,0.9-1.1v-2.5
		H41v4.1h-0.7V117.3z"/>
	<path d="M44.8,115.2c0-0.8-0.4-1.1-0.9-1.1c-0.5,0-0.9,0.3-0.9,1.1v2.5h-0.7v-4.1H43v0.4c0.3-0.4,0.6-0.5,1.1-0.5
		c0.9,0,1.5,0.5,1.5,1.8v2.4h-0.7V115.2z"/>
	<path d="M47.7,118.8c1.3-0.1,1.6-0.5,1.6-1v-0.5c-0.2,0.3-0.6,0.5-1.1,0.5c-0.9,0-1.7-0.7-1.7-2.1c0-1.3,0.7-2.1,1.7-2.1
		c0.6,0,0.9,0.3,1,0.4v-0.3H50v3.9c0,1.3-0.8,1.8-1.9,1.8L47.7,118.8z M49.3,116.6v-1.9c-0.2-0.3-0.6-0.5-0.9-0.5
		c-0.7,0-1.1,0.5-1.1,1.5c0,0.9,0.5,1.5,1.1,1.5C48.7,117.1,49.1,116.9,49.3,116.6z"/>
	<path d="M51.1,117.1l0.5-0.4c0.2,0.2,0.6,0.5,1,0.5c0.4,0,0.8-0.2,0.8-0.5c0-0.4-0.5-0.6-0.9-0.8c-0.8-0.3-1.3-0.6-1.3-1.3
		c0-0.7,0.6-1.1,1.4-1.1c0.6,0,1.1,0.3,1.4,0.6l-0.5,0.4c-0.2-0.2-0.5-0.4-0.9-0.4c-0.4,0-0.7,0.2-0.7,0.5c0,0.3,0.4,0.5,0.9,0.7
		c0.7,0.3,1.3,0.6,1.3,1.4c0,0.7-0.6,1.2-1.5,1.2C51.9,117.8,51.4,117.5,51.1,117.1z"/>
	<path d="M57.4,117.3c-0.3,0.3-0.7,0.5-1.2,0.5c-0.8,0-1.4-0.5-1.4-1.4c0-0.9,0.7-1.4,1.5-1.4c0.4,0,0.7,0.1,1.1,0.3V115
		c0-0.7-0.4-0.9-0.9-0.9c-0.5,0-0.9,0.2-1.2,0.4l-0.2-0.6c0.3-0.2,0.9-0.4,1.5-0.4c0.6,0,1.5,0.2,1.5,1.5v2.7h-0.7V117.3z
		 M57.4,116.6v-0.7c-0.2-0.2-0.6-0.3-1-0.3c-0.5,0-1,0.2-1,0.8c0,0.5,0.3,0.8,0.9,0.8C56.8,117.2,57.2,116.9,57.4,116.6z"/>
	<path d="M61.8,115.2c0-0.8-0.4-1.1-0.9-1.1c-0.5,0-0.9,0.3-0.9,1.1v2.5h-0.7v-4.1H60v0.4c0.3-0.4,0.6-0.5,1.1-0.5
		c0.9,0,1.5,0.5,1.5,1.8v2.4h-0.7V115.2z"/>
	<path d="M63.5,117.1l0.5-0.4c0.2,0.2,0.6,0.5,1,0.5c0.4,0,0.8-0.2,0.8-0.5c0-0.4-0.5-0.6-0.9-0.8c-0.8-0.3-1.3-0.6-1.3-1.3
		c0-0.7,0.6-1.1,1.4-1.1c0.6,0,1.1,0.3,1.4,0.6l-0.5,0.4c-0.2-0.2-0.5-0.4-0.9-0.4c-0.4,0-0.7,0.2-0.7,0.5c0,0.3,0.4,0.5,0.9,0.7
		c0.7,0.3,1.3,0.6,1.3,1.4c0,0.7-0.6,1.2-1.5,1.2C64.4,117.8,63.8,117.5,63.5,117.1z"/>
	<path d="M69.9,117.3c-0.3,0.3-0.7,0.5-1.2,0.5c-0.8,0-1.4-0.5-1.4-1.4c0-0.9,0.7-1.4,1.5-1.4c0.4,0,0.7,0.1,1.1,0.3V115
		c0-0.7-0.4-0.9-0.9-0.9c-0.5,0-0.9,0.2-1.2,0.4l-0.2-0.6c0.3-0.2,0.9-0.4,1.5-0.4c0.6,0,1.5,0.2,1.5,1.5v2.7h-0.7V117.3z M68,112.5
		c0-0.2,0.2-0.4,0.4-0.4c0.2,0,0.4,0.2,0.4,0.4c0,0.2-0.2,0.4-0.4,0.4C68.2,112.9,68,112.7,68,112.5z M69.9,116.6v-0.7
		c-0.2-0.2-0.6-0.3-1-0.3c-0.5,0-1,0.2-1,0.8c0,0.5,0.3,0.8,0.9,0.8C69.3,117.2,69.7,116.9,69.9,116.6z M69.3,112.5
		c0-0.2,0.2-0.4,0.4-0.4c0.2,0,0.4,0.2,0.4,0.4c0,0.2-0.2,0.4-0.4,0.4C69.5,112.9,69.3,112.7,69.3,112.5z"/>
	<path d="M72,116.8v-2.6h-0.7v-0.6H72v-1.4l0.7-0.3v1.7h1v0.6h-1v2.4c0,0.3,0.1,0.6,0.4,0.6c0.2,0,0.4-0.1,0.6-0.2l-0.1,0.7
		c-0.2,0.1-0.5,0.2-0.8,0.2C72.2,117.8,72,117.4,72,116.8z"/>
	<path d="M74.6,117.2l2.1-3h-2v-0.6h2.8v0.5l-2.1,3h2.1v0.6h-3V117.2z"/>
	<path d="M78.5,115.7c0-1.4,0.7-2.1,1.8-2.1c0.9,0,1.7,0.6,1.7,1.9c0,0.1,0,0.3,0,0.5h-2.8c0.1,0.8,0.5,1.2,1.1,1.2
		c0.3,0,0.6-0.1,0.9-0.4l0.4,0.5c-0.3,0.3-0.8,0.5-1.3,0.5C79.2,117.8,78.5,116.9,78.5,115.7z M81.3,115.3c0-0.9-0.6-1.2-1-1.2
		c-0.6,0-1.1,0.4-1.1,1.2H81.3z"/>
	<path d="M87.4,117.3c-0.3,0.4-0.6,0.5-1,0.5c-1,0-1.5-0.5-1.5-1.8v-2.4h0.7v2.5c0,0.8,0.4,1.1,0.9,1.1c0.5,0,0.9-0.3,0.9-1.1v-2.5
		h0.7v4.1h-0.7V117.3z"/>
	<path d="M92,115.2c0-0.8-0.4-1.1-0.9-1.1c-0.5,0-0.9,0.3-0.9,1.1v2.5h-0.7v-4.1h0.7v0.4c0.3-0.4,0.6-0.5,1.1-0.5
		c0.9,0,1.5,0.5,1.5,1.8v2.4H92V115.2z"/>
	<path d="M93.7,115.7c0-1.3,0.7-2.1,1.7-2.1c0.5,0,0.8,0.2,1,0.4v-1.6l0.7-0.3v5.8h-0.7v-0.3c-0.2,0.2-0.5,0.4-1,0.4
		C94.3,117.8,93.7,117,93.7,115.7z M96.4,116.6v-1.9c-0.2-0.2-0.5-0.5-0.9-0.5c-0.7,0-1.1,0.5-1.1,1.5c0,0.8,0.4,1.5,1.1,1.5
		C95.9,117.1,96.2,116.9,96.4,116.6z"/>
	<path d="M100.3,115h1.9v0.7h-1.9V115z"/>
</g>
<g class="st1">
	<path d="M104.4,117.7h-0.7v-3.5h-0.6v-0.6h0.6v-0.7c0-0.7,0.4-0.9,0.9-0.9c0.3,0,0.6,0.1,0.8,0.2v0.6c-0.2-0.1-0.4-0.2-0.6-0.2
		c-0.3,0-0.4,0.2-0.4,0.4v0.6h1v0.6h-1V117.7z"/>
</g>
<g class="st1">
	<path d="M105.8,115.7c0-1.3,0.7-2.1,1.8-2.1c1.1,0,1.8,0.8,1.8,2.1c0,1.3-0.7,2.1-1.8,2.1C106.5,117.8,105.8,117,105.8,115.7z
		 M108.7,115.7c0-0.9-0.4-1.5-1.1-1.5c-0.7,0-1.1,0.6-1.1,1.5c0,0.9,0.4,1.5,1.1,1.5C108.3,117.1,108.7,116.6,108.7,115.7z"/>
	<path d="M110.5,113.6h0.7v0.5c0.2-0.4,0.6-0.6,1-0.6c0.2,0,0.4,0.1,0.6,0.2l-0.1,0.7c-0.1-0.1-0.3-0.2-0.6-0.2
		c-0.4,0-0.9,0.3-0.9,1.2v2.3h-0.7V113.6z"/>
	<path d="M118.5,115.2c0-0.6-0.2-1.1-0.8-1.1c-0.5,0-0.9,0.4-0.9,1.1v2.5h-0.7v-2.5c0-0.6-0.2-1.1-0.8-1.1c-0.5,0-0.9,0.4-0.9,1.1
		v2.5h-0.7v-4.1h0.7v0.4c0.2-0.3,0.6-0.5,1.1-0.5c0.4,0,0.9,0.2,1.1,0.6c0.2-0.4,0.7-0.6,1.2-0.6c0.8,0,1.4,0.5,1.4,1.5v2.7h-0.7
		V115.2z"/>
	<path d="M122.8,117.3c-0.3,0.3-0.7,0.5-1.2,0.5c-0.8,0-1.4-0.5-1.4-1.4c0-0.9,0.7-1.4,1.5-1.4c0.4,0,0.7,0.1,1.1,0.3V115
		c0-0.7-0.4-0.9-0.9-0.9c-0.5,0-0.9,0.2-1.2,0.4l-0.2-0.6c0.3-0.2,0.9-0.4,1.5-0.4c0.6,0,1.5,0.2,1.5,1.5v2.7h-0.7V117.3z
		 M122.8,116.6v-0.7c-0.2-0.2-0.6-0.3-1-0.3c-0.5,0-1,0.2-1,0.8c0,0.5,0.3,0.8,0.9,0.8C122.2,117.2,122.6,116.9,122.8,116.6z"/>
</g>
<g class="st1">
	<path d="M124.9,116.8v-2.6h-0.7v-0.6h0.7v-1.4l0.7-0.3v1.7h1v0.6h-1v2.4c0,0.3,0.1,0.6,0.4,0.6c0.2,0,0.4-0.1,0.6-0.2l-0.1,0.7
		c-0.2,0.1-0.5,0.2-0.8,0.2C125.1,117.8,124.9,117.4,124.9,116.8z"/>
</g>
<g class="st1">
	<path d="M127.3,115.7c0-1.4,0.7-2.1,1.8-2.1c0.9,0,1.7,0.6,1.7,1.9c0,0.1,0,0.3,0,0.5H128c0.1,0.8,0.5,1.2,1.1,1.2
		c0.3,0,0.6-0.1,0.9-0.4l0.4,0.5c-0.3,0.3-0.8,0.5-1.3,0.5C128,117.8,127.3,116.9,127.3,115.7z M130.1,115.3c0-0.9-0.6-1.2-1-1.2
		c-0.6,0-1.1,0.4-1.1,1.2H130.1z"/>
</g>
<g>
	<path class="st4" d="M3.5,159.7c1.4,0,2.6-1.2,2.6-2.6c0-1.4-1.2-2.6-2.6-2.6s-2.6,1.2-2.6,2.6C0.9,158.5,2.1,159.7,3.5,159.7"/>
</g>
<g class="st1">
	<path d="M10.6,154.1h2.1c1.4,0,1.8,0.8,1.8,1.7c0,0.8-0.5,1.7-1.8,1.7h-1.4v2.2h-0.7V154.1z M13.8,155.8c0-0.4-0.2-1-1.1-1h-1.5
		v2.1h1.5C13.6,156.8,13.8,156.3,13.8,155.8z"/>
	<path d="M15.5,155.6h0.7v0.5c0.2-0.4,0.6-0.6,1-0.6c0.2,0,0.4,0.1,0.6,0.2l-0.1,0.7c-0.1-0.1-0.3-0.2-0.6-0.2
		c-0.4,0-0.9,0.3-0.9,1.2v2.3h-0.7V155.6z"/>
	<path d="M18.4,157.7c0-1.3,0.7-2.1,1.8-2.1c1.1,0,1.8,0.8,1.8,2.1c0,1.3-0.7,2.1-1.8,2.1C19.1,159.8,18.4,159,18.4,157.7z
		 M21.3,157.7c0-0.9-0.4-1.5-1.1-1.5c-0.7,0-1.1,0.6-1.1,1.5c0,0.9,0.4,1.5,1.1,1.5C20.9,159.1,21.3,158.6,21.3,157.7z"/>
	<path d="M22.1,160.9c0.8-0.1,1-0.4,1-0.9v-4.4h0.7v4.1c0,0.4-0.1,0.8-0.3,1.1c-0.3,0.4-0.7,0.5-1.1,0.6L22.1,160.9z M23,154.4
		c0-0.2,0.2-0.4,0.4-0.4s0.4,0.2,0.4,0.4c0,0.2-0.2,0.4-0.4,0.4S23,154.7,23,154.4z"/>
	<path d="M24.9,157.7c0-1.4,0.7-2.1,1.8-2.1c0.9,0,1.7,0.6,1.7,1.9c0,0.1,0,0.3,0,0.5h-2.8c0.1,0.8,0.5,1.2,1.1,1.2
		c0.3,0,0.6-0.1,0.9-0.4l0.4,0.5c-0.3,0.3-0.8,0.5-1.3,0.5C25.6,159.8,24.9,158.9,24.9,157.7z M27.7,157.3c0-0.9-0.6-1.2-1-1.2
		c-0.6,0-1.1,0.4-1.1,1.2H27.7z"/>
</g>
<g class="st1">
	<path d="M32,159.7l-1.3-2.5l-0.6,0.6v1.8h-0.7v-5.4l0.7-0.3v3.1l1.3-1.4h0.8l-1.1,1.1l1.5,3H32z"/>
</g>
<g class="st1">
	<path d="M33.9,158.8v-2.6h-0.7v-0.6h0.7v-1.4l0.7-0.3v1.7h1v0.6h-1v2.4c0,0.3,0.1,0.6,0.4,0.6c0.2,0,0.4-0.1,0.6-0.2l-0.1,0.7
		c-0.2,0.1-0.5,0.2-0.8,0.2C34.1,159.8,33.9,159.4,33.9,158.8z"/>
	<path d="M41.4,157.2c0-0.6-0.2-1.1-0.8-1.1c-0.5,0-0.9,0.4-0.9,1.1v2.5H39v-2.5c0-0.6-0.2-1.1-0.8-1.1c-0.5,0-0.9,0.4-0.9,1.1v2.5
		h-0.7v-4.1h0.7v0.4c0.2-0.3,0.6-0.5,1.1-0.5c0.4,0,0.9,0.2,1.1,0.6c0.2-0.4,0.7-0.6,1.2-0.6c0.8,0,1.4,0.5,1.4,1.5v2.7h-0.7V157.2z
		"/>
	<path d="M45.8,159.3c-0.3,0.3-0.7,0.5-1.2,0.5c-0.8,0-1.4-0.5-1.4-1.4c0-0.9,0.7-1.4,1.5-1.4c0.4,0,0.7,0.1,1.1,0.3V157
		c0-0.7-0.4-0.9-0.9-0.9c-0.5,0-0.9,0.2-1.2,0.4l-0.2-0.6c0.3-0.2,0.9-0.4,1.5-0.4c0.6,0,1.5,0.2,1.5,1.5v2.7h-0.7V159.3z
		 M45.8,158.6v-0.7c-0.2-0.2-0.6-0.3-1-0.3c-0.5,0-1,0.2-1,0.8c0,0.5,0.3,0.8,0.9,0.8C45.2,159.2,45.5,158.9,45.8,158.6z"/>
	<path d="M50.1,157.2c0-0.8-0.4-1.1-0.9-1.1c-0.5,0-0.9,0.3-0.9,1.1v2.5h-0.7v-4.1h0.7v0.4c0.3-0.4,0.6-0.5,1.1-0.5
		c0.9,0,1.5,0.5,1.5,1.8v2.4h-0.7V157.2z"/>
	<path d="M54.5,159.3c-0.3,0.3-0.7,0.5-1.2,0.5c-0.8,0-1.4-0.5-1.4-1.4c0-0.9,0.7-1.4,1.5-1.4c0.4,0,0.7,0.1,1.1,0.3V157
		c0-0.7-0.4-0.9-0.9-0.9c-0.5,0-0.9,0.2-1.2,0.4l-0.2-0.6c0.3-0.2,0.9-0.4,1.5-0.4c0.6,0,1.5,0.2,1.5,1.5v2.7h-0.7V159.3z
		 M54.5,158.6v-0.7c-0.2-0.2-0.6-0.3-1-0.3c-0.5,0-1,0.2-1,0.8c0,0.5,0.3,0.8,0.9,0.8C53.9,159.2,54.2,158.9,54.5,158.6z"/>
	<path d="M57.2,160.8c1.3-0.1,1.6-0.5,1.6-1v-0.5c-0.2,0.3-0.6,0.5-1.1,0.5c-0.9,0-1.7-0.7-1.7-2.1c0-1.3,0.7-2.1,1.7-2.1
		c0.6,0,0.9,0.3,1,0.4v-0.3h0.7v3.9c0,1.3-0.8,1.8-1.9,1.8L57.2,160.8z M58.8,158.6v-1.9c-0.2-0.3-0.6-0.5-0.9-0.5
		c-0.7,0-1.1,0.5-1.1,1.5c0,0.9,0.5,1.5,1.1,1.5C58.2,159.1,58.6,158.9,58.8,158.6z"/>
	<path d="M60.6,157.7c0-1.4,0.7-2.1,1.8-2.1c0.9,0,1.7,0.6,1.7,1.9c0,0.1,0,0.3,0,0.5h-2.8c0.1,0.8,0.5,1.2,1.1,1.2
		c0.3,0,0.6-0.1,0.9-0.4l0.4,0.5c-0.3,0.3-0.8,0.5-1.3,0.5C61.3,159.8,60.6,158.9,60.6,157.7z M63.4,157.3c0-0.9-0.6-1.2-1-1.2
		c-0.6,0-1.1,0.4-1.1,1.2H63.4z"/>
	<path d="M69.9,157.2c0-0.6-0.2-1.1-0.8-1.1c-0.5,0-0.9,0.4-0.9,1.1v2.5h-0.7v-2.5c0-0.6-0.2-1.1-0.8-1.1c-0.5,0-0.9,0.4-0.9,1.1
		v2.5h-0.7v-4.1h0.7v0.4c0.2-0.3,0.6-0.5,1.1-0.5c0.4,0,0.9,0.2,1.1,0.6c0.2-0.4,0.7-0.6,1.2-0.6c0.8,0,1.4,0.5,1.4,1.5v2.7h-0.7
		V157.2z"/>
	<path d="M71.7,157.7c0-1.4,0.7-2.1,1.8-2.1c0.9,0,1.7,0.6,1.7,1.9c0,0.1,0,0.3,0,0.5h-2.8c0.1,0.8,0.5,1.2,1.1,1.2
		c0.3,0,0.6-0.1,0.9-0.4l0.4,0.5c-0.3,0.3-0.8,0.5-1.3,0.5C72.4,159.8,71.7,158.9,71.7,157.7z M74.5,157.3c0-0.9-0.6-1.2-1-1.2
		c-0.6,0-1.1,0.4-1.1,1.2H74.5z"/>
	<path d="M78.7,157.2c0-0.8-0.4-1.1-0.9-1.1c-0.5,0-0.9,0.3-0.9,1.1v2.5h-0.7v-4.1h0.7v0.4c0.3-0.4,0.6-0.5,1.1-0.5
		c0.9,0,1.5,0.5,1.5,1.8v2.4h-0.7V157.2z"/>
	<path d="M81,158.8v-2.6h-0.7v-0.6H81v-1.4l0.7-0.3v1.7h1v0.6h-1v2.4c0,0.3,0.1,0.6,0.4,0.6c0.2,0,0.4-0.1,0.6-0.2l-0.1,0.7
		c-0.2,0.1-0.5,0.2-0.8,0.2C81.2,159.8,81,159.4,81,158.8z"/>
</g>
<g>
	<path class="st4" d="M2.8,201.7c1.4,0,2.6-1.2,2.6-2.6c0-1.4-1.2-2.6-2.6-2.6s-2.6,1.2-2.6,2.6C0.2,200.5,1.4,201.7,2.8,201.7"/>
</g>
<g class="st1">
	<path d="M9.9,196.1H12c1.4,0,1.8,0.8,1.8,1.7c0,0.8-0.5,1.7-1.8,1.7h-1.4v2.2H9.9V196.1z M13.1,197.8c0-0.4-0.2-1-1.1-1h-1.5v2.1
		h1.5C12.8,198.8,13.1,198.3,13.1,197.8z"/>
	<path d="M14.8,197.6h0.7v0.5c0.2-0.4,0.6-0.6,1-0.6c0.2,0,0.4,0.1,0.6,0.2l-0.1,0.7c-0.1-0.1-0.3-0.2-0.6-0.2
		c-0.4,0-0.9,0.3-0.9,1.2v2.3h-0.7V197.6z"/>
	<path d="M17.7,199.7c0-1.3,0.7-2.1,1.8-2.1c1.1,0,1.8,0.8,1.8,2.1c0,1.3-0.7,2.1-1.8,2.1C18.4,201.8,17.7,201,17.7,199.7z
		 M20.6,199.7c0-0.9-0.4-1.5-1.1-1.5c-0.7,0-1.1,0.6-1.1,1.5c0,0.9,0.4,1.5,1.1,1.5C20.2,201.1,20.6,200.6,20.6,199.7z"/>
	<path d="M23.3,202.8c1.3-0.1,1.6-0.5,1.6-1v-0.5c-0.2,0.3-0.6,0.5-1.1,0.5c-0.9,0-1.7-0.7-1.7-2.1c0-1.3,0.7-2.1,1.7-2.1
		c0.6,0,0.9,0.3,1,0.4v-0.3h0.7v3.9c0,1.3-0.8,1.8-1.9,1.8L23.3,202.8z M24.9,200.6v-1.9c-0.2-0.3-0.6-0.5-0.9-0.5
		c-0.7,0-1.1,0.5-1.1,1.5c0,0.9,0.5,1.5,1.1,1.5C24.3,201.1,24.7,200.9,24.9,200.6z"/>
</g>
<g class="st1">
	<path d="M26.9,197.6h0.7v0.5c0.2-0.4,0.6-0.6,1-0.6c0.2,0,0.4,0.1,0.6,0.2l-0.1,0.7c-0.1-0.1-0.3-0.2-0.6-0.2
		c-0.4,0-0.9,0.3-0.9,1.2v2.3h-0.7V197.6z"/>
</g>
<g class="st1">
	<path d="M32.2,201.3c-0.3,0.3-0.7,0.5-1.2,0.5c-0.8,0-1.4-0.5-1.4-1.4c0-0.9,0.7-1.4,1.5-1.4c0.4,0,0.7,0.1,1.1,0.3V199
		c0-0.7-0.4-0.9-0.9-0.9c-0.5,0-0.9,0.2-1.2,0.4l-0.2-0.6c0.3-0.2,0.9-0.4,1.5-0.4c0.6,0,1.5,0.2,1.5,1.5v2.7h-0.7V201.3z
		 M32.2,200.6v-0.7c-0.2-0.2-0.6-0.3-1-0.3c-0.5,0-1,0.2-1,0.8c0,0.5,0.3,0.8,0.9,0.8C31.6,201.2,32,200.9,32.2,200.6z"/>
	<path d="M38.9,199.2c0-0.6-0.2-1.1-0.8-1.1c-0.5,0-0.9,0.4-0.9,1.1v2.5h-0.7v-2.5c0-0.6-0.2-1.1-0.8-1.1c-0.5,0-0.9,0.4-0.9,1.1
		v2.5h-0.7v-4.1h0.7v0.4c0.2-0.3,0.6-0.5,1.1-0.5c0.4,0,0.9,0.2,1.1,0.6c0.2-0.4,0.7-0.6,1.2-0.6c0.8,0,1.4,0.5,1.4,1.5v2.7h-0.7
		V199.2z"/>
	<path d="M45.7,199.2c0-0.6-0.2-1.1-0.8-1.1c-0.5,0-0.9,0.4-0.9,1.1v2.5h-0.7v-2.5c0-0.6-0.2-1.1-0.8-1.1c-0.5,0-0.9,0.4-0.9,1.1
		v2.5h-0.7v-4.1h0.7v0.4c0.2-0.3,0.6-0.5,1.1-0.5c0.4,0,0.9,0.2,1.1,0.6c0.2-0.4,0.7-0.6,1.2-0.6c0.8,0,1.4,0.5,1.4,1.5v2.7h-0.7
		V199.2z"/>
	<path d="M47.6,196.4c0-0.2,0.2-0.4,0.4-0.4c0.2,0,0.4,0.2,0.4,0.4c0,0.2-0.2,0.4-0.4,0.4C47.8,196.9,47.6,196.7,47.6,196.4z
		 M47.7,197.6h0.7v4.1h-0.7V197.6z"/>
	<path d="M49.4,199.7c0-1.4,0.7-2.1,1.8-2.1c0.9,0,1.7,0.6,1.7,1.9c0,0.1,0,0.3,0,0.5h-2.8c0.1,0.8,0.5,1.2,1.1,1.2
		c0.3,0,0.6-0.1,0.9-0.4l0.4,0.5c-0.3,0.3-0.8,0.5-1.3,0.5C50.1,201.8,49.4,200.9,49.4,199.7z M52.2,199.3c0-0.9-0.6-1.2-1-1.2
		c-0.6,0-1.1,0.4-1.1,1.2H52.2z"/>
	<path d="M54,197.6h0.7v0.5c0.2-0.4,0.6-0.6,1-0.6c0.2,0,0.4,0.1,0.6,0.2l-0.1,0.7c-0.1-0.1-0.3-0.2-0.6-0.2c-0.4,0-0.9,0.3-0.9,1.2
		v2.3H54V197.6z"/>
	<path d="M56.9,199.7c0-1.4,0.7-2.1,1.8-2.1c0.9,0,1.7,0.6,1.7,1.9c0,0.1,0,0.3,0,0.5h-2.8c0.1,0.8,0.5,1.2,1.1,1.2
		c0.3,0,0.6-0.1,0.9-0.4l0.4,0.5c-0.3,0.3-0.8,0.5-1.3,0.5C57.6,201.8,56.9,200.9,56.9,199.7z M59.7,199.3c0-0.9-0.6-1.2-1-1.2
		c-0.6,0-1.1,0.4-1.1,1.2H59.7z"/>
	<path d="M64,199.2c0-0.8-0.4-1.1-0.9-1.1c-0.5,0-0.9,0.3-0.9,1.1v2.5h-0.7v-4.1h0.7v0.4c0.3-0.4,0.6-0.5,1.1-0.5
		c0.9,0,1.5,0.5,1.5,1.8v2.4H64V199.2z"/>
	<path d="M70.2,196h0.7l-3.1,6.7h-0.7L70.2,196z"/>
	<path d="M73.4,198.9c0-1.4,0.7-2.9,2.3-2.9c1,0,1.6,0.5,1.8,1l-0.6,0.3c-0.3-0.4-0.6-0.7-1.2-0.7c-1.2,0-1.6,1.2-1.6,2.2
		c0,1.1,0.5,2.2,1.6,2.2c0.6,0,1-0.3,1.2-0.7l0.6,0.2c-0.3,0.6-0.9,1.1-1.9,1.1C74.1,201.8,73.4,200.3,73.4,198.9z"/>
	<path d="M78.5,199.7c0-1.3,0.7-2.1,1.8-2.1c1.1,0,1.8,0.8,1.8,2.1c0,1.3-0.7,2.1-1.8,2.1C79.2,201.8,78.5,201,78.5,199.7z
		 M81.4,199.7c0-0.9-0.4-1.5-1.1-1.5c-0.7,0-1.1,0.6-1.1,1.5c0,0.9,0.4,1.5,1.1,1.5C81,201.1,81.4,200.6,81.4,199.7z"/>
	<path d="M82.9,199.7c0-1.3,0.7-2.1,1.7-2.1c0.5,0,0.8,0.2,1,0.4v-1.6l0.7-0.3v5.8h-0.7v-0.3c-0.2,0.2-0.5,0.4-1,0.4
		C83.6,201.8,82.9,201,82.9,199.7z M85.7,200.6v-1.9c-0.2-0.2-0.5-0.5-0.9-0.5c-0.7,0-1.1,0.5-1.1,1.5c0,0.8,0.4,1.5,1.1,1.5
		C85.1,201.1,85.5,200.9,85.7,200.6z"/>
	<path d="M87.6,196.4c0-0.2,0.2-0.4,0.4-0.4c0.2,0,0.4,0.2,0.4,0.4c0,0.2-0.2,0.4-0.4,0.4C87.8,196.9,87.6,196.7,87.6,196.4z
		 M87.7,197.6h0.7v4.1h-0.7V197.6z"/>
	<path d="M92.2,199.2c0-0.8-0.4-1.1-0.9-1.1c-0.5,0-0.9,0.3-0.9,1.1v2.5h-0.7v-4.1h0.7v0.4c0.3-0.4,0.6-0.5,1.1-0.5
		c0.9,0,1.5,0.5,1.5,1.8v2.4h-0.7V199.2z"/>
	<path d="M95.1,202.8c1.3-0.1,1.6-0.5,1.6-1v-0.5c-0.2,0.3-0.6,0.5-1.1,0.5c-0.9,0-1.7-0.7-1.7-2.1c0-1.3,0.7-2.1,1.7-2.1
		c0.6,0,0.9,0.3,1,0.4v-0.3h0.7v3.9c0,1.3-0.8,1.8-1.9,1.8L95.1,202.8z M96.7,200.6v-1.9c-0.2-0.3-0.6-0.5-0.9-0.5
		c-0.7,0-1.1,0.5-1.1,1.5c0,0.9,0.5,1.5,1.1,1.5C96.1,201.1,96.5,200.9,96.7,200.6z"/>
</g>
<g>
	<path class="st4" d="M2.8,243.7c1.4,0,2.6-1.2,2.6-2.6s-1.2-2.6-2.6-2.6s-2.6,1.2-2.6,2.6C0.2,242.5,1.4,243.7,2.8,243.7"/>
</g>
<g class="st1">
	<path d="M9.9,238.1H12c1.4,0,1.8,0.8,1.8,1.7c0,0.8-0.5,1.7-1.8,1.7h-1.4v2.2H9.9V238.1z M13.1,239.8c0-0.4-0.2-1-1.1-1h-1.5v2.1
		h1.5C12.8,240.8,13.1,240.3,13.1,239.8z"/>
	<path d="M14.8,239.6h0.7v0.5c0.2-0.4,0.6-0.6,1-0.6c0.2,0,0.4,0.1,0.6,0.2l-0.1,0.7c-0.1-0.1-0.3-0.2-0.6-0.2
		c-0.4,0-0.9,0.3-0.9,1.2v2.3h-0.7V239.6z"/>
	<path d="M17.7,241.7c0-1.3,0.7-2.1,1.8-2.1c1.1,0,1.8,0.8,1.8,2.1c0,1.3-0.7,2.1-1.8,2.1C18.4,243.8,17.7,243,17.7,241.7z
		 M20.6,241.7c0-0.9-0.4-1.5-1.1-1.5c-0.7,0-1.1,0.6-1.1,1.5c0,0.9,0.4,1.5,1.1,1.5C20.2,243.1,20.6,242.6,20.6,241.7z"/>
	<path d="M22.2,243.2l2.1-3h-2v-0.6h2.8v0.5l-2.1,3h2.1v0.6h-3V243.2z"/>
	<path d="M26.2,241.7c0-1.4,0.7-2.1,1.8-2.1c0.9,0,1.7,0.6,1.7,1.9c0,0.1,0,0.3,0,0.5h-2.8c0.1,0.8,0.5,1.2,1.1,1.2
		c0.3,0,0.6-0.1,0.9-0.4l0.4,0.5c-0.3,0.3-0.8,0.5-1.3,0.5C26.9,243.8,26.2,242.9,26.2,241.7z M29,241.3c0-0.9-0.6-1.2-1-1.2
		c-0.6,0-1.1,0.4-1.1,1.2H29z"/>
	<path d="M30.5,243.1l0.5-0.4c0.2,0.2,0.6,0.5,1,0.5c0.4,0,0.8-0.2,0.8-0.5c0-0.4-0.5-0.6-0.9-0.8c-0.8-0.3-1.3-0.6-1.3-1.3
		c0-0.7,0.6-1.1,1.4-1.1c0.6,0,1.1,0.3,1.4,0.6l-0.5,0.4c-0.2-0.2-0.5-0.4-0.9-0.4c-0.4,0-0.7,0.2-0.7,0.5c0,0.3,0.4,0.5,0.9,0.7
		c0.7,0.3,1.3,0.6,1.3,1.4c0,0.7-0.6,1.2-1.5,1.2C31.4,243.8,30.8,243.5,30.5,243.1z"/>
	<path d="M34.2,243.1l0.5-0.4c0.2,0.2,0.6,0.5,1,0.5c0.4,0,0.8-0.2,0.8-0.5c0-0.4-0.5-0.6-0.9-0.8c-0.8-0.3-1.3-0.6-1.3-1.3
		c0-0.7,0.6-1.1,1.4-1.1c0.6,0,1.1,0.3,1.4,0.6l-0.5,0.4c-0.2-0.2-0.5-0.4-0.9-0.4c-0.4,0-0.7,0.2-0.7,0.5c0,0.3,0.4,0.5,0.9,0.7
		c0.7,0.3,1.3,0.6,1.3,1.4c0,0.7-0.6,1.2-1.5,1.2C35.1,243.8,34.5,243.5,34.2,243.1z"/>
	<path d="M38,241.7c0-1.3,0.7-2.1,1.8-2.1c1.1,0,1.8,0.8,1.8,2.1c0,1.3-0.7,2.1-1.8,2.1C38.7,243.8,38,243,38,241.7z M40.9,241.7
		c0-0.9-0.4-1.5-1.1-1.5c-0.7,0-1.1,0.6-1.1,1.5c0,0.9,0.4,1.5,1.1,1.5C40.5,243.1,40.9,242.6,40.9,241.7z"/>
	<path d="M43.4,243.3v1.7l-0.7,0.3v-5.7h0.7v0.3c0.2-0.2,0.5-0.4,1-0.4c1,0,1.7,0.8,1.7,2.1c0,1.4-0.7,2.1-1.7,2.1
		C43.9,243.8,43.6,243.6,43.4,243.3z M45.4,241.7c0-0.9-0.4-1.5-1.1-1.5c-0.4,0-0.8,0.2-1,0.6v1.9c0.2,0.3,0.5,0.6,1,0.6
		C45.1,243.1,45.4,242.6,45.4,241.7z"/>
	<path d="M47.5,242.8v-2.6h-0.7v-0.6h0.7v-1.4l0.7-0.3v1.7h1v0.6h-1v2.4c0,0.3,0.1,0.6,0.4,0.6c0.2,0,0.4-0.1,0.6-0.2l-0.1,0.7
		c-0.2,0.1-0.5,0.2-0.8,0.2C47.7,243.8,47.5,243.4,47.5,242.8z"/>
	<path d="M50.1,238.4c0-0.2,0.2-0.4,0.4-0.4c0.2,0,0.4,0.2,0.4,0.4c0,0.2-0.2,0.4-0.4,0.4C50.3,238.9,50.1,238.7,50.1,238.4z
		 M50.2,239.6h0.7v4.1h-0.7V239.6z"/>
	<path d="M57,241.2c0-0.6-0.2-1.1-0.8-1.1c-0.5,0-0.9,0.4-0.9,1.1v2.5h-0.7v-2.5c0-0.6-0.2-1.1-0.8-1.1c-0.5,0-0.9,0.4-0.9,1.1v2.5
		h-0.7v-4.1h0.7v0.4c0.2-0.3,0.6-0.5,1.1-0.5c0.4,0,0.9,0.2,1.1,0.6c0.2-0.4,0.7-0.6,1.2-0.6c0.8,0,1.4,0.5,1.4,1.5v2.7H57V241.2z"
		/>
	<path d="M58.9,238.4c0-0.2,0.2-0.4,0.4-0.4c0.2,0,0.4,0.2,0.4,0.4c0,0.2-0.2,0.4-0.4,0.4C59.1,238.9,58.9,238.7,58.9,238.4z
		 M59,239.6h0.7v4.1H59V239.6z"/>
	<path d="M60.8,241.7c0-1.4,0.7-2.1,1.8-2.1c0.9,0,1.7,0.6,1.7,1.9c0,0.1,0,0.3,0,0.5h-2.8c0.1,0.8,0.5,1.2,1.1,1.2
		c0.3,0,0.6-0.1,0.9-0.4l0.4,0.5c-0.3,0.3-0.8,0.5-1.3,0.5C61.5,243.8,60.8,242.9,60.8,241.7z M63.6,241.3c0-0.9-0.6-1.2-1-1.2
		c-0.6,0-1.1,0.4-1.1,1.2H63.6z"/>
</g>
<g class="st1">
	<path d="M65.3,239.6H66v0.5c0.2-0.4,0.6-0.6,1-0.6c0.2,0,0.4,0.1,0.6,0.2l-0.1,0.7c-0.1-0.1-0.3-0.2-0.6-0.2
		c-0.4,0-0.9,0.3-0.9,1.2v2.3h-0.7V239.6z"/>
</g>
<g class="st1">
	<path d="M70.9,243.3c-0.3,0.4-0.6,0.5-1,0.5c-1,0-1.5-0.5-1.5-1.8v-2.4h0.7v2.5c0,0.8,0.4,1.1,0.9,1.1c0.5,0,0.9-0.3,0.9-1.1v-2.5
		h0.7v4.1h-0.7V243.3z"/>
	<path d="M75.5,241.2c0-0.8-0.4-1.1-0.9-1.1c-0.5,0-0.9,0.3-0.9,1.1v2.5h-0.7v-4.1h0.7v0.4c0.3-0.4,0.6-0.5,1.1-0.5
		c0.9,0,1.5,0.5,1.5,1.8v2.4h-0.7V241.2z"/>
	<path d="M78.4,244.8c1.3-0.1,1.6-0.5,1.6-1v-0.5c-0.2,0.3-0.6,0.5-1.1,0.5c-0.9,0-1.7-0.7-1.7-2.1c0-1.3,0.7-2.1,1.7-2.1
		c0.6,0,0.9,0.3,1,0.4v-0.3h0.7v3.9c0,1.3-0.8,1.8-1.9,1.8L78.4,244.8z M79.9,242.6v-1.9c-0.2-0.3-0.6-0.5-0.9-0.5
		c-0.7,0-1.1,0.5-1.1,1.5c0,0.9,0.5,1.5,1.1,1.5C79.4,243.1,79.7,242.9,79.9,242.6z"/>
</g>
<g>
	<path class="st4" d="M2.8,285.7c1.4,0,2.6-1.2,2.6-2.6s-1.2-2.6-2.6-2.6s-2.6,1.2-2.6,2.6C0.2,284.5,1.4,285.7,2.8,285.7"/>
</g>
<g class="st1">
	<path d="M9.5,284.5l0.7-0.2c0.2,0.5,0.7,0.8,1.3,0.8c0.7,0,1.1-0.3,1.1-0.9c0-0.6-0.6-0.9-1.3-1.2c-0.8-0.3-1.6-0.6-1.6-1.6
		c0-0.8,0.6-1.4,1.7-1.4c0.9,0,1.5,0.4,1.6,1l-0.6,0.2c-0.1-0.3-0.5-0.6-1-0.6c-0.6,0-1,0.3-1,0.7c0,0.5,0.6,0.8,1.2,1
		c0.8,0.3,1.7,0.7,1.7,1.8c0,1-0.8,1.6-1.8,1.6C10.5,285.8,9.8,285.3,9.5,284.5z"/>
	<path d="M14.3,283.7c0-1.3,0.7-2.1,1.8-2.1c1.1,0,1.8,0.8,1.8,2.1c0,1.3-0.7,2.1-1.8,2.1C15,285.8,14.3,285,14.3,283.7z
		 M17.2,283.7c0-0.9-0.4-1.5-1.1-1.5c-0.7,0-1.1,0.6-1.1,1.5c0,0.9,0.4,1.5,1.1,1.5C16.8,285.1,17.2,284.6,17.2,283.7z"/>
	<path d="M18.8,283.7c0-1.3,0.7-2.1,1.7-2.1c0.7,0,1.2,0.3,1.4,1l-0.7,0.2c-0.1-0.3-0.4-0.5-0.8-0.5c-0.7,0-1,0.6-1,1.5
		c0,0.9,0.3,1.5,1,1.5c0.4,0,0.7-0.2,0.8-0.6l0.6,0.2c-0.2,0.7-0.7,1-1.5,1C19.4,285.8,18.8,285,18.8,283.7z"/>
	<path d="M22.9,280.4c0-0.2,0.2-0.4,0.4-0.4c0.2,0,0.4,0.2,0.4,0.4c0,0.2-0.2,0.4-0.4,0.4C23.1,280.9,22.9,280.7,22.9,280.4z
		 M23,281.6h0.7v4.1H23V281.6z"/>
	<path d="M27.4,285.3c-0.3,0.3-0.7,0.5-1.2,0.5c-0.8,0-1.4-0.5-1.4-1.4c0-0.9,0.7-1.4,1.5-1.4c0.4,0,0.7,0.1,1.1,0.3V283
		c0-0.7-0.4-0.9-0.9-0.9c-0.5,0-0.9,0.2-1.2,0.4l-0.2-0.6c0.3-0.2,0.9-0.4,1.5-0.4c0.6,0,1.5,0.2,1.5,1.5v2.7h-0.7V285.3z
		 M27.4,284.6v-0.7c-0.2-0.2-0.6-0.3-1-0.3c-0.5,0-1,0.2-1,0.8c0,0.5,0.3,0.8,0.9,0.8C26.8,285.2,27.1,284.9,27.4,284.6z"/>
	<path d="M29.3,280.3l0.7-0.3v5.8h-0.7V280.3z"/>
	<path d="M37.5,285.7v-3.4c0-0.2,0-0.5,0-0.6c-0.1,0.2-0.2,0.4-0.2,0.6l-1.5,3.5l-1.5-3.5c-0.1-0.2-0.2-0.4-0.2-0.6
		c0,0.1,0,0.4,0,0.6v3.4h-0.7v-5.6h0.7l1.6,3.8l0.1,0.4c0-0.1,0.1-0.3,0.1-0.4l1.6-3.8h0.7v5.6H37.5z"/>
	<path d="M39.4,283.7c0-1.4,0.7-2.1,1.8-2.1c0.9,0,1.7,0.6,1.7,1.9c0,0.1,0,0.3,0,0.5h-2.8c0.1,0.8,0.5,1.2,1.1,1.2
		c0.3,0,0.6-0.1,0.9-0.4l0.4,0.5c-0.3,0.3-0.8,0.5-1.3,0.5C40.1,285.8,39.4,284.9,39.4,283.7z M42.2,283.3c0-0.9-0.6-1.2-1-1.2
		c-0.6,0-1.1,0.4-1.1,1.2H42.2z"/>
	<path d="M43.7,283.7c0-1.3,0.7-2.1,1.7-2.1c0.5,0,0.8,0.2,1,0.4v-1.6l0.7-0.3v5.8h-0.7v-0.3c-0.2,0.2-0.5,0.4-1,0.4
		C44.3,285.8,43.7,285,43.7,283.7z M46.4,284.6v-1.9c-0.2-0.2-0.5-0.5-0.9-0.5c-0.7,0-1.1,0.5-1.1,1.5c0,0.8,0.4,1.5,1.1,1.5
		C45.8,285.1,46.2,284.9,46.4,284.6z"/>
	<path d="M48.3,280.4c0-0.2,0.2-0.4,0.4-0.4c0.2,0,0.4,0.2,0.4,0.4c0,0.2-0.2,0.4-0.4,0.4C48.5,280.9,48.3,280.7,48.3,280.4z
		 M48.4,281.6h0.7v4.1h-0.7V281.6z"/>
	<path d="M52.8,285.3c-0.3,0.3-0.7,0.5-1.2,0.5c-0.8,0-1.4-0.5-1.4-1.4c0-0.9,0.7-1.4,1.5-1.4c0.4,0,0.7,0.1,1.1,0.3V283
		c0-0.7-0.4-0.9-0.9-0.9c-0.5,0-0.9,0.2-1.2,0.4l-0.2-0.6c0.3-0.2,0.9-0.4,1.5-0.4c0.6,0,1.5,0.2,1.5,1.5v2.7h-0.7V285.3z
		 M52.8,284.6v-0.7c-0.2-0.2-0.6-0.3-1-0.3c-0.5,0-1,0.2-1,0.8c0,0.5,0.3,0.8,0.9,0.8C52.2,285.2,52.5,284.9,52.8,284.6z"/>
</g>
<g>
	<path class="st4" d="M2.8,327.7c1.4,0,2.6-1.2,2.6-2.6s-1.2-2.6-2.6-2.6s-2.6,1.2-2.6,2.6C0.2,326.5,1.4,327.7,2.8,327.7"/>
</g>
<g class="st1">
	<path d="M9.3,322.1H10l0.7,3.6c0,0.2,0.1,0.4,0.1,0.6c0-0.2,0.1-0.3,0.2-0.6l1-3.7h0.6l1,3.6c0.1,0.2,0.1,0.4,0.1,0.5
		c0-0.2,0.1-0.3,0.1-0.6l0.8-3.6h0.7l-1.2,5.6h-0.6l-1.1-3.8c-0.1-0.2-0.1-0.4-0.1-0.6c0,0.2-0.1,0.3-0.1,0.6l-1.1,3.8h-0.6
		L9.3,322.1z"/>
	<path d="M16.2,322.4c0-0.2,0.2-0.4,0.4-0.4c0.2,0,0.4,0.2,0.4,0.4c0,0.2-0.2,0.4-0.4,0.4C16.4,322.9,16.2,322.7,16.2,322.4z
		 M16.3,323.6H17v4.1h-0.7V323.6z"/>
	<path d="M18.1,327.1l0.5-0.4c0.2,0.2,0.6,0.5,1,0.5c0.4,0,0.8-0.2,0.8-0.5c0-0.4-0.5-0.6-0.9-0.8c-0.8-0.3-1.3-0.6-1.3-1.3
		c0-0.7,0.6-1.1,1.4-1.1c0.6,0,1.1,0.3,1.4,0.6l-0.5,0.4c-0.2-0.2-0.5-0.4-0.9-0.4c-0.4,0-0.7,0.2-0.7,0.5c0,0.3,0.4,0.5,0.9,0.7
		c0.7,0.3,1.3,0.6,1.3,1.4c0,0.7-0.6,1.2-1.5,1.2C18.9,327.8,18.4,327.5,18.1,327.1z"/>
	<path d="M21.8,327.1l0.5-0.4c0.2,0.2,0.6,0.5,1,0.5c0.4,0,0.8-0.2,0.8-0.5c0-0.4-0.5-0.6-0.9-0.8c-0.8-0.3-1.3-0.6-1.3-1.3
		c0-0.7,0.6-1.1,1.4-1.1c0.6,0,1.1,0.3,1.4,0.6l-0.5,0.4c-0.2-0.2-0.5-0.4-0.9-0.4c-0.4,0-0.7,0.2-0.7,0.5c0,0.3,0.4,0.5,0.9,0.7
		c0.7,0.3,1.3,0.6,1.3,1.4c0,0.7-0.6,1.2-1.5,1.2C22.7,327.8,22.1,327.5,21.8,327.1z"/>
	<path d="M25.6,325.7c0-1.4,0.7-2.1,1.8-2.1c0.9,0,1.7,0.6,1.7,1.9c0,0.1,0,0.3,0,0.5h-2.8c0.1,0.8,0.5,1.2,1.1,1.2
		c0.3,0,0.6-0.1,0.9-0.4l0.4,0.5c-0.3,0.3-0.8,0.5-1.3,0.5C26.3,327.8,25.6,326.9,25.6,325.7z M28.4,325.3c0-0.9-0.6-1.2-1-1.2
		c-0.6,0-1.1,0.4-1.1,1.2H28.4z"/>
	<path d="M32.7,325.2c0-0.8-0.4-1.1-0.9-1.1c-0.5,0-0.9,0.3-0.9,1.1v2.5h-0.7v-4.1h0.7v0.4c0.3-0.4,0.6-0.5,1.1-0.5
		c0.9,0,1.5,0.5,1.5,1.8v2.4h-0.7V325.2z"/>
	<path d="M34.4,327.1l0.5-0.4c0.2,0.2,0.6,0.5,1,0.5c0.4,0,0.8-0.2,0.8-0.5c0-0.4-0.5-0.6-0.9-0.8c-0.8-0.3-1.3-0.6-1.3-1.3
		c0-0.7,0.6-1.1,1.4-1.1c0.6,0,1.1,0.3,1.4,0.6l-0.5,0.4c-0.2-0.2-0.5-0.4-0.9-0.4c-0.4,0-0.7,0.2-0.7,0.5c0,0.3,0.4,0.5,0.9,0.7
		c0.7,0.3,1.3,0.6,1.3,1.4c0,0.7-0.6,1.2-1.5,1.2C35.3,327.8,34.7,327.5,34.4,327.1z"/>
	<path d="M43.2,325.2c0-0.6-0.2-1.1-0.8-1.1c-0.5,0-0.9,0.4-0.9,1.1v2.5h-0.7v-2.5c0-0.6-0.2-1.1-0.8-1.1c-0.5,0-0.9,0.4-0.9,1.1
		v2.5h-0.7v-4.1h0.7v0.4c0.2-0.3,0.6-0.5,1.1-0.5c0.4,0,0.9,0.2,1.1,0.6c0.2-0.4,0.7-0.6,1.2-0.6c0.8,0,1.4,0.5,1.4,1.5v2.7h-0.7
		V325.2z"/>
	<path d="M47.5,327.3c-0.3,0.3-0.7,0.5-1.2,0.5c-0.8,0-1.4-0.5-1.4-1.4c0-0.9,0.7-1.4,1.5-1.4c0.4,0,0.7,0.1,1.1,0.3V325
		c0-0.7-0.4-0.9-0.9-0.9c-0.5,0-0.9,0.2-1.2,0.4l-0.2-0.6c0.3-0.2,0.9-0.4,1.5-0.4c0.6,0,1.5,0.2,1.5,1.5v2.7h-0.7V327.3z
		 M47.5,326.6v-0.7c-0.2-0.2-0.6-0.3-1-0.3c-0.5,0-1,0.2-1,0.8c0,0.5,0.3,0.8,0.9,0.8C46.9,327.2,47.3,326.9,47.5,326.6z"/>
	<path d="M51.9,325.2c0-0.8-0.4-1.1-0.9-1.1c-0.5,0-0.9,0.3-0.9,1.1v2.5h-0.7v-4.1h0.7v0.4c0.3-0.4,0.6-0.5,1.1-0.5
		c0.9,0,1.5,0.5,1.5,1.8v2.4h-0.7V325.2z"/>
	<path d="M56.2,327.3c-0.3,0.3-0.7,0.5-1.2,0.5c-0.8,0-1.4-0.5-1.4-1.4c0-0.9,0.7-1.4,1.5-1.4c0.4,0,0.7,0.1,1.1,0.3V325
		c0-0.7-0.4-0.9-0.9-0.9c-0.5,0-0.9,0.2-1.2,0.4l-0.2-0.6c0.3-0.2,0.9-0.4,1.5-0.4c0.6,0,1.5,0.2,1.5,1.5v2.7h-0.7V327.3z
		 M56.2,326.6v-0.7c-0.2-0.2-0.6-0.3-1-0.3c-0.5,0-1,0.2-1,0.8c0,0.5,0.3,0.8,0.9,0.8C55.6,327.2,56,326.9,56.2,326.6z"/>
	<path d="M59,328.8c1.3-0.1,1.6-0.5,1.6-1v-0.5c-0.2,0.3-0.6,0.5-1.1,0.5c-0.9,0-1.7-0.7-1.7-2.1c0-1.3,0.7-2.1,1.7-2.1
		c0.6,0,0.9,0.3,1,0.4v-0.3h0.7v3.9c0,1.3-0.8,1.8-1.9,1.8L59,328.8z M60.6,326.6v-1.9c-0.2-0.3-0.6-0.5-0.9-0.5
		c-0.7,0-1.1,0.5-1.1,1.5c0,0.9,0.5,1.5,1.1,1.5C60,327.1,60.4,326.9,60.6,326.6z"/>
	<path d="M62.3,325.7c0-1.4,0.7-2.1,1.8-2.1c0.9,0,1.7,0.6,1.7,1.9c0,0.1,0,0.3,0,0.5h-2.8c0.1,0.8,0.5,1.2,1.1,1.2
		c0.3,0,0.6-0.1,0.9-0.4l0.4,0.5c-0.3,0.3-0.8,0.5-1.3,0.5C63,327.8,62.3,326.9,62.3,325.7z M65.1,325.3c0-0.9-0.6-1.2-1-1.2
		c-0.6,0-1.1,0.4-1.1,1.2H65.1z"/>
	<path d="M71.7,325.2c0-0.6-0.2-1.1-0.8-1.1c-0.5,0-0.9,0.4-0.9,1.1v2.5h-0.7v-2.5c0-0.6-0.2-1.1-0.8-1.1c-0.5,0-0.9,0.4-0.9,1.1
		v2.5h-0.7v-4.1h0.7v0.4c0.2-0.3,0.6-0.5,1.1-0.5c0.4,0,0.9,0.2,1.1,0.6c0.2-0.4,0.7-0.6,1.2-0.6c0.8,0,1.4,0.5,1.4,1.5v2.7h-0.7
		V325.2z"/>
	<path d="M73.4,325.7c0-1.4,0.7-2.1,1.8-2.1c0.9,0,1.7,0.6,1.7,1.9c0,0.1,0,0.3,0,0.5h-2.8c0.1,0.8,0.5,1.2,1.1,1.2
		c0.3,0,0.6-0.1,0.9-0.4l0.4,0.5c-0.3,0.3-0.8,0.5-1.3,0.5C74.1,327.8,73.4,326.9,73.4,325.7z M76.2,325.3c0-0.9-0.6-1.2-1-1.2
		c-0.6,0-1.1,0.4-1.1,1.2H76.2z"/>
	<path d="M80.5,325.2c0-0.8-0.4-1.1-0.9-1.1c-0.5,0-0.9,0.3-0.9,1.1v2.5H78v-4.1h0.7v0.4c0.3-0.4,0.6-0.5,1.1-0.5
		c0.9,0,1.5,0.5,1.5,1.8v2.4h-0.7V325.2z"/>
	<path d="M82.7,326.8v-2.6H82v-0.6h0.7v-1.4l0.7-0.3v1.7h1v0.6h-1v2.4c0,0.3,0.1,0.6,0.4,0.6c0.2,0,0.4-0.1,0.6-0.2l-0.1,0.7
		c-0.2,0.1-0.5,0.2-0.8,0.2C83,327.8,82.7,327.4,82.7,326.8z"/>
</g>
<line class="st0" x1="0" y1="19.1" x2="357.2" y2="19.1"/>
<line class="st0" x1="0" y1="60.7" x2="357.2" y2="60.7"/>
<line class="st0" x1="0" y1="102.7" x2="357.2" y2="102.7"/>
<line class="st0" x1="0" y1="144.3" x2="357.2" y2="144.3"/>
<line class="st0" x1="0" y1="187.4" x2="357.2" y2="187.4"/>
<line class="st0" x1="0" y1="227.9" x2="357.2" y2="227.9"/>
<line class="st0" x1="0" y1="270.1" x2="357.2" y2="270.1"/>
<line class="st0" x1="0" y1="312.4" x2="357.2" y2="312.4"/>
<line class="st0" x1="0" y1="354.8" x2="357.2" y2="354.8"/>
<rect x="185.8" y="24.7" width="5.6" height="6.5"/>
<rect x="186.1" y="33.1" class="st0" width="46.7" height="6"/>
<rect x="186.1" y="41.1" class="st5" width="146.1" height="6"/>
<rect x="185.8" y="49" class="st4" width="100.2" height="6.5"/>
<rect x="185.8" y="66.3" width="5.2" height="6.5"/>
<rect x="186.1" y="74.6" class="st0" width="111.4" height="6"/>
<rect x="186.1" y="82.7" class="st5" width="93.7" height="6"/>
<rect x="185.8" y="90.5" class="st4" width="88.6" height="6.5"/>
<rect x="185.8" y="108.2" width="0.7" height="6.5"/>
<rect x="186.1" y="116.5" class="st0" width="29.2" height="6"/>
<rect x="185.7" y="124.6" class="st5" width="141.1" height="6"/>
<rect x="185.4" y="132.4" class="st4" width="130.1" height="6.5"/>
<rect x="185.4" y="150.3" width="0.5" height="6.5"/>
<rect x="185.7" y="158.6" class="st0" width="63.8" height="6"/>
<rect x="185.7" y="166.7" class="st5" width="158.2" height="6"/>
<rect x="185.4" y="174.5" class="st4" width="76" height="6.5"/>
<rect x="185.4" y="233.8" width="23.2" height="6.5"/>
<rect x="185.7" y="242.1" class="st0" width="58.1" height="6"/>
<rect x="185.7" y="250.2" class="st5" width="140.3" height="6"/>
<rect x="185.4" y="258" class="st4" width="76" height="6.5"/>
<rect x="185.4" y="276" width="5.6" height="6.5"/>
<rect x="185.7" y="284.4" class="st0" width="99.5" height="6"/>
<rect x="185.7" y="292.4" class="st5" width="99.5" height="6"/>
<rect x="185.4" y="300.3" class="st4" width="94.1" height="6.5"/>
<rect x="185.4" y="318.3" width="5.6" height="6.5"/>
<rect x="185.7" y="326.7" class="st0" width="64" height="6"/>
<rect x="185.7" y="334.8" class="st5" width="122.7" height="6"/>
<rect x="185.4" y="342.6" class="st4" width="105.9" height="6.5"/>
<rect x="185.4" y="192.3" width="41" height="6.5"/>
<rect x="185.7" y="208" class="st5" width="99.5" height="6"/>
<rect x="185.4" y="215.8" class="st4" width="76" height="6.5"/>
<rect x="185.7" y="200.2" class="st0" width="85.8" height="6"/>
<g class="st1">
	<path d="M342.6,362.1c0-0.8-0.4-1.1-0.9-1.1c-0.5,0-0.9,0.3-0.9,1.1v2.5h-0.7v-4.1h0.7v0.4c0.3-0.4,0.6-0.5,1.1-0.5
		c0.9,0,1.5,0.5,1.5,1.8v2.4h-0.7V362.1z"/>
	<path d="M344.6,360.8h3.8v0.7h-3.8V360.8z M344.6,362.2h3.8v0.7h-3.8V362.2z"/>
	<path d="M349.6,364.1l0.4-0.5c0.3,0.3,0.7,0.5,1.4,0.5c0.8,0,1.4-0.6,1.4-1.3c0-0.7-0.5-1.2-1.1-1.2c-0.5,0-0.9,0.2-1.1,0.5
		l-0.7-0.2l0.3-2.8h3v0.6h-2.4l-0.2,1.7c0.3-0.2,0.7-0.4,1.2-0.4c1.1,0,1.8,0.8,1.8,1.8c0,1.1-0.8,1.9-2.1,1.9
		C350.5,364.7,349.9,364.4,349.6,364.1z"/>
</g>
<g class="st1">
	<path d="M355.5,360.2h-0.9v-0.5c0.6,0,1-0.2,1.1-0.7h0.5v5.6h-0.7V360.2z"/>
</g>
<g class="st1">
	<path d="M356.2,26.6h-0.7v-0.4c0.4,0,0.7-0.1,0.8-0.5h0.4v4.2h-0.5V26.6z"/>
</g>
<g class="st1">
	<path d="M354.3,37c0-0.5,0.3-0.9,0.7-1.1c-0.3-0.2-0.5-0.5-0.5-0.9c0-0.6,0.5-1.1,1.2-1.1c0.7,0,1.2,0.5,1.2,1.1
		c0,0.4-0.2,0.7-0.5,0.9c0.4,0.2,0.7,0.6,0.7,1.1c0,0.7-0.6,1.3-1.4,1.3C354.9,38.3,354.3,37.8,354.3,37z M356.6,37
		c0-0.5-0.4-0.8-0.9-0.8s-0.9,0.4-0.9,0.8c0,0.5,0.4,0.8,0.9,0.8S356.6,37.5,356.6,37z M356.4,35.1c0-0.4-0.3-0.6-0.7-0.6
		c-0.4,0-0.7,0.3-0.7,0.6c0,0.3,0.3,0.6,0.7,0.6S356.4,35.4,356.4,35.1z"/>
</g>
<g class="st1">
	<path d="M351.9,44.5c0.4-0.3,0.9-0.5,0.9-1c0-0.4-0.3-0.7-0.8-0.7c-0.5,0-0.8,0.2-0.9,0.6l-0.5-0.2c0.2-0.5,0.7-0.9,1.4-0.9
		c0.8,0,1.3,0.5,1.3,1.2c0,0.7-0.5,1.1-1.2,1.5c-0.5,0.3-0.9,0.6-1,1.1h2.2v0.5h-2.8C350.5,45.4,351.2,44.9,351.9,44.5z"/>
	<path d="M354.2,46.1l0.3-0.4c0.2,0.2,0.5,0.4,1,0.4c0.6,0,1-0.4,1-0.9c0-0.5-0.3-0.9-0.9-0.9c-0.4,0-0.7,0.2-0.8,0.3l-0.5-0.2
		l0.2-2.1h2.2v0.5H355l-0.2,1.3c0.2-0.2,0.5-0.3,0.9-0.3c0.8,0,1.3,0.6,1.3,1.3c0,0.8-0.6,1.5-1.6,1.5
		C354.9,46.6,354.4,46.4,354.2,46.1z"/>
</g>
<g class="st1">
	<path d="M353.1,51.5h-0.7v-0.4c0.4,0,0.7-0.1,0.8-0.5h0.4v4.2h-0.5V51.5z"/>
	<path d="M356.7,51.1h-2.1v-0.5h2.7v0.5c-1.1,1.2-1.3,2.7-1.3,3.7h-0.5C355.4,53.5,355.8,52.3,356.7,51.1z"/>
</g>
<g class="st1">
	<path d="M356.2,68.2h-0.7v-0.4c0.4,0,0.7-0.1,0.8-0.5h0.4v4.2h-0.5V68.2z"/>
</g>
<g class="st1">
	<path d="M352.6,76.5h-0.7v-0.4c0.4,0,0.7-0.1,0.8-0.5h0.4v4.2h-0.5V76.5z"/>
	<path d="M355,79.4c0.7-0.1,1.4-0.7,1.5-1.5c-0.2,0.2-0.5,0.4-0.9,0.4c-0.7,0-1.3-0.6-1.3-1.3c0-0.8,0.6-1.4,1.4-1.4
		c1,0,1.4,0.7,1.4,1.6c0,1.4-0.8,2.5-2.1,2.7V79.4z M356.6,76.9c0-0.5-0.4-0.8-0.9-0.8c-0.5,0-0.9,0.4-0.9,0.8
		c0,0.5,0.3,0.9,0.9,0.9C356.2,77.7,356.6,77.4,356.6,76.9z"/>
</g>
<g class="st1">
	<path d="M352.6,84.8h-0.7v-0.4c0.4,0,0.7-0.1,0.8-0.5h0.4v4.2h-0.5V84.8z"/>
	<path d="M354.3,86.5c0-1.3,0.8-2.4,2.2-2.7v0.5c-0.7,0.2-1.4,0.8-1.6,1.5c0.2-0.2,0.5-0.3,0.9-0.3c0.7,0,1.3,0.6,1.3,1.3
		c0,0.8-0.6,1.4-1.4,1.4C354.8,88.2,354.3,87.5,354.3,86.5z M356.6,86.8c0-0.5-0.4-0.9-0.9-0.9c-0.5,0-0.9,0.3-0.9,0.9
		c0,0.5,0.4,0.9,0.9,0.9C356.3,87.7,356.6,87.3,356.6,86.8z"/>
</g>
<g class="st1">
	<path d="M352.5,93.1h-0.7v-0.4c0.4,0,0.7-0.1,0.8-0.5h0.4v4.2h-0.5V93.1z"/>
	<path d="M354.2,96l0.3-0.4c0.2,0.2,0.5,0.4,1,0.4c0.6,0,1-0.4,1-0.9c0-0.5-0.3-0.9-0.9-0.9c-0.4,0-0.7,0.2-0.8,0.3l-0.5-0.2
		l0.2-2.1h2.2v0.5H355l-0.2,1.3c0.2-0.2,0.5-0.3,0.9-0.3c0.8,0,1.3,0.6,1.3,1.3c0,0.8-0.6,1.5-1.6,1.5
		C354.9,96.5,354.4,96.2,354.2,96z"/>
</g>
<g class="st1">
	<path d="M354.1,111.2c0-0.9,0.3-2.2,1.5-2.2c1.1,0,1.5,1.1,1.5,2.2c0,0.9-0.3,2.2-1.5,2.2C354.5,113.3,354.1,112.2,354.1,111.2z
		 M356.5,111.2c0-0.8-0.2-1.7-0.9-1.7c-0.8,0-0.9,0.9-0.9,1.7c0,0.8,0.2,1.7,0.9,1.7C356.4,112.8,356.5,111.9,356.5,111.2z"/>
</g>
<g class="st1">
	<path d="M354.2,121.2l0.3-0.4c0.2,0.2,0.5,0.4,1,0.4c0.6,0,1-0.4,1-0.9c0-0.5-0.3-0.9-0.9-0.9c-0.4,0-0.7,0.2-0.8,0.3l-0.5-0.2
		l0.2-2.1h2.2v0.5H355l-0.2,1.3c0.2-0.2,0.5-0.3,0.9-0.3c0.8,0,1.3,0.6,1.3,1.3c0,0.8-0.6,1.5-1.6,1.5
		C354.9,121.6,354.4,121.4,354.2,121.2z"/>
</g>
<g class="st1">
	<path d="M352,127.8c0.4-0.3,0.9-0.5,0.9-1c0-0.4-0.3-0.7-0.8-0.7c-0.5,0-0.8,0.2-0.9,0.6l-0.5-0.2c0.2-0.5,0.7-0.9,1.4-0.9
		c0.8,0,1.3,0.5,1.3,1.2c0,0.7-0.5,1.1-1.2,1.5c-0.5,0.3-0.9,0.6-1,1.1h2.2v0.5h-2.8C350.6,128.8,351.3,128.2,352,127.8z"/>
</g>
<g class="st1">
	<path d="M356.1,128.8h-2.1v-0.3l2.2-2.8h0.5v2.7h0.6v0.5h-0.6v1h-0.5V128.8z M356.1,126.4l-1.5,1.9h1.5V126.4z"/>
</g>
<g class="st1">
	<path d="M352,136.1c0.4-0.3,0.9-0.5,0.9-1c0-0.4-0.3-0.7-0.8-0.7c-0.5,0-0.8,0.2-0.9,0.6l-0.5-0.2c0.2-0.5,0.7-0.9,1.4-0.9
		c0.8,0,1.3,0.5,1.3,1.2c0,0.7-0.5,1.1-1.2,1.5c-0.5,0.3-0.9,0.6-1,1.1h2.2v0.5h-2.8C350.6,137.1,351.3,136.5,352,136.1z"/>
	<path d="M355.7,136.1c0.4-0.3,0.9-0.5,0.9-1c0-0.4-0.3-0.7-0.8-0.7c-0.5,0-0.8,0.2-0.9,0.6l-0.5-0.2c0.2-0.5,0.7-0.9,1.4-0.9
		c0.8,0,1.3,0.5,1.3,1.2c0,0.7-0.5,1.1-1.2,1.5c-0.5,0.3-0.9,0.6-1,1.1h2.2v0.5h-2.8C354.3,137.1,355,136.5,355.7,136.1z"/>
</g>
<g class="st1">
	<path d="M354.1,153.4c0-0.9,0.3-2.2,1.5-2.2c1.1,0,1.5,1.1,1.5,2.2c0,0.9-0.3,2.2-1.5,2.2C354.5,155.5,354.1,154.4,354.1,153.4z
		 M356.5,153.4c0-0.8-0.2-1.7-0.9-1.7c-0.8,0-0.9,0.9-0.9,1.7c0,0.8,0.2,1.7,0.9,1.7C356.4,155,356.5,154.1,356.5,153.4z"/>
</g>
<g class="st1">
	<path d="M354,160.4h-0.7V160c0.4,0,0.7-0.1,0.8-0.5h0.4v4.2H354V160.4z"/>
	<path d="M356.2,160.4h-0.7V160c0.4,0,0.7-0.1,0.8-0.5h0.4v4.2h-0.5V160.4z"/>
</g>
<g class="st1">
	<path d="M352.5,170c0.4-0.3,0.9-0.5,0.9-1c0-0.4-0.3-0.7-0.8-0.7c-0.5,0-0.8,0.2-0.9,0.6l-0.5-0.2c0.2-0.5,0.7-0.9,1.4-0.9
		c0.8,0,1.3,0.5,1.3,1.2c0,0.7-0.5,1.1-1.2,1.5c-0.5,0.3-0.9,0.6-1,1.1h2.2v0.5h-2.8C351.1,170.9,351.8,170.4,352.5,170z"/>
	<path d="M356.7,168.3h-2.1v-0.5h2.7v0.5c-1.1,1.2-1.3,2.7-1.3,3.7h-0.5C355.4,170.7,355.8,169.5,356.7,168.3z"/>
</g>
<g class="st1">
	<path d="M352.6,177h-0.7v-0.4c0.4,0,0.7-0.1,0.8-0.5h0.4v4.2h-0.5V177z"/>
	<path d="M354.2,179.4l0.5-0.2c0.2,0.5,0.5,0.7,0.9,0.7c0.5,0,0.9-0.2,0.9-0.8c0-0.4-0.3-0.8-0.9-0.8h-0.3v-0.5h0.3
		c0.4,0,0.7-0.3,0.7-0.7c0-0.4-0.3-0.7-0.7-0.7c-0.5,0-0.7,0.3-0.8,0.6l-0.5-0.2c0.2-0.5,0.6-0.9,1.3-0.9c0.7,0,1.3,0.5,1.3,1.1
		c0,0.4-0.2,0.7-0.5,0.9c0.4,0.2,0.7,0.5,0.7,1c0,0.8-0.6,1.3-1.4,1.3C354.9,180.4,354.4,180,354.2,179.4z"/>
</g>
<g class="st1">
	<path d="M356.7,193.6h-2.1v-0.5h2.7v0.5c-1.1,1.2-1.3,2.7-1.3,3.7h-0.5C355.4,196,355.8,194.8,356.7,193.6z"/>
</g>
<g class="st1">
	<path d="M352.6,202.3h-0.7v-0.4c0.4,0,0.7-0.1,0.8-0.5h0.4v4.2h-0.5V202.3z"/>
</g>
<g class="st1">
	<path d="M356.1,204.6h-2.1v-0.3l2.2-2.8h0.5v2.7h0.6v0.5h-0.6v1h-0.5V204.6z M356.1,202.2l-1.5,1.9h1.5V202.2z"/>
</g>
<g class="st1">
	<path d="M353.1,210.6h-0.7v-0.4c0.4,0,0.7-0.1,0.8-0.5h0.4v4.2h-0.5V210.6z"/>
	<path d="M356.7,210.2h-2.1v-0.5h2.7v0.5c-1.1,1.2-1.3,2.7-1.3,3.7h-0.5C355.4,212.6,355.8,211.4,356.7,210.2z"/>
</g>
<g class="st1">
	<path d="M352.6,218.9h-0.7v-0.4c0.4,0,0.7-0.1,0.8-0.5h0.4v4.2h-0.5V218.9z"/>
	<path d="M354.2,221.3l0.5-0.2c0.2,0.5,0.5,0.7,0.9,0.7c0.5,0,0.9-0.2,0.9-0.8c0-0.4-0.3-0.8-0.9-0.8h-0.3v-0.5h0.3
		c0.4,0,0.7-0.3,0.7-0.7c0-0.4-0.3-0.7-0.7-0.7c-0.5,0-0.7,0.3-0.8,0.6l-0.5-0.2c0.2-0.5,0.6-0.9,1.3-0.9c0.7,0,1.3,0.5,1.3,1.1
		c0,0.4-0.2,0.7-0.5,0.9c0.4,0.2,0.7,0.5,0.7,1c0,0.8-0.6,1.3-1.4,1.3C354.9,222.3,354.4,221.9,354.2,221.3z"/>
</g>
<g class="st1">
	<path d="M356.1,237.9h-2.1v-0.3l2.2-2.8h0.5v2.7h0.6v0.5h-0.6v1h-0.5V237.9z M356.1,235.5l-1.5,1.9h1.5V235.5z"/>
</g>
<g class="st1">
	<path d="M352.4,243.9h-0.7v-0.4c0.4,0,0.7-0.1,0.8-0.5h0.4v4.2h-0.5V243.9z"/>
	<path d="M354.1,245.2c0-0.9,0.3-2.2,1.5-2.2c1.1,0,1.5,1.1,1.5,2.2c0,0.9-0.3,2.2-1.5,2.2C354.5,247.3,354.1,246.2,354.1,245.2z
		 M356.5,245.2c0-0.8-0.2-1.7-0.9-1.7c-0.8,0-0.9,0.9-0.9,1.7c0,0.8,0.2,1.7,0.9,1.7C356.4,246.8,356.5,245.9,356.5,245.2z"/>
</g>
<g class="st1">
	<path d="M352,253.5c0.4-0.3,0.9-0.5,0.9-1c0-0.4-0.3-0.7-0.8-0.7c-0.5,0-0.8,0.2-0.9,0.6l-0.5-0.2c0.2-0.5,0.7-0.9,1.4-0.9
		c0.8,0,1.3,0.5,1.3,1.2c0,0.7-0.5,1.1-1.2,1.5c-0.5,0.3-0.9,0.6-1,1.1h2.2v0.5h-2.8C350.6,254.5,351.3,253.9,352,253.5z"/>
</g>
<g class="st1">
	<path d="M356.1,254.5h-2.1v-0.3l2.2-2.8h0.5v2.7h0.6v0.5h-0.6v1h-0.5V254.5z M356.1,252.1l-1.5,1.9h1.5V252.1z"/>
</g>
<g class="st1">
	<path d="M352.6,260.5h-0.7v-0.4c0.4,0,0.7-0.1,0.8-0.5h0.4v4.2h-0.5V260.5z"/>
	<path d="M354.2,263l0.5-0.2c0.2,0.5,0.5,0.7,0.9,0.7c0.5,0,0.9-0.2,0.9-0.8c0-0.4-0.3-0.8-0.9-0.8h-0.3v-0.5h0.3
		c0.4,0,0.7-0.3,0.7-0.7c0-0.4-0.3-0.7-0.7-0.7c-0.5,0-0.7,0.3-0.8,0.6l-0.5-0.2c0.2-0.5,0.6-0.9,1.3-0.9c0.7,0,1.3,0.5,1.3,1.1
		c0,0.4-0.2,0.7-0.5,0.9c0.4,0.2,0.7,0.5,0.7,1c0,0.8-0.6,1.3-1.4,1.3C354.9,263.9,354.4,263.5,354.2,263z"/>
</g>
<g class="st1">
	<path d="M356.2,277.8h-0.7v-0.4c0.4,0,0.7-0.1,0.8-0.5h0.4v4.2h-0.5V277.8z"/>
</g>
<g class="st1">
	<path d="M353.1,286.1h-0.7v-0.4c0.4,0,0.7-0.1,0.8-0.5h0.4v4.2h-0.5V286.1z"/>
	<path d="M356.7,285.7h-2.1v-0.5h2.7v0.5c-1.1,1.2-1.3,2.7-1.3,3.7h-0.5C355.4,288,355.8,286.9,356.7,285.7z"/>
</g>
<g class="st1">
	<path d="M353.1,294.4h-0.7V294c0.4,0,0.7-0.1,0.8-0.5h0.4v4.2h-0.5V294.4z"/>
	<path d="M356.7,294h-2.1v-0.5h2.7v0.5c-1.1,1.2-1.3,2.7-1.3,3.7h-0.5C355.4,296.3,355.8,295.2,356.7,294z"/>
</g>
<g class="st1">
	<path d="M352.6,302.7h-0.7v-0.4c0.4,0,0.7-0.1,0.8-0.5h0.4v4.2h-0.5V302.7z"/>
	<path d="M354.3,304.5c0-1.3,0.8-2.4,2.2-2.7v0.5c-0.7,0.2-1.4,0.8-1.6,1.5c0.2-0.2,0.5-0.3,0.9-0.3c0.7,0,1.3,0.6,1.3,1.3
		c0,0.8-0.6,1.4-1.4,1.4C354.8,306.1,354.3,305.4,354.3,304.5z M356.6,304.7c0-0.5-0.4-0.9-0.9-0.9c-0.5,0-0.9,0.3-0.9,0.9
		c0,0.5,0.4,0.9,0.9,0.9C356.3,305.6,356.6,305.2,356.6,304.7z"/>
</g>
<g class="st1">
	<path d="M356.2,320h-0.7v-0.4c0.4,0,0.7-0.1,0.8-0.5h0.4v4.2h-0.5V320z"/>
</g>
<g class="st1">
	<path d="M354,328.3h-0.7V328c0.4,0,0.7-0.1,0.8-0.5h0.4v4.2H354V328.3z"/>
	<path d="M356.2,328.3h-0.7V328c0.4,0,0.7-0.1,0.8-0.5h0.4v4.2h-0.5V328.3z"/>
</g>
<g class="st1">
	<path d="M353.4,337.9c0.4-0.3,0.9-0.5,0.9-1c0-0.4-0.3-0.7-0.8-0.7c-0.5,0-0.8,0.2-0.9,0.6l-0.5-0.2c0.2-0.5,0.7-0.9,1.4-0.9
		c0.8,0,1.3,0.5,1.3,1.2c0,0.7-0.5,1.1-1.2,1.5c-0.5,0.3-0.9,0.6-1,1.1h2.2v0.5H352C352,338.9,352.7,338.3,353.4,337.9z"/>
	<path d="M356.2,336.6h-0.7v-0.4c0.4,0,0.7-0.1,0.8-0.5h0.4v4.2h-0.5V336.6z"/>
</g>
<g class="st1">
	<path d="M352.6,344.9h-0.7v-0.4c0.4,0,0.7-0.1,0.8-0.5h0.4v4.2h-0.5V344.9z"/>
	<path d="M354.3,347.1c0-0.5,0.3-0.9,0.7-1.1c-0.3-0.2-0.5-0.5-0.5-0.9c0-0.6,0.5-1.1,1.2-1.1c0.7,0,1.2,0.5,1.2,1.1
		c0,0.4-0.2,0.7-0.5,0.9c0.4,0.2,0.7,0.6,0.7,1.1c0,0.7-0.6,1.3-1.4,1.3C354.9,348.3,354.3,347.8,354.3,347.1z M356.6,347
		c0-0.5-0.4-0.8-0.9-0.8s-0.9,0.4-0.9,0.8c0,0.5,0.4,0.8,0.9,0.8S356.6,347.5,356.6,347z M356.4,345.1c0-0.4-0.3-0.6-0.7-0.6
		c-0.4,0-0.7,0.3-0.7,0.6c0,0.3,0.3,0.6,0.7,0.6S356.4,345.5,356.4,345.1z"/>
</g>
</svg>
