<?xml version="1.0" encoding="utf-8"?>
<!-- Generator: Adobe Illustrator 21.0.0, SVG Export Plug-In . SVG Version: 6.00 Build 0)  -->
<svg version="1.1" id="Layer_1" xmlns="http://www.w3.org/2000/svg" xmlns:xlink="http://www.w3.org/1999/xlink" x="0px" y="0px"
	 viewBox="0 0 608 511" style="enable-background:new 0 0 608 511;" xml:space="preserve">
<style type="text/css">
	.st0{fill:none;stroke:#000000;stroke-width:2;}
	.st1{fill:#FFFFFF;stroke:#000000;stroke-width:2;}
	.st2{fill:#0000FF;}
	.st3{clip-path:url(#SVGID_2_);}
	.st4{clip-path:url(#SVGID_4_);}
	.st5{clip-path:url(#SVGID_6_);}
</style>
<rect x="185.7" y="233" class="st0" width="59.8" height="59.8"/>
<rect x="305.3" y="233" class="st0" width="59.8" height="59.8"/>
<rect x="125.9" y="233" class="st0" width="59.8" height="59.8"/>
<rect x="245.5" y="233" class="st0" width="59.8" height="59.8"/>
<rect x="365" y="233" class="st0" width="59.8" height="59.8"/>
<rect x="424.8" y="233" class="st1" width="59.8" height="59.8"/>
<rect x="484.5" y="233" class="st1" width="59.8" height="59.8"/>
<rect x="544.2" y="233" class="st1" width="59.8" height="59.8"/>
<rect x="185.7" y="292.7" class="st0" width="59.8" height="59.8"/>
<rect x="305.3" y="292.7" class="st0" width="59.8" height="59.8"/>
<rect x="125.9" y="292.7" class="st0" width="59.8" height="59.8"/>
<rect x="245.5" y="292.7" class="st0" width="59.8" height="59.8"/>
<rect x="365" y="292.7" class="st0" width="59.8" height="59.8"/>
<rect x="424.8" y="292.7" class="st0" width="59.8" height="59.8"/>
<rect x="484.5" y="292.7" class="st1" width="59.8" height="59.8"/>
<rect x="544.2" y="292.7" class="st1" width="59.8" height="59.8"/>
<rect x="66.1" y="352.5" class="st0" width="59.8" height="59.8"/>
<rect x="185.7" y="352.5" class="st0" width="59.8" height="59.8"/>
<rect x="6.4" y="352.5" class="st1" width="59.8" height="59.8"/>
<rect x="125.9" y="352.5" class="st0" width="59.8" height="59.8"/>
<rect x="245.5" y="352.5" class="st0" width="59.8" height="59.8"/>
<rect x="66.1" y="412.2" class="st1" width="59.8" height="59.8"/>
<rect x="185.7" y="412.2" class="st1" width="59.8" height="59.8"/>
<rect x="305.3" y="412.2" class="st1" width="59.8" height="59.8"/>
<rect x="6.4" y="412.2" class="st1" width="59.8" height="59.8"/>
<rect x="125.9" y="412.2" class="st1" width="59.8" height="59.8"/>
<rect x="245.5" y="412.2" class="st1" width="59.8" height="59.8"/>
<rect x="365" y="412.2" class="st1" width="59.8" height="59.8"/>
<rect x="305.1" y="352.5" class="st0" width="59.8" height="59.8"/>
<rect x="365.2" y="352.5" class="st0" width="59.8" height="59.8"/>
<rect x="95.7" y="84.5" class="st2" width="358.3" height="357.6"/>
<rect x="95.7" y="84.5" class="st0" width="358.3" height="357.6"/>
<g>
	<defs>
		<rect id="SVGID_1_" x="66.6" y="55" width="355.8" height="357"/>
	</defs>
	<clipPath id="SVGID_2_">
		<use xlink:href="#SVGID_1_"  style="overflow:visible;"/>
	</clipPath>
	<g class="st3">
		<defs>
			<rect id="SVGID_3_" x="63.7" y="52.2" width="361.7" height="359.9"/>
		</defs>
		<clipPath id="SVGID_4_">
			<use xlink:href="#SVGID_3_"  style="overflow:visible;"/>
		</clipPath>
		<g transform="matrix(1 0 0 1 3.814697e-06 0)" class="st4">
			
				<image style="overflow:visible;" width="530" height="527" xlink:href="900224AA6136DAEC.jpg"  transform="matrix(0.6825 0 0 0.6829 63.7372 52.1504)">
			</image>
		</g>
		<g class="st4">
			
				<image style="overflow:visible;" width="521" height="531" xlink:href="900224AA6136DAED.jpg"  transform="matrix(0.6944 0 0 0.6946 63.7372 52.1504)">
			</image>
		</g>
		<g class="st4">
			<defs>
				<rect id="SVGID_5_" x="64.9" y="52.2" width="359.4" height="360.7"/>
			</defs>
			<clipPath id="SVGID_6_">
				<use xlink:href="#SVGID_5_"  style="overflow:visible;"/>
			</clipPath>
			<g class="st5">
				<defs>
					<rect id="SVGID_7_" x="61.9" y="52.1" width="365.4" height="360.7"/>
				</defs>
				<clipPath id="SVGID_8_">
					<use xlink:href="#SVGID_7_"  style="overflow:visible;"/>
				</clipPath>
			</g>
		</g>
	</g>
</g>
<rect x="66.6" y="55" class="st0" width="355.8" height="357.1"/>
</svg>
